<?xml version="1.0" standalone="no"?>
<svg width="567" height="466" viewBox="0 0 567 466" xmlns="http://www.w3.org/2000/svg">
<title>
/bbx/output/_plots/example/hmm/performance/plots/d_5p_del.svg
</title>
<desc>
Creator: ROOT Version 5.34/14
CreationDate: Thu Jul 30 18:25:43 2015</desc>
<defs>
</defs>
<rect x="0" y="0" width="567" height="466" fill="white"/>
<rect x="79" y="37" width="443" height="359" fill="none" stroke="black"/>
<rect x="79" y="37" width="443" height="359" fill="none" stroke="black"/>
<path d="M79,396h 443" fill="none" stroke="black" stroke-width="3"/>
<text x="324" y="449" fill="black" font-size="32" font-family="Times" font-weight="bold">
inferred - true
</text>
<path d="M209,385v 11" fill="none" stroke="black" stroke-width="3"/>
<path d="M239,391v 5" fill="none" stroke="black" stroke-width="3"/>
<path d="M270,391v 5" fill="none" stroke="black" stroke-width="3"/>
<path d="M300,391v 5" fill="none" stroke="black" stroke-width="3"/>
<path d="M331,391v 5" fill="none" stroke="black" stroke-width="3"/>
<path d="M361,385v 11" fill="none" stroke="black" stroke-width="3"/>
<path d="M392,391v 5" fill="none" stroke="black" stroke-width="3"/>
<path d="M422,391v 5" fill="none" stroke="black" stroke-width="3"/>
<path d="M453,391v 5" fill="none" stroke="black" stroke-width="3"/>
<path d="M483,391v 5" fill="none" stroke="black" stroke-width="3"/>
<path d="M514,385v 11" fill="none" stroke="black" stroke-width="3"/>
<path d="M209,385v 11" fill="none" stroke="black" stroke-width="3"/>
<path d="M178,391v 5" fill="none" stroke="black" stroke-width="3"/>
<path d="M148,391v 5" fill="none" stroke="black" stroke-width="3"/>
<path d="M117,391v 5" fill="none" stroke="black" stroke-width="3"/>
<path d="M87,391v 5" fill="none" stroke="black" stroke-width="3"/>
<path d="M514,385v 11" fill="none" stroke="black" stroke-width="3"/>
<text x="194" y="416" fill="black" font-size="21" font-family="Times" font-weight="bold">
-10
</text>
<text x="355" y="416" fill="black" font-size="21" font-family="Times" font-weight="bold">
0
</text>
<text x="502" y="416" fill="black" font-size="21" font-family="Times" font-weight="bold">
10
</text>
<path d="M79,37h 443" fill="none" stroke="black" stroke-width="3"/>
<path d="M209,48v -11" fill="none" stroke="black" stroke-width="3"/>
<path d="M239,43v -6" fill="none" stroke="black" stroke-width="3"/>
<path d="M270,43v -6" fill="none" stroke="black" stroke-width="3"/>
<path d="M300,43v -6" fill="none" stroke="black" stroke-width="3"/>
<path d="M331,43v -6" fill="none" stroke="black" stroke-width="3"/>
<path d="M361,48v -11" fill="none" stroke="black" stroke-width="3"/>
<path d="M392,43v -6" fill="none" stroke="black" stroke-width="3"/>
<path d="M422,43v -6" fill="none" stroke="black" stroke-width="3"/>
<path d="M453,43v -6" fill="none" stroke="black" stroke-width="3"/>
<path d="M483,43v -6" fill="none" stroke="black" stroke-width="3"/>
<path d="M514,48v -11" fill="none" stroke="black" stroke-width="3"/>
<path d="M209,48v -11" fill="none" stroke="black" stroke-width="3"/>
<path d="M178,43v -6" fill="none" stroke="black" stroke-width="3"/>
<path d="M148,43v -6" fill="none" stroke="black" stroke-width="3"/>
<path d="M117,43v -6" fill="none" stroke="black" stroke-width="3"/>
<path d="M87,43v -6" fill="none" stroke="black" stroke-width="3"/>
<path d="M514,48v -11" fill="none" stroke="black" stroke-width="3"/>
<path d="M79,396v -359" fill="none" stroke="black" stroke-width="3"/>
<path d="M92,396h -13" fill="none" stroke="black" stroke-width="3"/>
<path d="M86,369h -7" fill="none" stroke="black" stroke-width="3"/>
<path d="M86,343h -7" fill="none" stroke="black" stroke-width="3"/>
<path d="M86,316h -7" fill="none" stroke="black" stroke-width="3"/>
<path d="M92,289h -13" fill="none" stroke="black" stroke-width="3"/>
<path d="M86,262h -7" fill="none" stroke="black" stroke-width="3"/>
<path d="M86,236h -7" fill="none" stroke="black" stroke-width="3"/>
<path d="M86,209h -7" fill="none" stroke="black" stroke-width="3"/>
<path d="M92,182h -13" fill="none" stroke="black" stroke-width="3"/>
<path d="M86,155h -7" fill="none" stroke="black" stroke-width="3"/>
<path d="M86,128h -7" fill="none" stroke="black" stroke-width="3"/>
<path d="M86,102h -7" fill="none" stroke="black" stroke-width="3"/>
<path d="M92,75h -13" fill="none" stroke="black" stroke-width="3"/>
<path d="M92,75h -13" fill="none" stroke="black" stroke-width="3"/>
<path d="M86,48h -7" fill="none" stroke="black" stroke-width="3"/>
<text x="46" y="404" fill="black" font-size="21" font-family="Times" font-weight="bold">
0.0
</text>
<text x="46" y="297" fill="black" font-size="21" font-family="Times" font-weight="bold">
0.2
</text>
<text x="46" y="190" fill="black" font-size="21" font-family="Times" font-weight="bold">
0.4
</text>
<text x="46" y="82" fill="black" font-size="21" font-family="Times" font-weight="bold">
0.6
</text>
<path d="M522,396v -359" fill="none" stroke="black" stroke-width="3"/>
<path d="M508,396h 14" fill="none" stroke="black" stroke-width="3"/>
<path d="M515,369h 7" fill="none" stroke="black" stroke-width="3"/>
<path d="M515,343h 7" fill="none" stroke="black" stroke-width="3"/>
<path d="M515,316h 7" fill="none" stroke="black" stroke-width="3"/>
<path d="M508,289h 14" fill="none" stroke="black" stroke-width="3"/>
<path d="M515,262h 7" fill="none" stroke="black" stroke-width="3"/>
<path d="M515,236h 7" fill="none" stroke="black" stroke-width="3"/>
<path d="M515,209h 7" fill="none" stroke="black" stroke-width="3"/>
<path d="M508,182h 14" fill="none" stroke="black" stroke-width="3"/>
<path d="M515,155h 7" fill="none" stroke="black" stroke-width="3"/>
<path d="M515,128h 7" fill="none" stroke="black" stroke-width="3"/>
<path d="M515,102h 7" fill="none" stroke="black" stroke-width="3"/>
<path d="M508,75h 14" fill="none" stroke="black" stroke-width="3"/>
<path d="M508,75h 14" fill="none" stroke="black" stroke-width="3"/>
<path d="M515,48h 7" fill="none" stroke="black" stroke-width="3"/>
<rect x="113" y="-4" width="149" height="39" fill="white"/>
<text x="120" y="23" fill="black" font-size="30" font-family="Helvetica" font-weight="bold">
d_5p_del
</text>
<path d="M80,395v -2h 15v 2h 45v -2h 16v 2h 15v -2h 15v 2h 31v -5h 15v 5h 15v -5h 31v -31h 15v 31h 15v 3h 15v -34h 16v -3h 15v -259h 15v 276h 15v -3h 16v 6h 15v 19h 15v -7h 15v 7h 16v -5h 15v 5h 15v -2h 31" fill="none" stroke="#ff0000"
 stroke-width="6"/>
<path d="M332,107h 42" fill="none" stroke="#ff0000" stroke-width="6"/>
<rect x="113" y="-4" width="149" height="39" fill="white"/>
<text x="120" y="23" fill="black" font-size="30" font-family="Helvetica" font-weight="bold">
d_5p_del
</text></svg>
