<?xml version="1.0" standalone="no"?>
<svg width="567" height="466" viewBox="0 0 567 466" xmlns="http://www.w3.org/2000/svg">
<title>
/bbx/output/_plots/example/hmm/performance/plots/d_hamming_to_true_naive_normed.svg
</title>
<desc>
Creator: ROOT Version 5.34/14
CreationDate: Wed Aug 19 19:38:58 2015</desc>
<defs>
</defs>
<rect x="0" y="0" width="567" height="466" fill="white"/>
<rect x="79" y="37" width="443" height="359" fill="none" stroke="black"/>
<rect x="79" y="37" width="443" height="359" fill="none" stroke="black"/>
<path d="M79,396h 443" fill="none" stroke="black" stroke-width="3"/>
<text x="268" y="446" fill="black" font-size="32" font-family="Times" font-weight="bold">
hamming distance
</text>
<path d="M82,385v 11" fill="none" stroke="black" stroke-width="3"/>
<path d="M111,391v 5" fill="none" stroke="black" stroke-width="3"/>
<path d="M140,391v 5" fill="none" stroke="black" stroke-width="3"/>
<path d="M170,391v 5" fill="none" stroke="black" stroke-width="3"/>
<path d="M199,385v 11" fill="none" stroke="black" stroke-width="3"/>
<path d="M228,391v 5" fill="none" stroke="black" stroke-width="3"/>
<path d="M257,391v 5" fill="none" stroke="black" stroke-width="3"/>
<path d="M286,391v 5" fill="none" stroke="black" stroke-width="3"/>
<path d="M315,385v 11" fill="none" stroke="black" stroke-width="3"/>
<path d="M344,391v 5" fill="none" stroke="black" stroke-width="3"/>
<path d="M373,391v 5" fill="none" stroke="black" stroke-width="3"/>
<path d="M402,391v 5" fill="none" stroke="black" stroke-width="3"/>
<path d="M431,385v 11" fill="none" stroke="black" stroke-width="3"/>
<path d="M82,385v 11" fill="none" stroke="black" stroke-width="3"/>
<path d="M431,385v 11" fill="none" stroke="black" stroke-width="3"/>
<path d="M460,391v 5" fill="none" stroke="black" stroke-width="3"/>
<path d="M490,391v 5" fill="none" stroke="black" stroke-width="3"/>
<path d="M519,391v 5" fill="none" stroke="black" stroke-width="3"/>
<text x="77" y="416" fill="black" font-size="21" font-family="Times" font-weight="bold">
0
</text>
<text x="187" y="416" fill="black" font-size="21" font-family="Times" font-weight="bold">
20
</text>
<text x="303" y="416" fill="black" font-size="21" font-family="Times" font-weight="bold">
40
</text>
<text x="419" y="416" fill="black" font-size="21" font-family="Times" font-weight="bold">
60
</text>
<path d="M79,37h 443" fill="none" stroke="black" stroke-width="3"/>
<path d="M82,48v -11" fill="none" stroke="black" stroke-width="3"/>
<path d="M111,43v -6" fill="none" stroke="black" stroke-width="3"/>
<path d="M140,43v -6" fill="none" stroke="black" stroke-width="3"/>
<path d="M170,43v -6" fill="none" stroke="black" stroke-width="3"/>
<path d="M199,48v -11" fill="none" stroke="black" stroke-width="3"/>
<path d="M228,43v -6" fill="none" stroke="black" stroke-width="3"/>
<path d="M257,43v -6" fill="none" stroke="black" stroke-width="3"/>
<path d="M286,43v -6" fill="none" stroke="black" stroke-width="3"/>
<path d="M315,48v -11" fill="none" stroke="black" stroke-width="3"/>
<path d="M344,43v -6" fill="none" stroke="black" stroke-width="3"/>
<path d="M373,43v -6" fill="none" stroke="black" stroke-width="3"/>
<path d="M402,43v -6" fill="none" stroke="black" stroke-width="3"/>
<path d="M431,48v -11" fill="none" stroke="black" stroke-width="3"/>
<path d="M82,48v -11" fill="none" stroke="black" stroke-width="3"/>
<path d="M431,48v -11" fill="none" stroke="black" stroke-width="3"/>
<path d="M460,43v -6" fill="none" stroke="black" stroke-width="3"/>
<path d="M490,43v -6" fill="none" stroke="black" stroke-width="3"/>
<path d="M519,43v -6" fill="none" stroke="black" stroke-width="3"/>
<path d="M79,396v -359" fill="none" stroke="black" stroke-width="3"/>
<path d="M92,396h -13" fill="none" stroke="black" stroke-width="3"/>
<path d="M86,371h -7" fill="none" stroke="black" stroke-width="3"/>
<path d="M86,345h -7" fill="none" stroke="black" stroke-width="3"/>
<path d="M86,319h -7" fill="none" stroke="black" stroke-width="3"/>
<path d="M92,294h -13" fill="none" stroke="black" stroke-width="3"/>
<path d="M86,268h -7" fill="none" stroke="black" stroke-width="3"/>
<path d="M86,243h -7" fill="none" stroke="black" stroke-width="3"/>
<path d="M86,217h -7" fill="none" stroke="black" stroke-width="3"/>
<path d="M92,192h -13" fill="none" stroke="black" stroke-width="3"/>
<path d="M86,166h -7" fill="none" stroke="black" stroke-width="3"/>
<path d="M86,141h -7" fill="none" stroke="black" stroke-width="3"/>
<path d="M86,115h -7" fill="none" stroke="black" stroke-width="3"/>
<path d="M92,90h -13" fill="none" stroke="black" stroke-width="3"/>
<path d="M92,90h -13" fill="none" stroke="black" stroke-width="3"/>
<path d="M86,64h -7" fill="none" stroke="black" stroke-width="3"/>
<path d="M86,38h -7" fill="none" stroke="black" stroke-width="3"/>
<text x="46" y="404" fill="black" font-size="21" font-family="Times" font-weight="bold">
0.0
</text>
<text x="46" y="301" fill="black" font-size="21" font-family="Times" font-weight="bold">
0.2
</text>
<text x="46" y="200" fill="black" font-size="21" font-family="Times" font-weight="bold">
0.4
</text>
<text x="46" y="97" fill="black" font-size="21" font-family="Times" font-weight="bold">
0.6
</text>
<path d="M522,396v -359" fill="none" stroke="black" stroke-width="3"/>
<path d="M508,396h 14" fill="none" stroke="black" stroke-width="3"/>
<path d="M515,371h 7" fill="none" stroke="black" stroke-width="3"/>
<path d="M515,345h 7" fill="none" stroke="black" stroke-width="3"/>
<path d="M515,319h 7" fill="none" stroke="black" stroke-width="3"/>
<path d="M508,294h 14" fill="none" stroke="black" stroke-width="3"/>
<path d="M515,268h 7" fill="none" stroke="black" stroke-width="3"/>
<path d="M515,243h 7" fill="none" stroke="black" stroke-width="3"/>
<path d="M515,217h 7" fill="none" stroke="black" stroke-width="3"/>
<path d="M508,192h 14" fill="none" stroke="black" stroke-width="3"/>
<path d="M515,166h 7" fill="none" stroke="black" stroke-width="3"/>
<path d="M515,141h 7" fill="none" stroke="black" stroke-width="3"/>
<path d="M515,115h 7" fill="none" stroke="black" stroke-width="3"/>
<path d="M508,90h 14" fill="none" stroke="black" stroke-width="3"/>
<path d="M508,90h 14" fill="none" stroke="black" stroke-width="3"/>
<path d="M515,64h 7" fill="none" stroke="black" stroke-width="3"/>
<path d="M515,38h 7" fill="none" stroke="black" stroke-width="3"/>
<rect x="113" y="-4" width="397" height="40" fill="white"/>
<text x="131" y="21" fill="black" font-size="21" font-family="Helvetica" font-weight="bold">
d_hamming_to_true_naive_normed
</text>
<path d="M80,395v -298h 5v 298h 12v -18h 6v 16h 5v -5h 12v -14h 6v 17h 6v 2h 6v -2h 5v -8h 6v -11h 6v 23h 6v -7h 6v 5h 5v -5h 6v 7h 6v -7h 6v 7h 6v -2h 11v 2h 6v -4h 6v 4h 6v -10h 6v 10h 11v -2h 6v 2h 6v -2h 12v 2h 5v -4h 6v 4h 64v -2h 12v 2h 17v
 -21h 6v 21h 58v -2h 6v 2h 12v -4h 6v 4h 58v -2h 6" fill="none" stroke="#ff0000" stroke-width="6"/>
<path d="M332,107h 42" fill="none" stroke="#ff0000" stroke-width="6"/>
<rect x="113" y="-4" width="397" height="40" fill="white"/>
<text x="131" y="21" fill="black" font-size="21" font-family="Helvetica" font-weight="bold">
d_hamming_to_true_naive_normed
</text></svg>
