<?xml version="1.0" standalone="no"?>
<svg width="567" height="466" viewBox="0 0 567 466" xmlns="http://www.w3.org/2000/svg">
<title>
/bbx/output/_plots/example/hmm/performance/plots/dj_insertion.svg
</title>
<desc>
Creator: ROOT Version 5.34/14
CreationDate: Wed Aug 19 19:38:58 2015</desc>
<defs>
</defs>
<rect x="0" y="0" width="567" height="466" fill="white"/>
<rect x="79" y="37" width="443" height="359" fill="none" stroke="black"/>
<rect x="79" y="37" width="443" height="359" fill="none" stroke="black"/>
<path d="M79,396h 443" fill="none" stroke="black" stroke-width="3"/>
<text x="324" y="449" fill="black" font-size="32" font-family="Times" font-weight="bold">
inferred - true
</text>
<path d="M130,385v 11" fill="none" stroke="black" stroke-width="3"/>
<path d="M150,391v 5" fill="none" stroke="black" stroke-width="3"/>
<path d="M170,391v 5" fill="none" stroke="black" stroke-width="3"/>
<path d="M190,391v 5" fill="none" stroke="black" stroke-width="3"/>
<path d="M210,391v 5" fill="none" stroke="black" stroke-width="3"/>
<path d="M230,385v 11" fill="none" stroke="black" stroke-width="3"/>
<path d="M250,391v 5" fill="none" stroke="black" stroke-width="3"/>
<path d="M270,391v 5" fill="none" stroke="black" stroke-width="3"/>
<path d="M290,391v 5" fill="none" stroke="black" stroke-width="3"/>
<path d="M311,391v 5" fill="none" stroke="black" stroke-width="3"/>
<path d="M331,385v 11" fill="none" stroke="black" stroke-width="3"/>
<path d="M351,391v 5" fill="none" stroke="black" stroke-width="3"/>
<path d="M371,391v 5" fill="none" stroke="black" stroke-width="3"/>
<path d="M391,391v 5" fill="none" stroke="black" stroke-width="3"/>
<path d="M411,391v 5" fill="none" stroke="black" stroke-width="3"/>
<path d="M431,385v 11" fill="none" stroke="black" stroke-width="3"/>
<path d="M130,385v 11" fill="none" stroke="black" stroke-width="3"/>
<path d="M110,391v 5" fill="none" stroke="black" stroke-width="3"/>
<path d="M89,391v 5" fill="none" stroke="black" stroke-width="3"/>
<path d="M431,385v 11" fill="none" stroke="black" stroke-width="3"/>
<path d="M451,391v 5" fill="none" stroke="black" stroke-width="3"/>
<path d="M471,391v 5" fill="none" stroke="black" stroke-width="3"/>
<path d="M491,391v 5" fill="none" stroke="black" stroke-width="3"/>
<path d="M512,391v 5" fill="none" stroke="black" stroke-width="3"/>
<text x="115" y="416" fill="black" font-size="21" font-family="Times" font-weight="bold">
-10
</text>
<text x="221" y="416" fill="black" font-size="21" font-family="Times" font-weight="bold">
-5
</text>
<text x="324" y="416" fill="black" font-size="21" font-family="Times" font-weight="bold">
0
</text>
<text x="425" y="416" fill="black" font-size="21" font-family="Times" font-weight="bold">
5
</text>
<path d="M79,37h 443" fill="none" stroke="black" stroke-width="3"/>
<path d="M130,48v -11" fill="none" stroke="black" stroke-width="3"/>
<path d="M150,43v -6" fill="none" stroke="black" stroke-width="3"/>
<path d="M170,43v -6" fill="none" stroke="black" stroke-width="3"/>
<path d="M190,43v -6" fill="none" stroke="black" stroke-width="3"/>
<path d="M210,43v -6" fill="none" stroke="black" stroke-width="3"/>
<path d="M230,48v -11" fill="none" stroke="black" stroke-width="3"/>
<path d="M250,43v -6" fill="none" stroke="black" stroke-width="3"/>
<path d="M270,43v -6" fill="none" stroke="black" stroke-width="3"/>
<path d="M290,43v -6" fill="none" stroke="black" stroke-width="3"/>
<path d="M311,43v -6" fill="none" stroke="black" stroke-width="3"/>
<path d="M331,48v -11" fill="none" stroke="black" stroke-width="3"/>
<path d="M351,43v -6" fill="none" stroke="black" stroke-width="3"/>
<path d="M371,43v -6" fill="none" stroke="black" stroke-width="3"/>
<path d="M391,43v -6" fill="none" stroke="black" stroke-width="3"/>
<path d="M411,43v -6" fill="none" stroke="black" stroke-width="3"/>
<path d="M431,48v -11" fill="none" stroke="black" stroke-width="3"/>
<path d="M130,48v -11" fill="none" stroke="black" stroke-width="3"/>
<path d="M110,43v -6" fill="none" stroke="black" stroke-width="3"/>
<path d="M89,43v -6" fill="none" stroke="black" stroke-width="3"/>
<path d="M431,48v -11" fill="none" stroke="black" stroke-width="3"/>
<path d="M451,43v -6" fill="none" stroke="black" stroke-width="3"/>
<path d="M471,43v -6" fill="none" stroke="black" stroke-width="3"/>
<path d="M491,43v -6" fill="none" stroke="black" stroke-width="3"/>
<path d="M512,43v -6" fill="none" stroke="black" stroke-width="3"/>
<path d="M79,396v -359" fill="none" stroke="black" stroke-width="3"/>
<path d="M92,396h -13" fill="none" stroke="black" stroke-width="3"/>
<path d="M86,382h -7" fill="none" stroke="black" stroke-width="3"/>
<path d="M86,367h -7" fill="none" stroke="black" stroke-width="3"/>
<path d="M86,352h -7" fill="none" stroke="black" stroke-width="3"/>
<path d="M86,338h -7" fill="none" stroke="black" stroke-width="3"/>
<path d="M92,323h -13" fill="none" stroke="black" stroke-width="3"/>
<path d="M86,309h -7" fill="none" stroke="black" stroke-width="3"/>
<path d="M86,294h -7" fill="none" stroke="black" stroke-width="3"/>
<path d="M86,279h -7" fill="none" stroke="black" stroke-width="3"/>
<path d="M86,265h -7" fill="none" stroke="black" stroke-width="3"/>
<path d="M92,250h -13" fill="none" stroke="black" stroke-width="3"/>
<path d="M86,236h -7" fill="none" stroke="black" stroke-width="3"/>
<path d="M86,221h -7" fill="none" stroke="black" stroke-width="3"/>
<path d="M86,206h -7" fill="none" stroke="black" stroke-width="3"/>
<path d="M86,192h -7" fill="none" stroke="black" stroke-width="3"/>
<path d="M92,177h -13" fill="none" stroke="black" stroke-width="3"/>
<path d="M86,163h -7" fill="none" stroke="black" stroke-width="3"/>
<path d="M86,148h -7" fill="none" stroke="black" stroke-width="3"/>
<path d="M86,133h -7" fill="none" stroke="black" stroke-width="3"/>
<path d="M86,119h -7" fill="none" stroke="black" stroke-width="3"/>
<path d="M92,104h -13" fill="none" stroke="black" stroke-width="3"/>
<path d="M92,104h -13" fill="none" stroke="black" stroke-width="3"/>
<path d="M86,90h -7" fill="none" stroke="black" stroke-width="3"/>
<path d="M86,75h -7" fill="none" stroke="black" stroke-width="3"/>
<path d="M86,60h -7" fill="none" stroke="black" stroke-width="3"/>
<path d="M86,46h -7" fill="none" stroke="black" stroke-width="3"/>
<text x="46" y="404" fill="black" font-size="21" font-family="Times" font-weight="bold">
0.0
</text>
<text x="46" y="331" fill="black" font-size="21" font-family="Times" font-weight="bold">
0.1
</text>
<text x="46" y="257" fill="black" font-size="21" font-family="Times" font-weight="bold">
0.2
</text>
<text x="46" y="185" fill="black" font-size="21" font-family="Times" font-weight="bold">
0.3
</text>
<text x="46" y="112" fill="black" font-size="21" font-family="Times" font-weight="bold">
0.4
</text>
<path d="M522,396v -359" fill="none" stroke="black" stroke-width="3"/>
<path d="M508,396h 14" fill="none" stroke="black" stroke-width="3"/>
<path d="M515,382h 7" fill="none" stroke="black" stroke-width="3"/>
<path d="M515,367h 7" fill="none" stroke="black" stroke-width="3"/>
<path d="M515,352h 7" fill="none" stroke="black" stroke-width="3"/>
<path d="M515,338h 7" fill="none" stroke="black" stroke-width="3"/>
<path d="M508,323h 14" fill="none" stroke="black" stroke-width="3"/>
<path d="M515,309h 7" fill="none" stroke="black" stroke-width="3"/>
<path d="M515,294h 7" fill="none" stroke="black" stroke-width="3"/>
<path d="M515,279h 7" fill="none" stroke="black" stroke-width="3"/>
<path d="M515,265h 7" fill="none" stroke="black" stroke-width="3"/>
<path d="M508,250h 14" fill="none" stroke="black" stroke-width="3"/>
<path d="M515,236h 7" fill="none" stroke="black" stroke-width="3"/>
<path d="M515,221h 7" fill="none" stroke="black" stroke-width="3"/>
<path d="M515,206h 7" fill="none" stroke="black" stroke-width="3"/>
<path d="M515,192h 7" fill="none" stroke="black" stroke-width="3"/>
<path d="M508,177h 14" fill="none" stroke="black" stroke-width="3"/>
<path d="M515,163h 7" fill="none" stroke="black" stroke-width="3"/>
<path d="M515,148h 7" fill="none" stroke="black" stroke-width="3"/>
<path d="M515,133h 7" fill="none" stroke="black" stroke-width="3"/>
<path d="M515,119h 7" fill="none" stroke="black" stroke-width="3"/>
<path d="M508,104h 14" fill="none" stroke="black" stroke-width="3"/>
<path d="M508,104h 14" fill="none" stroke="black" stroke-width="3"/>
<path d="M515,90h 7" fill="none" stroke="black" stroke-width="3"/>
<path d="M515,75h 7" fill="none" stroke="black" stroke-width="3"/>
<path d="M515,60h 7" fill="none" stroke="black" stroke-width="3"/>
<path d="M515,46h 7" fill="none" stroke="black" stroke-width="3"/>
<rect x="113" y="-4" width="195" height="39" fill="white"/>
<text x="122" y="23" fill="black" font-size="30" font-family="Helvetica" font-weight="bold">
dj_insertion
</text>
<path d="M80,395v -3h 19v 3h 41v -3h 20v -4h 20v 7h 20v -14h 20v 11h 20v -58h 20v -12h 20v 8h 20v 23h 21v -256h 20v 233h 20v 47h 20v 11h 20v -19h 20v 23h 20v 3h 20v -11h 20v 8h 20v -8h 21" fill="none" stroke="#ff0000" stroke-width="6"/>
<path d="M332,107h 42" fill="none" stroke="#ff0000" stroke-width="6"/>
<rect x="113" y="-4" width="195" height="39" fill="white"/>
<text x="122" y="23" fill="black" font-size="30" font-family="Helvetica" font-weight="bold">
dj_insertion
</text></svg>
