<?xml version="1.0" standalone="no"?>
<svg width="567" height="466" viewBox="0 0 567 466" xmlns="http://www.w3.org/2000/svg">
<title>
/bbx/output/_plots/example/hmm/performance/plots/j_3p_del.svg
</title>
<desc>
Creator: ROOT Version 5.34/14
CreationDate: Thu Jul 30 18:25:43 2015</desc>
<defs>
</defs>
<rect x="0" y="0" width="567" height="466" fill="white"/>
<rect x="79" y="37" width="443" height="359" fill="none" stroke="black"/>
<rect x="79" y="37" width="443" height="359" fill="none" stroke="black"/>
<path d="M79,396h 443" fill="none" stroke="black" stroke-width="3"/>
<text x="324" y="449" fill="black" font-size="32" font-family="Times" font-weight="bold">
inferred - true
</text>
<path d="M79,385v 11" fill="none" stroke="black" stroke-width="3"/>
<path d="M101,391v 5" fill="none" stroke="black" stroke-width="3"/>
<path d="M124,391v 5" fill="none" stroke="black" stroke-width="3"/>
<path d="M146,391v 5" fill="none" stroke="black" stroke-width="3"/>
<path d="M168,391v 5" fill="none" stroke="black" stroke-width="3"/>
<path d="M190,385v 11" fill="none" stroke="black" stroke-width="3"/>
<path d="M212,391v 5" fill="none" stroke="black" stroke-width="3"/>
<path d="M234,391v 5" fill="none" stroke="black" stroke-width="3"/>
<path d="M256,391v 5" fill="none" stroke="black" stroke-width="3"/>
<path d="M278,391v 5" fill="none" stroke="black" stroke-width="3"/>
<path d="M300,385v 11" fill="none" stroke="black" stroke-width="3"/>
<path d="M323,391v 5" fill="none" stroke="black" stroke-width="3"/>
<path d="M345,391v 5" fill="none" stroke="black" stroke-width="3"/>
<path d="M367,391v 5" fill="none" stroke="black" stroke-width="3"/>
<path d="M389,391v 5" fill="none" stroke="black" stroke-width="3"/>
<path d="M411,385v 11" fill="none" stroke="black" stroke-width="3"/>
<path d="M433,391v 5" fill="none" stroke="black" stroke-width="3"/>
<path d="M455,391v 5" fill="none" stroke="black" stroke-width="3"/>
<path d="M477,391v 5" fill="none" stroke="black" stroke-width="3"/>
<path d="M499,391v 5" fill="none" stroke="black" stroke-width="3"/>
<path d="M522,385v 11" fill="none" stroke="black" stroke-width="3"/>
<text x="62" y="416" fill="black" font-size="21" font-family="Times" font-weight="bold">
-1.5
</text>
<text x="172" y="416" fill="black" font-size="21" font-family="Times" font-weight="bold">
-1.0
</text>
<text x="283" y="416" fill="black" font-size="21" font-family="Times" font-weight="bold">
-0.5
</text>
<text x="397" y="416" fill="black" font-size="21" font-family="Times" font-weight="bold">
0.0
</text>
<text x="507" y="416" fill="black" font-size="21" font-family="Times" font-weight="bold">
0.5
</text>
<path d="M79,37h 443" fill="none" stroke="black" stroke-width="3"/>
<path d="M79,48v -11" fill="none" stroke="black" stroke-width="3"/>
<path d="M101,43v -6" fill="none" stroke="black" stroke-width="3"/>
<path d="M124,43v -6" fill="none" stroke="black" stroke-width="3"/>
<path d="M146,43v -6" fill="none" stroke="black" stroke-width="3"/>
<path d="M168,43v -6" fill="none" stroke="black" stroke-width="3"/>
<path d="M190,48v -11" fill="none" stroke="black" stroke-width="3"/>
<path d="M212,43v -6" fill="none" stroke="black" stroke-width="3"/>
<path d="M234,43v -6" fill="none" stroke="black" stroke-width="3"/>
<path d="M256,43v -6" fill="none" stroke="black" stroke-width="3"/>
<path d="M278,43v -6" fill="none" stroke="black" stroke-width="3"/>
<path d="M300,48v -11" fill="none" stroke="black" stroke-width="3"/>
<path d="M323,43v -6" fill="none" stroke="black" stroke-width="3"/>
<path d="M345,43v -6" fill="none" stroke="black" stroke-width="3"/>
<path d="M367,43v -6" fill="none" stroke="black" stroke-width="3"/>
<path d="M389,43v -6" fill="none" stroke="black" stroke-width="3"/>
<path d="M411,48v -11" fill="none" stroke="black" stroke-width="3"/>
<path d="M433,43v -6" fill="none" stroke="black" stroke-width="3"/>
<path d="M455,43v -6" fill="none" stroke="black" stroke-width="3"/>
<path d="M477,43v -6" fill="none" stroke="black" stroke-width="3"/>
<path d="M499,43v -6" fill="none" stroke="black" stroke-width="3"/>
<path d="M522,48v -11" fill="none" stroke="black" stroke-width="3"/>
<path d="M79,396v -359" fill="none" stroke="black" stroke-width="3"/>
<path d="M92,396h -13" fill="none" stroke="black" stroke-width="3"/>
<path d="M86,366h -7" fill="none" stroke="black" stroke-width="3"/>
<path d="M86,335h -7" fill="none" stroke="black" stroke-width="3"/>
<path d="M86,305h -7" fill="none" stroke="black" stroke-width="3"/>
<path d="M86,275h -7" fill="none" stroke="black" stroke-width="3"/>
<path d="M92,244h -13" fill="none" stroke="black" stroke-width="3"/>
<path d="M86,214h -7" fill="none" stroke="black" stroke-width="3"/>
<path d="M86,183h -7" fill="none" stroke="black" stroke-width="3"/>
<path d="M86,153h -7" fill="none" stroke="black" stroke-width="3"/>
<path d="M86,123h -7" fill="none" stroke="black" stroke-width="3"/>
<path d="M92,92h -13" fill="none" stroke="black" stroke-width="3"/>
<path d="M92,92h -13" fill="none" stroke="black" stroke-width="3"/>
<path d="M86,62h -7" fill="none" stroke="black" stroke-width="3"/>
<text x="46" y="404" fill="black" font-size="21" font-family="Times" font-weight="bold">
0.0
</text>
<text x="46" y="252" fill="black" font-size="21" font-family="Times" font-weight="bold">
0.5
</text>
<text x="46" y="100" fill="black" font-size="21" font-family="Times" font-weight="bold">
1.0
</text>
<path d="M522,396v -359" fill="none" stroke="black" stroke-width="3"/>
<path d="M508,396h 14" fill="none" stroke="black" stroke-width="3"/>
<path d="M515,366h 7" fill="none" stroke="black" stroke-width="3"/>
<path d="M515,335h 7" fill="none" stroke="black" stroke-width="3"/>
<path d="M515,305h 7" fill="none" stroke="black" stroke-width="3"/>
<path d="M515,275h 7" fill="none" stroke="black" stroke-width="3"/>
<path d="M508,244h 14" fill="none" stroke="black" stroke-width="3"/>
<path d="M515,214h 7" fill="none" stroke="black" stroke-width="3"/>
<path d="M515,183h 7" fill="none" stroke="black" stroke-width="3"/>
<path d="M515,153h 7" fill="none" stroke="black" stroke-width="3"/>
<path d="M515,123h 7" fill="none" stroke="black" stroke-width="3"/>
<path d="M508,92h 14" fill="none" stroke="black" stroke-width="3"/>
<path d="M508,92h 14" fill="none" stroke="black" stroke-width="3"/>
<path d="M515,62h 7" fill="none" stroke="black" stroke-width="3"/>
<rect x="113" y="-4" width="144" height="40" fill="white"/>
<text x="121" y="25" fill="black" font-size="31" font-family="Helvetica" font-weight="bold">
j_3p_del
</text>
<path d="M80,395v -4h 220v -294h 222" fill="none" stroke="#ff0000" stroke-width="6"/>
<path d="M332,107h 42" fill="none" stroke="#ff0000" stroke-width="6"/>
<rect x="113" y="-4" width="144" height="40" fill="white"/>
<text x="121" y="25" fill="black" font-size="31" font-family="Helvetica" font-weight="bold">
j_3p_del
</text></svg>
