<?xml version="1.0" standalone="no"?>
<svg width="567" height="466" viewBox="0 0 567 466" xmlns="http://www.w3.org/2000/svg">
<title>
/bbx/output/_plots/example/hmm/performance/plots/j_hamming_to_true_naive_normed.svg
</title>
<desc>
Creator: ROOT Version 5.34/14
CreationDate: Thu Jul 30 18:25:43 2015</desc>
<defs>
</defs>
<rect x="0" y="0" width="567" height="466" fill="white"/>
<rect x="79" y="37" width="443" height="359" fill="none" stroke="black"/>
<rect x="79" y="37" width="443" height="359" fill="none" stroke="black"/>
<path d="M79,396h 443" fill="none" stroke="black" stroke-width="3"/>
<text x="268" y="446" fill="black" font-size="32" font-family="Times" font-weight="bold">
hamming distance
</text>
<path d="M85,385v 11" fill="none" stroke="black" stroke-width="3"/>
<path d="M108,391v 5" fill="none" stroke="black" stroke-width="3"/>
<path d="M130,391v 5" fill="none" stroke="black" stroke-width="3"/>
<path d="M153,391v 5" fill="none" stroke="black" stroke-width="3"/>
<path d="M176,391v 5" fill="none" stroke="black" stroke-width="3"/>
<path d="M198,385v 11" fill="none" stroke="black" stroke-width="3"/>
<path d="M221,391v 5" fill="none" stroke="black" stroke-width="3"/>
<path d="M244,391v 5" fill="none" stroke="black" stroke-width="3"/>
<path d="M266,391v 5" fill="none" stroke="black" stroke-width="3"/>
<path d="M289,391v 5" fill="none" stroke="black" stroke-width="3"/>
<path d="M312,385v 11" fill="none" stroke="black" stroke-width="3"/>
<path d="M334,391v 5" fill="none" stroke="black" stroke-width="3"/>
<path d="M357,391v 5" fill="none" stroke="black" stroke-width="3"/>
<path d="M380,391v 5" fill="none" stroke="black" stroke-width="3"/>
<path d="M403,391v 5" fill="none" stroke="black" stroke-width="3"/>
<path d="M425,385v 11" fill="none" stroke="black" stroke-width="3"/>
<path d="M85,385v 11" fill="none" stroke="black" stroke-width="3"/>
<path d="M425,385v 11" fill="none" stroke="black" stroke-width="3"/>
<path d="M448,391v 5" fill="none" stroke="black" stroke-width="3"/>
<path d="M471,391v 5" fill="none" stroke="black" stroke-width="3"/>
<path d="M493,391v 5" fill="none" stroke="black" stroke-width="3"/>
<path d="M516,391v 5" fill="none" stroke="black" stroke-width="3"/>
<text x="79" y="416" fill="black" font-size="21" font-family="Times" font-weight="bold">
0
</text>
<text x="187" y="416" fill="black" font-size="21" font-family="Times" font-weight="bold">
10
</text>
<text x="300" y="416" fill="black" font-size="21" font-family="Times" font-weight="bold">
20
</text>
<text x="414" y="416" fill="black" font-size="21" font-family="Times" font-weight="bold">
30
</text>
<path d="M79,37h 443" fill="none" stroke="black" stroke-width="3"/>
<path d="M85,48v -11" fill="none" stroke="black" stroke-width="3"/>
<path d="M108,43v -6" fill="none" stroke="black" stroke-width="3"/>
<path d="M130,43v -6" fill="none" stroke="black" stroke-width="3"/>
<path d="M153,43v -6" fill="none" stroke="black" stroke-width="3"/>
<path d="M176,43v -6" fill="none" stroke="black" stroke-width="3"/>
<path d="M198,48v -11" fill="none" stroke="black" stroke-width="3"/>
<path d="M221,43v -6" fill="none" stroke="black" stroke-width="3"/>
<path d="M244,43v -6" fill="none" stroke="black" stroke-width="3"/>
<path d="M266,43v -6" fill="none" stroke="black" stroke-width="3"/>
<path d="M289,43v -6" fill="none" stroke="black" stroke-width="3"/>
<path d="M312,48v -11" fill="none" stroke="black" stroke-width="3"/>
<path d="M334,43v -6" fill="none" stroke="black" stroke-width="3"/>
<path d="M357,43v -6" fill="none" stroke="black" stroke-width="3"/>
<path d="M380,43v -6" fill="none" stroke="black" stroke-width="3"/>
<path d="M403,43v -6" fill="none" stroke="black" stroke-width="3"/>
<path d="M425,48v -11" fill="none" stroke="black" stroke-width="3"/>
<path d="M85,48v -11" fill="none" stroke="black" stroke-width="3"/>
<path d="M425,48v -11" fill="none" stroke="black" stroke-width="3"/>
<path d="M448,43v -6" fill="none" stroke="black" stroke-width="3"/>
<path d="M471,43v -6" fill="none" stroke="black" stroke-width="3"/>
<path d="M493,43v -6" fill="none" stroke="black" stroke-width="3"/>
<path d="M516,43v -6" fill="none" stroke="black" stroke-width="3"/>
<path d="M79,396v -359" fill="none" stroke="black" stroke-width="3"/>
<path d="M92,396h -13" fill="none" stroke="black" stroke-width="3"/>
<path d="M86,378h -7" fill="none" stroke="black" stroke-width="3"/>
<path d="M86,359h -7" fill="none" stroke="black" stroke-width="3"/>
<path d="M86,341h -7" fill="none" stroke="black" stroke-width="3"/>
<path d="M92,323h -13" fill="none" stroke="black" stroke-width="3"/>
<path d="M86,304h -7" fill="none" stroke="black" stroke-width="3"/>
<path d="M86,286h -7" fill="none" stroke="black" stroke-width="3"/>
<path d="M86,268h -7" fill="none" stroke="black" stroke-width="3"/>
<path d="M92,249h -13" fill="none" stroke="black" stroke-width="3"/>
<path d="M86,231h -7" fill="none" stroke="black" stroke-width="3"/>
<path d="M86,212h -7" fill="none" stroke="black" stroke-width="3"/>
<path d="M86,194h -7" fill="none" stroke="black" stroke-width="3"/>
<path d="M92,176h -13" fill="none" stroke="black" stroke-width="3"/>
<path d="M86,157h -7" fill="none" stroke="black" stroke-width="3"/>
<path d="M86,139h -7" fill="none" stroke="black" stroke-width="3"/>
<path d="M86,121h -7" fill="none" stroke="black" stroke-width="3"/>
<path d="M92,102h -13" fill="none" stroke="black" stroke-width="3"/>
<path d="M92,102h -13" fill="none" stroke="black" stroke-width="3"/>
<path d="M86,84h -7" fill="none" stroke="black" stroke-width="3"/>
<path d="M86,65h -7" fill="none" stroke="black" stroke-width="3"/>
<path d="M86,47h -7" fill="none" stroke="black" stroke-width="3"/>
<text x="46" y="404" fill="black" font-size="21" font-family="Times" font-weight="bold">
0.0
</text>
<text x="46" y="331" fill="black" font-size="21" font-family="Times" font-weight="bold">
0.2
</text>
<text x="46" y="257" fill="black" font-size="21" font-family="Times" font-weight="bold">
0.4
</text>
<text x="46" y="183" fill="black" font-size="21" font-family="Times" font-weight="bold">
0.6
</text>
<text x="46" y="110" fill="black" font-size="21" font-family="Times" font-weight="bold">
0.8
</text>
<path d="M522,396v -359" fill="none" stroke="black" stroke-width="3"/>
<path d="M508,396h 14" fill="none" stroke="black" stroke-width="3"/>
<path d="M515,378h 7" fill="none" stroke="black" stroke-width="3"/>
<path d="M515,359h 7" fill="none" stroke="black" stroke-width="3"/>
<path d="M515,341h 7" fill="none" stroke="black" stroke-width="3"/>
<path d="M508,323h 14" fill="none" stroke="black" stroke-width="3"/>
<path d="M515,304h 7" fill="none" stroke="black" stroke-width="3"/>
<path d="M515,286h 7" fill="none" stroke="black" stroke-width="3"/>
<path d="M515,268h 7" fill="none" stroke="black" stroke-width="3"/>
<path d="M508,249h 14" fill="none" stroke="black" stroke-width="3"/>
<path d="M515,231h 7" fill="none" stroke="black" stroke-width="3"/>
<path d="M515,212h 7" fill="none" stroke="black" stroke-width="3"/>
<path d="M515,194h 7" fill="none" stroke="black" stroke-width="3"/>
<path d="M508,176h 14" fill="none" stroke="black" stroke-width="3"/>
<path d="M515,157h 7" fill="none" stroke="black" stroke-width="3"/>
<path d="M515,139h 7" fill="none" stroke="black" stroke-width="3"/>
<path d="M515,121h 7" fill="none" stroke="black" stroke-width="3"/>
<path d="M508,102h 14" fill="none" stroke="black" stroke-width="3"/>
<path d="M508,102h 14" fill="none" stroke="black" stroke-width="3"/>
<path d="M515,84h 7" fill="none" stroke="black" stroke-width="3"/>
<path d="M515,65h 7" fill="none" stroke="black" stroke-width="3"/>
<path d="M515,47h 7" fill="none" stroke="black" stroke-width="3"/>
<rect x="113" y="-4" width="397" height="40" fill="white"/>
<text x="128" y="22" fill="black" font-size="22" font-family="Helvetica" font-weight="bold">
j_hamming_to_true_naive_normed
</text>
<path d="M80,395v -298h 11v 298h 11v -3h 23v -8h 11v 11h 11v -1h 12v -12h 11v 13h 34v -7h 11v 7h 23v -3h 11v 3h 12v -7h 11v 7h 57v -1h 22v 1h 35v -1h 11v -2h 11v 3h 23v -1h 11v 1h 68v -1h 12" fill="none" stroke="#ff0000" stroke-width="6"/>
<path d="M332,107h 42" fill="none" stroke="#ff0000" stroke-width="6"/>
<rect x="113" y="-4" width="397" height="40" fill="white"/>
<text x="128" y="22" fill="black" font-size="22" font-family="Helvetica" font-weight="bold">
j_hamming_to_true_naive_normed
</text></svg>
