<?xml version="1.0" standalone="no"?>
<svg width="567" height="466" viewBox="0 0 567 466" xmlns="http://www.w3.org/2000/svg">
<title>
/bbx/output/_plots/example/hmm/performance/plots/v_5p_del.svg
</title>
<desc>
Creator: ROOT Version 5.34/14
CreationDate: Thu Jul 30 18:25:43 2015</desc>
<defs>
</defs>
<rect x="0" y="0" width="567" height="466" fill="white"/>
<rect x="79" y="37" width="443" height="359" fill="none" stroke="black"/>
<rect x="79" y="37" width="443" height="359" fill="none" stroke="black"/>
<path d="M79,396h 443" fill="none" stroke="black" stroke-width="3"/>
<text x="324" y="449" fill="black" font-size="32" font-family="Times" font-weight="bold">
inferred - true
</text>
<path d="M183,385v 11" fill="none" stroke="black" stroke-width="3"/>
<path d="M211,391v 5" fill="none" stroke="black" stroke-width="3"/>
<path d="M239,391v 5" fill="none" stroke="black" stroke-width="3"/>
<path d="M267,391v 5" fill="none" stroke="black" stroke-width="3"/>
<path d="M295,385v 11" fill="none" stroke="black" stroke-width="3"/>
<path d="M323,391v 5" fill="none" stroke="black" stroke-width="3"/>
<path d="M351,391v 5" fill="none" stroke="black" stroke-width="3"/>
<path d="M379,391v 5" fill="none" stroke="black" stroke-width="3"/>
<path d="M407,385v 11" fill="none" stroke="black" stroke-width="3"/>
<path d="M435,391v 5" fill="none" stroke="black" stroke-width="3"/>
<path d="M463,391v 5" fill="none" stroke="black" stroke-width="3"/>
<path d="M491,391v 5" fill="none" stroke="black" stroke-width="3"/>
<path d="M519,385v 11" fill="none" stroke="black" stroke-width="3"/>
<path d="M183,385v 11" fill="none" stroke="black" stroke-width="3"/>
<path d="M155,391v 5" fill="none" stroke="black" stroke-width="3"/>
<path d="M127,391v 5" fill="none" stroke="black" stroke-width="3"/>
<path d="M99,391v 5" fill="none" stroke="black" stroke-width="3"/>
<path d="M519,385v 11" fill="none" stroke="black" stroke-width="3"/>
<text x="168" y="416" fill="black" font-size="21" font-family="Times" font-weight="bold">
-60
</text>
<text x="280" y="416" fill="black" font-size="21" font-family="Times" font-weight="bold">
-40
</text>
<text x="392" y="416" fill="black" font-size="21" font-family="Times" font-weight="bold">
-20
</text>
<text x="512" y="416" fill="black" font-size="21" font-family="Times" font-weight="bold">
0
</text>
<path d="M79,37h 443" fill="none" stroke="black" stroke-width="3"/>
<path d="M183,48v -11" fill="none" stroke="black" stroke-width="3"/>
<path d="M211,43v -6" fill="none" stroke="black" stroke-width="3"/>
<path d="M239,43v -6" fill="none" stroke="black" stroke-width="3"/>
<path d="M267,43v -6" fill="none" stroke="black" stroke-width="3"/>
<path d="M295,48v -11" fill="none" stroke="black" stroke-width="3"/>
<path d="M323,43v -6" fill="none" stroke="black" stroke-width="3"/>
<path d="M351,43v -6" fill="none" stroke="black" stroke-width="3"/>
<path d="M379,43v -6" fill="none" stroke="black" stroke-width="3"/>
<path d="M407,48v -11" fill="none" stroke="black" stroke-width="3"/>
<path d="M435,43v -6" fill="none" stroke="black" stroke-width="3"/>
<path d="M463,43v -6" fill="none" stroke="black" stroke-width="3"/>
<path d="M491,43v -6" fill="none" stroke="black" stroke-width="3"/>
<path d="M519,48v -11" fill="none" stroke="black" stroke-width="3"/>
<path d="M183,48v -11" fill="none" stroke="black" stroke-width="3"/>
<path d="M155,43v -6" fill="none" stroke="black" stroke-width="3"/>
<path d="M127,43v -6" fill="none" stroke="black" stroke-width="3"/>
<path d="M99,43v -6" fill="none" stroke="black" stroke-width="3"/>
<path d="M519,48v -11" fill="none" stroke="black" stroke-width="3"/>
<path d="M79,396v -359" fill="none" stroke="black" stroke-width="3"/>
<path d="M92,396h -13" fill="none" stroke="black" stroke-width="3"/>
<path d="M86,365h -7" fill="none" stroke="black" stroke-width="3"/>
<path d="M86,333h -7" fill="none" stroke="black" stroke-width="3"/>
<path d="M86,302h -7" fill="none" stroke="black" stroke-width="3"/>
<path d="M86,271h -7" fill="none" stroke="black" stroke-width="3"/>
<path d="M92,239h -13" fill="none" stroke="black" stroke-width="3"/>
<path d="M86,208h -7" fill="none" stroke="black" stroke-width="3"/>
<path d="M86,176h -7" fill="none" stroke="black" stroke-width="3"/>
<path d="M86,145h -7" fill="none" stroke="black" stroke-width="3"/>
<path d="M86,114h -7" fill="none" stroke="black" stroke-width="3"/>
<path d="M92,82h -13" fill="none" stroke="black" stroke-width="3"/>
<path d="M92,82h -13" fill="none" stroke="black" stroke-width="3"/>
<path d="M86,51h -7" fill="none" stroke="black" stroke-width="3"/>
<text x="46" y="404" fill="black" font-size="21" font-family="Times" font-weight="bold">
0.0
</text>
<text x="46" y="247" fill="black" font-size="21" font-family="Times" font-weight="bold">
0.5
</text>
<text x="46" y="90" fill="black" font-size="21" font-family="Times" font-weight="bold">
1.0
</text>
<path d="M522,396v -359" fill="none" stroke="black" stroke-width="3"/>
<path d="M508,396h 14" fill="none" stroke="black" stroke-width="3"/>
<path d="M515,365h 7" fill="none" stroke="black" stroke-width="3"/>
<path d="M515,333h 7" fill="none" stroke="black" stroke-width="3"/>
<path d="M515,302h 7" fill="none" stroke="black" stroke-width="3"/>
<path d="M515,271h 7" fill="none" stroke="black" stroke-width="3"/>
<path d="M508,239h 14" fill="none" stroke="black" stroke-width="3"/>
<path d="M515,208h 7" fill="none" stroke="black" stroke-width="3"/>
<path d="M515,176h 7" fill="none" stroke="black" stroke-width="3"/>
<path d="M515,145h 7" fill="none" stroke="black" stroke-width="3"/>
<path d="M515,114h 7" fill="none" stroke="black" stroke-width="3"/>
<path d="M508,82h 14" fill="none" stroke="black" stroke-width="3"/>
<path d="M508,82h 14" fill="none" stroke="black" stroke-width="3"/>
<path d="M515,51h 7" fill="none" stroke="black" stroke-width="3"/>
<rect x="113" y="-4" width="147" height="39" fill="white"/>
<text x="121" y="23" fill="black" font-size="30" font-family="Helvetica" font-weight="bold">
v_5p_del
</text>
<path d="M80,395v -2h 5v 2h 364v -4h 5v 4h 6v -1h 6v 1h 16v -2h 6v 2h 11v -1h 6v 1h 11v -298h 6" fill="none" stroke="#ff0000" stroke-width="6"/>
<path d="M332,107h 42" fill="none" stroke="#ff0000" stroke-width="6"/>
<rect x="113" y="-4" width="147" height="39" fill="white"/>
<text x="121" y="23" fill="black" font-size="30" font-family="Helvetica" font-weight="bold">
v_5p_del
</text></svg>
