<?xml version="1.0" standalone="no"?>
<svg width="567" height="466" viewBox="0 0 567 466" xmlns="http://www.w3.org/2000/svg">
<title>
/bbx/output/_plots/example/hmm/performance/plots/v_hamming_to_true_naive.svg
</title>
<desc>
Creator: ROOT Version 5.34/14
CreationDate: Thu Jul 30 18:25:43 2015</desc>
<defs>
</defs>
<rect x="0" y="0" width="567" height="466" fill="white"/>
<rect x="79" y="37" width="443" height="359" fill="none" stroke="black"/>
<rect x="79" y="37" width="443" height="359" fill="none" stroke="black"/>
<path d="M79,396h 443" fill="none" stroke="black" stroke-width="3"/>
<text x="268" y="446" fill="black" font-size="32" font-family="Times" font-weight="bold">
hamming distance
</text>
<path d="M84,385v 11" fill="none" stroke="black" stroke-width="3"/>
<path d="M101,391v 5" fill="none" stroke="black" stroke-width="3"/>
<path d="M119,391v 5" fill="none" stroke="black" stroke-width="3"/>
<path d="M137,391v 5" fill="none" stroke="black" stroke-width="3"/>
<path d="M155,391v 5" fill="none" stroke="black" stroke-width="3"/>
<path d="M172,385v 11" fill="none" stroke="black" stroke-width="3"/>
<path d="M190,391v 5" fill="none" stroke="black" stroke-width="3"/>
<path d="M208,391v 5" fill="none" stroke="black" stroke-width="3"/>
<path d="M225,391v 5" fill="none" stroke="black" stroke-width="3"/>
<path d="M243,391v 5" fill="none" stroke="black" stroke-width="3"/>
<path d="M261,385v 11" fill="none" stroke="black" stroke-width="3"/>
<path d="M278,391v 5" fill="none" stroke="black" stroke-width="3"/>
<path d="M296,391v 5" fill="none" stroke="black" stroke-width="3"/>
<path d="M314,391v 5" fill="none" stroke="black" stroke-width="3"/>
<path d="M331,391v 5" fill="none" stroke="black" stroke-width="3"/>
<path d="M349,385v 11" fill="none" stroke="black" stroke-width="3"/>
<path d="M367,391v 5" fill="none" stroke="black" stroke-width="3"/>
<path d="M384,391v 5" fill="none" stroke="black" stroke-width="3"/>
<path d="M402,391v 5" fill="none" stroke="black" stroke-width="3"/>
<path d="M420,391v 5" fill="none" stroke="black" stroke-width="3"/>
<path d="M438,385v 11" fill="none" stroke="black" stroke-width="3"/>
<path d="M84,385v 11" fill="none" stroke="black" stroke-width="3"/>
<path d="M438,385v 11" fill="none" stroke="black" stroke-width="3"/>
<path d="M455,391v 5" fill="none" stroke="black" stroke-width="3"/>
<path d="M473,391v 5" fill="none" stroke="black" stroke-width="3"/>
<path d="M491,391v 5" fill="none" stroke="black" stroke-width="3"/>
<path d="M508,391v 5" fill="none" stroke="black" stroke-width="3"/>
<text x="77" y="416" fill="black" font-size="21" font-family="Times" font-weight="bold">
0
</text>
<text x="160" y="416" fill="black" font-size="21" font-family="Times" font-weight="bold">
10
</text>
<text x="249" y="416" fill="black" font-size="21" font-family="Times" font-weight="bold">
20
</text>
<text x="337" y="416" fill="black" font-size="21" font-family="Times" font-weight="bold">
30
</text>
<text x="426" y="416" fill="black" font-size="21" font-family="Times" font-weight="bold">
40
</text>
<path d="M79,37h 443" fill="none" stroke="black" stroke-width="3"/>
<path d="M84,48v -11" fill="none" stroke="black" stroke-width="3"/>
<path d="M101,43v -6" fill="none" stroke="black" stroke-width="3"/>
<path d="M119,43v -6" fill="none" stroke="black" stroke-width="3"/>
<path d="M137,43v -6" fill="none" stroke="black" stroke-width="3"/>
<path d="M155,43v -6" fill="none" stroke="black" stroke-width="3"/>
<path d="M172,48v -11" fill="none" stroke="black" stroke-width="3"/>
<path d="M190,43v -6" fill="none" stroke="black" stroke-width="3"/>
<path d="M208,43v -6" fill="none" stroke="black" stroke-width="3"/>
<path d="M225,43v -6" fill="none" stroke="black" stroke-width="3"/>
<path d="M243,43v -6" fill="none" stroke="black" stroke-width="3"/>
<path d="M261,48v -11" fill="none" stroke="black" stroke-width="3"/>
<path d="M278,43v -6" fill="none" stroke="black" stroke-width="3"/>
<path d="M296,43v -6" fill="none" stroke="black" stroke-width="3"/>
<path d="M314,43v -6" fill="none" stroke="black" stroke-width="3"/>
<path d="M331,43v -6" fill="none" stroke="black" stroke-width="3"/>
<path d="M349,48v -11" fill="none" stroke="black" stroke-width="3"/>
<path d="M367,43v -6" fill="none" stroke="black" stroke-width="3"/>
<path d="M384,43v -6" fill="none" stroke="black" stroke-width="3"/>
<path d="M402,43v -6" fill="none" stroke="black" stroke-width="3"/>
<path d="M420,43v -6" fill="none" stroke="black" stroke-width="3"/>
<path d="M438,48v -11" fill="none" stroke="black" stroke-width="3"/>
<path d="M84,48v -11" fill="none" stroke="black" stroke-width="3"/>
<path d="M438,48v -11" fill="none" stroke="black" stroke-width="3"/>
<path d="M455,43v -6" fill="none" stroke="black" stroke-width="3"/>
<path d="M473,43v -6" fill="none" stroke="black" stroke-width="3"/>
<path d="M491,43v -6" fill="none" stroke="black" stroke-width="3"/>
<path d="M508,43v -6" fill="none" stroke="black" stroke-width="3"/>
<path d="M79,396v -359" fill="none" stroke="black" stroke-width="3"/>
<path d="M92,396h -13" fill="none" stroke="black" stroke-width="3"/>
<path d="M86,377h -7" fill="none" stroke="black" stroke-width="3"/>
<path d="M86,358h -7" fill="none" stroke="black" stroke-width="3"/>
<path d="M86,340h -7" fill="none" stroke="black" stroke-width="3"/>
<path d="M92,321h -13" fill="none" stroke="black" stroke-width="3"/>
<path d="M86,302h -7" fill="none" stroke="black" stroke-width="3"/>
<path d="M86,283h -7" fill="none" stroke="black" stroke-width="3"/>
<path d="M86,264h -7" fill="none" stroke="black" stroke-width="3"/>
<path d="M92,245h -13" fill="none" stroke="black" stroke-width="3"/>
<path d="M86,226h -7" fill="none" stroke="black" stroke-width="3"/>
<path d="M86,208h -7" fill="none" stroke="black" stroke-width="3"/>
<path d="M86,189h -7" fill="none" stroke="black" stroke-width="3"/>
<path d="M92,170h -13" fill="none" stroke="black" stroke-width="3"/>
<path d="M86,151h -7" fill="none" stroke="black" stroke-width="3"/>
<path d="M86,132h -7" fill="none" stroke="black" stroke-width="3"/>
<path d="M86,113h -7" fill="none" stroke="black" stroke-width="3"/>
<path d="M92,94h -13" fill="none" stroke="black" stroke-width="3"/>
<path d="M92,94h -13" fill="none" stroke="black" stroke-width="3"/>
<path d="M86,75h -7" fill="none" stroke="black" stroke-width="3"/>
<path d="M86,57h -7" fill="none" stroke="black" stroke-width="3"/>
<path d="M86,38h -7" fill="none" stroke="black" stroke-width="3"/>
<text x="46" y="404" fill="black" font-size="21" font-family="Times" font-weight="bold">
0.0
</text>
<text x="46" y="328" fill="black" font-size="21" font-family="Times" font-weight="bold">
0.2
</text>
<text x="46" y="253" fill="black" font-size="21" font-family="Times" font-weight="bold">
0.4
</text>
<text x="46" y="178" fill="black" font-size="21" font-family="Times" font-weight="bold">
0.6
</text>
<text x="46" y="102" fill="black" font-size="21" font-family="Times" font-weight="bold">
0.8
</text>
<path d="M522,396v -359" fill="none" stroke="black" stroke-width="3"/>
<path d="M508,396h 14" fill="none" stroke="black" stroke-width="3"/>
<path d="M515,377h 7" fill="none" stroke="black" stroke-width="3"/>
<path d="M515,358h 7" fill="none" stroke="black" stroke-width="3"/>
<path d="M515,340h 7" fill="none" stroke="black" stroke-width="3"/>
<path d="M508,321h 14" fill="none" stroke="black" stroke-width="3"/>
<path d="M515,302h 7" fill="none" stroke="black" stroke-width="3"/>
<path d="M515,283h 7" fill="none" stroke="black" stroke-width="3"/>
<path d="M515,264h 7" fill="none" stroke="black" stroke-width="3"/>
<path d="M508,245h 14" fill="none" stroke="black" stroke-width="3"/>
<path d="M515,226h 7" fill="none" stroke="black" stroke-width="3"/>
<path d="M515,208h 7" fill="none" stroke="black" stroke-width="3"/>
<path d="M515,189h 7" fill="none" stroke="black" stroke-width="3"/>
<path d="M508,170h 14" fill="none" stroke="black" stroke-width="3"/>
<path d="M515,151h 7" fill="none" stroke="black" stroke-width="3"/>
<path d="M515,132h 7" fill="none" stroke="black" stroke-width="3"/>
<path d="M515,113h 7" fill="none" stroke="black" stroke-width="3"/>
<path d="M508,94h 14" fill="none" stroke="black" stroke-width="3"/>
<path d="M508,94h 14" fill="none" stroke="black" stroke-width="3"/>
<path d="M515,75h 7" fill="none" stroke="black" stroke-width="3"/>
<path d="M515,57h 7" fill="none" stroke="black" stroke-width="3"/>
<path d="M515,38h 7" fill="none" stroke="black" stroke-width="3"/>
<rect x="113" y="-4" width="397" height="40" fill="white"/>
<text x="130" y="24" fill="black" font-size="28" font-family="Helvetica" font-weight="bold">
v_hamming_to_true_naive
</text>
<path d="M80,395v -298h 8v 243h 9v 44h 9v 11h 9v -1h 9v 1h 362v -5h 9v 5h 18v -1h 9" fill="none" stroke="#ff0000" stroke-width="6"/>
<path d="M332,107h 42" fill="none" stroke="#ff0000" stroke-width="6"/>
<rect x="113" y="-4" width="397" height="40" fill="white"/>
<text x="130" y="24" fill="black" font-size="28" font-family="Helvetica" font-weight="bold">
v_hamming_to_true_naive
</text></svg>
