<?xml version="1.0" standalone="no"?>
<svg width="567" height="466" viewBox="0 0 567 466" xmlns="http://www.w3.org/2000/svg">
<title>
/bbx/output/_plots/example/hmm/performance/plots/v_hamming_to_true_naive_normed.svg
</title>
<desc>
Creator: ROOT Version 5.34/14
CreationDate: Thu Jul 30 18:25:43 2015</desc>
<defs>
</defs>
<rect x="0" y="0" width="567" height="466" fill="white"/>
<rect x="79" y="37" width="443" height="359" fill="none" stroke="black"/>
<rect x="79" y="37" width="443" height="359" fill="none" stroke="black"/>
<path d="M79,396h 443" fill="none" stroke="black" stroke-width="3"/>
<text x="268" y="446" fill="black" font-size="32" font-family="Times" font-weight="bold">
hamming distance
</text>
<path d="M82,385v 11" fill="none" stroke="black" stroke-width="3"/>
<path d="M111,391v 5" fill="none" stroke="black" stroke-width="3"/>
<path d="M140,391v 5" fill="none" stroke="black" stroke-width="3"/>
<path d="M170,391v 5" fill="none" stroke="black" stroke-width="3"/>
<path d="M199,385v 11" fill="none" stroke="black" stroke-width="3"/>
<path d="M228,391v 5" fill="none" stroke="black" stroke-width="3"/>
<path d="M257,391v 5" fill="none" stroke="black" stroke-width="3"/>
<path d="M286,391v 5" fill="none" stroke="black" stroke-width="3"/>
<path d="M315,385v 11" fill="none" stroke="black" stroke-width="3"/>
<path d="M344,391v 5" fill="none" stroke="black" stroke-width="3"/>
<path d="M373,391v 5" fill="none" stroke="black" stroke-width="3"/>
<path d="M402,391v 5" fill="none" stroke="black" stroke-width="3"/>
<path d="M431,385v 11" fill="none" stroke="black" stroke-width="3"/>
<path d="M82,385v 11" fill="none" stroke="black" stroke-width="3"/>
<path d="M431,385v 11" fill="none" stroke="black" stroke-width="3"/>
<path d="M460,391v 5" fill="none" stroke="black" stroke-width="3"/>
<path d="M490,391v 5" fill="none" stroke="black" stroke-width="3"/>
<path d="M519,391v 5" fill="none" stroke="black" stroke-width="3"/>
<text x="77" y="416" fill="black" font-size="21" font-family="Times" font-weight="bold">
0
</text>
<text x="187" y="416" fill="black" font-size="21" font-family="Times" font-weight="bold">
20
</text>
<text x="303" y="416" fill="black" font-size="21" font-family="Times" font-weight="bold">
40
</text>
<text x="419" y="416" fill="black" font-size="21" font-family="Times" font-weight="bold">
60
</text>
<path d="M79,37h 443" fill="none" stroke="black" stroke-width="3"/>
<path d="M82,48v -11" fill="none" stroke="black" stroke-width="3"/>
<path d="M111,43v -6" fill="none" stroke="black" stroke-width="3"/>
<path d="M140,43v -6" fill="none" stroke="black" stroke-width="3"/>
<path d="M170,43v -6" fill="none" stroke="black" stroke-width="3"/>
<path d="M199,48v -11" fill="none" stroke="black" stroke-width="3"/>
<path d="M228,43v -6" fill="none" stroke="black" stroke-width="3"/>
<path d="M257,43v -6" fill="none" stroke="black" stroke-width="3"/>
<path d="M286,43v -6" fill="none" stroke="black" stroke-width="3"/>
<path d="M315,48v -11" fill="none" stroke="black" stroke-width="3"/>
<path d="M344,43v -6" fill="none" stroke="black" stroke-width="3"/>
<path d="M373,43v -6" fill="none" stroke="black" stroke-width="3"/>
<path d="M402,43v -6" fill="none" stroke="black" stroke-width="3"/>
<path d="M431,48v -11" fill="none" stroke="black" stroke-width="3"/>
<path d="M82,48v -11" fill="none" stroke="black" stroke-width="3"/>
<path d="M431,48v -11" fill="none" stroke="black" stroke-width="3"/>
<path d="M460,43v -6" fill="none" stroke="black" stroke-width="3"/>
<path d="M490,43v -6" fill="none" stroke="black" stroke-width="3"/>
<path d="M519,43v -6" fill="none" stroke="black" stroke-width="3"/>
<path d="M79,396v -359" fill="none" stroke="black" stroke-width="3"/>
<path d="M92,396h -13" fill="none" stroke="black" stroke-width="3"/>
<path d="M86,378h -7" fill="none" stroke="black" stroke-width="3"/>
<path d="M86,359h -7" fill="none" stroke="black" stroke-width="3"/>
<path d="M86,341h -7" fill="none" stroke="black" stroke-width="3"/>
<path d="M92,323h -13" fill="none" stroke="black" stroke-width="3"/>
<path d="M86,304h -7" fill="none" stroke="black" stroke-width="3"/>
<path d="M86,286h -7" fill="none" stroke="black" stroke-width="3"/>
<path d="M86,268h -7" fill="none" stroke="black" stroke-width="3"/>
<path d="M92,249h -13" fill="none" stroke="black" stroke-width="3"/>
<path d="M86,231h -7" fill="none" stroke="black" stroke-width="3"/>
<path d="M86,212h -7" fill="none" stroke="black" stroke-width="3"/>
<path d="M86,194h -7" fill="none" stroke="black" stroke-width="3"/>
<path d="M92,176h -13" fill="none" stroke="black" stroke-width="3"/>
<path d="M86,157h -7" fill="none" stroke="black" stroke-width="3"/>
<path d="M86,139h -7" fill="none" stroke="black" stroke-width="3"/>
<path d="M86,121h -7" fill="none" stroke="black" stroke-width="3"/>
<path d="M92,102h -13" fill="none" stroke="black" stroke-width="3"/>
<path d="M92,102h -13" fill="none" stroke="black" stroke-width="3"/>
<path d="M86,84h -7" fill="none" stroke="black" stroke-width="3"/>
<path d="M86,65h -7" fill="none" stroke="black" stroke-width="3"/>
<path d="M86,47h -7" fill="none" stroke="black" stroke-width="3"/>
<text x="46" y="404" fill="black" font-size="21" font-family="Times" font-weight="bold">
0.0
</text>
<text x="46" y="331" fill="black" font-size="21" font-family="Times" font-weight="bold">
0.2
</text>
<text x="46" y="257" fill="black" font-size="21" font-family="Times" font-weight="bold">
0.4
</text>
<text x="46" y="183" fill="black" font-size="21" font-family="Times" font-weight="bold">
0.6
</text>
<text x="46" y="110" fill="black" font-size="21" font-family="Times" font-weight="bold">
0.8
</text>
<path d="M522,396v -359" fill="none" stroke="black" stroke-width="3"/>
<path d="M508,396h 14" fill="none" stroke="black" stroke-width="3"/>
<path d="M515,378h 7" fill="none" stroke="black" stroke-width="3"/>
<path d="M515,359h 7" fill="none" stroke="black" stroke-width="3"/>
<path d="M515,341h 7" fill="none" stroke="black" stroke-width="3"/>
<path d="M508,323h 14" fill="none" stroke="black" stroke-width="3"/>
<path d="M515,304h 7" fill="none" stroke="black" stroke-width="3"/>
<path d="M515,286h 7" fill="none" stroke="black" stroke-width="3"/>
<path d="M515,268h 7" fill="none" stroke="black" stroke-width="3"/>
<path d="M508,249h 14" fill="none" stroke="black" stroke-width="3"/>
<path d="M515,231h 7" fill="none" stroke="black" stroke-width="3"/>
<path d="M515,212h 7" fill="none" stroke="black" stroke-width="3"/>
<path d="M515,194h 7" fill="none" stroke="black" stroke-width="3"/>
<path d="M508,176h 14" fill="none" stroke="black" stroke-width="3"/>
<path d="M515,157h 7" fill="none" stroke="black" stroke-width="3"/>
<path d="M515,139h 7" fill="none" stroke="black" stroke-width="3"/>
<path d="M515,121h 7" fill="none" stroke="black" stroke-width="3"/>
<path d="M508,102h 14" fill="none" stroke="black" stroke-width="3"/>
<path d="M508,102h 14" fill="none" stroke="black" stroke-width="3"/>
<path d="M515,84h 7" fill="none" stroke="black" stroke-width="3"/>
<path d="M515,65h 7" fill="none" stroke="black" stroke-width="3"/>
<path d="M515,47h 7" fill="none" stroke="black" stroke-width="3"/>
<rect x="113" y="-4" width="397" height="40" fill="white"/>
<text x="125" y="22" fill="black" font-size="21" font-family="Helvetica" font-weight="bold">
v_hamming_to_true_naive_normed
</text>
<path d="M80,395v -298h 5v 252h 6v 37h 6v 8h 6v 1h 5v -1h 6v 1h 373v -5h 5v 5h 24v -1h 6" fill="none" stroke="#ff0000" stroke-width="6"/>
<path d="M332,107h 42" fill="none" stroke="#ff0000" stroke-width="6"/>
<rect x="113" y="-4" width="397" height="40" fill="white"/>
<text x="125" y="22" fill="black" font-size="21" font-family="Helvetica" font-weight="bold">
v_hamming_to_true_naive_normed
</text></svg>
