<?xml version="1.0" standalone="no"?>
<svg width="567" height="466" viewBox="0 0 567 466" xmlns="http://www.w3.org/2000/svg">
<title>
/bbx/output/_plots/example/hmm/performance/plots/vd_insertion.svg
</title>
<desc>
Creator: ROOT Version 5.34/14
CreationDate: Thu Jul 30 18:25:43 2015</desc>
<defs>
</defs>
<rect x="0" y="0" width="567" height="466" fill="white"/>
<rect x="79" y="37" width="443" height="359" fill="none" stroke="black"/>
<rect x="79" y="37" width="443" height="359" fill="none" stroke="black"/>
<path d="M79,396h 443" fill="none" stroke="black" stroke-width="3"/>
<text x="324" y="449" fill="black" font-size="32" font-family="Times" font-weight="bold">
inferred - true
</text>
<path d="M92,385v 11" fill="none" stroke="black" stroke-width="3"/>
<path d="M118,391v 5" fill="none" stroke="black" stroke-width="3"/>
<path d="M144,391v 5" fill="none" stroke="black" stroke-width="3"/>
<path d="M170,391v 5" fill="none" stroke="black" stroke-width="3"/>
<path d="M196,391v 5" fill="none" stroke="black" stroke-width="3"/>
<path d="M222,385v 11" fill="none" stroke="black" stroke-width="3"/>
<path d="M248,391v 5" fill="none" stroke="black" stroke-width="3"/>
<path d="M274,391v 5" fill="none" stroke="black" stroke-width="3"/>
<path d="M300,391v 5" fill="none" stroke="black" stroke-width="3"/>
<path d="M326,391v 5" fill="none" stroke="black" stroke-width="3"/>
<path d="M352,385v 11" fill="none" stroke="black" stroke-width="3"/>
<path d="M379,391v 5" fill="none" stroke="black" stroke-width="3"/>
<path d="M405,391v 5" fill="none" stroke="black" stroke-width="3"/>
<path d="M431,391v 5" fill="none" stroke="black" stroke-width="3"/>
<path d="M457,391v 5" fill="none" stroke="black" stroke-width="3"/>
<path d="M483,385v 11" fill="none" stroke="black" stroke-width="3"/>
<path d="M92,385v 11" fill="none" stroke="black" stroke-width="3"/>
<path d="M483,385v 11" fill="none" stroke="black" stroke-width="3"/>
<path d="M509,391v 5" fill="none" stroke="black" stroke-width="3"/>
<text x="77" y="416" fill="black" font-size="21" font-family="Times" font-weight="bold">
-10
</text>
<text x="213" y="416" fill="black" font-size="21" font-family="Times" font-weight="bold">
-5
</text>
<text x="346" y="416" fill="black" font-size="21" font-family="Times" font-weight="bold">
0
</text>
<text x="477" y="416" fill="black" font-size="21" font-family="Times" font-weight="bold">
5
</text>
<path d="M79,37h 443" fill="none" stroke="black" stroke-width="3"/>
<path d="M92,48v -11" fill="none" stroke="black" stroke-width="3"/>
<path d="M118,43v -6" fill="none" stroke="black" stroke-width="3"/>
<path d="M144,43v -6" fill="none" stroke="black" stroke-width="3"/>
<path d="M170,43v -6" fill="none" stroke="black" stroke-width="3"/>
<path d="M196,43v -6" fill="none" stroke="black" stroke-width="3"/>
<path d="M222,48v -11" fill="none" stroke="black" stroke-width="3"/>
<path d="M248,43v -6" fill="none" stroke="black" stroke-width="3"/>
<path d="M274,43v -6" fill="none" stroke="black" stroke-width="3"/>
<path d="M300,43v -6" fill="none" stroke="black" stroke-width="3"/>
<path d="M326,43v -6" fill="none" stroke="black" stroke-width="3"/>
<path d="M352,48v -11" fill="none" stroke="black" stroke-width="3"/>
<path d="M379,43v -6" fill="none" stroke="black" stroke-width="3"/>
<path d="M405,43v -6" fill="none" stroke="black" stroke-width="3"/>
<path d="M431,43v -6" fill="none" stroke="black" stroke-width="3"/>
<path d="M457,43v -6" fill="none" stroke="black" stroke-width="3"/>
<path d="M483,48v -11" fill="none" stroke="black" stroke-width="3"/>
<path d="M92,48v -11" fill="none" stroke="black" stroke-width="3"/>
<path d="M483,48v -11" fill="none" stroke="black" stroke-width="3"/>
<path d="M509,43v -6" fill="none" stroke="black" stroke-width="3"/>
<path d="M79,396v -359" fill="none" stroke="black" stroke-width="3"/>
<path d="M92,396h -13" fill="none" stroke="black" stroke-width="3"/>
<path d="M86,363h -7" fill="none" stroke="black" stroke-width="3"/>
<path d="M86,330h -7" fill="none" stroke="black" stroke-width="3"/>
<path d="M86,297h -7" fill="none" stroke="black" stroke-width="3"/>
<path d="M92,264h -13" fill="none" stroke="black" stroke-width="3"/>
<path d="M86,231h -7" fill="none" stroke="black" stroke-width="3"/>
<path d="M86,198h -7" fill="none" stroke="black" stroke-width="3"/>
<path d="M86,165h -7" fill="none" stroke="black" stroke-width="3"/>
<path d="M92,132h -13" fill="none" stroke="black" stroke-width="3"/>
<path d="M92,132h -13" fill="none" stroke="black" stroke-width="3"/>
<path d="M86,99h -7" fill="none" stroke="black" stroke-width="3"/>
<path d="M86,65h -7" fill="none" stroke="black" stroke-width="3"/>
<text x="46" y="404" fill="black" font-size="21" font-family="Times" font-weight="bold">
0.0
</text>
<text x="46" y="271" fill="black" font-size="21" font-family="Times" font-weight="bold">
0.2
</text>
<text x="46" y="139" fill="black" font-size="21" font-family="Times" font-weight="bold">
0.4
</text>
<path d="M522,396v -359" fill="none" stroke="black" stroke-width="3"/>
<path d="M508,396h 14" fill="none" stroke="black" stroke-width="3"/>
<path d="M515,363h 7" fill="none" stroke="black" stroke-width="3"/>
<path d="M515,330h 7" fill="none" stroke="black" stroke-width="3"/>
<path d="M515,297h 7" fill="none" stroke="black" stroke-width="3"/>
<path d="M508,264h 14" fill="none" stroke="black" stroke-width="3"/>
<path d="M515,231h 7" fill="none" stroke="black" stroke-width="3"/>
<path d="M515,198h 7" fill="none" stroke="black" stroke-width="3"/>
<path d="M515,165h 7" fill="none" stroke="black" stroke-width="3"/>
<path d="M508,132h 14" fill="none" stroke="black" stroke-width="3"/>
<path d="M508,132h 14" fill="none" stroke="black" stroke-width="3"/>
<path d="M515,99h 7" fill="none" stroke="black" stroke-width="3"/>
<path d="M515,65h 7" fill="none" stroke="black" stroke-width="3"/>
<rect x="113" y="-4" width="201" height="38" fill="white"/>
<text x="124" y="23" fill="black" font-size="30" font-family="Helvetica" font-weight="bold">
vd_insertion
</text>
<path d="M80,395v -6h 25v 6h 26v -16h 26v 14h 26v -14h 26v -18h 26v 32h 26v -22h 26v -14h 26v -84h 26v -176h 27v 246h 26v 28h 26v 18h 26v 4h 26v 2h 26v -2h 26" fill="none" stroke="#ff0000" stroke-width="6"/>
<path d="M332,107h 42" fill="none" stroke="#ff0000" stroke-width="6"/>
<rect x="113" y="-4" width="201" height="38" fill="white"/>
<text x="124" y="23" fill="black" font-size="30" font-family="Helvetica" font-weight="bold">
vd_insertion
</text></svg>
