<?xml version="1.0" standalone="no"?>
<svg width="567" height="466" viewBox="0 0 567 466" xmlns="http://www.w3.org/2000/svg">
<title>
/bbx/output/_plots/example/hmm/true/mute-freqs/j/plots/IGHJ3_star_02.svg
</title>
<desc>
Creator: ROOT Version 5.34/14
CreationDate: Thu Jul 30 18:25:21 2015</desc>
<defs>
</defs>
<rect x="0" y="0" width="567" height="466" fill="white"/>
<rect x="79" y="37" width="443" height="359" fill="none" stroke="black"/>
<rect x="79" y="37" width="443" height="359" fill="none" stroke="black"/>
<path d="M79,396h 443" fill="none" stroke="black" stroke-width="3"/>
<path d="M224,385v 11" fill="none" stroke="black" stroke-width="3"/>
<path d="M258,391v 5" fill="none" stroke="black" stroke-width="3"/>
<path d="M292,391v 5" fill="none" stroke="black" stroke-width="3"/>
<path d="M326,391v 5" fill="none" stroke="black" stroke-width="3"/>
<path d="M360,391v 5" fill="none" stroke="black" stroke-width="3"/>
<path d="M394,385v 11" fill="none" stroke="black" stroke-width="3"/>
<path d="M224,385v 11" fill="none" stroke="black" stroke-width="3"/>
<path d="M190,391v 5" fill="none" stroke="black" stroke-width="3"/>
<path d="M156,391v 5" fill="none" stroke="black" stroke-width="3"/>
<path d="M122,391v 5" fill="none" stroke="black" stroke-width="3"/>
<path d="M88,391v 5" fill="none" stroke="black" stroke-width="3"/>
<path d="M394,385v 11" fill="none" stroke="black" stroke-width="3"/>
<path d="M428,391v 5" fill="none" stroke="black" stroke-width="3"/>
<path d="M462,391v 5" fill="none" stroke="black" stroke-width="3"/>
<path d="M496,391v 5" fill="none" stroke="black" stroke-width="3"/>
<text x="212" y="416" fill="black" font-size="21" font-family="Times" font-weight="bold">
10
</text>
<text x="382" y="416" fill="black" font-size="21" font-family="Times" font-weight="bold">
20
</text>
<path d="M79,37h 443" fill="none" stroke="black" stroke-width="3"/>
<path d="M224,48v -11" fill="none" stroke="black" stroke-width="3"/>
<path d="M258,43v -6" fill="none" stroke="black" stroke-width="3"/>
<path d="M292,43v -6" fill="none" stroke="black" stroke-width="3"/>
<path d="M326,43v -6" fill="none" stroke="black" stroke-width="3"/>
<path d="M360,43v -6" fill="none" stroke="black" stroke-width="3"/>
<path d="M394,48v -11" fill="none" stroke="black" stroke-width="3"/>
<path d="M224,48v -11" fill="none" stroke="black" stroke-width="3"/>
<path d="M190,43v -6" fill="none" stroke="black" stroke-width="3"/>
<path d="M156,43v -6" fill="none" stroke="black" stroke-width="3"/>
<path d="M122,43v -6" fill="none" stroke="black" stroke-width="3"/>
<path d="M88,43v -6" fill="none" stroke="black" stroke-width="3"/>
<path d="M394,48v -11" fill="none" stroke="black" stroke-width="3"/>
<path d="M428,43v -6" fill="none" stroke="black" stroke-width="3"/>
<path d="M462,43v -6" fill="none" stroke="black" stroke-width="3"/>
<path d="M496,43v -6" fill="none" stroke="black" stroke-width="3"/>
<path d="M79,396v -359" fill="none" stroke="black" stroke-width="3"/>
<path d="M92,396h -13" fill="none" stroke="black" stroke-width="3"/>
<path d="M86,371h -7" fill="none" stroke="black" stroke-width="3"/>
<path d="M86,346h -7" fill="none" stroke="black" stroke-width="3"/>
<path d="M86,321h -7" fill="none" stroke="black" stroke-width="3"/>
<path d="M92,296h -13" fill="none" stroke="black" stroke-width="3"/>
<path d="M86,272h -7" fill="none" stroke="black" stroke-width="3"/>
<path d="M86,247h -7" fill="none" stroke="black" stroke-width="3"/>
<path d="M86,222h -7" fill="none" stroke="black" stroke-width="3"/>
<path d="M92,197h -13" fill="none" stroke="black" stroke-width="3"/>
<path d="M86,172h -7" fill="none" stroke="black" stroke-width="3"/>
<path d="M86,147h -7" fill="none" stroke="black" stroke-width="3"/>
<path d="M86,122h -7" fill="none" stroke="black" stroke-width="3"/>
<path d="M92,97h -13" fill="none" stroke="black" stroke-width="3"/>
<path d="M92,97h -13" fill="none" stroke="black" stroke-width="3"/>
<path d="M86,72h -7" fill="none" stroke="black" stroke-width="3"/>
<path d="M86,47h -7" fill="none" stroke="black" stroke-width="3"/>
<text x="46" y="404" fill="black" font-size="21" font-family="Times" font-weight="bold">
0.0
</text>
<text x="46" y="304" fill="black" font-size="21" font-family="Times" font-weight="bold">
0.2
</text>
<text x="46" y="205" fill="black" font-size="21" font-family="Times" font-weight="bold">
0.4
</text>
<text x="46" y="105" fill="black" font-size="21" font-family="Times" font-weight="bold">
0.6
</text>
<path d="M522,396v -359" fill="none" stroke="black" stroke-width="3"/>
<path d="M508,396h 14" fill="none" stroke="black" stroke-width="3"/>
<path d="M515,371h 7" fill="none" stroke="black" stroke-width="3"/>
<path d="M515,346h 7" fill="none" stroke="black" stroke-width="3"/>
<path d="M515,321h 7" fill="none" stroke="black" stroke-width="3"/>
<path d="M508,296h 14" fill="none" stroke="black" stroke-width="3"/>
<path d="M515,272h 7" fill="none" stroke="black" stroke-width="3"/>
<path d="M515,247h 7" fill="none" stroke="black" stroke-width="3"/>
<path d="M515,222h 7" fill="none" stroke="black" stroke-width="3"/>
<path d="M508,197h 14" fill="none" stroke="black" stroke-width="3"/>
<path d="M515,172h 7" fill="none" stroke="black" stroke-width="3"/>
<path d="M515,147h 7" fill="none" stroke="black" stroke-width="3"/>
<path d="M515,122h 7" fill="none" stroke="black" stroke-width="3"/>
<path d="M508,97h 14" fill="none" stroke="black" stroke-width="3"/>
<path d="M508,97h 14" fill="none" stroke="black" stroke-width="3"/>
<path d="M515,72h 7" fill="none" stroke="black" stroke-width="3"/>
<path d="M515,47h 7" fill="none" stroke="black" stroke-width="3"/>
<rect x="113" y="-4" width="248" height="38" fill="white"/>
<text x="131" y="24" fill="black" font-size="30" font-family="Helvetica" font-weight="bold">
IGHJ3_star_02
</text>
<path d="M88,187v -87" fill="none" stroke="#ff0000" stroke-width="6"/>
<path d="M88,94v -57" fill="none" stroke="#ff0000" stroke-width="6"/>
<path d="M79,97h 6" fill="none" stroke="#ff0000" stroke-width="6"/>
<path d="M91,97h 5" fill="none" stroke="#ff0000" stroke-width="6"/>
<g stroke="#ff0000" stroke-width="6" fill="#ff0000">
<circle cx="88" cy="97" r="3.5"/>
</g>
<path d="M105,356v -56" fill="none" stroke="#ff0000" stroke-width="6"/>
<path d="M105,293v -56" fill="none" stroke="#ff0000" stroke-width="6"/>
<path d="M96,296h 6" fill="none" stroke="#ff0000" stroke-width="6"/>
<path d="M108,296h 5" fill="none" stroke="#ff0000" stroke-width="6"/>
<g stroke="#ff0000" stroke-width="6" fill="#ff0000">
<circle cx="105" cy="296" r="3.5"/>
</g>
<path d="M122,393v -21" fill="none" stroke="#ff0000" stroke-width="6"/>
<g stroke="#ff0000" stroke-width="6" fill="#ff0000">
<circle cx="122" cy="396" r="3.5"/>
</g>
<path d="M139,396v -46" fill="none" stroke="#ff0000" stroke-width="6"/>
<path d="M139,343v -46" fill="none" stroke="#ff0000" stroke-width="6"/>
<path d="M130,346h 6" fill="none" stroke="#ff0000" stroke-width="6"/>
<path d="M142,346h 5" fill="none" stroke="#ff0000" stroke-width="6"/>
<g stroke="#ff0000" stroke-width="6" fill="#ff0000">
<circle cx="139" cy="346" r="3.5"/>
</g>
<path d="M156,396v -46" fill="none" stroke="#ff0000" stroke-width="6"/>
<path d="M156,343v -46" fill="none" stroke="#ff0000" stroke-width="6"/>
<path d="M147,346h 6" fill="none" stroke="#ff0000" stroke-width="6"/>
<path d="M159,346h 5" fill="none" stroke="#ff0000" stroke-width="6"/>
<g stroke="#ff0000" stroke-width="6" fill="#ff0000">
<circle cx="156" cy="346" r="3.5"/>
</g>
<path d="M173,393v -21" fill="none" stroke="#ff0000" stroke-width="6"/>
<g stroke="#ff0000" stroke-width="6" fill="#ff0000">
<circle cx="173" cy="396" r="3.5"/>
</g>
<path d="M190,393v -21" fill="none" stroke="#ff0000" stroke-width="6"/>
<g stroke="#ff0000" stroke-width="6" fill="#ff0000">
<circle cx="190" cy="396" r="3.5"/>
</g>
<path d="M207,312v -62" fill="none" stroke="#ff0000" stroke-width="6"/>
<path d="M207,243v -62" fill="none" stroke="#ff0000" stroke-width="6"/>
<path d="M198,247h 6" fill="none" stroke="#ff0000" stroke-width="6"/>
<path d="M210,247h 5" fill="none" stroke="#ff0000" stroke-width="6"/>
<g stroke="#ff0000" stroke-width="6" fill="#ff0000">
<circle cx="207" cy="247" r="3.5"/>
</g>
<path d="M224,393v -21" fill="none" stroke="#ff0000" stroke-width="6"/>
<g stroke="#ff0000" stroke-width="6" fill="#ff0000">
<circle cx="224" cy="396" r="3.5"/>
</g>
<path d="M241,166v -66" fill="none" stroke="#ff0000" stroke-width="6"/>
<path d="M241,94v -57" fill="none" stroke="#ff0000" stroke-width="6"/>
<path d="M232,97h 6" fill="none" stroke="#ff0000" stroke-width="6"/>
<path d="M244,97h 5" fill="none" stroke="#ff0000" stroke-width="6"/>
<g stroke="#ff0000" stroke-width="6" fill="#ff0000">
<circle cx="241" cy="97" r="3.5"/>
</g>
<path d="M258,396v -46" fill="none" stroke="#ff0000" stroke-width="6"/>
<path d="M258,343v -46" fill="none" stroke="#ff0000" stroke-width="6"/>
<path d="M249,346h 6" fill="none" stroke="#ff0000" stroke-width="6"/>
<path d="M261,346h 5" fill="none" stroke="#ff0000" stroke-width="6"/>
<g stroke="#ff0000" stroke-width="6" fill="#ff0000">
<circle cx="258" cy="346" r="3.5"/>
</g>
<path d="M275,396v -46" fill="none" stroke="#ff0000" stroke-width="6"/>
<path d="M275,343v -46" fill="none" stroke="#ff0000" stroke-width="6"/>
<path d="M266,346h 6" fill="none" stroke="#ff0000" stroke-width="6"/>
<path d="M278,346h 5" fill="none" stroke="#ff0000" stroke-width="6"/>
<g stroke="#ff0000" stroke-width="6" fill="#ff0000">
<circle cx="275" cy="346" r="3.5"/>
</g>
<path d="M292,393v -21" fill="none" stroke="#ff0000" stroke-width="6"/>
<g stroke="#ff0000" stroke-width="6" fill="#ff0000">
<circle cx="292" cy="396" r="3.5"/>
</g>
<path d="M309,393v -21" fill="none" stroke="#ff0000" stroke-width="6"/>
<g stroke="#ff0000" stroke-width="6" fill="#ff0000">
<circle cx="309" cy="396" r="3.5"/>
</g>
<path d="M326,393v -21" fill="none" stroke="#ff0000" stroke-width="6"/>
<g stroke="#ff0000" stroke-width="6" fill="#ff0000">
<circle cx="326" cy="396" r="3.5"/>
</g>
<path d="M343,393v -21" fill="none" stroke="#ff0000" stroke-width="6"/>
<g stroke="#ff0000" stroke-width="6" fill="#ff0000">
<circle cx="343" cy="396" r="3.5"/>
</g>
<path d="M360,393v -21" fill="none" stroke="#ff0000" stroke-width="6"/>
<g stroke="#ff0000" stroke-width="6" fill="#ff0000">
<circle cx="360" cy="396" r="3.5"/>
</g>
<path d="M377,393v -21" fill="none" stroke="#ff0000" stroke-width="6"/>
<g stroke="#ff0000" stroke-width="6" fill="#ff0000">
<circle cx="377" cy="396" r="3.5"/>
</g>
<path d="M394,393v -21" fill="none" stroke="#ff0000" stroke-width="6"/>
<g stroke="#ff0000" stroke-width="6" fill="#ff0000">
<circle cx="394" cy="396" r="3.5"/>
</g>
<path d="M411,393v -21" fill="none" stroke="#ff0000" stroke-width="6"/>
<g stroke="#ff0000" stroke-width="6" fill="#ff0000">
<circle cx="411" cy="396" r="3.5"/>
</g>
<path d="M428,396v -46" fill="none" stroke="#ff0000" stroke-width="6"/>
<path d="M428,343v -46" fill="none" stroke="#ff0000" stroke-width="6"/>
<path d="M420,346h 5" fill="none" stroke="#ff0000" stroke-width="6"/>
<path d="M431,346h 6" fill="none" stroke="#ff0000" stroke-width="6"/>
<g stroke="#ff0000" stroke-width="6" fill="#ff0000">
<circle cx="428" cy="346" r="3.5"/>
</g>
<path d="M445,393v -21" fill="none" stroke="#ff0000" stroke-width="6"/>
<g stroke="#ff0000" stroke-width="6" fill="#ff0000">
<circle cx="445" cy="396" r="3.5"/>
</g>
<path d="M462,393v -21" fill="none" stroke="#ff0000" stroke-width="6"/>
<g stroke="#ff0000" stroke-width="6" fill="#ff0000">
<circle cx="462" cy="396" r="3.5"/>
</g>
<path d="M479,393v -21" fill="none" stroke="#ff0000" stroke-width="6"/>
<g stroke="#ff0000" stroke-width="6" fill="#ff0000">
<circle cx="479" cy="396" r="3.5"/>
</g>
<path d="M496,393v -21" fill="none" stroke="#ff0000" stroke-width="6"/>
<g stroke="#ff0000" stroke-width="6" fill="#ff0000">
<circle cx="496" cy="396" r="3.5"/>
</g>
<path d="M513,393v -21" fill="none" stroke="#ff0000" stroke-width="6"/>
<g stroke="#ff0000" stroke-width="6" fill="#ff0000">
<circle cx="513" cy="396" r="3.5"/>
</g>
<path d="M332,107h 42" fill="none" stroke="#ff0000" stroke-width="6"/>
<path d="M326,426v -179" fill="none" stroke="black" stroke-width="3" stroke-dasharray=" 3, 3"/>
<rect x="113" y="-4" width="248" height="38" fill="white"/>
<text x="131" y="24" fill="black" font-size="30" font-family="Helvetica" font-weight="bold">
IGHJ3_star_02
</text></svg>
