<?xml version="1.0" standalone="no"?>
<svg width="567" height="466" viewBox="0 0 567 466" xmlns="http://www.w3.org/2000/svg">
<title>
/bbx/output/_plots/example/hmm/true/mute-freqs/j/plots/IGHJ4_star_02.svg
</title>
<desc>
Creator: ROOT Version 5.34/14
CreationDate: Thu Jul 30 18:25:21 2015</desc>
<defs>
</defs>
<rect x="0" y="0" width="567" height="466" fill="white"/>
<rect x="79" y="37" width="443" height="359" fill="none" stroke="black"/>
<rect x="79" y="37" width="443" height="359" fill="none" stroke="black"/>
<path d="M79,396h 443" fill="none" stroke="black" stroke-width="3"/>
<path d="M88,385v 11" fill="none" stroke="black" stroke-width="3"/>
<path d="M122,391v 5" fill="none" stroke="black" stroke-width="3"/>
<path d="M156,391v 5" fill="none" stroke="black" stroke-width="3"/>
<path d="M190,391v 5" fill="none" stroke="black" stroke-width="3"/>
<path d="M224,391v 5" fill="none" stroke="black" stroke-width="3"/>
<path d="M258,385v 11" fill="none" stroke="black" stroke-width="3"/>
<path d="M292,391v 5" fill="none" stroke="black" stroke-width="3"/>
<path d="M326,391v 5" fill="none" stroke="black" stroke-width="3"/>
<path d="M360,391v 5" fill="none" stroke="black" stroke-width="3"/>
<path d="M394,391v 5" fill="none" stroke="black" stroke-width="3"/>
<path d="M428,385v 11" fill="none" stroke="black" stroke-width="3"/>
<path d="M88,385v 11" fill="none" stroke="black" stroke-width="3"/>
<path d="M428,385v 11" fill="none" stroke="black" stroke-width="3"/>
<path d="M462,391v 5" fill="none" stroke="black" stroke-width="3"/>
<path d="M496,391v 5" fill="none" stroke="black" stroke-width="3"/>
<text x="81" y="416" fill="black" font-size="21" font-family="Times" font-weight="bold">
0
</text>
<text x="246" y="416" fill="black" font-size="21" font-family="Times" font-weight="bold">
10
</text>
<text x="416" y="416" fill="black" font-size="21" font-family="Times" font-weight="bold">
20
</text>
<path d="M79,37h 443" fill="none" stroke="black" stroke-width="3"/>
<path d="M88,48v -11" fill="none" stroke="black" stroke-width="3"/>
<path d="M122,43v -6" fill="none" stroke="black" stroke-width="3"/>
<path d="M156,43v -6" fill="none" stroke="black" stroke-width="3"/>
<path d="M190,43v -6" fill="none" stroke="black" stroke-width="3"/>
<path d="M224,43v -6" fill="none" stroke="black" stroke-width="3"/>
<path d="M258,48v -11" fill="none" stroke="black" stroke-width="3"/>
<path d="M292,43v -6" fill="none" stroke="black" stroke-width="3"/>
<path d="M326,43v -6" fill="none" stroke="black" stroke-width="3"/>
<path d="M360,43v -6" fill="none" stroke="black" stroke-width="3"/>
<path d="M394,43v -6" fill="none" stroke="black" stroke-width="3"/>
<path d="M428,48v -11" fill="none" stroke="black" stroke-width="3"/>
<path d="M88,48v -11" fill="none" stroke="black" stroke-width="3"/>
<path d="M428,48v -11" fill="none" stroke="black" stroke-width="3"/>
<path d="M462,43v -6" fill="none" stroke="black" stroke-width="3"/>
<path d="M496,43v -6" fill="none" stroke="black" stroke-width="3"/>
<path d="M79,396v -359" fill="none" stroke="black" stroke-width="3"/>
<path d="M92,396h -13" fill="none" stroke="black" stroke-width="3"/>
<path d="M86,379h -7" fill="none" stroke="black" stroke-width="3"/>
<path d="M86,362h -7" fill="none" stroke="black" stroke-width="3"/>
<path d="M86,345h -7" fill="none" stroke="black" stroke-width="3"/>
<path d="M86,328h -7" fill="none" stroke="black" stroke-width="3"/>
<path d="M92,311h -13" fill="none" stroke="black" stroke-width="3"/>
<path d="M86,294h -7" fill="none" stroke="black" stroke-width="3"/>
<path d="M86,277h -7" fill="none" stroke="black" stroke-width="3"/>
<path d="M86,260h -7" fill="none" stroke="black" stroke-width="3"/>
<path d="M86,243h -7" fill="none" stroke="black" stroke-width="3"/>
<path d="M92,226h -13" fill="none" stroke="black" stroke-width="3"/>
<path d="M86,209h -7" fill="none" stroke="black" stroke-width="3"/>
<path d="M86,192h -7" fill="none" stroke="black" stroke-width="3"/>
<path d="M86,175h -7" fill="none" stroke="black" stroke-width="3"/>
<path d="M86,158h -7" fill="none" stroke="black" stroke-width="3"/>
<path d="M92,142h -13" fill="none" stroke="black" stroke-width="3"/>
<path d="M86,125h -7" fill="none" stroke="black" stroke-width="3"/>
<path d="M86,108h -7" fill="none" stroke="black" stroke-width="3"/>
<path d="M86,91h -7" fill="none" stroke="black" stroke-width="3"/>
<path d="M86,74h -7" fill="none" stroke="black" stroke-width="3"/>
<path d="M92,57h -13" fill="none" stroke="black" stroke-width="3"/>
<path d="M92,57h -13" fill="none" stroke="black" stroke-width="3"/>
<path d="M86,40h -7" fill="none" stroke="black" stroke-width="3"/>
<text x="46" y="404" fill="black" font-size="21" font-family="Times" font-weight="bold">
0.0
</text>
<text x="46" y="319" fill="black" font-size="21" font-family="Times" font-weight="bold">
0.1
</text>
<text x="46" y="234" fill="black" font-size="21" font-family="Times" font-weight="bold">
0.2
</text>
<text x="46" y="149" fill="black" font-size="21" font-family="Times" font-weight="bold">
0.3
</text>
<text x="46" y="64" fill="black" font-size="21" font-family="Times" font-weight="bold">
0.4
</text>
<path d="M522,396v -359" fill="none" stroke="black" stroke-width="3"/>
<path d="M508,396h 14" fill="none" stroke="black" stroke-width="3"/>
<path d="M515,379h 7" fill="none" stroke="black" stroke-width="3"/>
<path d="M515,362h 7" fill="none" stroke="black" stroke-width="3"/>
<path d="M515,345h 7" fill="none" stroke="black" stroke-width="3"/>
<path d="M515,328h 7" fill="none" stroke="black" stroke-width="3"/>
<path d="M508,311h 14" fill="none" stroke="black" stroke-width="3"/>
<path d="M515,294h 7" fill="none" stroke="black" stroke-width="3"/>
<path d="M515,277h 7" fill="none" stroke="black" stroke-width="3"/>
<path d="M515,260h 7" fill="none" stroke="black" stroke-width="3"/>
<path d="M515,243h 7" fill="none" stroke="black" stroke-width="3"/>
<path d="M508,226h 14" fill="none" stroke="black" stroke-width="3"/>
<path d="M515,209h 7" fill="none" stroke="black" stroke-width="3"/>
<path d="M515,192h 7" fill="none" stroke="black" stroke-width="3"/>
<path d="M515,175h 7" fill="none" stroke="black" stroke-width="3"/>
<path d="M515,158h 7" fill="none" stroke="black" stroke-width="3"/>
<path d="M508,142h 14" fill="none" stroke="black" stroke-width="3"/>
<path d="M515,125h 7" fill="none" stroke="black" stroke-width="3"/>
<path d="M515,108h 7" fill="none" stroke="black" stroke-width="3"/>
<path d="M515,91h 7" fill="none" stroke="black" stroke-width="3"/>
<path d="M515,74h 7" fill="none" stroke="black" stroke-width="3"/>
<path d="M508,57h 14" fill="none" stroke="black" stroke-width="3"/>
<path d="M508,57h 14" fill="none" stroke="black" stroke-width="3"/>
<path d="M515,40h 7" fill="none" stroke="black" stroke-width="3"/>
<rect x="113" y="-4" width="248" height="38" fill="white"/>
<text x="131" y="24" fill="black" font-size="30" font-family="Helvetica" font-weight="bold">
IGHJ4_star_02
</text>
<path d="M88,393v -34" fill="none" stroke="#ff0000" stroke-width="6"/>
<g stroke="#ff0000" stroke-width="6" fill="#ff0000">
<circle cx="88" cy="396" r="3.5"/>
</g>
<path d="M105,393v -34" fill="none" stroke="#ff0000" stroke-width="6"/>
<g stroke="#ff0000" stroke-width="6" fill="#ff0000">
<circle cx="105" cy="396" r="3.5"/>
</g>
<path d="M122,183v -81" fill="none" stroke="#ff0000" stroke-width="6"/>
<path d="M122,96v -59" fill="none" stroke="#ff0000" stroke-width="6"/>
<path d="M113,99h 6" fill="none" stroke="#ff0000" stroke-width="6"/>
<path d="M125,99h 5" fill="none" stroke="#ff0000" stroke-width="6"/>
<g stroke="#ff0000" stroke-width="6" fill="#ff0000">
<circle cx="122" cy="99" r="3.5"/>
</g>
<path d="M139,223v -78" fill="none" stroke="#ff0000" stroke-width="6"/>
<path d="M139,138v -78" fill="none" stroke="#ff0000" stroke-width="6"/>
<path d="M130,142h 6" fill="none" stroke="#ff0000" stroke-width="6"/>
<path d="M142,142h 5" fill="none" stroke="#ff0000" stroke-width="6"/>
<g stroke="#ff0000" stroke-width="6" fill="#ff0000">
<circle cx="139" cy="142" r="3.5"/>
</g>
<path d="M156,278v -48" fill="none" stroke="#ff0000" stroke-width="6"/>
<path d="M156,223v -48" fill="none" stroke="#ff0000" stroke-width="6"/>
<path d="M147,226h 6" fill="none" stroke="#ff0000" stroke-width="6"/>
<path d="M159,226h 5" fill="none" stroke="#ff0000" stroke-width="6"/>
<g stroke="#ff0000" stroke-width="6" fill="#ff0000">
<circle cx="156" cy="226" r="3.5"/>
</g>
<path d="M173,277v -39" fill="none" stroke="#ff0000" stroke-width="6"/>
<path d="M173,232v -39" fill="none" stroke="#ff0000" stroke-width="6"/>
<path d="M164,235h 6" fill="none" stroke="#ff0000" stroke-width="6"/>
<path d="M176,235h 5" fill="none" stroke="#ff0000" stroke-width="6"/>
<g stroke="#ff0000" stroke-width="6" fill="#ff0000">
<circle cx="173" cy="235" r="3.5"/>
</g>
<path d="M190,338v -26" fill="none" stroke="#ff0000" stroke-width="6"/>
<path d="M190,306v -26" fill="none" stroke="#ff0000" stroke-width="6"/>
<path d="M181,309h 6" fill="none" stroke="#ff0000" stroke-width="6"/>
<path d="M193,309h 5" fill="none" stroke="#ff0000" stroke-width="6"/>
<g stroke="#ff0000" stroke-width="6" fill="#ff0000">
<circle cx="190" cy="309" r="3.5"/>
</g>
<path d="M207,322v -27" fill="none" stroke="#ff0000" stroke-width="6"/>
<path d="M207,288v -27" fill="none" stroke="#ff0000" stroke-width="6"/>
<path d="M198,291h 6" fill="none" stroke="#ff0000" stroke-width="6"/>
<path d="M210,291h 5" fill="none" stroke="#ff0000" stroke-width="6"/>
<g stroke="#ff0000" stroke-width="6" fill="#ff0000">
<circle cx="207" cy="291" r="3.5"/>
</g>
<path d="M224,393v -2" fill="none" stroke="#ff0000" stroke-width="6"/>
<g stroke="#ff0000" stroke-width="6" fill="#ff0000">
<circle cx="224" cy="396" r="3.5"/>
</g>
<path d="M241,176v -37" fill="none" stroke="#ff0000" stroke-width="6"/>
<path d="M241,132v -36" fill="none" stroke="#ff0000" stroke-width="6"/>
<path d="M232,136h 6" fill="none" stroke="#ff0000" stroke-width="6"/>
<path d="M244,136h 5" fill="none" stroke="#ff0000" stroke-width="6"/>
<g stroke="#ff0000" stroke-width="6" fill="#ff0000">
<circle cx="241" cy="136" r="3.5"/>
</g>
<path d="M258,392v -12" fill="none" stroke="#ff0000" stroke-width="6"/>
<path d="M258,374v -12" fill="none" stroke="#ff0000" stroke-width="6"/>
<path d="M249,377h 6" fill="none" stroke="#ff0000" stroke-width="6"/>
<path d="M261,377h 5" fill="none" stroke="#ff0000" stroke-width="6"/>
<g stroke="#ff0000" stroke-width="6" fill="#ff0000">
<circle cx="258" cy="377" r="3.5"/>
</g>
<path d="M275,231v -34" fill="none" stroke="#ff0000" stroke-width="6"/>
<path d="M275,190v -34" fill="none" stroke="#ff0000" stroke-width="6"/>
<path d="M266,194h 6" fill="none" stroke="#ff0000" stroke-width="6"/>
<path d="M278,194h 5" fill="none" stroke="#ff0000" stroke-width="6"/>
<g stroke="#ff0000" stroke-width="6" fill="#ff0000">
<circle cx="275" cy="194" r="3.5"/>
</g>
<path d="M292,139v -39" fill="none" stroke="#ff0000" stroke-width="6"/>
<path d="M292,94v -38" fill="none" stroke="#ff0000" stroke-width="6"/>
<path d="M283,97h 6" fill="none" stroke="#ff0000" stroke-width="6"/>
<path d="M295,97h 5" fill="none" stroke="#ff0000" stroke-width="6"/>
<g stroke="#ff0000" stroke-width="6" fill="#ff0000">
<circle cx="292" cy="97" r="3.5"/>
</g>
<path d="M309,311v -27" fill="none" stroke="#ff0000" stroke-width="6"/>
<path d="M309,277v -27" fill="none" stroke="#ff0000" stroke-width="6"/>
<path d="M300,280h 6" fill="none" stroke="#ff0000" stroke-width="6"/>
<path d="M312,280h 5" fill="none" stroke="#ff0000" stroke-width="6"/>
<g stroke="#ff0000" stroke-width="6" fill="#ff0000">
<circle cx="309" cy="280" r="3.5"/>
</g>
<path d="M326,393v -2" fill="none" stroke="#ff0000" stroke-width="6"/>
<g stroke="#ff0000" stroke-width="6" fill="#ff0000">
<circle cx="326" cy="396" r="3.5"/>
</g>
<path d="M343,393v -2" fill="none" stroke="#ff0000" stroke-width="6"/>
<g stroke="#ff0000" stroke-width="6" fill="#ff0000">
<circle cx="343" cy="396" r="3.5"/>
</g>
<path d="M360,393v -2" fill="none" stroke="#ff0000" stroke-width="6"/>
<g stroke="#ff0000" stroke-width="6" fill="#ff0000">
<circle cx="360" cy="396" r="3.5"/>
</g>
<path d="M377,396v -6" fill="none" stroke="#ff0000" stroke-width="6"/>
<path d="M377,383v -8" fill="none" stroke="#ff0000" stroke-width="6"/>
<path d="M369,387h 5" fill="none" stroke="#ff0000" stroke-width="6"/>
<path d="M380,387h 6" fill="none" stroke="#ff0000" stroke-width="6"/>
<g stroke="#ff0000" stroke-width="6" fill="#ff0000">
<circle cx="377" cy="387" r="3.5"/>
</g>
<path d="M394,393v -2" fill="none" stroke="#ff0000" stroke-width="6"/>
<g stroke="#ff0000" stroke-width="6" fill="#ff0000">
<circle cx="394" cy="396" r="3.5"/>
</g>
<path d="M411,377v -16" fill="none" stroke="#ff0000" stroke-width="6"/>
<path d="M411,355v -16" fill="none" stroke="#ff0000" stroke-width="6"/>
<path d="M403,358h 5" fill="none" stroke="#ff0000" stroke-width="6"/>
<path d="M414,358h 6" fill="none" stroke="#ff0000" stroke-width="6"/>
<g stroke="#ff0000" stroke-width="6" fill="#ff0000">
<circle cx="411" cy="358" r="3.5"/>
</g>
<path d="M428,393v -2" fill="none" stroke="#ff0000" stroke-width="6"/>
<g stroke="#ff0000" stroke-width="6" fill="#ff0000">
<circle cx="428" cy="396" r="3.5"/>
</g>
<path d="M445,361v -19" fill="none" stroke="#ff0000" stroke-width="6"/>
<path d="M445,336v -20" fill="none" stroke="#ff0000" stroke-width="6"/>
<path d="M437,339h 5" fill="none" stroke="#ff0000" stroke-width="6"/>
<path d="M448,339h 6" fill="none" stroke="#ff0000" stroke-width="6"/>
<g stroke="#ff0000" stroke-width="6" fill="#ff0000">
<circle cx="445" cy="339" r="3.5"/>
</g>
<path d="M462,393v -2" fill="none" stroke="#ff0000" stroke-width="6"/>
<g stroke="#ff0000" stroke-width="6" fill="#ff0000">
<circle cx="462" cy="396" r="3.5"/>
</g>
<path d="M479,393v -2" fill="none" stroke="#ff0000" stroke-width="6"/>
<g stroke="#ff0000" stroke-width="6" fill="#ff0000">
<circle cx="479" cy="396" r="3.5"/>
</g>
<path d="M496,393v -2" fill="none" stroke="#ff0000" stroke-width="6"/>
<g stroke="#ff0000" stroke-width="6" fill="#ff0000">
<circle cx="496" cy="396" r="3.5"/>
</g>
<path d="M513,369v -17" fill="none" stroke="#ff0000" stroke-width="6"/>
<path d="M513,345v -17" fill="none" stroke="#ff0000" stroke-width="6"/>
<path d="M505,348h 5" fill="none" stroke="#ff0000" stroke-width="6"/>
<path d="M516,348h 6" fill="none" stroke="#ff0000" stroke-width="6"/>
<g stroke="#ff0000" stroke-width="6" fill="#ff0000">
<circle cx="513" cy="348" r="3.5"/>
</g>
<path d="M332,107h 42" fill="none" stroke="#ff0000" stroke-width="6"/>
<path d="M326,426v -179" fill="none" stroke="black" stroke-width="3" stroke-dasharray=" 3, 3"/>
<rect x="113" y="-4" width="248" height="38" fill="white"/>
<text x="131" y="24" fill="black" font-size="30" font-family="Helvetica" font-weight="bold">
IGHJ4_star_02
</text></svg>
