<?xml version="1.0" standalone="no"?>
<svg width="567" height="466" viewBox="0 0 567 466" xmlns="http://www.w3.org/2000/svg">
<title>
/bbx/output/_plots/example/sw/true/mute-freqs/d/plots/IGHD6-13_star_01.svg
</title>
<desc>
Creator: ROOT Version 5.34/14
CreationDate: Wed Aug 19 19:38:13 2015</desc>
<defs>
</defs>
<rect x="0" y="0" width="567" height="466" fill="white"/>
<rect x="79" y="37" width="443" height="359" fill="none" stroke="black"/>
<rect x="79" y="37" width="443" height="359" fill="none" stroke="black"/>
<path d="M79,396h 443" fill="none" stroke="black" stroke-width="3"/>
<path d="M118,385v 11" fill="none" stroke="black" stroke-width="3"/>
<path d="M144,391v 5" fill="none" stroke="black" stroke-width="3"/>
<path d="M170,391v 5" fill="none" stroke="black" stroke-width="3"/>
<path d="M196,391v 5" fill="none" stroke="black" stroke-width="3"/>
<path d="M222,391v 5" fill="none" stroke="black" stroke-width="3"/>
<path d="M248,385v 11" fill="none" stroke="black" stroke-width="3"/>
<path d="M274,391v 5" fill="none" stroke="black" stroke-width="3"/>
<path d="M300,391v 5" fill="none" stroke="black" stroke-width="3"/>
<path d="M326,391v 5" fill="none" stroke="black" stroke-width="3"/>
<path d="M352,391v 5" fill="none" stroke="black" stroke-width="3"/>
<path d="M379,385v 11" fill="none" stroke="black" stroke-width="3"/>
<path d="M405,391v 5" fill="none" stroke="black" stroke-width="3"/>
<path d="M431,391v 5" fill="none" stroke="black" stroke-width="3"/>
<path d="M457,391v 5" fill="none" stroke="black" stroke-width="3"/>
<path d="M483,391v 5" fill="none" stroke="black" stroke-width="3"/>
<path d="M509,385v 11" fill="none" stroke="black" stroke-width="3"/>
<path d="M118,385v 11" fill="none" stroke="black" stroke-width="3"/>
<path d="M92,391v 5" fill="none" stroke="black" stroke-width="3"/>
<path d="M509,385v 11" fill="none" stroke="black" stroke-width="3"/>
<text x="112" y="416" fill="black" font-size="21" font-family="Times" font-weight="bold">
5
</text>
<text x="237" y="416" fill="black" font-size="21" font-family="Times" font-weight="bold">
10
</text>
<text x="367" y="416" fill="black" font-size="21" font-family="Times" font-weight="bold">
15
</text>
<text x="497" y="416" fill="black" font-size="21" font-family="Times" font-weight="bold">
20
</text>
<path d="M79,37h 443" fill="none" stroke="black" stroke-width="3"/>
<path d="M118,48v -11" fill="none" stroke="black" stroke-width="3"/>
<path d="M144,43v -6" fill="none" stroke="black" stroke-width="3"/>
<path d="M170,43v -6" fill="none" stroke="black" stroke-width="3"/>
<path d="M196,43v -6" fill="none" stroke="black" stroke-width="3"/>
<path d="M222,43v -6" fill="none" stroke="black" stroke-width="3"/>
<path d="M248,48v -11" fill="none" stroke="black" stroke-width="3"/>
<path d="M274,43v -6" fill="none" stroke="black" stroke-width="3"/>
<path d="M300,43v -6" fill="none" stroke="black" stroke-width="3"/>
<path d="M326,43v -6" fill="none" stroke="black" stroke-width="3"/>
<path d="M352,43v -6" fill="none" stroke="black" stroke-width="3"/>
<path d="M379,48v -11" fill="none" stroke="black" stroke-width="3"/>
<path d="M405,43v -6" fill="none" stroke="black" stroke-width="3"/>
<path d="M431,43v -6" fill="none" stroke="black" stroke-width="3"/>
<path d="M457,43v -6" fill="none" stroke="black" stroke-width="3"/>
<path d="M483,43v -6" fill="none" stroke="black" stroke-width="3"/>
<path d="M509,48v -11" fill="none" stroke="black" stroke-width="3"/>
<path d="M118,48v -11" fill="none" stroke="black" stroke-width="3"/>
<path d="M92,43v -6" fill="none" stroke="black" stroke-width="3"/>
<path d="M509,48v -11" fill="none" stroke="black" stroke-width="3"/>
<path d="M79,396v -359" fill="none" stroke="black" stroke-width="3"/>
<path d="M92,396h -13" fill="none" stroke="black" stroke-width="3"/>
<path d="M86,364h -7" fill="none" stroke="black" stroke-width="3"/>
<path d="M86,332h -7" fill="none" stroke="black" stroke-width="3"/>
<path d="M86,300h -7" fill="none" stroke="black" stroke-width="3"/>
<path d="M92,268h -13" fill="none" stroke="black" stroke-width="3"/>
<path d="M86,236h -7" fill="none" stroke="black" stroke-width="3"/>
<path d="M86,204h -7" fill="none" stroke="black" stroke-width="3"/>
<path d="M86,172h -7" fill="none" stroke="black" stroke-width="3"/>
<path d="M92,140h -13" fill="none" stroke="black" stroke-width="3"/>
<path d="M92,140h -13" fill="none" stroke="black" stroke-width="3"/>
<path d="M86,108h -7" fill="none" stroke="black" stroke-width="3"/>
<path d="M86,76h -7" fill="none" stroke="black" stroke-width="3"/>
<path d="M86,44h -7" fill="none" stroke="black" stroke-width="3"/>
<text x="46" y="404" fill="black" font-size="21" font-family="Times" font-weight="bold">
0.0
</text>
<text x="46" y="275" fill="black" font-size="21" font-family="Times" font-weight="bold">
0.2
</text>
<text x="46" y="148" fill="black" font-size="21" font-family="Times" font-weight="bold">
0.4
</text>
<path d="M522,396v -359" fill="none" stroke="black" stroke-width="3"/>
<path d="M508,396h 14" fill="none" stroke="black" stroke-width="3"/>
<path d="M515,364h 7" fill="none" stroke="black" stroke-width="3"/>
<path d="M515,332h 7" fill="none" stroke="black" stroke-width="3"/>
<path d="M515,300h 7" fill="none" stroke="black" stroke-width="3"/>
<path d="M508,268h 14" fill="none" stroke="black" stroke-width="3"/>
<path d="M515,236h 7" fill="none" stroke="black" stroke-width="3"/>
<path d="M515,204h 7" fill="none" stroke="black" stroke-width="3"/>
<path d="M515,172h 7" fill="none" stroke="black" stroke-width="3"/>
<path d="M508,140h 14" fill="none" stroke="black" stroke-width="3"/>
<path d="M508,140h 14" fill="none" stroke="black" stroke-width="3"/>
<path d="M515,108h 7" fill="none" stroke="black" stroke-width="3"/>
<path d="M515,76h 7" fill="none" stroke="black" stroke-width="3"/>
<path d="M515,44h 7" fill="none" stroke="black" stroke-width="3"/>
<rect x="113" y="-4" width="303" height="38" fill="white"/>
<text x="136" y="24" fill="black" font-size="30" font-family="Helvetica" font-weight="bold">
IGHD6-13_star_01
</text>
<path d="M92,393v -50" fill="none" stroke="#ff0000" stroke-width="6"/>
<g stroke="#ff0000" stroke-width="6" fill="#ff0000">
<circle cx="92" cy="396" r="3.5"/>
</g>
<path d="M118,393v -50" fill="none" stroke="#ff0000" stroke-width="6"/>
<g stroke="#ff0000" stroke-width="6" fill="#ff0000">
<circle cx="118" cy="396" r="3.5"/>
</g>
<path d="M144,393v -50" fill="none" stroke="#ff0000" stroke-width="6"/>
<g stroke="#ff0000" stroke-width="6" fill="#ff0000">
<circle cx="144" cy="396" r="3.5"/>
</g>
<path d="M170,255v -112" fill="none" stroke="#ff0000" stroke-width="6"/>
<path d="M170,137v -100" fill="none" stroke="#ff0000" stroke-width="6"/>
<path d="M157,140h 10" fill="none" stroke="#ff0000" stroke-width="6"/>
<path d="M174,140h 9" fill="none" stroke="#ff0000" stroke-width="6"/>
<g stroke="#ff0000" stroke-width="6" fill="#ff0000">
<circle cx="170" cy="140" r="3.5"/>
</g>
<path d="M196,393v -50" fill="none" stroke="#ff0000" stroke-width="6"/>
<g stroke="#ff0000" stroke-width="6" fill="#ff0000">
<circle cx="196" cy="396" r="3.5"/>
</g>
<path d="M222,293v -64" fill="none" stroke="#ff0000" stroke-width="6"/>
<path d="M222,222v -65" fill="none" stroke="#ff0000" stroke-width="6"/>
<path d="M209,225h 10" fill="none" stroke="#ff0000" stroke-width="6"/>
<path d="M226,225h 9" fill="none" stroke="#ff0000" stroke-width="6"/>
<g stroke="#ff0000" stroke-width="6" fill="#ff0000">
<circle cx="222" cy="225" r="3.5"/>
</g>
<path d="M248,293v -64" fill="none" stroke="#ff0000" stroke-width="6"/>
<path d="M248,222v -65" fill="none" stroke="#ff0000" stroke-width="6"/>
<path d="M235,225h 10" fill="none" stroke="#ff0000" stroke-width="6"/>
<path d="M252,225h 9" fill="none" stroke="#ff0000" stroke-width="6"/>
<g stroke="#ff0000" stroke-width="6" fill="#ff0000">
<circle cx="248" cy="225" r="3.5"/>
</g>
<path d="M274,396v -39" fill="none" stroke="#ff0000" stroke-width="6"/>
<path d="M274,350v -42" fill="none" stroke="#ff0000" stroke-width="6"/>
<path d="M261,353h 10" fill="none" stroke="#ff0000" stroke-width="6"/>
<path d="M278,353h 9" fill="none" stroke="#ff0000" stroke-width="6"/>
<g stroke="#ff0000" stroke-width="6" fill="#ff0000">
<circle cx="274" cy="353" r="3.5"/>
</g>
<path d="M300,396v -39" fill="none" stroke="#ff0000" stroke-width="6"/>
<path d="M300,350v -42" fill="none" stroke="#ff0000" stroke-width="6"/>
<path d="M287,353h 10" fill="none" stroke="#ff0000" stroke-width="6"/>
<path d="M304,353h 9" fill="none" stroke="#ff0000" stroke-width="6"/>
<g stroke="#ff0000" stroke-width="6" fill="#ff0000">
<circle cx="300" cy="353" r="3.5"/>
</g>
<path d="M326,172v -72" fill="none" stroke="#ff0000" stroke-width="6"/>
<path d="M326,94v -57" fill="none" stroke="#ff0000" stroke-width="6"/>
<path d="M313,97h 10" fill="none" stroke="#ff0000" stroke-width="6"/>
<path d="M330,97h 9" fill="none" stroke="#ff0000" stroke-width="6"/>
<g stroke="#ff0000" stroke-width="6" fill="#ff0000">
<circle cx="326" cy="97" r="3.5"/>
</g>
<path d="M352,393v -18" fill="none" stroke="#ff0000" stroke-width="6"/>
<g stroke="#ff0000" stroke-width="6" fill="#ff0000">
<circle cx="352" cy="396" r="3.5"/>
</g>
<path d="M379,396v -39" fill="none" stroke="#ff0000" stroke-width="6"/>
<path d="M379,350v -42" fill="none" stroke="#ff0000" stroke-width="6"/>
<path d="M366,353h 9" fill="none" stroke="#ff0000" stroke-width="6"/>
<path d="M382,353h 10" fill="none" stroke="#ff0000" stroke-width="6"/>
<g stroke="#ff0000" stroke-width="6" fill="#ff0000">
<circle cx="379" cy="353" r="3.5"/>
</g>
<path d="M405,396v -39" fill="none" stroke="#ff0000" stroke-width="6"/>
<path d="M405,350v -42" fill="none" stroke="#ff0000" stroke-width="6"/>
<path d="M392,353h 9" fill="none" stroke="#ff0000" stroke-width="6"/>
<path d="M408,353h 10" fill="none" stroke="#ff0000" stroke-width="6"/>
<g stroke="#ff0000" stroke-width="6" fill="#ff0000">
<circle cx="405" cy="353" r="3.5"/>
</g>
<path d="M431,331v -60" fill="none" stroke="#ff0000" stroke-width="6"/>
<path d="M431,265v -60" fill="none" stroke="#ff0000" stroke-width="6"/>
<path d="M418,268h 9" fill="none" stroke="#ff0000" stroke-width="6"/>
<path d="M434,268h 10" fill="none" stroke="#ff0000" stroke-width="6"/>
<g stroke="#ff0000" stroke-width="6" fill="#ff0000">
<circle cx="431" cy="268" r="3.5"/>
</g>
<path d="M457,393v -27" fill="none" stroke="#ff0000" stroke-width="6"/>
<g stroke="#ff0000" stroke-width="6" fill="#ff0000">
<circle cx="457" cy="396" r="3.5"/>
</g>
<path d="M483,396v -61" fill="none" stroke="#ff0000" stroke-width="6"/>
<path d="M483,329v -60" fill="none" stroke="#ff0000" stroke-width="6"/>
<path d="M470,332h 9" fill="none" stroke="#ff0000" stroke-width="6"/>
<path d="M486,332h 10" fill="none" stroke="#ff0000" stroke-width="6"/>
<g stroke="#ff0000" stroke-width="6" fill="#ff0000">
<circle cx="483" cy="332" r="3.5"/>
</g>
<path d="M509,393v -27" fill="none" stroke="#ff0000" stroke-width="6"/>
<g stroke="#ff0000" stroke-width="6" fill="#ff0000">
<circle cx="509" cy="396" r="3.5"/>
</g>
<path d="M332,107h 42" fill="none" stroke="#ff0000" stroke-width="6"/>
<rect x="113" y="-4" width="303" height="38" fill="white"/>
<text x="136" y="24" fill="black" font-size="30" font-family="Helvetica" font-weight="bold">
IGHD6-13_star_01
</text></svg>
