<?xml version="1.0" standalone="no"?>
<svg width="567" height="466" viewBox="0 0 567 466" xmlns="http://www.w3.org/2000/svg">
<title>
/bbx/output/_plots/example/sw/true/j_5p_del/plots/IGHJ6_star_02-j_5p_del.svg
</title>
<desc>
Creator: ROOT Version 5.34/14
CreationDate: Thu Jul 30 18:24:56 2015</desc>
<defs>
</defs>
<rect x="0" y="0" width="567" height="466" fill="white"/>
<rect x="79" y="37" width="443" height="359" fill="none" stroke="black"/>
<rect x="79" y="37" width="443" height="359" fill="none" stroke="black"/>
<path d="M79,396h 443" fill="none" stroke="black" stroke-width="3"/>
<path d="M184,385v 11" fill="none" stroke="black" stroke-width="3"/>
<path d="M207,391v 5" fill="none" stroke="black" stroke-width="3"/>
<path d="M231,391v 5" fill="none" stroke="black" stroke-width="3"/>
<path d="M254,391v 5" fill="none" stroke="black" stroke-width="3"/>
<path d="M277,391v 5" fill="none" stroke="black" stroke-width="3"/>
<path d="M300,385v 11" fill="none" stroke="black" stroke-width="3"/>
<path d="M324,391v 5" fill="none" stroke="black" stroke-width="3"/>
<path d="M347,391v 5" fill="none" stroke="black" stroke-width="3"/>
<path d="M370,391v 5" fill="none" stroke="black" stroke-width="3"/>
<path d="M394,391v 5" fill="none" stroke="black" stroke-width="3"/>
<path d="M417,385v 11" fill="none" stroke="black" stroke-width="3"/>
<path d="M184,385v 11" fill="none" stroke="black" stroke-width="3"/>
<path d="M161,391v 5" fill="none" stroke="black" stroke-width="3"/>
<path d="M138,391v 5" fill="none" stroke="black" stroke-width="3"/>
<path d="M114,391v 5" fill="none" stroke="black" stroke-width="3"/>
<path d="M91,391v 5" fill="none" stroke="black" stroke-width="3"/>
<path d="M417,385v 11" fill="none" stroke="black" stroke-width="3"/>
<path d="M440,391v 5" fill="none" stroke="black" stroke-width="3"/>
<path d="M463,391v 5" fill="none" stroke="black" stroke-width="3"/>
<path d="M487,391v 5" fill="none" stroke="black" stroke-width="3"/>
<path d="M510,391v 5" fill="none" stroke="black" stroke-width="3"/>
<text x="178" y="416" fill="black" font-size="21" font-family="Times" font-weight="bold">
5
</text>
<text x="288" y="416" fill="black" font-size="21" font-family="Times" font-weight="bold">
10
</text>
<text x="405" y="416" fill="black" font-size="21" font-family="Times" font-weight="bold">
15
</text>
<path d="M79,37h 443" fill="none" stroke="black" stroke-width="3"/>
<path d="M184,48v -11" fill="none" stroke="black" stroke-width="3"/>
<path d="M207,43v -6" fill="none" stroke="black" stroke-width="3"/>
<path d="M231,43v -6" fill="none" stroke="black" stroke-width="3"/>
<path d="M254,43v -6" fill="none" stroke="black" stroke-width="3"/>
<path d="M277,43v -6" fill="none" stroke="black" stroke-width="3"/>
<path d="M300,48v -11" fill="none" stroke="black" stroke-width="3"/>
<path d="M324,43v -6" fill="none" stroke="black" stroke-width="3"/>
<path d="M347,43v -6" fill="none" stroke="black" stroke-width="3"/>
<path d="M370,43v -6" fill="none" stroke="black" stroke-width="3"/>
<path d="M394,43v -6" fill="none" stroke="black" stroke-width="3"/>
<path d="M417,48v -11" fill="none" stroke="black" stroke-width="3"/>
<path d="M184,48v -11" fill="none" stroke="black" stroke-width="3"/>
<path d="M161,43v -6" fill="none" stroke="black" stroke-width="3"/>
<path d="M138,43v -6" fill="none" stroke="black" stroke-width="3"/>
<path d="M114,43v -6" fill="none" stroke="black" stroke-width="3"/>
<path d="M91,43v -6" fill="none" stroke="black" stroke-width="3"/>
<path d="M417,48v -11" fill="none" stroke="black" stroke-width="3"/>
<path d="M440,43v -6" fill="none" stroke="black" stroke-width="3"/>
<path d="M463,43v -6" fill="none" stroke="black" stroke-width="3"/>
<path d="M487,43v -6" fill="none" stroke="black" stroke-width="3"/>
<path d="M510,43v -6" fill="none" stroke="black" stroke-width="3"/>
<path d="M79,396v -359" fill="none" stroke="black" stroke-width="3"/>
<path d="M92,396h -13" fill="none" stroke="black" stroke-width="3"/>
<path d="M86,366h -7" fill="none" stroke="black" stroke-width="3"/>
<path d="M86,336h -7" fill="none" stroke="black" stroke-width="3"/>
<path d="M86,306h -7" fill="none" stroke="black" stroke-width="3"/>
<path d="M92,277h -13" fill="none" stroke="black" stroke-width="3"/>
<path d="M86,247h -7" fill="none" stroke="black" stroke-width="3"/>
<path d="M86,217h -7" fill="none" stroke="black" stroke-width="3"/>
<path d="M86,187h -7" fill="none" stroke="black" stroke-width="3"/>
<path d="M92,157h -13" fill="none" stroke="black" stroke-width="3"/>
<path d="M86,127h -7" fill="none" stroke="black" stroke-width="3"/>
<path d="M86,97h -7" fill="none" stroke="black" stroke-width="3"/>
<path d="M86,67h -7" fill="none" stroke="black" stroke-width="3"/>
<path d="M92,37h -13" fill="none" stroke="black" stroke-width="3"/>
<text x="63" y="404" fill="black" font-size="21" font-family="Times" font-weight="bold">
0
</text>
<text x="63" y="284" fill="black" font-size="21" font-family="Times" font-weight="bold">
2
</text>
<text x="63" y="165" fill="black" font-size="21" font-family="Times" font-weight="bold">
4
</text>
<text x="63" y="45" fill="black" font-size="21" font-family="Times" font-weight="bold">
6
</text>
<path d="M522,396v -359" fill="none" stroke="black" stroke-width="3"/>
<path d="M508,396h 14" fill="none" stroke="black" stroke-width="3"/>
<path d="M515,366h 7" fill="none" stroke="black" stroke-width="3"/>
<path d="M515,336h 7" fill="none" stroke="black" stroke-width="3"/>
<path d="M515,306h 7" fill="none" stroke="black" stroke-width="3"/>
<path d="M508,277h 14" fill="none" stroke="black" stroke-width="3"/>
<path d="M515,247h 7" fill="none" stroke="black" stroke-width="3"/>
<path d="M515,217h 7" fill="none" stroke="black" stroke-width="3"/>
<path d="M515,187h 7" fill="none" stroke="black" stroke-width="3"/>
<path d="M508,157h 14" fill="none" stroke="black" stroke-width="3"/>
<path d="M515,127h 7" fill="none" stroke="black" stroke-width="3"/>
<path d="M515,97h 7" fill="none" stroke="black" stroke-width="3"/>
<path d="M515,67h 7" fill="none" stroke="black" stroke-width="3"/>
<path d="M508,37h 14" fill="none" stroke="black" stroke-width="3"/>
<rect x="113" y="-4" width="392" height="40" fill="white"/>
<text x="128" y="25" fill="black" font-size="31" font-family="Helvetica" font-weight="bold">
IGHJ6_star_02-j_5p_del
</text>
<path d="M91,320v -100" fill="none" stroke="#ff0000" stroke-width="6"/>
<path d="M91,213v -100" fill="none" stroke="#ff0000" stroke-width="6"/>
<g stroke="#ff0000" stroke-width="6" fill="#ff0000">
<circle cx="91" cy="217" r="3.5"/>
</g>
<path d="M231,320v -100" fill="none" stroke="#ff0000" stroke-width="6"/>
<path d="M231,213v -100" fill="none" stroke="#ff0000" stroke-width="6"/>
<g stroke="#ff0000" stroke-width="6" fill="#ff0000">
<circle cx="231" cy="217" r="3.5"/>
</g>
<path d="M510,231v -131" fill="none" stroke="#ff0000" stroke-width="6"/>
<path d="M510,94v -57" fill="none" stroke="#ff0000" stroke-width="6"/>
<g stroke="#ff0000" stroke-width="6" fill="#ff0000">
<circle cx="510" cy="97" r="3.5"/>
</g>
<path d="M80,395v -178h 23v 178h 116v -178h 23v 178h 256v -298h 24" fill="none" stroke="#ff0000" stroke-width="6"/>
<path d="M332,107h 42" fill="none" stroke="#ff0000" stroke-width="6"/>
<rect x="113" y="-4" width="392" height="40" fill="white"/>
<text x="128" y="25" fill="black" font-size="31" font-family="Helvetica" font-weight="bold">
IGHJ6_star_02-j_5p_del
</text></svg>
