<?xml version="1.0" standalone="no"?>
<svg width="567" height="466" viewBox="0 0 567 466" xmlns="http://www.w3.org/2000/svg">
<title>
/bbx/output/_plots/example/hmm/plots/d_3p_del.svg
</title>
<desc>
Creator: ROOT Version 5.34/14
CreationDate: Thu Jul 30 18:25:15 2015</desc>
<defs>
</defs>
<rect x="0" y="0" width="567" height="466" fill="white"/>
<rect x="79" y="37" width="443" height="359" fill="none" stroke="black"/>
<rect x="79" y="37" width="443" height="359" fill="none" stroke="black"/>
<path d="M79,396h 443" fill="none" stroke="black" stroke-width="3"/>
<path d="M88,385v 11" fill="none" stroke="black" stroke-width="3"/>
<path d="M120,391v 5" fill="none" stroke="black" stroke-width="3"/>
<path d="M153,391v 5" fill="none" stroke="black" stroke-width="3"/>
<path d="M186,391v 5" fill="none" stroke="black" stroke-width="3"/>
<path d="M219,391v 5" fill="none" stroke="black" stroke-width="3"/>
<path d="M251,385v 11" fill="none" stroke="black" stroke-width="3"/>
<path d="M284,391v 5" fill="none" stroke="black" stroke-width="3"/>
<path d="M317,391v 5" fill="none" stroke="black" stroke-width="3"/>
<path d="M350,391v 5" fill="none" stroke="black" stroke-width="3"/>
<path d="M382,391v 5" fill="none" stroke="black" stroke-width="3"/>
<path d="M415,385v 11" fill="none" stroke="black" stroke-width="3"/>
<path d="M88,385v 11" fill="none" stroke="black" stroke-width="3"/>
<path d="M415,385v 11" fill="none" stroke="black" stroke-width="3"/>
<path d="M448,391v 5" fill="none" stroke="black" stroke-width="3"/>
<path d="M481,391v 5" fill="none" stroke="black" stroke-width="3"/>
<path d="M513,391v 5" fill="none" stroke="black" stroke-width="3"/>
<text x="81" y="416" fill="black" font-size="21" font-family="Times" font-weight="bold">
0
</text>
<text x="239" y="416" fill="black" font-size="21" font-family="Times" font-weight="bold">
10
</text>
<text x="403" y="416" fill="black" font-size="21" font-family="Times" font-weight="bold">
20
</text>
<path d="M79,37h 443" fill="none" stroke="black" stroke-width="3"/>
<path d="M88,48v -11" fill="none" stroke="black" stroke-width="3"/>
<path d="M120,43v -6" fill="none" stroke="black" stroke-width="3"/>
<path d="M153,43v -6" fill="none" stroke="black" stroke-width="3"/>
<path d="M186,43v -6" fill="none" stroke="black" stroke-width="3"/>
<path d="M219,43v -6" fill="none" stroke="black" stroke-width="3"/>
<path d="M251,48v -11" fill="none" stroke="black" stroke-width="3"/>
<path d="M284,43v -6" fill="none" stroke="black" stroke-width="3"/>
<path d="M317,43v -6" fill="none" stroke="black" stroke-width="3"/>
<path d="M350,43v -6" fill="none" stroke="black" stroke-width="3"/>
<path d="M382,43v -6" fill="none" stroke="black" stroke-width="3"/>
<path d="M415,48v -11" fill="none" stroke="black" stroke-width="3"/>
<path d="M88,48v -11" fill="none" stroke="black" stroke-width="3"/>
<path d="M415,48v -11" fill="none" stroke="black" stroke-width="3"/>
<path d="M448,43v -6" fill="none" stroke="black" stroke-width="3"/>
<path d="M481,43v -6" fill="none" stroke="black" stroke-width="3"/>
<path d="M513,43v -6" fill="none" stroke="black" stroke-width="3"/>
<path d="M79,396v -359" fill="none" stroke="black" stroke-width="3"/>
<path d="M92,396h -13" fill="none" stroke="black" stroke-width="3"/>
<path d="M86,361h -7" fill="none" stroke="black" stroke-width="3"/>
<path d="M86,327h -7" fill="none" stroke="black" stroke-width="3"/>
<path d="M86,292h -7" fill="none" stroke="black" stroke-width="3"/>
<path d="M92,257h -13" fill="none" stroke="black" stroke-width="3"/>
<path d="M86,222h -7" fill="none" stroke="black" stroke-width="3"/>
<path d="M86,188h -7" fill="none" stroke="black" stroke-width="3"/>
<path d="M86,153h -7" fill="none" stroke="black" stroke-width="3"/>
<path d="M92,118h -13" fill="none" stroke="black" stroke-width="3"/>
<path d="M92,118h -13" fill="none" stroke="black" stroke-width="3"/>
<path d="M86,83h -7" fill="none" stroke="black" stroke-width="3"/>
<path d="M86,48h -7" fill="none" stroke="black" stroke-width="3"/>
<text x="63" y="404" fill="black" font-size="21" font-family="Times" font-weight="bold">
0
</text>
<text x="51" y="265" fill="black" font-size="21" font-family="Times" font-weight="bold">
20
</text>
<text x="51" y="126" fill="black" font-size="21" font-family="Times" font-weight="bold">
40
</text>
<path d="M522,396v -359" fill="none" stroke="black" stroke-width="3"/>
<path d="M508,396h 14" fill="none" stroke="black" stroke-width="3"/>
<path d="M515,361h 7" fill="none" stroke="black" stroke-width="3"/>
<path d="M515,327h 7" fill="none" stroke="black" stroke-width="3"/>
<path d="M515,292h 7" fill="none" stroke="black" stroke-width="3"/>
<path d="M508,257h 14" fill="none" stroke="black" stroke-width="3"/>
<path d="M515,222h 7" fill="none" stroke="black" stroke-width="3"/>
<path d="M515,188h 7" fill="none" stroke="black" stroke-width="3"/>
<path d="M515,153h 7" fill="none" stroke="black" stroke-width="3"/>
<path d="M508,118h 14" fill="none" stroke="black" stroke-width="3"/>
<path d="M508,118h 14" fill="none" stroke="black" stroke-width="3"/>
<path d="M515,83h 7" fill="none" stroke="black" stroke-width="3"/>
<path d="M515,48h 7" fill="none" stroke="black" stroke-width="3"/>
<rect x="113" y="-4" width="149" height="40" fill="white"/>
<text x="118" y="25" fill="black" font-size="31" font-family="Helvetica" font-weight="bold">
d_3p_del
</text>
<path d="M88,143v -43" fill="none" stroke="#ff0000" stroke-width="6"/>
<path d="M88,94v -42" fill="none" stroke="#ff0000" stroke-width="6"/>
<g stroke="#ff0000" stroke-width="6" fill="#ff0000">
<circle cx="88" cy="97" r="3.5"/>
</g>
<path d="M104,360v -16" fill="none" stroke="#ff0000" stroke-width="6"/>
<path d="M104,337v -16" fill="none" stroke="#ff0000" stroke-width="6"/>
<g stroke="#ff0000" stroke-width="6" fill="#ff0000">
<circle cx="104" cy="340" r="3.5"/>
</g>
<path d="M120,371v -13" fill="none" stroke="#ff0000" stroke-width="6"/>
<path d="M120,351v -14" fill="none" stroke="#ff0000" stroke-width="6"/>
<g stroke="#ff0000" stroke-width="6" fill="#ff0000">
<circle cx="120" cy="354" r="3.5"/>
</g>
<path d="M137,331v -22" fill="none" stroke="#ff0000" stroke-width="6"/>
<path d="M137,302v -21" fill="none" stroke="#ff0000" stroke-width="6"/>
<g stroke="#ff0000" stroke-width="6" fill="#ff0000">
<circle cx="137" cy="306" r="3.5"/>
</g>
<path d="M153,382v -10" fill="none" stroke="#ff0000" stroke-width="6"/>
<path d="M153,365v -11" fill="none" stroke="#ff0000" stroke-width="6"/>
<g stroke="#ff0000" stroke-width="6" fill="#ff0000">
<circle cx="153" cy="368" r="3.5"/>
</g>
<path d="M169,343v -20" fill="none" stroke="#ff0000" stroke-width="6"/>
<path d="M169,316v -19" fill="none" stroke="#ff0000" stroke-width="6"/>
<g stroke="#ff0000" stroke-width="6" fill="#ff0000">
<circle cx="169" cy="320" r="3.5"/>
</g>
<path d="M186,366v -15" fill="none" stroke="#ff0000" stroke-width="6"/>
<path d="M186,344v -15" fill="none" stroke="#ff0000" stroke-width="6"/>
<g stroke="#ff0000" stroke-width="6" fill="#ff0000">
<circle cx="186" cy="347" r="3.5"/>
</g>
<path d="M202,371v -13" fill="none" stroke="#ff0000" stroke-width="6"/>
<path d="M202,351v -14" fill="none" stroke="#ff0000" stroke-width="6"/>
<g stroke="#ff0000" stroke-width="6" fill="#ff0000">
<circle cx="202" cy="354" r="3.5"/>
</g>
<path d="M235,313v -25" fill="none" stroke="#ff0000" stroke-width="6"/>
<path d="M235,282v -25" fill="none" stroke="#ff0000" stroke-width="6"/>
<g stroke="#ff0000" stroke-width="6" fill="#ff0000">
<circle cx="235" cy="285" r="3.5"/>
</g>
<path d="M268,371v -13" fill="none" stroke="#ff0000" stroke-width="6"/>
<path d="M268,351v -14" fill="none" stroke="#ff0000" stroke-width="6"/>
<g stroke="#ff0000" stroke-width="6" fill="#ff0000">
<circle cx="268" cy="354" r="3.5"/>
</g>
<path d="M284,371v -13" fill="none" stroke="#ff0000" stroke-width="6"/>
<path d="M284,351v -14" fill="none" stroke="#ff0000" stroke-width="6"/>
<g stroke="#ff0000" stroke-width="6" fill="#ff0000">
<circle cx="284" cy="354" r="3.5"/>
</g>
<path d="M300,396v -4" fill="none" stroke="#ff0000" stroke-width="6"/>
<path d="M300,386v -4" fill="none" stroke="#ff0000" stroke-width="6"/>
<g stroke="#ff0000" stroke-width="6" fill="#ff0000">
<circle cx="300" cy="389" r="3.5"/>
</g>
<path d="M333,382v -10" fill="none" stroke="#ff0000" stroke-width="6"/>
<path d="M333,365v -11" fill="none" stroke="#ff0000" stroke-width="6"/>
<g stroke="#ff0000" stroke-width="6" fill="#ff0000">
<circle cx="333" cy="368" r="3.5"/>
</g>
<path d="M513,392v -7" fill="none" stroke="#ff0000" stroke-width="6"/>
<path d="M513,379v -7" fill="none" stroke="#ff0000" stroke-width="6"/>
<g stroke="#ff0000" stroke-width="6" fill="#ff0000">
<circle cx="513" cy="382" r="3.5"/>
</g>
<path d="M80,395v -298h 16v 243h 16v 14h 17v -48h 16v 62h 16v -48h 17v 27h 16v 7h 16v 41h 17v -110h 16v 110h 17v -41h 32v 35h 17v 6h 16v -27h 16v 27h 164v -13h 17" fill="none" stroke="#ff0000" stroke-width="6"/>
<path d="M332,107h 42" fill="none" stroke="#ff0000" stroke-width="6"/>
<rect x="113" y="-4" width="149" height="40" fill="white"/>
<text x="118" y="25" fill="black" font-size="31" font-family="Helvetica" font-weight="bold">
d_3p_del
</text></svg>
