<?xml version="1.0" standalone="no"?>
<svg width="567" height="466" viewBox="0 0 567 466" xmlns="http://www.w3.org/2000/svg">
<title>
/bbx/output/_plots/example/hmm/plots/d_gene.svg
</title>
<desc>
Creator: ROOT Version 5.34/14
CreationDate: Thu Jul 30 18:25:15 2015</desc>
<defs>
</defs>
<rect x="0" y="0" width="567" height="466" fill="white"/>
<rect x="79" y="37" width="443" height="359" fill="none" stroke="black"/>
<rect x="79" y="37" width="443" height="359" fill="none" stroke="black"/>
<path d="M79,396h 443" fill="none" stroke="black" stroke-width="3"/>
<g transform="rotate(20,87,406)">
<text x="87" y="406" fill="black" font-size="14" font-family="Times" font-weight="bold">
IGHD1-1*01
</text>
</g>
<g transform="rotate(20,108,406)">
<text x="108" y="406" fill="black" font-size="14" font-family="Times" font-weight="bold">
IGHD1-26*01
</text>
</g>
<g transform="rotate(20,130,406)">
<text x="130" y="406" fill="black" font-size="14" font-family="Times" font-weight="bold">
IGHD1-7*01
</text>
</g>
<g transform="rotate(20,150,406)">
<text x="150" y="406" fill="black" font-size="14" font-family="Times" font-weight="bold">
IGHD2-15*01
</text>
</g>
<g transform="rotate(20,171,406)">
<text x="171" y="406" fill="black" font-size="14" font-family="Times" font-weight="bold">
IGHD2-2*02
</text>
</g>
<g transform="rotate(20,192,406)">
<text x="192" y="406" fill="black" font-size="14" font-family="Times" font-weight="bold">
IGHD2-2*03
</text>
</g>
<g transform="rotate(20,213,406)">
<text x="213" y="406" fill="black" font-size="14" font-family="Times" font-weight="bold">
IGHD3-10*01
</text>
</g>
<g transform="rotate(20,235,406)">
<text x="235" y="406" fill="black" font-size="14" font-family="Times" font-weight="bold">
IGHD3-16*02
</text>
</g>
<g transform="rotate(20,256,406)">
<text x="256" y="406" fill="black" font-size="14" font-family="Times" font-weight="bold">
IGHD3-22*01
</text>
</g>
<g transform="rotate(20,277,406)">
<text x="277" y="406" fill="black" font-size="14" font-family="Times" font-weight="bold">
IGHD3-3*01
</text>
</g>
<g transform="rotate(20,297,406)">
<text x="297" y="406" fill="black" font-size="14" font-family="Times" font-weight="bold">
IGHD3-3*02
</text>
</g>
<g transform="rotate(20,318,406)">
<text x="318" y="406" fill="black" font-size="14" font-family="Times" font-weight="bold">
IGHD3-9*01
</text>
</g>
<g transform="rotate(20,340,406)">
<text x="340" y="406" fill="black" font-size="14" font-family="Times" font-weight="bold">
IGHD3/OR15-3b*01
</text>
</g>
<g transform="rotate(20,361,406)">
<text x="361" y="406" fill="black" font-size="14" font-family="Times" font-weight="bold">
IGHD4-17*01
</text>
</g>
<g transform="rotate(20,382,406)">
<text x="382" y="406" fill="black" font-size="14" font-family="Times" font-weight="bold">
IGHD4-23*01
</text>
</g>
<g transform="rotate(20,403,406)">
<text x="403" y="406" fill="black" font-size="14" font-family="Times" font-weight="bold">
IGHD5-12*01
</text>
</g>
<g transform="rotate(20,424,406)">
<text x="424" y="406" fill="black" font-size="14" font-family="Times" font-weight="bold">
IGHD5-5*01
</text>
</g>
<g transform="rotate(20,445,406)">
<text x="445" y="406" fill="black" font-size="14" font-family="Times" font-weight="bold">
IGHD6-13*01
</text>
</g>
<g transform="rotate(20,466,406)">
<text x="466" y="406" fill="black" font-size="14" font-family="Times" font-weight="bold">
IGHD6-19*01
</text>
</g>
<g transform="rotate(20,487,406)">
<text x="487" y="406" fill="black" font-size="14" font-family="Times" font-weight="bold">
IGHD6-25*01
</text>
</g>
<g transform="rotate(20,508,406)">
<text x="508" y="406" fill="black" font-size="14" font-family="Times" font-weight="bold">
IGHD7-27*01
</text>
</g>
<path d="M90,385v 11" fill="none" stroke="black" stroke-width="3"/>
<path d="M111,385v 11" fill="none" stroke="black" stroke-width="3"/>
<path d="M132,385v 11" fill="none" stroke="black" stroke-width="3"/>
<path d="M153,385v 11" fill="none" stroke="black" stroke-width="3"/>
<path d="M174,385v 11" fill="none" stroke="black" stroke-width="3"/>
<path d="M195,385v 11" fill="none" stroke="black" stroke-width="3"/>
<path d="M216,385v 11" fill="none" stroke="black" stroke-width="3"/>
<path d="M237,385v 11" fill="none" stroke="black" stroke-width="3"/>
<path d="M258,385v 11" fill="none" stroke="black" stroke-width="3"/>
<path d="M279,385v 11" fill="none" stroke="black" stroke-width="3"/>
<path d="M300,385v 11" fill="none" stroke="black" stroke-width="3"/>
<path d="M322,385v 11" fill="none" stroke="black" stroke-width="3"/>
<path d="M343,385v 11" fill="none" stroke="black" stroke-width="3"/>
<path d="M364,385v 11" fill="none" stroke="black" stroke-width="3"/>
<path d="M385,385v 11" fill="none" stroke="black" stroke-width="3"/>
<path d="M406,385v 11" fill="none" stroke="black" stroke-width="3"/>
<path d="M427,385v 11" fill="none" stroke="black" stroke-width="3"/>
<path d="M448,385v 11" fill="none" stroke="black" stroke-width="3"/>
<path d="M469,385v 11" fill="none" stroke="black" stroke-width="3"/>
<path d="M490,385v 11" fill="none" stroke="black" stroke-width="3"/>
<path d="M511,385v 11" fill="none" stroke="black" stroke-width="3"/>
<path d="M90,385v 11" fill="none" stroke="black" stroke-width="3"/>
<path d="M511,385v 11" fill="none" stroke="black" stroke-width="3"/>
<path d="M79,37h 443" fill="none" stroke="black" stroke-width="3"/>
<path d="M90,48v -11" fill="none" stroke="black" stroke-width="3"/>
<path d="M111,48v -11" fill="none" stroke="black" stroke-width="3"/>
<path d="M132,48v -11" fill="none" stroke="black" stroke-width="3"/>
<path d="M153,48v -11" fill="none" stroke="black" stroke-width="3"/>
<path d="M174,48v -11" fill="none" stroke="black" stroke-width="3"/>
<path d="M195,48v -11" fill="none" stroke="black" stroke-width="3"/>
<path d="M216,48v -11" fill="none" stroke="black" stroke-width="3"/>
<path d="M237,48v -11" fill="none" stroke="black" stroke-width="3"/>
<path d="M258,48v -11" fill="none" stroke="black" stroke-width="3"/>
<path d="M279,48v -11" fill="none" stroke="black" stroke-width="3"/>
<path d="M300,48v -11" fill="none" stroke="black" stroke-width="3"/>
<path d="M322,48v -11" fill="none" stroke="black" stroke-width="3"/>
<path d="M343,48v -11" fill="none" stroke="black" stroke-width="3"/>
<path d="M364,48v -11" fill="none" stroke="black" stroke-width="3"/>
<path d="M385,48v -11" fill="none" stroke="black" stroke-width="3"/>
<path d="M406,48v -11" fill="none" stroke="black" stroke-width="3"/>
<path d="M427,48v -11" fill="none" stroke="black" stroke-width="3"/>
<path d="M448,48v -11" fill="none" stroke="black" stroke-width="3"/>
<path d="M469,48v -11" fill="none" stroke="black" stroke-width="3"/>
<path d="M490,48v -11" fill="none" stroke="black" stroke-width="3"/>
<path d="M511,48v -11" fill="none" stroke="black" stroke-width="3"/>
<path d="M90,48v -11" fill="none" stroke="black" stroke-width="3"/>
<path d="M511,48v -11" fill="none" stroke="black" stroke-width="3"/>
<path d="M79,396v -359" fill="none" stroke="black" stroke-width="3"/>
<path d="M92,396h -13" fill="none" stroke="black" stroke-width="3"/>
<path d="M86,377h -7" fill="none" stroke="black" stroke-width="3"/>
<path d="M86,359h -7" fill="none" stroke="black" stroke-width="3"/>
<path d="M86,340h -7" fill="none" stroke="black" stroke-width="3"/>
<path d="M86,321h -7" fill="none" stroke="black" stroke-width="3"/>
<path d="M92,303h -13" fill="none" stroke="black" stroke-width="3"/>
<path d="M86,284h -7" fill="none" stroke="black" stroke-width="3"/>
<path d="M86,265h -7" fill="none" stroke="black" stroke-width="3"/>
<path d="M86,247h -7" fill="none" stroke="black" stroke-width="3"/>
<path d="M86,228h -7" fill="none" stroke="black" stroke-width="3"/>
<path d="M92,209h -13" fill="none" stroke="black" stroke-width="3"/>
<path d="M86,191h -7" fill="none" stroke="black" stroke-width="3"/>
<path d="M86,172h -7" fill="none" stroke="black" stroke-width="3"/>
<path d="M86,153h -7" fill="none" stroke="black" stroke-width="3"/>
<path d="M86,135h -7" fill="none" stroke="black" stroke-width="3"/>
<path d="M92,116h -13" fill="none" stroke="black" stroke-width="3"/>
<path d="M92,116h -13" fill="none" stroke="black" stroke-width="3"/>
<path d="M86,97h -7" fill="none" stroke="black" stroke-width="3"/>
<path d="M86,78h -7" fill="none" stroke="black" stroke-width="3"/>
<path d="M86,60h -7" fill="none" stroke="black" stroke-width="3"/>
<path d="M86,41h -7" fill="none" stroke="black" stroke-width="3"/>
<text x="63" y="404" fill="black" font-size="21" font-family="Times" font-weight="bold">
0
</text>
<text x="63" y="310" fill="black" font-size="21" font-family="Times" font-weight="bold">
5
</text>
<text x="51" y="217" fill="black" font-size="21" font-family="Times" font-weight="bold">
10
</text>
<text x="51" y="124" fill="black" font-size="21" font-family="Times" font-weight="bold">
15
</text>
<path d="M522,396v -359" fill="none" stroke="black" stroke-width="3"/>
<path d="M508,396h 14" fill="none" stroke="black" stroke-width="3"/>
<path d="M515,377h 7" fill="none" stroke="black" stroke-width="3"/>
<path d="M515,359h 7" fill="none" stroke="black" stroke-width="3"/>
<path d="M515,340h 7" fill="none" stroke="black" stroke-width="3"/>
<path d="M515,321h 7" fill="none" stroke="black" stroke-width="3"/>
<path d="M508,303h 14" fill="none" stroke="black" stroke-width="3"/>
<path d="M515,284h 7" fill="none" stroke="black" stroke-width="3"/>
<path d="M515,265h 7" fill="none" stroke="black" stroke-width="3"/>
<path d="M515,247h 7" fill="none" stroke="black" stroke-width="3"/>
<path d="M515,228h 7" fill="none" stroke="black" stroke-width="3"/>
<path d="M508,209h 14" fill="none" stroke="black" stroke-width="3"/>
<path d="M515,191h 7" fill="none" stroke="black" stroke-width="3"/>
<path d="M515,172h 7" fill="none" stroke="black" stroke-width="3"/>
<path d="M515,153h 7" fill="none" stroke="black" stroke-width="3"/>
<path d="M515,135h 7" fill="none" stroke="black" stroke-width="3"/>
<path d="M508,116h 14" fill="none" stroke="black" stroke-width="3"/>
<path d="M508,116h 14" fill="none" stroke="black" stroke-width="3"/>
<path d="M515,97h 7" fill="none" stroke="black" stroke-width="3"/>
<path d="M515,78h 7" fill="none" stroke="black" stroke-width="3"/>
<path d="M515,60h 7" fill="none" stroke="black" stroke-width="3"/>
<path d="M515,41h 7" fill="none" stroke="black" stroke-width="3"/>
<rect x="113" y="-4" width="118" height="39" fill="white"/>
<text x="118" y="23" fill="black" font-size="30" font-family="Helvetica" font-weight="bold">
d_gene
</text>
<path d="M90,396v -15" fill="none" stroke="#ff0000" stroke-width="6"/>
<path d="M90,374v -15" fill="none" stroke="#ff0000" stroke-width="6"/>
<g stroke="#ff0000" stroke-width="6" fill="#ff0000">
<circle cx="90" cy="377" r="3.5"/>
</g>
<path d="M111,344v -38" fill="none" stroke="#ff0000" stroke-width="6"/>
<path d="M111,299v -38" fill="none" stroke="#ff0000" stroke-width="6"/>
<g stroke="#ff0000" stroke-width="6" fill="#ff0000">
<circle cx="111" cy="303" r="3.5"/>
</g>
<path d="M132,344v -38" fill="none" stroke="#ff0000" stroke-width="6"/>
<path d="M132,299v -38" fill="none" stroke="#ff0000" stroke-width="6"/>
<g stroke="#ff0000" stroke-width="6" fill="#ff0000">
<circle cx="132" cy="303" r="3.5"/>
</g>
<path d="M153,359v -34" fill="none" stroke="#ff0000" stroke-width="6"/>
<path d="M153,318v -34" fill="none" stroke="#ff0000" stroke-width="6"/>
<g stroke="#ff0000" stroke-width="6" fill="#ff0000">
<circle cx="153" cy="321" r="3.5"/>
</g>
<path d="M174,284v -53" fill="none" stroke="#ff0000" stroke-width="6"/>
<path d="M174,225v -53" fill="none" stroke="#ff0000" stroke-width="6"/>
<g stroke="#ff0000" stroke-width="6" fill="#ff0000">
<circle cx="174" cy="228" r="3.5"/>
</g>
<path d="M195,315v -46" fill="none" stroke="#ff0000" stroke-width="6"/>
<path d="M195,262v -46" fill="none" stroke="#ff0000" stroke-width="6"/>
<g stroke="#ff0000" stroke-width="6" fill="#ff0000">
<circle cx="195" cy="265" r="3.5"/>
</g>
<path d="M216,359v -34" fill="none" stroke="#ff0000" stroke-width="6"/>
<path d="M216,318v -34" fill="none" stroke="#ff0000" stroke-width="6"/>
<g stroke="#ff0000" stroke-width="6" fill="#ff0000">
<circle cx="216" cy="321" r="3.5"/>
</g>
<path d="M237,268v -55" fill="none" stroke="#ff0000" stroke-width="6"/>
<path d="M237,206v -56" fill="none" stroke="#ff0000" stroke-width="6"/>
<g stroke="#ff0000" stroke-width="6" fill="#ff0000">
<circle cx="237" cy="209" r="3.5"/>
</g>
<path d="M258,344v -38" fill="none" stroke="#ff0000" stroke-width="6"/>
<path d="M258,299v -38" fill="none" stroke="#ff0000" stroke-width="6"/>
<g stroke="#ff0000" stroke-width="6" fill="#ff0000">
<circle cx="258" cy="303" r="3.5"/>
</g>
<path d="M279,172v -72" fill="none" stroke="#ff0000" stroke-width="6"/>
<path d="M279,94v -57" fill="none" stroke="#ff0000" stroke-width="6"/>
<g stroke="#ff0000" stroke-width="6" fill="#ff0000">
<circle cx="279" cy="97" r="3.5"/>
</g>
<path d="M300,344v -38" fill="none" stroke="#ff0000" stroke-width="6"/>
<path d="M300,299v -38" fill="none" stroke="#ff0000" stroke-width="6"/>
<g stroke="#ff0000" stroke-width="6" fill="#ff0000">
<circle cx="300" cy="303" r="3.5"/>
</g>
<path d="M322,372v -29" fill="none" stroke="#ff0000" stroke-width="6"/>
<path d="M322,337v -29" fill="none" stroke="#ff0000" stroke-width="6"/>
<g stroke="#ff0000" stroke-width="6" fill="#ff0000">
<circle cx="322" cy="340" r="3.5"/>
</g>
<path d="M343,396v -15" fill="none" stroke="#ff0000" stroke-width="6"/>
<path d="M343,374v -15" fill="none" stroke="#ff0000" stroke-width="6"/>
<g stroke="#ff0000" stroke-width="6" fill="#ff0000">
<circle cx="343" cy="377" r="3.5"/>
</g>
<path d="M364,237v -62" fill="none" stroke="#ff0000" stroke-width="6"/>
<path d="M364,169v -62" fill="none" stroke="#ff0000" stroke-width="6"/>
<g stroke="#ff0000" stroke-width="6" fill="#ff0000">
<circle cx="364" cy="172" r="3.5"/>
</g>
<path d="M385,385v -23" fill="none" stroke="#ff0000" stroke-width="6"/>
<path d="M385,355v -23" fill="none" stroke="#ff0000" stroke-width="6"/>
<g stroke="#ff0000" stroke-width="6" fill="#ff0000">
<circle cx="385" cy="359" r="3.5"/>
</g>
<path d="M406,344v -38" fill="none" stroke="#ff0000" stroke-width="6"/>
<path d="M406,299v -38" fill="none" stroke="#ff0000" stroke-width="6"/>
<g stroke="#ff0000" stroke-width="6" fill="#ff0000">
<circle cx="406" cy="303" r="3.5"/>
</g>
<path d="M427,344v -38" fill="none" stroke="#ff0000" stroke-width="6"/>
<path d="M427,299v -38" fill="none" stroke="#ff0000" stroke-width="6"/>
<g stroke="#ff0000" stroke-width="6" fill="#ff0000">
<circle cx="427" cy="303" r="3.5"/>
</g>
<path d="M448,253v -59" fill="none" stroke="#ff0000" stroke-width="6"/>
<path d="M448,187v -58" fill="none" stroke="#ff0000" stroke-width="6"/>
<g stroke="#ff0000" stroke-width="6" fill="#ff0000">
<circle cx="448" cy="191" r="3.5"/>
</g>
<path d="M469,204v -66" fill="none" stroke="#ff0000" stroke-width="6"/>
<path d="M469,131v -66" fill="none" stroke="#ff0000" stroke-width="6"/>
<g stroke="#ff0000" stroke-width="6" fill="#ff0000">
<circle cx="469" cy="135" r="3.5"/>
</g>
<path d="M490,344v -38" fill="none" stroke="#ff0000" stroke-width="6"/>
<path d="M490,299v -38" fill="none" stroke="#ff0000" stroke-width="6"/>
<g stroke="#ff0000" stroke-width="6" fill="#ff0000">
<circle cx="490" cy="303" r="3.5"/>
</g>
<path d="M511,359v -34" fill="none" stroke="#ff0000" stroke-width="6"/>
<path d="M511,318v -34" fill="none" stroke="#ff0000" stroke-width="6"/>
<g stroke="#ff0000" stroke-width="6" fill="#ff0000">
<circle cx="511" cy="321" r="3.5"/>
</g>
<path d="M80,395v -18h 20v -74h 43v 18h 21v -93h 21v 37h 21v 56h 21v -112h 21v 94h 21v -206h 21v 206h 21v 37h 21v 37h 21v -205h 21v 187h 21v -56h 42v -112h 21v -56h 21v 168h 22v 18h 21" fill="none" stroke="#ff0000" stroke-width="6"/>
<path d="M332,107h 42" fill="none" stroke="#ff0000" stroke-width="6"/>
<rect x="113" y="-4" width="118" height="39" fill="white"/>
<text x="118" y="23" fill="black" font-size="30" font-family="Helvetica" font-weight="bold">
d_gene
</text></svg>
