<?xml version="1.0" standalone="no"?>
<svg width="567" height="466" viewBox="0 0 567 466" xmlns="http://www.w3.org/2000/svg">
<title>
/bbx/output/_plots/example/hmm/plots/dj_insertion_content.svg
</title>
<desc>
Creator: ROOT Version 5.34/14
CreationDate: Thu Jul 30 18:25:15 2015</desc>
<defs>
</defs>
<rect x="0" y="0" width="567" height="466" fill="white"/>
<rect x="79" y="37" width="443" height="359" fill="none" stroke="black"/>
<rect x="79" y="37" width="443" height="359" fill="none" stroke="black"/>
<path d="M79,396h 443" fill="none" stroke="black" stroke-width="3"/>
<text x="129" y="411" fill="black" font-size="14" font-family="Times" font-weight="bold">
A
</text>
<text x="239" y="411" fill="black" font-size="14" font-family="Times" font-weight="bold">
C
</text>
<text x="349" y="411" fill="black" font-size="14" font-family="Times" font-weight="bold">
G
</text>
<text x="461" y="411" fill="black" font-size="14" font-family="Times" font-weight="bold">
T
</text>
<path d="M135,385v 11" fill="none" stroke="black" stroke-width="3"/>
<path d="M245,385v 11" fill="none" stroke="black" stroke-width="3"/>
<path d="M356,385v 11" fill="none" stroke="black" stroke-width="3"/>
<path d="M466,385v 11" fill="none" stroke="black" stroke-width="3"/>
<path d="M135,385v 11" fill="none" stroke="black" stroke-width="3"/>
<path d="M466,385v 11" fill="none" stroke="black" stroke-width="3"/>
<path d="M79,37h 443" fill="none" stroke="black" stroke-width="3"/>
<path d="M135,48v -11" fill="none" stroke="black" stroke-width="3"/>
<path d="M245,48v -11" fill="none" stroke="black" stroke-width="3"/>
<path d="M356,48v -11" fill="none" stroke="black" stroke-width="3"/>
<path d="M466,48v -11" fill="none" stroke="black" stroke-width="3"/>
<path d="M135,48v -11" fill="none" stroke="black" stroke-width="3"/>
<path d="M466,48v -11" fill="none" stroke="black" stroke-width="3"/>
<path d="M79,396v -359" fill="none" stroke="black" stroke-width="3"/>
<path d="M92,396h -13" fill="none" stroke="black" stroke-width="3"/>
<path d="M86,381h -7" fill="none" stroke="black" stroke-width="3"/>
<path d="M86,366h -7" fill="none" stroke="black" stroke-width="3"/>
<path d="M86,351h -7" fill="none" stroke="black" stroke-width="3"/>
<path d="M86,336h -7" fill="none" stroke="black" stroke-width="3"/>
<path d="M92,321h -13" fill="none" stroke="black" stroke-width="3"/>
<path d="M86,306h -7" fill="none" stroke="black" stroke-width="3"/>
<path d="M86,290h -7" fill="none" stroke="black" stroke-width="3"/>
<path d="M86,275h -7" fill="none" stroke="black" stroke-width="3"/>
<path d="M86,260h -7" fill="none" stroke="black" stroke-width="3"/>
<path d="M92,245h -13" fill="none" stroke="black" stroke-width="3"/>
<path d="M86,230h -7" fill="none" stroke="black" stroke-width="3"/>
<path d="M86,215h -7" fill="none" stroke="black" stroke-width="3"/>
<path d="M86,200h -7" fill="none" stroke="black" stroke-width="3"/>
<path d="M86,185h -7" fill="none" stroke="black" stroke-width="3"/>
<path d="M92,170h -13" fill="none" stroke="black" stroke-width="3"/>
<path d="M86,155h -7" fill="none" stroke="black" stroke-width="3"/>
<path d="M86,139h -7" fill="none" stroke="black" stroke-width="3"/>
<path d="M86,124h -7" fill="none" stroke="black" stroke-width="3"/>
<path d="M86,109h -7" fill="none" stroke="black" stroke-width="3"/>
<path d="M92,94h -13" fill="none" stroke="black" stroke-width="3"/>
<path d="M92,94h -13" fill="none" stroke="black" stroke-width="3"/>
<path d="M86,79h -7" fill="none" stroke="black" stroke-width="3"/>
<path d="M86,64h -7" fill="none" stroke="black" stroke-width="3"/>
<path d="M86,49h -7" fill="none" stroke="black" stroke-width="3"/>
<text x="63" y="404" fill="black" font-size="21" font-family="Times" font-weight="bold">
0
</text>
<text x="51" y="328" fill="black" font-size="21" font-family="Times" font-weight="bold">
50
</text>
<text x="41" y="253" fill="black" font-size="21" font-family="Times" font-weight="bold">
100
</text>
<text x="41" y="178" fill="black" font-size="21" font-family="Times" font-weight="bold">
150
</text>
<text x="41" y="102" fill="black" font-size="21" font-family="Times" font-weight="bold">
200
</text>
<path d="M522,396v -359" fill="none" stroke="black" stroke-width="3"/>
<path d="M508,396h 14" fill="none" stroke="black" stroke-width="3"/>
<path d="M515,381h 7" fill="none" stroke="black" stroke-width="3"/>
<path d="M515,366h 7" fill="none" stroke="black" stroke-width="3"/>
<path d="M515,351h 7" fill="none" stroke="black" stroke-width="3"/>
<path d="M515,336h 7" fill="none" stroke="black" stroke-width="3"/>
<path d="M508,321h 14" fill="none" stroke="black" stroke-width="3"/>
<path d="M515,306h 7" fill="none" stroke="black" stroke-width="3"/>
<path d="M515,290h 7" fill="none" stroke="black" stroke-width="3"/>
<path d="M515,275h 7" fill="none" stroke="black" stroke-width="3"/>
<path d="M515,260h 7" fill="none" stroke="black" stroke-width="3"/>
<path d="M508,245h 14" fill="none" stroke="black" stroke-width="3"/>
<path d="M515,230h 7" fill="none" stroke="black" stroke-width="3"/>
<path d="M515,215h 7" fill="none" stroke="black" stroke-width="3"/>
<path d="M515,200h 7" fill="none" stroke="black" stroke-width="3"/>
<path d="M515,185h 7" fill="none" stroke="black" stroke-width="3"/>
<path d="M508,170h 14" fill="none" stroke="black" stroke-width="3"/>
<path d="M515,155h 7" fill="none" stroke="black" stroke-width="3"/>
<path d="M515,139h 7" fill="none" stroke="black" stroke-width="3"/>
<path d="M515,124h 7" fill="none" stroke="black" stroke-width="3"/>
<path d="M515,109h 7" fill="none" stroke="black" stroke-width="3"/>
<path d="M508,94h 14" fill="none" stroke="black" stroke-width="3"/>
<path d="M508,94h 14" fill="none" stroke="black" stroke-width="3"/>
<path d="M515,79h 7" fill="none" stroke="black" stroke-width="3"/>
<path d="M515,64h 7" fill="none" stroke="black" stroke-width="3"/>
<path d="M515,49h 7" fill="none" stroke="black" stroke-width="3"/>
<rect x="113" y="-4" width="325" height="39" fill="white"/>
<text x="125" y="23" fill="black" font-size="30" font-family="Helvetica" font-weight="bold">
dj_insertion_content
</text>
<path d="M135,299v -10" fill="none" stroke="#ff0000" stroke-width="6"/>
<path d="M135,283v -10" fill="none" stroke="#ff0000" stroke-width="6"/>
<g stroke="#ff0000" stroke-width="6" fill="#ff0000">
<circle cx="135" cy="286" r="3.5"/>
</g>
<path d="M245,142v -17" fill="none" stroke="#ff0000" stroke-width="6"/>
<path d="M245,118v -17" fill="none" stroke="#ff0000" stroke-width="6"/>
<g stroke="#ff0000" stroke-width="6" fill="#ff0000">
<circle cx="245" cy="121" r="3.5"/>
</g>
<path d="M356,118v -18" fill="none" stroke="#ff0000" stroke-width="6"/>
<path d="M356,94v -18" fill="none" stroke="#ff0000" stroke-width="6"/>
<g stroke="#ff0000" stroke-width="6" fill="#ff0000">
<circle cx="356" cy="97" r="3.5"/>
</g>
<path d="M466,272v -12" fill="none" stroke="#ff0000" stroke-width="6"/>
<path d="M466,254v -11" fill="none" stroke="#ff0000" stroke-width="6"/>
<g stroke="#ff0000" stroke-width="6" fill="#ff0000">
<circle cx="466" cy="257" r="3.5"/>
</g>
<path d="M80,395v -109h 110v -165h 110v -24h 111v 160h 111" fill="none" stroke="#ff0000" stroke-width="6"/>
<path d="M332,107h 42" fill="none" stroke="#ff0000" stroke-width="6"/>
<rect x="113" y="-4" width="325" height="39" fill="white"/>
<text x="125" y="23" fill="black" font-size="30" font-family="Helvetica" font-weight="bold">
dj_insertion_content
</text></svg>
