<?xml version="1.0" standalone="no"?>
<svg width="567" height="466" viewBox="0 0 567 466" xmlns="http://www.w3.org/2000/svg">
<title>
/bbx/output/_plots/example/hmm/plots/j_5p_del.svg
</title>
<desc>
Creator: ROOT Version 5.34/14
CreationDate: Thu Jul 30 18:25:15 2015</desc>
<defs>
</defs>
<rect x="0" y="0" width="567" height="466" fill="white"/>
<rect x="79" y="37" width="443" height="359" fill="none" stroke="black"/>
<rect x="79" y="37" width="443" height="359" fill="none" stroke="black"/>
<path d="M79,396h 443" fill="none" stroke="black" stroke-width="3"/>
<path d="M88,385v 11" fill="none" stroke="black" stroke-width="3"/>
<path d="M120,391v 5" fill="none" stroke="black" stroke-width="3"/>
<path d="M153,391v 5" fill="none" stroke="black" stroke-width="3"/>
<path d="M186,391v 5" fill="none" stroke="black" stroke-width="3"/>
<path d="M219,391v 5" fill="none" stroke="black" stroke-width="3"/>
<path d="M251,385v 11" fill="none" stroke="black" stroke-width="3"/>
<path d="M284,391v 5" fill="none" stroke="black" stroke-width="3"/>
<path d="M317,391v 5" fill="none" stroke="black" stroke-width="3"/>
<path d="M350,391v 5" fill="none" stroke="black" stroke-width="3"/>
<path d="M382,391v 5" fill="none" stroke="black" stroke-width="3"/>
<path d="M415,385v 11" fill="none" stroke="black" stroke-width="3"/>
<path d="M88,385v 11" fill="none" stroke="black" stroke-width="3"/>
<path d="M415,385v 11" fill="none" stroke="black" stroke-width="3"/>
<path d="M448,391v 5" fill="none" stroke="black" stroke-width="3"/>
<path d="M481,391v 5" fill="none" stroke="black" stroke-width="3"/>
<path d="M513,391v 5" fill="none" stroke="black" stroke-width="3"/>
<text x="81" y="416" fill="black" font-size="21" font-family="Times" font-weight="bold">
0
</text>
<text x="239" y="416" fill="black" font-size="21" font-family="Times" font-weight="bold">
10
</text>
<text x="403" y="416" fill="black" font-size="21" font-family="Times" font-weight="bold">
20
</text>
<path d="M79,37h 443" fill="none" stroke="black" stroke-width="3"/>
<path d="M88,48v -11" fill="none" stroke="black" stroke-width="3"/>
<path d="M120,43v -6" fill="none" stroke="black" stroke-width="3"/>
<path d="M153,43v -6" fill="none" stroke="black" stroke-width="3"/>
<path d="M186,43v -6" fill="none" stroke="black" stroke-width="3"/>
<path d="M219,43v -6" fill="none" stroke="black" stroke-width="3"/>
<path d="M251,48v -11" fill="none" stroke="black" stroke-width="3"/>
<path d="M284,43v -6" fill="none" stroke="black" stroke-width="3"/>
<path d="M317,43v -6" fill="none" stroke="black" stroke-width="3"/>
<path d="M350,43v -6" fill="none" stroke="black" stroke-width="3"/>
<path d="M382,43v -6" fill="none" stroke="black" stroke-width="3"/>
<path d="M415,48v -11" fill="none" stroke="black" stroke-width="3"/>
<path d="M88,48v -11" fill="none" stroke="black" stroke-width="3"/>
<path d="M415,48v -11" fill="none" stroke="black" stroke-width="3"/>
<path d="M448,43v -6" fill="none" stroke="black" stroke-width="3"/>
<path d="M481,43v -6" fill="none" stroke="black" stroke-width="3"/>
<path d="M513,43v -6" fill="none" stroke="black" stroke-width="3"/>
<path d="M79,396v -359" fill="none" stroke="black" stroke-width="3"/>
<path d="M92,396h -13" fill="none" stroke="black" stroke-width="3"/>
<path d="M86,379h -7" fill="none" stroke="black" stroke-width="3"/>
<path d="M86,361h -7" fill="none" stroke="black" stroke-width="3"/>
<path d="M86,343h -7" fill="none" stroke="black" stroke-width="3"/>
<path d="M86,326h -7" fill="none" stroke="black" stroke-width="3"/>
<path d="M92,308h -13" fill="none" stroke="black" stroke-width="3"/>
<path d="M86,291h -7" fill="none" stroke="black" stroke-width="3"/>
<path d="M86,273h -7" fill="none" stroke="black" stroke-width="3"/>
<path d="M86,255h -7" fill="none" stroke="black" stroke-width="3"/>
<path d="M86,238h -7" fill="none" stroke="black" stroke-width="3"/>
<path d="M92,220h -13" fill="none" stroke="black" stroke-width="3"/>
<path d="M86,203h -7" fill="none" stroke="black" stroke-width="3"/>
<path d="M86,185h -7" fill="none" stroke="black" stroke-width="3"/>
<path d="M86,167h -7" fill="none" stroke="black" stroke-width="3"/>
<path d="M86,150h -7" fill="none" stroke="black" stroke-width="3"/>
<path d="M92,132h -13" fill="none" stroke="black" stroke-width="3"/>
<path d="M86,115h -7" fill="none" stroke="black" stroke-width="3"/>
<path d="M86,97h -7" fill="none" stroke="black" stroke-width="3"/>
<path d="M86,80h -7" fill="none" stroke="black" stroke-width="3"/>
<path d="M86,62h -7" fill="none" stroke="black" stroke-width="3"/>
<path d="M92,44h -13" fill="none" stroke="black" stroke-width="3"/>
<path d="M92,44h -13" fill="none" stroke="black" stroke-width="3"/>
<text x="63" y="404" fill="black" font-size="21" font-family="Times" font-weight="bold">
0
</text>
<text x="51" y="316" fill="black" font-size="21" font-family="Times" font-weight="bold">
10
</text>
<text x="51" y="228" fill="black" font-size="21" font-family="Times" font-weight="bold">
20
</text>
<text x="51" y="140" fill="black" font-size="21" font-family="Times" font-weight="bold">
30
</text>
<text x="51" y="52" fill="black" font-size="21" font-family="Times" font-weight="bold">
40
</text>
<path d="M522,396v -359" fill="none" stroke="black" stroke-width="3"/>
<path d="M508,396h 14" fill="none" stroke="black" stroke-width="3"/>
<path d="M515,379h 7" fill="none" stroke="black" stroke-width="3"/>
<path d="M515,361h 7" fill="none" stroke="black" stroke-width="3"/>
<path d="M515,343h 7" fill="none" stroke="black" stroke-width="3"/>
<path d="M515,326h 7" fill="none" stroke="black" stroke-width="3"/>
<path d="M508,308h 14" fill="none" stroke="black" stroke-width="3"/>
<path d="M515,291h 7" fill="none" stroke="black" stroke-width="3"/>
<path d="M515,273h 7" fill="none" stroke="black" stroke-width="3"/>
<path d="M515,255h 7" fill="none" stroke="black" stroke-width="3"/>
<path d="M515,238h 7" fill="none" stroke="black" stroke-width="3"/>
<path d="M508,220h 14" fill="none" stroke="black" stroke-width="3"/>
<path d="M515,203h 7" fill="none" stroke="black" stroke-width="3"/>
<path d="M515,185h 7" fill="none" stroke="black" stroke-width="3"/>
<path d="M515,167h 7" fill="none" stroke="black" stroke-width="3"/>
<path d="M515,150h 7" fill="none" stroke="black" stroke-width="3"/>
<path d="M508,132h 14" fill="none" stroke="black" stroke-width="3"/>
<path d="M515,115h 7" fill="none" stroke="black" stroke-width="3"/>
<path d="M515,97h 7" fill="none" stroke="black" stroke-width="3"/>
<path d="M515,80h 7" fill="none" stroke="black" stroke-width="3"/>
<path d="M515,62h 7" fill="none" stroke="black" stroke-width="3"/>
<path d="M508,44h 14" fill="none" stroke="black" stroke-width="3"/>
<path d="M508,44h 14" fill="none" stroke="black" stroke-width="3"/>
<rect x="113" y="-4" width="144" height="40" fill="white"/>
<text x="121" y="25" fill="black" font-size="31" font-family="Helvetica" font-weight="bold">
j_5p_del
</text>
<path d="M88,275v -34" fill="none" stroke="#ff0000" stroke-width="6"/>
<path d="M88,235v -34" fill="none" stroke="#ff0000" stroke-width="6"/>
<g stroke="#ff0000" stroke-width="6" fill="#ff0000">
<circle cx="88" cy="238" r="3.5"/>
</g>
<path d="M104,306v -30" fill="none" stroke="#ff0000" stroke-width="6"/>
<path d="M104,270v -30" fill="none" stroke="#ff0000" stroke-width="6"/>
<g stroke="#ff0000" stroke-width="6" fill="#ff0000">
<circle cx="104" cy="273" r="3.5"/>
</g>
<path d="M120,391v -9" fill="none" stroke="#ff0000" stroke-width="6"/>
<path d="M120,375v -9" fill="none" stroke="#ff0000" stroke-width="6"/>
<g stroke="#ff0000" stroke-width="6" fill="#ff0000">
<circle cx="120" cy="379" r="3.5"/>
</g>
<path d="M137,379v -15" fill="none" stroke="#ff0000" stroke-width="6"/>
<path d="M137,358v -15" fill="none" stroke="#ff0000" stroke-width="6"/>
<g stroke="#ff0000" stroke-width="6" fill="#ff0000">
<circle cx="137" cy="361" r="3.5"/>
</g>
<path d="M153,148v -48" fill="none" stroke="#ff0000" stroke-width="6"/>
<path d="M153,94v -48" fill="none" stroke="#ff0000" stroke-width="6"/>
<g stroke="#ff0000" stroke-width="6" fill="#ff0000">
<circle cx="153" cy="97" r="3.5"/>
</g>
<path d="M169,321v -27" fill="none" stroke="#ff0000" stroke-width="6"/>
<path d="M169,287v -27" fill="none" stroke="#ff0000" stroke-width="6"/>
<g stroke="#ff0000" stroke-width="6" fill="#ff0000">
<circle cx="169" cy="291" r="3.5"/>
</g>
<path d="M186,252v -37" fill="none" stroke="#ff0000" stroke-width="6"/>
<path d="M186,208v -37" fill="none" stroke="#ff0000" stroke-width="6"/>
<g stroke="#ff0000" stroke-width="6" fill="#ff0000">
<circle cx="186" cy="211" r="3.5"/>
</g>
<path d="M219,379v -15" fill="none" stroke="#ff0000" stroke-width="6"/>
<path d="M219,358v -15" fill="none" stroke="#ff0000" stroke-width="6"/>
<g stroke="#ff0000" stroke-width="6" fill="#ff0000">
<circle cx="219" cy="361" r="3.5"/>
</g>
<path d="M235,391v -9" fill="none" stroke="#ff0000" stroke-width="6"/>
<path d="M235,375v -9" fill="none" stroke="#ff0000" stroke-width="6"/>
<g stroke="#ff0000" stroke-width="6" fill="#ff0000">
<circle cx="235" cy="379" r="3.5"/>
</g>
<path d="M251,365v -18" fill="none" stroke="#ff0000" stroke-width="6"/>
<path d="M251,340v -18" fill="none" stroke="#ff0000" stroke-width="6"/>
<g stroke="#ff0000" stroke-width="6" fill="#ff0000">
<circle cx="251" cy="343" r="3.5"/>
</g>
<path d="M268,396v -5" fill="none" stroke="#ff0000" stroke-width="6"/>
<path d="M268,384v -5" fill="none" stroke="#ff0000" stroke-width="6"/>
<g stroke="#ff0000" stroke-width="6" fill="#ff0000">
<circle cx="268" cy="387" r="3.5"/>
</g>
<path d="M284,396v -5" fill="none" stroke="#ff0000" stroke-width="6"/>
<path d="M284,384v -5" fill="none" stroke="#ff0000" stroke-width="6"/>
<g stroke="#ff0000" stroke-width="6" fill="#ff0000">
<circle cx="284" cy="387" r="3.5"/>
</g>
<path d="M300,391v -9" fill="none" stroke="#ff0000" stroke-width="6"/>
<path d="M300,375v -9" fill="none" stroke="#ff0000" stroke-width="6"/>
<g stroke="#ff0000" stroke-width="6" fill="#ff0000">
<circle cx="300" cy="379" r="3.5"/>
</g>
<path d="M317,379v -15" fill="none" stroke="#ff0000" stroke-width="6"/>
<path d="M317,358v -15" fill="none" stroke="#ff0000" stroke-width="6"/>
<g stroke="#ff0000" stroke-width="6" fill="#ff0000">
<circle cx="317" cy="361" r="3.5"/>
</g>
<path d="M366,372v -17" fill="none" stroke="#ff0000" stroke-width="6"/>
<path d="M366,349v -17" fill="none" stroke="#ff0000" stroke-width="6"/>
<g stroke="#ff0000" stroke-width="6" fill="#ff0000">
<circle cx="366" cy="352" r="3.5"/>
</g>
<path d="M382,396v -5" fill="none" stroke="#ff0000" stroke-width="6"/>
<path d="M382,384v -5" fill="none" stroke="#ff0000" stroke-width="6"/>
<g stroke="#ff0000" stroke-width="6" fill="#ff0000">
<circle cx="382" cy="387" r="3.5"/>
</g>
<path d="M431,396v -5" fill="none" stroke="#ff0000" stroke-width="6"/>
<path d="M431,384v -5" fill="none" stroke="#ff0000" stroke-width="6"/>
<g stroke="#ff0000" stroke-width="6" fill="#ff0000">
<circle cx="431" cy="387" r="3.5"/>
</g>
<path d="M513,396v -5" fill="none" stroke="#ff0000" stroke-width="6"/>
<path d="M513,384v -5" fill="none" stroke="#ff0000" stroke-width="6"/>
<g stroke="#ff0000" stroke-width="6" fill="#ff0000">
<circle cx="513" cy="387" r="3.5"/>
</g>
<path d="M80,395v -157h 16v 35h 16v 106h 17v -18h 16v -264h 16v 194h 17v -80h 16v 184h 16v -34h 17v 18h 16v -36h 17v 44h 32v -8h 17v -18h 16v 34h 33v -43h 16v 35h 17v 8h 32v -8h 17v 8h 65v -8h 17" fill="none" stroke="#ff0000" stroke-width="6"/>
<path d="M332,107h 42" fill="none" stroke="#ff0000" stroke-width="6"/>
<rect x="113" y="-4" width="144" height="40" fill="white"/>
<text x="121" y="25" fill="black" font-size="31" font-family="Helvetica" font-weight="bold">
j_5p_del
</text></svg>
