<?xml version="1.0" standalone="no"?>
<svg width="567" height="466" viewBox="0 0 567 466" xmlns="http://www.w3.org/2000/svg">
<title>
/bbx/output/_plots/example/hmm/plots/j_gene.svg
</title>
<desc>
Creator: ROOT Version 5.34/14
CreationDate: Thu Jul 30 18:25:16 2015</desc>
<defs>
</defs>
<rect x="0" y="0" width="567" height="466" fill="white"/>
<rect x="79" y="37" width="443" height="359" fill="none" stroke="black"/>
<rect x="79" y="37" width="443" height="359" fill="none" stroke="black"/>
<path d="M79,396h 443" fill="none" stroke="black" stroke-width="3"/>
<g transform="rotate(20,108,406)">
<text x="108" y="406" fill="black" font-size="14" font-family="Times" font-weight="bold">
IGHJ2*01
</text>
</g>
<g transform="rotate(20,171,406)">
<text x="171" y="406" fill="black" font-size="14" font-family="Times" font-weight="bold">
IGHJ3*01
</text>
</g>
<g transform="rotate(20,235,406)">
<text x="235" y="406" fill="black" font-size="14" font-family="Times" font-weight="bold">
IGHJ3*02
</text>
</g>
<g transform="rotate(20,297,406)">
<text x="297" y="406" fill="black" font-size="14" font-family="Times" font-weight="bold">
IGHJ4*02
</text>
</g>
<g transform="rotate(20,361,406)">
<text x="361" y="406" fill="black" font-size="14" font-family="Times" font-weight="bold">
IGHJ5*02
</text>
</g>
<g transform="rotate(20,424,406)">
<text x="424" y="406" fill="black" font-size="14" font-family="Times" font-weight="bold">
IGHJ6*02
</text>
</g>
<g transform="rotate(20,487,406)">
<text x="487" y="406" fill="black" font-size="14" font-family="Times" font-weight="bold">
IGHJ6*03
</text>
</g>
<path d="M111,385v 11" fill="none" stroke="black" stroke-width="3"/>
<path d="M174,385v 11" fill="none" stroke="black" stroke-width="3"/>
<path d="M237,385v 11" fill="none" stroke="black" stroke-width="3"/>
<path d="M300,385v 11" fill="none" stroke="black" stroke-width="3"/>
<path d="M364,385v 11" fill="none" stroke="black" stroke-width="3"/>
<path d="M427,385v 11" fill="none" stroke="black" stroke-width="3"/>
<path d="M490,385v 11" fill="none" stroke="black" stroke-width="3"/>
<path d="M111,385v 11" fill="none" stroke="black" stroke-width="3"/>
<path d="M490,385v 11" fill="none" stroke="black" stroke-width="3"/>
<path d="M79,37h 443" fill="none" stroke="black" stroke-width="3"/>
<path d="M111,48v -11" fill="none" stroke="black" stroke-width="3"/>
<path d="M174,48v -11" fill="none" stroke="black" stroke-width="3"/>
<path d="M237,48v -11" fill="none" stroke="black" stroke-width="3"/>
<path d="M300,48v -11" fill="none" stroke="black" stroke-width="3"/>
<path d="M364,48v -11" fill="none" stroke="black" stroke-width="3"/>
<path d="M427,48v -11" fill="none" stroke="black" stroke-width="3"/>
<path d="M490,48v -11" fill="none" stroke="black" stroke-width="3"/>
<path d="M111,48v -11" fill="none" stroke="black" stroke-width="3"/>
<path d="M490,48v -11" fill="none" stroke="black" stroke-width="3"/>
<path d="M79,396v -359" fill="none" stroke="black" stroke-width="3"/>
<path d="M92,396h -13" fill="none" stroke="black" stroke-width="3"/>
<path d="M86,378h -7" fill="none" stroke="black" stroke-width="3"/>
<path d="M86,360h -7" fill="none" stroke="black" stroke-width="3"/>
<path d="M86,342h -7" fill="none" stroke="black" stroke-width="3"/>
<path d="M92,324h -13" fill="none" stroke="black" stroke-width="3"/>
<path d="M86,306h -7" fill="none" stroke="black" stroke-width="3"/>
<path d="M86,288h -7" fill="none" stroke="black" stroke-width="3"/>
<path d="M86,270h -7" fill="none" stroke="black" stroke-width="3"/>
<path d="M92,252h -13" fill="none" stroke="black" stroke-width="3"/>
<path d="M86,234h -7" fill="none" stroke="black" stroke-width="3"/>
<path d="M86,216h -7" fill="none" stroke="black" stroke-width="3"/>
<path d="M86,198h -7" fill="none" stroke="black" stroke-width="3"/>
<path d="M92,180h -13" fill="none" stroke="black" stroke-width="3"/>
<path d="M86,162h -7" fill="none" stroke="black" stroke-width="3"/>
<path d="M86,144h -7" fill="none" stroke="black" stroke-width="3"/>
<path d="M86,126h -7" fill="none" stroke="black" stroke-width="3"/>
<path d="M92,108h -13" fill="none" stroke="black" stroke-width="3"/>
<path d="M92,108h -13" fill="none" stroke="black" stroke-width="3"/>
<path d="M86,90h -7" fill="none" stroke="black" stroke-width="3"/>
<path d="M86,72h -7" fill="none" stroke="black" stroke-width="3"/>
<path d="M86,54h -7" fill="none" stroke="black" stroke-width="3"/>
<text x="63" y="404" fill="black" font-size="21" font-family="Times" font-weight="bold">
0
</text>
<text x="51" y="332" fill="black" font-size="21" font-family="Times" font-weight="bold">
20
</text>
<text x="51" y="260" fill="black" font-size="21" font-family="Times" font-weight="bold">
40
</text>
<text x="51" y="187" fill="black" font-size="21" font-family="Times" font-weight="bold">
60
</text>
<text x="51" y="116" fill="black" font-size="21" font-family="Times" font-weight="bold">
80
</text>
<path d="M522,396v -359" fill="none" stroke="black" stroke-width="3"/>
<path d="M508,396h 14" fill="none" stroke="black" stroke-width="3"/>
<path d="M515,378h 7" fill="none" stroke="black" stroke-width="3"/>
<path d="M515,360h 7" fill="none" stroke="black" stroke-width="3"/>
<path d="M515,342h 7" fill="none" stroke="black" stroke-width="3"/>
<path d="M508,324h 14" fill="none" stroke="black" stroke-width="3"/>
<path d="M515,306h 7" fill="none" stroke="black" stroke-width="3"/>
<path d="M515,288h 7" fill="none" stroke="black" stroke-width="3"/>
<path d="M515,270h 7" fill="none" stroke="black" stroke-width="3"/>
<path d="M508,252h 14" fill="none" stroke="black" stroke-width="3"/>
<path d="M515,234h 7" fill="none" stroke="black" stroke-width="3"/>
<path d="M515,216h 7" fill="none" stroke="black" stroke-width="3"/>
<path d="M515,198h 7" fill="none" stroke="black" stroke-width="3"/>
<path d="M508,180h 14" fill="none" stroke="black" stroke-width="3"/>
<path d="M515,162h 7" fill="none" stroke="black" stroke-width="3"/>
<path d="M515,144h 7" fill="none" stroke="black" stroke-width="3"/>
<path d="M515,126h 7" fill="none" stroke="black" stroke-width="3"/>
<path d="M508,108h 14" fill="none" stroke="black" stroke-width="3"/>
<path d="M508,108h 14" fill="none" stroke="black" stroke-width="3"/>
<path d="M515,90h 7" fill="none" stroke="black" stroke-width="3"/>
<path d="M515,72h 7" fill="none" stroke="black" stroke-width="3"/>
<path d="M515,54h 7" fill="none" stroke="black" stroke-width="3"/>
<rect x="113" y="-4" width="112" height="40" fill="white"/>
<text x="117" y="25" fill="black" font-size="31" font-family="Helvetica" font-weight="bold">
j_gene
</text>
<path d="M111,392v -3" fill="none" stroke="#ff0000" stroke-width="6"/>
<path d="M111,382v -3" fill="none" stroke="#ff0000" stroke-width="6"/>
<g stroke="#ff0000" stroke-width="6" fill="#ff0000">
<circle cx="111" cy="385" r="3.5"/>
</g>
<path d="M174,396" fill="none" stroke="#ff0000" stroke-width="6"/>
<path d="M174,389" fill="none" stroke="#ff0000" stroke-width="6"/>
<g stroke="#ff0000" stroke-width="6" fill="#ff0000">
<circle cx="174" cy="393" r="3.5"/>
</g>
<path d="M237,374v -7" fill="none" stroke="#ff0000" stroke-width="6"/>
<path d="M237,360v -7" fill="none" stroke="#ff0000" stroke-width="6"/>
<g stroke="#ff0000" stroke-width="6" fill="#ff0000">
<circle cx="237" cy="364" r="3.5"/>
</g>
<path d="M300,130v -30" fill="none" stroke="#ff0000" stroke-width="6"/>
<path d="M300,94v -30" fill="none" stroke="#ff0000" stroke-width="6"/>
<g stroke="#ff0000" stroke-width="6" fill="#ff0000">
<circle cx="300" cy="97" r="3.5"/>
</g>
<path d="M364,377v -6" fill="none" stroke="#ff0000" stroke-width="6"/>
<path d="M364,364v -7" fill="none" stroke="#ff0000" stroke-width="6"/>
<g stroke="#ff0000" stroke-width="6" fill="#ff0000">
<circle cx="364" cy="367" r="3.5"/>
</g>
<path d="M427,359v -10" fill="none" stroke="#ff0000" stroke-width="6"/>
<path d="M427,342v -10" fill="none" stroke="#ff0000" stroke-width="6"/>
<g stroke="#ff0000" stroke-width="6" fill="#ff0000">
<circle cx="427" cy="346" r="3.5"/>
</g>
<path d="M490,356v -11" fill="none" stroke="#ff0000" stroke-width="6"/>
<path d="M490,339v -11" fill="none" stroke="#ff0000" stroke-width="6"/>
<g stroke="#ff0000" stroke-width="6" fill="#ff0000">
<circle cx="490" cy="342" r="3.5"/>
</g>
<path d="M80,395v -10h 63v 8h 63v -29h 63v -267h 63v 270h 63v -21h 63v -4h 64" fill="none" stroke="#ff0000" stroke-width="6"/>
<path d="M332,107h 42" fill="none" stroke="#ff0000" stroke-width="6"/>
<rect x="113" y="-4" width="112" height="40" fill="white"/>
<text x="117" y="25" fill="black" font-size="31" font-family="Helvetica" font-weight="bold">
j_gene
</text></svg>
