<?xml version="1.0" standalone="no"?>
<svg width="567" height="466" viewBox="0 0 567 466" xmlns="http://www.w3.org/2000/svg">
<title>
/bbx/output/_plots/example/hmm/plots/v_5p_del.svg
</title>
<desc>
Creator: ROOT Version 5.34/14
CreationDate: Wed Aug 19 19:38:30 2015</desc>
<defs>
</defs>
<rect x="0" y="0" width="567" height="466" fill="white"/>
<rect x="79" y="37" width="443" height="359" fill="none" stroke="black"/>
<rect x="79" y="37" width="443" height="359" fill="none" stroke="black"/>
<path d="M79,396h 443" fill="none" stroke="black" stroke-width="3"/>
<path d="M136,385v 11" fill="none" stroke="black" stroke-width="3"/>
<path d="M177,391v 5" fill="none" stroke="black" stroke-width="3"/>
<path d="M219,391v 5" fill="none" stroke="black" stroke-width="3"/>
<path d="M261,391v 5" fill="none" stroke="black" stroke-width="3"/>
<path d="M303,391v 5" fill="none" stroke="black" stroke-width="3"/>
<path d="M344,385v 11" fill="none" stroke="black" stroke-width="3"/>
<path d="M136,385v 11" fill="none" stroke="black" stroke-width="3"/>
<path d="M94,391v 5" fill="none" stroke="black" stroke-width="3"/>
<path d="M344,385v 11" fill="none" stroke="black" stroke-width="3"/>
<path d="M386,391v 5" fill="none" stroke="black" stroke-width="3"/>
<path d="M428,391v 5" fill="none" stroke="black" stroke-width="3"/>
<path d="M469,391v 5" fill="none" stroke="black" stroke-width="3"/>
<path d="M511,391v 5" fill="none" stroke="black" stroke-width="3"/>
<text x="119" y="416" fill="black" font-size="21" font-family="Times" font-weight="bold">
150
</text>
<text x="327" y="416" fill="black" font-size="21" font-family="Times" font-weight="bold">
200
</text>
<path d="M79,37h 443" fill="none" stroke="black" stroke-width="3"/>
<path d="M136,48v -11" fill="none" stroke="black" stroke-width="3"/>
<path d="M177,43v -6" fill="none" stroke="black" stroke-width="3"/>
<path d="M219,43v -6" fill="none" stroke="black" stroke-width="3"/>
<path d="M261,43v -6" fill="none" stroke="black" stroke-width="3"/>
<path d="M303,43v -6" fill="none" stroke="black" stroke-width="3"/>
<path d="M344,48v -11" fill="none" stroke="black" stroke-width="3"/>
<path d="M136,48v -11" fill="none" stroke="black" stroke-width="3"/>
<path d="M94,43v -6" fill="none" stroke="black" stroke-width="3"/>
<path d="M344,48v -11" fill="none" stroke="black" stroke-width="3"/>
<path d="M386,43v -6" fill="none" stroke="black" stroke-width="3"/>
<path d="M428,43v -6" fill="none" stroke="black" stroke-width="3"/>
<path d="M469,43v -6" fill="none" stroke="black" stroke-width="3"/>
<path d="M511,43v -6" fill="none" stroke="black" stroke-width="3"/>
<path d="M79,396v -359" fill="none" stroke="black" stroke-width="3"/>
<path d="M92,396h -13" fill="none" stroke="black" stroke-width="3"/>
<path d="M86,373h -7" fill="none" stroke="black" stroke-width="3"/>
<path d="M86,350h -7" fill="none" stroke="black" stroke-width="3"/>
<path d="M86,327h -7" fill="none" stroke="black" stroke-width="3"/>
<path d="M86,304h -7" fill="none" stroke="black" stroke-width="3"/>
<path d="M92,281h -13" fill="none" stroke="black" stroke-width="3"/>
<path d="M86,258h -7" fill="none" stroke="black" stroke-width="3"/>
<path d="M86,235h -7" fill="none" stroke="black" stroke-width="3"/>
<path d="M86,212h -7" fill="none" stroke="black" stroke-width="3"/>
<path d="M86,189h -7" fill="none" stroke="black" stroke-width="3"/>
<path d="M92,166h -13" fill="none" stroke="black" stroke-width="3"/>
<path d="M86,143h -7" fill="none" stroke="black" stroke-width="3"/>
<path d="M86,120h -7" fill="none" stroke="black" stroke-width="3"/>
<path d="M86,97h -7" fill="none" stroke="black" stroke-width="3"/>
<path d="M86,74h -7" fill="none" stroke="black" stroke-width="3"/>
<path d="M92,51h -13" fill="none" stroke="black" stroke-width="3"/>
<path d="M92,51h -13" fill="none" stroke="black" stroke-width="3"/>
<text x="63" y="404" fill="black" font-size="21" font-family="Times" font-weight="bold">
0
</text>
<text x="51" y="289" fill="black" font-size="21" font-family="Times" font-weight="bold">
10
</text>
<text x="51" y="174" fill="black" font-size="21" font-family="Times" font-weight="bold">
20
</text>
<text x="51" y="59" fill="black" font-size="21" font-family="Times" font-weight="bold">
30
</text>
<path d="M522,396v -359" fill="none" stroke="black" stroke-width="3"/>
<path d="M508,396h 14" fill="none" stroke="black" stroke-width="3"/>
<path d="M515,373h 7" fill="none" stroke="black" stroke-width="3"/>
<path d="M515,350h 7" fill="none" stroke="black" stroke-width="3"/>
<path d="M515,327h 7" fill="none" stroke="black" stroke-width="3"/>
<path d="M515,304h 7" fill="none" stroke="black" stroke-width="3"/>
<path d="M508,281h 14" fill="none" stroke="black" stroke-width="3"/>
<path d="M515,258h 7" fill="none" stroke="black" stroke-width="3"/>
<path d="M515,235h 7" fill="none" stroke="black" stroke-width="3"/>
<path d="M515,212h 7" fill="none" stroke="black" stroke-width="3"/>
<path d="M515,189h 7" fill="none" stroke="black" stroke-width="3"/>
<path d="M508,166h 14" fill="none" stroke="black" stroke-width="3"/>
<path d="M515,143h 7" fill="none" stroke="black" stroke-width="3"/>
<path d="M515,120h 7" fill="none" stroke="black" stroke-width="3"/>
<path d="M515,97h 7" fill="none" stroke="black" stroke-width="3"/>
<path d="M515,74h 7" fill="none" stroke="black" stroke-width="3"/>
<path d="M508,51h 14" fill="none" stroke="black" stroke-width="3"/>
<path d="M508,51h 14" fill="none" stroke="black" stroke-width="3"/>
<rect x="113" y="-4" width="147" height="39" fill="white"/>
<text x="121" y="23" fill="black" font-size="30" font-family="Helvetica" font-weight="bold">
v_5p_del
</text>
<path d="M81,396v -8" fill="none" stroke="#ff0000" stroke-width="6"/>
<path d="M81,381v -8" fill="none" stroke="#ff0000" stroke-width="6"/>
<g stroke="#ff0000" stroke-width="6" fill="#ff0000">
<circle cx="81" cy="385" r="3.5"/>
</g>
<path d="M294,396v -8" fill="none" stroke="#ff0000" stroke-width="6"/>
<path d="M294,381v -8" fill="none" stroke="#ff0000" stroke-width="6"/>
<g stroke="#ff0000" stroke-width="6" fill="#ff0000">
<circle cx="294" cy="385" r="3.5"/>
</g>
<path d="M332,355v -25" fill="none" stroke="#ff0000" stroke-width="6"/>
<path d="M332,324v -25" fill="none" stroke="#ff0000" stroke-width="6"/>
<g stroke="#ff0000" stroke-width="6" fill="#ff0000">
<circle cx="332" cy="327" r="3.5"/>
</g>
<path d="M344,364v -22" fill="none" stroke="#ff0000" stroke-width="6"/>
<path d="M344,335v -22" fill="none" stroke="#ff0000" stroke-width="6"/>
<g stroke="#ff0000" stroke-width="6" fill="#ff0000">
<circle cx="344" cy="339" r="3.5"/>
</g>
<path d="M357,317v -33" fill="none" stroke="#ff0000" stroke-width="6"/>
<path d="M357,278v -33" fill="none" stroke="#ff0000" stroke-width="6"/>
<g stroke="#ff0000" stroke-width="6" fill="#ff0000">
<circle cx="357" cy="281" r="3.5"/>
</g>
<path d="M369,308v -35" fill="none" stroke="#ff0000" stroke-width="6"/>
<path d="M369,266v -35" fill="none" stroke="#ff0000" stroke-width="6"/>
<g stroke="#ff0000" stroke-width="6" fill="#ff0000">
<circle cx="369" cy="270" r="3.5"/>
</g>
<path d="M382,156v -56" fill="none" stroke="#ff0000" stroke-width="6"/>
<path d="M382,94v -55" fill="none" stroke="#ff0000" stroke-width="6"/>
<g stroke="#ff0000" stroke-width="6" fill="#ff0000">
<circle cx="382" cy="97" r="3.5"/>
</g>
<path d="M394,317v -33" fill="none" stroke="#ff0000" stroke-width="6"/>
<path d="M394,278v -33" fill="none" stroke="#ff0000" stroke-width="6"/>
<g stroke="#ff0000" stroke-width="6" fill="#ff0000">
<circle cx="394" cy="281" r="3.5"/>
</g>
<path d="M403,364v -22" fill="none" stroke="#ff0000" stroke-width="6"/>
<path d="M403,335v -22" fill="none" stroke="#ff0000" stroke-width="6"/>
<g stroke="#ff0000" stroke-width="6" fill="#ff0000">
<circle cx="403" cy="339" r="3.5"/>
</g>
<path d="M407,248v -44" fill="none" stroke="#ff0000" stroke-width="6"/>
<path d="M407,197v -44" fill="none" stroke="#ff0000" stroke-width="6"/>
<g stroke="#ff0000" stroke-width="6" fill="#ff0000">
<circle cx="407" cy="201" r="3.5"/>
</g>
<path d="M419,327v -31" fill="none" stroke="#ff0000" stroke-width="6"/>
<path d="M419,289v -31" fill="none" stroke="#ff0000" stroke-width="6"/>
<g stroke="#ff0000" stroke-width="6" fill="#ff0000">
<circle cx="419" cy="293" r="3.5"/>
</g>
<path d="M432,258v -43" fill="none" stroke="#ff0000" stroke-width="6"/>
<path d="M432,209v -43" fill="none" stroke="#ff0000" stroke-width="6"/>
<g stroke="#ff0000" stroke-width="6" fill="#ff0000">
<circle cx="432" cy="212" r="3.5"/>
</g>
<path d="M457,355v -25" fill="none" stroke="#ff0000" stroke-width="6"/>
<path d="M457,324v -25" fill="none" stroke="#ff0000" stroke-width="6"/>
<g stroke="#ff0000" stroke-width="6" fill="#ff0000">
<circle cx="457" cy="327" r="3.5"/>
</g>
<path d="M469,364v -22" fill="none" stroke="#ff0000" stroke-width="6"/>
<path d="M469,335v -22" fill="none" stroke="#ff0000" stroke-width="6"/>
<g stroke="#ff0000" stroke-width="6" fill="#ff0000">
<circle cx="469" cy="339" r="3.5"/>
</g>
<path d="M482,389v -13" fill="none" stroke="#ff0000" stroke-width="6"/>
<path d="M482,370v -13" fill="none" stroke="#ff0000" stroke-width="6"/>
<g stroke="#ff0000" stroke-width="6" fill="#ff0000">
<circle cx="482" cy="373" r="3.5"/>
</g>
<path d="M519,382v -17" fill="none" stroke="#ff0000" stroke-width="6"/>
<path d="M519,358v -16" fill="none" stroke="#ff0000" stroke-width="6"/>
<g stroke="#ff0000" stroke-width="6" fill="#ff0000">
<circle cx="519" cy="362" r="3.5"/>
</g>
<path d="M80,395v -10h 4v 10h 208v -10h 4v 10h 34v -68h 4v 68h 8v -56h 4v 56h 9v -114h 4v 114h 8v -125h 4v 125h 9v -298h 4v 298h 8v -114h 4v 114h 5v -56h 4v -138h 4v 194h 8v -102h 4v 102h 9v -183h 4v 183h 21v -68h 4v 68h 8v -56h 5v 56h 8v -22h 4v 22h
 33v -33h 5" fill="none" stroke="#ff0000" stroke-width="6"/>
<path d="M332,107h 42" fill="none" stroke="#ff0000" stroke-width="6"/>
<rect x="113" y="-4" width="147" height="39" fill="white"/>
<text x="121" y="23" fill="black" font-size="30" font-family="Helvetica" font-weight="bold">
v_5p_del
</text></svg>
