<?xml version="1.0" standalone="no"?>
<svg width="567" height="466" viewBox="0 0 567 466" xmlns="http://www.w3.org/2000/svg">
<title>
/bbx/output/_plots/example/hmm/plots/v_gene.svg
</title>
<desc>
Creator: ROOT Version 5.34/14
CreationDate: Thu Jul 30 18:25:15 2015</desc>
<defs>
</defs>
<rect x="0" y="0" width="567" height="466" fill="white"/>
<rect x="79" y="37" width="443" height="359" fill="none" stroke="black"/>
<rect x="79" y="37" width="443" height="359" fill="none" stroke="black"/>
<path d="M79,396h 443" fill="none" stroke="black" stroke-width="3"/>
<g transform="rotate(20,86,406)">
<text x="86" y="406" fill="black" font-size="14" font-family="Times" font-weight="bold">
IGHV1-18*04
</text>
</g>
<g transform="rotate(20,104,406)">
<text x="104" y="406" fill="black" font-size="14" font-family="Times" font-weight="bold">
IGHV1-2*04
</text>
</g>
<g transform="rotate(20,122,406)">
<text x="122" y="406" fill="black" font-size="14" font-family="Times" font-weight="bold">
IGHV1-46*02
</text>
</g>
<g transform="rotate(20,141,406)">
<text x="141" y="406" fill="black" font-size="14" font-family="Times" font-weight="bold">
IGHV1-69D*01
</text>
</g>
<g transform="rotate(20,160,406)">
<text x="160" y="406" fill="black" font-size="14" font-family="Times" font-weight="bold">
IGHV1/OR15-3*02
</text>
</g>
<g transform="rotate(20,178,406)">
<text x="178" y="406" fill="black" font-size="14" font-family="Times" font-weight="bold">
IGHV3-23D*01
</text>
</g>
<g transform="rotate(20,196,406)">
<text x="196" y="406" fill="black" font-size="14" font-family="Times" font-weight="bold">
IGHV3-30*15
</text>
</g>
<g transform="rotate(20,215,406)">
<text x="215" y="406" fill="black" font-size="14" font-family="Times" font-weight="bold">
IGHV3-53*02
</text>
</g>
<g transform="rotate(20,233,406)">
<text x="233" y="406" fill="black" font-size="14" font-family="Times" font-weight="bold">
IGHV3-64*04
</text>
</g>
<g transform="rotate(20,252,406)">
<text x="252" y="406" fill="black" font-size="14" font-family="Times" font-weight="bold">
IGHV3-64*05
</text>
</g>
<g transform="rotate(20,270,406)">
<text x="270" y="406" fill="black" font-size="14" font-family="Times" font-weight="bold">
IGHV3-66*03
</text>
</g>
<g transform="rotate(20,288,406)">
<text x="288" y="406" fill="black" font-size="14" font-family="Times" font-weight="bold">
IGHV3-7*01
</text>
</g>
<g transform="rotate(20,307,406)">
<text x="307" y="406" fill="black" font-size="14" font-family="Times" font-weight="bold">
IGHV3-7*02
</text>
</g>
<g transform="rotate(20,325,406)">
<text x="325" y="406" fill="black" font-size="14" font-family="Times" font-weight="bold">
IGHV3-7*03
</text>
</g>
<g transform="rotate(20,344,406)">
<text x="344" y="406" fill="black" font-size="14" font-family="Times" font-weight="bold">
IGHV3-74*03
</text>
</g>
<g transform="rotate(20,362,406)">
<text x="362" y="406" fill="black" font-size="14" font-family="Times" font-weight="bold">
IGHV3-9*03
</text>
</g>
<g transform="rotate(20,380,406)">
<text x="380" y="406" fill="black" font-size="14" font-family="Times" font-weight="bold">
IGHV3-NL1*01
</text>
</g>
<g transform="rotate(20,399,406)">
<text x="399" y="406" fill="black" font-size="14" font-family="Times" font-weight="bold">
IGHV4-39*07
</text>
</g>
<g transform="rotate(20,417,406)">
<text x="417" y="406" fill="black" font-size="14" font-family="Times" font-weight="bold">
IGHV4-59*08
</text>
</g>
<g transform="rotate(20,436,406)">
<text x="436" y="406" fill="black" font-size="14" font-family="Times" font-weight="bold">
IGHV4-59*09
</text>
</g>
<g transform="rotate(20,455,406)">
<text x="455" y="406" fill="black" font-size="14" font-family="Times" font-weight="bold">
IGHV4-61*02
</text>
</g>
<g transform="rotate(20,472,406)">
<text x="472" y="406" fill="black" font-size="14" font-family="Times" font-weight="bold">
IGHV4-61*03
</text>
</g>
<g transform="rotate(20,491,406)">
<text x="491" y="406" fill="black" font-size="14" font-family="Times" font-weight="bold">
IGHV4-61*08
</text>
</g>
<g transform="rotate(20,510,406)">
<text x="510" y="406" fill="black" font-size="14" font-family="Times" font-weight="bold">
IGHV4/OR15-8*03
</text>
</g>
<path d="M89,385v 11" fill="none" stroke="black" stroke-width="3"/>
<path d="M107,385v 11" fill="none" stroke="black" stroke-width="3"/>
<path d="M125,385v 11" fill="none" stroke="black" stroke-width="3"/>
<path d="M144,385v 11" fill="none" stroke="black" stroke-width="3"/>
<path d="M162,385v 11" fill="none" stroke="black" stroke-width="3"/>
<path d="M181,385v 11" fill="none" stroke="black" stroke-width="3"/>
<path d="M199,385v 11" fill="none" stroke="black" stroke-width="3"/>
<path d="M218,385v 11" fill="none" stroke="black" stroke-width="3"/>
<path d="M236,385v 11" fill="none" stroke="black" stroke-width="3"/>
<path d="M254,385v 11" fill="none" stroke="black" stroke-width="3"/>
<path d="M273,385v 11" fill="none" stroke="black" stroke-width="3"/>
<path d="M291,385v 11" fill="none" stroke="black" stroke-width="3"/>
<path d="M310,385v 11" fill="none" stroke="black" stroke-width="3"/>
<path d="M328,385v 11" fill="none" stroke="black" stroke-width="3"/>
<path d="M347,385v 11" fill="none" stroke="black" stroke-width="3"/>
<path d="M365,385v 11" fill="none" stroke="black" stroke-width="3"/>
<path d="M383,385v 11" fill="none" stroke="black" stroke-width="3"/>
<path d="M402,385v 11" fill="none" stroke="black" stroke-width="3"/>
<path d="M420,385v 11" fill="none" stroke="black" stroke-width="3"/>
<path d="M439,385v 11" fill="none" stroke="black" stroke-width="3"/>
<path d="M457,385v 11" fill="none" stroke="black" stroke-width="3"/>
<path d="M476,385v 11" fill="none" stroke="black" stroke-width="3"/>
<path d="M494,385v 11" fill="none" stroke="black" stroke-width="3"/>
<path d="M512,385v 11" fill="none" stroke="black" stroke-width="3"/>
<path d="M89,385v 11" fill="none" stroke="black" stroke-width="3"/>
<path d="M512,385v 11" fill="none" stroke="black" stroke-width="3"/>
<path d="M79,37h 443" fill="none" stroke="black" stroke-width="3"/>
<path d="M89,48v -11" fill="none" stroke="black" stroke-width="3"/>
<path d="M107,48v -11" fill="none" stroke="black" stroke-width="3"/>
<path d="M125,48v -11" fill="none" stroke="black" stroke-width="3"/>
<path d="M144,48v -11" fill="none" stroke="black" stroke-width="3"/>
<path d="M162,48v -11" fill="none" stroke="black" stroke-width="3"/>
<path d="M181,48v -11" fill="none" stroke="black" stroke-width="3"/>
<path d="M199,48v -11" fill="none" stroke="black" stroke-width="3"/>
<path d="M218,48v -11" fill="none" stroke="black" stroke-width="3"/>
<path d="M236,48v -11" fill="none" stroke="black" stroke-width="3"/>
<path d="M254,48v -11" fill="none" stroke="black" stroke-width="3"/>
<path d="M273,48v -11" fill="none" stroke="black" stroke-width="3"/>
<path d="M291,48v -11" fill="none" stroke="black" stroke-width="3"/>
<path d="M310,48v -11" fill="none" stroke="black" stroke-width="3"/>
<path d="M328,48v -11" fill="none" stroke="black" stroke-width="3"/>
<path d="M347,48v -11" fill="none" stroke="black" stroke-width="3"/>
<path d="M365,48v -11" fill="none" stroke="black" stroke-width="3"/>
<path d="M383,48v -11" fill="none" stroke="black" stroke-width="3"/>
<path d="M402,48v -11" fill="none" stroke="black" stroke-width="3"/>
<path d="M420,48v -11" fill="none" stroke="black" stroke-width="3"/>
<path d="M439,48v -11" fill="none" stroke="black" stroke-width="3"/>
<path d="M457,48v -11" fill="none" stroke="black" stroke-width="3"/>
<path d="M476,48v -11" fill="none" stroke="black" stroke-width="3"/>
<path d="M494,48v -11" fill="none" stroke="black" stroke-width="3"/>
<path d="M512,48v -11" fill="none" stroke="black" stroke-width="3"/>
<path d="M89,48v -11" fill="none" stroke="black" stroke-width="3"/>
<path d="M512,48v -11" fill="none" stroke="black" stroke-width="3"/>
<path d="M79,396v -359" fill="none" stroke="black" stroke-width="3"/>
<path d="M92,396h -13" fill="none" stroke="black" stroke-width="3"/>
<path d="M86,370h -7" fill="none" stroke="black" stroke-width="3"/>
<path d="M86,344h -7" fill="none" stroke="black" stroke-width="3"/>
<path d="M86,318h -7" fill="none" stroke="black" stroke-width="3"/>
<path d="M86,292h -7" fill="none" stroke="black" stroke-width="3"/>
<path d="M92,266h -13" fill="none" stroke="black" stroke-width="3"/>
<path d="M86,240h -7" fill="none" stroke="black" stroke-width="3"/>
<path d="M86,214h -7" fill="none" stroke="black" stroke-width="3"/>
<path d="M86,188h -7" fill="none" stroke="black" stroke-width="3"/>
<path d="M86,162h -7" fill="none" stroke="black" stroke-width="3"/>
<path d="M92,136h -13" fill="none" stroke="black" stroke-width="3"/>
<path d="M92,136h -13" fill="none" stroke="black" stroke-width="3"/>
<path d="M86,110h -7" fill="none" stroke="black" stroke-width="3"/>
<path d="M86,84h -7" fill="none" stroke="black" stroke-width="3"/>
<path d="M86,58h -7" fill="none" stroke="black" stroke-width="3"/>
<text x="63" y="404" fill="black" font-size="21" font-family="Times" font-weight="bold">
0
</text>
<text x="51" y="274" fill="black" font-size="21" font-family="Times" font-weight="bold">
10
</text>
<text x="51" y="144" fill="black" font-size="21" font-family="Times" font-weight="bold">
20
</text>
<path d="M522,396v -359" fill="none" stroke="black" stroke-width="3"/>
<path d="M508,396h 14" fill="none" stroke="black" stroke-width="3"/>
<path d="M515,370h 7" fill="none" stroke="black" stroke-width="3"/>
<path d="M515,344h 7" fill="none" stroke="black" stroke-width="3"/>
<path d="M515,318h 7" fill="none" stroke="black" stroke-width="3"/>
<path d="M515,292h 7" fill="none" stroke="black" stroke-width="3"/>
<path d="M508,266h 14" fill="none" stroke="black" stroke-width="3"/>
<path d="M515,240h 7" fill="none" stroke="black" stroke-width="3"/>
<path d="M515,214h 7" fill="none" stroke="black" stroke-width="3"/>
<path d="M515,188h 7" fill="none" stroke="black" stroke-width="3"/>
<path d="M515,162h 7" fill="none" stroke="black" stroke-width="3"/>
<path d="M508,136h 14" fill="none" stroke="black" stroke-width="3"/>
<path d="M508,136h 14" fill="none" stroke="black" stroke-width="3"/>
<path d="M515,110h 7" fill="none" stroke="black" stroke-width="3"/>
<path d="M515,84h 7" fill="none" stroke="black" stroke-width="3"/>
<path d="M515,58h 7" fill="none" stroke="black" stroke-width="3"/>
<rect x="113" y="-4" width="115" height="38" fill="white"/>
<text x="118" y="20" fill="black" font-size="30" font-family="Helvetica" font-weight="bold">
v_gene
</text>
<path d="M89,360v -26" fill="none" stroke="#ff0000" stroke-width="6"/>
<path d="M89,328v -26" fill="none" stroke="#ff0000" stroke-width="6"/>
<g stroke="#ff0000" stroke-width="6" fill="#ff0000">
<circle cx="89" cy="331" r="3.5"/>
</g>
<path d="M107,360v -26" fill="none" stroke="#ff0000" stroke-width="6"/>
<path d="M107,328v -26" fill="none" stroke="#ff0000" stroke-width="6"/>
<g stroke="#ff0000" stroke-width="6" fill="#ff0000">
<circle cx="107" cy="331" r="3.5"/>
</g>
<path d="M125,396v -10" fill="none" stroke="#ff0000" stroke-width="6"/>
<path d="M125,380v -10" fill="none" stroke="#ff0000" stroke-width="6"/>
<g stroke="#ff0000" stroke-width="6" fill="#ff0000">
<circle cx="125" cy="383" r="3.5"/>
</g>
<path d="M144,360v -26" fill="none" stroke="#ff0000" stroke-width="6"/>
<path d="M144,328v -26" fill="none" stroke="#ff0000" stroke-width="6"/>
<g stroke="#ff0000" stroke-width="6" fill="#ff0000">
<circle cx="144" cy="331" r="3.5"/>
</g>
<path d="M162,388v -15" fill="none" stroke="#ff0000" stroke-width="6"/>
<path d="M162,367v -15" fill="none" stroke="#ff0000" stroke-width="6"/>
<g stroke="#ff0000" stroke-width="6" fill="#ff0000">
<circle cx="162" cy="370" r="3.5"/>
</g>
<path d="M181,251v -47" fill="none" stroke="#ff0000" stroke-width="6"/>
<path d="M181,198v -47" fill="none" stroke="#ff0000" stroke-width="6"/>
<g stroke="#ff0000" stroke-width="6" fill="#ff0000">
<circle cx="181" cy="201" r="3.5"/>
</g>
<path d="M199,370v -23" fill="none" stroke="#ff0000" stroke-width="6"/>
<path d="M199,341v -23" fill="none" stroke="#ff0000" stroke-width="6"/>
<g stroke="#ff0000" stroke-width="6" fill="#ff0000">
<circle cx="199" cy="344" r="3.5"/>
</g>
<path d="M218,329v -34" fill="none" stroke="#ff0000" stroke-width="6"/>
<path d="M218,289v -34" fill="none" stroke="#ff0000" stroke-width="6"/>
<g stroke="#ff0000" stroke-width="6" fill="#ff0000">
<circle cx="218" cy="292" r="3.5"/>
</g>
<path d="M236,318v -36" fill="none" stroke="#ff0000" stroke-width="6"/>
<path d="M236,276v -36" fill="none" stroke="#ff0000" stroke-width="6"/>
<g stroke="#ff0000" stroke-width="6" fill="#ff0000">
<circle cx="236" cy="279" r="3.5"/>
</g>
<path d="M254,360v -26" fill="none" stroke="#ff0000" stroke-width="6"/>
<path d="M254,328v -26" fill="none" stroke="#ff0000" stroke-width="6"/>
<g stroke="#ff0000" stroke-width="6" fill="#ff0000">
<circle cx="254" cy="331" r="3.5"/>
</g>
<path d="M273,360v -26" fill="none" stroke="#ff0000" stroke-width="6"/>
<path d="M273,328v -26" fill="none" stroke="#ff0000" stroke-width="6"/>
<g stroke="#ff0000" stroke-width="6" fill="#ff0000">
<circle cx="273" cy="331" r="3.5"/>
</g>
<path d="M291,263v -46" fill="none" stroke="#ff0000" stroke-width="6"/>
<path d="M291,211v -46" fill="none" stroke="#ff0000" stroke-width="6"/>
<g stroke="#ff0000" stroke-width="6" fill="#ff0000">
<circle cx="291" cy="214" r="3.5"/>
</g>
<path d="M310,307v -38" fill="none" stroke="#ff0000" stroke-width="6"/>
<path d="M310,263v -38" fill="none" stroke="#ff0000" stroke-width="6"/>
<g stroke="#ff0000" stroke-width="6" fill="#ff0000">
<circle cx="310" cy="266" r="3.5"/>
</g>
<path d="M328,340v -32" fill="none" stroke="#ff0000" stroke-width="6"/>
<path d="M328,302v -31" fill="none" stroke="#ff0000" stroke-width="6"/>
<g stroke="#ff0000" stroke-width="6" fill="#ff0000">
<circle cx="328" cy="305" r="3.5"/>
</g>
<path d="M347,396v -10" fill="none" stroke="#ff0000" stroke-width="6"/>
<path d="M347,380v -10" fill="none" stroke="#ff0000" stroke-width="6"/>
<g stroke="#ff0000" stroke-width="6" fill="#ff0000">
<circle cx="347" cy="383" r="3.5"/>
</g>
<path d="M365,380v -20" fill="none" stroke="#ff0000" stroke-width="6"/>
<path d="M365,354v -19" fill="none" stroke="#ff0000" stroke-width="6"/>
<g stroke="#ff0000" stroke-width="6" fill="#ff0000">
<circle cx="365" cy="357" r="3.5"/>
</g>
<path d="M383,159v -59" fill="none" stroke="#ff0000" stroke-width="6"/>
<path d="M383,94v -57" fill="none" stroke="#ff0000" stroke-width="6"/>
<g stroke="#ff0000" stroke-width="6" fill="#ff0000">
<circle cx="383" cy="97" r="3.5"/>
</g>
<path d="M402,396v -10" fill="none" stroke="#ff0000" stroke-width="6"/>
<path d="M402,380v -10" fill="none" stroke="#ff0000" stroke-width="6"/>
<g stroke="#ff0000" stroke-width="6" fill="#ff0000">
<circle cx="402" cy="383" r="3.5"/>
</g>
<path d="M420,388v -15" fill="none" stroke="#ff0000" stroke-width="6"/>
<path d="M420,367v -15" fill="none" stroke="#ff0000" stroke-width="6"/>
<g stroke="#ff0000" stroke-width="6" fill="#ff0000">
<circle cx="420" cy="370" r="3.5"/>
</g>
<path d="M439,396v -10" fill="none" stroke="#ff0000" stroke-width="6"/>
<path d="M439,380v -10" fill="none" stroke="#ff0000" stroke-width="6"/>
<g stroke="#ff0000" stroke-width="6" fill="#ff0000">
<circle cx="439" cy="383" r="3.5"/>
</g>
<path d="M457,388v -15" fill="none" stroke="#ff0000" stroke-width="6"/>
<path d="M457,367v -15" fill="none" stroke="#ff0000" stroke-width="6"/>
<g stroke="#ff0000" stroke-width="6" fill="#ff0000">
<circle cx="457" cy="370" r="3.5"/>
</g>
<path d="M476,396v -10" fill="none" stroke="#ff0000" stroke-width="6"/>
<path d="M476,380v -10" fill="none" stroke="#ff0000" stroke-width="6"/>
<g stroke="#ff0000" stroke-width="6" fill="#ff0000">
<circle cx="476" cy="383" r="3.5"/>
</g>
<path d="M494,396v -10" fill="none" stroke="#ff0000" stroke-width="6"/>
<path d="M494,380v -10" fill="none" stroke="#ff0000" stroke-width="6"/>
<g stroke="#ff0000" stroke-width="6" fill="#ff0000">
<circle cx="494" cy="383" r="3.5"/>
</g>
<path d="M512,380v -20" fill="none" stroke="#ff0000" stroke-width="6"/>
<path d="M512,354v -19" fill="none" stroke="#ff0000" stroke-width="6"/>
<g stroke="#ff0000" stroke-width="6" fill="#ff0000">
<circle cx="512" cy="357" r="3.5"/>
</g>
<path d="M80,395v -64h 36v 52h 19v -52h 18v 39h 18v -169h 19v 143h 18v -52h 19v -13h 18v 52h 37v -117h 18v 52h 19v 39h 18v 78h 19v -26h 18v -260h 19v 286h 18v -13h 18v 13h 19v -13h 18v 13h 37v -26h 19" fill="none" stroke="#ff0000" stroke-width="6"/>
<path d="M332,107h 42" fill="none" stroke="#ff0000" stroke-width="6"/>
<rect x="113" y="-4" width="115" height="38" fill="white"/>
<text x="118" y="20" fill="black" font-size="30" font-family="Helvetica" font-weight="bold">
v_gene
</text></svg>
