<?xml version="1.0" standalone="no"?>
<svg width="567" height="466" viewBox="0 0 567 466" xmlns="http://www.w3.org/2000/svg">
<title>
/bbx/output/_plots/example/sw/mute-freqs/d/plots/IGHD3-22_star_01.svg
</title>
<desc>
Creator: ROOT Version 5.34/14
CreationDate: Wed Aug 19 19:38:10 2015</desc>
<defs>
</defs>
<rect x="0" y="0" width="567" height="466" fill="white"/>
<rect x="79" y="37" width="443" height="359" fill="none" stroke="black"/>
<rect x="79" y="37" width="443" height="359" fill="none" stroke="black"/>
<path d="M79,396h 443" fill="none" stroke="black" stroke-width="3"/>
<path d="M90,385v 11" fill="none" stroke="black" stroke-width="3"/>
<path d="M113,391v 5" fill="none" stroke="black" stroke-width="3"/>
<path d="M135,391v 5" fill="none" stroke="black" stroke-width="3"/>
<path d="M157,391v 5" fill="none" stroke="black" stroke-width="3"/>
<path d="M179,391v 5" fill="none" stroke="black" stroke-width="3"/>
<path d="M201,385v 11" fill="none" stroke="black" stroke-width="3"/>
<path d="M223,391v 5" fill="none" stroke="black" stroke-width="3"/>
<path d="M245,391v 5" fill="none" stroke="black" stroke-width="3"/>
<path d="M267,391v 5" fill="none" stroke="black" stroke-width="3"/>
<path d="M289,391v 5" fill="none" stroke="black" stroke-width="3"/>
<path d="M312,385v 11" fill="none" stroke="black" stroke-width="3"/>
<path d="M334,391v 5" fill="none" stroke="black" stroke-width="3"/>
<path d="M356,391v 5" fill="none" stroke="black" stroke-width="3"/>
<path d="M378,391v 5" fill="none" stroke="black" stroke-width="3"/>
<path d="M400,391v 5" fill="none" stroke="black" stroke-width="3"/>
<path d="M422,385v 11" fill="none" stroke="black" stroke-width="3"/>
<path d="M90,385v 11" fill="none" stroke="black" stroke-width="3"/>
<path d="M422,385v 11" fill="none" stroke="black" stroke-width="3"/>
<path d="M444,391v 5" fill="none" stroke="black" stroke-width="3"/>
<path d="M466,391v 5" fill="none" stroke="black" stroke-width="3"/>
<path d="M488,391v 5" fill="none" stroke="black" stroke-width="3"/>
<path d="M511,391v 5" fill="none" stroke="black" stroke-width="3"/>
<text x="85" y="416" fill="black" font-size="21" font-family="Times" font-weight="bold">
0
</text>
<text x="195" y="416" fill="black" font-size="21" font-family="Times" font-weight="bold">
5
</text>
<text x="300" y="416" fill="black" font-size="21" font-family="Times" font-weight="bold">
10
</text>
<text x="411" y="416" fill="black" font-size="21" font-family="Times" font-weight="bold">
15
</text>
<path d="M79,37h 443" fill="none" stroke="black" stroke-width="3"/>
<path d="M90,48v -11" fill="none" stroke="black" stroke-width="3"/>
<path d="M113,43v -6" fill="none" stroke="black" stroke-width="3"/>
<path d="M135,43v -6" fill="none" stroke="black" stroke-width="3"/>
<path d="M157,43v -6" fill="none" stroke="black" stroke-width="3"/>
<path d="M179,43v -6" fill="none" stroke="black" stroke-width="3"/>
<path d="M201,48v -11" fill="none" stroke="black" stroke-width="3"/>
<path d="M223,43v -6" fill="none" stroke="black" stroke-width="3"/>
<path d="M245,43v -6" fill="none" stroke="black" stroke-width="3"/>
<path d="M267,43v -6" fill="none" stroke="black" stroke-width="3"/>
<path d="M289,43v -6" fill="none" stroke="black" stroke-width="3"/>
<path d="M312,48v -11" fill="none" stroke="black" stroke-width="3"/>
<path d="M334,43v -6" fill="none" stroke="black" stroke-width="3"/>
<path d="M356,43v -6" fill="none" stroke="black" stroke-width="3"/>
<path d="M378,43v -6" fill="none" stroke="black" stroke-width="3"/>
<path d="M400,43v -6" fill="none" stroke="black" stroke-width="3"/>
<path d="M422,48v -11" fill="none" stroke="black" stroke-width="3"/>
<path d="M90,48v -11" fill="none" stroke="black" stroke-width="3"/>
<path d="M422,48v -11" fill="none" stroke="black" stroke-width="3"/>
<path d="M444,43v -6" fill="none" stroke="black" stroke-width="3"/>
<path d="M466,43v -6" fill="none" stroke="black" stroke-width="3"/>
<path d="M488,43v -6" fill="none" stroke="black" stroke-width="3"/>
<path d="M511,43v -6" fill="none" stroke="black" stroke-width="3"/>
<path d="M79,396v -359" fill="none" stroke="black" stroke-width="3"/>
<path d="M92,396h -13" fill="none" stroke="black" stroke-width="3"/>
<path d="M86,366h -7" fill="none" stroke="black" stroke-width="3"/>
<path d="M86,336h -7" fill="none" stroke="black" stroke-width="3"/>
<path d="M86,306h -7" fill="none" stroke="black" stroke-width="3"/>
<path d="M86,277h -7" fill="none" stroke="black" stroke-width="3"/>
<path d="M92,247h -13" fill="none" stroke="black" stroke-width="3"/>
<path d="M86,217h -7" fill="none" stroke="black" stroke-width="3"/>
<path d="M86,187h -7" fill="none" stroke="black" stroke-width="3"/>
<path d="M86,157h -7" fill="none" stroke="black" stroke-width="3"/>
<path d="M86,127h -7" fill="none" stroke="black" stroke-width="3"/>
<path d="M92,97h -13" fill="none" stroke="black" stroke-width="3"/>
<path d="M92,97h -13" fill="none" stroke="black" stroke-width="3"/>
<path d="M86,67h -7" fill="none" stroke="black" stroke-width="3"/>
<path d="M86,37h -7" fill="none" stroke="black" stroke-width="3"/>
<text x="46" y="404" fill="black" font-size="21" font-family="Times" font-weight="bold">
0.0
</text>
<text x="46" y="254" fill="black" font-size="21" font-family="Times" font-weight="bold">
0.5
</text>
<text x="46" y="105" fill="black" font-size="21" font-family="Times" font-weight="bold">
1.0
</text>
<path d="M522,396v -359" fill="none" stroke="black" stroke-width="3"/>
<path d="M508,396h 14" fill="none" stroke="black" stroke-width="3"/>
<path d="M515,366h 7" fill="none" stroke="black" stroke-width="3"/>
<path d="M515,336h 7" fill="none" stroke="black" stroke-width="3"/>
<path d="M515,306h 7" fill="none" stroke="black" stroke-width="3"/>
<path d="M515,277h 7" fill="none" stroke="black" stroke-width="3"/>
<path d="M508,247h 14" fill="none" stroke="black" stroke-width="3"/>
<path d="M515,217h 7" fill="none" stroke="black" stroke-width="3"/>
<path d="M515,187h 7" fill="none" stroke="black" stroke-width="3"/>
<path d="M515,157h 7" fill="none" stroke="black" stroke-width="3"/>
<path d="M515,127h 7" fill="none" stroke="black" stroke-width="3"/>
<path d="M508,97h 14" fill="none" stroke="black" stroke-width="3"/>
<path d="M508,97h 14" fill="none" stroke="black" stroke-width="3"/>
<path d="M515,67h 7" fill="none" stroke="black" stroke-width="3"/>
<path d="M515,37h 7" fill="none" stroke="black" stroke-width="3"/>
<rect x="113" y="-4" width="303" height="38" fill="white"/>
<text x="136" y="24" fill="black" font-size="30" font-family="Helvetica" font-weight="bold">
IGHD3-22_star_01
</text>
<path d="M90,393v -22" fill="none" stroke="#ff0000" stroke-width="6"/>
<g stroke="#ff0000" stroke-width="6" fill="#ff0000">
<circle cx="90" cy="396" r="3.5"/>
</g>
<path d="M113,122v -22" fill="none" stroke="#ff0000" stroke-width="6"/>
<path d="M113,94v -22" fill="none" stroke="#ff0000" stroke-width="6"/>
<path d="M101,97h 8" fill="none" stroke="#ff0000" stroke-width="6"/>
<path d="M116,97h 8" fill="none" stroke="#ff0000" stroke-width="6"/>
<g stroke="#ff0000" stroke-width="6" fill="#ff0000">
<circle cx="113" cy="97" r="3.5"/>
</g>
<path d="M135,393v -22" fill="none" stroke="#ff0000" stroke-width="6"/>
<g stroke="#ff0000" stroke-width="6" fill="#ff0000">
<circle cx="135" cy="396" r="3.5"/>
</g>
<path d="M157,330v -50" fill="none" stroke="#ff0000" stroke-width="6"/>
<path d="M157,273v -50" fill="none" stroke="#ff0000" stroke-width="6"/>
<path d="M146,277h 7" fill="none" stroke="#ff0000" stroke-width="6"/>
<path d="M160,277h 8" fill="none" stroke="#ff0000" stroke-width="6"/>
<g stroke="#ff0000" stroke-width="6" fill="#ff0000">
<circle cx="157" cy="277" r="3.5"/>
</g>
<path d="M179,393v -22" fill="none" stroke="#ff0000" stroke-width="6"/>
<g stroke="#ff0000" stroke-width="6" fill="#ff0000">
<circle cx="179" cy="396" r="3.5"/>
</g>
<path d="M201,393v -22" fill="none" stroke="#ff0000" stroke-width="6"/>
<g stroke="#ff0000" stroke-width="6" fill="#ff0000">
<circle cx="201" cy="396" r="3.5"/>
</g>
<path d="M223,393v -22" fill="none" stroke="#ff0000" stroke-width="6"/>
<g stroke="#ff0000" stroke-width="6" fill="#ff0000">
<circle cx="223" cy="396" r="3.5"/>
</g>
<path d="M245,393v -22" fill="none" stroke="#ff0000" stroke-width="6"/>
<g stroke="#ff0000" stroke-width="6" fill="#ff0000">
<circle cx="245" cy="396" r="3.5"/>
</g>
<path d="M267,271v -51" fill="none" stroke="#ff0000" stroke-width="6"/>
<path d="M267,213v -50" fill="none" stroke="#ff0000" stroke-width="6"/>
<path d="M256,217h 8" fill="none" stroke="#ff0000" stroke-width="6"/>
<path d="M271,217h 7" fill="none" stroke="#ff0000" stroke-width="6"/>
<g stroke="#ff0000" stroke-width="6" fill="#ff0000">
<circle cx="267" cy="217" r="3.5"/>
</g>
<path d="M289,393v -22" fill="none" stroke="#ff0000" stroke-width="6"/>
<g stroke="#ff0000" stroke-width="6" fill="#ff0000">
<circle cx="289" cy="396" r="3.5"/>
</g>
<path d="M312,393v -22" fill="none" stroke="#ff0000" stroke-width="6"/>
<g stroke="#ff0000" stroke-width="6" fill="#ff0000">
<circle cx="312" cy="396" r="3.5"/>
</g>
<path d="M334,385v -45" fill="none" stroke="#ff0000" stroke-width="6"/>
<path d="M334,333v -45" fill="none" stroke="#ff0000" stroke-width="6"/>
<path d="M323,336h 7" fill="none" stroke="#ff0000" stroke-width="6"/>
<path d="M337,336h 8" fill="none" stroke="#ff0000" stroke-width="6"/>
<g stroke="#ff0000" stroke-width="6" fill="#ff0000">
<circle cx="334" cy="336" r="3.5"/>
</g>
<path d="M356,393v -22" fill="none" stroke="#ff0000" stroke-width="6"/>
<g stroke="#ff0000" stroke-width="6" fill="#ff0000">
<circle cx="356" cy="396" r="3.5"/>
</g>
<path d="M378,393v -22" fill="none" stroke="#ff0000" stroke-width="6"/>
<g stroke="#ff0000" stroke-width="6" fill="#ff0000">
<circle cx="378" cy="396" r="3.5"/>
</g>
<path d="M400,385v -45" fill="none" stroke="#ff0000" stroke-width="6"/>
<path d="M400,333v -45" fill="none" stroke="#ff0000" stroke-width="6"/>
<path d="M389,336h 8" fill="none" stroke="#ff0000" stroke-width="6"/>
<path d="M403,336h 8" fill="none" stroke="#ff0000" stroke-width="6"/>
<g stroke="#ff0000" stroke-width="6" fill="#ff0000">
<circle cx="400" cy="336" r="3.5"/>
</g>
<path d="M422,393v -22" fill="none" stroke="#ff0000" stroke-width="6"/>
<g stroke="#ff0000" stroke-width="6" fill="#ff0000">
<circle cx="422" cy="396" r="3.5"/>
</g>
<path d="M444,393v -22" fill="none" stroke="#ff0000" stroke-width="6"/>
<g stroke="#ff0000" stroke-width="6" fill="#ff0000">
<circle cx="444" cy="396" r="3.5"/>
</g>
<path d="M466,385v -45" fill="none" stroke="#ff0000" stroke-width="6"/>
<path d="M466,333v -45" fill="none" stroke="#ff0000" stroke-width="6"/>
<path d="M455,336h 8" fill="none" stroke="#ff0000" stroke-width="6"/>
<path d="M470,336h 7" fill="none" stroke="#ff0000" stroke-width="6"/>
<g stroke="#ff0000" stroke-width="6" fill="#ff0000">
<circle cx="466" cy="336" r="3.5"/>
</g>
<path d="M488,376v -51" fill="none" stroke="#ff0000" stroke-width="6"/>
<path d="M488,318v -51" fill="none" stroke="#ff0000" stroke-width="6"/>
<path d="M477,321h 8" fill="none" stroke="#ff0000" stroke-width="6"/>
<path d="M492,321h 7" fill="none" stroke="#ff0000" stroke-width="6"/>
<g stroke="#ff0000" stroke-width="6" fill="#ff0000">
<circle cx="488" cy="321" r="3.5"/>
</g>
<path d="M511,393v -26" fill="none" stroke="#ff0000" stroke-width="6"/>
<g stroke="#ff0000" stroke-width="6" fill="#ff0000">
<circle cx="511" cy="396" r="3.5"/>
</g>
<path d="M332,107h 42" fill="none" stroke="#ff0000" stroke-width="6"/>
<rect x="113" y="-4" width="303" height="38" fill="white"/>
<text x="136" y="24" fill="black" font-size="30" font-family="Helvetica" font-weight="bold">
IGHD3-22_star_01
</text></svg>
