<?xml version="1.0" standalone="no"?>
<svg width="567" height="466" viewBox="0 0 567 466" xmlns="http://www.w3.org/2000/svg">
<title>
/bbx/output/_plots/example/sw/mute-freqs/d/plots/IGHD4-17_star_01.svg
</title>
<desc>
Creator: ROOT Version 5.34/14
CreationDate: Thu Jul 30 18:24:55 2015</desc>
<defs>
</defs>
<rect x="0" y="0" width="567" height="466" fill="white"/>
<rect x="79" y="37" width="443" height="359" fill="none" stroke="black"/>
<rect x="79" y="37" width="443" height="359" fill="none" stroke="black"/>
<path d="M79,396h 443" fill="none" stroke="black" stroke-width="3"/>
<path d="M93,385v 11" fill="none" stroke="black" stroke-width="3"/>
<path d="M121,391v 5" fill="none" stroke="black" stroke-width="3"/>
<path d="M148,391v 5" fill="none" stroke="black" stroke-width="3"/>
<path d="M176,391v 5" fill="none" stroke="black" stroke-width="3"/>
<path d="M204,391v 5" fill="none" stroke="black" stroke-width="3"/>
<path d="M231,385v 11" fill="none" stroke="black" stroke-width="3"/>
<path d="M259,391v 5" fill="none" stroke="black" stroke-width="3"/>
<path d="M287,391v 5" fill="none" stroke="black" stroke-width="3"/>
<path d="M314,391v 5" fill="none" stroke="black" stroke-width="3"/>
<path d="M342,391v 5" fill="none" stroke="black" stroke-width="3"/>
<path d="M370,385v 11" fill="none" stroke="black" stroke-width="3"/>
<path d="M397,391v 5" fill="none" stroke="black" stroke-width="3"/>
<path d="M425,391v 5" fill="none" stroke="black" stroke-width="3"/>
<path d="M452,391v 5" fill="none" stroke="black" stroke-width="3"/>
<path d="M480,391v 5" fill="none" stroke="black" stroke-width="3"/>
<path d="M508,385v 11" fill="none" stroke="black" stroke-width="3"/>
<path d="M93,385v 11" fill="none" stroke="black" stroke-width="3"/>
<path d="M508,385v 11" fill="none" stroke="black" stroke-width="3"/>
<text x="87" y="416" fill="black" font-size="21" font-family="Times" font-weight="bold">
0
</text>
<text x="226" y="416" fill="black" font-size="21" font-family="Times" font-weight="bold">
5
</text>
<text x="358" y="416" fill="black" font-size="21" font-family="Times" font-weight="bold">
10
</text>
<text x="496" y="416" fill="black" font-size="21" font-family="Times" font-weight="bold">
15
</text>
<path d="M79,37h 443" fill="none" stroke="black" stroke-width="3"/>
<path d="M93,48v -11" fill="none" stroke="black" stroke-width="3"/>
<path d="M121,43v -6" fill="none" stroke="black" stroke-width="3"/>
<path d="M148,43v -6" fill="none" stroke="black" stroke-width="3"/>
<path d="M176,43v -6" fill="none" stroke="black" stroke-width="3"/>
<path d="M204,43v -6" fill="none" stroke="black" stroke-width="3"/>
<path d="M231,48v -11" fill="none" stroke="black" stroke-width="3"/>
<path d="M259,43v -6" fill="none" stroke="black" stroke-width="3"/>
<path d="M287,43v -6" fill="none" stroke="black" stroke-width="3"/>
<path d="M314,43v -6" fill="none" stroke="black" stroke-width="3"/>
<path d="M342,43v -6" fill="none" stroke="black" stroke-width="3"/>
<path d="M370,48v -11" fill="none" stroke="black" stroke-width="3"/>
<path d="M397,43v -6" fill="none" stroke="black" stroke-width="3"/>
<path d="M425,43v -6" fill="none" stroke="black" stroke-width="3"/>
<path d="M452,43v -6" fill="none" stroke="black" stroke-width="3"/>
<path d="M480,43v -6" fill="none" stroke="black" stroke-width="3"/>
<path d="M508,48v -11" fill="none" stroke="black" stroke-width="3"/>
<path d="M93,48v -11" fill="none" stroke="black" stroke-width="3"/>
<path d="M508,48v -11" fill="none" stroke="black" stroke-width="3"/>
<path d="M79,396v -359" fill="none" stroke="black" stroke-width="3"/>
<path d="M92,396h -13" fill="none" stroke="black" stroke-width="3"/>
<path d="M86,378h -7" fill="none" stroke="black" stroke-width="3"/>
<path d="M86,360h -7" fill="none" stroke="black" stroke-width="3"/>
<path d="M86,342h -7" fill="none" stroke="black" stroke-width="3"/>
<path d="M86,324h -7" fill="none" stroke="black" stroke-width="3"/>
<path d="M92,306h -13" fill="none" stroke="black" stroke-width="3"/>
<path d="M86,288h -7" fill="none" stroke="black" stroke-width="3"/>
<path d="M86,271h -7" fill="none" stroke="black" stroke-width="3"/>
<path d="M86,253h -7" fill="none" stroke="black" stroke-width="3"/>
<path d="M86,235h -7" fill="none" stroke="black" stroke-width="3"/>
<path d="M92,217h -13" fill="none" stroke="black" stroke-width="3"/>
<path d="M86,199h -7" fill="none" stroke="black" stroke-width="3"/>
<path d="M86,181h -7" fill="none" stroke="black" stroke-width="3"/>
<path d="M86,163h -7" fill="none" stroke="black" stroke-width="3"/>
<path d="M86,145h -7" fill="none" stroke="black" stroke-width="3"/>
<path d="M92,127h -13" fill="none" stroke="black" stroke-width="3"/>
<path d="M86,109h -7" fill="none" stroke="black" stroke-width="3"/>
<path d="M86,91h -7" fill="none" stroke="black" stroke-width="3"/>
<path d="M86,73h -7" fill="none" stroke="black" stroke-width="3"/>
<path d="M86,55h -7" fill="none" stroke="black" stroke-width="3"/>
<path d="M92,37h -13" fill="none" stroke="black" stroke-width="3"/>
<path d="M92,37h -13" fill="none" stroke="black" stroke-width="3"/>
<text x="46" y="404" fill="black" font-size="21" font-family="Times" font-weight="bold">
0.0
</text>
<text x="46" y="314" fill="black" font-size="21" font-family="Times" font-weight="bold">
0.1
</text>
<text x="46" y="224" fill="black" font-size="21" font-family="Times" font-weight="bold">
0.2
</text>
<text x="46" y="134" fill="black" font-size="21" font-family="Times" font-weight="bold">
0.3
</text>
<text x="46" y="45" fill="black" font-size="21" font-family="Times" font-weight="bold">
0.4
</text>
<path d="M522,396v -359" fill="none" stroke="black" stroke-width="3"/>
<path d="M508,396h 14" fill="none" stroke="black" stroke-width="3"/>
<path d="M515,378h 7" fill="none" stroke="black" stroke-width="3"/>
<path d="M515,360h 7" fill="none" stroke="black" stroke-width="3"/>
<path d="M515,342h 7" fill="none" stroke="black" stroke-width="3"/>
<path d="M515,324h 7" fill="none" stroke="black" stroke-width="3"/>
<path d="M508,306h 14" fill="none" stroke="black" stroke-width="3"/>
<path d="M515,288h 7" fill="none" stroke="black" stroke-width="3"/>
<path d="M515,271h 7" fill="none" stroke="black" stroke-width="3"/>
<path d="M515,253h 7" fill="none" stroke="black" stroke-width="3"/>
<path d="M515,235h 7" fill="none" stroke="black" stroke-width="3"/>
<path d="M508,217h 14" fill="none" stroke="black" stroke-width="3"/>
<path d="M515,199h 7" fill="none" stroke="black" stroke-width="3"/>
<path d="M515,181h 7" fill="none" stroke="black" stroke-width="3"/>
<path d="M515,163h 7" fill="none" stroke="black" stroke-width="3"/>
<path d="M515,145h 7" fill="none" stroke="black" stroke-width="3"/>
<path d="M508,127h 14" fill="none" stroke="black" stroke-width="3"/>
<path d="M515,109h 7" fill="none" stroke="black" stroke-width="3"/>
<path d="M515,91h 7" fill="none" stroke="black" stroke-width="3"/>
<path d="M515,73h 7" fill="none" stroke="black" stroke-width="3"/>
<path d="M515,55h 7" fill="none" stroke="black" stroke-width="3"/>
<path d="M508,37h 14" fill="none" stroke="black" stroke-width="3"/>
<path d="M508,37h 14" fill="none" stroke="black" stroke-width="3"/>
<rect x="113" y="-4" width="303" height="38" fill="white"/>
<text x="136" y="24" fill="black" font-size="30" font-family="Helvetica" font-weight="bold">
IGHD4-17_star_01
</text>
<path d="M93,393v -134" fill="none" stroke="#ff0000" stroke-width="6"/>
<g stroke="#ff0000" stroke-width="6" fill="#ff0000">
<circle cx="93" cy="396" r="3.5"/>
</g>
<path d="M121,286v -186" fill="none" stroke="#ff0000" stroke-width="6"/>
<path d="M121,94v -57" fill="none" stroke="#ff0000" stroke-width="6"/>
<path d="M107,97h 11" fill="none" stroke="#ff0000" stroke-width="6"/>
<path d="M124,97h 11" fill="none" stroke="#ff0000" stroke-width="6"/>
<g stroke="#ff0000" stroke-width="6" fill="#ff0000">
<circle cx="121" cy="97" r="3.5"/>
</g>
<path d="M148,286v -186" fill="none" stroke="#ff0000" stroke-width="6"/>
<path d="M148,94v -57" fill="none" stroke="#ff0000" stroke-width="6"/>
<path d="M135,97h 10" fill="none" stroke="#ff0000" stroke-width="6"/>
<path d="M152,97h 10" fill="none" stroke="#ff0000" stroke-width="6"/>
<g stroke="#ff0000" stroke-width="6" fill="#ff0000">
<circle cx="148" cy="97" r="3.5"/>
</g>
<path d="M176,393v -44" fill="none" stroke="#ff0000" stroke-width="6"/>
<g stroke="#ff0000" stroke-width="6" fill="#ff0000">
<circle cx="176" cy="396" r="3.5"/>
</g>
<path d="M204,393v -93" fill="none" stroke="#ff0000" stroke-width="6"/>
<path d="M204,293v -93" fill="none" stroke="#ff0000" stroke-width="6"/>
<path d="M190,296h 10" fill="none" stroke="#ff0000" stroke-width="6"/>
<path d="M207,296h 11" fill="none" stroke="#ff0000" stroke-width="6"/>
<g stroke="#ff0000" stroke-width="6" fill="#ff0000">
<circle cx="204" cy="296" r="3.5"/>
</g>
<path d="M231,311v -111" fill="none" stroke="#ff0000" stroke-width="6"/>
<path d="M231,194v -112" fill="none" stroke="#ff0000" stroke-width="6"/>
<path d="M218,197h 10" fill="none" stroke="#ff0000" stroke-width="6"/>
<path d="M235,197h 10" fill="none" stroke="#ff0000" stroke-width="6"/>
<g stroke="#ff0000" stroke-width="6" fill="#ff0000">
<circle cx="231" cy="197" r="3.5"/>
</g>
<path d="M259,393v -44" fill="none" stroke="#ff0000" stroke-width="6"/>
<g stroke="#ff0000" stroke-width="6" fill="#ff0000">
<circle cx="259" cy="396" r="3.5"/>
</g>
<path d="M287,395v -85" fill="none" stroke="#ff0000" stroke-width="6"/>
<path d="M287,303v -86" fill="none" stroke="#ff0000" stroke-width="6"/>
<path d="M273,306h 10" fill="none" stroke="#ff0000" stroke-width="6"/>
<path d="M290,306h 10" fill="none" stroke="#ff0000" stroke-width="6"/>
<g stroke="#ff0000" stroke-width="6" fill="#ff0000">
<circle cx="287" cy="306" r="3.5"/>
</g>
<path d="M314,395v -85" fill="none" stroke="#ff0000" stroke-width="6"/>
<path d="M314,303v -86" fill="none" stroke="#ff0000" stroke-width="6"/>
<path d="M300,306h 11" fill="none" stroke="#ff0000" stroke-width="6"/>
<path d="M318,306h 10" fill="none" stroke="#ff0000" stroke-width="6"/>
<g stroke="#ff0000" stroke-width="6" fill="#ff0000">
<circle cx="314" cy="306" r="3.5"/>
</g>
<path d="M342,393v -40" fill="none" stroke="#ff0000" stroke-width="6"/>
<g stroke="#ff0000" stroke-width="6" fill="#ff0000">
<circle cx="342" cy="396" r="3.5"/>
</g>
<path d="M370,393v -40" fill="none" stroke="#ff0000" stroke-width="6"/>
<g stroke="#ff0000" stroke-width="6" fill="#ff0000">
<circle cx="370" cy="396" r="3.5"/>
</g>
<path d="M397,393v -48" fill="none" stroke="#ff0000" stroke-width="6"/>
<g stroke="#ff0000" stroke-width="6" fill="#ff0000">
<circle cx="397" cy="396" r="3.5"/>
</g>
<path d="M425,389v -102" fill="none" stroke="#ff0000" stroke-width="6"/>
<path d="M425,281v -102" fill="none" stroke="#ff0000" stroke-width="6"/>
<path d="M411,284h 11" fill="none" stroke="#ff0000" stroke-width="6"/>
<path d="M428,284h 11" fill="none" stroke="#ff0000" stroke-width="6"/>
<g stroke="#ff0000" stroke-width="6" fill="#ff0000">
<circle cx="425" cy="284" r="3.5"/>
</g>
<path d="M452,389v -102" fill="none" stroke="#ff0000" stroke-width="6"/>
<path d="M452,281v -102" fill="none" stroke="#ff0000" stroke-width="6"/>
<path d="M439,284h 10" fill="none" stroke="#ff0000" stroke-width="6"/>
<path d="M456,284h 10" fill="none" stroke="#ff0000" stroke-width="6"/>
<g stroke="#ff0000" stroke-width="6" fill="#ff0000">
<circle cx="452" cy="284" r="3.5"/>
</g>
<path d="M480,389v -102" fill="none" stroke="#ff0000" stroke-width="6"/>
<path d="M480,281v -102" fill="none" stroke="#ff0000" stroke-width="6"/>
<path d="M466,284h 11" fill="none" stroke="#ff0000" stroke-width="6"/>
<path d="M483,284h 11" fill="none" stroke="#ff0000" stroke-width="6"/>
<g stroke="#ff0000" stroke-width="6" fill="#ff0000">
<circle cx="480" cy="284" r="3.5"/>
</g>
<path d="M508,393v -48" fill="none" stroke="#ff0000" stroke-width="6"/>
<g stroke="#ff0000" stroke-width="6" fill="#ff0000">
<circle cx="508" cy="396" r="3.5"/>
</g>
<path d="M332,107h 42" fill="none" stroke="#ff0000" stroke-width="6"/>
<rect x="113" y="-4" width="303" height="38" fill="white"/>
<text x="136" y="24" fill="black" font-size="30" font-family="Helvetica" font-weight="bold">
IGHD4-17_star_01
</text></svg>
