<?xml version="1.0" standalone="no"?>
<svg width="567" height="466" viewBox="0 0 567 466" xmlns="http://www.w3.org/2000/svg">
<title>
/bbx/output/_plots/example/sw/mute-freqs/d/plots/IGHD3-3_star_02.svg
</title>
<desc>
Creator: ROOT Version 5.34/14
CreationDate: Thu Jul 30 18:24:54 2015</desc>
<defs>
</defs>
<rect x="0" y="0" width="567" height="466" fill="white"/>
<rect x="79" y="37" width="443" height="359" fill="none" stroke="black"/>
<rect x="79" y="37" width="443" height="359" fill="none" stroke="black"/>
<path d="M79,396h 443" fill="none" stroke="black" stroke-width="3"/>
<path d="M241,385v 11" fill="none" stroke="black" stroke-width="3"/>
<path d="M275,391v 5" fill="none" stroke="black" stroke-width="3"/>
<path d="M309,391v 5" fill="none" stroke="black" stroke-width="3"/>
<path d="M343,391v 5" fill="none" stroke="black" stroke-width="3"/>
<path d="M377,391v 5" fill="none" stroke="black" stroke-width="3"/>
<path d="M411,385v 11" fill="none" stroke="black" stroke-width="3"/>
<path d="M241,385v 11" fill="none" stroke="black" stroke-width="3"/>
<path d="M207,391v 5" fill="none" stroke="black" stroke-width="3"/>
<path d="M173,391v 5" fill="none" stroke="black" stroke-width="3"/>
<path d="M139,391v 5" fill="none" stroke="black" stroke-width="3"/>
<path d="M105,391v 5" fill="none" stroke="black" stroke-width="3"/>
<path d="M411,385v 11" fill="none" stroke="black" stroke-width="3"/>
<path d="M445,391v 5" fill="none" stroke="black" stroke-width="3"/>
<path d="M479,391v 5" fill="none" stroke="black" stroke-width="3"/>
<path d="M513,391v 5" fill="none" stroke="black" stroke-width="3"/>
<text x="229" y="416" fill="black" font-size="21" font-family="Times" font-weight="bold">
10
</text>
<text x="399" y="416" fill="black" font-size="21" font-family="Times" font-weight="bold">
20
</text>
<path d="M79,37h 443" fill="none" stroke="black" stroke-width="3"/>
<path d="M241,48v -11" fill="none" stroke="black" stroke-width="3"/>
<path d="M275,43v -6" fill="none" stroke="black" stroke-width="3"/>
<path d="M309,43v -6" fill="none" stroke="black" stroke-width="3"/>
<path d="M343,43v -6" fill="none" stroke="black" stroke-width="3"/>
<path d="M377,43v -6" fill="none" stroke="black" stroke-width="3"/>
<path d="M411,48v -11" fill="none" stroke="black" stroke-width="3"/>
<path d="M241,48v -11" fill="none" stroke="black" stroke-width="3"/>
<path d="M207,43v -6" fill="none" stroke="black" stroke-width="3"/>
<path d="M173,43v -6" fill="none" stroke="black" stroke-width="3"/>
<path d="M139,43v -6" fill="none" stroke="black" stroke-width="3"/>
<path d="M105,43v -6" fill="none" stroke="black" stroke-width="3"/>
<path d="M411,48v -11" fill="none" stroke="black" stroke-width="3"/>
<path d="M445,43v -6" fill="none" stroke="black" stroke-width="3"/>
<path d="M479,43v -6" fill="none" stroke="black" stroke-width="3"/>
<path d="M513,43v -6" fill="none" stroke="black" stroke-width="3"/>
<path d="M79,396v -359" fill="none" stroke="black" stroke-width="3"/>
<path d="M92,396h -13" fill="none" stroke="black" stroke-width="3"/>
<path d="M86,366h -7" fill="none" stroke="black" stroke-width="3"/>
<path d="M86,336h -7" fill="none" stroke="black" stroke-width="3"/>
<path d="M86,306h -7" fill="none" stroke="black" stroke-width="3"/>
<path d="M86,277h -7" fill="none" stroke="black" stroke-width="3"/>
<path d="M92,247h -13" fill="none" stroke="black" stroke-width="3"/>
<path d="M86,217h -7" fill="none" stroke="black" stroke-width="3"/>
<path d="M86,187h -7" fill="none" stroke="black" stroke-width="3"/>
<path d="M86,157h -7" fill="none" stroke="black" stroke-width="3"/>
<path d="M86,127h -7" fill="none" stroke="black" stroke-width="3"/>
<path d="M92,97h -13" fill="none" stroke="black" stroke-width="3"/>
<path d="M92,97h -13" fill="none" stroke="black" stroke-width="3"/>
<path d="M86,67h -7" fill="none" stroke="black" stroke-width="3"/>
<path d="M86,37h -7" fill="none" stroke="black" stroke-width="3"/>
<text x="46" y="404" fill="black" font-size="21" font-family="Times" font-weight="bold">
0.0
</text>
<text x="46" y="254" fill="black" font-size="21" font-family="Times" font-weight="bold">
0.5
</text>
<text x="46" y="105" fill="black" font-size="21" font-family="Times" font-weight="bold">
1.0
</text>
<path d="M522,396v -359" fill="none" stroke="black" stroke-width="3"/>
<path d="M508,396h 14" fill="none" stroke="black" stroke-width="3"/>
<path d="M515,366h 7" fill="none" stroke="black" stroke-width="3"/>
<path d="M515,336h 7" fill="none" stroke="black" stroke-width="3"/>
<path d="M515,306h 7" fill="none" stroke="black" stroke-width="3"/>
<path d="M515,277h 7" fill="none" stroke="black" stroke-width="3"/>
<path d="M508,247h 14" fill="none" stroke="black" stroke-width="3"/>
<path d="M515,217h 7" fill="none" stroke="black" stroke-width="3"/>
<path d="M515,187h 7" fill="none" stroke="black" stroke-width="3"/>
<path d="M515,157h 7" fill="none" stroke="black" stroke-width="3"/>
<path d="M515,127h 7" fill="none" stroke="black" stroke-width="3"/>
<path d="M508,97h 14" fill="none" stroke="black" stroke-width="3"/>
<path d="M508,97h 14" fill="none" stroke="black" stroke-width="3"/>
<path d="M515,67h 7" fill="none" stroke="black" stroke-width="3"/>
<path d="M515,37h 7" fill="none" stroke="black" stroke-width="3"/>
<rect x="113" y="-4" width="286" height="38" fill="white"/>
<text x="134" y="24" fill="black" font-size="30" font-family="Helvetica" font-weight="bold">
IGHD3-3_star_02
</text>
<path d="M88,393v -60" fill="none" stroke="#ff0000" stroke-width="6"/>
<g stroke="#ff0000" stroke-width="6" fill="#ff0000">
<circle cx="88" cy="396" r="3.5"/>
</g>
<path d="M105,393v -60" fill="none" stroke="#ff0000" stroke-width="6"/>
<g stroke="#ff0000" stroke-width="6" fill="#ff0000">
<circle cx="105" cy="396" r="3.5"/>
</g>
<path d="M122,160v -60" fill="none" stroke="#ff0000" stroke-width="6"/>
<path d="M122,94v -57" fill="none" stroke="#ff0000" stroke-width="6"/>
<path d="M113,97h 6" fill="none" stroke="#ff0000" stroke-width="6"/>
<path d="M125,97h 5" fill="none" stroke="#ff0000" stroke-width="6"/>
<g stroke="#ff0000" stroke-width="6" fill="#ff0000">
<circle cx="122" cy="97" r="3.5"/>
</g>
<path d="M139,160v -60" fill="none" stroke="#ff0000" stroke-width="6"/>
<path d="M139,94v -57" fill="none" stroke="#ff0000" stroke-width="6"/>
<path d="M130,97h 6" fill="none" stroke="#ff0000" stroke-width="6"/>
<path d="M142,97h 5" fill="none" stroke="#ff0000" stroke-width="6"/>
<g stroke="#ff0000" stroke-width="6" fill="#ff0000">
<circle cx="139" cy="97" r="3.5"/>
</g>
<path d="M156,393v -60" fill="none" stroke="#ff0000" stroke-width="6"/>
<g stroke="#ff0000" stroke-width="6" fill="#ff0000">
<circle cx="156" cy="396" r="3.5"/>
</g>
<path d="M173,393v -22" fill="none" stroke="#ff0000" stroke-width="6"/>
<g stroke="#ff0000" stroke-width="6" fill="#ff0000">
<circle cx="173" cy="396" r="3.5"/>
</g>
<path d="M190,393v -22" fill="none" stroke="#ff0000" stroke-width="6"/>
<g stroke="#ff0000" stroke-width="6" fill="#ff0000">
<circle cx="190" cy="396" r="3.5"/>
</g>
<path d="M207,393v -22" fill="none" stroke="#ff0000" stroke-width="6"/>
<g stroke="#ff0000" stroke-width="6" fill="#ff0000">
<circle cx="207" cy="396" r="3.5"/>
</g>
<path d="M224,393v -22" fill="none" stroke="#ff0000" stroke-width="6"/>
<g stroke="#ff0000" stroke-width="6" fill="#ff0000">
<circle cx="224" cy="396" r="3.5"/>
</g>
<path d="M241,393v -19" fill="none" stroke="#ff0000" stroke-width="6"/>
<g stroke="#ff0000" stroke-width="6" fill="#ff0000">
<circle cx="241" cy="396" r="3.5"/>
</g>
<path d="M258,389v -39" fill="none" stroke="#ff0000" stroke-width="6"/>
<path d="M258,343v -40" fill="none" stroke="#ff0000" stroke-width="6"/>
<path d="M249,346h 6" fill="none" stroke="#ff0000" stroke-width="6"/>
<path d="M261,346h 5" fill="none" stroke="#ff0000" stroke-width="6"/>
<g stroke="#ff0000" stroke-width="6" fill="#ff0000">
<circle cx="258" cy="346" r="3.5"/>
</g>
<path d="M275,298v -48" fill="none" stroke="#ff0000" stroke-width="6"/>
<path d="M275,243v -48" fill="none" stroke="#ff0000" stroke-width="6"/>
<path d="M266,247h 6" fill="none" stroke="#ff0000" stroke-width="6"/>
<path d="M278,247h 5" fill="none" stroke="#ff0000" stroke-width="6"/>
<g stroke="#ff0000" stroke-width="6" fill="#ff0000">
<circle cx="275" cy="247" r="3.5"/>
</g>
<path d="M292,346v -46" fill="none" stroke="#ff0000" stroke-width="6"/>
<path d="M292,293v -46" fill="none" stroke="#ff0000" stroke-width="6"/>
<path d="M283,296h 6" fill="none" stroke="#ff0000" stroke-width="6"/>
<path d="M295,296h 5" fill="none" stroke="#ff0000" stroke-width="6"/>
<g stroke="#ff0000" stroke-width="6" fill="#ff0000">
<circle cx="292" cy="296" r="3.5"/>
</g>
<path d="M309,393v -16" fill="none" stroke="#ff0000" stroke-width="6"/>
<g stroke="#ff0000" stroke-width="6" fill="#ff0000">
<circle cx="309" cy="396" r="3.5"/>
</g>
<path d="M326,392v -35" fill="none" stroke="#ff0000" stroke-width="6"/>
<path d="M326,350v -35" fill="none" stroke="#ff0000" stroke-width="6"/>
<path d="M317,353h 6" fill="none" stroke="#ff0000" stroke-width="6"/>
<path d="M329,353h 5" fill="none" stroke="#ff0000" stroke-width="6"/>
<g stroke="#ff0000" stroke-width="6" fill="#ff0000">
<circle cx="326" cy="353" r="3.5"/>
</g>
<path d="M343,356v -42" fill="none" stroke="#ff0000" stroke-width="6"/>
<path d="M343,307v -41" fill="none" stroke="#ff0000" stroke-width="6"/>
<path d="M334,311h 6" fill="none" stroke="#ff0000" stroke-width="6"/>
<path d="M346,311h 5" fill="none" stroke="#ff0000" stroke-width="6"/>
<g stroke="#ff0000" stroke-width="6" fill="#ff0000">
<circle cx="343" cy="311" r="3.5"/>
</g>
<path d="M360,392v -35" fill="none" stroke="#ff0000" stroke-width="6"/>
<path d="M360,350v -35" fill="none" stroke="#ff0000" stroke-width="6"/>
<path d="M351,353h 6" fill="none" stroke="#ff0000" stroke-width="6"/>
<path d="M363,353h 6" fill="none" stroke="#ff0000" stroke-width="6"/>
<g stroke="#ff0000" stroke-width="6" fill="#ff0000">
<circle cx="360" cy="353" r="3.5"/>
</g>
<path d="M377,393v -16" fill="none" stroke="#ff0000" stroke-width="6"/>
<g stroke="#ff0000" stroke-width="6" fill="#ff0000">
<circle cx="377" cy="396" r="3.5"/>
</g>
<path d="M394,356v -42" fill="none" stroke="#ff0000" stroke-width="6"/>
<path d="M394,307v -41" fill="none" stroke="#ff0000" stroke-width="6"/>
<path d="M386,311h 5" fill="none" stroke="#ff0000" stroke-width="6"/>
<path d="M397,311h 6" fill="none" stroke="#ff0000" stroke-width="6"/>
<g stroke="#ff0000" stroke-width="6" fill="#ff0000">
<circle cx="394" cy="311" r="3.5"/>
</g>
<path d="M411,392v -35" fill="none" stroke="#ff0000" stroke-width="6"/>
<path d="M411,350v -35" fill="none" stroke="#ff0000" stroke-width="6"/>
<path d="M403,353h 5" fill="none" stroke="#ff0000" stroke-width="6"/>
<path d="M414,353h 6" fill="none" stroke="#ff0000" stroke-width="6"/>
<g stroke="#ff0000" stroke-width="6" fill="#ff0000">
<circle cx="411" cy="353" r="3.5"/>
</g>
<path d="M428,393v -19" fill="none" stroke="#ff0000" stroke-width="6"/>
<g stroke="#ff0000" stroke-width="6" fill="#ff0000">
<circle cx="428" cy="396" r="3.5"/>
</g>
<path d="M445,389v -39" fill="none" stroke="#ff0000" stroke-width="6"/>
<path d="M445,343v -40" fill="none" stroke="#ff0000" stroke-width="6"/>
<path d="M437,346h 5" fill="none" stroke="#ff0000" stroke-width="6"/>
<path d="M448,346h 6" fill="none" stroke="#ff0000" stroke-width="6"/>
<g stroke="#ff0000" stroke-width="6" fill="#ff0000">
<circle cx="445" cy="346" r="3.5"/>
</g>
<path d="M462,298v -48" fill="none" stroke="#ff0000" stroke-width="6"/>
<path d="M462,243v -48" fill="none" stroke="#ff0000" stroke-width="6"/>
<path d="M454,247h 5" fill="none" stroke="#ff0000" stroke-width="6"/>
<path d="M465,247h 6" fill="none" stroke="#ff0000" stroke-width="6"/>
<g stroke="#ff0000" stroke-width="6" fill="#ff0000">
<circle cx="462" cy="247" r="3.5"/>
</g>
<path d="M479,393v -19" fill="none" stroke="#ff0000" stroke-width="6"/>
<g stroke="#ff0000" stroke-width="6" fill="#ff0000">
<circle cx="479" cy="396" r="3.5"/>
</g>
<path d="M496,205v -45" fill="none" stroke="#ff0000" stroke-width="6"/>
<path d="M496,154v -45" fill="none" stroke="#ff0000" stroke-width="6"/>
<path d="M488,157h 5" fill="none" stroke="#ff0000" stroke-width="6"/>
<path d="M499,157h 6" fill="none" stroke="#ff0000" stroke-width="6"/>
<g stroke="#ff0000" stroke-width="6" fill="#ff0000">
<circle cx="496" cy="157" r="3.5"/>
</g>
<path d="M513,393v -26" fill="none" stroke="#ff0000" stroke-width="6"/>
<g stroke="#ff0000" stroke-width="6" fill="#ff0000">
<circle cx="513" cy="396" r="3.5"/>
</g>
<path d="M332,107h 42" fill="none" stroke="#ff0000" stroke-width="6"/>
<rect x="113" y="-4" width="286" height="38" fill="white"/>
<text x="134" y="24" fill="black" font-size="30" font-family="Helvetica" font-weight="bold">
IGHD3-3_star_02
</text></svg>
