<?xml version="1.0" standalone="no"?>
<svg width="567" height="466" viewBox="0 0 567 466" xmlns="http://www.w3.org/2000/svg">
<title>
/bbx/output/_plots/example/hmm/vd_insertion/plots/IGHD4-17_star_01-vd_insertion.svg
</title>
<desc>
Creator: ROOT Version 5.34/14
CreationDate: Thu Jul 30 18:25:16 2015</desc>
<defs>
</defs>
<rect x="0" y="0" width="567" height="466" fill="white"/>
<rect x="79" y="37" width="443" height="359" fill="none" stroke="black"/>
<rect x="79" y="37" width="443" height="359" fill="none" stroke="black"/>
<path d="M79,396h 443" fill="none" stroke="black" stroke-width="3"/>
<path d="M204,385v 11" fill="none" stroke="black" stroke-width="3"/>
<path d="M231,391v 5" fill="none" stroke="black" stroke-width="3"/>
<path d="M259,391v 5" fill="none" stroke="black" stroke-width="3"/>
<path d="M287,391v 5" fill="none" stroke="black" stroke-width="3"/>
<path d="M314,391v 5" fill="none" stroke="black" stroke-width="3"/>
<path d="M342,385v 11" fill="none" stroke="black" stroke-width="3"/>
<path d="M370,391v 5" fill="none" stroke="black" stroke-width="3"/>
<path d="M397,391v 5" fill="none" stroke="black" stroke-width="3"/>
<path d="M425,391v 5" fill="none" stroke="black" stroke-width="3"/>
<path d="M452,391v 5" fill="none" stroke="black" stroke-width="3"/>
<path d="M480,385v 11" fill="none" stroke="black" stroke-width="3"/>
<path d="M204,385v 11" fill="none" stroke="black" stroke-width="3"/>
<path d="M176,391v 5" fill="none" stroke="black" stroke-width="3"/>
<path d="M148,391v 5" fill="none" stroke="black" stroke-width="3"/>
<path d="M121,391v 5" fill="none" stroke="black" stroke-width="3"/>
<path d="M93,391v 5" fill="none" stroke="black" stroke-width="3"/>
<path d="M480,385v 11" fill="none" stroke="black" stroke-width="3"/>
<path d="M508,391v 5" fill="none" stroke="black" stroke-width="3"/>
<text x="198" y="416" fill="black" font-size="21" font-family="Times" font-weight="bold">
5
</text>
<text x="330" y="416" fill="black" font-size="21" font-family="Times" font-weight="bold">
10
</text>
<text x="468" y="416" fill="black" font-size="21" font-family="Times" font-weight="bold">
15
</text>
<path d="M79,37h 443" fill="none" stroke="black" stroke-width="3"/>
<path d="M204,48v -11" fill="none" stroke="black" stroke-width="3"/>
<path d="M231,43v -6" fill="none" stroke="black" stroke-width="3"/>
<path d="M259,43v -6" fill="none" stroke="black" stroke-width="3"/>
<path d="M287,43v -6" fill="none" stroke="black" stroke-width="3"/>
<path d="M314,43v -6" fill="none" stroke="black" stroke-width="3"/>
<path d="M342,48v -11" fill="none" stroke="black" stroke-width="3"/>
<path d="M370,43v -6" fill="none" stroke="black" stroke-width="3"/>
<path d="M397,43v -6" fill="none" stroke="black" stroke-width="3"/>
<path d="M425,43v -6" fill="none" stroke="black" stroke-width="3"/>
<path d="M452,43v -6" fill="none" stroke="black" stroke-width="3"/>
<path d="M480,48v -11" fill="none" stroke="black" stroke-width="3"/>
<path d="M204,48v -11" fill="none" stroke="black" stroke-width="3"/>
<path d="M176,43v -6" fill="none" stroke="black" stroke-width="3"/>
<path d="M148,43v -6" fill="none" stroke="black" stroke-width="3"/>
<path d="M121,43v -6" fill="none" stroke="black" stroke-width="3"/>
<path d="M93,43v -6" fill="none" stroke="black" stroke-width="3"/>
<path d="M480,48v -11" fill="none" stroke="black" stroke-width="3"/>
<path d="M508,43v -6" fill="none" stroke="black" stroke-width="3"/>
<path d="M79,396v -359" fill="none" stroke="black" stroke-width="3"/>
<path d="M92,396h -13" fill="none" stroke="black" stroke-width="3"/>
<path d="M86,376h -7" fill="none" stroke="black" stroke-width="3"/>
<path d="M86,356h -7" fill="none" stroke="black" stroke-width="3"/>
<path d="M86,336h -7" fill="none" stroke="black" stroke-width="3"/>
<path d="M86,316h -7" fill="none" stroke="black" stroke-width="3"/>
<path d="M92,296h -13" fill="none" stroke="black" stroke-width="3"/>
<path d="M86,277h -7" fill="none" stroke="black" stroke-width="3"/>
<path d="M86,257h -7" fill="none" stroke="black" stroke-width="3"/>
<path d="M86,237h -7" fill="none" stroke="black" stroke-width="3"/>
<path d="M86,217h -7" fill="none" stroke="black" stroke-width="3"/>
<path d="M92,197h -13" fill="none" stroke="black" stroke-width="3"/>
<path d="M86,177h -7" fill="none" stroke="black" stroke-width="3"/>
<path d="M86,157h -7" fill="none" stroke="black" stroke-width="3"/>
<path d="M86,137h -7" fill="none" stroke="black" stroke-width="3"/>
<path d="M86,117h -7" fill="none" stroke="black" stroke-width="3"/>
<path d="M92,97h -13" fill="none" stroke="black" stroke-width="3"/>
<path d="M92,97h -13" fill="none" stroke="black" stroke-width="3"/>
<path d="M86,77h -7" fill="none" stroke="black" stroke-width="3"/>
<path d="M86,57h -7" fill="none" stroke="black" stroke-width="3"/>
<text x="63" y="404" fill="black" font-size="21" font-family="Times" font-weight="bold">
0
</text>
<text x="64" y="304" fill="black" font-size="21" font-family="Times" font-weight="bold">
1
</text>
<text x="63" y="205" fill="black" font-size="21" font-family="Times" font-weight="bold">
2
</text>
<text x="63" y="105" fill="black" font-size="21" font-family="Times" font-weight="bold">
3
</text>
<path d="M522,396v -359" fill="none" stroke="black" stroke-width="3"/>
<path d="M508,396h 14" fill="none" stroke="black" stroke-width="3"/>
<path d="M515,376h 7" fill="none" stroke="black" stroke-width="3"/>
<path d="M515,356h 7" fill="none" stroke="black" stroke-width="3"/>
<path d="M515,336h 7" fill="none" stroke="black" stroke-width="3"/>
<path d="M515,316h 7" fill="none" stroke="black" stroke-width="3"/>
<path d="M508,296h 14" fill="none" stroke="black" stroke-width="3"/>
<path d="M515,277h 7" fill="none" stroke="black" stroke-width="3"/>
<path d="M515,257h 7" fill="none" stroke="black" stroke-width="3"/>
<path d="M515,237h 7" fill="none" stroke="black" stroke-width="3"/>
<path d="M515,217h 7" fill="none" stroke="black" stroke-width="3"/>
<path d="M508,197h 14" fill="none" stroke="black" stroke-width="3"/>
<path d="M515,177h 7" fill="none" stroke="black" stroke-width="3"/>
<path d="M515,157h 7" fill="none" stroke="black" stroke-width="3"/>
<path d="M515,137h 7" fill="none" stroke="black" stroke-width="3"/>
<path d="M515,117h 7" fill="none" stroke="black" stroke-width="3"/>
<path d="M508,97h 14" fill="none" stroke="black" stroke-width="3"/>
<path d="M508,97h 14" fill="none" stroke="black" stroke-width="3"/>
<path d="M515,77h 7" fill="none" stroke="black" stroke-width="3"/>
<path d="M515,57h 7" fill="none" stroke="black" stroke-width="3"/>
<rect x="113" y="-4" width="397" height="38" fill="white"/>
<text x="129" y="22" fill="black" font-size="24" font-family="Helvetica" font-weight="bold">
IGHD4-17_star_01-vd_insertion
</text>
<path d="M93,270v -170" fill="none" stroke="#ff0000" stroke-width="6"/>
<path d="M93,94v -57" fill="none" stroke="#ff0000" stroke-width="6"/>
<g stroke="#ff0000" stroke-width="6" fill="#ff0000">
<circle cx="93" cy="97" r="3.5"/>
</g>
<path d="M231,270v -170" fill="none" stroke="#ff0000" stroke-width="6"/>
<path d="M231,94v -57" fill="none" stroke="#ff0000" stroke-width="6"/>
<g stroke="#ff0000" stroke-width="6" fill="#ff0000">
<circle cx="231" cy="97" r="3.5"/>
</g>
<path d="M259,338v -138" fill="none" stroke="#ff0000" stroke-width="6"/>
<path d="M259,194v -138" fill="none" stroke="#ff0000" stroke-width="6"/>
<g stroke="#ff0000" stroke-width="6" fill="#ff0000">
<circle cx="259" cy="197" r="3.5"/>
</g>
<path d="M342,338v -138" fill="none" stroke="#ff0000" stroke-width="6"/>
<path d="M342,194v -138" fill="none" stroke="#ff0000" stroke-width="6"/>
<g stroke="#ff0000" stroke-width="6" fill="#ff0000">
<circle cx="342" cy="197" r="3.5"/>
</g>
<path d="M508,338v -138" fill="none" stroke="#ff0000" stroke-width="6"/>
<path d="M508,194v -138" fill="none" stroke="#ff0000" stroke-width="6"/>
<g stroke="#ff0000" stroke-width="6" fill="#ff0000">
<circle cx="508" cy="197" r="3.5"/>
</g>
<path d="M80,395v -298h 27v 298h 111v -298h 27v 100h 28v 198h 55v -198h 28v 198h 138v -198h 28" fill="none" stroke="#ff0000" stroke-width="6"/>
<path d="M332,107h 42" fill="none" stroke="#ff0000" stroke-width="6"/>
<rect x="113" y="-4" width="397" height="38" fill="white"/>
<text x="129" y="22" fill="black" font-size="24" font-family="Helvetica" font-weight="bold">
IGHD4-17_star_01-vd_insertion
</text></svg>
