<?xml version="1.0" standalone="no"?>
<svg width="567" height="466" viewBox="0 0 567 466" xmlns="http://www.w3.org/2000/svg">
<title>
/bbx/output/_plots/example/sw/true/mute-freqs/j/plots/IGHJ6_star_02.svg
</title>
<desc>
Creator: ROOT Version 5.34/14
CreationDate: Thu Jul 30 18:24:58 2015</desc>
<defs>
</defs>
<rect x="0" y="0" width="567" height="466" fill="white"/>
<rect x="79" y="37" width="443" height="359" fill="none" stroke="black"/>
<rect x="79" y="37" width="443" height="359" fill="none" stroke="black"/>
<path d="M79,396h 443" fill="none" stroke="black" stroke-width="3"/>
<path d="M184,385v 11" fill="none" stroke="black" stroke-width="3"/>
<path d="M207,391v 5" fill="none" stroke="black" stroke-width="3"/>
<path d="M229,391v 5" fill="none" stroke="black" stroke-width="3"/>
<path d="M251,391v 5" fill="none" stroke="black" stroke-width="3"/>
<path d="M273,391v 5" fill="none" stroke="black" stroke-width="3"/>
<path d="M295,385v 11" fill="none" stroke="black" stroke-width="3"/>
<path d="M317,391v 5" fill="none" stroke="black" stroke-width="3"/>
<path d="M339,391v 5" fill="none" stroke="black" stroke-width="3"/>
<path d="M361,391v 5" fill="none" stroke="black" stroke-width="3"/>
<path d="M383,391v 5" fill="none" stroke="black" stroke-width="3"/>
<path d="M405,385v 11" fill="none" stroke="black" stroke-width="3"/>
<path d="M428,391v 5" fill="none" stroke="black" stroke-width="3"/>
<path d="M450,391v 5" fill="none" stroke="black" stroke-width="3"/>
<path d="M472,391v 5" fill="none" stroke="black" stroke-width="3"/>
<path d="M494,391v 5" fill="none" stroke="black" stroke-width="3"/>
<path d="M516,385v 11" fill="none" stroke="black" stroke-width="3"/>
<path d="M184,385v 11" fill="none" stroke="black" stroke-width="3"/>
<path d="M162,391v 5" fill="none" stroke="black" stroke-width="3"/>
<path d="M140,391v 5" fill="none" stroke="black" stroke-width="3"/>
<path d="M118,391v 5" fill="none" stroke="black" stroke-width="3"/>
<path d="M96,391v 5" fill="none" stroke="black" stroke-width="3"/>
<path d="M516,385v 11" fill="none" stroke="black" stroke-width="3"/>
<text x="173" y="416" fill="black" font-size="21" font-family="Times" font-weight="bold">
10
</text>
<text x="283" y="416" fill="black" font-size="21" font-family="Times" font-weight="bold">
20
</text>
<text x="393" y="416" fill="black" font-size="21" font-family="Times" font-weight="bold">
30
</text>
<text x="504" y="416" fill="black" font-size="21" font-family="Times" font-weight="bold">
40
</text>
<path d="M79,37h 443" fill="none" stroke="black" stroke-width="3"/>
<path d="M184,48v -11" fill="none" stroke="black" stroke-width="3"/>
<path d="M207,43v -6" fill="none" stroke="black" stroke-width="3"/>
<path d="M229,43v -6" fill="none" stroke="black" stroke-width="3"/>
<path d="M251,43v -6" fill="none" stroke="black" stroke-width="3"/>
<path d="M273,43v -6" fill="none" stroke="black" stroke-width="3"/>
<path d="M295,48v -11" fill="none" stroke="black" stroke-width="3"/>
<path d="M317,43v -6" fill="none" stroke="black" stroke-width="3"/>
<path d="M339,43v -6" fill="none" stroke="black" stroke-width="3"/>
<path d="M361,43v -6" fill="none" stroke="black" stroke-width="3"/>
<path d="M383,43v -6" fill="none" stroke="black" stroke-width="3"/>
<path d="M405,48v -11" fill="none" stroke="black" stroke-width="3"/>
<path d="M428,43v -6" fill="none" stroke="black" stroke-width="3"/>
<path d="M450,43v -6" fill="none" stroke="black" stroke-width="3"/>
<path d="M472,43v -6" fill="none" stroke="black" stroke-width="3"/>
<path d="M494,43v -6" fill="none" stroke="black" stroke-width="3"/>
<path d="M516,48v -11" fill="none" stroke="black" stroke-width="3"/>
<path d="M184,48v -11" fill="none" stroke="black" stroke-width="3"/>
<path d="M162,43v -6" fill="none" stroke="black" stroke-width="3"/>
<path d="M140,43v -6" fill="none" stroke="black" stroke-width="3"/>
<path d="M118,43v -6" fill="none" stroke="black" stroke-width="3"/>
<path d="M96,43v -6" fill="none" stroke="black" stroke-width="3"/>
<path d="M516,48v -11" fill="none" stroke="black" stroke-width="3"/>
<path d="M79,396v -359" fill="none" stroke="black" stroke-width="3"/>
<path d="M92,396h -13" fill="none" stroke="black" stroke-width="3"/>
<path d="M86,376h -7" fill="none" stroke="black" stroke-width="3"/>
<path d="M86,355h -7" fill="none" stroke="black" stroke-width="3"/>
<path d="M86,334h -7" fill="none" stroke="black" stroke-width="3"/>
<path d="M92,314h -13" fill="none" stroke="black" stroke-width="3"/>
<path d="M86,293h -7" fill="none" stroke="black" stroke-width="3"/>
<path d="M86,273h -7" fill="none" stroke="black" stroke-width="3"/>
<path d="M86,252h -7" fill="none" stroke="black" stroke-width="3"/>
<path d="M92,232h -13" fill="none" stroke="black" stroke-width="3"/>
<path d="M86,211h -7" fill="none" stroke="black" stroke-width="3"/>
<path d="M86,191h -7" fill="none" stroke="black" stroke-width="3"/>
<path d="M86,170h -7" fill="none" stroke="black" stroke-width="3"/>
<path d="M92,149h -13" fill="none" stroke="black" stroke-width="3"/>
<path d="M86,129h -7" fill="none" stroke="black" stroke-width="3"/>
<path d="M86,108h -7" fill="none" stroke="black" stroke-width="3"/>
<path d="M86,88h -7" fill="none" stroke="black" stroke-width="3"/>
<path d="M92,67h -13" fill="none" stroke="black" stroke-width="3"/>
<path d="M92,67h -13" fill="none" stroke="black" stroke-width="3"/>
<path d="M86,47h -7" fill="none" stroke="black" stroke-width="3"/>
<text x="46" y="404" fill="black" font-size="21" font-family="Times" font-weight="bold">
0.0
</text>
<text x="46" y="322" fill="black" font-size="21" font-family="Times" font-weight="bold">
0.2
</text>
<text x="46" y="240" fill="black" font-size="21" font-family="Times" font-weight="bold">
0.4
</text>
<text x="46" y="157" fill="black" font-size="21" font-family="Times" font-weight="bold">
0.6
</text>
<text x="46" y="75" fill="black" font-size="21" font-family="Times" font-weight="bold">
0.8
</text>
<path d="M522,396v -359" fill="none" stroke="black" stroke-width="3"/>
<path d="M508,396h 14" fill="none" stroke="black" stroke-width="3"/>
<path d="M515,376h 7" fill="none" stroke="black" stroke-width="3"/>
<path d="M515,355h 7" fill="none" stroke="black" stroke-width="3"/>
<path d="M515,334h 7" fill="none" stroke="black" stroke-width="3"/>
<path d="M508,314h 14" fill="none" stroke="black" stroke-width="3"/>
<path d="M515,293h 7" fill="none" stroke="black" stroke-width="3"/>
<path d="M515,273h 7" fill="none" stroke="black" stroke-width="3"/>
<path d="M515,252h 7" fill="none" stroke="black" stroke-width="3"/>
<path d="M508,232h 14" fill="none" stroke="black" stroke-width="3"/>
<path d="M515,211h 7" fill="none" stroke="black" stroke-width="3"/>
<path d="M515,191h 7" fill="none" stroke="black" stroke-width="3"/>
<path d="M515,170h 7" fill="none" stroke="black" stroke-width="3"/>
<path d="M508,149h 14" fill="none" stroke="black" stroke-width="3"/>
<path d="M515,129h 7" fill="none" stroke="black" stroke-width="3"/>
<path d="M515,108h 7" fill="none" stroke="black" stroke-width="3"/>
<path d="M515,88h 7" fill="none" stroke="black" stroke-width="3"/>
<path d="M508,67h 14" fill="none" stroke="black" stroke-width="3"/>
<path d="M508,67h 14" fill="none" stroke="black" stroke-width="3"/>
<path d="M515,47h 7" fill="none" stroke="black" stroke-width="3"/>
<rect x="113" y="-4" width="248" height="38" fill="white"/>
<text x="131" y="24" fill="black" font-size="30" font-family="Helvetica" font-weight="bold">
IGHJ6_star_02
</text>
<path d="M85,393v -46" fill="none" stroke="#ff0000" stroke-width="6"/>
<g stroke="#ff0000" stroke-width="6" fill="#ff0000">
<circle cx="85" cy="396" r="3.5"/>
</g>
<path d="M96,393v -46" fill="none" stroke="#ff0000" stroke-width="6"/>
<g stroke="#ff0000" stroke-width="6" fill="#ff0000">
<circle cx="96" cy="396" r="3.5"/>
</g>
<path d="M107,393v -46" fill="none" stroke="#ff0000" stroke-width="6"/>
<g stroke="#ff0000" stroke-width="6" fill="#ff0000">
<circle cx="107" cy="396" r="3.5"/>
</g>
<path d="M118,393v -46" fill="none" stroke="#ff0000" stroke-width="6"/>
<g stroke="#ff0000" stroke-width="6" fill="#ff0000">
<circle cx="118" cy="396" r="3.5"/>
</g>
<path d="M129,393v -46" fill="none" stroke="#ff0000" stroke-width="6"/>
<g stroke="#ff0000" stroke-width="6" fill="#ff0000">
<circle cx="129" cy="396" r="3.5"/>
</g>
<path d="M140,345v -83" fill="none" stroke="#ff0000" stroke-width="6"/>
<path d="M140,256v -83" fill="none" stroke="#ff0000" stroke-width="6"/>
<path d="M135,259h 2" fill="none" stroke="#ff0000" stroke-width="6"/>
<path d="M143,259h 3" fill="none" stroke="#ff0000" stroke-width="6"/>
<g stroke="#ff0000" stroke-width="6" fill="#ff0000">
<circle cx="140" cy="259" r="3.5"/>
</g>
<path d="M151,393v -27" fill="none" stroke="#ff0000" stroke-width="6"/>
<g stroke="#ff0000" stroke-width="6" fill="#ff0000">
<circle cx="151" cy="396" r="3.5"/>
</g>
<path d="M162,261v -67" fill="none" stroke="#ff0000" stroke-width="6"/>
<path d="M162,187v -67" fill="none" stroke="#ff0000" stroke-width="6"/>
<path d="M157,191h 2" fill="none" stroke="#ff0000" stroke-width="6"/>
<path d="M166,191h 2" fill="none" stroke="#ff0000" stroke-width="6"/>
<g stroke="#ff0000" stroke-width="6" fill="#ff0000">
<circle cx="162" cy="191" r="3.5"/>
</g>
<path d="M173,387v -56" fill="none" stroke="#ff0000" stroke-width="6"/>
<path d="M173,324v -55" fill="none" stroke="#ff0000" stroke-width="6"/>
<path d="M168,328h 2" fill="none" stroke="#ff0000" stroke-width="6"/>
<path d="M177,328h 2" fill="none" stroke="#ff0000" stroke-width="6"/>
<g stroke="#ff0000" stroke-width="6" fill="#ff0000">
<circle cx="173" cy="328" r="3.5"/>
</g>
<path d="M184,387v -56" fill="none" stroke="#ff0000" stroke-width="6"/>
<path d="M184,324v -55" fill="none" stroke="#ff0000" stroke-width="6"/>
<path d="M179,328h 2" fill="none" stroke="#ff0000" stroke-width="6"/>
<path d="M188,328h 2" fill="none" stroke="#ff0000" stroke-width="6"/>
<g stroke="#ff0000" stroke-width="6" fill="#ff0000">
<circle cx="184" cy="328" r="3.5"/>
</g>
<path d="M195,261v -67" fill="none" stroke="#ff0000" stroke-width="6"/>
<path d="M195,187v -67" fill="none" stroke="#ff0000" stroke-width="6"/>
<path d="M190,191h 2" fill="none" stroke="#ff0000" stroke-width="6"/>
<path d="M199,191h 2" fill="none" stroke="#ff0000" stroke-width="6"/>
<g stroke="#ff0000" stroke-width="6" fill="#ff0000">
<circle cx="195" cy="191" r="3.5"/>
</g>
<path d="M207,387v -56" fill="none" stroke="#ff0000" stroke-width="6"/>
<path d="M207,324v -55" fill="none" stroke="#ff0000" stroke-width="6"/>
<path d="M201,328h 2" fill="none" stroke="#ff0000" stroke-width="6"/>
<path d="M210,328h 2" fill="none" stroke="#ff0000" stroke-width="6"/>
<g stroke="#ff0000" stroke-width="6" fill="#ff0000">
<circle cx="207" cy="328" r="3.5"/>
</g>
<path d="M218,393v -27" fill="none" stroke="#ff0000" stroke-width="6"/>
<g stroke="#ff0000" stroke-width="6" fill="#ff0000">
<circle cx="218" cy="396" r="3.5"/>
</g>
<path d="M229,393v -27" fill="none" stroke="#ff0000" stroke-width="6"/>
<g stroke="#ff0000" stroke-width="6" fill="#ff0000">
<circle cx="229" cy="396" r="3.5"/>
</g>
<path d="M240,393v -27" fill="none" stroke="#ff0000" stroke-width="6"/>
<g stroke="#ff0000" stroke-width="6" fill="#ff0000">
<circle cx="240" cy="396" r="3.5"/>
</g>
<path d="M251,393v -27" fill="none" stroke="#ff0000" stroke-width="6"/>
<g stroke="#ff0000" stroke-width="6" fill="#ff0000">
<circle cx="251" cy="396" r="3.5"/>
</g>
<path d="M262,393v -27" fill="none" stroke="#ff0000" stroke-width="6"/>
<g stroke="#ff0000" stroke-width="6" fill="#ff0000">
<circle cx="262" cy="396" r="3.5"/>
</g>
<path d="M273,393v -27" fill="none" stroke="#ff0000" stroke-width="6"/>
<g stroke="#ff0000" stroke-width="6" fill="#ff0000">
<circle cx="273" cy="396" r="3.5"/>
</g>
<path d="M284,393v -15" fill="none" stroke="#ff0000" stroke-width="6"/>
<g stroke="#ff0000" stroke-width="6" fill="#ff0000">
<circle cx="284" cy="396" r="3.5"/>
</g>
<path d="M295,393v -15" fill="none" stroke="#ff0000" stroke-width="6"/>
<g stroke="#ff0000" stroke-width="6" fill="#ff0000">
<circle cx="295" cy="396" r="3.5"/>
</g>
<path d="M306,393v -15" fill="none" stroke="#ff0000" stroke-width="6"/>
<g stroke="#ff0000" stroke-width="6" fill="#ff0000">
<circle cx="306" cy="396" r="3.5"/>
</g>
<path d="M317,393v -15" fill="none" stroke="#ff0000" stroke-width="6"/>
<g stroke="#ff0000" stroke-width="6" fill="#ff0000">
<circle cx="317" cy="396" r="3.5"/>
</g>
<path d="M328,393v -15" fill="none" stroke="#ff0000" stroke-width="6"/>
<g stroke="#ff0000" stroke-width="6" fill="#ff0000">
<circle cx="328" cy="396" r="3.5"/>
</g>
<path d="M339,334v -47" fill="none" stroke="#ff0000" stroke-width="6"/>
<path d="M339,281v -47" fill="none" stroke="#ff0000" stroke-width="6"/>
<path d="M334,284h 2" fill="none" stroke="#ff0000" stroke-width="6"/>
<path d="M342,284h 3" fill="none" stroke="#ff0000" stroke-width="6"/>
<g stroke="#ff0000" stroke-width="6" fill="#ff0000">
<circle cx="339" cy="284" r="3.5"/>
</g>
<path d="M350,393v -15" fill="none" stroke="#ff0000" stroke-width="6"/>
<g stroke="#ff0000" stroke-width="6" fill="#ff0000">
<circle cx="350" cy="396" r="3.5"/>
</g>
<path d="M361,393v -15" fill="none" stroke="#ff0000" stroke-width="6"/>
<g stroke="#ff0000" stroke-width="6" fill="#ff0000">
<circle cx="361" cy="396" r="3.5"/>
</g>
<path d="M372,393v -15" fill="none" stroke="#ff0000" stroke-width="6"/>
<g stroke="#ff0000" stroke-width="6" fill="#ff0000">
<circle cx="372" cy="396" r="3.5"/>
</g>
<path d="M383,393v -15" fill="none" stroke="#ff0000" stroke-width="6"/>
<g stroke="#ff0000" stroke-width="6" fill="#ff0000">
<circle cx="383" cy="396" r="3.5"/>
</g>
<path d="M394,393v -15" fill="none" stroke="#ff0000" stroke-width="6"/>
<g stroke="#ff0000" stroke-width="6" fill="#ff0000">
<circle cx="394" cy="396" r="3.5"/>
</g>
<path d="M405,393v -15" fill="none" stroke="#ff0000" stroke-width="6"/>
<g stroke="#ff0000" stroke-width="6" fill="#ff0000">
<circle cx="405" cy="396" r="3.5"/>
</g>
<path d="M417,393v -15" fill="none" stroke="#ff0000" stroke-width="6"/>
<g stroke="#ff0000" stroke-width="6" fill="#ff0000">
<circle cx="417" cy="396" r="3.5"/>
</g>
<path d="M428,393v -15" fill="none" stroke="#ff0000" stroke-width="6"/>
<g stroke="#ff0000" stroke-width="6" fill="#ff0000">
<circle cx="428" cy="396" r="3.5"/>
</g>
<path d="M439,393v -15" fill="none" stroke="#ff0000" stroke-width="6"/>
<g stroke="#ff0000" stroke-width="6" fill="#ff0000">
<circle cx="439" cy="396" r="3.5"/>
</g>
<path d="M450,393v -15" fill="none" stroke="#ff0000" stroke-width="6"/>
<g stroke="#ff0000" stroke-width="6" fill="#ff0000">
<circle cx="450" cy="396" r="3.5"/>
</g>
<path d="M461,393v -15" fill="none" stroke="#ff0000" stroke-width="6"/>
<g stroke="#ff0000" stroke-width="6" fill="#ff0000">
<circle cx="461" cy="396" r="3.5"/>
</g>
<path d="M472,393v -15" fill="none" stroke="#ff0000" stroke-width="6"/>
<g stroke="#ff0000" stroke-width="6" fill="#ff0000">
<circle cx="472" cy="396" r="3.5"/>
</g>
<path d="M483,148v -48" fill="none" stroke="#ff0000" stroke-width="6"/>
<path d="M483,94v -47" fill="none" stroke="#ff0000" stroke-width="6"/>
<path d="M477,97h 3" fill="none" stroke="#ff0000" stroke-width="6"/>
<path d="M486,97h 2" fill="none" stroke="#ff0000" stroke-width="6"/>
<g stroke="#ff0000" stroke-width="6" fill="#ff0000">
<circle cx="483" cy="97" r="3.5"/>
</g>
<path d="M494,393v -15" fill="none" stroke="#ff0000" stroke-width="6"/>
<g stroke="#ff0000" stroke-width="6" fill="#ff0000">
<circle cx="494" cy="396" r="3.5"/>
</g>
<path d="M505,393v -15" fill="none" stroke="#ff0000" stroke-width="6"/>
<g stroke="#ff0000" stroke-width="6" fill="#ff0000">
<circle cx="505" cy="396" r="3.5"/>
</g>
<path d="M516,393v -27" fill="none" stroke="#ff0000" stroke-width="6"/>
<g stroke="#ff0000" stroke-width="6" fill="#ff0000">
<circle cx="516" cy="396" r="3.5"/>
</g>
<path d="M332,107h 42" fill="none" stroke="#ff0000" stroke-width="6"/>
<path d="M394,426v -179" fill="none" stroke="black" stroke-width="3" stroke-dasharray=" 3, 3"/>
<rect x="113" y="-4" width="248" height="38" fill="white"/>
<text x="131" y="24" fill="black" font-size="30" font-family="Helvetica" font-weight="bold">
IGHJ6_star_02
</text></svg>
