<?xml version="1.0" standalone="no"?>
<svg width="567" height="466" viewBox="0 0 567 466" xmlns="http://www.w3.org/2000/svg">
<title>
/bbx/output/_plots/example/hmm/dj_insertion/plots/IGHJ4_star_02-dj_insertion.svg
</title>
<desc>
Creator: ROOT Version 5.34/14
CreationDate: Wed Aug 19 19:38:30 2015</desc>
<defs>
</defs>
<rect x="0" y="0" width="567" height="466" fill="white"/>
<rect x="79" y="37" width="443" height="359" fill="none" stroke="black"/>
<rect x="79" y="37" width="443" height="359" fill="none" stroke="black"/>
<path d="M79,396h 443" fill="none" stroke="black" stroke-width="3"/>
<path d="M92,385v 11" fill="none" stroke="black" stroke-width="3"/>
<path d="M118,391v 5" fill="none" stroke="black" stroke-width="3"/>
<path d="M144,391v 5" fill="none" stroke="black" stroke-width="3"/>
<path d="M170,391v 5" fill="none" stroke="black" stroke-width="3"/>
<path d="M196,391v 5" fill="none" stroke="black" stroke-width="3"/>
<path d="M222,385v 11" fill="none" stroke="black" stroke-width="3"/>
<path d="M248,391v 5" fill="none" stroke="black" stroke-width="3"/>
<path d="M274,391v 5" fill="none" stroke="black" stroke-width="3"/>
<path d="M300,391v 5" fill="none" stroke="black" stroke-width="3"/>
<path d="M326,391v 5" fill="none" stroke="black" stroke-width="3"/>
<path d="M352,385v 11" fill="none" stroke="black" stroke-width="3"/>
<path d="M379,391v 5" fill="none" stroke="black" stroke-width="3"/>
<path d="M405,391v 5" fill="none" stroke="black" stroke-width="3"/>
<path d="M431,391v 5" fill="none" stroke="black" stroke-width="3"/>
<path d="M457,391v 5" fill="none" stroke="black" stroke-width="3"/>
<path d="M483,385v 11" fill="none" stroke="black" stroke-width="3"/>
<path d="M92,385v 11" fill="none" stroke="black" stroke-width="3"/>
<path d="M483,385v 11" fill="none" stroke="black" stroke-width="3"/>
<path d="M509,391v 5" fill="none" stroke="black" stroke-width="3"/>
<text x="86" y="416" fill="black" font-size="21" font-family="Times" font-weight="bold">
0
</text>
<text x="217" y="416" fill="black" font-size="21" font-family="Times" font-weight="bold">
5
</text>
<text x="340" y="416" fill="black" font-size="21" font-family="Times" font-weight="bold">
10
</text>
<text x="471" y="416" fill="black" font-size="21" font-family="Times" font-weight="bold">
15
</text>
<path d="M79,37h 443" fill="none" stroke="black" stroke-width="3"/>
<path d="M92,48v -11" fill="none" stroke="black" stroke-width="3"/>
<path d="M118,43v -6" fill="none" stroke="black" stroke-width="3"/>
<path d="M144,43v -6" fill="none" stroke="black" stroke-width="3"/>
<path d="M170,43v -6" fill="none" stroke="black" stroke-width="3"/>
<path d="M196,43v -6" fill="none" stroke="black" stroke-width="3"/>
<path d="M222,48v -11" fill="none" stroke="black" stroke-width="3"/>
<path d="M248,43v -6" fill="none" stroke="black" stroke-width="3"/>
<path d="M274,43v -6" fill="none" stroke="black" stroke-width="3"/>
<path d="M300,43v -6" fill="none" stroke="black" stroke-width="3"/>
<path d="M326,43v -6" fill="none" stroke="black" stroke-width="3"/>
<path d="M352,48v -11" fill="none" stroke="black" stroke-width="3"/>
<path d="M379,43v -6" fill="none" stroke="black" stroke-width="3"/>
<path d="M405,43v -6" fill="none" stroke="black" stroke-width="3"/>
<path d="M431,43v -6" fill="none" stroke="black" stroke-width="3"/>
<path d="M457,43v -6" fill="none" stroke="black" stroke-width="3"/>
<path d="M483,48v -11" fill="none" stroke="black" stroke-width="3"/>
<path d="M92,48v -11" fill="none" stroke="black" stroke-width="3"/>
<path d="M483,48v -11" fill="none" stroke="black" stroke-width="3"/>
<path d="M509,43v -6" fill="none" stroke="black" stroke-width="3"/>
<path d="M79,396v -359" fill="none" stroke="black" stroke-width="3"/>
<path d="M92,396h -13" fill="none" stroke="black" stroke-width="3"/>
<path d="M86,373h -7" fill="none" stroke="black" stroke-width="3"/>
<path d="M86,350h -7" fill="none" stroke="black" stroke-width="3"/>
<path d="M86,327h -7" fill="none" stroke="black" stroke-width="3"/>
<path d="M86,304h -7" fill="none" stroke="black" stroke-width="3"/>
<path d="M92,281h -13" fill="none" stroke="black" stroke-width="3"/>
<path d="M86,258h -7" fill="none" stroke="black" stroke-width="3"/>
<path d="M86,235h -7" fill="none" stroke="black" stroke-width="3"/>
<path d="M86,212h -7" fill="none" stroke="black" stroke-width="3"/>
<path d="M86,189h -7" fill="none" stroke="black" stroke-width="3"/>
<path d="M92,166h -13" fill="none" stroke="black" stroke-width="3"/>
<path d="M86,143h -7" fill="none" stroke="black" stroke-width="3"/>
<path d="M86,120h -7" fill="none" stroke="black" stroke-width="3"/>
<path d="M86,97h -7" fill="none" stroke="black" stroke-width="3"/>
<path d="M86,74h -7" fill="none" stroke="black" stroke-width="3"/>
<path d="M92,51h -13" fill="none" stroke="black" stroke-width="3"/>
<path d="M92,51h -13" fill="none" stroke="black" stroke-width="3"/>
<text x="63" y="404" fill="black" font-size="21" font-family="Times" font-weight="bold">
0
</text>
<text x="51" y="289" fill="black" font-size="21" font-family="Times" font-weight="bold">
10
</text>
<text x="51" y="174" fill="black" font-size="21" font-family="Times" font-weight="bold">
20
</text>
<text x="51" y="59" fill="black" font-size="21" font-family="Times" font-weight="bold">
30
</text>
<path d="M522,396v -359" fill="none" stroke="black" stroke-width="3"/>
<path d="M508,396h 14" fill="none" stroke="black" stroke-width="3"/>
<path d="M515,373h 7" fill="none" stroke="black" stroke-width="3"/>
<path d="M515,350h 7" fill="none" stroke="black" stroke-width="3"/>
<path d="M515,327h 7" fill="none" stroke="black" stroke-width="3"/>
<path d="M515,304h 7" fill="none" stroke="black" stroke-width="3"/>
<path d="M508,281h 14" fill="none" stroke="black" stroke-width="3"/>
<path d="M515,258h 7" fill="none" stroke="black" stroke-width="3"/>
<path d="M515,235h 7" fill="none" stroke="black" stroke-width="3"/>
<path d="M515,212h 7" fill="none" stroke="black" stroke-width="3"/>
<path d="M515,189h 7" fill="none" stroke="black" stroke-width="3"/>
<path d="M508,166h 14" fill="none" stroke="black" stroke-width="3"/>
<path d="M515,143h 7" fill="none" stroke="black" stroke-width="3"/>
<path d="M515,120h 7" fill="none" stroke="black" stroke-width="3"/>
<path d="M515,97h 7" fill="none" stroke="black" stroke-width="3"/>
<path d="M515,74h 7" fill="none" stroke="black" stroke-width="3"/>
<path d="M508,51h 14" fill="none" stroke="black" stroke-width="3"/>
<path d="M508,51h 14" fill="none" stroke="black" stroke-width="3"/>
<rect x="113" y="-4" width="397" height="39" fill="white"/>
<text x="130" y="23" fill="black" font-size="28" font-family="Helvetica" font-weight="bold">
IGHJ4_star_02-dj_insertion
</text>
<path d="M92,156v -56" fill="none" stroke="#ff0000" stroke-width="6"/>
<path d="M92,94v -55" fill="none" stroke="#ff0000" stroke-width="6"/>
<g stroke="#ff0000" stroke-width="6" fill="#ff0000">
<circle cx="92" cy="97" r="3.5"/>
</g>
<path d="M118,337v -30" fill="none" stroke="#ff0000" stroke-width="6"/>
<path d="M118,301v -29" fill="none" stroke="#ff0000" stroke-width="6"/>
<g stroke="#ff0000" stroke-width="6" fill="#ff0000">
<circle cx="118" cy="304" r="3.5"/>
</g>
<path d="M144,382v -17" fill="none" stroke="#ff0000" stroke-width="6"/>
<path d="M144,358v -16" fill="none" stroke="#ff0000" stroke-width="6"/>
<g stroke="#ff0000" stroke-width="6" fill="#ff0000">
<circle cx="144" cy="362" r="3.5"/>
</g>
<path d="M170,396v -8" fill="none" stroke="#ff0000" stroke-width="6"/>
<path d="M170,381v -8" fill="none" stroke="#ff0000" stroke-width="6"/>
<g stroke="#ff0000" stroke-width="6" fill="#ff0000">
<circle cx="170" cy="385" r="3.5"/>
</g>
<path d="M196,382v -17" fill="none" stroke="#ff0000" stroke-width="6"/>
<path d="M196,358v -16" fill="none" stroke="#ff0000" stroke-width="6"/>
<g stroke="#ff0000" stroke-width="6" fill="#ff0000">
<circle cx="196" cy="362" r="3.5"/>
</g>
<path d="M222,382v -17" fill="none" stroke="#ff0000" stroke-width="6"/>
<path d="M222,358v -16" fill="none" stroke="#ff0000" stroke-width="6"/>
<g stroke="#ff0000" stroke-width="6" fill="#ff0000">
<circle cx="222" cy="362" r="3.5"/>
</g>
<path d="M248,396v -8" fill="none" stroke="#ff0000" stroke-width="6"/>
<path d="M248,381v -8" fill="none" stroke="#ff0000" stroke-width="6"/>
<g stroke="#ff0000" stroke-width="6" fill="#ff0000">
<circle cx="248" cy="385" r="3.5"/>
</g>
<path d="M274,346v -27" fill="none" stroke="#ff0000" stroke-width="6"/>
<path d="M274,312v -27" fill="none" stroke="#ff0000" stroke-width="6"/>
<g stroke="#ff0000" stroke-width="6" fill="#ff0000">
<circle cx="274" cy="316" r="3.5"/>
</g>
<path d="M300,327v -31" fill="none" stroke="#ff0000" stroke-width="6"/>
<path d="M300,289v -31" fill="none" stroke="#ff0000" stroke-width="6"/>
<g stroke="#ff0000" stroke-width="6" fill="#ff0000">
<circle cx="300" cy="293" r="3.5"/>
</g>
<path d="M326,346v -27" fill="none" stroke="#ff0000" stroke-width="6"/>
<path d="M326,312v -27" fill="none" stroke="#ff0000" stroke-width="6"/>
<g stroke="#ff0000" stroke-width="6" fill="#ff0000">
<circle cx="326" cy="316" r="3.5"/>
</g>
<path d="M379,346v -27" fill="none" stroke="#ff0000" stroke-width="6"/>
<path d="M379,312v -27" fill="none" stroke="#ff0000" stroke-width="6"/>
<g stroke="#ff0000" stroke-width="6" fill="#ff0000">
<circle cx="379" cy="316" r="3.5"/>
</g>
<path d="M405,389v -13" fill="none" stroke="#ff0000" stroke-width="6"/>
<path d="M405,370v -13" fill="none" stroke="#ff0000" stroke-width="6"/>
<g stroke="#ff0000" stroke-width="6" fill="#ff0000">
<circle cx="405" cy="373" r="3.5"/>
</g>
<path d="M431,396v -8" fill="none" stroke="#ff0000" stroke-width="6"/>
<path d="M431,381v -8" fill="none" stroke="#ff0000" stroke-width="6"/>
<g stroke="#ff0000" stroke-width="6" fill="#ff0000">
<circle cx="431" cy="385" r="3.5"/>
</g>
<path d="M457,382v -17" fill="none" stroke="#ff0000" stroke-width="6"/>
<path d="M457,358v -16" fill="none" stroke="#ff0000" stroke-width="6"/>
<g stroke="#ff0000" stroke-width="6" fill="#ff0000">
<circle cx="457" cy="362" r="3.5"/>
</g>
<path d="M509,389v -13" fill="none" stroke="#ff0000" stroke-width="6"/>
<path d="M509,370v -13" fill="none" stroke="#ff0000" stroke-width="6"/>
<g stroke="#ff0000" stroke-width="6" fill="#ff0000">
<circle cx="509" cy="373" r="3.5"/>
</g>
<path d="M80,395v -298h 25v 207h 26v 58h 26v 23h 26v -23h 52v 23h 26v -69h 26v -23h 26v 23h 26v 79h 27v -79h 26v 57h 26v 12h 26v -23h 26v 33h 26v -22h 26" fill="none" stroke="#ff0000" stroke-width="6"/>
<path d="M332,107h 42" fill="none" stroke="#ff0000" stroke-width="6"/>
<rect x="113" y="-4" width="397" height="39" fill="white"/>
<text x="130" y="23" fill="black" font-size="28" font-family="Helvetica" font-weight="bold">
IGHJ4_star_02-dj_insertion
</text></svg>
