<?xml version="1.0" standalone="no"?>
<svg width="567" height="466" viewBox="0 0 567 466" xmlns="http://www.w3.org/2000/svg">
<title>
/bbx/output/_plots/example/hmm/mute-freqs/v/plots/IGHV3-23D_star_01.svg
</title>
<desc>
Creator: ROOT Version 5.34/14
CreationDate: Thu Jul 30 18:25:16 2015</desc>
<defs>
</defs>
<rect x="0" y="0" width="567" height="466" fill="white"/>
<rect x="79" y="37" width="443" height="359" fill="none" stroke="black"/>
<rect x="79" y="37" width="443" height="359" fill="none" stroke="black"/>
<path d="M79,396h 443" fill="none" stroke="black" stroke-width="3"/>
<path d="M151,385v 11" fill="none" stroke="black" stroke-width="3"/>
<path d="M175,391v 5" fill="none" stroke="black" stroke-width="3"/>
<path d="M200,391v 5" fill="none" stroke="black" stroke-width="3"/>
<path d="M224,391v 5" fill="none" stroke="black" stroke-width="3"/>
<path d="M249,385v 11" fill="none" stroke="black" stroke-width="3"/>
<path d="M273,391v 5" fill="none" stroke="black" stroke-width="3"/>
<path d="M298,391v 5" fill="none" stroke="black" stroke-width="3"/>
<path d="M323,391v 5" fill="none" stroke="black" stroke-width="3"/>
<path d="M347,385v 11" fill="none" stroke="black" stroke-width="3"/>
<path d="M372,391v 5" fill="none" stroke="black" stroke-width="3"/>
<path d="M396,391v 5" fill="none" stroke="black" stroke-width="3"/>
<path d="M421,391v 5" fill="none" stroke="black" stroke-width="3"/>
<path d="M445,385v 11" fill="none" stroke="black" stroke-width="3"/>
<path d="M151,385v 11" fill="none" stroke="black" stroke-width="3"/>
<path d="M126,391v 5" fill="none" stroke="black" stroke-width="3"/>
<path d="M101,391v 5" fill="none" stroke="black" stroke-width="3"/>
<path d="M445,385v 11" fill="none" stroke="black" stroke-width="3"/>
<path d="M470,391v 5" fill="none" stroke="black" stroke-width="3"/>
<path d="M495,391v 5" fill="none" stroke="black" stroke-width="3"/>
<path d="M519,391v 5" fill="none" stroke="black" stroke-width="3"/>
<text x="134" y="416" fill="black" font-size="21" font-family="Times" font-weight="bold">
220
</text>
<text x="232" y="416" fill="black" font-size="21" font-family="Times" font-weight="bold">
240
</text>
<text x="331" y="416" fill="black" font-size="21" font-family="Times" font-weight="bold">
260
</text>
<text x="428" y="416" fill="black" font-size="21" font-family="Times" font-weight="bold">
280
</text>
<path d="M79,37h 443" fill="none" stroke="black" stroke-width="3"/>
<path d="M151,48v -11" fill="none" stroke="black" stroke-width="3"/>
<path d="M175,43v -6" fill="none" stroke="black" stroke-width="3"/>
<path d="M200,43v -6" fill="none" stroke="black" stroke-width="3"/>
<path d="M224,43v -6" fill="none" stroke="black" stroke-width="3"/>
<path d="M249,48v -11" fill="none" stroke="black" stroke-width="3"/>
<path d="M273,43v -6" fill="none" stroke="black" stroke-width="3"/>
<path d="M298,43v -6" fill="none" stroke="black" stroke-width="3"/>
<path d="M323,43v -6" fill="none" stroke="black" stroke-width="3"/>
<path d="M347,48v -11" fill="none" stroke="black" stroke-width="3"/>
<path d="M372,43v -6" fill="none" stroke="black" stroke-width="3"/>
<path d="M396,43v -6" fill="none" stroke="black" stroke-width="3"/>
<path d="M421,43v -6" fill="none" stroke="black" stroke-width="3"/>
<path d="M445,48v -11" fill="none" stroke="black" stroke-width="3"/>
<path d="M151,48v -11" fill="none" stroke="black" stroke-width="3"/>
<path d="M126,43v -6" fill="none" stroke="black" stroke-width="3"/>
<path d="M101,43v -6" fill="none" stroke="black" stroke-width="3"/>
<path d="M445,48v -11" fill="none" stroke="black" stroke-width="3"/>
<path d="M470,43v -6" fill="none" stroke="black" stroke-width="3"/>
<path d="M495,43v -6" fill="none" stroke="black" stroke-width="3"/>
<path d="M519,43v -6" fill="none" stroke="black" stroke-width="3"/>
<path d="M79,396v -359" fill="none" stroke="black" stroke-width="3"/>
<path d="M92,396h -13" fill="none" stroke="black" stroke-width="3"/>
<path d="M86,366h -7" fill="none" stroke="black" stroke-width="3"/>
<path d="M86,336h -7" fill="none" stroke="black" stroke-width="3"/>
<path d="M86,306h -7" fill="none" stroke="black" stroke-width="3"/>
<path d="M92,277h -13" fill="none" stroke="black" stroke-width="3"/>
<path d="M86,247h -7" fill="none" stroke="black" stroke-width="3"/>
<path d="M86,217h -7" fill="none" stroke="black" stroke-width="3"/>
<path d="M86,187h -7" fill="none" stroke="black" stroke-width="3"/>
<path d="M92,157h -13" fill="none" stroke="black" stroke-width="3"/>
<path d="M86,127h -7" fill="none" stroke="black" stroke-width="3"/>
<path d="M86,97h -7" fill="none" stroke="black" stroke-width="3"/>
<path d="M86,67h -7" fill="none" stroke="black" stroke-width="3"/>
<path d="M92,37h -13" fill="none" stroke="black" stroke-width="3"/>
<path d="M92,37h -13" fill="none" stroke="black" stroke-width="3"/>
<text x="46" y="404" fill="black" font-size="21" font-family="Times" font-weight="bold">
0.0
</text>
<text x="46" y="284" fill="black" font-size="21" font-family="Times" font-weight="bold">
0.2
</text>
<text x="46" y="165" fill="black" font-size="21" font-family="Times" font-weight="bold">
0.4
</text>
<text x="46" y="45" fill="black" font-size="21" font-family="Times" font-weight="bold">
0.6
</text>
<path d="M522,396v -359" fill="none" stroke="black" stroke-width="3"/>
<path d="M508,396h 14" fill="none" stroke="black" stroke-width="3"/>
<path d="M515,366h 7" fill="none" stroke="black" stroke-width="3"/>
<path d="M515,336h 7" fill="none" stroke="black" stroke-width="3"/>
<path d="M515,306h 7" fill="none" stroke="black" stroke-width="3"/>
<path d="M508,277h 14" fill="none" stroke="black" stroke-width="3"/>
<path d="M515,247h 7" fill="none" stroke="black" stroke-width="3"/>
<path d="M515,217h 7" fill="none" stroke="black" stroke-width="3"/>
<path d="M515,187h 7" fill="none" stroke="black" stroke-width="3"/>
<path d="M508,157h 14" fill="none" stroke="black" stroke-width="3"/>
<path d="M515,127h 7" fill="none" stroke="black" stroke-width="3"/>
<path d="M515,97h 7" fill="none" stroke="black" stroke-width="3"/>
<path d="M515,67h 7" fill="none" stroke="black" stroke-width="3"/>
<path d="M508,37h 14" fill="none" stroke="black" stroke-width="3"/>
<path d="M508,37h 14" fill="none" stroke="black" stroke-width="3"/>
<rect x="113" y="-4" width="328" height="38" fill="white"/>
<text x="139" y="24" fill="black" font-size="30" font-family="Helvetica" font-weight="bold">
IGHV3-23D_star_01
</text>
<path d="M82,393v -89" fill="none" stroke="#ff0000" stroke-width="6"/>
<g stroke="#ff0000" stroke-width="6" fill="#ff0000">
<circle cx="82" cy="396" r="3.5"/>
</g>
<path d="M87,241v -141" fill="none" stroke="#ff0000" stroke-width="6"/>
<path d="M87,94v -57" fill="none" stroke="#ff0000" stroke-width="6"/>
<g stroke="#ff0000" stroke-width="6" fill="#ff0000">
<circle cx="87" cy="97" r="3.5"/>
</g>
<path d="M92,393v -89" fill="none" stroke="#ff0000" stroke-width="6"/>
<g stroke="#ff0000" stroke-width="6" fill="#ff0000">
<circle cx="92" cy="396" r="3.5"/>
</g>
<path d="M97,393v -35" fill="none" stroke="#ff0000" stroke-width="6"/>
<g stroke="#ff0000" stroke-width="6" fill="#ff0000">
<circle cx="97" cy="396" r="3.5"/>
</g>
<path d="M101,393v -35" fill="none" stroke="#ff0000" stroke-width="6"/>
<g stroke="#ff0000" stroke-width="6" fill="#ff0000">
<circle cx="101" cy="396" r="3.5"/>
</g>
<path d="M106,393v -35" fill="none" stroke="#ff0000" stroke-width="6"/>
<g stroke="#ff0000" stroke-width="6" fill="#ff0000">
<circle cx="106" cy="396" r="3.5"/>
</g>
<path d="M111,393v -35" fill="none" stroke="#ff0000" stroke-width="6"/>
<g stroke="#ff0000" stroke-width="6" fill="#ff0000">
<circle cx="111" cy="396" r="3.5"/>
</g>
<path d="M116,315v -86" fill="none" stroke="#ff0000" stroke-width="6"/>
<path d="M116,222v -87" fill="none" stroke="#ff0000" stroke-width="6"/>
<g stroke="#ff0000" stroke-width="6" fill="#ff0000">
<circle cx="116" cy="225" r="3.5"/>
</g>
<path d="M121,393v -21" fill="none" stroke="#ff0000" stroke-width="6"/>
<g stroke="#ff0000" stroke-width="6" fill="#ff0000">
<circle cx="121" cy="396" r="3.5"/>
</g>
<path d="M126,393v -21" fill="none" stroke="#ff0000" stroke-width="6"/>
<g stroke="#ff0000" stroke-width="6" fill="#ff0000">
<circle cx="126" cy="396" r="3.5"/>
</g>
<path d="M131,393v -21" fill="none" stroke="#ff0000" stroke-width="6"/>
<g stroke="#ff0000" stroke-width="6" fill="#ff0000">
<circle cx="131" cy="396" r="3.5"/>
</g>
<path d="M136,393v -21" fill="none" stroke="#ff0000" stroke-width="6"/>
<g stroke="#ff0000" stroke-width="6" fill="#ff0000">
<circle cx="136" cy="396" r="3.5"/>
</g>
<path d="M141,358v -58" fill="none" stroke="#ff0000" stroke-width="6"/>
<path d="M141,293v -58" fill="none" stroke="#ff0000" stroke-width="6"/>
<g stroke="#ff0000" stroke-width="6" fill="#ff0000">
<circle cx="141" cy="296" r="3.5"/>
</g>
<path d="M146,393v -21" fill="none" stroke="#ff0000" stroke-width="6"/>
<g stroke="#ff0000" stroke-width="6" fill="#ff0000">
<circle cx="146" cy="396" r="3.5"/>
</g>
<path d="M151,393v -21" fill="none" stroke="#ff0000" stroke-width="6"/>
<g stroke="#ff0000" stroke-width="6" fill="#ff0000">
<circle cx="151" cy="396" r="3.5"/>
</g>
<path d="M156,393v -21" fill="none" stroke="#ff0000" stroke-width="6"/>
<g stroke="#ff0000" stroke-width="6" fill="#ff0000">
<circle cx="156" cy="396" r="3.5"/>
</g>
<path d="M160,393v -21" fill="none" stroke="#ff0000" stroke-width="6"/>
<g stroke="#ff0000" stroke-width="6" fill="#ff0000">
<circle cx="160" cy="396" r="3.5"/>
</g>
<path d="M165,393v -21" fill="none" stroke="#ff0000" stroke-width="6"/>
<g stroke="#ff0000" stroke-width="6" fill="#ff0000">
<circle cx="165" cy="396" r="3.5"/>
</g>
<path d="M170,393v -21" fill="none" stroke="#ff0000" stroke-width="6"/>
<g stroke="#ff0000" stroke-width="6" fill="#ff0000">
<circle cx="170" cy="396" r="3.5"/>
</g>
<path d="M175,393v -21" fill="none" stroke="#ff0000" stroke-width="6"/>
<g stroke="#ff0000" stroke-width="6" fill="#ff0000">
<circle cx="175" cy="396" r="3.5"/>
</g>
<path d="M180,396v -46" fill="none" stroke="#ff0000" stroke-width="6"/>
<path d="M180,343v -48" fill="none" stroke="#ff0000" stroke-width="6"/>
<g stroke="#ff0000" stroke-width="6" fill="#ff0000">
<circle cx="180" cy="346" r="3.5"/>
</g>
<path d="M185,393v -17" fill="none" stroke="#ff0000" stroke-width="6"/>
<g stroke="#ff0000" stroke-width="6" fill="#ff0000">
<circle cx="185" cy="396" r="3.5"/>
</g>
<path d="M190,393v -17" fill="none" stroke="#ff0000" stroke-width="6"/>
<g stroke="#ff0000" stroke-width="6" fill="#ff0000">
<circle cx="190" cy="396" r="3.5"/>
</g>
<path d="M195,393v -17" fill="none" stroke="#ff0000" stroke-width="6"/>
<g stroke="#ff0000" stroke-width="6" fill="#ff0000">
<circle cx="195" cy="396" r="3.5"/>
</g>
<path d="M200,396v -36" fill="none" stroke="#ff0000" stroke-width="6"/>
<path d="M200,353v -39" fill="none" stroke="#ff0000" stroke-width="6"/>
<g stroke="#ff0000" stroke-width="6" fill="#ff0000">
<circle cx="200" cy="356" r="3.5"/>
</g>
<path d="M205,393v -17" fill="none" stroke="#ff0000" stroke-width="6"/>
<g stroke="#ff0000" stroke-width="6" fill="#ff0000">
<circle cx="205" cy="396" r="3.5"/>
</g>
<path d="M210,396v -36" fill="none" stroke="#ff0000" stroke-width="6"/>
<path d="M210,353v -39" fill="none" stroke="#ff0000" stroke-width="6"/>
<g stroke="#ff0000" stroke-width="6" fill="#ff0000">
<circle cx="210" cy="356" r="3.5"/>
</g>
<path d="M214,300v -60" fill="none" stroke="#ff0000" stroke-width="6"/>
<path d="M214,233v -60" fill="none" stroke="#ff0000" stroke-width="6"/>
<g stroke="#ff0000" stroke-width="6" fill="#ff0000">
<circle cx="214" cy="237" r="3.5"/>
</g>
<path d="M219,393v -17" fill="none" stroke="#ff0000" stroke-width="6"/>
<g stroke="#ff0000" stroke-width="6" fill="#ff0000">
<circle cx="219" cy="396" r="3.5"/>
</g>
<path d="M224,393v -17" fill="none" stroke="#ff0000" stroke-width="6"/>
<g stroke="#ff0000" stroke-width="6" fill="#ff0000">
<circle cx="224" cy="396" r="3.5"/>
</g>
<path d="M229,368v -48" fill="none" stroke="#ff0000" stroke-width="6"/>
<path d="M229,313v -49" fill="none" stroke="#ff0000" stroke-width="6"/>
<g stroke="#ff0000" stroke-width="6" fill="#ff0000">
<circle cx="229" cy="316" r="3.5"/>
</g>
<path d="M234,393v -17" fill="none" stroke="#ff0000" stroke-width="6"/>
<g stroke="#ff0000" stroke-width="6" fill="#ff0000">
<circle cx="234" cy="396" r="3.5"/>
</g>
<path d="M239,393v -17" fill="none" stroke="#ff0000" stroke-width="6"/>
<g stroke="#ff0000" stroke-width="6" fill="#ff0000">
<circle cx="239" cy="396" r="3.5"/>
</g>
<path d="M244,264v -64" fill="none" stroke="#ff0000" stroke-width="6"/>
<path d="M244,194v -64" fill="none" stroke="#ff0000" stroke-width="6"/>
<g stroke="#ff0000" stroke-width="6" fill="#ff0000">
<circle cx="244" cy="197" r="3.5"/>
</g>
<path d="M249,396v -36" fill="none" stroke="#ff0000" stroke-width="6"/>
<path d="M249,353v -39" fill="none" stroke="#ff0000" stroke-width="6"/>
<g stroke="#ff0000" stroke-width="6" fill="#ff0000">
<circle cx="249" cy="356" r="3.5"/>
</g>
<path d="M254,393v -17" fill="none" stroke="#ff0000" stroke-width="6"/>
<g stroke="#ff0000" stroke-width="6" fill="#ff0000">
<circle cx="254" cy="396" r="3.5"/>
</g>
<path d="M259,396v -36" fill="none" stroke="#ff0000" stroke-width="6"/>
<path d="M259,353v -39" fill="none" stroke="#ff0000" stroke-width="6"/>
<g stroke="#ff0000" stroke-width="6" fill="#ff0000">
<circle cx="259" cy="356" r="3.5"/>
</g>
<path d="M264,368v -48" fill="none" stroke="#ff0000" stroke-width="6"/>
<path d="M264,313v -49" fill="none" stroke="#ff0000" stroke-width="6"/>
<g stroke="#ff0000" stroke-width="6" fill="#ff0000">
<circle cx="264" cy="316" r="3.5"/>
</g>
<path d="M269,396v -36" fill="none" stroke="#ff0000" stroke-width="6"/>
<path d="M269,353v -39" fill="none" stroke="#ff0000" stroke-width="6"/>
<g stroke="#ff0000" stroke-width="6" fill="#ff0000">
<circle cx="269" cy="356" r="3.5"/>
</g>
<path d="M273,393v -17" fill="none" stroke="#ff0000" stroke-width="6"/>
<g stroke="#ff0000" stroke-width="6" fill="#ff0000">
<circle cx="273" cy="396" r="3.5"/>
</g>
<path d="M278,396v -36" fill="none" stroke="#ff0000" stroke-width="6"/>
<path d="M278,353v -39" fill="none" stroke="#ff0000" stroke-width="6"/>
<g stroke="#ff0000" stroke-width="6" fill="#ff0000">
<circle cx="278" cy="356" r="3.5"/>
</g>
<path d="M283,393v -17" fill="none" stroke="#ff0000" stroke-width="6"/>
<g stroke="#ff0000" stroke-width="6" fill="#ff0000">
<circle cx="283" cy="396" r="3.5"/>
</g>
<path d="M288,393v -17" fill="none" stroke="#ff0000" stroke-width="6"/>
<g stroke="#ff0000" stroke-width="6" fill="#ff0000">
<circle cx="288" cy="396" r="3.5"/>
</g>
<path d="M293,393v -17" fill="none" stroke="#ff0000" stroke-width="6"/>
<g stroke="#ff0000" stroke-width="6" fill="#ff0000">
<circle cx="293" cy="396" r="3.5"/>
</g>
<path d="M298,393v -17" fill="none" stroke="#ff0000" stroke-width="6"/>
<g stroke="#ff0000" stroke-width="6" fill="#ff0000">
<circle cx="298" cy="396" r="3.5"/>
</g>
<path d="M303,393v -17" fill="none" stroke="#ff0000" stroke-width="6"/>
<g stroke="#ff0000" stroke-width="6" fill="#ff0000">
<circle cx="303" cy="396" r="3.5"/>
</g>
<path d="M308,396v -36" fill="none" stroke="#ff0000" stroke-width="6"/>
<path d="M308,353v -39" fill="none" stroke="#ff0000" stroke-width="6"/>
<g stroke="#ff0000" stroke-width="6" fill="#ff0000">
<circle cx="308" cy="356" r="3.5"/>
</g>
<path d="M313,396v -36" fill="none" stroke="#ff0000" stroke-width="6"/>
<path d="M313,353v -39" fill="none" stroke="#ff0000" stroke-width="6"/>
<g stroke="#ff0000" stroke-width="6" fill="#ff0000">
<circle cx="313" cy="356" r="3.5"/>
</g>
<path d="M318,396v -36" fill="none" stroke="#ff0000" stroke-width="6"/>
<path d="M318,353v -39" fill="none" stroke="#ff0000" stroke-width="6"/>
<g stroke="#ff0000" stroke-width="6" fill="#ff0000">
<circle cx="318" cy="356" r="3.5"/>
</g>
<path d="M323,396v -36" fill="none" stroke="#ff0000" stroke-width="6"/>
<path d="M323,353v -39" fill="none" stroke="#ff0000" stroke-width="6"/>
<g stroke="#ff0000" stroke-width="6" fill="#ff0000">
<circle cx="323" cy="356" r="3.5"/>
</g>
<path d="M327,393v -17" fill="none" stroke="#ff0000" stroke-width="6"/>
<g stroke="#ff0000" stroke-width="6" fill="#ff0000">
<circle cx="327" cy="396" r="3.5"/>
</g>
<path d="M332,393v -17" fill="none" stroke="#ff0000" stroke-width="6"/>
<g stroke="#ff0000" stroke-width="6" fill="#ff0000">
<circle cx="332" cy="396" r="3.5"/>
</g>
<path d="M337,368v -48" fill="none" stroke="#ff0000" stroke-width="6"/>
<path d="M337,313v -49" fill="none" stroke="#ff0000" stroke-width="6"/>
<g stroke="#ff0000" stroke-width="6" fill="#ff0000">
<circle cx="337" cy="316" r="3.5"/>
</g>
<path d="M342,393v -17" fill="none" stroke="#ff0000" stroke-width="6"/>
<g stroke="#ff0000" stroke-width="6" fill="#ff0000">
<circle cx="342" cy="396" r="3.5"/>
</g>
<path d="M347,393v -17" fill="none" stroke="#ff0000" stroke-width="6"/>
<g stroke="#ff0000" stroke-width="6" fill="#ff0000">
<circle cx="347" cy="396" r="3.5"/>
</g>
<path d="M352,300v -60" fill="none" stroke="#ff0000" stroke-width="6"/>
<path d="M352,233v -60" fill="none" stroke="#ff0000" stroke-width="6"/>
<g stroke="#ff0000" stroke-width="6" fill="#ff0000">
<circle cx="352" cy="237" r="3.5"/>
</g>
<path d="M357,396v -36" fill="none" stroke="#ff0000" stroke-width="6"/>
<path d="M357,353v -39" fill="none" stroke="#ff0000" stroke-width="6"/>
<g stroke="#ff0000" stroke-width="6" fill="#ff0000">
<circle cx="357" cy="356" r="3.5"/>
</g>
<path d="M362,393v -17" fill="none" stroke="#ff0000" stroke-width="6"/>
<g stroke="#ff0000" stroke-width="6" fill="#ff0000">
<circle cx="362" cy="396" r="3.5"/>
</g>
<path d="M367,393v -17" fill="none" stroke="#ff0000" stroke-width="6"/>
<g stroke="#ff0000" stroke-width="6" fill="#ff0000">
<circle cx="367" cy="396" r="3.5"/>
</g>
<path d="M372,393v -17" fill="none" stroke="#ff0000" stroke-width="6"/>
<g stroke="#ff0000" stroke-width="6" fill="#ff0000">
<circle cx="372" cy="396" r="3.5"/>
</g>
<path d="M377,264v -64" fill="none" stroke="#ff0000" stroke-width="6"/>
<path d="M377,194v -64" fill="none" stroke="#ff0000" stroke-width="6"/>
<g stroke="#ff0000" stroke-width="6" fill="#ff0000">
<circle cx="377" cy="197" r="3.5"/>
</g>
<path d="M382,396v -36" fill="none" stroke="#ff0000" stroke-width="6"/>
<path d="M382,353v -39" fill="none" stroke="#ff0000" stroke-width="6"/>
<g stroke="#ff0000" stroke-width="6" fill="#ff0000">
<circle cx="382" cy="356" r="3.5"/>
</g>
<path d="M386,393v -17" fill="none" stroke="#ff0000" stroke-width="6"/>
<g stroke="#ff0000" stroke-width="6" fill="#ff0000">
<circle cx="386" cy="396" r="3.5"/>
</g>
<path d="M391,393v -17" fill="none" stroke="#ff0000" stroke-width="6"/>
<g stroke="#ff0000" stroke-width="6" fill="#ff0000">
<circle cx="391" cy="396" r="3.5"/>
</g>
<path d="M396,393v -17" fill="none" stroke="#ff0000" stroke-width="6"/>
<g stroke="#ff0000" stroke-width="6" fill="#ff0000">
<circle cx="396" cy="396" r="3.5"/>
</g>
<path d="M401,396v -36" fill="none" stroke="#ff0000" stroke-width="6"/>
<path d="M401,353v -39" fill="none" stroke="#ff0000" stroke-width="6"/>
<g stroke="#ff0000" stroke-width="6" fill="#ff0000">
<circle cx="401" cy="356" r="3.5"/>
</g>
<path d="M406,393v -17" fill="none" stroke="#ff0000" stroke-width="6"/>
<g stroke="#ff0000" stroke-width="6" fill="#ff0000">
<circle cx="406" cy="396" r="3.5"/>
</g>
<path d="M411,393v -17" fill="none" stroke="#ff0000" stroke-width="6"/>
<g stroke="#ff0000" stroke-width="6" fill="#ff0000">
<circle cx="411" cy="396" r="3.5"/>
</g>
<path d="M416,396v -36" fill="none" stroke="#ff0000" stroke-width="6"/>
<path d="M416,353v -39" fill="none" stroke="#ff0000" stroke-width="6"/>
<g stroke="#ff0000" stroke-width="6" fill="#ff0000">
<circle cx="416" cy="356" r="3.5"/>
</g>
<path d="M421,396v -36" fill="none" stroke="#ff0000" stroke-width="6"/>
<path d="M421,353v -39" fill="none" stroke="#ff0000" stroke-width="6"/>
<g stroke="#ff0000" stroke-width="6" fill="#ff0000">
<circle cx="421" cy="356" r="3.5"/>
</g>
<path d="M426,396v -36" fill="none" stroke="#ff0000" stroke-width="6"/>
<path d="M426,353v -39" fill="none" stroke="#ff0000" stroke-width="6"/>
<g stroke="#ff0000" stroke-width="6" fill="#ff0000">
<circle cx="426" cy="356" r="3.5"/>
</g>
<path d="M431,393v -17" fill="none" stroke="#ff0000" stroke-width="6"/>
<g stroke="#ff0000" stroke-width="6" fill="#ff0000">
<circle cx="431" cy="396" r="3.5"/>
</g>
<path d="M436,335v -55" fill="none" stroke="#ff0000" stroke-width="6"/>
<path d="M436,273v -55" fill="none" stroke="#ff0000" stroke-width="6"/>
<g stroke="#ff0000" stroke-width="6" fill="#ff0000">
<circle cx="436" cy="277" r="3.5"/>
</g>
<path d="M441,393v -17" fill="none" stroke="#ff0000" stroke-width="6"/>
<g stroke="#ff0000" stroke-width="6" fill="#ff0000">
<circle cx="441" cy="396" r="3.5"/>
</g>
<path d="M445,396v -36" fill="none" stroke="#ff0000" stroke-width="6"/>
<path d="M445,353v -39" fill="none" stroke="#ff0000" stroke-width="6"/>
<g stroke="#ff0000" stroke-width="6" fill="#ff0000">
<circle cx="445" cy="356" r="3.5"/>
</g>
<path d="M450,396v -36" fill="none" stroke="#ff0000" stroke-width="6"/>
<path d="M450,353v -39" fill="none" stroke="#ff0000" stroke-width="6"/>
<g stroke="#ff0000" stroke-width="6" fill="#ff0000">
<circle cx="450" cy="356" r="3.5"/>
</g>
<path d="M455,393v -17" fill="none" stroke="#ff0000" stroke-width="6"/>
<g stroke="#ff0000" stroke-width="6" fill="#ff0000">
<circle cx="455" cy="396" r="3.5"/>
</g>
<path d="M460,393v -17" fill="none" stroke="#ff0000" stroke-width="6"/>
<g stroke="#ff0000" stroke-width="6" fill="#ff0000">
<circle cx="460" cy="396" r="3.5"/>
</g>
<path d="M465,393v -17" fill="none" stroke="#ff0000" stroke-width="6"/>
<g stroke="#ff0000" stroke-width="6" fill="#ff0000">
<circle cx="465" cy="396" r="3.5"/>
</g>
<path d="M470,393v -17" fill="none" stroke="#ff0000" stroke-width="6"/>
<g stroke="#ff0000" stroke-width="6" fill="#ff0000">
<circle cx="470" cy="396" r="3.5"/>
</g>
<path d="M475,393v -17" fill="none" stroke="#ff0000" stroke-width="6"/>
<g stroke="#ff0000" stroke-width="6" fill="#ff0000">
<circle cx="475" cy="396" r="3.5"/>
</g>
<path d="M480,393v -17" fill="none" stroke="#ff0000" stroke-width="6"/>
<g stroke="#ff0000" stroke-width="6" fill="#ff0000">
<circle cx="480" cy="396" r="3.5"/>
</g>
<path d="M485,396v -36" fill="none" stroke="#ff0000" stroke-width="6"/>
<path d="M485,353v -39" fill="none" stroke="#ff0000" stroke-width="6"/>
<g stroke="#ff0000" stroke-width="6" fill="#ff0000">
<circle cx="485" cy="356" r="3.5"/>
</g>
<path d="M490,393v -17" fill="none" stroke="#ff0000" stroke-width="6"/>
<g stroke="#ff0000" stroke-width="6" fill="#ff0000">
<circle cx="490" cy="396" r="3.5"/>
</g>
<path d="M495,393v -17" fill="none" stroke="#ff0000" stroke-width="6"/>
<g stroke="#ff0000" stroke-width="6" fill="#ff0000">
<circle cx="495" cy="396" r="3.5"/>
</g>
<path d="M499,393v -17" fill="none" stroke="#ff0000" stroke-width="6"/>
<g stroke="#ff0000" stroke-width="6" fill="#ff0000">
<circle cx="499" cy="396" r="3.5"/>
</g>
<path d="M504,396v -36" fill="none" stroke="#ff0000" stroke-width="6"/>
<path d="M504,353v -39" fill="none" stroke="#ff0000" stroke-width="6"/>
<g stroke="#ff0000" stroke-width="6" fill="#ff0000">
<circle cx="504" cy="356" r="3.5"/>
</g>
<path d="M509,393v -25" fill="none" stroke="#ff0000" stroke-width="6"/>
<g stroke="#ff0000" stroke-width="6" fill="#ff0000">
<circle cx="509" cy="396" r="3.5"/>
</g>
<path d="M514,295v -75" fill="none" stroke="#ff0000" stroke-width="6"/>
<path d="M514,213v -74" fill="none" stroke="#ff0000" stroke-width="6"/>
<g stroke="#ff0000" stroke-width="6" fill="#ff0000">
<circle cx="514" cy="217" r="3.5"/>
</g>
<path d="M519,393v -35" fill="none" stroke="#ff0000" stroke-width="6"/>
<g stroke="#ff0000" stroke-width="6" fill="#ff0000">
<circle cx="519" cy="396" r="3.5"/>
</g>
<path d="M332,107h 42" fill="none" stroke="#ff0000" stroke-width="6"/>
<path d="M470,426v -179" fill="none" stroke="black" stroke-width="3" stroke-dasharray=" 3, 3"/>
<rect x="113" y="-4" width="328" height="38" fill="white"/>
<text x="139" y="24" fill="black" font-size="30" font-family="Helvetica" font-weight="bold">
IGHV3-23D_star_01
</text></svg>
