<?xml version="1.0" standalone="no"?>
<svg width="567" height="466" viewBox="0 0 567 466" xmlns="http://www.w3.org/2000/svg">
<title>
/bbx/output/_plots/example/hmm/j_5p_del/plots/IGHJ6_star_02-j_5p_del.svg
</title>
<desc>
Creator: ROOT Version 5.34/14
CreationDate: Thu Jul 30 18:25:15 2015</desc>
<defs>
</defs>
<rect x="0" y="0" width="567" height="466" fill="white"/>
<rect x="79" y="37" width="443" height="359" fill="none" stroke="black"/>
<rect x="79" y="37" width="443" height="359" fill="none" stroke="black"/>
<path d="M79,396h 443" fill="none" stroke="black" stroke-width="3"/>
<path d="M241,385v 11" fill="none" stroke="black" stroke-width="3"/>
<path d="M275,391v 5" fill="none" stroke="black" stroke-width="3"/>
<path d="M309,391v 5" fill="none" stroke="black" stroke-width="3"/>
<path d="M343,391v 5" fill="none" stroke="black" stroke-width="3"/>
<path d="M377,391v 5" fill="none" stroke="black" stroke-width="3"/>
<path d="M411,385v 11" fill="none" stroke="black" stroke-width="3"/>
<path d="M241,385v 11" fill="none" stroke="black" stroke-width="3"/>
<path d="M207,391v 5" fill="none" stroke="black" stroke-width="3"/>
<path d="M173,391v 5" fill="none" stroke="black" stroke-width="3"/>
<path d="M139,391v 5" fill="none" stroke="black" stroke-width="3"/>
<path d="M105,391v 5" fill="none" stroke="black" stroke-width="3"/>
<path d="M411,385v 11" fill="none" stroke="black" stroke-width="3"/>
<path d="M445,391v 5" fill="none" stroke="black" stroke-width="3"/>
<path d="M479,391v 5" fill="none" stroke="black" stroke-width="3"/>
<path d="M513,391v 5" fill="none" stroke="black" stroke-width="3"/>
<text x="229" y="416" fill="black" font-size="21" font-family="Times" font-weight="bold">
10
</text>
<text x="399" y="416" fill="black" font-size="21" font-family="Times" font-weight="bold">
20
</text>
<path d="M79,37h 443" fill="none" stroke="black" stroke-width="3"/>
<path d="M241,48v -11" fill="none" stroke="black" stroke-width="3"/>
<path d="M275,43v -6" fill="none" stroke="black" stroke-width="3"/>
<path d="M309,43v -6" fill="none" stroke="black" stroke-width="3"/>
<path d="M343,43v -6" fill="none" stroke="black" stroke-width="3"/>
<path d="M377,43v -6" fill="none" stroke="black" stroke-width="3"/>
<path d="M411,48v -11" fill="none" stroke="black" stroke-width="3"/>
<path d="M241,48v -11" fill="none" stroke="black" stroke-width="3"/>
<path d="M207,43v -6" fill="none" stroke="black" stroke-width="3"/>
<path d="M173,43v -6" fill="none" stroke="black" stroke-width="3"/>
<path d="M139,43v -6" fill="none" stroke="black" stroke-width="3"/>
<path d="M105,43v -6" fill="none" stroke="black" stroke-width="3"/>
<path d="M411,48v -11" fill="none" stroke="black" stroke-width="3"/>
<path d="M445,43v -6" fill="none" stroke="black" stroke-width="3"/>
<path d="M479,43v -6" fill="none" stroke="black" stroke-width="3"/>
<path d="M513,43v -6" fill="none" stroke="black" stroke-width="3"/>
<path d="M79,396v -359" fill="none" stroke="black" stroke-width="3"/>
<path d="M92,396h -13" fill="none" stroke="black" stroke-width="3"/>
<path d="M86,366h -7" fill="none" stroke="black" stroke-width="3"/>
<path d="M86,336h -7" fill="none" stroke="black" stroke-width="3"/>
<path d="M86,306h -7" fill="none" stroke="black" stroke-width="3"/>
<path d="M92,277h -13" fill="none" stroke="black" stroke-width="3"/>
<path d="M86,247h -7" fill="none" stroke="black" stroke-width="3"/>
<path d="M86,217h -7" fill="none" stroke="black" stroke-width="3"/>
<path d="M86,187h -7" fill="none" stroke="black" stroke-width="3"/>
<path d="M92,157h -13" fill="none" stroke="black" stroke-width="3"/>
<path d="M86,127h -7" fill="none" stroke="black" stroke-width="3"/>
<path d="M86,97h -7" fill="none" stroke="black" stroke-width="3"/>
<path d="M86,67h -7" fill="none" stroke="black" stroke-width="3"/>
<path d="M92,37h -13" fill="none" stroke="black" stroke-width="3"/>
<text x="63" y="404" fill="black" font-size="21" font-family="Times" font-weight="bold">
0
</text>
<text x="63" y="284" fill="black" font-size="21" font-family="Times" font-weight="bold">
2
</text>
<text x="63" y="165" fill="black" font-size="21" font-family="Times" font-weight="bold">
4
</text>
<text x="63" y="45" fill="black" font-size="21" font-family="Times" font-weight="bold">
6
</text>
<path d="M522,396v -359" fill="none" stroke="black" stroke-width="3"/>
<path d="M508,396h 14" fill="none" stroke="black" stroke-width="3"/>
<path d="M515,366h 7" fill="none" stroke="black" stroke-width="3"/>
<path d="M515,336h 7" fill="none" stroke="black" stroke-width="3"/>
<path d="M515,306h 7" fill="none" stroke="black" stroke-width="3"/>
<path d="M508,277h 14" fill="none" stroke="black" stroke-width="3"/>
<path d="M515,247h 7" fill="none" stroke="black" stroke-width="3"/>
<path d="M515,217h 7" fill="none" stroke="black" stroke-width="3"/>
<path d="M515,187h 7" fill="none" stroke="black" stroke-width="3"/>
<path d="M508,157h 14" fill="none" stroke="black" stroke-width="3"/>
<path d="M515,127h 7" fill="none" stroke="black" stroke-width="3"/>
<path d="M515,97h 7" fill="none" stroke="black" stroke-width="3"/>
<path d="M515,67h 7" fill="none" stroke="black" stroke-width="3"/>
<path d="M508,37h 14" fill="none" stroke="black" stroke-width="3"/>
<rect x="113" y="-4" width="392" height="40" fill="white"/>
<text x="128" y="25" fill="black" font-size="31" font-family="Helvetica" font-weight="bold">
IGHJ6_star_02-j_5p_del
</text>
<path d="M88,320v -100" fill="none" stroke="#ff0000" stroke-width="6"/>
<path d="M88,213v -100" fill="none" stroke="#ff0000" stroke-width="6"/>
<g stroke="#ff0000" stroke-width="6" fill="#ff0000">
<circle cx="88" cy="217" r="3.5"/>
</g>
<path d="M224,361v -81" fill="none" stroke="#ff0000" stroke-width="6"/>
<path d="M224,273v -81" fill="none" stroke="#ff0000" stroke-width="6"/>
<g stroke="#ff0000" stroke-width="6" fill="#ff0000">
<circle cx="224" cy="277" r="3.5"/>
</g>
<path d="M258,396v -56" fill="none" stroke="#ff0000" stroke-width="6"/>
<path d="M258,333v -56" fill="none" stroke="#ff0000" stroke-width="6"/>
<g stroke="#ff0000" stroke-width="6" fill="#ff0000">
<circle cx="258" cy="336" r="3.5"/>
</g>
<path d="M275,396v -56" fill="none" stroke="#ff0000" stroke-width="6"/>
<path d="M275,333v -56" fill="none" stroke="#ff0000" stroke-width="6"/>
<g stroke="#ff0000" stroke-width="6" fill="#ff0000">
<circle cx="275" cy="336" r="3.5"/>
</g>
<path d="M360,231v -131" fill="none" stroke="#ff0000" stroke-width="6"/>
<path d="M360,94v -57" fill="none" stroke="#ff0000" stroke-width="6"/>
<g stroke="#ff0000" stroke-width="6" fill="#ff0000">
<circle cx="360" cy="97" r="3.5"/>
</g>
<path d="M428,396v -56" fill="none" stroke="#ff0000" stroke-width="6"/>
<path d="M428,333v -56" fill="none" stroke="#ff0000" stroke-width="6"/>
<g stroke="#ff0000" stroke-width="6" fill="#ff0000">
<circle cx="428" cy="336" r="3.5"/>
</g>
<path d="M513,396v -56" fill="none" stroke="#ff0000" stroke-width="6"/>
<path d="M513,333v -56" fill="none" stroke="#ff0000" stroke-width="6"/>
<g stroke="#ff0000" stroke-width="6" fill="#ff0000">
<circle cx="513" cy="336" r="3.5"/>
</g>
<path d="M80,395v -178h 16v 178h 119v -118h 17v 118h 17v -59h 34v 59h 68v -298h 18v 298h 51v -59h 17v 59h 68v -59h 17" fill="none" stroke="#ff0000" stroke-width="6"/>
<path d="M332,107h 42" fill="none" stroke="#ff0000" stroke-width="6"/>
<rect x="113" y="-4" width="392" height="40" fill="white"/>
<text x="128" y="25" fill="black" font-size="31" font-family="Helvetica" font-weight="bold">
IGHJ6_star_02-j_5p_del
</text></svg>
