<?xml version="1.0" standalone="no"?>
<svg width="567" height="466" viewBox="0 0 567 466" xmlns="http://www.w3.org/2000/svg">
<title>
/bbx/output/_plots/example/hmm/j_5p_del/plots/IGHJ4_star_02-j_5p_del.svg
</title>
<desc>
Creator: ROOT Version 5.34/14
CreationDate: Thu Jul 30 18:25:15 2015</desc>
<defs>
</defs>
<rect x="0" y="0" width="567" height="466" fill="white"/>
<rect x="79" y="37" width="443" height="359" fill="none" stroke="black"/>
<rect x="79" y="37" width="443" height="359" fill="none" stroke="black"/>
<path d="M79,396h 443" fill="none" stroke="black" stroke-width="3"/>
<path d="M111,385v 11" fill="none" stroke="black" stroke-width="3"/>
<path d="M143,391v 5" fill="none" stroke="black" stroke-width="3"/>
<path d="M174,391v 5" fill="none" stroke="black" stroke-width="3"/>
<path d="M206,391v 5" fill="none" stroke="black" stroke-width="3"/>
<path d="M237,385v 11" fill="none" stroke="black" stroke-width="3"/>
<path d="M269,391v 5" fill="none" stroke="black" stroke-width="3"/>
<path d="M300,391v 5" fill="none" stroke="black" stroke-width="3"/>
<path d="M332,391v 5" fill="none" stroke="black" stroke-width="3"/>
<path d="M364,385v 11" fill="none" stroke="black" stroke-width="3"/>
<path d="M395,391v 5" fill="none" stroke="black" stroke-width="3"/>
<path d="M427,391v 5" fill="none" stroke="black" stroke-width="3"/>
<path d="M458,391v 5" fill="none" stroke="black" stroke-width="3"/>
<path d="M490,385v 11" fill="none" stroke="black" stroke-width="3"/>
<path d="M111,385v 11" fill="none" stroke="black" stroke-width="3"/>
<path d="M79,391v 5" fill="none" stroke="black" stroke-width="3"/>
<path d="M490,385v 11" fill="none" stroke="black" stroke-width="3"/>
<path d="M522,391v 5" fill="none" stroke="black" stroke-width="3"/>
<text x="105" y="416" fill="black" font-size="21" font-family="Times" font-weight="bold">
0
</text>
<text x="231" y="416" fill="black" font-size="21" font-family="Times" font-weight="bold">
2
</text>
<text x="358" y="416" fill="black" font-size="21" font-family="Times" font-weight="bold">
4
</text>
<text x="484" y="416" fill="black" font-size="21" font-family="Times" font-weight="bold">
6
</text>
<path d="M79,37h 443" fill="none" stroke="black" stroke-width="3"/>
<path d="M111,48v -11" fill="none" stroke="black" stroke-width="3"/>
<path d="M143,43v -6" fill="none" stroke="black" stroke-width="3"/>
<path d="M174,43v -6" fill="none" stroke="black" stroke-width="3"/>
<path d="M206,43v -6" fill="none" stroke="black" stroke-width="3"/>
<path d="M237,48v -11" fill="none" stroke="black" stroke-width="3"/>
<path d="M269,43v -6" fill="none" stroke="black" stroke-width="3"/>
<path d="M300,43v -6" fill="none" stroke="black" stroke-width="3"/>
<path d="M332,43v -6" fill="none" stroke="black" stroke-width="3"/>
<path d="M364,48v -11" fill="none" stroke="black" stroke-width="3"/>
<path d="M395,43v -6" fill="none" stroke="black" stroke-width="3"/>
<path d="M427,43v -6" fill="none" stroke="black" stroke-width="3"/>
<path d="M458,43v -6" fill="none" stroke="black" stroke-width="3"/>
<path d="M490,48v -11" fill="none" stroke="black" stroke-width="3"/>
<path d="M111,48v -11" fill="none" stroke="black" stroke-width="3"/>
<path d="M79,43v -6" fill="none" stroke="black" stroke-width="3"/>
<path d="M490,48v -11" fill="none" stroke="black" stroke-width="3"/>
<path d="M522,43v -6" fill="none" stroke="black" stroke-width="3"/>
<path d="M79,396v -359" fill="none" stroke="black" stroke-width="3"/>
<path d="M92,396h -13" fill="none" stroke="black" stroke-width="3"/>
<path d="M86,376h -7" fill="none" stroke="black" stroke-width="3"/>
<path d="M86,356h -7" fill="none" stroke="black" stroke-width="3"/>
<path d="M86,336h -7" fill="none" stroke="black" stroke-width="3"/>
<path d="M86,316h -7" fill="none" stroke="black" stroke-width="3"/>
<path d="M92,296h -13" fill="none" stroke="black" stroke-width="3"/>
<path d="M86,277h -7" fill="none" stroke="black" stroke-width="3"/>
<path d="M86,257h -7" fill="none" stroke="black" stroke-width="3"/>
<path d="M86,237h -7" fill="none" stroke="black" stroke-width="3"/>
<path d="M86,217h -7" fill="none" stroke="black" stroke-width="3"/>
<path d="M92,197h -13" fill="none" stroke="black" stroke-width="3"/>
<path d="M86,177h -7" fill="none" stroke="black" stroke-width="3"/>
<path d="M86,157h -7" fill="none" stroke="black" stroke-width="3"/>
<path d="M86,137h -7" fill="none" stroke="black" stroke-width="3"/>
<path d="M86,117h -7" fill="none" stroke="black" stroke-width="3"/>
<path d="M92,97h -13" fill="none" stroke="black" stroke-width="3"/>
<path d="M92,97h -13" fill="none" stroke="black" stroke-width="3"/>
<path d="M86,77h -7" fill="none" stroke="black" stroke-width="3"/>
<path d="M86,57h -7" fill="none" stroke="black" stroke-width="3"/>
<path d="M86,37h -7" fill="none" stroke="black" stroke-width="3"/>
<text x="63" y="404" fill="black" font-size="21" font-family="Times" font-weight="bold">
0
</text>
<text x="51" y="304" fill="black" font-size="21" font-family="Times" font-weight="bold">
10
</text>
<text x="51" y="205" fill="black" font-size="21" font-family="Times" font-weight="bold">
20
</text>
<text x="51" y="105" fill="black" font-size="21" font-family="Times" font-weight="bold">
30
</text>
<path d="M522,396v -359" fill="none" stroke="black" stroke-width="3"/>
<path d="M508,396h 14" fill="none" stroke="black" stroke-width="3"/>
<path d="M515,376h 7" fill="none" stroke="black" stroke-width="3"/>
<path d="M515,356h 7" fill="none" stroke="black" stroke-width="3"/>
<path d="M515,336h 7" fill="none" stroke="black" stroke-width="3"/>
<path d="M515,316h 7" fill="none" stroke="black" stroke-width="3"/>
<path d="M508,296h 14" fill="none" stroke="black" stroke-width="3"/>
<path d="M515,277h 7" fill="none" stroke="black" stroke-width="3"/>
<path d="M515,257h 7" fill="none" stroke="black" stroke-width="3"/>
<path d="M515,237h 7" fill="none" stroke="black" stroke-width="3"/>
<path d="M515,217h 7" fill="none" stroke="black" stroke-width="3"/>
<path d="M508,197h 14" fill="none" stroke="black" stroke-width="3"/>
<path d="M515,177h 7" fill="none" stroke="black" stroke-width="3"/>
<path d="M515,157h 7" fill="none" stroke="black" stroke-width="3"/>
<path d="M515,137h 7" fill="none" stroke="black" stroke-width="3"/>
<path d="M515,117h 7" fill="none" stroke="black" stroke-width="3"/>
<path d="M508,97h 14" fill="none" stroke="black" stroke-width="3"/>
<path d="M508,97h 14" fill="none" stroke="black" stroke-width="3"/>
<path d="M515,77h 7" fill="none" stroke="black" stroke-width="3"/>
<path d="M515,57h 7" fill="none" stroke="black" stroke-width="3"/>
<path d="M515,37h 7" fill="none" stroke="black" stroke-width="3"/>
<rect x="113" y="-4" width="392" height="40" fill="white"/>
<text x="128" y="25" fill="black" font-size="31" font-family="Helvetica" font-weight="bold">
IGHJ4_star_02-j_5p_del
</text>
<path d="M111,268v -38" fill="none" stroke="#ff0000" stroke-width="6"/>
<path d="M111,223v -37" fill="none" stroke="#ff0000" stroke-width="6"/>
<g stroke="#ff0000" stroke-width="6" fill="#ff0000">
<circle cx="111" cy="227" r="3.5"/>
</g>
<path d="M174,376v -16" fill="none" stroke="#ff0000" stroke-width="6"/>
<path d="M174,353v -17" fill="none" stroke="#ff0000" stroke-width="6"/>
<g stroke="#ff0000" stroke-width="6" fill="#ff0000">
<circle cx="174" cy="356" r="3.5"/>
</g>
<path d="M364,152v -52" fill="none" stroke="#ff0000" stroke-width="6"/>
<path d="M364,94v -51" fill="none" stroke="#ff0000" stroke-width="6"/>
<g stroke="#ff0000" stroke-width="6" fill="#ff0000">
<circle cx="364" cy="97" r="3.5"/>
</g>
<path d="M427,320v -30" fill="none" stroke="#ff0000" stroke-width="6"/>
<path d="M427,283v -30" fill="none" stroke="#ff0000" stroke-width="6"/>
<g stroke="#ff0000" stroke-width="6" fill="#ff0000">
<circle cx="427" cy="286" r="3.5"/>
</g>
<path d="M490,233v -43" fill="none" stroke="#ff0000" stroke-width="6"/>
<path d="M490,184v -43" fill="none" stroke="#ff0000" stroke-width="6"/>
<g stroke="#ff0000" stroke-width="6" fill="#ff0000">
<circle cx="490" cy="187" r="3.5"/>
</g>
<path d="M80,395v -168h 63v 129h 63v 39h 126v -298h 63v 189h 63v -99h 64" fill="none" stroke="#ff0000" stroke-width="6"/>
<path d="M332,107h 42" fill="none" stroke="#ff0000" stroke-width="6"/>
<rect x="113" y="-4" width="392" height="40" fill="white"/>
<text x="128" y="25" fill="black" font-size="31" font-family="Helvetica" font-weight="bold">
IGHJ4_star_02-j_5p_del
</text></svg>
