<?xml version="1.0" standalone="no"?>
<svg width="567" height="466" viewBox="0 0 567 466" xmlns="http://www.w3.org/2000/svg">
<title>
/bbx/output/_plots/example/sw/performance/plots/d_3p_del.svg
</title>
<desc>
Creator: ROOT Version 5.34/14
CreationDate: Wed Aug 19 19:38:51 2015</desc>
<defs>
</defs>
<rect x="0" y="0" width="567" height="466" fill="white"/>
<rect x="79" y="37" width="443" height="359" fill="none" stroke="black"/>
<rect x="79" y="37" width="443" height="359" fill="none" stroke="black"/>
<path d="M79,396h 443" fill="none" stroke="black" stroke-width="3"/>
<text x="324" y="449" fill="black" font-size="32" font-family="Times" font-weight="bold">
inferred - true
</text>
<path d="M181,385v 11" fill="none" stroke="black" stroke-width="3"/>
<path d="M205,391v 5" fill="none" stroke="black" stroke-width="3"/>
<path d="M229,391v 5" fill="none" stroke="black" stroke-width="3"/>
<path d="M253,391v 5" fill="none" stroke="black" stroke-width="3"/>
<path d="M277,391v 5" fill="none" stroke="black" stroke-width="3"/>
<path d="M300,385v 11" fill="none" stroke="black" stroke-width="3"/>
<path d="M324,391v 5" fill="none" stroke="black" stroke-width="3"/>
<path d="M348,391v 5" fill="none" stroke="black" stroke-width="3"/>
<path d="M372,391v 5" fill="none" stroke="black" stroke-width="3"/>
<path d="M396,391v 5" fill="none" stroke="black" stroke-width="3"/>
<path d="M420,385v 11" fill="none" stroke="black" stroke-width="3"/>
<path d="M181,385v 11" fill="none" stroke="black" stroke-width="3"/>
<path d="M157,391v 5" fill="none" stroke="black" stroke-width="3"/>
<path d="M133,391v 5" fill="none" stroke="black" stroke-width="3"/>
<path d="M109,391v 5" fill="none" stroke="black" stroke-width="3"/>
<path d="M85,391v 5" fill="none" stroke="black" stroke-width="3"/>
<path d="M420,385v 11" fill="none" stroke="black" stroke-width="3"/>
<path d="M444,391v 5" fill="none" stroke="black" stroke-width="3"/>
<path d="M468,391v 5" fill="none" stroke="black" stroke-width="3"/>
<path d="M492,391v 5" fill="none" stroke="black" stroke-width="3"/>
<path d="M516,391v 5" fill="none" stroke="black" stroke-width="3"/>
<text x="166" y="416" fill="black" font-size="21" font-family="Times" font-weight="bold">
-10
</text>
<text x="294" y="416" fill="black" font-size="21" font-family="Times" font-weight="bold">
0
</text>
<text x="408" y="416" fill="black" font-size="21" font-family="Times" font-weight="bold">
10
</text>
<path d="M79,37h 443" fill="none" stroke="black" stroke-width="3"/>
<path d="M181,48v -11" fill="none" stroke="black" stroke-width="3"/>
<path d="M205,43v -6" fill="none" stroke="black" stroke-width="3"/>
<path d="M229,43v -6" fill="none" stroke="black" stroke-width="3"/>
<path d="M253,43v -6" fill="none" stroke="black" stroke-width="3"/>
<path d="M277,43v -6" fill="none" stroke="black" stroke-width="3"/>
<path d="M300,48v -11" fill="none" stroke="black" stroke-width="3"/>
<path d="M324,43v -6" fill="none" stroke="black" stroke-width="3"/>
<path d="M348,43v -6" fill="none" stroke="black" stroke-width="3"/>
<path d="M372,43v -6" fill="none" stroke="black" stroke-width="3"/>
<path d="M396,43v -6" fill="none" stroke="black" stroke-width="3"/>
<path d="M420,48v -11" fill="none" stroke="black" stroke-width="3"/>
<path d="M181,48v -11" fill="none" stroke="black" stroke-width="3"/>
<path d="M157,43v -6" fill="none" stroke="black" stroke-width="3"/>
<path d="M133,43v -6" fill="none" stroke="black" stroke-width="3"/>
<path d="M109,43v -6" fill="none" stroke="black" stroke-width="3"/>
<path d="M85,43v -6" fill="none" stroke="black" stroke-width="3"/>
<path d="M420,48v -11" fill="none" stroke="black" stroke-width="3"/>
<path d="M444,43v -6" fill="none" stroke="black" stroke-width="3"/>
<path d="M468,43v -6" fill="none" stroke="black" stroke-width="3"/>
<path d="M492,43v -6" fill="none" stroke="black" stroke-width="3"/>
<path d="M516,43v -6" fill="none" stroke="black" stroke-width="3"/>
<path d="M79,396v -359" fill="none" stroke="black" stroke-width="3"/>
<path d="M92,396h -13" fill="none" stroke="black" stroke-width="3"/>
<path d="M86,362h -7" fill="none" stroke="black" stroke-width="3"/>
<path d="M86,327h -7" fill="none" stroke="black" stroke-width="3"/>
<path d="M86,293h -7" fill="none" stroke="black" stroke-width="3"/>
<path d="M92,259h -13" fill="none" stroke="black" stroke-width="3"/>
<path d="M86,224h -7" fill="none" stroke="black" stroke-width="3"/>
<path d="M86,190h -7" fill="none" stroke="black" stroke-width="3"/>
<path d="M86,156h -7" fill="none" stroke="black" stroke-width="3"/>
<path d="M92,121h -13" fill="none" stroke="black" stroke-width="3"/>
<path d="M92,121h -13" fill="none" stroke="black" stroke-width="3"/>
<path d="M86,87h -7" fill="none" stroke="black" stroke-width="3"/>
<path d="M86,52h -7" fill="none" stroke="black" stroke-width="3"/>
<text x="46" y="404" fill="black" font-size="21" font-family="Times" font-weight="bold">
0.0
</text>
<text x="46" y="266" fill="black" font-size="21" font-family="Times" font-weight="bold">
0.2
</text>
<text x="46" y="129" fill="black" font-size="21" font-family="Times" font-weight="bold">
0.4
</text>
<path d="M522,396v -359" fill="none" stroke="black" stroke-width="3"/>
<path d="M508,396h 14" fill="none" stroke="black" stroke-width="3"/>
<path d="M515,362h 7" fill="none" stroke="black" stroke-width="3"/>
<path d="M515,327h 7" fill="none" stroke="black" stroke-width="3"/>
<path d="M515,293h 7" fill="none" stroke="black" stroke-width="3"/>
<path d="M508,259h 14" fill="none" stroke="black" stroke-width="3"/>
<path d="M515,224h 7" fill="none" stroke="black" stroke-width="3"/>
<path d="M515,190h 7" fill="none" stroke="black" stroke-width="3"/>
<path d="M515,156h 7" fill="none" stroke="black" stroke-width="3"/>
<path d="M508,121h 14" fill="none" stroke="black" stroke-width="3"/>
<path d="M508,121h 14" fill="none" stroke="black" stroke-width="3"/>
<path d="M515,87h 7" fill="none" stroke="black" stroke-width="3"/>
<path d="M515,52h 7" fill="none" stroke="black" stroke-width="3"/>
<rect x="113" y="-4" width="149" height="40" fill="white"/>
<text x="118" y="25" fill="black" font-size="31" font-family="Helvetica" font-weight="bold">
d_3p_del
</text>
<path d="M80,395v -9h 11v 9h 72v -16h 12v 16h 24v -2h 12v 2h 12v -2h 24v -18h 12v -6h 12v -4h 12v -20h 11v -248h 12v 224h 12v 37h 12v 21h 36v -10h 12v 17h 12v 3h 12v 4h 12v 2h 12v -2h 12v 2h 72v -2h 12" fill="none" stroke="#ff0000" stroke-width="6"/>
<path d="M332,107h 42" fill="none" stroke="#ff0000" stroke-width="6"/>
<rect x="113" y="-4" width="149" height="40" fill="white"/>
<text x="118" y="25" fill="black" font-size="31" font-family="Helvetica" font-weight="bold">
d_3p_del
</text></svg>
