<?xml version="1.0" standalone="no"?>
<svg width="567" height="466" viewBox="0 0 567 466" xmlns="http://www.w3.org/2000/svg">
<title>
/bbx/output/_plots/example/sw/performance/plots/d_5p_del.svg
</title>
<desc>
Creator: ROOT Version 5.34/14
CreationDate: Wed Aug 19 19:38:51 2015</desc>
<defs>
</defs>
<rect x="0" y="0" width="567" height="466" fill="white"/>
<rect x="79" y="37" width="443" height="359" fill="none" stroke="black"/>
<rect x="79" y="37" width="443" height="359" fill="none" stroke="black"/>
<path d="M79,396h 443" fill="none" stroke="black" stroke-width="3"/>
<text x="324" y="449" fill="black" font-size="32" font-family="Times" font-weight="bold">
inferred - true
</text>
<path d="M137,385v 11" fill="none" stroke="black" stroke-width="3"/>
<path d="M169,391v 5" fill="none" stroke="black" stroke-width="3"/>
<path d="M202,391v 5" fill="none" stroke="black" stroke-width="3"/>
<path d="M235,391v 5" fill="none" stroke="black" stroke-width="3"/>
<path d="M268,391v 5" fill="none" stroke="black" stroke-width="3"/>
<path d="M300,385v 11" fill="none" stroke="black" stroke-width="3"/>
<path d="M333,391v 5" fill="none" stroke="black" stroke-width="3"/>
<path d="M366,391v 5" fill="none" stroke="black" stroke-width="3"/>
<path d="M399,391v 5" fill="none" stroke="black" stroke-width="3"/>
<path d="M431,391v 5" fill="none" stroke="black" stroke-width="3"/>
<path d="M464,385v 11" fill="none" stroke="black" stroke-width="3"/>
<path d="M137,385v 11" fill="none" stroke="black" stroke-width="3"/>
<path d="M104,391v 5" fill="none" stroke="black" stroke-width="3"/>
<path d="M464,385v 11" fill="none" stroke="black" stroke-width="3"/>
<path d="M497,391v 5" fill="none" stroke="black" stroke-width="3"/>
<text x="121" y="416" fill="black" font-size="21" font-family="Times" font-weight="bold">
-10
</text>
<text x="294" y="416" fill="black" font-size="21" font-family="Times" font-weight="bold">
0
</text>
<text x="452" y="416" fill="black" font-size="21" font-family="Times" font-weight="bold">
10
</text>
<path d="M79,37h 443" fill="none" stroke="black" stroke-width="3"/>
<path d="M137,48v -11" fill="none" stroke="black" stroke-width="3"/>
<path d="M169,43v -6" fill="none" stroke="black" stroke-width="3"/>
<path d="M202,43v -6" fill="none" stroke="black" stroke-width="3"/>
<path d="M235,43v -6" fill="none" stroke="black" stroke-width="3"/>
<path d="M268,43v -6" fill="none" stroke="black" stroke-width="3"/>
<path d="M300,48v -11" fill="none" stroke="black" stroke-width="3"/>
<path d="M333,43v -6" fill="none" stroke="black" stroke-width="3"/>
<path d="M366,43v -6" fill="none" stroke="black" stroke-width="3"/>
<path d="M399,43v -6" fill="none" stroke="black" stroke-width="3"/>
<path d="M431,43v -6" fill="none" stroke="black" stroke-width="3"/>
<path d="M464,48v -11" fill="none" stroke="black" stroke-width="3"/>
<path d="M137,48v -11" fill="none" stroke="black" stroke-width="3"/>
<path d="M104,43v -6" fill="none" stroke="black" stroke-width="3"/>
<path d="M464,48v -11" fill="none" stroke="black" stroke-width="3"/>
<path d="M497,43v -6" fill="none" stroke="black" stroke-width="3"/>
<path d="M79,396v -359" fill="none" stroke="black" stroke-width="3"/>
<path d="M92,396h -13" fill="none" stroke="black" stroke-width="3"/>
<path d="M86,370h -7" fill="none" stroke="black" stroke-width="3"/>
<path d="M86,343h -7" fill="none" stroke="black" stroke-width="3"/>
<path d="M86,317h -7" fill="none" stroke="black" stroke-width="3"/>
<path d="M92,290h -13" fill="none" stroke="black" stroke-width="3"/>
<path d="M86,264h -7" fill="none" stroke="black" stroke-width="3"/>
<path d="M86,237h -7" fill="none" stroke="black" stroke-width="3"/>
<path d="M86,211h -7" fill="none" stroke="black" stroke-width="3"/>
<path d="M92,184h -13" fill="none" stroke="black" stroke-width="3"/>
<path d="M86,158h -7" fill="none" stroke="black" stroke-width="3"/>
<path d="M86,132h -7" fill="none" stroke="black" stroke-width="3"/>
<path d="M86,105h -7" fill="none" stroke="black" stroke-width="3"/>
<path d="M92,79h -13" fill="none" stroke="black" stroke-width="3"/>
<path d="M92,79h -13" fill="none" stroke="black" stroke-width="3"/>
<path d="M86,52h -7" fill="none" stroke="black" stroke-width="3"/>
<text x="46" y="404" fill="black" font-size="21" font-family="Times" font-weight="bold">
0.0
</text>
<text x="46" y="298" fill="black" font-size="21" font-family="Times" font-weight="bold">
0.2
</text>
<text x="46" y="192" fill="black" font-size="21" font-family="Times" font-weight="bold">
0.4
</text>
<text x="46" y="86" fill="black" font-size="21" font-family="Times" font-weight="bold">
0.6
</text>
<path d="M522,396v -359" fill="none" stroke="black" stroke-width="3"/>
<path d="M508,396h 14" fill="none" stroke="black" stroke-width="3"/>
<path d="M515,370h 7" fill="none" stroke="black" stroke-width="3"/>
<path d="M515,343h 7" fill="none" stroke="black" stroke-width="3"/>
<path d="M515,317h 7" fill="none" stroke="black" stroke-width="3"/>
<path d="M508,290h 14" fill="none" stroke="black" stroke-width="3"/>
<path d="M515,264h 7" fill="none" stroke="black" stroke-width="3"/>
<path d="M515,237h 7" fill="none" stroke="black" stroke-width="3"/>
<path d="M515,211h 7" fill="none" stroke="black" stroke-width="3"/>
<path d="M508,184h 14" fill="none" stroke="black" stroke-width="3"/>
<path d="M515,158h 7" fill="none" stroke="black" stroke-width="3"/>
<path d="M515,132h 7" fill="none" stroke="black" stroke-width="3"/>
<path d="M515,105h 7" fill="none" stroke="black" stroke-width="3"/>
<path d="M508,79h 14" fill="none" stroke="black" stroke-width="3"/>
<path d="M508,79h 14" fill="none" stroke="black" stroke-width="3"/>
<path d="M515,52h 7" fill="none" stroke="black" stroke-width="3"/>
<rect x="113" y="-4" width="149" height="39" fill="white"/>
<text x="120" y="23" fill="black" font-size="30" font-family="Helvetica" font-weight="bold">
d_5p_del
</text>
<path d="M80,395v -2h 49v 2h 16v -12h 16v 8h 49v -27h 17v 22h 16v -6h 17v -5h 16v -11h 16v -267h 17v 262h 16v 24h 16v 3h 17v 9h 49v -7h 16v 7h 17v -2h 16v -5h 16v 7h 33v -2h 17" fill="none" stroke="#ff0000" stroke-width="6"/>
<path d="M332,107h 42" fill="none" stroke="#ff0000" stroke-width="6"/>
<rect x="113" y="-4" width="149" height="39" fill="white"/>
<text x="120" y="23" fill="black" font-size="30" font-family="Helvetica" font-weight="bold">
d_5p_del
</text></svg>
