<?xml version="1.0" standalone="no"?>
<svg width="567" height="466" viewBox="0 0 567 466" xmlns="http://www.w3.org/2000/svg">
<title>
/bbx/output/_plots/example/sw/performance/plots/d_hamming_to_true_naive_normed.svg
</title>
<desc>
Creator: ROOT Version 5.34/14
CreationDate: Thu Jul 30 18:25:36 2015</desc>
<defs>
</defs>
<rect x="0" y="0" width="567" height="466" fill="white"/>
<rect x="79" y="37" width="443" height="359" fill="none" stroke="black"/>
<rect x="79" y="37" width="443" height="359" fill="none" stroke="black"/>
<path d="M79,396h 443" fill="none" stroke="black" stroke-width="3"/>
<text x="268" y="446" fill="black" font-size="32" font-family="Times" font-weight="bold">
hamming distance
</text>
<path d="M83,385v 11" fill="none" stroke="black" stroke-width="3"/>
<path d="M117,391v 5" fill="none" stroke="black" stroke-width="3"/>
<path d="M151,391v 5" fill="none" stroke="black" stroke-width="3"/>
<path d="M185,391v 5" fill="none" stroke="black" stroke-width="3"/>
<path d="M219,385v 11" fill="none" stroke="black" stroke-width="3"/>
<path d="M253,391v 5" fill="none" stroke="black" stroke-width="3"/>
<path d="M287,391v 5" fill="none" stroke="black" stroke-width="3"/>
<path d="M321,391v 5" fill="none" stroke="black" stroke-width="3"/>
<path d="M355,385v 11" fill="none" stroke="black" stroke-width="3"/>
<path d="M389,391v 5" fill="none" stroke="black" stroke-width="3"/>
<path d="M423,391v 5" fill="none" stroke="black" stroke-width="3"/>
<path d="M457,391v 5" fill="none" stroke="black" stroke-width="3"/>
<path d="M491,385v 11" fill="none" stroke="black" stroke-width="3"/>
<path d="M83,385v 11" fill="none" stroke="black" stroke-width="3"/>
<path d="M491,385v 11" fill="none" stroke="black" stroke-width="3"/>
<text x="77" y="416" fill="black" font-size="21" font-family="Times" font-weight="bold">
0
</text>
<text x="207" y="416" fill="black" font-size="21" font-family="Times" font-weight="bold">
20
</text>
<text x="343" y="416" fill="black" font-size="21" font-family="Times" font-weight="bold">
40
</text>
<text x="479" y="416" fill="black" font-size="21" font-family="Times" font-weight="bold">
60
</text>
<path d="M79,37h 443" fill="none" stroke="black" stroke-width="3"/>
<path d="M83,48v -11" fill="none" stroke="black" stroke-width="3"/>
<path d="M117,43v -6" fill="none" stroke="black" stroke-width="3"/>
<path d="M151,43v -6" fill="none" stroke="black" stroke-width="3"/>
<path d="M185,43v -6" fill="none" stroke="black" stroke-width="3"/>
<path d="M219,48v -11" fill="none" stroke="black" stroke-width="3"/>
<path d="M253,43v -6" fill="none" stroke="black" stroke-width="3"/>
<path d="M287,43v -6" fill="none" stroke="black" stroke-width="3"/>
<path d="M321,43v -6" fill="none" stroke="black" stroke-width="3"/>
<path d="M355,48v -11" fill="none" stroke="black" stroke-width="3"/>
<path d="M389,43v -6" fill="none" stroke="black" stroke-width="3"/>
<path d="M423,43v -6" fill="none" stroke="black" stroke-width="3"/>
<path d="M457,43v -6" fill="none" stroke="black" stroke-width="3"/>
<path d="M491,48v -11" fill="none" stroke="black" stroke-width="3"/>
<path d="M83,48v -11" fill="none" stroke="black" stroke-width="3"/>
<path d="M491,48v -11" fill="none" stroke="black" stroke-width="3"/>
<path d="M79,396v -359" fill="none" stroke="black" stroke-width="3"/>
<path d="M92,396h -13" fill="none" stroke="black" stroke-width="3"/>
<path d="M86,370h -7" fill="none" stroke="black" stroke-width="3"/>
<path d="M86,343h -7" fill="none" stroke="black" stroke-width="3"/>
<path d="M86,317h -7" fill="none" stroke="black" stroke-width="3"/>
<path d="M92,290h -13" fill="none" stroke="black" stroke-width="3"/>
<path d="M86,264h -7" fill="none" stroke="black" stroke-width="3"/>
<path d="M86,237h -7" fill="none" stroke="black" stroke-width="3"/>
<path d="M86,211h -7" fill="none" stroke="black" stroke-width="3"/>
<path d="M92,184h -13" fill="none" stroke="black" stroke-width="3"/>
<path d="M86,158h -7" fill="none" stroke="black" stroke-width="3"/>
<path d="M86,132h -7" fill="none" stroke="black" stroke-width="3"/>
<path d="M86,105h -7" fill="none" stroke="black" stroke-width="3"/>
<path d="M92,79h -13" fill="none" stroke="black" stroke-width="3"/>
<path d="M92,79h -13" fill="none" stroke="black" stroke-width="3"/>
<path d="M86,52h -7" fill="none" stroke="black" stroke-width="3"/>
<text x="46" y="404" fill="black" font-size="21" font-family="Times" font-weight="bold">
0.0
</text>
<text x="46" y="298" fill="black" font-size="21" font-family="Times" font-weight="bold">
0.2
</text>
<text x="46" y="192" fill="black" font-size="21" font-family="Times" font-weight="bold">
0.4
</text>
<text x="46" y="86" fill="black" font-size="21" font-family="Times" font-weight="bold">
0.6
</text>
<path d="M522,396v -359" fill="none" stroke="black" stroke-width="3"/>
<path d="M508,396h 14" fill="none" stroke="black" stroke-width="3"/>
<path d="M515,370h 7" fill="none" stroke="black" stroke-width="3"/>
<path d="M515,343h 7" fill="none" stroke="black" stroke-width="3"/>
<path d="M515,317h 7" fill="none" stroke="black" stroke-width="3"/>
<path d="M508,290h 14" fill="none" stroke="black" stroke-width="3"/>
<path d="M515,264h 7" fill="none" stroke="black" stroke-width="3"/>
<path d="M515,237h 7" fill="none" stroke="black" stroke-width="3"/>
<path d="M515,211h 7" fill="none" stroke="black" stroke-width="3"/>
<path d="M508,184h 14" fill="none" stroke="black" stroke-width="3"/>
<path d="M515,158h 7" fill="none" stroke="black" stroke-width="3"/>
<path d="M515,132h 7" fill="none" stroke="black" stroke-width="3"/>
<path d="M515,105h 7" fill="none" stroke="black" stroke-width="3"/>
<path d="M508,79h 14" fill="none" stroke="black" stroke-width="3"/>
<path d="M508,79h 14" fill="none" stroke="black" stroke-width="3"/>
<path d="M515,52h 7" fill="none" stroke="black" stroke-width="3"/>
<rect x="113" y="-4" width="397" height="40" fill="white"/>
<text x="131" y="21" fill="black" font-size="21" font-family="Helvetica" font-weight="bold">
d_hamming_to_true_naive_normed
</text>
<path d="M80,395v -298h 6v 298h 14v -2h 7v -2h 6v 2h 7v -10h 7v -37h 7v 47h 13v -10h 7v 10h 7v -18h 7v 20h 7v -9h 13v 7h 7v 2h 7v -2h 7v 2h 13v -2h 7v 2h 7v -2h 7v 2h 6v -23h 7v 23h 7v -4h 7v 4h 13v -7h 14v 7h 7v -7h 7v 7h 27v -2h 7v 2h 6v -2h 7v 2h
 34v -2h 7v 2h 21v -7h 6v 7h 21v -2h 7v 2h 6v -2h 7v 2h 21v -2h 13v 2h 14v -2h 7" fill="none" stroke="#ff0000" stroke-width="6"/>
<path d="M332,107h 42" fill="none" stroke="#ff0000" stroke-width="6"/>
<rect x="113" y="-4" width="397" height="40" fill="white"/>
<text x="131" y="21" fill="black" font-size="21" font-family="Helvetica" font-weight="bold">
d_hamming_to_true_naive_normed
</text></svg>
