<?xml version="1.0" standalone="no"?>
<svg width="567" height="466" viewBox="0 0 567 466" xmlns="http://www.w3.org/2000/svg">
<title>
/bbx/output/_plots/example/sw/performance/plots/dj_insertion.svg
</title>
<desc>
Creator: ROOT Version 5.34/14
CreationDate: Wed Aug 19 19:38:51 2015</desc>
<defs>
</defs>
<rect x="0" y="0" width="567" height="466" fill="white"/>
<rect x="79" y="37" width="443" height="359" fill="none" stroke="black"/>
<rect x="79" y="37" width="443" height="359" fill="none" stroke="black"/>
<path d="M79,396h 443" fill="none" stroke="black" stroke-width="3"/>
<text x="324" y="449" fill="black" font-size="32" font-family="Times" font-weight="bold">
inferred - true
</text>
<path d="M89,385v 11" fill="none" stroke="black" stroke-width="3"/>
<path d="M107,391v 5" fill="none" stroke="black" stroke-width="3"/>
<path d="M125,391v 5" fill="none" stroke="black" stroke-width="3"/>
<path d="M144,391v 5" fill="none" stroke="black" stroke-width="3"/>
<path d="M162,391v 5" fill="none" stroke="black" stroke-width="3"/>
<path d="M181,385v 11" fill="none" stroke="black" stroke-width="3"/>
<path d="M199,391v 5" fill="none" stroke="black" stroke-width="3"/>
<path d="M218,391v 5" fill="none" stroke="black" stroke-width="3"/>
<path d="M236,391v 5" fill="none" stroke="black" stroke-width="3"/>
<path d="M254,391v 5" fill="none" stroke="black" stroke-width="3"/>
<path d="M273,385v 11" fill="none" stroke="black" stroke-width="3"/>
<path d="M291,391v 5" fill="none" stroke="black" stroke-width="3"/>
<path d="M310,391v 5" fill="none" stroke="black" stroke-width="3"/>
<path d="M328,391v 5" fill="none" stroke="black" stroke-width="3"/>
<path d="M347,391v 5" fill="none" stroke="black" stroke-width="3"/>
<path d="M365,385v 11" fill="none" stroke="black" stroke-width="3"/>
<path d="M383,391v 5" fill="none" stroke="black" stroke-width="3"/>
<path d="M402,391v 5" fill="none" stroke="black" stroke-width="3"/>
<path d="M420,391v 5" fill="none" stroke="black" stroke-width="3"/>
<path d="M439,391v 5" fill="none" stroke="black" stroke-width="3"/>
<path d="M457,385v 11" fill="none" stroke="black" stroke-width="3"/>
<path d="M89,385v 11" fill="none" stroke="black" stroke-width="3"/>
<path d="M457,385v 11" fill="none" stroke="black" stroke-width="3"/>
<path d="M476,391v 5" fill="none" stroke="black" stroke-width="3"/>
<path d="M494,391v 5" fill="none" stroke="black" stroke-width="3"/>
<path d="M512,391v 5" fill="none" stroke="black" stroke-width="3"/>
<text x="73" y="416" fill="black" font-size="21" font-family="Times" font-weight="bold">
-15
</text>
<text x="165" y="416" fill="black" font-size="21" font-family="Times" font-weight="bold">
-10
</text>
<text x="263" y="416" fill="black" font-size="21" font-family="Times" font-weight="bold">
-5
</text>
<text x="359" y="416" fill="black" font-size="21" font-family="Times" font-weight="bold">
0
</text>
<text x="451" y="416" fill="black" font-size="21" font-family="Times" font-weight="bold">
5
</text>
<path d="M79,37h 443" fill="none" stroke="black" stroke-width="3"/>
<path d="M89,48v -11" fill="none" stroke="black" stroke-width="3"/>
<path d="M107,43v -6" fill="none" stroke="black" stroke-width="3"/>
<path d="M125,43v -6" fill="none" stroke="black" stroke-width="3"/>
<path d="M144,43v -6" fill="none" stroke="black" stroke-width="3"/>
<path d="M162,43v -6" fill="none" stroke="black" stroke-width="3"/>
<path d="M181,48v -11" fill="none" stroke="black" stroke-width="3"/>
<path d="M199,43v -6" fill="none" stroke="black" stroke-width="3"/>
<path d="M218,43v -6" fill="none" stroke="black" stroke-width="3"/>
<path d="M236,43v -6" fill="none" stroke="black" stroke-width="3"/>
<path d="M254,43v -6" fill="none" stroke="black" stroke-width="3"/>
<path d="M273,48v -11" fill="none" stroke="black" stroke-width="3"/>
<path d="M291,43v -6" fill="none" stroke="black" stroke-width="3"/>
<path d="M310,43v -6" fill="none" stroke="black" stroke-width="3"/>
<path d="M328,43v -6" fill="none" stroke="black" stroke-width="3"/>
<path d="M347,43v -6" fill="none" stroke="black" stroke-width="3"/>
<path d="M365,48v -11" fill="none" stroke="black" stroke-width="3"/>
<path d="M383,43v -6" fill="none" stroke="black" stroke-width="3"/>
<path d="M402,43v -6" fill="none" stroke="black" stroke-width="3"/>
<path d="M420,43v -6" fill="none" stroke="black" stroke-width="3"/>
<path d="M439,43v -6" fill="none" stroke="black" stroke-width="3"/>
<path d="M457,48v -11" fill="none" stroke="black" stroke-width="3"/>
<path d="M89,48v -11" fill="none" stroke="black" stroke-width="3"/>
<path d="M457,48v -11" fill="none" stroke="black" stroke-width="3"/>
<path d="M476,43v -6" fill="none" stroke="black" stroke-width="3"/>
<path d="M494,43v -6" fill="none" stroke="black" stroke-width="3"/>
<path d="M512,43v -6" fill="none" stroke="black" stroke-width="3"/>
<path d="M79,396v -359" fill="none" stroke="black" stroke-width="3"/>
<path d="M92,396h -13" fill="none" stroke="black" stroke-width="3"/>
<path d="M86,365h -7" fill="none" stroke="black" stroke-width="3"/>
<path d="M86,334h -7" fill="none" stroke="black" stroke-width="3"/>
<path d="M86,304h -7" fill="none" stroke="black" stroke-width="3"/>
<path d="M92,273h -13" fill="none" stroke="black" stroke-width="3"/>
<path d="M86,242h -7" fill="none" stroke="black" stroke-width="3"/>
<path d="M86,211h -7" fill="none" stroke="black" stroke-width="3"/>
<path d="M86,180h -7" fill="none" stroke="black" stroke-width="3"/>
<path d="M92,150h -13" fill="none" stroke="black" stroke-width="3"/>
<path d="M92,150h -13" fill="none" stroke="black" stroke-width="3"/>
<path d="M86,119h -7" fill="none" stroke="black" stroke-width="3"/>
<path d="M86,88h -7" fill="none" stroke="black" stroke-width="3"/>
<path d="M86,57h -7" fill="none" stroke="black" stroke-width="3"/>
<text x="46" y="404" fill="black" font-size="21" font-family="Times" font-weight="bold">
0.0
</text>
<text x="46" y="280" fill="black" font-size="21" font-family="Times" font-weight="bold">
0.2
</text>
<text x="46" y="157" fill="black" font-size="21" font-family="Times" font-weight="bold">
0.4
</text>
<path d="M522,396v -359" fill="none" stroke="black" stroke-width="3"/>
<path d="M508,396h 14" fill="none" stroke="black" stroke-width="3"/>
<path d="M515,365h 7" fill="none" stroke="black" stroke-width="3"/>
<path d="M515,334h 7" fill="none" stroke="black" stroke-width="3"/>
<path d="M515,304h 7" fill="none" stroke="black" stroke-width="3"/>
<path d="M508,273h 14" fill="none" stroke="black" stroke-width="3"/>
<path d="M515,242h 7" fill="none" stroke="black" stroke-width="3"/>
<path d="M515,211h 7" fill="none" stroke="black" stroke-width="3"/>
<path d="M515,180h 7" fill="none" stroke="black" stroke-width="3"/>
<path d="M508,150h 14" fill="none" stroke="black" stroke-width="3"/>
<path d="M508,150h 14" fill="none" stroke="black" stroke-width="3"/>
<path d="M515,119h 7" fill="none" stroke="black" stroke-width="3"/>
<path d="M515,88h 7" fill="none" stroke="black" stroke-width="3"/>
<path d="M515,57h 7" fill="none" stroke="black" stroke-width="3"/>
<rect x="113" y="-4" width="195" height="39" fill="white"/>
<text x="122" y="23" fill="black" font-size="30" font-family="Helvetica" font-weight="bold">
dj_insertion
</text>
<path d="M80,395v -2h 18v 2h 73v -2h 19v 2h 18v -5h 19v 3h 37v 2h 18v -39h 18v -15h 19v 6h 18v -3h 19v -247h 18v 250h 19v 31h 18v 15h 18v -18h 19v 20h 37v -5h 18v 3h 19" fill="none" stroke="#ff0000" stroke-width="6"/>
<path d="M332,107h 42" fill="none" stroke="#ff0000" stroke-width="6"/>
<rect x="113" y="-4" width="195" height="39" fill="white"/>
<text x="122" y="23" fill="black" font-size="30" font-family="Helvetica" font-weight="bold">
dj_insertion
</text></svg>
