<?xml version="1.0" standalone="no"?>
<svg width="567" height="466" viewBox="0 0 567 466" xmlns="http://www.w3.org/2000/svg">
<title>
/bbx/output/_plots/example/sw/performance/plots/hamming_to_true_naive.svg
</title>
<desc>
Creator: ROOT Version 5.34/14
CreationDate: Thu Jul 30 18:25:36 2015</desc>
<defs>
</defs>
<rect x="0" y="0" width="567" height="466" fill="white"/>
<rect x="79" y="37" width="443" height="359" fill="none" stroke="black"/>
<rect x="79" y="37" width="443" height="359" fill="none" stroke="black"/>
<path d="M79,396h 443" fill="none" stroke="black" stroke-width="3"/>
<text x="268" y="446" fill="black" font-size="32" font-family="Times" font-weight="bold">
hamming distance
</text>
<path d="M90,385v 11" fill="none" stroke="black" stroke-width="3"/>
<path d="M113,391v 5" fill="none" stroke="black" stroke-width="3"/>
<path d="M135,391v 5" fill="none" stroke="black" stroke-width="3"/>
<path d="M157,391v 5" fill="none" stroke="black" stroke-width="3"/>
<path d="M179,391v 5" fill="none" stroke="black" stroke-width="3"/>
<path d="M201,385v 11" fill="none" stroke="black" stroke-width="3"/>
<path d="M223,391v 5" fill="none" stroke="black" stroke-width="3"/>
<path d="M245,391v 5" fill="none" stroke="black" stroke-width="3"/>
<path d="M267,391v 5" fill="none" stroke="black" stroke-width="3"/>
<path d="M289,391v 5" fill="none" stroke="black" stroke-width="3"/>
<path d="M312,385v 11" fill="none" stroke="black" stroke-width="3"/>
<path d="M334,391v 5" fill="none" stroke="black" stroke-width="3"/>
<path d="M356,391v 5" fill="none" stroke="black" stroke-width="3"/>
<path d="M378,391v 5" fill="none" stroke="black" stroke-width="3"/>
<path d="M400,391v 5" fill="none" stroke="black" stroke-width="3"/>
<path d="M422,385v 11" fill="none" stroke="black" stroke-width="3"/>
<path d="M90,385v 11" fill="none" stroke="black" stroke-width="3"/>
<path d="M422,385v 11" fill="none" stroke="black" stroke-width="3"/>
<path d="M444,391v 5" fill="none" stroke="black" stroke-width="3"/>
<path d="M466,391v 5" fill="none" stroke="black" stroke-width="3"/>
<path d="M488,391v 5" fill="none" stroke="black" stroke-width="3"/>
<path d="M511,391v 5" fill="none" stroke="black" stroke-width="3"/>
<text x="85" y="416" fill="black" font-size="21" font-family="Times" font-weight="bold">
0
</text>
<text x="195" y="416" fill="black" font-size="21" font-family="Times" font-weight="bold">
5
</text>
<text x="300" y="416" fill="black" font-size="21" font-family="Times" font-weight="bold">
10
</text>
<text x="411" y="416" fill="black" font-size="21" font-family="Times" font-weight="bold">
15
</text>
<path d="M79,37h 443" fill="none" stroke="black" stroke-width="3"/>
<path d="M90,48v -11" fill="none" stroke="black" stroke-width="3"/>
<path d="M113,43v -6" fill="none" stroke="black" stroke-width="3"/>
<path d="M135,43v -6" fill="none" stroke="black" stroke-width="3"/>
<path d="M157,43v -6" fill="none" stroke="black" stroke-width="3"/>
<path d="M179,43v -6" fill="none" stroke="black" stroke-width="3"/>
<path d="M201,48v -11" fill="none" stroke="black" stroke-width="3"/>
<path d="M223,43v -6" fill="none" stroke="black" stroke-width="3"/>
<path d="M245,43v -6" fill="none" stroke="black" stroke-width="3"/>
<path d="M267,43v -6" fill="none" stroke="black" stroke-width="3"/>
<path d="M289,43v -6" fill="none" stroke="black" stroke-width="3"/>
<path d="M312,48v -11" fill="none" stroke="black" stroke-width="3"/>
<path d="M334,43v -6" fill="none" stroke="black" stroke-width="3"/>
<path d="M356,43v -6" fill="none" stroke="black" stroke-width="3"/>
<path d="M378,43v -6" fill="none" stroke="black" stroke-width="3"/>
<path d="M400,43v -6" fill="none" stroke="black" stroke-width="3"/>
<path d="M422,48v -11" fill="none" stroke="black" stroke-width="3"/>
<path d="M90,48v -11" fill="none" stroke="black" stroke-width="3"/>
<path d="M422,48v -11" fill="none" stroke="black" stroke-width="3"/>
<path d="M444,43v -6" fill="none" stroke="black" stroke-width="3"/>
<path d="M466,43v -6" fill="none" stroke="black" stroke-width="3"/>
<path d="M488,43v -6" fill="none" stroke="black" stroke-width="3"/>
<path d="M511,43v -6" fill="none" stroke="black" stroke-width="3"/>
<path d="M79,396v -359" fill="none" stroke="black" stroke-width="3"/>
<path d="M92,396h -13" fill="none" stroke="black" stroke-width="3"/>
<path d="M86,380h -7" fill="none" stroke="black" stroke-width="3"/>
<path d="M86,365h -7" fill="none" stroke="black" stroke-width="3"/>
<path d="M86,349h -7" fill="none" stroke="black" stroke-width="3"/>
<path d="M86,333h -7" fill="none" stroke="black" stroke-width="3"/>
<path d="M92,317h -13" fill="none" stroke="black" stroke-width="3"/>
<path d="M86,302h -7" fill="none" stroke="black" stroke-width="3"/>
<path d="M86,286h -7" fill="none" stroke="black" stroke-width="3"/>
<path d="M86,270h -7" fill="none" stroke="black" stroke-width="3"/>
<path d="M86,254h -7" fill="none" stroke="black" stroke-width="3"/>
<path d="M92,239h -13" fill="none" stroke="black" stroke-width="3"/>
<path d="M86,223h -7" fill="none" stroke="black" stroke-width="3"/>
<path d="M86,207h -7" fill="none" stroke="black" stroke-width="3"/>
<path d="M86,192h -7" fill="none" stroke="black" stroke-width="3"/>
<path d="M86,176h -7" fill="none" stroke="black" stroke-width="3"/>
<path d="M92,160h -13" fill="none" stroke="black" stroke-width="3"/>
<path d="M86,144h -7" fill="none" stroke="black" stroke-width="3"/>
<path d="M86,129h -7" fill="none" stroke="black" stroke-width="3"/>
<path d="M86,113h -7" fill="none" stroke="black" stroke-width="3"/>
<path d="M86,97h -7" fill="none" stroke="black" stroke-width="3"/>
<path d="M92,81h -13" fill="none" stroke="black" stroke-width="3"/>
<path d="M92,81h -13" fill="none" stroke="black" stroke-width="3"/>
<path d="M86,66h -7" fill="none" stroke="black" stroke-width="3"/>
<path d="M86,50h -7" fill="none" stroke="black" stroke-width="3"/>
<text x="35" y="404" fill="black" font-size="21" font-family="Times" font-weight="bold">
0.00
</text>
<text x="35" y="325" fill="black" font-size="21" font-family="Times" font-weight="bold">
0.05
</text>
<text x="35" y="247" fill="black" font-size="21" font-family="Times" font-weight="bold">
0.10
</text>
<text x="35" y="168" fill="black" font-size="21" font-family="Times" font-weight="bold">
0.15
</text>
<text x="35" y="89" fill="black" font-size="21" font-family="Times" font-weight="bold">
0.20
</text>
<path d="M522,396v -359" fill="none" stroke="black" stroke-width="3"/>
<path d="M508,396h 14" fill="none" stroke="black" stroke-width="3"/>
<path d="M515,380h 7" fill="none" stroke="black" stroke-width="3"/>
<path d="M515,365h 7" fill="none" stroke="black" stroke-width="3"/>
<path d="M515,349h 7" fill="none" stroke="black" stroke-width="3"/>
<path d="M515,333h 7" fill="none" stroke="black" stroke-width="3"/>
<path d="M508,317h 14" fill="none" stroke="black" stroke-width="3"/>
<path d="M515,302h 7" fill="none" stroke="black" stroke-width="3"/>
<path d="M515,286h 7" fill="none" stroke="black" stroke-width="3"/>
<path d="M515,270h 7" fill="none" stroke="black" stroke-width="3"/>
<path d="M515,254h 7" fill="none" stroke="black" stroke-width="3"/>
<path d="M508,239h 14" fill="none" stroke="black" stroke-width="3"/>
<path d="M515,223h 7" fill="none" stroke="black" stroke-width="3"/>
<path d="M515,207h 7" fill="none" stroke="black" stroke-width="3"/>
<path d="M515,192h 7" fill="none" stroke="black" stroke-width="3"/>
<path d="M515,176h 7" fill="none" stroke="black" stroke-width="3"/>
<path d="M508,160h 14" fill="none" stroke="black" stroke-width="3"/>
<path d="M515,144h 7" fill="none" stroke="black" stroke-width="3"/>
<path d="M515,129h 7" fill="none" stroke="black" stroke-width="3"/>
<path d="M515,113h 7" fill="none" stroke="black" stroke-width="3"/>
<path d="M515,97h 7" fill="none" stroke="black" stroke-width="3"/>
<path d="M508,81h 14" fill="none" stroke="black" stroke-width="3"/>
<path d="M508,81h 14" fill="none" stroke="black" stroke-width="3"/>
<path d="M515,66h 7" fill="none" stroke="black" stroke-width="3"/>
<path d="M515,50h 7" fill="none" stroke="black" stroke-width="3"/>
<rect x="113" y="-4" width="383" height="40" fill="white"/>
<text x="130" y="24" fill="black" font-size="30" font-family="Helvetica" font-weight="bold">
hamming_to_true_naive
</text>
<path d="M80,395v -227h 21v -24h 23v 87h 22v -134h 22v 173h 44v 24h 22v 39h 22v 24h 22v 23h 45v -15h 22v 8h 44v 15h 22v -8h 22v 15h 22v -22h 22v 15h 45" fill="none" stroke="#ff0000" stroke-width="6"/>
<path d="M332,107h 42" fill="none" stroke="#ff0000" stroke-width="6"/>
<rect x="113" y="-4" width="383" height="40" fill="white"/>
<text x="130" y="24" fill="black" font-size="30" font-family="Helvetica" font-weight="bold">
hamming_to_true_naive
</text></svg>
