<?xml version="1.0" standalone="no"?>
<svg width="567" height="466" viewBox="0 0 567 466" xmlns="http://www.w3.org/2000/svg">
<title>
/bbx/output/_plots/example/sw/performance/plots/j_3p_del.svg
</title>
<desc>
Creator: ROOT Version 5.34/14
CreationDate: Thu Jul 30 18:25:36 2015</desc>
<defs>
</defs>
<rect x="0" y="0" width="567" height="466" fill="white"/>
<rect x="79" y="37" width="443" height="359" fill="none" stroke="black"/>
<rect x="79" y="37" width="443" height="359" fill="none" stroke="black"/>
<path d="M79,396h 443" fill="none" stroke="black" stroke-width="3"/>
<text x="324" y="449" fill="black" font-size="32" font-family="Times" font-weight="bold">
inferred - true
</text>
<path d="M124,385v 11" fill="none" stroke="black" stroke-width="3"/>
<path d="M141,391v 5" fill="none" stroke="black" stroke-width="3"/>
<path d="M159,391v 5" fill="none" stroke="black" stroke-width="3"/>
<path d="M177,391v 5" fill="none" stroke="black" stroke-width="3"/>
<path d="M194,391v 5" fill="none" stroke="black" stroke-width="3"/>
<path d="M212,385v 11" fill="none" stroke="black" stroke-width="3"/>
<path d="M230,391v 5" fill="none" stroke="black" stroke-width="3"/>
<path d="M247,391v 5" fill="none" stroke="black" stroke-width="3"/>
<path d="M265,391v 5" fill="none" stroke="black" stroke-width="3"/>
<path d="M283,391v 5" fill="none" stroke="black" stroke-width="3"/>
<path d="M300,385v 11" fill="none" stroke="black" stroke-width="3"/>
<path d="M318,391v 5" fill="none" stroke="black" stroke-width="3"/>
<path d="M336,391v 5" fill="none" stroke="black" stroke-width="3"/>
<path d="M354,391v 5" fill="none" stroke="black" stroke-width="3"/>
<path d="M371,391v 5" fill="none" stroke="black" stroke-width="3"/>
<path d="M389,385v 11" fill="none" stroke="black" stroke-width="3"/>
<path d="M407,391v 5" fill="none" stroke="black" stroke-width="3"/>
<path d="M424,391v 5" fill="none" stroke="black" stroke-width="3"/>
<path d="M442,391v 5" fill="none" stroke="black" stroke-width="3"/>
<path d="M460,391v 5" fill="none" stroke="black" stroke-width="3"/>
<path d="M477,385v 11" fill="none" stroke="black" stroke-width="3"/>
<path d="M124,385v 11" fill="none" stroke="black" stroke-width="3"/>
<path d="M106,391v 5" fill="none" stroke="black" stroke-width="3"/>
<path d="M88,391v 5" fill="none" stroke="black" stroke-width="3"/>
<path d="M477,385v 11" fill="none" stroke="black" stroke-width="3"/>
<path d="M495,391v 5" fill="none" stroke="black" stroke-width="3"/>
<path d="M513,391v 5" fill="none" stroke="black" stroke-width="3"/>
<text x="108" y="416" fill="black" font-size="21" font-family="Times" font-weight="bold">
-15
</text>
<text x="197" y="416" fill="black" font-size="21" font-family="Times" font-weight="bold">
-10
</text>
<text x="291" y="416" fill="black" font-size="21" font-family="Times" font-weight="bold">
-5
</text>
<text x="383" y="416" fill="black" font-size="21" font-family="Times" font-weight="bold">
0
</text>
<text x="472" y="416" fill="black" font-size="21" font-family="Times" font-weight="bold">
5
</text>
<path d="M79,37h 443" fill="none" stroke="black" stroke-width="3"/>
<path d="M124,48v -11" fill="none" stroke="black" stroke-width="3"/>
<path d="M141,43v -6" fill="none" stroke="black" stroke-width="3"/>
<path d="M159,43v -6" fill="none" stroke="black" stroke-width="3"/>
<path d="M177,43v -6" fill="none" stroke="black" stroke-width="3"/>
<path d="M194,43v -6" fill="none" stroke="black" stroke-width="3"/>
<path d="M212,48v -11" fill="none" stroke="black" stroke-width="3"/>
<path d="M230,43v -6" fill="none" stroke="black" stroke-width="3"/>
<path d="M247,43v -6" fill="none" stroke="black" stroke-width="3"/>
<path d="M265,43v -6" fill="none" stroke="black" stroke-width="3"/>
<path d="M283,43v -6" fill="none" stroke="black" stroke-width="3"/>
<path d="M300,48v -11" fill="none" stroke="black" stroke-width="3"/>
<path d="M318,43v -6" fill="none" stroke="black" stroke-width="3"/>
<path d="M336,43v -6" fill="none" stroke="black" stroke-width="3"/>
<path d="M354,43v -6" fill="none" stroke="black" stroke-width="3"/>
<path d="M371,43v -6" fill="none" stroke="black" stroke-width="3"/>
<path d="M389,48v -11" fill="none" stroke="black" stroke-width="3"/>
<path d="M407,43v -6" fill="none" stroke="black" stroke-width="3"/>
<path d="M424,43v -6" fill="none" stroke="black" stroke-width="3"/>
<path d="M442,43v -6" fill="none" stroke="black" stroke-width="3"/>
<path d="M460,43v -6" fill="none" stroke="black" stroke-width="3"/>
<path d="M477,48v -11" fill="none" stroke="black" stroke-width="3"/>
<path d="M124,48v -11" fill="none" stroke="black" stroke-width="3"/>
<path d="M106,43v -6" fill="none" stroke="black" stroke-width="3"/>
<path d="M88,43v -6" fill="none" stroke="black" stroke-width="3"/>
<path d="M477,48v -11" fill="none" stroke="black" stroke-width="3"/>
<path d="M495,43v -6" fill="none" stroke="black" stroke-width="3"/>
<path d="M513,43v -6" fill="none" stroke="black" stroke-width="3"/>
<path d="M79,396v -359" fill="none" stroke="black" stroke-width="3"/>
<path d="M92,396h -13" fill="none" stroke="black" stroke-width="3"/>
<path d="M86,364h -7" fill="none" stroke="black" stroke-width="3"/>
<path d="M86,332h -7" fill="none" stroke="black" stroke-width="3"/>
<path d="M86,300h -7" fill="none" stroke="black" stroke-width="3"/>
<path d="M86,268h -7" fill="none" stroke="black" stroke-width="3"/>
<path d="M92,236h -13" fill="none" stroke="black" stroke-width="3"/>
<path d="M86,204h -7" fill="none" stroke="black" stroke-width="3"/>
<path d="M86,172h -7" fill="none" stroke="black" stroke-width="3"/>
<path d="M86,140h -7" fill="none" stroke="black" stroke-width="3"/>
<path d="M86,108h -7" fill="none" stroke="black" stroke-width="3"/>
<path d="M92,76h -13" fill="none" stroke="black" stroke-width="3"/>
<path d="M92,76h -13" fill="none" stroke="black" stroke-width="3"/>
<path d="M86,44h -7" fill="none" stroke="black" stroke-width="3"/>
<text x="46" y="404" fill="black" font-size="21" font-family="Times" font-weight="bold">
0.0
</text>
<text x="46" y="244" fill="black" font-size="21" font-family="Times" font-weight="bold">
0.5
</text>
<text x="46" y="84" fill="black" font-size="21" font-family="Times" font-weight="bold">
1.0
</text>
<path d="M522,396v -359" fill="none" stroke="black" stroke-width="3"/>
<path d="M508,396h 14" fill="none" stroke="black" stroke-width="3"/>
<path d="M515,364h 7" fill="none" stroke="black" stroke-width="3"/>
<path d="M515,332h 7" fill="none" stroke="black" stroke-width="3"/>
<path d="M515,300h 7" fill="none" stroke="black" stroke-width="3"/>
<path d="M515,268h 7" fill="none" stroke="black" stroke-width="3"/>
<path d="M508,236h 14" fill="none" stroke="black" stroke-width="3"/>
<path d="M515,204h 7" fill="none" stroke="black" stroke-width="3"/>
<path d="M515,172h 7" fill="none" stroke="black" stroke-width="3"/>
<path d="M515,140h 7" fill="none" stroke="black" stroke-width="3"/>
<path d="M515,108h 7" fill="none" stroke="black" stroke-width="3"/>
<path d="M508,76h 14" fill="none" stroke="black" stroke-width="3"/>
<path d="M508,76h 14" fill="none" stroke="black" stroke-width="3"/>
<path d="M515,44h 7" fill="none" stroke="black" stroke-width="3"/>
<rect x="113" y="-4" width="144" height="40" fill="white"/>
<text x="121" y="25" fill="black" font-size="31" font-family="Helvetica" font-weight="bold">
j_3p_del
</text>
<path d="M80,395h 300v -298h 18v 286h 17v 12h 89v -4h 18" fill="none" stroke="#ff0000" stroke-width="6"/>
<path d="M332,107h 42" fill="none" stroke="#ff0000" stroke-width="6"/>
<rect x="113" y="-4" width="144" height="40" fill="white"/>
<text x="121" y="25" fill="black" font-size="31" font-family="Helvetica" font-weight="bold">
j_3p_del
</text></svg>
