<?xml version="1.0" standalone="no"?>
<svg width="567" height="466" viewBox="0 0 567 466" xmlns="http://www.w3.org/2000/svg">
<title>
/bbx/output/_plots/example/sw/performance/plots/j_5p_del.svg
</title>
<desc>
Creator: ROOT Version 5.34/14
CreationDate: Wed Aug 19 19:38:51 2015</desc>
<defs>
</defs>
<rect x="0" y="0" width="567" height="466" fill="white"/>
<rect x="79" y="37" width="443" height="359" fill="none" stroke="black"/>
<rect x="79" y="37" width="443" height="359" fill="none" stroke="black"/>
<path d="M79,396h 443" fill="none" stroke="black" stroke-width="3"/>
<text x="324" y="449" fill="black" font-size="32" font-family="Times" font-weight="bold">
inferred - true
</text>
<path d="M104,385v 11" fill="none" stroke="black" stroke-width="3"/>
<path d="M137,391v 5" fill="none" stroke="black" stroke-width="3"/>
<path d="M169,391v 5" fill="none" stroke="black" stroke-width="3"/>
<path d="M202,391v 5" fill="none" stroke="black" stroke-width="3"/>
<path d="M235,391v 5" fill="none" stroke="black" stroke-width="3"/>
<path d="M268,385v 11" fill="none" stroke="black" stroke-width="3"/>
<path d="M300,391v 5" fill="none" stroke="black" stroke-width="3"/>
<path d="M333,391v 5" fill="none" stroke="black" stroke-width="3"/>
<path d="M366,391v 5" fill="none" stroke="black" stroke-width="3"/>
<path d="M399,391v 5" fill="none" stroke="black" stroke-width="3"/>
<path d="M431,385v 11" fill="none" stroke="black" stroke-width="3"/>
<path d="M104,385v 11" fill="none" stroke="black" stroke-width="3"/>
<path d="M431,385v 11" fill="none" stroke="black" stroke-width="3"/>
<path d="M464,391v 5" fill="none" stroke="black" stroke-width="3"/>
<path d="M497,391v 5" fill="none" stroke="black" stroke-width="3"/>
<text x="89" y="416" fill="black" font-size="21" font-family="Times" font-weight="bold">
-10
</text>
<text x="261" y="416" fill="black" font-size="21" font-family="Times" font-weight="bold">
0
</text>
<text x="419" y="416" fill="black" font-size="21" font-family="Times" font-weight="bold">
10
</text>
<path d="M79,37h 443" fill="none" stroke="black" stroke-width="3"/>
<path d="M104,48v -11" fill="none" stroke="black" stroke-width="3"/>
<path d="M137,43v -6" fill="none" stroke="black" stroke-width="3"/>
<path d="M169,43v -6" fill="none" stroke="black" stroke-width="3"/>
<path d="M202,43v -6" fill="none" stroke="black" stroke-width="3"/>
<path d="M235,43v -6" fill="none" stroke="black" stroke-width="3"/>
<path d="M268,48v -11" fill="none" stroke="black" stroke-width="3"/>
<path d="M300,43v -6" fill="none" stroke="black" stroke-width="3"/>
<path d="M333,43v -6" fill="none" stroke="black" stroke-width="3"/>
<path d="M366,43v -6" fill="none" stroke="black" stroke-width="3"/>
<path d="M399,43v -6" fill="none" stroke="black" stroke-width="3"/>
<path d="M431,48v -11" fill="none" stroke="black" stroke-width="3"/>
<path d="M104,48v -11" fill="none" stroke="black" stroke-width="3"/>
<path d="M431,48v -11" fill="none" stroke="black" stroke-width="3"/>
<path d="M464,43v -6" fill="none" stroke="black" stroke-width="3"/>
<path d="M497,43v -6" fill="none" stroke="black" stroke-width="3"/>
<path d="M79,396v -359" fill="none" stroke="black" stroke-width="3"/>
<path d="M92,396h -13" fill="none" stroke="black" stroke-width="3"/>
<path d="M86,364h -7" fill="none" stroke="black" stroke-width="3"/>
<path d="M86,332h -7" fill="none" stroke="black" stroke-width="3"/>
<path d="M86,300h -7" fill="none" stroke="black" stroke-width="3"/>
<path d="M92,268h -13" fill="none" stroke="black" stroke-width="3"/>
<path d="M86,235h -7" fill="none" stroke="black" stroke-width="3"/>
<path d="M86,203h -7" fill="none" stroke="black" stroke-width="3"/>
<path d="M86,171h -7" fill="none" stroke="black" stroke-width="3"/>
<path d="M92,139h -13" fill="none" stroke="black" stroke-width="3"/>
<path d="M92,139h -13" fill="none" stroke="black" stroke-width="3"/>
<path d="M86,107h -7" fill="none" stroke="black" stroke-width="3"/>
<path d="M86,75h -7" fill="none" stroke="black" stroke-width="3"/>
<path d="M86,42h -7" fill="none" stroke="black" stroke-width="3"/>
<text x="46" y="404" fill="black" font-size="21" font-family="Times" font-weight="bold">
0.0
</text>
<text x="46" y="275" fill="black" font-size="21" font-family="Times" font-weight="bold">
0.2
</text>
<text x="46" y="147" fill="black" font-size="21" font-family="Times" font-weight="bold">
0.4
</text>
<path d="M522,396v -359" fill="none" stroke="black" stroke-width="3"/>
<path d="M508,396h 14" fill="none" stroke="black" stroke-width="3"/>
<path d="M515,364h 7" fill="none" stroke="black" stroke-width="3"/>
<path d="M515,332h 7" fill="none" stroke="black" stroke-width="3"/>
<path d="M515,300h 7" fill="none" stroke="black" stroke-width="3"/>
<path d="M508,268h 14" fill="none" stroke="black" stroke-width="3"/>
<path d="M515,235h 7" fill="none" stroke="black" stroke-width="3"/>
<path d="M515,203h 7" fill="none" stroke="black" stroke-width="3"/>
<path d="M515,171h 7" fill="none" stroke="black" stroke-width="3"/>
<path d="M508,139h 14" fill="none" stroke="black" stroke-width="3"/>
<path d="M508,139h 14" fill="none" stroke="black" stroke-width="3"/>
<path d="M515,107h 7" fill="none" stroke="black" stroke-width="3"/>
<path d="M515,75h 7" fill="none" stroke="black" stroke-width="3"/>
<path d="M515,42h 7" fill="none" stroke="black" stroke-width="3"/>
<rect x="113" y="-4" width="144" height="40" fill="white"/>
<text x="121" y="25" fill="black" font-size="31" font-family="Helvetica" font-weight="bold">
j_5p_del
</text>
<path d="M80,395v -5h 16v 5h 33v -5h 16v -20h 16v 20h 17v -20h 16v 23h 16v -3h 17v -87h 16v 26h 17v -232h 16v 254h 16v 32h 17v -6h 16v 13h 16v 3h 17v 2h 49v -2h 33v 2h 32v -2h 17v 2h 16v -5h 17" fill="none" stroke="#ff0000" stroke-width="6"/>
<path d="M332,107h 42" fill="none" stroke="#ff0000" stroke-width="6"/>
<rect x="113" y="-4" width="144" height="40" fill="white"/>
<text x="121" y="25" fill="black" font-size="31" font-family="Helvetica" font-weight="bold">
j_5p_del
</text></svg>
