<?xml version="1.0" standalone="no"?>
<svg width="567" height="466" viewBox="0 0 567 466" xmlns="http://www.w3.org/2000/svg">
<title>
/bbx/output/_plots/example/sw/performance/plots/v_3p_del.svg
</title>
<desc>
Creator: ROOT Version 5.34/14
CreationDate: Wed Aug 19 19:38:51 2015</desc>
<defs>
</defs>
<rect x="0" y="0" width="567" height="466" fill="white"/>
<rect x="79" y="37" width="443" height="359" fill="none" stroke="black"/>
<rect x="79" y="37" width="443" height="359" fill="none" stroke="black"/>
<path d="M79,396h 443" fill="none" stroke="black" stroke-width="3"/>
<text x="324" y="449" fill="black" font-size="32" font-family="Times" font-weight="bold">
inferred - true
</text>
<path d="M101,385v 11" fill="none" stroke="black" stroke-width="3"/>
<path d="M124,391v 5" fill="none" stroke="black" stroke-width="3"/>
<path d="M146,391v 5" fill="none" stroke="black" stroke-width="3"/>
<path d="M168,391v 5" fill="none" stroke="black" stroke-width="3"/>
<path d="M190,385v 11" fill="none" stroke="black" stroke-width="3"/>
<path d="M212,391v 5" fill="none" stroke="black" stroke-width="3"/>
<path d="M234,391v 5" fill="none" stroke="black" stroke-width="3"/>
<path d="M256,391v 5" fill="none" stroke="black" stroke-width="3"/>
<path d="M278,385v 11" fill="none" stroke="black" stroke-width="3"/>
<path d="M300,391v 5" fill="none" stroke="black" stroke-width="3"/>
<path d="M323,391v 5" fill="none" stroke="black" stroke-width="3"/>
<path d="M345,391v 5" fill="none" stroke="black" stroke-width="3"/>
<path d="M367,385v 11" fill="none" stroke="black" stroke-width="3"/>
<path d="M389,391v 5" fill="none" stroke="black" stroke-width="3"/>
<path d="M411,391v 5" fill="none" stroke="black" stroke-width="3"/>
<path d="M433,391v 5" fill="none" stroke="black" stroke-width="3"/>
<path d="M455,385v 11" fill="none" stroke="black" stroke-width="3"/>
<path d="M101,385v 11" fill="none" stroke="black" stroke-width="3"/>
<path d="M79,391v 5" fill="none" stroke="black" stroke-width="3"/>
<path d="M455,385v 11" fill="none" stroke="black" stroke-width="3"/>
<path d="M477,391v 5" fill="none" stroke="black" stroke-width="3"/>
<path d="M499,391v 5" fill="none" stroke="black" stroke-width="3"/>
<text x="92" y="416" fill="black" font-size="21" font-family="Times" font-weight="bold">
-6
</text>
<text x="181" y="416" fill="black" font-size="21" font-family="Times" font-weight="bold">
-4
</text>
<text x="269" y="416" fill="black" font-size="21" font-family="Times" font-weight="bold">
-2
</text>
<text x="361" y="416" fill="black" font-size="21" font-family="Times" font-weight="bold">
0
</text>
<text x="449" y="416" fill="black" font-size="21" font-family="Times" font-weight="bold">
2
</text>
<path d="M79,37h 443" fill="none" stroke="black" stroke-width="3"/>
<path d="M101,48v -11" fill="none" stroke="black" stroke-width="3"/>
<path d="M124,43v -6" fill="none" stroke="black" stroke-width="3"/>
<path d="M146,43v -6" fill="none" stroke="black" stroke-width="3"/>
<path d="M168,43v -6" fill="none" stroke="black" stroke-width="3"/>
<path d="M190,48v -11" fill="none" stroke="black" stroke-width="3"/>
<path d="M212,43v -6" fill="none" stroke="black" stroke-width="3"/>
<path d="M234,43v -6" fill="none" stroke="black" stroke-width="3"/>
<path d="M256,43v -6" fill="none" stroke="black" stroke-width="3"/>
<path d="M278,48v -11" fill="none" stroke="black" stroke-width="3"/>
<path d="M300,43v -6" fill="none" stroke="black" stroke-width="3"/>
<path d="M323,43v -6" fill="none" stroke="black" stroke-width="3"/>
<path d="M345,43v -6" fill="none" stroke="black" stroke-width="3"/>
<path d="M367,48v -11" fill="none" stroke="black" stroke-width="3"/>
<path d="M389,43v -6" fill="none" stroke="black" stroke-width="3"/>
<path d="M411,43v -6" fill="none" stroke="black" stroke-width="3"/>
<path d="M433,43v -6" fill="none" stroke="black" stroke-width="3"/>
<path d="M455,48v -11" fill="none" stroke="black" stroke-width="3"/>
<path d="M101,48v -11" fill="none" stroke="black" stroke-width="3"/>
<path d="M79,43v -6" fill="none" stroke="black" stroke-width="3"/>
<path d="M455,48v -11" fill="none" stroke="black" stroke-width="3"/>
<path d="M477,43v -6" fill="none" stroke="black" stroke-width="3"/>
<path d="M499,43v -6" fill="none" stroke="black" stroke-width="3"/>
<path d="M79,396v -359" fill="none" stroke="black" stroke-width="3"/>
<path d="M92,396h -13" fill="none" stroke="black" stroke-width="3"/>
<path d="M86,376h -7" fill="none" stroke="black" stroke-width="3"/>
<path d="M86,355h -7" fill="none" stroke="black" stroke-width="3"/>
<path d="M86,335h -7" fill="none" stroke="black" stroke-width="3"/>
<path d="M92,314h -13" fill="none" stroke="black" stroke-width="3"/>
<path d="M86,294h -7" fill="none" stroke="black" stroke-width="3"/>
<path d="M86,273h -7" fill="none" stroke="black" stroke-width="3"/>
<path d="M86,253h -7" fill="none" stroke="black" stroke-width="3"/>
<path d="M92,232h -13" fill="none" stroke="black" stroke-width="3"/>
<path d="M86,212h -7" fill="none" stroke="black" stroke-width="3"/>
<path d="M86,191h -7" fill="none" stroke="black" stroke-width="3"/>
<path d="M86,171h -7" fill="none" stroke="black" stroke-width="3"/>
<path d="M92,150h -13" fill="none" stroke="black" stroke-width="3"/>
<path d="M86,130h -7" fill="none" stroke="black" stroke-width="3"/>
<path d="M86,109h -7" fill="none" stroke="black" stroke-width="3"/>
<path d="M86,89h -7" fill="none" stroke="black" stroke-width="3"/>
<path d="M92,68h -13" fill="none" stroke="black" stroke-width="3"/>
<path d="M92,68h -13" fill="none" stroke="black" stroke-width="3"/>
<path d="M86,48h -7" fill="none" stroke="black" stroke-width="3"/>
<text x="46" y="404" fill="black" font-size="21" font-family="Times" font-weight="bold">
0.0
</text>
<text x="46" y="322" fill="black" font-size="21" font-family="Times" font-weight="bold">
0.2
</text>
<text x="46" y="240" fill="black" font-size="21" font-family="Times" font-weight="bold">
0.4
</text>
<text x="46" y="158" fill="black" font-size="21" font-family="Times" font-weight="bold">
0.6
</text>
<text x="46" y="76" fill="black" font-size="21" font-family="Times" font-weight="bold">
0.8
</text>
<path d="M522,396v -359" fill="none" stroke="black" stroke-width="3"/>
<path d="M508,396h 14" fill="none" stroke="black" stroke-width="3"/>
<path d="M515,376h 7" fill="none" stroke="black" stroke-width="3"/>
<path d="M515,355h 7" fill="none" stroke="black" stroke-width="3"/>
<path d="M515,335h 7" fill="none" stroke="black" stroke-width="3"/>
<path d="M508,314h 14" fill="none" stroke="black" stroke-width="3"/>
<path d="M515,294h 7" fill="none" stroke="black" stroke-width="3"/>
<path d="M515,273h 7" fill="none" stroke="black" stroke-width="3"/>
<path d="M515,253h 7" fill="none" stroke="black" stroke-width="3"/>
<path d="M508,232h 14" fill="none" stroke="black" stroke-width="3"/>
<path d="M515,212h 7" fill="none" stroke="black" stroke-width="3"/>
<path d="M515,191h 7" fill="none" stroke="black" stroke-width="3"/>
<path d="M515,171h 7" fill="none" stroke="black" stroke-width="3"/>
<path d="M508,150h 14" fill="none" stroke="black" stroke-width="3"/>
<path d="M515,130h 7" fill="none" stroke="black" stroke-width="3"/>
<path d="M515,109h 7" fill="none" stroke="black" stroke-width="3"/>
<path d="M515,89h 7" fill="none" stroke="black" stroke-width="3"/>
<path d="M508,68h 14" fill="none" stroke="black" stroke-width="3"/>
<path d="M508,68h 14" fill="none" stroke="black" stroke-width="3"/>
<path d="M515,48h 7" fill="none" stroke="black" stroke-width="3"/>
<rect x="113" y="-4" width="147" height="40" fill="white"/>
<text x="119" y="25" fill="black" font-size="31" font-family="Helvetica" font-weight="bold">
v_3p_del
</text>
<path d="M80,395v -7h 44v 7h 44v -1h 44v -14h 44v 4h 44v -25h 45v -262h 44v 270h 44v 25h 44v 2h 45" fill="none" stroke="#ff0000" stroke-width="6"/>
<path d="M332,107h 42" fill="none" stroke="#ff0000" stroke-width="6"/>
<rect x="113" y="-4" width="147" height="40" fill="white"/>
<text x="119" y="25" fill="black" font-size="31" font-family="Helvetica" font-weight="bold">
v_3p_del
</text></svg>
