<?xml version="1.0" standalone="no"?>
<svg width="567" height="466" viewBox="0 0 567 466" xmlns="http://www.w3.org/2000/svg">
<title>
/bbx/output/_plots/example/sw/performance/plots/v_5p_del.svg
</title>
<desc>
Creator: ROOT Version 5.34/14
CreationDate: Thu Jul 30 18:25:36 2015</desc>
<defs>
</defs>
<rect x="0" y="0" width="567" height="466" fill="white"/>
<rect x="79" y="37" width="443" height="359" fill="none" stroke="black"/>
<rect x="79" y="37" width="443" height="359" fill="none" stroke="black"/>
<path d="M79,396h 443" fill="none" stroke="black" stroke-width="3"/>
<text x="324" y="449" fill="black" font-size="32" font-family="Times" font-weight="bold">
inferred - true
</text>
<path d="M172,385v 11" fill="none" stroke="black" stroke-width="3"/>
<path d="M197,391v 5" fill="none" stroke="black" stroke-width="3"/>
<path d="M223,391v 5" fill="none" stroke="black" stroke-width="3"/>
<path d="M248,391v 5" fill="none" stroke="black" stroke-width="3"/>
<path d="M273,385v 11" fill="none" stroke="black" stroke-width="3"/>
<path d="M298,391v 5" fill="none" stroke="black" stroke-width="3"/>
<path d="M323,391v 5" fill="none" stroke="black" stroke-width="3"/>
<path d="M348,391v 5" fill="none" stroke="black" stroke-width="3"/>
<path d="M373,385v 11" fill="none" stroke="black" stroke-width="3"/>
<path d="M398,391v 5" fill="none" stroke="black" stroke-width="3"/>
<path d="M424,391v 5" fill="none" stroke="black" stroke-width="3"/>
<path d="M449,391v 5" fill="none" stroke="black" stroke-width="3"/>
<path d="M474,385v 11" fill="none" stroke="black" stroke-width="3"/>
<path d="M172,385v 11" fill="none" stroke="black" stroke-width="3"/>
<path d="M147,391v 5" fill="none" stroke="black" stroke-width="3"/>
<path d="M122,391v 5" fill="none" stroke="black" stroke-width="3"/>
<path d="M97,391v 5" fill="none" stroke="black" stroke-width="3"/>
<path d="M474,385v 11" fill="none" stroke="black" stroke-width="3"/>
<path d="M499,391v 5" fill="none" stroke="black" stroke-width="3"/>
<text x="157" y="416" fill="black" font-size="21" font-family="Times" font-weight="bold">
-60
</text>
<text x="257" y="416" fill="black" font-size="21" font-family="Times" font-weight="bold">
-40
</text>
<text x="358" y="416" fill="black" font-size="21" font-family="Times" font-weight="bold">
-20
</text>
<text x="468" y="416" fill="black" font-size="21" font-family="Times" font-weight="bold">
0
</text>
<path d="M79,37h 443" fill="none" stroke="black" stroke-width="3"/>
<path d="M172,48v -11" fill="none" stroke="black" stroke-width="3"/>
<path d="M197,43v -6" fill="none" stroke="black" stroke-width="3"/>
<path d="M223,43v -6" fill="none" stroke="black" stroke-width="3"/>
<path d="M248,43v -6" fill="none" stroke="black" stroke-width="3"/>
<path d="M273,48v -11" fill="none" stroke="black" stroke-width="3"/>
<path d="M298,43v -6" fill="none" stroke="black" stroke-width="3"/>
<path d="M323,43v -6" fill="none" stroke="black" stroke-width="3"/>
<path d="M348,43v -6" fill="none" stroke="black" stroke-width="3"/>
<path d="M373,48v -11" fill="none" stroke="black" stroke-width="3"/>
<path d="M398,43v -6" fill="none" stroke="black" stroke-width="3"/>
<path d="M424,43v -6" fill="none" stroke="black" stroke-width="3"/>
<path d="M449,43v -6" fill="none" stroke="black" stroke-width="3"/>
<path d="M474,48v -11" fill="none" stroke="black" stroke-width="3"/>
<path d="M172,48v -11" fill="none" stroke="black" stroke-width="3"/>
<path d="M147,43v -6" fill="none" stroke="black" stroke-width="3"/>
<path d="M122,43v -6" fill="none" stroke="black" stroke-width="3"/>
<path d="M97,43v -6" fill="none" stroke="black" stroke-width="3"/>
<path d="M474,48v -11" fill="none" stroke="black" stroke-width="3"/>
<path d="M499,43v -6" fill="none" stroke="black" stroke-width="3"/>
<path d="M79,396v -359" fill="none" stroke="black" stroke-width="3"/>
<path d="M92,396h -13" fill="none" stroke="black" stroke-width="3"/>
<path d="M86,361h -7" fill="none" stroke="black" stroke-width="3"/>
<path d="M86,325h -7" fill="none" stroke="black" stroke-width="3"/>
<path d="M86,290h -7" fill="none" stroke="black" stroke-width="3"/>
<path d="M86,255h -7" fill="none" stroke="black" stroke-width="3"/>
<path d="M92,219h -13" fill="none" stroke="black" stroke-width="3"/>
<path d="M86,184h -7" fill="none" stroke="black" stroke-width="3"/>
<path d="M86,148h -7" fill="none" stroke="black" stroke-width="3"/>
<path d="M86,113h -7" fill="none" stroke="black" stroke-width="3"/>
<path d="M86,78h -7" fill="none" stroke="black" stroke-width="3"/>
<path d="M92,42h -13" fill="none" stroke="black" stroke-width="3"/>
<path d="M92,42h -13" fill="none" stroke="black" stroke-width="3"/>
<text x="46" y="404" fill="black" font-size="21" font-family="Times" font-weight="bold">
0.0
</text>
<text x="46" y="227" fill="black" font-size="21" font-family="Times" font-weight="bold">
0.5
</text>
<text x="46" y="50" fill="black" font-size="21" font-family="Times" font-weight="bold">
1.0
</text>
<path d="M522,396v -359" fill="none" stroke="black" stroke-width="3"/>
<path d="M508,396h 14" fill="none" stroke="black" stroke-width="3"/>
<path d="M515,361h 7" fill="none" stroke="black" stroke-width="3"/>
<path d="M515,325h 7" fill="none" stroke="black" stroke-width="3"/>
<path d="M515,290h 7" fill="none" stroke="black" stroke-width="3"/>
<path d="M515,255h 7" fill="none" stroke="black" stroke-width="3"/>
<path d="M508,219h 14" fill="none" stroke="black" stroke-width="3"/>
<path d="M515,184h 7" fill="none" stroke="black" stroke-width="3"/>
<path d="M515,148h 7" fill="none" stroke="black" stroke-width="3"/>
<path d="M515,113h 7" fill="none" stroke="black" stroke-width="3"/>
<path d="M515,78h 7" fill="none" stroke="black" stroke-width="3"/>
<path d="M508,42h 14" fill="none" stroke="black" stroke-width="3"/>
<path d="M508,42h 14" fill="none" stroke="black" stroke-width="3"/>
<rect x="113" y="-4" width="147" height="39" fill="white"/>
<text x="121" y="23" fill="black" font-size="30" font-family="Helvetica" font-weight="bold">
v_5p_del
</text>
<path d="M80,395v -2h 4v 1h 5v 1h 36v -1h 5v 1h 311v -2h 5v 2h 10v -1h 5v -1h 5v 2h 5v -298h 5v 280h 5v 17h 5v -5h 10v 6h 16v -1h 10" fill="none" stroke="#ff0000" stroke-width="6"/>
<path d="M332,107h 42" fill="none" stroke="#ff0000" stroke-width="6"/>
<rect x="113" y="-4" width="147" height="39" fill="white"/>
<text x="121" y="23" fill="black" font-size="30" font-family="Helvetica" font-weight="bold">
v_5p_del
</text></svg>
