<?xml version="1.0" standalone="no"?>
<svg width="567" height="466" viewBox="0 0 567 466" xmlns="http://www.w3.org/2000/svg">
<title>
/bbx/output/_plots/example/sw/performance/plots/v_gene.svg
</title>
<desc>
Creator: ROOT Version 5.34/14
CreationDate: Thu Jul 30 18:25:36 2015</desc>
<defs>
</defs>
<rect x="0" y="0" width="567" height="466" fill="white"/>
<rect x="79" y="37" width="443" height="359" fill="none" stroke="black"/>
<rect x="79" y="37" width="443" height="359" fill="none" stroke="black"/>
<path d="M79,396h 443" fill="none" stroke="black" stroke-width="3"/>
<text x="159" y="421" fill="black" font-size="28" font-family="Times" font-weight="bold">
right
</text>
<text x="371" y="415" fill="black" font-size="28" font-family="Times" font-weight="bold">
wrong
</text>
<path d="M190,385v 11" fill="none" stroke="black" stroke-width="3"/>
<path d="M411,385v 11" fill="none" stroke="black" stroke-width="3"/>
<path d="M190,385v 11" fill="none" stroke="black" stroke-width="3"/>
<path d="M411,385v 11" fill="none" stroke="black" stroke-width="3"/>
<path d="M79,37h 443" fill="none" stroke="black" stroke-width="3"/>
<path d="M190,48v -11" fill="none" stroke="black" stroke-width="3"/>
<path d="M411,48v -11" fill="none" stroke="black" stroke-width="3"/>
<path d="M190,48v -11" fill="none" stroke="black" stroke-width="3"/>
<path d="M411,48v -11" fill="none" stroke="black" stroke-width="3"/>
<path d="M79,396v -359" fill="none" stroke="black" stroke-width="3"/>
<path d="M92,396h -13" fill="none" stroke="black" stroke-width="3"/>
<path d="M86,378h -7" fill="none" stroke="black" stroke-width="3"/>
<path d="M86,359h -7" fill="none" stroke="black" stroke-width="3"/>
<path d="M86,340h -7" fill="none" stroke="black" stroke-width="3"/>
<path d="M92,322h -13" fill="none" stroke="black" stroke-width="3"/>
<path d="M86,303h -7" fill="none" stroke="black" stroke-width="3"/>
<path d="M86,285h -7" fill="none" stroke="black" stroke-width="3"/>
<path d="M86,266h -7" fill="none" stroke="black" stroke-width="3"/>
<path d="M92,248h -13" fill="none" stroke="black" stroke-width="3"/>
<path d="M86,229h -7" fill="none" stroke="black" stroke-width="3"/>
<path d="M86,210h -7" fill="none" stroke="black" stroke-width="3"/>
<path d="M86,192h -7" fill="none" stroke="black" stroke-width="3"/>
<path d="M92,173h -13" fill="none" stroke="black" stroke-width="3"/>
<path d="M86,155h -7" fill="none" stroke="black" stroke-width="3"/>
<path d="M86,136h -7" fill="none" stroke="black" stroke-width="3"/>
<path d="M86,118h -7" fill="none" stroke="black" stroke-width="3"/>
<path d="M92,99h -13" fill="none" stroke="black" stroke-width="3"/>
<path d="M92,99h -13" fill="none" stroke="black" stroke-width="3"/>
<path d="M86,80h -7" fill="none" stroke="black" stroke-width="3"/>
<path d="M86,62h -7" fill="none" stroke="black" stroke-width="3"/>
<path d="M86,43h -7" fill="none" stroke="black" stroke-width="3"/>
<text x="46" y="404" fill="black" font-size="21" font-family="Times" font-weight="bold">
0.0
</text>
<text x="46" y="330" fill="black" font-size="21" font-family="Times" font-weight="bold">
0.2
</text>
<text x="46" y="255" fill="black" font-size="21" font-family="Times" font-weight="bold">
0.4
</text>
<text x="46" y="181" fill="black" font-size="21" font-family="Times" font-weight="bold">
0.6
</text>
<text x="46" y="107" fill="black" font-size="21" font-family="Times" font-weight="bold">
0.8
</text>
<path d="M522,396v -359" fill="none" stroke="black" stroke-width="3"/>
<path d="M508,396h 14" fill="none" stroke="black" stroke-width="3"/>
<path d="M515,378h 7" fill="none" stroke="black" stroke-width="3"/>
<path d="M515,359h 7" fill="none" stroke="black" stroke-width="3"/>
<path d="M515,340h 7" fill="none" stroke="black" stroke-width="3"/>
<path d="M508,322h 14" fill="none" stroke="black" stroke-width="3"/>
<path d="M515,303h 7" fill="none" stroke="black" stroke-width="3"/>
<path d="M515,285h 7" fill="none" stroke="black" stroke-width="3"/>
<path d="M515,266h 7" fill="none" stroke="black" stroke-width="3"/>
<path d="M508,248h 14" fill="none" stroke="black" stroke-width="3"/>
<path d="M515,229h 7" fill="none" stroke="black" stroke-width="3"/>
<path d="M515,210h 7" fill="none" stroke="black" stroke-width="3"/>
<path d="M515,192h 7" fill="none" stroke="black" stroke-width="3"/>
<path d="M508,173h 14" fill="none" stroke="black" stroke-width="3"/>
<path d="M515,155h 7" fill="none" stroke="black" stroke-width="3"/>
<path d="M515,136h 7" fill="none" stroke="black" stroke-width="3"/>
<path d="M515,118h 7" fill="none" stroke="black" stroke-width="3"/>
<path d="M508,99h 14" fill="none" stroke="black" stroke-width="3"/>
<path d="M508,99h 14" fill="none" stroke="black" stroke-width="3"/>
<path d="M515,80h 7" fill="none" stroke="black" stroke-width="3"/>
<path d="M515,62h 7" fill="none" stroke="black" stroke-width="3"/>
<path d="M515,43h 7" fill="none" stroke="black" stroke-width="3"/>
<rect x="113" y="-4" width="115" height="38" fill="white"/>
<text x="118" y="20" fill="black" font-size="30" font-family="Helvetica" font-weight="bold">
v_gene
</text>
<path d="M80,395v -298h 220v 227h 222" fill="none" stroke="#ff0000" stroke-width="6"/>
<path d="M332,107h 42" fill="none" stroke="#ff0000" stroke-width="6"/>
<rect x="113" y="-4" width="115" height="38" fill="white"/>
<text x="118" y="20" fill="black" font-size="30" font-family="Helvetica" font-weight="bold">
v_gene
</text></svg>
