<?xml version="1.0" standalone="no"?>
<svg width="567" height="466" viewBox="0 0 567 466" xmlns="http://www.w3.org/2000/svg">
<title>
/bbx/output/_plots/example/sw/performance/plots/v_hamming_to_true_naive.svg
</title>
<desc>
Creator: ROOT Version 5.34/14
CreationDate: Thu Jul 30 18:25:36 2015</desc>
<defs>
</defs>
<rect x="0" y="0" width="567" height="466" fill="white"/>
<rect x="79" y="37" width="443" height="359" fill="none" stroke="black"/>
<rect x="79" y="37" width="443" height="359" fill="none" stroke="black"/>
<path d="M79,396h 443" fill="none" stroke="black" stroke-width="3"/>
<text x="268" y="446" fill="black" font-size="32" font-family="Times" font-weight="bold">
hamming distance
</text>
<path d="M99,385v 11" fill="none" stroke="black" stroke-width="3"/>
<path d="M140,391v 5" fill="none" stroke="black" stroke-width="3"/>
<path d="M180,391v 5" fill="none" stroke="black" stroke-width="3"/>
<path d="M220,391v 5" fill="none" stroke="black" stroke-width="3"/>
<path d="M260,391v 5" fill="none" stroke="black" stroke-width="3"/>
<path d="M300,385v 11" fill="none" stroke="black" stroke-width="3"/>
<path d="M341,391v 5" fill="none" stroke="black" stroke-width="3"/>
<path d="M381,391v 5" fill="none" stroke="black" stroke-width="3"/>
<path d="M421,391v 5" fill="none" stroke="black" stroke-width="3"/>
<path d="M461,391v 5" fill="none" stroke="black" stroke-width="3"/>
<path d="M501,385v 11" fill="none" stroke="black" stroke-width="3"/>
<path d="M99,385v 11" fill="none" stroke="black" stroke-width="3"/>
<path d="M501,385v 11" fill="none" stroke="black" stroke-width="3"/>
<text x="94" y="416" fill="black" font-size="21" font-family="Times" font-weight="bold">
0
</text>
<text x="294" y="416" fill="black" font-size="21" font-family="Times" font-weight="bold">
5
</text>
<text x="490" y="416" fill="black" font-size="21" font-family="Times" font-weight="bold">
10
</text>
<path d="M79,37h 443" fill="none" stroke="black" stroke-width="3"/>
<path d="M99,48v -11" fill="none" stroke="black" stroke-width="3"/>
<path d="M140,43v -6" fill="none" stroke="black" stroke-width="3"/>
<path d="M180,43v -6" fill="none" stroke="black" stroke-width="3"/>
<path d="M220,43v -6" fill="none" stroke="black" stroke-width="3"/>
<path d="M260,43v -6" fill="none" stroke="black" stroke-width="3"/>
<path d="M300,48v -11" fill="none" stroke="black" stroke-width="3"/>
<path d="M341,43v -6" fill="none" stroke="black" stroke-width="3"/>
<path d="M381,43v -6" fill="none" stroke="black" stroke-width="3"/>
<path d="M421,43v -6" fill="none" stroke="black" stroke-width="3"/>
<path d="M461,43v -6" fill="none" stroke="black" stroke-width="3"/>
<path d="M501,48v -11" fill="none" stroke="black" stroke-width="3"/>
<path d="M99,48v -11" fill="none" stroke="black" stroke-width="3"/>
<path d="M501,48v -11" fill="none" stroke="black" stroke-width="3"/>
<path d="M79,396v -359" fill="none" stroke="black" stroke-width="3"/>
<path d="M92,396h -13" fill="none" stroke="black" stroke-width="3"/>
<path d="M86,373h -7" fill="none" stroke="black" stroke-width="3"/>
<path d="M86,351h -7" fill="none" stroke="black" stroke-width="3"/>
<path d="M86,328h -7" fill="none" stroke="black" stroke-width="3"/>
<path d="M92,306h -13" fill="none" stroke="black" stroke-width="3"/>
<path d="M86,283h -7" fill="none" stroke="black" stroke-width="3"/>
<path d="M86,260h -7" fill="none" stroke="black" stroke-width="3"/>
<path d="M86,238h -7" fill="none" stroke="black" stroke-width="3"/>
<path d="M92,215h -13" fill="none" stroke="black" stroke-width="3"/>
<path d="M86,192h -7" fill="none" stroke="black" stroke-width="3"/>
<path d="M86,170h -7" fill="none" stroke="black" stroke-width="3"/>
<path d="M86,147h -7" fill="none" stroke="black" stroke-width="3"/>
<path d="M92,124h -13" fill="none" stroke="black" stroke-width="3"/>
<path d="M92,124h -13" fill="none" stroke="black" stroke-width="3"/>
<path d="M86,102h -7" fill="none" stroke="black" stroke-width="3"/>
<path d="M86,79h -7" fill="none" stroke="black" stroke-width="3"/>
<path d="M86,56h -7" fill="none" stroke="black" stroke-width="3"/>
<text x="46" y="404" fill="black" font-size="21" font-family="Times" font-weight="bold">
0.0
</text>
<text x="46" y="313" fill="black" font-size="21" font-family="Times" font-weight="bold">
0.2
</text>
<text x="46" y="222" fill="black" font-size="21" font-family="Times" font-weight="bold">
0.4
</text>
<text x="46" y="132" fill="black" font-size="21" font-family="Times" font-weight="bold">
0.6
</text>
<path d="M522,396v -359" fill="none" stroke="black" stroke-width="3"/>
<path d="M508,396h 14" fill="none" stroke="black" stroke-width="3"/>
<path d="M515,373h 7" fill="none" stroke="black" stroke-width="3"/>
<path d="M515,351h 7" fill="none" stroke="black" stroke-width="3"/>
<path d="M515,328h 7" fill="none" stroke="black" stroke-width="3"/>
<path d="M508,306h 14" fill="none" stroke="black" stroke-width="3"/>
<path d="M515,283h 7" fill="none" stroke="black" stroke-width="3"/>
<path d="M515,260h 7" fill="none" stroke="black" stroke-width="3"/>
<path d="M515,238h 7" fill="none" stroke="black" stroke-width="3"/>
<path d="M508,215h 14" fill="none" stroke="black" stroke-width="3"/>
<path d="M515,192h 7" fill="none" stroke="black" stroke-width="3"/>
<path d="M515,170h 7" fill="none" stroke="black" stroke-width="3"/>
<path d="M515,147h 7" fill="none" stroke="black" stroke-width="3"/>
<path d="M508,124h 14" fill="none" stroke="black" stroke-width="3"/>
<path d="M508,124h 14" fill="none" stroke="black" stroke-width="3"/>
<path d="M515,102h 7" fill="none" stroke="black" stroke-width="3"/>
<path d="M515,79h 7" fill="none" stroke="black" stroke-width="3"/>
<path d="M515,56h 7" fill="none" stroke="black" stroke-width="3"/>
<rect x="113" y="-4" width="397" height="40" fill="white"/>
<text x="130" y="24" fill="black" font-size="28" font-family="Helvetica" font-weight="bold">
v_hamming_to_true_naive
</text>
<path d="M80,395v -298h 40v 204h 40v 54h 40v 39h 322" fill="none" stroke="#ff0000" stroke-width="6"/>
<path d="M332,107h 42" fill="none" stroke="#ff0000" stroke-width="6"/>
<rect x="113" y="-4" width="397" height="40" fill="white"/>
<text x="130" y="24" fill="black" font-size="28" font-family="Helvetica" font-weight="bold">
v_hamming_to_true_naive
</text></svg>
