<?xml version="1.0" standalone="no"?>
<svg width="567" height="466" viewBox="0 0 567 466" xmlns="http://www.w3.org/2000/svg">
<title>
/bbx/output/_plots/example/sw/dj_insertion/plots/IGHJ4_star_02-dj_insertion.svg
</title>
<desc>
Creator: ROOT Version 5.34/14
CreationDate: Thu Jul 30 18:24:52 2015</desc>
<defs>
</defs>
<rect x="0" y="0" width="567" height="466" fill="white"/>
<rect x="79" y="37" width="443" height="359" fill="none" stroke="black"/>
<rect x="79" y="37" width="443" height="359" fill="none" stroke="black"/>
<path d="M79,396h 443" fill="none" stroke="black" stroke-width="3"/>
<path d="M92,385v 11" fill="none" stroke="black" stroke-width="3"/>
<path d="M118,391v 5" fill="none" stroke="black" stroke-width="3"/>
<path d="M144,391v 5" fill="none" stroke="black" stroke-width="3"/>
<path d="M170,391v 5" fill="none" stroke="black" stroke-width="3"/>
<path d="M196,391v 5" fill="none" stroke="black" stroke-width="3"/>
<path d="M222,385v 11" fill="none" stroke="black" stroke-width="3"/>
<path d="M248,391v 5" fill="none" stroke="black" stroke-width="3"/>
<path d="M274,391v 5" fill="none" stroke="black" stroke-width="3"/>
<path d="M300,391v 5" fill="none" stroke="black" stroke-width="3"/>
<path d="M326,391v 5" fill="none" stroke="black" stroke-width="3"/>
<path d="M352,385v 11" fill="none" stroke="black" stroke-width="3"/>
<path d="M379,391v 5" fill="none" stroke="black" stroke-width="3"/>
<path d="M405,391v 5" fill="none" stroke="black" stroke-width="3"/>
<path d="M431,391v 5" fill="none" stroke="black" stroke-width="3"/>
<path d="M457,391v 5" fill="none" stroke="black" stroke-width="3"/>
<path d="M483,385v 11" fill="none" stroke="black" stroke-width="3"/>
<path d="M92,385v 11" fill="none" stroke="black" stroke-width="3"/>
<path d="M483,385v 11" fill="none" stroke="black" stroke-width="3"/>
<path d="M509,391v 5" fill="none" stroke="black" stroke-width="3"/>
<text x="86" y="416" fill="black" font-size="21" font-family="Times" font-weight="bold">
0
</text>
<text x="217" y="416" fill="black" font-size="21" font-family="Times" font-weight="bold">
5
</text>
<text x="340" y="416" fill="black" font-size="21" font-family="Times" font-weight="bold">
10
</text>
<text x="471" y="416" fill="black" font-size="21" font-family="Times" font-weight="bold">
15
</text>
<path d="M79,37h 443" fill="none" stroke="black" stroke-width="3"/>
<path d="M92,48v -11" fill="none" stroke="black" stroke-width="3"/>
<path d="M118,43v -6" fill="none" stroke="black" stroke-width="3"/>
<path d="M144,43v -6" fill="none" stroke="black" stroke-width="3"/>
<path d="M170,43v -6" fill="none" stroke="black" stroke-width="3"/>
<path d="M196,43v -6" fill="none" stroke="black" stroke-width="3"/>
<path d="M222,48v -11" fill="none" stroke="black" stroke-width="3"/>
<path d="M248,43v -6" fill="none" stroke="black" stroke-width="3"/>
<path d="M274,43v -6" fill="none" stroke="black" stroke-width="3"/>
<path d="M300,43v -6" fill="none" stroke="black" stroke-width="3"/>
<path d="M326,43v -6" fill="none" stroke="black" stroke-width="3"/>
<path d="M352,48v -11" fill="none" stroke="black" stroke-width="3"/>
<path d="M379,43v -6" fill="none" stroke="black" stroke-width="3"/>
<path d="M405,43v -6" fill="none" stroke="black" stroke-width="3"/>
<path d="M431,43v -6" fill="none" stroke="black" stroke-width="3"/>
<path d="M457,43v -6" fill="none" stroke="black" stroke-width="3"/>
<path d="M483,48v -11" fill="none" stroke="black" stroke-width="3"/>
<path d="M92,48v -11" fill="none" stroke="black" stroke-width="3"/>
<path d="M483,48v -11" fill="none" stroke="black" stroke-width="3"/>
<path d="M509,43v -6" fill="none" stroke="black" stroke-width="3"/>
<path d="M79,396v -359" fill="none" stroke="black" stroke-width="3"/>
<path d="M92,396h -13" fill="none" stroke="black" stroke-width="3"/>
<path d="M86,368h -7" fill="none" stroke="black" stroke-width="3"/>
<path d="M86,339h -7" fill="none" stroke="black" stroke-width="3"/>
<path d="M86,311h -7" fill="none" stroke="black" stroke-width="3"/>
<path d="M86,282h -7" fill="none" stroke="black" stroke-width="3"/>
<path d="M92,254h -13" fill="none" stroke="black" stroke-width="3"/>
<path d="M86,225h -7" fill="none" stroke="black" stroke-width="3"/>
<path d="M86,197h -7" fill="none" stroke="black" stroke-width="3"/>
<path d="M86,168h -7" fill="none" stroke="black" stroke-width="3"/>
<path d="M86,140h -7" fill="none" stroke="black" stroke-width="3"/>
<path d="M92,111h -13" fill="none" stroke="black" stroke-width="3"/>
<path d="M92,111h -13" fill="none" stroke="black" stroke-width="3"/>
<path d="M86,83h -7" fill="none" stroke="black" stroke-width="3"/>
<path d="M86,54h -7" fill="none" stroke="black" stroke-width="3"/>
<text x="63" y="404" fill="black" font-size="21" font-family="Times" font-weight="bold">
0
</text>
<text x="51" y="262" fill="black" font-size="21" font-family="Times" font-weight="bold">
10
</text>
<text x="51" y="119" fill="black" font-size="21" font-family="Times" font-weight="bold">
20
</text>
<path d="M522,396v -359" fill="none" stroke="black" stroke-width="3"/>
<path d="M508,396h 14" fill="none" stroke="black" stroke-width="3"/>
<path d="M515,368h 7" fill="none" stroke="black" stroke-width="3"/>
<path d="M515,339h 7" fill="none" stroke="black" stroke-width="3"/>
<path d="M515,311h 7" fill="none" stroke="black" stroke-width="3"/>
<path d="M515,282h 7" fill="none" stroke="black" stroke-width="3"/>
<path d="M508,254h 14" fill="none" stroke="black" stroke-width="3"/>
<path d="M515,225h 7" fill="none" stroke="black" stroke-width="3"/>
<path d="M515,197h 7" fill="none" stroke="black" stroke-width="3"/>
<path d="M515,168h 7" fill="none" stroke="black" stroke-width="3"/>
<path d="M515,140h 7" fill="none" stroke="black" stroke-width="3"/>
<path d="M508,111h 14" fill="none" stroke="black" stroke-width="3"/>
<path d="M508,111h 14" fill="none" stroke="black" stroke-width="3"/>
<path d="M515,83h 7" fill="none" stroke="black" stroke-width="3"/>
<path d="M515,54h 7" fill="none" stroke="black" stroke-width="3"/>
<rect x="113" y="-4" width="397" height="39" fill="white"/>
<text x="130" y="23" fill="black" font-size="28" font-family="Helvetica" font-weight="bold">
IGHJ4_star_02-dj_insertion
</text>
<path d="M92,162v -62" fill="none" stroke="#ff0000" stroke-width="6"/>
<path d="M92,94v -57" fill="none" stroke="#ff0000" stroke-width="6"/>
<g stroke="#ff0000" stroke-width="6" fill="#ff0000">
<circle cx="92" cy="97" r="3.5"/>
</g>
<path d="M118,287v -44" fill="none" stroke="#ff0000" stroke-width="6"/>
<path d="M118,236v -44" fill="none" stroke="#ff0000" stroke-width="6"/>
<g stroke="#ff0000" stroke-width="6" fill="#ff0000">
<circle cx="118" cy="240" r="3.5"/>
</g>
<path d="M144,368v -26" fill="none" stroke="#ff0000" stroke-width="6"/>
<path d="M144,336v -25" fill="none" stroke="#ff0000" stroke-width="6"/>
<g stroke="#ff0000" stroke-width="6" fill="#ff0000">
<circle cx="144" cy="339" r="3.5"/>
</g>
<path d="M196,396v -11" fill="none" stroke="#ff0000" stroke-width="6"/>
<path d="M196,379v -11" fill="none" stroke="#ff0000" stroke-width="6"/>
<g stroke="#ff0000" stroke-width="6" fill="#ff0000">
<circle cx="196" cy="382" r="3.5"/>
</g>
<path d="M222,388v -17" fill="none" stroke="#ff0000" stroke-width="6"/>
<path d="M222,364v -16" fill="none" stroke="#ff0000" stroke-width="6"/>
<g stroke="#ff0000" stroke-width="6" fill="#ff0000">
<circle cx="222" cy="368" r="3.5"/>
</g>
<path d="M248,396v -11" fill="none" stroke="#ff0000" stroke-width="6"/>
<path d="M248,379v -11" fill="none" stroke="#ff0000" stroke-width="6"/>
<g stroke="#ff0000" stroke-width="6" fill="#ff0000">
<circle cx="248" cy="382" r="3.5"/>
</g>
<path d="M274,334v -34" fill="none" stroke="#ff0000" stroke-width="6"/>
<path d="M274,293v -34" fill="none" stroke="#ff0000" stroke-width="6"/>
<g stroke="#ff0000" stroke-width="6" fill="#ff0000">
<circle cx="274" cy="296" r="3.5"/>
</g>
<path d="M300,357v -29" fill="none" stroke="#ff0000" stroke-width="6"/>
<path d="M300,322v -29" fill="none" stroke="#ff0000" stroke-width="6"/>
<g stroke="#ff0000" stroke-width="6" fill="#ff0000">
<circle cx="300" cy="325" r="3.5"/>
</g>
<path d="M326,322v -37" fill="none" stroke="#ff0000" stroke-width="6"/>
<path d="M326,279v -37" fill="none" stroke="#ff0000" stroke-width="6"/>
<g stroke="#ff0000" stroke-width="6" fill="#ff0000">
<circle cx="326" cy="282" r="3.5"/>
</g>
<path d="M379,311v -40" fill="none" stroke="#ff0000" stroke-width="6"/>
<path d="M379,265v -40" fill="none" stroke="#ff0000" stroke-width="6"/>
<g stroke="#ff0000" stroke-width="6" fill="#ff0000">
<circle cx="379" cy="268" r="3.5"/>
</g>
<path d="M405,396v -11" fill="none" stroke="#ff0000" stroke-width="6"/>
<path d="M405,379v -11" fill="none" stroke="#ff0000" stroke-width="6"/>
<g stroke="#ff0000" stroke-width="6" fill="#ff0000">
<circle cx="405" cy="382" r="3.5"/>
</g>
<path d="M431,396v -11" fill="none" stroke="#ff0000" stroke-width="6"/>
<path d="M431,379v -11" fill="none" stroke="#ff0000" stroke-width="6"/>
<g stroke="#ff0000" stroke-width="6" fill="#ff0000">
<circle cx="431" cy="382" r="3.5"/>
</g>
<path d="M457,378v -21" fill="none" stroke="#ff0000" stroke-width="6"/>
<path d="M457,350v -21" fill="none" stroke="#ff0000" stroke-width="6"/>
<g stroke="#ff0000" stroke-width="6" fill="#ff0000">
<circle cx="457" cy="353" r="3.5"/>
</g>
<path d="M509,388v -17" fill="none" stroke="#ff0000" stroke-width="6"/>
<path d="M509,364v -16" fill="none" stroke="#ff0000" stroke-width="6"/>
<g stroke="#ff0000" stroke-width="6" fill="#ff0000">
<circle cx="509" cy="368" r="3.5"/>
</g>
<path d="M80,395v -298h 25v 143h 26v 99h 26v 56h 26v -13h 26v -14h 26v 14h 26v -86h 26v 29h 26v -43h 26v 113h 27v -127h 26v 114h 52v -29h 26v 42h 26v -27h 26" fill="none" stroke="#ff0000" stroke-width="6"/>
<path d="M332,107h 42" fill="none" stroke="#ff0000" stroke-width="6"/>
<rect x="113" y="-4" width="397" height="39" fill="white"/>
<text x="130" y="23" fill="black" font-size="28" font-family="Helvetica" font-weight="bold">
IGHJ4_star_02-dj_insertion
</text></svg>
