<?xml version="1.0" standalone="no"?>
<svg width="567" height="466" viewBox="0 0 567 466" xmlns="http://www.w3.org/2000/svg">
<title>
/bbx/output/_plots/example/hmm/true/plots/d_3p_del.svg
</title>
<desc>
Creator: ROOT Version 5.34/14
CreationDate: Wed Aug 19 19:38:35 2015</desc>
<defs>
</defs>
<rect x="0" y="0" width="567" height="466" fill="white"/>
<rect x="79" y="37" width="443" height="359" fill="none" stroke="black"/>
<rect x="79" y="37" width="443" height="359" fill="none" stroke="black"/>
<path d="M79,396h 443" fill="none" stroke="black" stroke-width="3"/>
<path d="M89,385v 11" fill="none" stroke="black" stroke-width="3"/>
<path d="M110,391v 5" fill="none" stroke="black" stroke-width="3"/>
<path d="M130,391v 5" fill="none" stroke="black" stroke-width="3"/>
<path d="M150,391v 5" fill="none" stroke="black" stroke-width="3"/>
<path d="M170,391v 5" fill="none" stroke="black" stroke-width="3"/>
<path d="M190,385v 11" fill="none" stroke="black" stroke-width="3"/>
<path d="M210,391v 5" fill="none" stroke="black" stroke-width="3"/>
<path d="M230,391v 5" fill="none" stroke="black" stroke-width="3"/>
<path d="M250,391v 5" fill="none" stroke="black" stroke-width="3"/>
<path d="M270,391v 5" fill="none" stroke="black" stroke-width="3"/>
<path d="M290,385v 11" fill="none" stroke="black" stroke-width="3"/>
<path d="M311,391v 5" fill="none" stroke="black" stroke-width="3"/>
<path d="M331,391v 5" fill="none" stroke="black" stroke-width="3"/>
<path d="M351,391v 5" fill="none" stroke="black" stroke-width="3"/>
<path d="M371,391v 5" fill="none" stroke="black" stroke-width="3"/>
<path d="M391,385v 11" fill="none" stroke="black" stroke-width="3"/>
<path d="M411,391v 5" fill="none" stroke="black" stroke-width="3"/>
<path d="M431,391v 5" fill="none" stroke="black" stroke-width="3"/>
<path d="M451,391v 5" fill="none" stroke="black" stroke-width="3"/>
<path d="M471,391v 5" fill="none" stroke="black" stroke-width="3"/>
<path d="M491,385v 11" fill="none" stroke="black" stroke-width="3"/>
<path d="M89,385v 11" fill="none" stroke="black" stroke-width="3"/>
<path d="M491,385v 11" fill="none" stroke="black" stroke-width="3"/>
<path d="M512,391v 5" fill="none" stroke="black" stroke-width="3"/>
<text x="83" y="416" fill="black" font-size="21" font-family="Times" font-weight="bold">
0
</text>
<text x="184" y="416" fill="black" font-size="21" font-family="Times" font-weight="bold">
5
</text>
<text x="279" y="416" fill="black" font-size="21" font-family="Times" font-weight="bold">
10
</text>
<text x="379" y="416" fill="black" font-size="21" font-family="Times" font-weight="bold">
15
</text>
<text x="480" y="416" fill="black" font-size="21" font-family="Times" font-weight="bold">
20
</text>
<path d="M79,37h 443" fill="none" stroke="black" stroke-width="3"/>
<path d="M89,48v -11" fill="none" stroke="black" stroke-width="3"/>
<path d="M110,43v -6" fill="none" stroke="black" stroke-width="3"/>
<path d="M130,43v -6" fill="none" stroke="black" stroke-width="3"/>
<path d="M150,43v -6" fill="none" stroke="black" stroke-width="3"/>
<path d="M170,43v -6" fill="none" stroke="black" stroke-width="3"/>
<path d="M190,48v -11" fill="none" stroke="black" stroke-width="3"/>
<path d="M210,43v -6" fill="none" stroke="black" stroke-width="3"/>
<path d="M230,43v -6" fill="none" stroke="black" stroke-width="3"/>
<path d="M250,43v -6" fill="none" stroke="black" stroke-width="3"/>
<path d="M270,43v -6" fill="none" stroke="black" stroke-width="3"/>
<path d="M290,48v -11" fill="none" stroke="black" stroke-width="3"/>
<path d="M311,43v -6" fill="none" stroke="black" stroke-width="3"/>
<path d="M331,43v -6" fill="none" stroke="black" stroke-width="3"/>
<path d="M351,43v -6" fill="none" stroke="black" stroke-width="3"/>
<path d="M371,43v -6" fill="none" stroke="black" stroke-width="3"/>
<path d="M391,48v -11" fill="none" stroke="black" stroke-width="3"/>
<path d="M411,43v -6" fill="none" stroke="black" stroke-width="3"/>
<path d="M431,43v -6" fill="none" stroke="black" stroke-width="3"/>
<path d="M451,43v -6" fill="none" stroke="black" stroke-width="3"/>
<path d="M471,43v -6" fill="none" stroke="black" stroke-width="3"/>
<path d="M491,48v -11" fill="none" stroke="black" stroke-width="3"/>
<path d="M89,48v -11" fill="none" stroke="black" stroke-width="3"/>
<path d="M491,48v -11" fill="none" stroke="black" stroke-width="3"/>
<path d="M512,43v -6" fill="none" stroke="black" stroke-width="3"/>
<path d="M79,396v -359" fill="none" stroke="black" stroke-width="3"/>
<path d="M92,396h -13" fill="none" stroke="black" stroke-width="3"/>
<path d="M86,380h -7" fill="none" stroke="black" stroke-width="3"/>
<path d="M86,364h -7" fill="none" stroke="black" stroke-width="3"/>
<path d="M86,348h -7" fill="none" stroke="black" stroke-width="3"/>
<path d="M86,331h -7" fill="none" stroke="black" stroke-width="3"/>
<path d="M92,315h -13" fill="none" stroke="black" stroke-width="3"/>
<path d="M86,299h -7" fill="none" stroke="black" stroke-width="3"/>
<path d="M86,283h -7" fill="none" stroke="black" stroke-width="3"/>
<path d="M86,267h -7" fill="none" stroke="black" stroke-width="3"/>
<path d="M86,251h -7" fill="none" stroke="black" stroke-width="3"/>
<path d="M92,235h -13" fill="none" stroke="black" stroke-width="3"/>
<path d="M86,218h -7" fill="none" stroke="black" stroke-width="3"/>
<path d="M86,202h -7" fill="none" stroke="black" stroke-width="3"/>
<path d="M86,186h -7" fill="none" stroke="black" stroke-width="3"/>
<path d="M86,170h -7" fill="none" stroke="black" stroke-width="3"/>
<path d="M92,154h -13" fill="none" stroke="black" stroke-width="3"/>
<path d="M86,138h -7" fill="none" stroke="black" stroke-width="3"/>
<path d="M86,121h -7" fill="none" stroke="black" stroke-width="3"/>
<path d="M86,105h -7" fill="none" stroke="black" stroke-width="3"/>
<path d="M86,89h -7" fill="none" stroke="black" stroke-width="3"/>
<path d="M92,73h -13" fill="none" stroke="black" stroke-width="3"/>
<path d="M92,73h -13" fill="none" stroke="black" stroke-width="3"/>
<path d="M86,57h -7" fill="none" stroke="black" stroke-width="3"/>
<path d="M86,41h -7" fill="none" stroke="black" stroke-width="3"/>
<text x="63" y="404" fill="black" font-size="21" font-family="Times" font-weight="bold">
0
</text>
<text x="51" y="323" fill="black" font-size="21" font-family="Times" font-weight="bold">
10
</text>
<text x="51" y="242" fill="black" font-size="21" font-family="Times" font-weight="bold">
20
</text>
<text x="51" y="161" fill="black" font-size="21" font-family="Times" font-weight="bold">
30
</text>
<text x="51" y="81" fill="black" font-size="21" font-family="Times" font-weight="bold">
40
</text>
<path d="M522,396v -359" fill="none" stroke="black" stroke-width="3"/>
<path d="M508,396h 14" fill="none" stroke="black" stroke-width="3"/>
<path d="M515,380h 7" fill="none" stroke="black" stroke-width="3"/>
<path d="M515,364h 7" fill="none" stroke="black" stroke-width="3"/>
<path d="M515,348h 7" fill="none" stroke="black" stroke-width="3"/>
<path d="M515,331h 7" fill="none" stroke="black" stroke-width="3"/>
<path d="M508,315h 14" fill="none" stroke="black" stroke-width="3"/>
<path d="M515,299h 7" fill="none" stroke="black" stroke-width="3"/>
<path d="M515,283h 7" fill="none" stroke="black" stroke-width="3"/>
<path d="M515,267h 7" fill="none" stroke="black" stroke-width="3"/>
<path d="M515,251h 7" fill="none" stroke="black" stroke-width="3"/>
<path d="M508,235h 14" fill="none" stroke="black" stroke-width="3"/>
<path d="M515,218h 7" fill="none" stroke="black" stroke-width="3"/>
<path d="M515,202h 7" fill="none" stroke="black" stroke-width="3"/>
<path d="M515,186h 7" fill="none" stroke="black" stroke-width="3"/>
<path d="M515,170h 7" fill="none" stroke="black" stroke-width="3"/>
<path d="M508,154h 14" fill="none" stroke="black" stroke-width="3"/>
<path d="M515,138h 7" fill="none" stroke="black" stroke-width="3"/>
<path d="M515,121h 7" fill="none" stroke="black" stroke-width="3"/>
<path d="M515,105h 7" fill="none" stroke="black" stroke-width="3"/>
<path d="M515,89h 7" fill="none" stroke="black" stroke-width="3"/>
<path d="M508,73h 14" fill="none" stroke="black" stroke-width="3"/>
<path d="M508,73h 14" fill="none" stroke="black" stroke-width="3"/>
<path d="M515,57h 7" fill="none" stroke="black" stroke-width="3"/>
<path d="M515,41h 7" fill="none" stroke="black" stroke-width="3"/>
<rect x="113" y="-4" width="149" height="40" fill="white"/>
<text x="118" y="25" fill="black" font-size="31" font-family="Helvetica" font-weight="bold">
d_3p_del
</text>
<path d="M89,146v -46" fill="none" stroke="#ff0000" stroke-width="6"/>
<path d="M89,94v -46" fill="none" stroke="#ff0000" stroke-width="6"/>
<g stroke="#ff0000" stroke-width="6" fill="#ff0000">
<circle cx="89" cy="97" r="3.5"/>
</g>
<path d="M110,361v -18" fill="none" stroke="#ff0000" stroke-width="6"/>
<path d="M110,336v -18" fill="none" stroke="#ff0000" stroke-width="6"/>
<g stroke="#ff0000" stroke-width="6" fill="#ff0000">
<circle cx="110" cy="340" r="3.5"/>
</g>
<path d="M130,341v -22" fill="none" stroke="#ff0000" stroke-width="6"/>
<path d="M130,312v -22" fill="none" stroke="#ff0000" stroke-width="6"/>
<g stroke="#ff0000" stroke-width="6" fill="#ff0000">
<circle cx="130" cy="315" r="3.5"/>
</g>
<path d="M150,278v -32" fill="none" stroke="#ff0000" stroke-width="6"/>
<path d="M150,239v -32" fill="none" stroke="#ff0000" stroke-width="6"/>
<g stroke="#ff0000" stroke-width="6" fill="#ff0000">
<circle cx="150" cy="243" r="3.5"/>
</g>
<path d="M170,341v -22" fill="none" stroke="#ff0000" stroke-width="6"/>
<path d="M170,312v -22" fill="none" stroke="#ff0000" stroke-width="6"/>
<g stroke="#ff0000" stroke-width="6" fill="#ff0000">
<circle cx="170" cy="315" r="3.5"/>
</g>
<path d="M190,374v -15" fill="none" stroke="#ff0000" stroke-width="6"/>
<path d="M190,352v -14" fill="none" stroke="#ff0000" stroke-width="6"/>
<g stroke="#ff0000" stroke-width="6" fill="#ff0000">
<circle cx="190" cy="356" r="3.5"/>
</g>
<path d="M210,354v -19" fill="none" stroke="#ff0000" stroke-width="6"/>
<path d="M210,328v -19" fill="none" stroke="#ff0000" stroke-width="6"/>
<g stroke="#ff0000" stroke-width="6" fill="#ff0000">
<circle cx="210" cy="331" r="3.5"/>
</g>
<path d="M270,391v -8" fill="none" stroke="#ff0000" stroke-width="6"/>
<path d="M270,377v -8" fill="none" stroke="#ff0000" stroke-width="6"/>
<g stroke="#ff0000" stroke-width="6" fill="#ff0000">
<circle cx="270" cy="380" r="3.5"/>
</g>
<path d="M290,374v -15" fill="none" stroke="#ff0000" stroke-width="6"/>
<path d="M290,352v -14" fill="none" stroke="#ff0000" stroke-width="6"/>
<g stroke="#ff0000" stroke-width="6" fill="#ff0000">
<circle cx="290" cy="356" r="3.5"/>
</g>
<path d="M311,374v -15" fill="none" stroke="#ff0000" stroke-width="6"/>
<path d="M311,352v -14" fill="none" stroke="#ff0000" stroke-width="6"/>
<g stroke="#ff0000" stroke-width="6" fill="#ff0000">
<circle cx="311" cy="356" r="3.5"/>
</g>
<path d="M331,299v -29" fill="none" stroke="#ff0000" stroke-width="6"/>
<path d="M331,264v -29" fill="none" stroke="#ff0000" stroke-width="6"/>
<g stroke="#ff0000" stroke-width="6" fill="#ff0000">
<circle cx="331" cy="267" r="3.5"/>
</g>
<path d="M351,374v -15" fill="none" stroke="#ff0000" stroke-width="6"/>
<path d="M351,352v -14" fill="none" stroke="#ff0000" stroke-width="6"/>
<g stroke="#ff0000" stroke-width="6" fill="#ff0000">
<circle cx="351" cy="356" r="3.5"/>
</g>
<path d="M371,386v -11" fill="none" stroke="#ff0000" stroke-width="6"/>
<path d="M371,369v -11" fill="none" stroke="#ff0000" stroke-width="6"/>
<g stroke="#ff0000" stroke-width="6" fill="#ff0000">
<circle cx="371" cy="372" r="3.5"/>
</g>
<path d="M512,396v -5" fill="none" stroke="#ff0000" stroke-width="6"/>
<path d="M512,385v -5" fill="none" stroke="#ff0000" stroke-width="6"/>
<g stroke="#ff0000" stroke-width="6" fill="#ff0000">
<circle cx="512" cy="388" r="3.5"/>
</g>
<path d="M80,395v -298h 19v 243h 21v -25h 20v -72h 20v 72h 20v 41h 20v -25h 20v 64h 40v -15h 20v -24h 41v -89h 20v 89h 20v 16h 20v 23h 120v -7h 21" fill="none" stroke="#ff0000" stroke-width="6"/>
<path d="M332,107h 42" fill="none" stroke="#ff0000" stroke-width="6"/>
<rect x="113" y="-4" width="149" height="40" fill="white"/>
<text x="118" y="25" fill="black" font-size="31" font-family="Helvetica" font-weight="bold">
d_3p_del
</text></svg>
