<?xml version="1.0" standalone="no"?>
<svg width="567" height="466" viewBox="0 0 567 466" xmlns="http://www.w3.org/2000/svg">
<title>
/bbx/output/_plots/example/hmm/true/plots/dj_insertion.svg
</title>
<desc>
Creator: ROOT Version 5.34/14
CreationDate: Wed Aug 19 19:38:35 2015</desc>
<defs>
</defs>
<rect x="0" y="0" width="567" height="466" fill="white"/>
<rect x="79" y="37" width="443" height="359" fill="none" stroke="black"/>
<rect x="79" y="37" width="443" height="359" fill="none" stroke="black"/>
<path d="M79,396h 443" fill="none" stroke="black" stroke-width="3"/>
<path d="M91,385v 11" fill="none" stroke="black" stroke-width="3"/>
<path d="M114,391v 5" fill="none" stroke="black" stroke-width="3"/>
<path d="M138,391v 5" fill="none" stroke="black" stroke-width="3"/>
<path d="M161,391v 5" fill="none" stroke="black" stroke-width="3"/>
<path d="M184,391v 5" fill="none" stroke="black" stroke-width="3"/>
<path d="M207,385v 11" fill="none" stroke="black" stroke-width="3"/>
<path d="M231,391v 5" fill="none" stroke="black" stroke-width="3"/>
<path d="M254,391v 5" fill="none" stroke="black" stroke-width="3"/>
<path d="M277,391v 5" fill="none" stroke="black" stroke-width="3"/>
<path d="M300,391v 5" fill="none" stroke="black" stroke-width="3"/>
<path d="M324,385v 11" fill="none" stroke="black" stroke-width="3"/>
<path d="M347,391v 5" fill="none" stroke="black" stroke-width="3"/>
<path d="M370,391v 5" fill="none" stroke="black" stroke-width="3"/>
<path d="M394,391v 5" fill="none" stroke="black" stroke-width="3"/>
<path d="M417,391v 5" fill="none" stroke="black" stroke-width="3"/>
<path d="M440,385v 11" fill="none" stroke="black" stroke-width="3"/>
<path d="M91,385v 11" fill="none" stroke="black" stroke-width="3"/>
<path d="M440,385v 11" fill="none" stroke="black" stroke-width="3"/>
<path d="M463,391v 5" fill="none" stroke="black" stroke-width="3"/>
<path d="M487,391v 5" fill="none" stroke="black" stroke-width="3"/>
<path d="M510,391v 5" fill="none" stroke="black" stroke-width="3"/>
<text x="85" y="416" fill="black" font-size="21" font-family="Times" font-weight="bold">
0
</text>
<text x="201" y="416" fill="black" font-size="21" font-family="Times" font-weight="bold">
5
</text>
<text x="312" y="416" fill="black" font-size="21" font-family="Times" font-weight="bold">
10
</text>
<text x="428" y="416" fill="black" font-size="21" font-family="Times" font-weight="bold">
15
</text>
<path d="M79,37h 443" fill="none" stroke="black" stroke-width="3"/>
<path d="M91,48v -11" fill="none" stroke="black" stroke-width="3"/>
<path d="M114,43v -6" fill="none" stroke="black" stroke-width="3"/>
<path d="M138,43v -6" fill="none" stroke="black" stroke-width="3"/>
<path d="M161,43v -6" fill="none" stroke="black" stroke-width="3"/>
<path d="M184,43v -6" fill="none" stroke="black" stroke-width="3"/>
<path d="M207,48v -11" fill="none" stroke="black" stroke-width="3"/>
<path d="M231,43v -6" fill="none" stroke="black" stroke-width="3"/>
<path d="M254,43v -6" fill="none" stroke="black" stroke-width="3"/>
<path d="M277,43v -6" fill="none" stroke="black" stroke-width="3"/>
<path d="M300,43v -6" fill="none" stroke="black" stroke-width="3"/>
<path d="M324,48v -11" fill="none" stroke="black" stroke-width="3"/>
<path d="M347,43v -6" fill="none" stroke="black" stroke-width="3"/>
<path d="M370,43v -6" fill="none" stroke="black" stroke-width="3"/>
<path d="M394,43v -6" fill="none" stroke="black" stroke-width="3"/>
<path d="M417,43v -6" fill="none" stroke="black" stroke-width="3"/>
<path d="M440,48v -11" fill="none" stroke="black" stroke-width="3"/>
<path d="M91,48v -11" fill="none" stroke="black" stroke-width="3"/>
<path d="M440,48v -11" fill="none" stroke="black" stroke-width="3"/>
<path d="M463,43v -6" fill="none" stroke="black" stroke-width="3"/>
<path d="M487,43v -6" fill="none" stroke="black" stroke-width="3"/>
<path d="M510,43v -6" fill="none" stroke="black" stroke-width="3"/>
<path d="M79,396v -359" fill="none" stroke="black" stroke-width="3"/>
<path d="M92,396h -13" fill="none" stroke="black" stroke-width="3"/>
<path d="M86,364h -7" fill="none" stroke="black" stroke-width="3"/>
<path d="M86,333h -7" fill="none" stroke="black" stroke-width="3"/>
<path d="M86,301h -7" fill="none" stroke="black" stroke-width="3"/>
<path d="M92,269h -13" fill="none" stroke="black" stroke-width="3"/>
<path d="M86,237h -7" fill="none" stroke="black" stroke-width="3"/>
<path d="M86,205h -7" fill="none" stroke="black" stroke-width="3"/>
<path d="M86,173h -7" fill="none" stroke="black" stroke-width="3"/>
<path d="M92,142h -13" fill="none" stroke="black" stroke-width="3"/>
<path d="M92,142h -13" fill="none" stroke="black" stroke-width="3"/>
<path d="M86,110h -7" fill="none" stroke="black" stroke-width="3"/>
<path d="M86,78h -7" fill="none" stroke="black" stroke-width="3"/>
<path d="M86,46h -7" fill="none" stroke="black" stroke-width="3"/>
<text x="63" y="404" fill="black" font-size="21" font-family="Times" font-weight="bold">
0
</text>
<text x="51" y="277" fill="black" font-size="21" font-family="Times" font-weight="bold">
20
</text>
<text x="51" y="149" fill="black" font-size="21" font-family="Times" font-weight="bold">
40
</text>
<path d="M522,396v -359" fill="none" stroke="black" stroke-width="3"/>
<path d="M508,396h 14" fill="none" stroke="black" stroke-width="3"/>
<path d="M515,364h 7" fill="none" stroke="black" stroke-width="3"/>
<path d="M515,333h 7" fill="none" stroke="black" stroke-width="3"/>
<path d="M515,301h 7" fill="none" stroke="black" stroke-width="3"/>
<path d="M508,269h 14" fill="none" stroke="black" stroke-width="3"/>
<path d="M515,237h 7" fill="none" stroke="black" stroke-width="3"/>
<path d="M515,205h 7" fill="none" stroke="black" stroke-width="3"/>
<path d="M515,173h 7" fill="none" stroke="black" stroke-width="3"/>
<path d="M508,142h 14" fill="none" stroke="black" stroke-width="3"/>
<path d="M508,142h 14" fill="none" stroke="black" stroke-width="3"/>
<path d="M515,110h 7" fill="none" stroke="black" stroke-width="3"/>
<path d="M515,78h 7" fill="none" stroke="black" stroke-width="3"/>
<path d="M515,46h 7" fill="none" stroke="black" stroke-width="3"/>
<rect x="113" y="-4" width="195" height="39" fill="white"/>
<text x="122" y="23" fill="black" font-size="30" font-family="Helvetica" font-weight="bold">
dj_insertion
</text>
<path d="M91,141v -41" fill="none" stroke="#ff0000" stroke-width="6"/>
<path d="M91,94v -40" fill="none" stroke="#ff0000" stroke-width="6"/>
<g stroke="#ff0000" stroke-width="6" fill="#ff0000">
<circle cx="91" cy="97" r="3.5"/>
</g>
<path d="M114,358v -16" fill="none" stroke="#ff0000" stroke-width="6"/>
<path d="M114,336v -16" fill="none" stroke="#ff0000" stroke-width="6"/>
<g stroke="#ff0000" stroke-width="6" fill="#ff0000">
<circle cx="114" cy="339" r="3.5"/>
</g>
<path d="M138,388v -8" fill="none" stroke="#ff0000" stroke-width="6"/>
<path d="M138,374v -8" fill="none" stroke="#ff0000" stroke-width="6"/>
<g stroke="#ff0000" stroke-width="6" fill="#ff0000">
<circle cx="138" cy="377" r="3.5"/>
</g>
<path d="M161,358v -16" fill="none" stroke="#ff0000" stroke-width="6"/>
<path d="M161,336v -16" fill="none" stroke="#ff0000" stroke-width="6"/>
<g stroke="#ff0000" stroke-width="6" fill="#ff0000">
<circle cx="161" cy="339" r="3.5"/>
</g>
<path d="M184,353v -17" fill="none" stroke="#ff0000" stroke-width="6"/>
<path d="M184,329v -17" fill="none" stroke="#ff0000" stroke-width="6"/>
<g stroke="#ff0000" stroke-width="6" fill="#ff0000">
<circle cx="184" cy="333" r="3.5"/>
</g>
<path d="M207,388v -8" fill="none" stroke="#ff0000" stroke-width="6"/>
<path d="M207,374v -8" fill="none" stroke="#ff0000" stroke-width="6"/>
<g stroke="#ff0000" stroke-width="6" fill="#ff0000">
<circle cx="207" cy="377" r="3.5"/>
</g>
<path d="M231,379v -11" fill="none" stroke="#ff0000" stroke-width="6"/>
<path d="M231,361v -11" fill="none" stroke="#ff0000" stroke-width="6"/>
<g stroke="#ff0000" stroke-width="6" fill="#ff0000">
<circle cx="231" cy="364" r="3.5"/>
</g>
<path d="M254,388v -8" fill="none" stroke="#ff0000" stroke-width="6"/>
<path d="M254,374v -8" fill="none" stroke="#ff0000" stroke-width="6"/>
<g stroke="#ff0000" stroke-width="6" fill="#ff0000">
<circle cx="254" cy="377" r="3.5"/>
</g>
<path d="M277,325v -21" fill="none" stroke="#ff0000" stroke-width="6"/>
<path d="M277,297v -21" fill="none" stroke="#ff0000" stroke-width="6"/>
<g stroke="#ff0000" stroke-width="6" fill="#ff0000">
<circle cx="277" cy="301" r="3.5"/>
</g>
<path d="M324,388v -8" fill="none" stroke="#ff0000" stroke-width="6"/>
<path d="M324,374v -8" fill="none" stroke="#ff0000" stroke-width="6"/>
<g stroke="#ff0000" stroke-width="6" fill="#ff0000">
<circle cx="324" cy="377" r="3.5"/>
</g>
<path d="M347,342v -19" fill="none" stroke="#ff0000" stroke-width="6"/>
<path d="M347,317v -19" fill="none" stroke="#ff0000" stroke-width="6"/>
<g stroke="#ff0000" stroke-width="6" fill="#ff0000">
<circle cx="347" cy="320" r="3.5"/>
</g>
<path d="M370,358v -16" fill="none" stroke="#ff0000" stroke-width="6"/>
<path d="M370,336v -16" fill="none" stroke="#ff0000" stroke-width="6"/>
<g stroke="#ff0000" stroke-width="6" fill="#ff0000">
<circle cx="370" cy="339" r="3.5"/>
</g>
<path d="M510,379v -11" fill="none" stroke="#ff0000" stroke-width="6"/>
<path d="M510,361v -11" fill="none" stroke="#ff0000" stroke-width="6"/>
<g stroke="#ff0000" stroke-width="6" fill="#ff0000">
<circle cx="510" cy="364" r="3.5"/>
</g>
<path d="M80,395v -298h 23v 242h 23v 38h 23v -38h 23v -6h 24v 44h 23v -13h 23v 13h 24v -76h 23v 94h 23v -18h 23v -57h 24v 19h 23v 56h 116v -31h 24" fill="none" stroke="#ff0000" stroke-width="6"/>
<path d="M332,107h 42" fill="none" stroke="#ff0000" stroke-width="6"/>
<rect x="113" y="-4" width="195" height="39" fill="white"/>
<text x="122" y="23" fill="black" font-size="30" font-family="Helvetica" font-weight="bold">
dj_insertion
</text></svg>
