<?xml version="1.0" standalone="no"?>
<svg width="567" height="466" viewBox="0 0 567 466" xmlns="http://www.w3.org/2000/svg">
<title>
/bbx/output/_plots/example/hmm/true/plots/j_5p_del.svg
</title>
<desc>
Creator: ROOT Version 5.34/14
CreationDate: Wed Aug 19 19:38:35 2015</desc>
<defs>
</defs>
<rect x="0" y="0" width="567" height="466" fill="white"/>
<rect x="79" y="37" width="443" height="359" fill="none" stroke="black"/>
<rect x="79" y="37" width="443" height="359" fill="none" stroke="black"/>
<path d="M79,396h 443" fill="none" stroke="black" stroke-width="3"/>
<path d="M90,385v 11" fill="none" stroke="black" stroke-width="3"/>
<path d="M113,391v 5" fill="none" stroke="black" stroke-width="3"/>
<path d="M135,391v 5" fill="none" stroke="black" stroke-width="3"/>
<path d="M157,391v 5" fill="none" stroke="black" stroke-width="3"/>
<path d="M179,391v 5" fill="none" stroke="black" stroke-width="3"/>
<path d="M201,385v 11" fill="none" stroke="black" stroke-width="3"/>
<path d="M223,391v 5" fill="none" stroke="black" stroke-width="3"/>
<path d="M245,391v 5" fill="none" stroke="black" stroke-width="3"/>
<path d="M267,391v 5" fill="none" stroke="black" stroke-width="3"/>
<path d="M289,391v 5" fill="none" stroke="black" stroke-width="3"/>
<path d="M312,385v 11" fill="none" stroke="black" stroke-width="3"/>
<path d="M334,391v 5" fill="none" stroke="black" stroke-width="3"/>
<path d="M356,391v 5" fill="none" stroke="black" stroke-width="3"/>
<path d="M378,391v 5" fill="none" stroke="black" stroke-width="3"/>
<path d="M400,391v 5" fill="none" stroke="black" stroke-width="3"/>
<path d="M422,385v 11" fill="none" stroke="black" stroke-width="3"/>
<path d="M90,385v 11" fill="none" stroke="black" stroke-width="3"/>
<path d="M422,385v 11" fill="none" stroke="black" stroke-width="3"/>
<path d="M444,391v 5" fill="none" stroke="black" stroke-width="3"/>
<path d="M466,391v 5" fill="none" stroke="black" stroke-width="3"/>
<path d="M488,391v 5" fill="none" stroke="black" stroke-width="3"/>
<path d="M511,391v 5" fill="none" stroke="black" stroke-width="3"/>
<text x="85" y="416" fill="black" font-size="21" font-family="Times" font-weight="bold">
0
</text>
<text x="195" y="416" fill="black" font-size="21" font-family="Times" font-weight="bold">
5
</text>
<text x="300" y="416" fill="black" font-size="21" font-family="Times" font-weight="bold">
10
</text>
<text x="411" y="416" fill="black" font-size="21" font-family="Times" font-weight="bold">
15
</text>
<path d="M79,37h 443" fill="none" stroke="black" stroke-width="3"/>
<path d="M90,48v -11" fill="none" stroke="black" stroke-width="3"/>
<path d="M113,43v -6" fill="none" stroke="black" stroke-width="3"/>
<path d="M135,43v -6" fill="none" stroke="black" stroke-width="3"/>
<path d="M157,43v -6" fill="none" stroke="black" stroke-width="3"/>
<path d="M179,43v -6" fill="none" stroke="black" stroke-width="3"/>
<path d="M201,48v -11" fill="none" stroke="black" stroke-width="3"/>
<path d="M223,43v -6" fill="none" stroke="black" stroke-width="3"/>
<path d="M245,43v -6" fill="none" stroke="black" stroke-width="3"/>
<path d="M267,43v -6" fill="none" stroke="black" stroke-width="3"/>
<path d="M289,43v -6" fill="none" stroke="black" stroke-width="3"/>
<path d="M312,48v -11" fill="none" stroke="black" stroke-width="3"/>
<path d="M334,43v -6" fill="none" stroke="black" stroke-width="3"/>
<path d="M356,43v -6" fill="none" stroke="black" stroke-width="3"/>
<path d="M378,43v -6" fill="none" stroke="black" stroke-width="3"/>
<path d="M400,43v -6" fill="none" stroke="black" stroke-width="3"/>
<path d="M422,48v -11" fill="none" stroke="black" stroke-width="3"/>
<path d="M90,48v -11" fill="none" stroke="black" stroke-width="3"/>
<path d="M422,48v -11" fill="none" stroke="black" stroke-width="3"/>
<path d="M444,43v -6" fill="none" stroke="black" stroke-width="3"/>
<path d="M466,43v -6" fill="none" stroke="black" stroke-width="3"/>
<path d="M488,43v -6" fill="none" stroke="black" stroke-width="3"/>
<path d="M511,43v -6" fill="none" stroke="black" stroke-width="3"/>
<path d="M79,396v -359" fill="none" stroke="black" stroke-width="3"/>
<path d="M92,396h -13" fill="none" stroke="black" stroke-width="3"/>
<path d="M86,381h -7" fill="none" stroke="black" stroke-width="3"/>
<path d="M86,366h -7" fill="none" stroke="black" stroke-width="3"/>
<path d="M86,351h -7" fill="none" stroke="black" stroke-width="3"/>
<path d="M86,336h -7" fill="none" stroke="black" stroke-width="3"/>
<path d="M92,321h -13" fill="none" stroke="black" stroke-width="3"/>
<path d="M86,306h -7" fill="none" stroke="black" stroke-width="3"/>
<path d="M86,291h -7" fill="none" stroke="black" stroke-width="3"/>
<path d="M86,277h -7" fill="none" stroke="black" stroke-width="3"/>
<path d="M86,262h -7" fill="none" stroke="black" stroke-width="3"/>
<path d="M92,247h -13" fill="none" stroke="black" stroke-width="3"/>
<path d="M86,232h -7" fill="none" stroke="black" stroke-width="3"/>
<path d="M86,217h -7" fill="none" stroke="black" stroke-width="3"/>
<path d="M86,202h -7" fill="none" stroke="black" stroke-width="3"/>
<path d="M86,187h -7" fill="none" stroke="black" stroke-width="3"/>
<path d="M92,172h -13" fill="none" stroke="black" stroke-width="3"/>
<path d="M86,157h -7" fill="none" stroke="black" stroke-width="3"/>
<path d="M86,142h -7" fill="none" stroke="black" stroke-width="3"/>
<path d="M86,127h -7" fill="none" stroke="black" stroke-width="3"/>
<path d="M86,112h -7" fill="none" stroke="black" stroke-width="3"/>
<path d="M92,97h -13" fill="none" stroke="black" stroke-width="3"/>
<path d="M92,97h -13" fill="none" stroke="black" stroke-width="3"/>
<path d="M86,82h -7" fill="none" stroke="black" stroke-width="3"/>
<path d="M86,67h -7" fill="none" stroke="black" stroke-width="3"/>
<path d="M86,52h -7" fill="none" stroke="black" stroke-width="3"/>
<path d="M86,37h -7" fill="none" stroke="black" stroke-width="3"/>
<text x="63" y="404" fill="black" font-size="21" font-family="Times" font-weight="bold">
0
</text>
<text x="63" y="329" fill="black" font-size="21" font-family="Times" font-weight="bold">
5
</text>
<text x="51" y="254" fill="black" font-size="21" font-family="Times" font-weight="bold">
10
</text>
<text x="51" y="179" fill="black" font-size="21" font-family="Times" font-weight="bold">
15
</text>
<text x="51" y="105" fill="black" font-size="21" font-family="Times" font-weight="bold">
20
</text>
<path d="M522,396v -359" fill="none" stroke="black" stroke-width="3"/>
<path d="M508,396h 14" fill="none" stroke="black" stroke-width="3"/>
<path d="M515,381h 7" fill="none" stroke="black" stroke-width="3"/>
<path d="M515,366h 7" fill="none" stroke="black" stroke-width="3"/>
<path d="M515,351h 7" fill="none" stroke="black" stroke-width="3"/>
<path d="M515,336h 7" fill="none" stroke="black" stroke-width="3"/>
<path d="M508,321h 14" fill="none" stroke="black" stroke-width="3"/>
<path d="M515,306h 7" fill="none" stroke="black" stroke-width="3"/>
<path d="M515,291h 7" fill="none" stroke="black" stroke-width="3"/>
<path d="M515,277h 7" fill="none" stroke="black" stroke-width="3"/>
<path d="M515,262h 7" fill="none" stroke="black" stroke-width="3"/>
<path d="M508,247h 14" fill="none" stroke="black" stroke-width="3"/>
<path d="M515,232h 7" fill="none" stroke="black" stroke-width="3"/>
<path d="M515,217h 7" fill="none" stroke="black" stroke-width="3"/>
<path d="M515,202h 7" fill="none" stroke="black" stroke-width="3"/>
<path d="M515,187h 7" fill="none" stroke="black" stroke-width="3"/>
<path d="M508,172h 14" fill="none" stroke="black" stroke-width="3"/>
<path d="M515,157h 7" fill="none" stroke="black" stroke-width="3"/>
<path d="M515,142h 7" fill="none" stroke="black" stroke-width="3"/>
<path d="M515,127h 7" fill="none" stroke="black" stroke-width="3"/>
<path d="M515,112h 7" fill="none" stroke="black" stroke-width="3"/>
<path d="M508,97h 14" fill="none" stroke="black" stroke-width="3"/>
<path d="M508,97h 14" fill="none" stroke="black" stroke-width="3"/>
<path d="M515,82h 7" fill="none" stroke="black" stroke-width="3"/>
<path d="M515,67h 7" fill="none" stroke="black" stroke-width="3"/>
<path d="M515,52h 7" fill="none" stroke="black" stroke-width="3"/>
<path d="M515,37h 7" fill="none" stroke="black" stroke-width="3"/>
<rect x="113" y="-4" width="144" height="40" fill="white"/>
<text x="121" y="25" fill="black" font-size="31" font-family="Helvetica" font-weight="bold">
j_5p_del
</text>
<path d="M90,281v -46" fill="none" stroke="#ff0000" stroke-width="6"/>
<path d="M90,228v -46" fill="none" stroke="#ff0000" stroke-width="6"/>
<g stroke="#ff0000" stroke-width="6" fill="#ff0000">
<circle cx="90" cy="232" r="3.5"/>
</g>
<path d="M113,319v -39" fill="none" stroke="#ff0000" stroke-width="6"/>
<path d="M113,273v -39" fill="none" stroke="#ff0000" stroke-width="6"/>
<g stroke="#ff0000" stroke-width="6" fill="#ff0000">
<circle cx="113" cy="277" r="3.5"/>
</g>
<path d="M135,204v -59" fill="none" stroke="#ff0000" stroke-width="6"/>
<path d="M135,139v -59" fill="none" stroke="#ff0000" stroke-width="6"/>
<g stroke="#ff0000" stroke-width="6" fill="#ff0000">
<circle cx="135" cy="142" r="3.5"/>
</g>
<path d="M157,355v -30" fill="none" stroke="#ff0000" stroke-width="6"/>
<path d="M157,318v -30" fill="none" stroke="#ff0000" stroke-width="6"/>
<g stroke="#ff0000" stroke-width="6" fill="#ff0000">
<circle cx="157" cy="321" r="3.5"/>
</g>
<path d="M179,164v -64" fill="none" stroke="#ff0000" stroke-width="6"/>
<path d="M179,94v -57" fill="none" stroke="#ff0000" stroke-width="6"/>
<g stroke="#ff0000" stroke-width="6" fill="#ff0000">
<circle cx="179" cy="97" r="3.5"/>
</g>
<path d="M201,190v -60" fill="none" stroke="#ff0000" stroke-width="6"/>
<path d="M201,124v -60" fill="none" stroke="#ff0000" stroke-width="6"/>
<g stroke="#ff0000" stroke-width="6" fill="#ff0000">
<circle cx="201" cy="127" r="3.5"/>
</g>
<path d="M223,164v -64" fill="none" stroke="#ff0000" stroke-width="6"/>
<path d="M223,94v -57" fill="none" stroke="#ff0000" stroke-width="6"/>
<g stroke="#ff0000" stroke-width="6" fill="#ff0000">
<circle cx="223" cy="97" r="3.5"/>
</g>
<path d="M245,343v -33" fill="none" stroke="#ff0000" stroke-width="6"/>
<path d="M245,303v -33" fill="none" stroke="#ff0000" stroke-width="6"/>
<g stroke="#ff0000" stroke-width="6" fill="#ff0000">
<circle cx="245" cy="306" r="3.5"/>
</g>
<path d="M267,331v -36" fill="none" stroke="#ff0000" stroke-width="6"/>
<path d="M267,288v -36" fill="none" stroke="#ff0000" stroke-width="6"/>
<g stroke="#ff0000" stroke-width="6" fill="#ff0000">
<circle cx="267" cy="291" r="3.5"/>
</g>
<path d="M400,331v -36" fill="none" stroke="#ff0000" stroke-width="6"/>
<path d="M400,288v -36" fill="none" stroke="#ff0000" stroke-width="6"/>
<g stroke="#ff0000" stroke-width="6" fill="#ff0000">
<circle cx="400" cy="291" r="3.5"/>
</g>
<path d="M422,306v -41" fill="none" stroke="#ff0000" stroke-width="6"/>
<path d="M422,258v -41" fill="none" stroke="#ff0000" stroke-width="6"/>
<g stroke="#ff0000" stroke-width="6" fill="#ff0000">
<circle cx="422" cy="262" r="3.5"/>
</g>
<path d="M511,355v -30" fill="none" stroke="#ff0000" stroke-width="6"/>
<path d="M511,318v -30" fill="none" stroke="#ff0000" stroke-width="6"/>
<g stroke="#ff0000" stroke-width="6" fill="#ff0000">
<circle cx="511" cy="321" r="3.5"/>
</g>
<path d="M80,395v -163h 21v 45h 23v -135h 22v 179h 22v -224h 22v 30h 22v -30h 22v 209h 22v -15h 22v 104h 111v -104h 22v -29h 22v 133h 66v -74h 23" fill="none" stroke="#ff0000" stroke-width="6"/>
<path d="M332,107h 42" fill="none" stroke="#ff0000" stroke-width="6"/>
<rect x="113" y="-4" width="144" height="40" fill="white"/>
<text x="121" y="25" fill="black" font-size="31" font-family="Helvetica" font-weight="bold">
j_5p_del
</text></svg>
