<?xml version="1.0" standalone="no"?>
<svg width="567" height="466" viewBox="0 0 567 466" xmlns="http://www.w3.org/2000/svg">
<title>
/bbx/output/_plots/example/sw/true/plots/d_gene.svg
</title>
<desc>
Creator: ROOT Version 5.34/14
CreationDate: Wed Aug 19 19:38:12 2015</desc>
<defs>
</defs>
<rect x="0" y="0" width="567" height="466" fill="white"/>
<rect x="79" y="37" width="443" height="359" fill="none" stroke="black"/>
<rect x="79" y="37" width="443" height="359" fill="none" stroke="black"/>
<path d="M79,396h 443" fill="none" stroke="black" stroke-width="3"/>
<g transform="rotate(20,89,406)">
<text x="89" y="406" fill="black" font-size="14" font-family="Times" font-weight="bold">
IGHD1-1*01
</text>
</g>
<g transform="rotate(20,113,406)">
<text x="113" y="406" fill="black" font-size="14" font-family="Times" font-weight="bold">
IGHD1-26*01
</text>
</g>
<g transform="rotate(20,138,406)">
<text x="138" y="406" fill="black" font-size="14" font-family="Times" font-weight="bold">
IGHD2-15*01
</text>
</g>
<g transform="rotate(20,163,406)">
<text x="163" y="406" fill="black" font-size="14" font-family="Times" font-weight="bold">
IGHD2-2*02
</text>
</g>
<g transform="rotate(20,187,406)">
<text x="187" y="406" fill="black" font-size="14" font-family="Times" font-weight="bold">
IGHD2-2*03
</text>
</g>
<g transform="rotate(20,212,406)">
<text x="212" y="406" fill="black" font-size="14" font-family="Times" font-weight="bold">
IGHD3-10*01
</text>
</g>
<g transform="rotate(20,236,406)">
<text x="236" y="406" fill="black" font-size="14" font-family="Times" font-weight="bold">
IGHD3-16*02
</text>
</g>
<g transform="rotate(20,261,406)">
<text x="261" y="406" fill="black" font-size="14" font-family="Times" font-weight="bold">
IGHD3-22*01
</text>
</g>
<g transform="rotate(20,285,406)">
<text x="285" y="406" fill="black" font-size="14" font-family="Times" font-weight="bold">
IGHD3-3*01
</text>
</g>
<g transform="rotate(20,310,406)">
<text x="310" y="406" fill="black" font-size="14" font-family="Times" font-weight="bold">
IGHD3-3*02
</text>
</g>
<g transform="rotate(20,335,406)">
<text x="335" y="406" fill="black" font-size="14" font-family="Times" font-weight="bold">
IGHD3-9*01
</text>
</g>
<g transform="rotate(20,359,406)">
<text x="359" y="406" fill="black" font-size="14" font-family="Times" font-weight="bold">
IGHD4-17*01
</text>
</g>
<g transform="rotate(20,384,406)">
<text x="384" y="406" fill="black" font-size="14" font-family="Times" font-weight="bold">
IGHD4-23*01
</text>
</g>
<g transform="rotate(20,408,406)">
<text x="408" y="406" fill="black" font-size="14" font-family="Times" font-weight="bold">
IGHD5-12*01
</text>
</g>
<g transform="rotate(20,433,406)">
<text x="433" y="406" fill="black" font-size="14" font-family="Times" font-weight="bold">
IGHD5-5*01
</text>
</g>
<g transform="rotate(20,457,406)">
<text x="457" y="406" fill="black" font-size="14" font-family="Times" font-weight="bold">
IGHD6-13*01
</text>
</g>
<g transform="rotate(20,482,406)">
<text x="482" y="406" fill="black" font-size="14" font-family="Times" font-weight="bold">
IGHD6-19*01
</text>
</g>
<g transform="rotate(20,507,406)">
<text x="507" y="406" fill="black" font-size="14" font-family="Times" font-weight="bold">
IGHD6-25*01
</text>
</g>
<path d="M92,385v 11" fill="none" stroke="black" stroke-width="3"/>
<path d="M116,385v 11" fill="none" stroke="black" stroke-width="3"/>
<path d="M141,385v 11" fill="none" stroke="black" stroke-width="3"/>
<path d="M165,385v 11" fill="none" stroke="black" stroke-width="3"/>
<path d="M190,385v 11" fill="none" stroke="black" stroke-width="3"/>
<path d="M214,385v 11" fill="none" stroke="black" stroke-width="3"/>
<path d="M239,385v 11" fill="none" stroke="black" stroke-width="3"/>
<path d="M264,385v 11" fill="none" stroke="black" stroke-width="3"/>
<path d="M288,385v 11" fill="none" stroke="black" stroke-width="3"/>
<path d="M313,385v 11" fill="none" stroke="black" stroke-width="3"/>
<path d="M337,385v 11" fill="none" stroke="black" stroke-width="3"/>
<path d="M362,385v 11" fill="none" stroke="black" stroke-width="3"/>
<path d="M386,385v 11" fill="none" stroke="black" stroke-width="3"/>
<path d="M411,385v 11" fill="none" stroke="black" stroke-width="3"/>
<path d="M436,385v 11" fill="none" stroke="black" stroke-width="3"/>
<path d="M460,385v 11" fill="none" stroke="black" stroke-width="3"/>
<path d="M485,385v 11" fill="none" stroke="black" stroke-width="3"/>
<path d="M509,385v 11" fill="none" stroke="black" stroke-width="3"/>
<path d="M92,385v 11" fill="none" stroke="black" stroke-width="3"/>
<path d="M509,385v 11" fill="none" stroke="black" stroke-width="3"/>
<path d="M79,37h 443" fill="none" stroke="black" stroke-width="3"/>
<path d="M92,48v -11" fill="none" stroke="black" stroke-width="3"/>
<path d="M116,48v -11" fill="none" stroke="black" stroke-width="3"/>
<path d="M141,48v -11" fill="none" stroke="black" stroke-width="3"/>
<path d="M165,48v -11" fill="none" stroke="black" stroke-width="3"/>
<path d="M190,48v -11" fill="none" stroke="black" stroke-width="3"/>
<path d="M214,48v -11" fill="none" stroke="black" stroke-width="3"/>
<path d="M239,48v -11" fill="none" stroke="black" stroke-width="3"/>
<path d="M264,48v -11" fill="none" stroke="black" stroke-width="3"/>
<path d="M288,48v -11" fill="none" stroke="black" stroke-width="3"/>
<path d="M313,48v -11" fill="none" stroke="black" stroke-width="3"/>
<path d="M337,48v -11" fill="none" stroke="black" stroke-width="3"/>
<path d="M362,48v -11" fill="none" stroke="black" stroke-width="3"/>
<path d="M386,48v -11" fill="none" stroke="black" stroke-width="3"/>
<path d="M411,48v -11" fill="none" stroke="black" stroke-width="3"/>
<path d="M436,48v -11" fill="none" stroke="black" stroke-width="3"/>
<path d="M460,48v -11" fill="none" stroke="black" stroke-width="3"/>
<path d="M485,48v -11" fill="none" stroke="black" stroke-width="3"/>
<path d="M509,48v -11" fill="none" stroke="black" stroke-width="3"/>
<path d="M92,48v -11" fill="none" stroke="black" stroke-width="3"/>
<path d="M509,48v -11" fill="none" stroke="black" stroke-width="3"/>
<path d="M79,396v -359" fill="none" stroke="black" stroke-width="3"/>
<path d="M92,396h -13" fill="none" stroke="black" stroke-width="3"/>
<path d="M86,376h -7" fill="none" stroke="black" stroke-width="3"/>
<path d="M86,356h -7" fill="none" stroke="black" stroke-width="3"/>
<path d="M86,336h -7" fill="none" stroke="black" stroke-width="3"/>
<path d="M86,316h -7" fill="none" stroke="black" stroke-width="3"/>
<path d="M92,296h -13" fill="none" stroke="black" stroke-width="3"/>
<path d="M86,277h -7" fill="none" stroke="black" stroke-width="3"/>
<path d="M86,257h -7" fill="none" stroke="black" stroke-width="3"/>
<path d="M86,237h -7" fill="none" stroke="black" stroke-width="3"/>
<path d="M86,217h -7" fill="none" stroke="black" stroke-width="3"/>
<path d="M92,197h -13" fill="none" stroke="black" stroke-width="3"/>
<path d="M86,177h -7" fill="none" stroke="black" stroke-width="3"/>
<path d="M86,157h -7" fill="none" stroke="black" stroke-width="3"/>
<path d="M86,137h -7" fill="none" stroke="black" stroke-width="3"/>
<path d="M86,117h -7" fill="none" stroke="black" stroke-width="3"/>
<path d="M92,97h -13" fill="none" stroke="black" stroke-width="3"/>
<path d="M92,97h -13" fill="none" stroke="black" stroke-width="3"/>
<path d="M86,77h -7" fill="none" stroke="black" stroke-width="3"/>
<path d="M86,57h -7" fill="none" stroke="black" stroke-width="3"/>
<path d="M86,37h -7" fill="none" stroke="black" stroke-width="3"/>
<text x="63" y="404" fill="black" font-size="21" font-family="Times" font-weight="bold">
0
</text>
<text x="63" y="304" fill="black" font-size="21" font-family="Times" font-weight="bold">
5
</text>
<text x="51" y="205" fill="black" font-size="21" font-family="Times" font-weight="bold">
10
</text>
<text x="51" y="105" fill="black" font-size="21" font-family="Times" font-weight="bold">
15
</text>
<path d="M522,396v -359" fill="none" stroke="black" stroke-width="3"/>
<path d="M508,396h 14" fill="none" stroke="black" stroke-width="3"/>
<path d="M515,376h 7" fill="none" stroke="black" stroke-width="3"/>
<path d="M515,356h 7" fill="none" stroke="black" stroke-width="3"/>
<path d="M515,336h 7" fill="none" stroke="black" stroke-width="3"/>
<path d="M515,316h 7" fill="none" stroke="black" stroke-width="3"/>
<path d="M508,296h 14" fill="none" stroke="black" stroke-width="3"/>
<path d="M515,277h 7" fill="none" stroke="black" stroke-width="3"/>
<path d="M515,257h 7" fill="none" stroke="black" stroke-width="3"/>
<path d="M515,237h 7" fill="none" stroke="black" stroke-width="3"/>
<path d="M515,217h 7" fill="none" stroke="black" stroke-width="3"/>
<path d="M508,197h 14" fill="none" stroke="black" stroke-width="3"/>
<path d="M515,177h 7" fill="none" stroke="black" stroke-width="3"/>
<path d="M515,157h 7" fill="none" stroke="black" stroke-width="3"/>
<path d="M515,137h 7" fill="none" stroke="black" stroke-width="3"/>
<path d="M515,117h 7" fill="none" stroke="black" stroke-width="3"/>
<path d="M508,97h 14" fill="none" stroke="black" stroke-width="3"/>
<path d="M508,97h 14" fill="none" stroke="black" stroke-width="3"/>
<path d="M515,77h 7" fill="none" stroke="black" stroke-width="3"/>
<path d="M515,57h 7" fill="none" stroke="black" stroke-width="3"/>
<path d="M515,37h 7" fill="none" stroke="black" stroke-width="3"/>
<rect x="113" y="-4" width="118" height="39" fill="white"/>
<text x="118" y="23" fill="black" font-size="30" font-family="Helvetica" font-weight="bold">
d_gene
</text>
<path d="M92,341v -41" fill="none" stroke="#ff0000" stroke-width="6"/>
<path d="M92,293v -41" fill="none" stroke="#ff0000" stroke-width="6"/>
<g stroke="#ff0000" stroke-width="6" fill="#ff0000">
<circle cx="92" cy="296" r="3.5"/>
</g>
<path d="M116,341v -41" fill="none" stroke="#ff0000" stroke-width="6"/>
<path d="M116,293v -41" fill="none" stroke="#ff0000" stroke-width="6"/>
<g stroke="#ff0000" stroke-width="6" fill="#ff0000">
<circle cx="116" cy="296" r="3.5"/>
</g>
<path d="M141,341v -41" fill="none" stroke="#ff0000" stroke-width="6"/>
<path d="M141,293v -41" fill="none" stroke="#ff0000" stroke-width="6"/>
<g stroke="#ff0000" stroke-width="6" fill="#ff0000">
<circle cx="141" cy="296" r="3.5"/>
</g>
<path d="M165,277v -57" fill="none" stroke="#ff0000" stroke-width="6"/>
<path d="M165,213v -56" fill="none" stroke="#ff0000" stroke-width="6"/>
<g stroke="#ff0000" stroke-width="6" fill="#ff0000">
<circle cx="165" cy="217" r="3.5"/>
</g>
<path d="M190,341v -41" fill="none" stroke="#ff0000" stroke-width="6"/>
<path d="M190,293v -41" fill="none" stroke="#ff0000" stroke-width="6"/>
<g stroke="#ff0000" stroke-width="6" fill="#ff0000">
<circle cx="190" cy="296" r="3.5"/>
</g>
<path d="M214,209v -69" fill="none" stroke="#ff0000" stroke-width="6"/>
<path d="M214,134v -69" fill="none" stroke="#ff0000" stroke-width="6"/>
<g stroke="#ff0000" stroke-width="6" fill="#ff0000">
<circle cx="214" cy="137" r="3.5"/>
</g>
<path d="M239,277v -57" fill="none" stroke="#ff0000" stroke-width="6"/>
<path d="M239,213v -56" fill="none" stroke="#ff0000" stroke-width="6"/>
<g stroke="#ff0000" stroke-width="6" fill="#ff0000">
<circle cx="239" cy="217" r="3.5"/>
</g>
<path d="M264,325v -45" fill="none" stroke="#ff0000" stroke-width="6"/>
<path d="M264,273v -45" fill="none" stroke="#ff0000" stroke-width="6"/>
<g stroke="#ff0000" stroke-width="6" fill="#ff0000">
<circle cx="264" cy="277" r="3.5"/>
</g>
<path d="M288,209v -69" fill="none" stroke="#ff0000" stroke-width="6"/>
<path d="M288,134v -69" fill="none" stroke="#ff0000" stroke-width="6"/>
<g stroke="#ff0000" stroke-width="6" fill="#ff0000">
<circle cx="288" cy="137" r="3.5"/>
</g>
<path d="M313,341v -41" fill="none" stroke="#ff0000" stroke-width="6"/>
<path d="M313,293v -41" fill="none" stroke="#ff0000" stroke-width="6"/>
<g stroke="#ff0000" stroke-width="6" fill="#ff0000">
<circle cx="313" cy="296" r="3.5"/>
</g>
<path d="M337,371v -31" fill="none" stroke="#ff0000" stroke-width="6"/>
<path d="M337,333v -31" fill="none" stroke="#ff0000" stroke-width="6"/>
<g stroke="#ff0000" stroke-width="6" fill="#ff0000">
<circle cx="337" cy="336" r="3.5"/>
</g>
<path d="M362,260v -60" fill="none" stroke="#ff0000" stroke-width="6"/>
<path d="M362,194v -60" fill="none" stroke="#ff0000" stroke-width="6"/>
<g stroke="#ff0000" stroke-width="6" fill="#ff0000">
<circle cx="362" cy="197" r="3.5"/>
</g>
<path d="M386,371v -31" fill="none" stroke="#ff0000" stroke-width="6"/>
<path d="M386,333v -31" fill="none" stroke="#ff0000" stroke-width="6"/>
<g stroke="#ff0000" stroke-width="6" fill="#ff0000">
<circle cx="386" cy="336" r="3.5"/>
</g>
<path d="M411,341v -41" fill="none" stroke="#ff0000" stroke-width="6"/>
<path d="M411,293v -41" fill="none" stroke="#ff0000" stroke-width="6"/>
<g stroke="#ff0000" stroke-width="6" fill="#ff0000">
<circle cx="411" cy="296" r="3.5"/>
</g>
<path d="M436,341v -41" fill="none" stroke="#ff0000" stroke-width="6"/>
<path d="M436,293v -41" fill="none" stroke="#ff0000" stroke-width="6"/>
<g stroke="#ff0000" stroke-width="6" fill="#ff0000">
<circle cx="436" cy="296" r="3.5"/>
</g>
<path d="M460,174v -74" fill="none" stroke="#ff0000" stroke-width="6"/>
<path d="M460,94v -57" fill="none" stroke="#ff0000" stroke-width="6"/>
<g stroke="#ff0000" stroke-width="6" fill="#ff0000">
<circle cx="460" cy="97" r="3.5"/>
</g>
<path d="M485,226v -66" fill="none" stroke="#ff0000" stroke-width="6"/>
<path d="M485,154v -66" fill="none" stroke="#ff0000" stroke-width="6"/>
<g stroke="#ff0000" stroke-width="6" fill="#ff0000">
<circle cx="485" cy="157" r="3.5"/>
</g>
<path d="M509,341v -41" fill="none" stroke="#ff0000" stroke-width="6"/>
<path d="M509,293v -41" fill="none" stroke="#ff0000" stroke-width="6"/>
<g stroke="#ff0000" stroke-width="6" fill="#ff0000">
<circle cx="509" cy="296" r="3.5"/>
</g>
<path d="M80,395v -99h 73v -79h 25v 79h 24v -159h 25v 80h 24v 60h 25v -140h 24v 159h 25v 40h 25v -139h 24v 139h 25v -40h 49v -199h 24v 60h 25v 139h 25" fill="none" stroke="#ff0000" stroke-width="6"/>
<path d="M332,107h 42" fill="none" stroke="#ff0000" stroke-width="6"/>
<rect x="113" y="-4" width="118" height="39" fill="white"/>
<text x="118" y="23" fill="black" font-size="30" font-family="Helvetica" font-weight="bold">
d_gene
</text></svg>
