<?xml version="1.0" standalone="no"?>
<svg width="567" height="466" viewBox="0 0 567 466" xmlns="http://www.w3.org/2000/svg">
<title>
/bbx/output/_plots/example/sw/true/plots/v_3p_del.svg
</title>
<desc>
Creator: ROOT Version 5.34/14
CreationDate: Wed Aug 19 19:38:12 2015</desc>
<defs>
</defs>
<rect x="0" y="0" width="567" height="466" fill="white"/>
<rect x="79" y="37" width="443" height="359" fill="none" stroke="black"/>
<rect x="79" y="37" width="443" height="359" fill="none" stroke="black"/>
<path d="M79,396h 443" fill="none" stroke="black" stroke-width="3"/>
<path d="M107,385v 11" fill="none" stroke="black" stroke-width="3"/>
<path d="M135,391v 5" fill="none" stroke="black" stroke-width="3"/>
<path d="M162,391v 5" fill="none" stroke="black" stroke-width="3"/>
<path d="M190,391v 5" fill="none" stroke="black" stroke-width="3"/>
<path d="M218,385v 11" fill="none" stroke="black" stroke-width="3"/>
<path d="M245,391v 5" fill="none" stroke="black" stroke-width="3"/>
<path d="M273,391v 5" fill="none" stroke="black" stroke-width="3"/>
<path d="M300,391v 5" fill="none" stroke="black" stroke-width="3"/>
<path d="M328,385v 11" fill="none" stroke="black" stroke-width="3"/>
<path d="M356,391v 5" fill="none" stroke="black" stroke-width="3"/>
<path d="M383,391v 5" fill="none" stroke="black" stroke-width="3"/>
<path d="M411,391v 5" fill="none" stroke="black" stroke-width="3"/>
<path d="M439,385v 11" fill="none" stroke="black" stroke-width="3"/>
<path d="M107,385v 11" fill="none" stroke="black" stroke-width="3"/>
<path d="M439,385v 11" fill="none" stroke="black" stroke-width="3"/>
<path d="M466,391v 5" fill="none" stroke="black" stroke-width="3"/>
<path d="M494,391v 5" fill="none" stroke="black" stroke-width="3"/>
<path d="M522,391v 5" fill="none" stroke="black" stroke-width="3"/>
<text x="101" y="416" fill="black" font-size="21" font-family="Times" font-weight="bold">
0
</text>
<text x="212" y="416" fill="black" font-size="21" font-family="Times" font-weight="bold">
2
</text>
<text x="322" y="416" fill="black" font-size="21" font-family="Times" font-weight="bold">
4
</text>
<text x="433" y="416" fill="black" font-size="21" font-family="Times" font-weight="bold">
6
</text>
<path d="M79,37h 443" fill="none" stroke="black" stroke-width="3"/>
<path d="M107,48v -11" fill="none" stroke="black" stroke-width="3"/>
<path d="M135,43v -6" fill="none" stroke="black" stroke-width="3"/>
<path d="M162,43v -6" fill="none" stroke="black" stroke-width="3"/>
<path d="M190,43v -6" fill="none" stroke="black" stroke-width="3"/>
<path d="M218,48v -11" fill="none" stroke="black" stroke-width="3"/>
<path d="M245,43v -6" fill="none" stroke="black" stroke-width="3"/>
<path d="M273,43v -6" fill="none" stroke="black" stroke-width="3"/>
<path d="M300,43v -6" fill="none" stroke="black" stroke-width="3"/>
<path d="M328,48v -11" fill="none" stroke="black" stroke-width="3"/>
<path d="M356,43v -6" fill="none" stroke="black" stroke-width="3"/>
<path d="M383,43v -6" fill="none" stroke="black" stroke-width="3"/>
<path d="M411,43v -6" fill="none" stroke="black" stroke-width="3"/>
<path d="M439,48v -11" fill="none" stroke="black" stroke-width="3"/>
<path d="M107,48v -11" fill="none" stroke="black" stroke-width="3"/>
<path d="M439,48v -11" fill="none" stroke="black" stroke-width="3"/>
<path d="M466,43v -6" fill="none" stroke="black" stroke-width="3"/>
<path d="M494,43v -6" fill="none" stroke="black" stroke-width="3"/>
<path d="M522,43v -6" fill="none" stroke="black" stroke-width="3"/>
<path d="M79,396v -359" fill="none" stroke="black" stroke-width="3"/>
<path d="M92,396h -13" fill="none" stroke="black" stroke-width="3"/>
<path d="M86,368h -7" fill="none" stroke="black" stroke-width="3"/>
<path d="M86,340h -7" fill="none" stroke="black" stroke-width="3"/>
<path d="M86,311h -7" fill="none" stroke="black" stroke-width="3"/>
<path d="M92,283h -13" fill="none" stroke="black" stroke-width="3"/>
<path d="M86,255h -7" fill="none" stroke="black" stroke-width="3"/>
<path d="M86,227h -7" fill="none" stroke="black" stroke-width="3"/>
<path d="M86,199h -7" fill="none" stroke="black" stroke-width="3"/>
<path d="M92,170h -13" fill="none" stroke="black" stroke-width="3"/>
<path d="M86,142h -7" fill="none" stroke="black" stroke-width="3"/>
<path d="M86,114h -7" fill="none" stroke="black" stroke-width="3"/>
<path d="M86,86h -7" fill="none" stroke="black" stroke-width="3"/>
<path d="M92,58h -13" fill="none" stroke="black" stroke-width="3"/>
<path d="M92,58h -13" fill="none" stroke="black" stroke-width="3"/>
<text x="63" y="404" fill="black" font-size="21" font-family="Times" font-weight="bold">
0
</text>
<text x="51" y="291" fill="black" font-size="21" font-family="Times" font-weight="bold">
20
</text>
<text x="51" y="178" fill="black" font-size="21" font-family="Times" font-weight="bold">
40
</text>
<text x="51" y="65" fill="black" font-size="21" font-family="Times" font-weight="bold">
60
</text>
<path d="M522,396v -359" fill="none" stroke="black" stroke-width="3"/>
<path d="M508,396h 14" fill="none" stroke="black" stroke-width="3"/>
<path d="M515,368h 7" fill="none" stroke="black" stroke-width="3"/>
<path d="M515,340h 7" fill="none" stroke="black" stroke-width="3"/>
<path d="M515,311h 7" fill="none" stroke="black" stroke-width="3"/>
<path d="M508,283h 14" fill="none" stroke="black" stroke-width="3"/>
<path d="M515,255h 7" fill="none" stroke="black" stroke-width="3"/>
<path d="M515,227h 7" fill="none" stroke="black" stroke-width="3"/>
<path d="M515,199h 7" fill="none" stroke="black" stroke-width="3"/>
<path d="M508,170h 14" fill="none" stroke="black" stroke-width="3"/>
<path d="M515,142h 7" fill="none" stroke="black" stroke-width="3"/>
<path d="M515,114h 7" fill="none" stroke="black" stroke-width="3"/>
<path d="M515,86h 7" fill="none" stroke="black" stroke-width="3"/>
<path d="M508,58h 14" fill="none" stroke="black" stroke-width="3"/>
<path d="M508,58h 14" fill="none" stroke="black" stroke-width="3"/>
<rect x="113" y="-4" width="147" height="40" fill="white"/>
<text x="119" y="25" fill="black" font-size="31" font-family="Helvetica" font-weight="bold">
v_3p_del
</text>
<path d="M107,143v -37" fill="none" stroke="#ff0000" stroke-width="6"/>
<path d="M107,100v -38" fill="none" stroke="#ff0000" stroke-width="6"/>
<g stroke="#ff0000" stroke-width="6" fill="#ff0000">
<circle cx="107" cy="103" r="3.5"/>
</g>
<path d="M162,138v -38" fill="none" stroke="#ff0000" stroke-width="6"/>
<path d="M162,94v -38" fill="none" stroke="#ff0000" stroke-width="6"/>
<g stroke="#ff0000" stroke-width="6" fill="#ff0000">
<circle cx="162" cy="97" r="3.5"/>
</g>
<path d="M218,389v -7" fill="none" stroke="#ff0000" stroke-width="6"/>
<path d="M218,376v -7" fill="none" stroke="#ff0000" stroke-width="6"/>
<g stroke="#ff0000" stroke-width="6" fill="#ff0000">
<circle cx="218" cy="379" r="3.5"/>
</g>
<path d="M273,328v -19" fill="none" stroke="#ff0000" stroke-width="6"/>
<path d="M273,303v -20" fill="none" stroke="#ff0000" stroke-width="6"/>
<g stroke="#ff0000" stroke-width="6" fill="#ff0000">
<circle cx="273" cy="306" r="3.5"/>
</g>
<path d="M494,362v -13" fill="none" stroke="#ff0000" stroke-width="6"/>
<path d="M494,342v -14" fill="none" stroke="#ff0000" stroke-width="6"/>
<g stroke="#ff0000" stroke-width="6" fill="#ff0000">
<circle cx="494" cy="345" r="3.5"/>
</g>
<path d="M80,395v -292h 55v -6h 55v 282h 55v -73h 55v 89h 166v -50h 56" fill="none" stroke="#ff0000" stroke-width="6"/>
<path d="M332,107h 42" fill="none" stroke="#ff0000" stroke-width="6"/>
<rect x="113" y="-4" width="147" height="40" fill="white"/>
<text x="119" y="25" fill="black" font-size="31" font-family="Helvetica" font-weight="bold">
v_3p_del
</text></svg>
