<?xml version="1.0" standalone="no"?>
<svg width="567" height="466" viewBox="0 0 567 466" xmlns="http://www.w3.org/2000/svg">
<title>
/bbx/output/_plots/example/sw/true/plots/v_5p_del.svg
</title>
<desc>
Creator: ROOT Version 5.34/14
CreationDate: Thu Jul 30 18:24:56 2015</desc>
<defs>
</defs>
<rect x="0" y="0" width="567" height="466" fill="white"/>
<rect x="79" y="37" width="443" height="359" fill="none" stroke="black"/>
<rect x="79" y="37" width="443" height="359" fill="none" stroke="black"/>
<path d="M79,396h 443" fill="none" stroke="black" stroke-width="3"/>
<path d="M180,385v 11" fill="none" stroke="black" stroke-width="3"/>
<path d="M220,391v 5" fill="none" stroke="black" stroke-width="3"/>
<path d="M260,391v 5" fill="none" stroke="black" stroke-width="3"/>
<path d="M300,391v 5" fill="none" stroke="black" stroke-width="3"/>
<path d="M341,385v 11" fill="none" stroke="black" stroke-width="3"/>
<path d="M381,391v 5" fill="none" stroke="black" stroke-width="3"/>
<path d="M421,391v 5" fill="none" stroke="black" stroke-width="3"/>
<path d="M461,391v 5" fill="none" stroke="black" stroke-width="3"/>
<path d="M501,385v 11" fill="none" stroke="black" stroke-width="3"/>
<path d="M180,385v 11" fill="none" stroke="black" stroke-width="3"/>
<path d="M140,391v 5" fill="none" stroke="black" stroke-width="3"/>
<path d="M99,391v 5" fill="none" stroke="black" stroke-width="3"/>
<path d="M501,385v 11" fill="none" stroke="black" stroke-width="3"/>
<text x="163" y="416" fill="black" font-size="21" font-family="Times" font-weight="bold">
200
</text>
<text x="324" y="416" fill="black" font-size="21" font-family="Times" font-weight="bold">
220
</text>
<text x="485" y="416" fill="black" font-size="21" font-family="Times" font-weight="bold">
240
</text>
<path d="M79,37h 443" fill="none" stroke="black" stroke-width="3"/>
<path d="M180,48v -11" fill="none" stroke="black" stroke-width="3"/>
<path d="M220,43v -6" fill="none" stroke="black" stroke-width="3"/>
<path d="M260,43v -6" fill="none" stroke="black" stroke-width="3"/>
<path d="M300,43v -6" fill="none" stroke="black" stroke-width="3"/>
<path d="M341,48v -11" fill="none" stroke="black" stroke-width="3"/>
<path d="M381,43v -6" fill="none" stroke="black" stroke-width="3"/>
<path d="M421,43v -6" fill="none" stroke="black" stroke-width="3"/>
<path d="M461,43v -6" fill="none" stroke="black" stroke-width="3"/>
<path d="M501,48v -11" fill="none" stroke="black" stroke-width="3"/>
<path d="M180,48v -11" fill="none" stroke="black" stroke-width="3"/>
<path d="M140,43v -6" fill="none" stroke="black" stroke-width="3"/>
<path d="M99,43v -6" fill="none" stroke="black" stroke-width="3"/>
<path d="M501,48v -11" fill="none" stroke="black" stroke-width="3"/>
<path d="M79,396v -359" fill="none" stroke="black" stroke-width="3"/>
<path d="M92,396h -13" fill="none" stroke="black" stroke-width="3"/>
<path d="M86,375h -7" fill="none" stroke="black" stroke-width="3"/>
<path d="M86,353h -7" fill="none" stroke="black" stroke-width="3"/>
<path d="M86,332h -7" fill="none" stroke="black" stroke-width="3"/>
<path d="M86,311h -7" fill="none" stroke="black" stroke-width="3"/>
<path d="M92,289h -13" fill="none" stroke="black" stroke-width="3"/>
<path d="M86,268h -7" fill="none" stroke="black" stroke-width="3"/>
<path d="M86,247h -7" fill="none" stroke="black" stroke-width="3"/>
<path d="M86,225h -7" fill="none" stroke="black" stroke-width="3"/>
<path d="M86,204h -7" fill="none" stroke="black" stroke-width="3"/>
<path d="M92,183h -13" fill="none" stroke="black" stroke-width="3"/>
<path d="M86,161h -7" fill="none" stroke="black" stroke-width="3"/>
<path d="M86,140h -7" fill="none" stroke="black" stroke-width="3"/>
<path d="M86,118h -7" fill="none" stroke="black" stroke-width="3"/>
<path d="M86,97h -7" fill="none" stroke="black" stroke-width="3"/>
<path d="M92,76h -13" fill="none" stroke="black" stroke-width="3"/>
<path d="M92,76h -13" fill="none" stroke="black" stroke-width="3"/>
<path d="M86,54h -7" fill="none" stroke="black" stroke-width="3"/>
<text x="63" y="404" fill="black" font-size="21" font-family="Times" font-weight="bold">
0
</text>
<text x="51" y="297" fill="black" font-size="21" font-family="Times" font-weight="bold">
10
</text>
<text x="51" y="191" fill="black" font-size="21" font-family="Times" font-weight="bold">
20
</text>
<text x="51" y="83" fill="black" font-size="21" font-family="Times" font-weight="bold">
30
</text>
<path d="M522,396v -359" fill="none" stroke="black" stroke-width="3"/>
<path d="M508,396h 14" fill="none" stroke="black" stroke-width="3"/>
<path d="M515,375h 7" fill="none" stroke="black" stroke-width="3"/>
<path d="M515,353h 7" fill="none" stroke="black" stroke-width="3"/>
<path d="M515,332h 7" fill="none" stroke="black" stroke-width="3"/>
<path d="M515,311h 7" fill="none" stroke="black" stroke-width="3"/>
<path d="M508,289h 14" fill="none" stroke="black" stroke-width="3"/>
<path d="M515,268h 7" fill="none" stroke="black" stroke-width="3"/>
<path d="M515,247h 7" fill="none" stroke="black" stroke-width="3"/>
<path d="M515,225h 7" fill="none" stroke="black" stroke-width="3"/>
<path d="M515,204h 7" fill="none" stroke="black" stroke-width="3"/>
<path d="M508,183h 14" fill="none" stroke="black" stroke-width="3"/>
<path d="M515,161h 7" fill="none" stroke="black" stroke-width="3"/>
<path d="M515,140h 7" fill="none" stroke="black" stroke-width="3"/>
<path d="M515,118h 7" fill="none" stroke="black" stroke-width="3"/>
<path d="M515,97h 7" fill="none" stroke="black" stroke-width="3"/>
<path d="M508,76h 14" fill="none" stroke="black" stroke-width="3"/>
<path d="M508,76h 14" fill="none" stroke="black" stroke-width="3"/>
<path d="M515,54h 7" fill="none" stroke="black" stroke-width="3"/>
<rect x="113" y="-4" width="147" height="39" fill="white"/>
<text x="121" y="23" fill="black" font-size="30" font-family="Helvetica" font-weight="bold">
v_5p_del
</text>
<path d="M83,396v -7" fill="none" stroke="#ff0000" stroke-width="6"/>
<path d="M83,382v -7" fill="none" stroke="#ff0000" stroke-width="6"/>
<g stroke="#ff0000" stroke-width="6" fill="#ff0000">
<circle cx="83" cy="385" r="3.5"/>
</g>
<path d="M156,358v -23" fill="none" stroke="#ff0000" stroke-width="6"/>
<path d="M156,329v -23" fill="none" stroke="#ff0000" stroke-width="6"/>
<g stroke="#ff0000" stroke-width="6" fill="#ff0000">
<circle cx="156" cy="332" r="3.5"/>
</g>
<path d="M180,367v -21" fill="none" stroke="#ff0000" stroke-width="6"/>
<path d="M180,339v -20" fill="none" stroke="#ff0000" stroke-width="6"/>
<g stroke="#ff0000" stroke-width="6" fill="#ff0000">
<circle cx="180" cy="343" r="3.5"/>
</g>
<path d="M204,341v -27" fill="none" stroke="#ff0000" stroke-width="6"/>
<path d="M204,307v -27" fill="none" stroke="#ff0000" stroke-width="6"/>
<g stroke="#ff0000" stroke-width="6" fill="#ff0000">
<circle cx="204" cy="311" r="3.5"/>
</g>
<path d="M228,314v -32" fill="none" stroke="#ff0000" stroke-width="6"/>
<path d="M228,275v -32" fill="none" stroke="#ff0000" stroke-width="6"/>
<g stroke="#ff0000" stroke-width="6" fill="#ff0000">
<circle cx="228" cy="279" r="3.5"/>
</g>
<path d="M252,154v -54" fill="none" stroke="#ff0000" stroke-width="6"/>
<path d="M252,94v -53" fill="none" stroke="#ff0000" stroke-width="6"/>
<g stroke="#ff0000" stroke-width="6" fill="#ff0000">
<circle cx="252" cy="97" r="3.5"/>
</g>
<path d="M276,323v -30" fill="none" stroke="#ff0000" stroke-width="6"/>
<path d="M276,286v -30" fill="none" stroke="#ff0000" stroke-width="6"/>
<g stroke="#ff0000" stroke-width="6" fill="#ff0000">
<circle cx="276" cy="289" r="3.5"/>
</g>
<path d="M292,367v -21" fill="none" stroke="#ff0000" stroke-width="6"/>
<path d="M292,339v -20" fill="none" stroke="#ff0000" stroke-width="6"/>
<g stroke="#ff0000" stroke-width="6" fill="#ff0000">
<circle cx="292" cy="343" r="3.5"/>
</g>
<path d="M300,249v -42" fill="none" stroke="#ff0000" stroke-width="6"/>
<path d="M300,201v -42" fill="none" stroke="#ff0000" stroke-width="6"/>
<g stroke="#ff0000" stroke-width="6" fill="#ff0000">
<circle cx="300" cy="204" r="3.5"/>
</g>
<path d="M325,332v -29" fill="none" stroke="#ff0000" stroke-width="6"/>
<path d="M325,297v -29" fill="none" stroke="#ff0000" stroke-width="6"/>
<g stroke="#ff0000" stroke-width="6" fill="#ff0000">
<circle cx="325" cy="300" r="3.5"/>
</g>
<path d="M349,268v -39" fill="none" stroke="#ff0000" stroke-width="6"/>
<path d="M349,222v -39" fill="none" stroke="#ff0000" stroke-width="6"/>
<g stroke="#ff0000" stroke-width="6" fill="#ff0000">
<circle cx="349" cy="225" r="3.5"/>
</g>
<path d="M397,358v -23" fill="none" stroke="#ff0000" stroke-width="6"/>
<path d="M397,329v -23" fill="none" stroke="#ff0000" stroke-width="6"/>
<g stroke="#ff0000" stroke-width="6" fill="#ff0000">
<circle cx="397" cy="332" r="3.5"/>
</g>
<path d="M421,367v -21" fill="none" stroke="#ff0000" stroke-width="6"/>
<path d="M421,339v -20" fill="none" stroke="#ff0000" stroke-width="6"/>
<g stroke="#ff0000" stroke-width="6" fill="#ff0000">
<circle cx="421" cy="343" r="3.5"/>
</g>
<path d="M445,390v -12" fill="none" stroke="#ff0000" stroke-width="6"/>
<path d="M445,371v -11" fill="none" stroke="#ff0000" stroke-width="6"/>
<g stroke="#ff0000" stroke-width="6" fill="#ff0000">
<circle cx="445" cy="375" r="3.5"/>
</g>
<path d="M518,383v -16" fill="none" stroke="#ff0000" stroke-width="6"/>
<path d="M518,361v -15" fill="none" stroke="#ff0000" stroke-width="6"/>
<g stroke="#ff0000" stroke-width="6" fill="#ff0000">
<circle cx="518" cy="364" r="3.5"/>
</g>
<path d="M80,395v -10h 7v 10h 65v -63h 8v 63h 16v -52h 8v 52h 16v -84h 8v 84h 16v -116h 8v 116h 16v -298h 8v 298h 16v -106h 8v 106h 8v -52h 8v -139h 8v 191h 17v -95h 8v 95h 16v -170h 8v 170h 40v -63h 8v 63h 16v -52h 8v 52h 16v -20h 8v 20h 65v -31h 8"
 fill="none" stroke="#ff0000" stroke-width="6"/>
<path d="M332,107h 42" fill="none" stroke="#ff0000" stroke-width="6"/>
<rect x="113" y="-4" width="147" height="39" fill="white"/>
<text x="121" y="23" fill="black" font-size="30" font-family="Helvetica" font-weight="bold">
v_5p_del
</text></svg>
