<?xml version="1.0" standalone="no"?>
<svg width="567" height="466" viewBox="0 0 567 466" xmlns="http://www.w3.org/2000/svg">
<title>
/bbx/output/_plots/example/sw/true/plots/v_gene.svg
</title>
<desc>
Creator: ROOT Version 5.34/14
CreationDate: Wed Aug 19 19:38:11 2015</desc>
<defs>
</defs>
<rect x="0" y="0" width="567" height="466" fill="white"/>
<rect x="79" y="37" width="443" height="359" fill="none" stroke="black"/>
<rect x="79" y="37" width="443" height="359" fill="none" stroke="black"/>
<path d="M79,396h 443" fill="none" stroke="black" stroke-width="3"/>
<g transform="rotate(20,90,406)">
<text x="90" y="406" fill="black" font-size="14" font-family="Times" font-weight="bold">
IGHV1-18*04
</text>
</g>
<g transform="rotate(20,116,406)">
<text x="116" y="406" fill="black" font-size="14" font-family="Times" font-weight="bold">
IGHV1-2*04
</text>
</g>
<g transform="rotate(20,142,406)">
<text x="142" y="406" fill="black" font-size="14" font-family="Times" font-weight="bold">
IGHV1-46*02
</text>
</g>
<g transform="rotate(20,168,406)">
<text x="168" y="406" fill="black" font-size="14" font-family="Times" font-weight="bold">
IGHV1-69D*01
</text>
</g>
<g transform="rotate(20,194,406)">
<text x="194" y="406" fill="black" font-size="14" font-family="Times" font-weight="bold">
IGHV3-23D*01
</text>
</g>
<g transform="rotate(20,220,406)">
<text x="220" y="406" fill="black" font-size="14" font-family="Times" font-weight="bold">
IGHV3-53*02
</text>
</g>
<g transform="rotate(20,246,406)">
<text x="246" y="406" fill="black" font-size="14" font-family="Times" font-weight="bold">
IGHV3-64*04
</text>
</g>
<g transform="rotate(20,271,406)">
<text x="271" y="406" fill="black" font-size="14" font-family="Times" font-weight="bold">
IGHV3-64*05
</text>
</g>
<g transform="rotate(20,297,406)">
<text x="297" y="406" fill="black" font-size="14" font-family="Times" font-weight="bold">
IGHV3-66*03
</text>
</g>
<g transform="rotate(20,323,406)">
<text x="323" y="406" fill="black" font-size="14" font-family="Times" font-weight="bold">
IGHV3-7*01
</text>
</g>
<g transform="rotate(20,349,406)">
<text x="349" y="406" fill="black" font-size="14" font-family="Times" font-weight="bold">
IGHV3-7*02
</text>
</g>
<g transform="rotate(20,376,406)">
<text x="376" y="406" fill="black" font-size="14" font-family="Times" font-weight="bold">
IGHV3-7*03
</text>
</g>
<g transform="rotate(20,402,406)">
<text x="402" y="406" fill="black" font-size="14" font-family="Times" font-weight="bold">
IGHV3-9*03
</text>
</g>
<g transform="rotate(20,428,406)">
<text x="428" y="406" fill="black" font-size="14" font-family="Times" font-weight="bold">
IGHV3-NL1*01
</text>
</g>
<g transform="rotate(20,454,406)">
<text x="454" y="406" fill="black" font-size="14" font-family="Times" font-weight="bold">
IGHV4-61*02
</text>
</g>
<g transform="rotate(20,480,406)">
<text x="480" y="406" fill="black" font-size="14" font-family="Times" font-weight="bold">
IGHV4-61*08
</text>
</g>
<g transform="rotate(20,506,406)">
<text x="506" y="406" fill="black" font-size="14" font-family="Times" font-weight="bold">
IGHV4/OR15-8*03
</text>
</g>
<path d="M92,385v 11" fill="none" stroke="black" stroke-width="3"/>
<path d="M118,385v 11" fill="none" stroke="black" stroke-width="3"/>
<path d="M144,385v 11" fill="none" stroke="black" stroke-width="3"/>
<path d="M170,385v 11" fill="none" stroke="black" stroke-width="3"/>
<path d="M196,385v 11" fill="none" stroke="black" stroke-width="3"/>
<path d="M222,385v 11" fill="none" stroke="black" stroke-width="3"/>
<path d="M248,385v 11" fill="none" stroke="black" stroke-width="3"/>
<path d="M274,385v 11" fill="none" stroke="black" stroke-width="3"/>
<path d="M300,385v 11" fill="none" stroke="black" stroke-width="3"/>
<path d="M326,385v 11" fill="none" stroke="black" stroke-width="3"/>
<path d="M352,385v 11" fill="none" stroke="black" stroke-width="3"/>
<path d="M379,385v 11" fill="none" stroke="black" stroke-width="3"/>
<path d="M405,385v 11" fill="none" stroke="black" stroke-width="3"/>
<path d="M431,385v 11" fill="none" stroke="black" stroke-width="3"/>
<path d="M457,385v 11" fill="none" stroke="black" stroke-width="3"/>
<path d="M483,385v 11" fill="none" stroke="black" stroke-width="3"/>
<path d="M509,385v 11" fill="none" stroke="black" stroke-width="3"/>
<path d="M92,385v 11" fill="none" stroke="black" stroke-width="3"/>
<path d="M509,385v 11" fill="none" stroke="black" stroke-width="3"/>
<path d="M79,37h 443" fill="none" stroke="black" stroke-width="3"/>
<path d="M92,48v -11" fill="none" stroke="black" stroke-width="3"/>
<path d="M118,48v -11" fill="none" stroke="black" stroke-width="3"/>
<path d="M144,48v -11" fill="none" stroke="black" stroke-width="3"/>
<path d="M170,48v -11" fill="none" stroke="black" stroke-width="3"/>
<path d="M196,48v -11" fill="none" stroke="black" stroke-width="3"/>
<path d="M222,48v -11" fill="none" stroke="black" stroke-width="3"/>
<path d="M248,48v -11" fill="none" stroke="black" stroke-width="3"/>
<path d="M274,48v -11" fill="none" stroke="black" stroke-width="3"/>
<path d="M300,48v -11" fill="none" stroke="black" stroke-width="3"/>
<path d="M326,48v -11" fill="none" stroke="black" stroke-width="3"/>
<path d="M352,48v -11" fill="none" stroke="black" stroke-width="3"/>
<path d="M379,48v -11" fill="none" stroke="black" stroke-width="3"/>
<path d="M405,48v -11" fill="none" stroke="black" stroke-width="3"/>
<path d="M431,48v -11" fill="none" stroke="black" stroke-width="3"/>
<path d="M457,48v -11" fill="none" stroke="black" stroke-width="3"/>
<path d="M483,48v -11" fill="none" stroke="black" stroke-width="3"/>
<path d="M509,48v -11" fill="none" stroke="black" stroke-width="3"/>
<path d="M92,48v -11" fill="none" stroke="black" stroke-width="3"/>
<path d="M509,48v -11" fill="none" stroke="black" stroke-width="3"/>
<path d="M79,396v -359" fill="none" stroke="black" stroke-width="3"/>
<path d="M92,396h -13" fill="none" stroke="black" stroke-width="3"/>
<path d="M86,370h -7" fill="none" stroke="black" stroke-width="3"/>
<path d="M86,344h -7" fill="none" stroke="black" stroke-width="3"/>
<path d="M86,318h -7" fill="none" stroke="black" stroke-width="3"/>
<path d="M86,292h -7" fill="none" stroke="black" stroke-width="3"/>
<path d="M92,266h -13" fill="none" stroke="black" stroke-width="3"/>
<path d="M86,240h -7" fill="none" stroke="black" stroke-width="3"/>
<path d="M86,214h -7" fill="none" stroke="black" stroke-width="3"/>
<path d="M86,188h -7" fill="none" stroke="black" stroke-width="3"/>
<path d="M86,162h -7" fill="none" stroke="black" stroke-width="3"/>
<path d="M92,136h -13" fill="none" stroke="black" stroke-width="3"/>
<path d="M92,136h -13" fill="none" stroke="black" stroke-width="3"/>
<path d="M86,110h -7" fill="none" stroke="black" stroke-width="3"/>
<path d="M86,84h -7" fill="none" stroke="black" stroke-width="3"/>
<path d="M86,58h -7" fill="none" stroke="black" stroke-width="3"/>
<text x="63" y="404" fill="black" font-size="21" font-family="Times" font-weight="bold">
0
</text>
<text x="51" y="274" fill="black" font-size="21" font-family="Times" font-weight="bold">
10
</text>
<text x="51" y="144" fill="black" font-size="21" font-family="Times" font-weight="bold">
20
</text>
<path d="M522,396v -359" fill="none" stroke="black" stroke-width="3"/>
<path d="M508,396h 14" fill="none" stroke="black" stroke-width="3"/>
<path d="M515,370h 7" fill="none" stroke="black" stroke-width="3"/>
<path d="M515,344h 7" fill="none" stroke="black" stroke-width="3"/>
<path d="M515,318h 7" fill="none" stroke="black" stroke-width="3"/>
<path d="M515,292h 7" fill="none" stroke="black" stroke-width="3"/>
<path d="M508,266h 14" fill="none" stroke="black" stroke-width="3"/>
<path d="M515,240h 7" fill="none" stroke="black" stroke-width="3"/>
<path d="M515,214h 7" fill="none" stroke="black" stroke-width="3"/>
<path d="M515,188h 7" fill="none" stroke="black" stroke-width="3"/>
<path d="M515,162h 7" fill="none" stroke="black" stroke-width="3"/>
<path d="M508,136h 14" fill="none" stroke="black" stroke-width="3"/>
<path d="M508,136h 14" fill="none" stroke="black" stroke-width="3"/>
<path d="M515,110h 7" fill="none" stroke="black" stroke-width="3"/>
<path d="M515,84h 7" fill="none" stroke="black" stroke-width="3"/>
<path d="M515,58h 7" fill="none" stroke="black" stroke-width="3"/>
<rect x="113" y="-4" width="115" height="38" fill="white"/>
<text x="118" y="20" fill="black" font-size="30" font-family="Helvetica" font-weight="bold">
v_gene
</text>
<path d="M92,360v -26" fill="none" stroke="#ff0000" stroke-width="6"/>
<path d="M92,328v -26" fill="none" stroke="#ff0000" stroke-width="6"/>
<g stroke="#ff0000" stroke-width="6" fill="#ff0000">
<circle cx="92" cy="331" r="3.5"/>
</g>
<path d="M118,360v -26" fill="none" stroke="#ff0000" stroke-width="6"/>
<path d="M118,328v -26" fill="none" stroke="#ff0000" stroke-width="6"/>
<g stroke="#ff0000" stroke-width="6" fill="#ff0000">
<circle cx="118" cy="331" r="3.5"/>
</g>
<path d="M144,396v -10" fill="none" stroke="#ff0000" stroke-width="6"/>
<path d="M144,380v -10" fill="none" stroke="#ff0000" stroke-width="6"/>
<g stroke="#ff0000" stroke-width="6" fill="#ff0000">
<circle cx="144" cy="383" r="3.5"/>
</g>
<path d="M170,340v -32" fill="none" stroke="#ff0000" stroke-width="6"/>
<path d="M170,302v -31" fill="none" stroke="#ff0000" stroke-width="6"/>
<g stroke="#ff0000" stroke-width="6" fill="#ff0000">
<circle cx="170" cy="305" r="3.5"/>
</g>
<path d="M196,251v -47" fill="none" stroke="#ff0000" stroke-width="6"/>
<path d="M196,198v -47" fill="none" stroke="#ff0000" stroke-width="6"/>
<g stroke="#ff0000" stroke-width="6" fill="#ff0000">
<circle cx="196" cy="201" r="3.5"/>
</g>
<path d="M222,329v -34" fill="none" stroke="#ff0000" stroke-width="6"/>
<path d="M222,289v -34" fill="none" stroke="#ff0000" stroke-width="6"/>
<g stroke="#ff0000" stroke-width="6" fill="#ff0000">
<circle cx="222" cy="292" r="3.5"/>
</g>
<path d="M248,274v -44" fill="none" stroke="#ff0000" stroke-width="6"/>
<path d="M248,224v -44" fill="none" stroke="#ff0000" stroke-width="6"/>
<g stroke="#ff0000" stroke-width="6" fill="#ff0000">
<circle cx="248" cy="227" r="3.5"/>
</g>
<path d="M274,360v -26" fill="none" stroke="#ff0000" stroke-width="6"/>
<path d="M274,328v -26" fill="none" stroke="#ff0000" stroke-width="6"/>
<g stroke="#ff0000" stroke-width="6" fill="#ff0000">
<circle cx="274" cy="331" r="3.5"/>
</g>
<path d="M300,360v -26" fill="none" stroke="#ff0000" stroke-width="6"/>
<path d="M300,328v -26" fill="none" stroke="#ff0000" stroke-width="6"/>
<g stroke="#ff0000" stroke-width="6" fill="#ff0000">
<circle cx="300" cy="331" r="3.5"/>
</g>
<path d="M326,229v -51" fill="none" stroke="#ff0000" stroke-width="6"/>
<path d="M326,172v -50" fill="none" stroke="#ff0000" stroke-width="6"/>
<g stroke="#ff0000" stroke-width="6" fill="#ff0000">
<circle cx="326" cy="175" r="3.5"/>
</g>
<path d="M352,340v -32" fill="none" stroke="#ff0000" stroke-width="6"/>
<path d="M352,302v -31" fill="none" stroke="#ff0000" stroke-width="6"/>
<g stroke="#ff0000" stroke-width="6" fill="#ff0000">
<circle cx="352" cy="305" r="3.5"/>
</g>
<path d="M379,329v -34" fill="none" stroke="#ff0000" stroke-width="6"/>
<path d="M379,289v -34" fill="none" stroke="#ff0000" stroke-width="6"/>
<g stroke="#ff0000" stroke-width="6" fill="#ff0000">
<circle cx="379" cy="292" r="3.5"/>
</g>
<path d="M405,380v -20" fill="none" stroke="#ff0000" stroke-width="6"/>
<path d="M405,354v -19" fill="none" stroke="#ff0000" stroke-width="6"/>
<g stroke="#ff0000" stroke-width="6" fill="#ff0000">
<circle cx="405" cy="357" r="3.5"/>
</g>
<path d="M431,159v -59" fill="none" stroke="#ff0000" stroke-width="6"/>
<path d="M431,94v -57" fill="none" stroke="#ff0000" stroke-width="6"/>
<g stroke="#ff0000" stroke-width="6" fill="#ff0000">
<circle cx="431" cy="97" r="3.5"/>
</g>
<path d="M457,360v -26" fill="none" stroke="#ff0000" stroke-width="6"/>
<path d="M457,328v -26" fill="none" stroke="#ff0000" stroke-width="6"/>
<g stroke="#ff0000" stroke-width="6" fill="#ff0000">
<circle cx="457" cy="331" r="3.5"/>
</g>
<path d="M483,380v -20" fill="none" stroke="#ff0000" stroke-width="6"/>
<path d="M483,354v -19" fill="none" stroke="#ff0000" stroke-width="6"/>
<g stroke="#ff0000" stroke-width="6" fill="#ff0000">
<circle cx="483" cy="357" r="3.5"/>
</g>
<path d="M509,380v -20" fill="none" stroke="#ff0000" stroke-width="6"/>
<path d="M509,354v -19" fill="none" stroke="#ff0000" stroke-width="6"/>
<g stroke="#ff0000" stroke-width="6" fill="#ff0000">
<circle cx="509" cy="357" r="3.5"/>
</g>
<path d="M80,395v -64h 51v 52h 26v -78h 26v -104h 26v 91h 26v -65h 26v 104h 52v -156h 26v 130h 27v -13h 26v 65h 26v -260h 26v 234h 26v 26h 52" fill="none" stroke="#ff0000" stroke-width="6"/>
<path d="M332,107h 42" fill="none" stroke="#ff0000" stroke-width="6"/>
<rect x="113" y="-4" width="115" height="38" fill="white"/>
<text x="118" y="20" fill="black" font-size="30" font-family="Helvetica" font-weight="bold">
v_gene
</text></svg>
