<?xml version="1.0" standalone="no"?>
<svg width="567" height="466" viewBox="0 0 567 466" xmlns="http://www.w3.org/2000/svg">
<title>
/bbx/output/_plots/example/sw/plots/d_3p_del.svg
</title>
<desc>
Creator: ROOT Version 5.34/14
CreationDate: Wed Aug 19 19:38:08 2015</desc>
<defs>
</defs>
<rect x="0" y="0" width="567" height="466" fill="white"/>
<rect x="79" y="37" width="443" height="359" fill="none" stroke="black"/>
<rect x="79" y="37" width="443" height="359" fill="none" stroke="black"/>
<path d="M79,396h 443" fill="none" stroke="black" stroke-width="3"/>
<path d="M90,385v 11" fill="none" stroke="black" stroke-width="3"/>
<path d="M111,391v 5" fill="none" stroke="black" stroke-width="3"/>
<path d="M132,391v 5" fill="none" stroke="black" stroke-width="3"/>
<path d="M153,391v 5" fill="none" stroke="black" stroke-width="3"/>
<path d="M174,391v 5" fill="none" stroke="black" stroke-width="3"/>
<path d="M195,385v 11" fill="none" stroke="black" stroke-width="3"/>
<path d="M216,391v 5" fill="none" stroke="black" stroke-width="3"/>
<path d="M237,391v 5" fill="none" stroke="black" stroke-width="3"/>
<path d="M258,391v 5" fill="none" stroke="black" stroke-width="3"/>
<path d="M279,391v 5" fill="none" stroke="black" stroke-width="3"/>
<path d="M300,385v 11" fill="none" stroke="black" stroke-width="3"/>
<path d="M322,391v 5" fill="none" stroke="black" stroke-width="3"/>
<path d="M343,391v 5" fill="none" stroke="black" stroke-width="3"/>
<path d="M364,391v 5" fill="none" stroke="black" stroke-width="3"/>
<path d="M385,391v 5" fill="none" stroke="black" stroke-width="3"/>
<path d="M406,385v 11" fill="none" stroke="black" stroke-width="3"/>
<path d="M427,391v 5" fill="none" stroke="black" stroke-width="3"/>
<path d="M448,391v 5" fill="none" stroke="black" stroke-width="3"/>
<path d="M469,391v 5" fill="none" stroke="black" stroke-width="3"/>
<path d="M490,391v 5" fill="none" stroke="black" stroke-width="3"/>
<path d="M511,385v 11" fill="none" stroke="black" stroke-width="3"/>
<path d="M90,385v 11" fill="none" stroke="black" stroke-width="3"/>
<path d="M511,385v 11" fill="none" stroke="black" stroke-width="3"/>
<text x="84" y="416" fill="black" font-size="21" font-family="Times" font-weight="bold">
0
</text>
<text x="189" y="416" fill="black" font-size="21" font-family="Times" font-weight="bold">
5
</text>
<text x="288" y="416" fill="black" font-size="21" font-family="Times" font-weight="bold">
10
</text>
<text x="394" y="416" fill="black" font-size="21" font-family="Times" font-weight="bold">
15
</text>
<text x="499" y="416" fill="black" font-size="21" font-family="Times" font-weight="bold">
20
</text>
<path d="M79,37h 443" fill="none" stroke="black" stroke-width="3"/>
<path d="M90,48v -11" fill="none" stroke="black" stroke-width="3"/>
<path d="M111,43v -6" fill="none" stroke="black" stroke-width="3"/>
<path d="M132,43v -6" fill="none" stroke="black" stroke-width="3"/>
<path d="M153,43v -6" fill="none" stroke="black" stroke-width="3"/>
<path d="M174,43v -6" fill="none" stroke="black" stroke-width="3"/>
<path d="M195,48v -11" fill="none" stroke="black" stroke-width="3"/>
<path d="M216,43v -6" fill="none" stroke="black" stroke-width="3"/>
<path d="M237,43v -6" fill="none" stroke="black" stroke-width="3"/>
<path d="M258,43v -6" fill="none" stroke="black" stroke-width="3"/>
<path d="M279,43v -6" fill="none" stroke="black" stroke-width="3"/>
<path d="M300,48v -11" fill="none" stroke="black" stroke-width="3"/>
<path d="M322,43v -6" fill="none" stroke="black" stroke-width="3"/>
<path d="M343,43v -6" fill="none" stroke="black" stroke-width="3"/>
<path d="M364,43v -6" fill="none" stroke="black" stroke-width="3"/>
<path d="M385,43v -6" fill="none" stroke="black" stroke-width="3"/>
<path d="M406,48v -11" fill="none" stroke="black" stroke-width="3"/>
<path d="M427,43v -6" fill="none" stroke="black" stroke-width="3"/>
<path d="M448,43v -6" fill="none" stroke="black" stroke-width="3"/>
<path d="M469,43v -6" fill="none" stroke="black" stroke-width="3"/>
<path d="M490,43v -6" fill="none" stroke="black" stroke-width="3"/>
<path d="M511,48v -11" fill="none" stroke="black" stroke-width="3"/>
<path d="M90,48v -11" fill="none" stroke="black" stroke-width="3"/>
<path d="M511,48v -11" fill="none" stroke="black" stroke-width="3"/>
<path d="M79,396v -359" fill="none" stroke="black" stroke-width="3"/>
<path d="M92,396h -13" fill="none" stroke="black" stroke-width="3"/>
<path d="M86,372h -7" fill="none" stroke="black" stroke-width="3"/>
<path d="M86,348h -7" fill="none" stroke="black" stroke-width="3"/>
<path d="M86,324h -7" fill="none" stroke="black" stroke-width="3"/>
<path d="M86,300h -7" fill="none" stroke="black" stroke-width="3"/>
<path d="M92,277h -13" fill="none" stroke="black" stroke-width="3"/>
<path d="M86,253h -7" fill="none" stroke="black" stroke-width="3"/>
<path d="M86,229h -7" fill="none" stroke="black" stroke-width="3"/>
<path d="M86,205h -7" fill="none" stroke="black" stroke-width="3"/>
<path d="M86,181h -7" fill="none" stroke="black" stroke-width="3"/>
<path d="M92,157h -13" fill="none" stroke="black" stroke-width="3"/>
<path d="M86,133h -7" fill="none" stroke="black" stroke-width="3"/>
<path d="M86,109h -7" fill="none" stroke="black" stroke-width="3"/>
<path d="M86,85h -7" fill="none" stroke="black" stroke-width="3"/>
<path d="M86,61h -7" fill="none" stroke="black" stroke-width="3"/>
<path d="M92,37h -13" fill="none" stroke="black" stroke-width="3"/>
<text x="63" y="404" fill="black" font-size="21" font-family="Times" font-weight="bold">
0
</text>
<text x="51" y="284" fill="black" font-size="21" font-family="Times" font-weight="bold">
10
</text>
<text x="51" y="165" fill="black" font-size="21" font-family="Times" font-weight="bold">
20
</text>
<text x="51" y="45" fill="black" font-size="21" font-family="Times" font-weight="bold">
30
</text>
<path d="M522,396v -359" fill="none" stroke="black" stroke-width="3"/>
<path d="M508,396h 14" fill="none" stroke="black" stroke-width="3"/>
<path d="M515,372h 7" fill="none" stroke="black" stroke-width="3"/>
<path d="M515,348h 7" fill="none" stroke="black" stroke-width="3"/>
<path d="M515,324h 7" fill="none" stroke="black" stroke-width="3"/>
<path d="M515,300h 7" fill="none" stroke="black" stroke-width="3"/>
<path d="M508,277h 14" fill="none" stroke="black" stroke-width="3"/>
<path d="M515,253h 7" fill="none" stroke="black" stroke-width="3"/>
<path d="M515,229h 7" fill="none" stroke="black" stroke-width="3"/>
<path d="M515,205h 7" fill="none" stroke="black" stroke-width="3"/>
<path d="M515,181h 7" fill="none" stroke="black" stroke-width="3"/>
<path d="M508,157h 14" fill="none" stroke="black" stroke-width="3"/>
<path d="M515,133h 7" fill="none" stroke="black" stroke-width="3"/>
<path d="M515,109h 7" fill="none" stroke="black" stroke-width="3"/>
<path d="M515,85h 7" fill="none" stroke="black" stroke-width="3"/>
<path d="M515,61h 7" fill="none" stroke="black" stroke-width="3"/>
<path d="M508,37h 14" fill="none" stroke="black" stroke-width="3"/>
<rect x="113" y="-4" width="149" height="40" fill="white"/>
<text x="118" y="25" fill="black" font-size="31" font-family="Helvetica" font-weight="bold">
d_3p_del
</text>
<path d="M90,157v -57" fill="none" stroke="#ff0000" stroke-width="6"/>
<path d="M90,94v -57" fill="none" stroke="#ff0000" stroke-width="6"/>
<g stroke="#ff0000" stroke-width="6" fill="#ff0000">
<circle cx="90" cy="97" r="3.5"/>
</g>
<path d="M111,221v -49" fill="none" stroke="#ff0000" stroke-width="6"/>
<path d="M111,166v -49" fill="none" stroke="#ff0000" stroke-width="6"/>
<g stroke="#ff0000" stroke-width="6" fill="#ff0000">
<circle cx="111" cy="169" r="3.5"/>
</g>
<path d="M132,334v -30" fill="none" stroke="#ff0000" stroke-width="6"/>
<path d="M132,297v -30" fill="none" stroke="#ff0000" stroke-width="6"/>
<g stroke="#ff0000" stroke-width="6" fill="#ff0000">
<circle cx="132" cy="300" r="3.5"/>
</g>
<path d="M153,284v -40" fill="none" stroke="#ff0000" stroke-width="6"/>
<path d="M153,237v -39" fill="none" stroke="#ff0000" stroke-width="6"/>
<g stroke="#ff0000" stroke-width="6" fill="#ff0000">
<circle cx="153" cy="241" r="3.5"/>
</g>
<path d="M174,363v -23" fill="none" stroke="#ff0000" stroke-width="6"/>
<path d="M174,333v -23" fill="none" stroke="#ff0000" stroke-width="6"/>
<g stroke="#ff0000" stroke-width="6" fill="#ff0000">
<circle cx="174" cy="336" r="3.5"/>
</g>
<path d="M195,253v -45" fill="none" stroke="#ff0000" stroke-width="6"/>
<path d="M195,202v -45" fill="none" stroke="#ff0000" stroke-width="6"/>
<g stroke="#ff0000" stroke-width="6" fill="#ff0000">
<circle cx="195" cy="205" r="3.5"/>
</g>
<path d="M216,372v -20" fill="none" stroke="#ff0000" stroke-width="6"/>
<path d="M216,345v -21" fill="none" stroke="#ff0000" stroke-width="6"/>
<g stroke="#ff0000" stroke-width="6" fill="#ff0000">
<circle cx="216" cy="348" r="3.5"/>
</g>
<path d="M237,396v -9" fill="none" stroke="#ff0000" stroke-width="6"/>
<path d="M237,381v -9" fill="none" stroke="#ff0000" stroke-width="6"/>
<g stroke="#ff0000" stroke-width="6" fill="#ff0000">
<circle cx="237" cy="384" r="3.5"/>
</g>
<path d="M279,221v -49" fill="none" stroke="#ff0000" stroke-width="6"/>
<path d="M279,166v -49" fill="none" stroke="#ff0000" stroke-width="6"/>
<g stroke="#ff0000" stroke-width="6" fill="#ff0000">
<circle cx="279" cy="169" r="3.5"/>
</g>
<path d="M300,363v -23" fill="none" stroke="#ff0000" stroke-width="6"/>
<path d="M300,333v -23" fill="none" stroke="#ff0000" stroke-width="6"/>
<g stroke="#ff0000" stroke-width="6" fill="#ff0000">
<circle cx="300" cy="336" r="3.5"/>
</g>
<path d="M322,363v -23" fill="none" stroke="#ff0000" stroke-width="6"/>
<path d="M322,333v -23" fill="none" stroke="#ff0000" stroke-width="6"/>
<g stroke="#ff0000" stroke-width="6" fill="#ff0000">
<circle cx="322" cy="336" r="3.5"/>
</g>
<path d="M343,372v -20" fill="none" stroke="#ff0000" stroke-width="6"/>
<path d="M343,345v -21" fill="none" stroke="#ff0000" stroke-width="6"/>
<g stroke="#ff0000" stroke-width="6" fill="#ff0000">
<circle cx="343" cy="348" r="3.5"/>
</g>
<path d="M364,389v -14" fill="none" stroke="#ff0000" stroke-width="6"/>
<path d="M364,369v -14" fill="none" stroke="#ff0000" stroke-width="6"/>
<g stroke="#ff0000" stroke-width="6" fill="#ff0000">
<circle cx="364" cy="372" r="3.5"/>
</g>
<path d="M385,396v -9" fill="none" stroke="#ff0000" stroke-width="6"/>
<path d="M385,381v -9" fill="none" stroke="#ff0000" stroke-width="6"/>
<g stroke="#ff0000" stroke-width="6" fill="#ff0000">
<circle cx="385" cy="384" r="3.5"/>
</g>
<path d="M406,381v -18" fill="none" stroke="#ff0000" stroke-width="6"/>
<path d="M406,357v -17" fill="none" stroke="#ff0000" stroke-width="6"/>
<g stroke="#ff0000" stroke-width="6" fill="#ff0000">
<circle cx="406" cy="360" r="3.5"/>
</g>
<path d="M448,396v -9" fill="none" stroke="#ff0000" stroke-width="6"/>
<path d="M448,381v -9" fill="none" stroke="#ff0000" stroke-width="6"/>
<g stroke="#ff0000" stroke-width="6" fill="#ff0000">
<circle cx="448" cy="384" r="3.5"/>
</g>
<path d="M511,389v -14" fill="none" stroke="#ff0000" stroke-width="6"/>
<path d="M511,369v -14" fill="none" stroke="#ff0000" stroke-width="6"/>
<g stroke="#ff0000" stroke-width="6" fill="#ff0000">
<circle cx="511" cy="372" r="3.5"/>
</g>
<path d="M80,395v -298h 20v 72h 21v 131h 22v -59h 21v 95h 21v -131h 21v 143h 21v 36h 21v 11h 21v -226h 21v 167h 42v 12h 21v 24h 21v 12h 21v -24h 21v 35h 21v -11h 21v 11h 43v -23h 21" fill="none" stroke="#ff0000" stroke-width="6"/>
<path d="M332,107h 42" fill="none" stroke="#ff0000" stroke-width="6"/>
<rect x="113" y="-4" width="149" height="40" fill="white"/>
<text x="118" y="25" fill="black" font-size="31" font-family="Helvetica" font-weight="bold">
d_3p_del
</text></svg>
