<?xml version="1.0" standalone="no"?>
<svg width="567" height="466" viewBox="0 0 567 466" xmlns="http://www.w3.org/2000/svg">
<title>
/bbx/output/_plots/example/sw/plots/jf_insertion.svg
</title>
<desc>
Creator: ROOT Version 5.34/14
CreationDate: Wed Aug 19 19:38:08 2015</desc>
<defs>
</defs>
<rect x="0" y="0" width="567" height="466" fill="white"/>
<rect x="79" y="37" width="443" height="359" fill="none" stroke="black"/>
<rect x="79" y="37" width="443" height="359" fill="none" stroke="black"/>
<path d="M79,396h 443" fill="none" stroke="black" stroke-width="3"/>
<path d="M79,385v 11" fill="none" stroke="black" stroke-width="3"/>
<path d="M101,391v 5" fill="none" stroke="black" stroke-width="3"/>
<path d="M124,391v 5" fill="none" stroke="black" stroke-width="3"/>
<path d="M146,391v 5" fill="none" stroke="black" stroke-width="3"/>
<path d="M168,391v 5" fill="none" stroke="black" stroke-width="3"/>
<path d="M190,385v 11" fill="none" stroke="black" stroke-width="3"/>
<path d="M212,391v 5" fill="none" stroke="black" stroke-width="3"/>
<path d="M234,391v 5" fill="none" stroke="black" stroke-width="3"/>
<path d="M256,391v 5" fill="none" stroke="black" stroke-width="3"/>
<path d="M278,391v 5" fill="none" stroke="black" stroke-width="3"/>
<path d="M300,385v 11" fill="none" stroke="black" stroke-width="3"/>
<path d="M323,391v 5" fill="none" stroke="black" stroke-width="3"/>
<path d="M345,391v 5" fill="none" stroke="black" stroke-width="3"/>
<path d="M367,391v 5" fill="none" stroke="black" stroke-width="3"/>
<path d="M389,391v 5" fill="none" stroke="black" stroke-width="3"/>
<path d="M411,385v 11" fill="none" stroke="black" stroke-width="3"/>
<path d="M433,391v 5" fill="none" stroke="black" stroke-width="3"/>
<path d="M455,391v 5" fill="none" stroke="black" stroke-width="3"/>
<path d="M477,391v 5" fill="none" stroke="black" stroke-width="3"/>
<path d="M499,391v 5" fill="none" stroke="black" stroke-width="3"/>
<path d="M522,385v 11" fill="none" stroke="black" stroke-width="3"/>
<text x="62" y="416" fill="black" font-size="21" font-family="Times" font-weight="bold">
-0.5
</text>
<text x="176" y="416" fill="black" font-size="21" font-family="Times" font-weight="bold">
0.0
</text>
<text x="286" y="416" fill="black" font-size="21" font-family="Times" font-weight="bold">
0.5
</text>
<text x="397" y="416" fill="black" font-size="21" font-family="Times" font-weight="bold">
1.0
</text>
<text x="507" y="416" fill="black" font-size="21" font-family="Times" font-weight="bold">
1.5
</text>
<path d="M79,37h 443" fill="none" stroke="black" stroke-width="3"/>
<path d="M79,48v -11" fill="none" stroke="black" stroke-width="3"/>
<path d="M101,43v -6" fill="none" stroke="black" stroke-width="3"/>
<path d="M124,43v -6" fill="none" stroke="black" stroke-width="3"/>
<path d="M146,43v -6" fill="none" stroke="black" stroke-width="3"/>
<path d="M168,43v -6" fill="none" stroke="black" stroke-width="3"/>
<path d="M190,48v -11" fill="none" stroke="black" stroke-width="3"/>
<path d="M212,43v -6" fill="none" stroke="black" stroke-width="3"/>
<path d="M234,43v -6" fill="none" stroke="black" stroke-width="3"/>
<path d="M256,43v -6" fill="none" stroke="black" stroke-width="3"/>
<path d="M278,43v -6" fill="none" stroke="black" stroke-width="3"/>
<path d="M300,48v -11" fill="none" stroke="black" stroke-width="3"/>
<path d="M323,43v -6" fill="none" stroke="black" stroke-width="3"/>
<path d="M345,43v -6" fill="none" stroke="black" stroke-width="3"/>
<path d="M367,43v -6" fill="none" stroke="black" stroke-width="3"/>
<path d="M389,43v -6" fill="none" stroke="black" stroke-width="3"/>
<path d="M411,48v -11" fill="none" stroke="black" stroke-width="3"/>
<path d="M433,43v -6" fill="none" stroke="black" stroke-width="3"/>
<path d="M455,43v -6" fill="none" stroke="black" stroke-width="3"/>
<path d="M477,43v -6" fill="none" stroke="black" stroke-width="3"/>
<path d="M499,43v -6" fill="none" stroke="black" stroke-width="3"/>
<path d="M522,48v -11" fill="none" stroke="black" stroke-width="3"/>
<path d="M79,396v -359" fill="none" stroke="black" stroke-width="3"/>
<path d="M92,396h -13" fill="none" stroke="black" stroke-width="3"/>
<path d="M86,373h -7" fill="none" stroke="black" stroke-width="3"/>
<path d="M86,349h -7" fill="none" stroke="black" stroke-width="3"/>
<path d="M86,325h -7" fill="none" stroke="black" stroke-width="3"/>
<path d="M86,302h -7" fill="none" stroke="black" stroke-width="3"/>
<path d="M92,278h -13" fill="none" stroke="black" stroke-width="3"/>
<path d="M86,255h -7" fill="none" stroke="black" stroke-width="3"/>
<path d="M86,231h -7" fill="none" stroke="black" stroke-width="3"/>
<path d="M86,208h -7" fill="none" stroke="black" stroke-width="3"/>
<path d="M86,184h -7" fill="none" stroke="black" stroke-width="3"/>
<path d="M92,161h -13" fill="none" stroke="black" stroke-width="3"/>
<path d="M86,137h -7" fill="none" stroke="black" stroke-width="3"/>
<path d="M86,114h -7" fill="none" stroke="black" stroke-width="3"/>
<path d="M86,90h -7" fill="none" stroke="black" stroke-width="3"/>
<path d="M86,67h -7" fill="none" stroke="black" stroke-width="3"/>
<path d="M92,43h -13" fill="none" stroke="black" stroke-width="3"/>
<path d="M92,43h -13" fill="none" stroke="black" stroke-width="3"/>
<text x="63" y="404" fill="black" font-size="21" font-family="Times" font-weight="bold">
0
</text>
<text x="51" y="286" fill="black" font-size="21" font-family="Times" font-weight="bold">
50
</text>
<text x="41" y="169" fill="black" font-size="21" font-family="Times" font-weight="bold">
100
</text>
<text x="41" y="51" fill="black" font-size="21" font-family="Times" font-weight="bold">
150
</text>
<path d="M522,396v -359" fill="none" stroke="black" stroke-width="3"/>
<path d="M508,396h 14" fill="none" stroke="black" stroke-width="3"/>
<path d="M515,373h 7" fill="none" stroke="black" stroke-width="3"/>
<path d="M515,349h 7" fill="none" stroke="black" stroke-width="3"/>
<path d="M515,325h 7" fill="none" stroke="black" stroke-width="3"/>
<path d="M515,302h 7" fill="none" stroke="black" stroke-width="3"/>
<path d="M508,278h 14" fill="none" stroke="black" stroke-width="3"/>
<path d="M515,255h 7" fill="none" stroke="black" stroke-width="3"/>
<path d="M515,231h 7" fill="none" stroke="black" stroke-width="3"/>
<path d="M515,208h 7" fill="none" stroke="black" stroke-width="3"/>
<path d="M515,184h 7" fill="none" stroke="black" stroke-width="3"/>
<path d="M508,161h 14" fill="none" stroke="black" stroke-width="3"/>
<path d="M515,137h 7" fill="none" stroke="black" stroke-width="3"/>
<path d="M515,114h 7" fill="none" stroke="black" stroke-width="3"/>
<path d="M515,90h 7" fill="none" stroke="black" stroke-width="3"/>
<path d="M515,67h 7" fill="none" stroke="black" stroke-width="3"/>
<path d="M508,43h 14" fill="none" stroke="black" stroke-width="3"/>
<path d="M508,43h 14" fill="none" stroke="black" stroke-width="3"/>
<rect x="113" y="-4" width="193" height="39" fill="white"/>
<text x="125" y="23" fill="black" font-size="30" font-family="Helvetica" font-weight="bold">
jf_insertion
</text>
<path d="M190,124v -24" fill="none" stroke="#ff0000" stroke-width="6"/>
<path d="M190,94v -23" fill="none" stroke="#ff0000" stroke-width="6"/>
<g stroke="#ff0000" stroke-width="6" fill="#ff0000">
<circle cx="190" cy="97" r="3.5"/>
</g>
<path d="M411,388v -3" fill="none" stroke="#ff0000" stroke-width="6"/>
<path d="M411,379v -3" fill="none" stroke="#ff0000" stroke-width="6"/>
<g stroke="#ff0000" stroke-width="6" fill="#ff0000">
<circle cx="411" cy="382" r="3.5"/>
</g>
<path d="M80,395v -298h 220v 285h 222" fill="none" stroke="#ff0000" stroke-width="6"/>
<path d="M332,107h 42" fill="none" stroke="#ff0000" stroke-width="6"/>
<rect x="113" y="-4" width="193" height="39" fill="white"/>
<text x="125" y="23" fill="black" font-size="30" font-family="Helvetica" font-weight="bold">
jf_insertion
</text></svg>
