<?xml version="1.0" standalone="no"?>
<svg width="567" height="466" viewBox="0 0 567 466" xmlns="http://www.w3.org/2000/svg">
<title>
/bbx/output/_plots/example/sw/plots/seq_content.svg
</title>
<desc>
Creator: ROOT Version 5.34/14
CreationDate: Wed Aug 19 19:38:08 2015</desc>
<defs>
</defs>
<rect x="0" y="0" width="567" height="466" fill="white"/>
<rect x="79" y="37" width="443" height="359" fill="none" stroke="black"/>
<rect x="79" y="37" width="443" height="359" fill="none" stroke="black"/>
<path d="M79,396h 443" fill="none" stroke="black" stroke-width="3"/>
<text x="129" y="411" fill="black" font-size="14" font-family="Times" font-weight="bold">
A
</text>
<text x="239" y="411" fill="black" font-size="14" font-family="Times" font-weight="bold">
C
</text>
<text x="349" y="411" fill="black" font-size="14" font-family="Times" font-weight="bold">
G
</text>
<text x="461" y="411" fill="black" font-size="14" font-family="Times" font-weight="bold">
T
</text>
<path d="M135,385v 11" fill="none" stroke="black" stroke-width="3"/>
<path d="M245,385v 11" fill="none" stroke="black" stroke-width="3"/>
<path d="M356,385v 11" fill="none" stroke="black" stroke-width="3"/>
<path d="M466,385v 11" fill="none" stroke="black" stroke-width="3"/>
<path d="M135,385v 11" fill="none" stroke="black" stroke-width="3"/>
<path d="M466,385v 11" fill="none" stroke="black" stroke-width="3"/>
<path d="M79,37h 443" fill="none" stroke="black" stroke-width="3"/>
<path d="M135,48v -11" fill="none" stroke="black" stroke-width="3"/>
<path d="M245,48v -11" fill="none" stroke="black" stroke-width="3"/>
<path d="M356,48v -11" fill="none" stroke="black" stroke-width="3"/>
<path d="M466,48v -11" fill="none" stroke="black" stroke-width="3"/>
<path d="M135,48v -11" fill="none" stroke="black" stroke-width="3"/>
<path d="M466,48v -11" fill="none" stroke="black" stroke-width="3"/>
<path d="M79,396v -359" fill="none" stroke="black" stroke-width="3"/>
<path d="M92,396h -13" fill="none" stroke="black" stroke-width="3"/>
<path d="M86,367h -7" fill="none" stroke="black" stroke-width="3"/>
<path d="M86,337h -7" fill="none" stroke="black" stroke-width="3"/>
<path d="M86,308h -7" fill="none" stroke="black" stroke-width="3"/>
<path d="M92,278h -13" fill="none" stroke="black" stroke-width="3"/>
<path d="M86,248h -7" fill="none" stroke="black" stroke-width="3"/>
<path d="M86,219h -7" fill="none" stroke="black" stroke-width="3"/>
<path d="M86,189h -7" fill="none" stroke="black" stroke-width="3"/>
<path d="M92,160h -13" fill="none" stroke="black" stroke-width="3"/>
<path d="M86,130h -7" fill="none" stroke="black" stroke-width="3"/>
<path d="M86,101h -7" fill="none" stroke="black" stroke-width="3"/>
<path d="M86,71h -7" fill="none" stroke="black" stroke-width="3"/>
<path d="M92,42h -13" fill="none" stroke="black" stroke-width="3"/>
<path d="M92,42h -13" fill="none" stroke="black" stroke-width="3"/>
<text x="63" y="404" fill="black" font-size="21" font-family="Times" font-weight="bold">
0
</text>
<text x="29" y="286" fill="black" font-size="21" font-family="Times" font-weight="bold">
2000
</text>
<text x="29" y="168" fill="black" font-size="21" font-family="Times" font-weight="bold">
4000
</text>
<text x="29" y="50" fill="black" font-size="21" font-family="Times" font-weight="bold">
6000
</text>
<path d="M522,396v -359" fill="none" stroke="black" stroke-width="3"/>
<path d="M508,396h 14" fill="none" stroke="black" stroke-width="3"/>
<path d="M515,367h 7" fill="none" stroke="black" stroke-width="3"/>
<path d="M515,337h 7" fill="none" stroke="black" stroke-width="3"/>
<path d="M515,308h 7" fill="none" stroke="black" stroke-width="3"/>
<path d="M508,278h 14" fill="none" stroke="black" stroke-width="3"/>
<path d="M515,248h 7" fill="none" stroke="black" stroke-width="3"/>
<path d="M515,219h 7" fill="none" stroke="black" stroke-width="3"/>
<path d="M515,189h 7" fill="none" stroke="black" stroke-width="3"/>
<path d="M508,160h 14" fill="none" stroke="black" stroke-width="3"/>
<path d="M515,130h 7" fill="none" stroke="black" stroke-width="3"/>
<path d="M515,101h 7" fill="none" stroke="black" stroke-width="3"/>
<path d="M515,71h 7" fill="none" stroke="black" stroke-width="3"/>
<path d="M508,42h 14" fill="none" stroke="black" stroke-width="3"/>
<path d="M508,42h 14" fill="none" stroke="black" stroke-width="3"/>
<rect x="113" y="-4" width="191" height="38" fill="white"/>
<text x="119" y="22" fill="black" font-size="29" font-family="Helvetica" font-weight="bold">
seq_content
</text>
<path d="M135,144v -1" fill="none" stroke="#ff0000" stroke-width="6"/>
<path d="M135,137v -1" fill="none" stroke="#ff0000" stroke-width="6"/>
<g stroke="#ff0000" stroke-width="6" fill="#ff0000">
<circle cx="135" cy="140" r="3.5"/>
</g>
<path d="M245,153" fill="none" stroke="#ff0000" stroke-width="6"/>
<path d="M245,146v -1" fill="none" stroke="#ff0000" stroke-width="6"/>
<g stroke="#ff0000" stroke-width="6" fill="#ff0000">
<circle cx="245" cy="149" r="3.5"/>
</g>
<path d="M356,101v -1" fill="none" stroke="#ff0000" stroke-width="6"/>
<path d="M356,94v -1" fill="none" stroke="#ff0000" stroke-width="6"/>
<g stroke="#ff0000" stroke-width="6" fill="#ff0000">
<circle cx="356" cy="97" r="3.5"/>
</g>
<path d="M466,181v -1" fill="none" stroke="#ff0000" stroke-width="6"/>
<path d="M466,174" fill="none" stroke="#ff0000" stroke-width="6"/>
<g stroke="#ff0000" stroke-width="6" fill="#ff0000">
<circle cx="466" cy="177" r="3.5"/>
</g>
<path d="M80,395v -255h 110v 9h 110v -52h 111v 80h 111" fill="none" stroke="#ff0000" stroke-width="6"/>
<path d="M332,107h 42" fill="none" stroke="#ff0000" stroke-width="6"/>
<rect x="113" y="-4" width="191" height="38" fill="white"/>
<text x="119" y="22" fill="black" font-size="29" font-family="Helvetica" font-weight="bold">
seq_content
</text></svg>
