<?xml version="1.0" standalone="no"?>
<svg width="567" height="466" viewBox="0 0 567 466" xmlns="http://www.w3.org/2000/svg">
<title>
/bbx/output/_plots/example/sw/plots/v_5p_del.svg
</title>
<desc>
Creator: ROOT Version 5.34/14
CreationDate: Wed Aug 19 19:38:08 2015</desc>
<defs>
</defs>
<rect x="0" y="0" width="567" height="466" fill="white"/>
<rect x="79" y="37" width="443" height="359" fill="none" stroke="black"/>
<rect x="79" y="37" width="443" height="359" fill="none" stroke="black"/>
<path d="M79,396h 443" fill="none" stroke="black" stroke-width="3"/>
<path d="M135,385v 11" fill="none" stroke="black" stroke-width="3"/>
<path d="M176,391v 5" fill="none" stroke="black" stroke-width="3"/>
<path d="M218,391v 5" fill="none" stroke="black" stroke-width="3"/>
<path d="M259,391v 5" fill="none" stroke="black" stroke-width="3"/>
<path d="M300,391v 5" fill="none" stroke="black" stroke-width="3"/>
<path d="M342,385v 11" fill="none" stroke="black" stroke-width="3"/>
<path d="M135,385v 11" fill="none" stroke="black" stroke-width="3"/>
<path d="M94,391v 5" fill="none" stroke="black" stroke-width="3"/>
<path d="M342,385v 11" fill="none" stroke="black" stroke-width="3"/>
<path d="M383,391v 5" fill="none" stroke="black" stroke-width="3"/>
<path d="M424,391v 5" fill="none" stroke="black" stroke-width="3"/>
<path d="M466,391v 5" fill="none" stroke="black" stroke-width="3"/>
<path d="M507,391v 5" fill="none" stroke="black" stroke-width="3"/>
<text x="118" y="416" fill="black" font-size="21" font-family="Times" font-weight="bold">
150
</text>
<text x="325" y="416" fill="black" font-size="21" font-family="Times" font-weight="bold">
200
</text>
<path d="M79,37h 443" fill="none" stroke="black" stroke-width="3"/>
<path d="M135,48v -11" fill="none" stroke="black" stroke-width="3"/>
<path d="M176,43v -6" fill="none" stroke="black" stroke-width="3"/>
<path d="M218,43v -6" fill="none" stroke="black" stroke-width="3"/>
<path d="M259,43v -6" fill="none" stroke="black" stroke-width="3"/>
<path d="M300,43v -6" fill="none" stroke="black" stroke-width="3"/>
<path d="M342,48v -11" fill="none" stroke="black" stroke-width="3"/>
<path d="M135,48v -11" fill="none" stroke="black" stroke-width="3"/>
<path d="M94,43v -6" fill="none" stroke="black" stroke-width="3"/>
<path d="M342,48v -11" fill="none" stroke="black" stroke-width="3"/>
<path d="M383,43v -6" fill="none" stroke="black" stroke-width="3"/>
<path d="M424,43v -6" fill="none" stroke="black" stroke-width="3"/>
<path d="M466,43v -6" fill="none" stroke="black" stroke-width="3"/>
<path d="M507,43v -6" fill="none" stroke="black" stroke-width="3"/>
<path d="M79,396v -359" fill="none" stroke="black" stroke-width="3"/>
<path d="M92,396h -13" fill="none" stroke="black" stroke-width="3"/>
<path d="M86,372h -7" fill="none" stroke="black" stroke-width="3"/>
<path d="M86,348h -7" fill="none" stroke="black" stroke-width="3"/>
<path d="M86,324h -7" fill="none" stroke="black" stroke-width="3"/>
<path d="M86,300h -7" fill="none" stroke="black" stroke-width="3"/>
<path d="M92,277h -13" fill="none" stroke="black" stroke-width="3"/>
<path d="M86,253h -7" fill="none" stroke="black" stroke-width="3"/>
<path d="M86,229h -7" fill="none" stroke="black" stroke-width="3"/>
<path d="M86,205h -7" fill="none" stroke="black" stroke-width="3"/>
<path d="M86,181h -7" fill="none" stroke="black" stroke-width="3"/>
<path d="M92,157h -13" fill="none" stroke="black" stroke-width="3"/>
<path d="M86,133h -7" fill="none" stroke="black" stroke-width="3"/>
<path d="M86,109h -7" fill="none" stroke="black" stroke-width="3"/>
<path d="M86,85h -7" fill="none" stroke="black" stroke-width="3"/>
<path d="M86,61h -7" fill="none" stroke="black" stroke-width="3"/>
<path d="M92,37h -13" fill="none" stroke="black" stroke-width="3"/>
<text x="63" y="404" fill="black" font-size="21" font-family="Times" font-weight="bold">
0
</text>
<text x="51" y="284" fill="black" font-size="21" font-family="Times" font-weight="bold">
10
</text>
<text x="51" y="165" fill="black" font-size="21" font-family="Times" font-weight="bold">
20
</text>
<text x="51" y="45" fill="black" font-size="21" font-family="Times" font-weight="bold">
30
</text>
<path d="M522,396v -359" fill="none" stroke="black" stroke-width="3"/>
<path d="M508,396h 14" fill="none" stroke="black" stroke-width="3"/>
<path d="M515,372h 7" fill="none" stroke="black" stroke-width="3"/>
<path d="M515,348h 7" fill="none" stroke="black" stroke-width="3"/>
<path d="M515,324h 7" fill="none" stroke="black" stroke-width="3"/>
<path d="M515,300h 7" fill="none" stroke="black" stroke-width="3"/>
<path d="M508,277h 14" fill="none" stroke="black" stroke-width="3"/>
<path d="M515,253h 7" fill="none" stroke="black" stroke-width="3"/>
<path d="M515,229h 7" fill="none" stroke="black" stroke-width="3"/>
<path d="M515,205h 7" fill="none" stroke="black" stroke-width="3"/>
<path d="M515,181h 7" fill="none" stroke="black" stroke-width="3"/>
<path d="M508,157h 14" fill="none" stroke="black" stroke-width="3"/>
<path d="M515,133h 7" fill="none" stroke="black" stroke-width="3"/>
<path d="M515,109h 7" fill="none" stroke="black" stroke-width="3"/>
<path d="M515,85h 7" fill="none" stroke="black" stroke-width="3"/>
<path d="M515,61h 7" fill="none" stroke="black" stroke-width="3"/>
<path d="M508,37h 14" fill="none" stroke="black" stroke-width="3"/>
<rect x="113" y="-4" width="147" height="39" fill="white"/>
<text x="121" y="23" fill="black" font-size="30" font-family="Helvetica" font-weight="bold">
v_5p_del
</text>
<path d="M81,396v -9" fill="none" stroke="#ff0000" stroke-width="6"/>
<path d="M81,381v -9" fill="none" stroke="#ff0000" stroke-width="6"/>
<g stroke="#ff0000" stroke-width="6" fill="#ff0000">
<circle cx="81" cy="384" r="3.5"/>
</g>
<path d="M292,396v -9" fill="none" stroke="#ff0000" stroke-width="6"/>
<path d="M292,381v -9" fill="none" stroke="#ff0000" stroke-width="6"/>
<g stroke="#ff0000" stroke-width="6" fill="#ff0000">
<circle cx="292" cy="384" r="3.5"/>
</g>
<path d="M329,354v -26" fill="none" stroke="#ff0000" stroke-width="6"/>
<path d="M329,321v -26" fill="none" stroke="#ff0000" stroke-width="6"/>
<g stroke="#ff0000" stroke-width="6" fill="#ff0000">
<circle cx="329" cy="324" r="3.5"/>
</g>
<path d="M342,381v -18" fill="none" stroke="#ff0000" stroke-width="6"/>
<path d="M342,357v -17" fill="none" stroke="#ff0000" stroke-width="6"/>
<g stroke="#ff0000" stroke-width="6" fill="#ff0000">
<circle cx="342" cy="360" r="3.5"/>
</g>
<path d="M346,389v -14" fill="none" stroke="#ff0000" stroke-width="6"/>
<path d="M346,369v -14" fill="none" stroke="#ff0000" stroke-width="6"/>
<g stroke="#ff0000" stroke-width="6" fill="#ff0000">
<circle cx="346" cy="372" r="3.5"/>
</g>
<path d="M354,314v -34" fill="none" stroke="#ff0000" stroke-width="6"/>
<path d="M354,273v -34" fill="none" stroke="#ff0000" stroke-width="6"/>
<g stroke="#ff0000" stroke-width="6" fill="#ff0000">
<circle cx="354" cy="277" r="3.5"/>
</g>
<path d="M367,314v -34" fill="none" stroke="#ff0000" stroke-width="6"/>
<path d="M367,273v -34" fill="none" stroke="#ff0000" stroke-width="6"/>
<g stroke="#ff0000" stroke-width="6" fill="#ff0000">
<circle cx="367" cy="277" r="3.5"/>
</g>
<path d="M379,157v -57" fill="none" stroke="#ff0000" stroke-width="6"/>
<path d="M379,94v -57" fill="none" stroke="#ff0000" stroke-width="6"/>
<g stroke="#ff0000" stroke-width="6" fill="#ff0000">
<circle cx="379" cy="97" r="3.5"/>
</g>
<path d="M383,381v -18" fill="none" stroke="#ff0000" stroke-width="6"/>
<path d="M383,357v -17" fill="none" stroke="#ff0000" stroke-width="6"/>
<g stroke="#ff0000" stroke-width="6" fill="#ff0000">
<circle cx="383" cy="360" r="3.5"/>
</g>
<path d="M391,324v -32" fill="none" stroke="#ff0000" stroke-width="6"/>
<path d="M391,285v -32" fill="none" stroke="#ff0000" stroke-width="6"/>
<g stroke="#ff0000" stroke-width="6" fill="#ff0000">
<circle cx="391" cy="288" r="3.5"/>
</g>
<path d="M400,363v -23" fill="none" stroke="#ff0000" stroke-width="6"/>
<path d="M400,333v -23" fill="none" stroke="#ff0000" stroke-width="6"/>
<g stroke="#ff0000" stroke-width="6" fill="#ff0000">
<circle cx="400" cy="336" r="3.5"/>
</g>
<path d="M404,242v -46" fill="none" stroke="#ff0000" stroke-width="6"/>
<path d="M404,190v -46" fill="none" stroke="#ff0000" stroke-width="6"/>
<g stroke="#ff0000" stroke-width="6" fill="#ff0000">
<circle cx="404" cy="193" r="3.5"/>
</g>
<path d="M416,334v -30" fill="none" stroke="#ff0000" stroke-width="6"/>
<path d="M416,297v -30" fill="none" stroke="#ff0000" stroke-width="6"/>
<g stroke="#ff0000" stroke-width="6" fill="#ff0000">
<circle cx="416" cy="300" r="3.5"/>
</g>
<path d="M420,396v -9" fill="none" stroke="#ff0000" stroke-width="6"/>
<path d="M420,381v -9" fill="none" stroke="#ff0000" stroke-width="6"/>
<g stroke="#ff0000" stroke-width="6" fill="#ff0000">
<circle cx="420" cy="384" r="3.5"/>
</g>
<path d="M429,284v -40" fill="none" stroke="#ff0000" stroke-width="6"/>
<path d="M429,237v -39" fill="none" stroke="#ff0000" stroke-width="6"/>
<g stroke="#ff0000" stroke-width="6" fill="#ff0000">
<circle cx="429" cy="241" r="3.5"/>
</g>
<path d="M433,396v -9" fill="none" stroke="#ff0000" stroke-width="6"/>
<path d="M433,381v -9" fill="none" stroke="#ff0000" stroke-width="6"/>
<g stroke="#ff0000" stroke-width="6" fill="#ff0000">
<circle cx="433" cy="384" r="3.5"/>
</g>
<path d="M441,389v -14" fill="none" stroke="#ff0000" stroke-width="6"/>
<path d="M441,369v -14" fill="none" stroke="#ff0000" stroke-width="6"/>
<g stroke="#ff0000" stroke-width="6" fill="#ff0000">
<circle cx="441" cy="372" r="3.5"/>
</g>
<path d="M453,354v -26" fill="none" stroke="#ff0000" stroke-width="6"/>
<path d="M453,321v -26" fill="none" stroke="#ff0000" stroke-width="6"/>
<g stroke="#ff0000" stroke-width="6" fill="#ff0000">
<circle cx="453" cy="324" r="3.5"/>
</g>
<path d="M466,363v -23" fill="none" stroke="#ff0000" stroke-width="6"/>
<path d="M466,333v -23" fill="none" stroke="#ff0000" stroke-width="6"/>
<g stroke="#ff0000" stroke-width="6" fill="#ff0000">
<circle cx="466" cy="336" r="3.5"/>
</g>
<path d="M478,389v -14" fill="none" stroke="#ff0000" stroke-width="6"/>
<path d="M478,369v -14" fill="none" stroke="#ff0000" stroke-width="6"/>
<g stroke="#ff0000" stroke-width="6" fill="#ff0000">
<circle cx="478" cy="372" r="3.5"/>
</g>
<path d="M515,389v -14" fill="none" stroke="#ff0000" stroke-width="6"/>
<path d="M515,369v -14" fill="none" stroke="#ff0000" stroke-width="6"/>
<g stroke="#ff0000" stroke-width="6" fill="#ff0000">
<circle cx="515" cy="372" r="3.5"/>
</g>
<path d="M520,396v -9" fill="none" stroke="#ff0000" stroke-width="6"/>
<path d="M520,381v -9" fill="none" stroke="#ff0000" stroke-width="6"/>
<g stroke="#ff0000" stroke-width="6" fill="#ff0000">
<circle cx="520" cy="384" r="3.5"/>
</g>
<path d="M80,395v -11h 4v 11h 206v -11h 4v 11h 33v -71h 4v 71h 9v -35h 4v 12h 4v 23h 4v -118h 4v 118h 9v -118h 4v 118h 8v -298h 4v 263h 4v 35h 4v -107h 4v 107h 5v -59h 4v -143h 4v 202h 8v -95h 4v 84h 4v 11h 5v -154h 4v 143h 4v 11h 4v -23h 4v 23h 8v
 -71h 4v 71h 9v -59h 4v 59h 8v -23h 4v 23h 33v -23h 4v 12h 5" fill="none" stroke="#ff0000" stroke-width="6"/>
<path d="M332,107h 42" fill="none" stroke="#ff0000" stroke-width="6"/>
<rect x="113" y="-4" width="147" height="39" fill="white"/>
<text x="121" y="23" fill="black" font-size="30" font-family="Helvetica" font-weight="bold">
v_5p_del
</text></svg>
