<?xml version="1.0" standalone="no"?>
<svg width="567" height="466" viewBox="0 0 567 466" xmlns="http://www.w3.org/2000/svg">
<title>
/bbx/output/_plots/example/sw/plots/v_gene.svg
</title>
<desc>
Creator: ROOT Version 5.34/14
CreationDate: Wed Aug 19 19:38:07 2015</desc>
<defs>
</defs>
<rect x="0" y="0" width="567" height="466" fill="white"/>
<rect x="79" y="37" width="443" height="359" fill="none" stroke="black"/>
<rect x="79" y="37" width="443" height="359" fill="none" stroke="black"/>
<path d="M79,396h 443" fill="none" stroke="black" stroke-width="3"/>
<g transform="rotate(20,85,406)">
<text x="85" y="406" fill="black" font-size="14" font-family="Times" font-weight="bold">
IGHV1-18*04
</text>
</g>
<g transform="rotate(20,102,406)">
<text x="102" y="406" fill="black" font-size="14" font-family="Times" font-weight="bold">
IGHV1-2*04
</text>
</g>
<g transform="rotate(20,119,406)">
<text x="119" y="406" fill="black" font-size="14" font-family="Times" font-weight="bold">
IGHV1-46*02
</text>
</g>
<g transform="rotate(20,136,406)">
<text x="136" y="406" fill="black" font-size="14" font-family="Times" font-weight="bold">
IGHV1-69D*01
</text>
</g>
<g transform="rotate(20,153,406)">
<text x="153" y="406" fill="black" font-size="14" font-family="Times" font-weight="bold">
IGHV1/OR15-3*02
</text>
</g>
<g transform="rotate(20,170,406)">
<text x="170" y="406" fill="black" font-size="14" font-family="Times" font-weight="bold">
IGHV3-23D*01
</text>
</g>
<g transform="rotate(20,187,406)">
<text x="187" y="406" fill="black" font-size="14" font-family="Times" font-weight="bold">
IGHV3-30*15
</text>
</g>
<g transform="rotate(20,204,406)">
<text x="204" y="406" fill="black" font-size="14" font-family="Times" font-weight="bold">
IGHV3-33*06
</text>
</g>
<g transform="rotate(20,221,406)">
<text x="221" y="406" fill="black" font-size="14" font-family="Times" font-weight="bold">
IGHV3-53*02
</text>
</g>
<g transform="rotate(20,238,406)">
<text x="238" y="406" fill="black" font-size="14" font-family="Times" font-weight="bold">
IGHV3-64*04
</text>
</g>
<g transform="rotate(20,255,406)">
<text x="255" y="406" fill="black" font-size="14" font-family="Times" font-weight="bold">
IGHV3-64*05
</text>
</g>
<g transform="rotate(20,272,406)">
<text x="272" y="406" fill="black" font-size="14" font-family="Times" font-weight="bold">
IGHV3-66*03
</text>
</g>
<g transform="rotate(20,289,406)">
<text x="289" y="406" fill="black" font-size="14" font-family="Times" font-weight="bold">
IGHV3-69-1*02
</text>
</g>
<g transform="rotate(20,306,406)">
<text x="306" y="406" fill="black" font-size="14" font-family="Times" font-weight="bold">
IGHV3-7*01
</text>
</g>
<g transform="rotate(20,323,406)">
<text x="323" y="406" fill="black" font-size="14" font-family="Times" font-weight="bold">
IGHV3-7*02
</text>
</g>
<g transform="rotate(20,340,406)">
<text x="340" y="406" fill="black" font-size="14" font-family="Times" font-weight="bold">
IGHV3-7*03
</text>
</g>
<g transform="rotate(20,357,406)">
<text x="357" y="406" fill="black" font-size="14" font-family="Times" font-weight="bold">
IGHV3-74*03
</text>
</g>
<g transform="rotate(20,374,406)">
<text x="374" y="406" fill="black" font-size="14" font-family="Times" font-weight="bold">
IGHV3-9*03
</text>
</g>
<g transform="rotate(20,391,406)">
<text x="391" y="406" fill="black" font-size="14" font-family="Times" font-weight="bold">
IGHV3-NL1*01
</text>
</g>
<g transform="rotate(20,408,406)">
<text x="408" y="406" fill="black" font-size="14" font-family="Times" font-weight="bold">
IGHV4-39*07
</text>
</g>
<g transform="rotate(20,425,406)">
<text x="425" y="406" fill="black" font-size="14" font-family="Times" font-weight="bold">
IGHV4-59*08
</text>
</g>
<g transform="rotate(20,442,406)">
<text x="442" y="406" fill="black" font-size="14" font-family="Times" font-weight="bold">
IGHV4-59*09
</text>
</g>
<g transform="rotate(20,459,406)">
<text x="459" y="406" fill="black" font-size="14" font-family="Times" font-weight="bold">
IGHV4-61*02
</text>
</g>
<g transform="rotate(20,477,406)">
<text x="477" y="406" fill="black" font-size="14" font-family="Times" font-weight="bold">
IGHV4-61*03
</text>
</g>
<g transform="rotate(20,494,406)">
<text x="494" y="406" fill="black" font-size="14" font-family="Times" font-weight="bold">
IGHV4-61*08
</text>
</g>
<g transform="rotate(20,510,406)">
<text x="510" y="406" fill="black" font-size="14" font-family="Times" font-weight="bold">
IGHV4/OR15-8*03
</text>
</g>
<path d="M88,385v 11" fill="none" stroke="black" stroke-width="3"/>
<path d="M105,385v 11" fill="none" stroke="black" stroke-width="3"/>
<path d="M122,385v 11" fill="none" stroke="black" stroke-width="3"/>
<path d="M139,385v 11" fill="none" stroke="black" stroke-width="3"/>
<path d="M156,385v 11" fill="none" stroke="black" stroke-width="3"/>
<path d="M173,385v 11" fill="none" stroke="black" stroke-width="3"/>
<path d="M190,385v 11" fill="none" stroke="black" stroke-width="3"/>
<path d="M207,385v 11" fill="none" stroke="black" stroke-width="3"/>
<path d="M224,385v 11" fill="none" stroke="black" stroke-width="3"/>
<path d="M241,385v 11" fill="none" stroke="black" stroke-width="3"/>
<path d="M258,385v 11" fill="none" stroke="black" stroke-width="3"/>
<path d="M275,385v 11" fill="none" stroke="black" stroke-width="3"/>
<path d="M292,385v 11" fill="none" stroke="black" stroke-width="3"/>
<path d="M309,385v 11" fill="none" stroke="black" stroke-width="3"/>
<path d="M326,385v 11" fill="none" stroke="black" stroke-width="3"/>
<path d="M343,385v 11" fill="none" stroke="black" stroke-width="3"/>
<path d="M360,385v 11" fill="none" stroke="black" stroke-width="3"/>
<path d="M377,385v 11" fill="none" stroke="black" stroke-width="3"/>
<path d="M394,385v 11" fill="none" stroke="black" stroke-width="3"/>
<path d="M411,385v 11" fill="none" stroke="black" stroke-width="3"/>
<path d="M428,385v 11" fill="none" stroke="black" stroke-width="3"/>
<path d="M445,385v 11" fill="none" stroke="black" stroke-width="3"/>
<path d="M462,385v 11" fill="none" stroke="black" stroke-width="3"/>
<path d="M479,385v 11" fill="none" stroke="black" stroke-width="3"/>
<path d="M496,385v 11" fill="none" stroke="black" stroke-width="3"/>
<path d="M513,385v 11" fill="none" stroke="black" stroke-width="3"/>
<path d="M88,385v 11" fill="none" stroke="black" stroke-width="3"/>
<path d="M513,385v 11" fill="none" stroke="black" stroke-width="3"/>
<path d="M79,37h 443" fill="none" stroke="black" stroke-width="3"/>
<path d="M88,48v -11" fill="none" stroke="black" stroke-width="3"/>
<path d="M105,48v -11" fill="none" stroke="black" stroke-width="3"/>
<path d="M122,48v -11" fill="none" stroke="black" stroke-width="3"/>
<path d="M139,48v -11" fill="none" stroke="black" stroke-width="3"/>
<path d="M156,48v -11" fill="none" stroke="black" stroke-width="3"/>
<path d="M173,48v -11" fill="none" stroke="black" stroke-width="3"/>
<path d="M190,48v -11" fill="none" stroke="black" stroke-width="3"/>
<path d="M207,48v -11" fill="none" stroke="black" stroke-width="3"/>
<path d="M224,48v -11" fill="none" stroke="black" stroke-width="3"/>
<path d="M241,48v -11" fill="none" stroke="black" stroke-width="3"/>
<path d="M258,48v -11" fill="none" stroke="black" stroke-width="3"/>
<path d="M275,48v -11" fill="none" stroke="black" stroke-width="3"/>
<path d="M292,48v -11" fill="none" stroke="black" stroke-width="3"/>
<path d="M309,48v -11" fill="none" stroke="black" stroke-width="3"/>
<path d="M326,48v -11" fill="none" stroke="black" stroke-width="3"/>
<path d="M343,48v -11" fill="none" stroke="black" stroke-width="3"/>
<path d="M360,48v -11" fill="none" stroke="black" stroke-width="3"/>
<path d="M377,48v -11" fill="none" stroke="black" stroke-width="3"/>
<path d="M394,48v -11" fill="none" stroke="black" stroke-width="3"/>
<path d="M411,48v -11" fill="none" stroke="black" stroke-width="3"/>
<path d="M428,48v -11" fill="none" stroke="black" stroke-width="3"/>
<path d="M445,48v -11" fill="none" stroke="black" stroke-width="3"/>
<path d="M462,48v -11" fill="none" stroke="black" stroke-width="3"/>
<path d="M479,48v -11" fill="none" stroke="black" stroke-width="3"/>
<path d="M496,48v -11" fill="none" stroke="black" stroke-width="3"/>
<path d="M513,48v -11" fill="none" stroke="black" stroke-width="3"/>
<path d="M88,48v -11" fill="none" stroke="black" stroke-width="3"/>
<path d="M513,48v -11" fill="none" stroke="black" stroke-width="3"/>
<path d="M79,396v -359" fill="none" stroke="black" stroke-width="3"/>
<path d="M92,396h -13" fill="none" stroke="black" stroke-width="3"/>
<path d="M86,370h -7" fill="none" stroke="black" stroke-width="3"/>
<path d="M86,344h -7" fill="none" stroke="black" stroke-width="3"/>
<path d="M86,318h -7" fill="none" stroke="black" stroke-width="3"/>
<path d="M86,292h -7" fill="none" stroke="black" stroke-width="3"/>
<path d="M92,266h -13" fill="none" stroke="black" stroke-width="3"/>
<path d="M86,240h -7" fill="none" stroke="black" stroke-width="3"/>
<path d="M86,214h -7" fill="none" stroke="black" stroke-width="3"/>
<path d="M86,188h -7" fill="none" stroke="black" stroke-width="3"/>
<path d="M86,162h -7" fill="none" stroke="black" stroke-width="3"/>
<path d="M92,136h -13" fill="none" stroke="black" stroke-width="3"/>
<path d="M92,136h -13" fill="none" stroke="black" stroke-width="3"/>
<path d="M86,110h -7" fill="none" stroke="black" stroke-width="3"/>
<path d="M86,84h -7" fill="none" stroke="black" stroke-width="3"/>
<path d="M86,58h -7" fill="none" stroke="black" stroke-width="3"/>
<text x="63" y="404" fill="black" font-size="21" font-family="Times" font-weight="bold">
0
</text>
<text x="51" y="274" fill="black" font-size="21" font-family="Times" font-weight="bold">
10
</text>
<text x="51" y="144" fill="black" font-size="21" font-family="Times" font-weight="bold">
20
</text>
<path d="M522,396v -359" fill="none" stroke="black" stroke-width="3"/>
<path d="M508,396h 14" fill="none" stroke="black" stroke-width="3"/>
<path d="M515,370h 7" fill="none" stroke="black" stroke-width="3"/>
<path d="M515,344h 7" fill="none" stroke="black" stroke-width="3"/>
<path d="M515,318h 7" fill="none" stroke="black" stroke-width="3"/>
<path d="M515,292h 7" fill="none" stroke="black" stroke-width="3"/>
<path d="M508,266h 14" fill="none" stroke="black" stroke-width="3"/>
<path d="M515,240h 7" fill="none" stroke="black" stroke-width="3"/>
<path d="M515,214h 7" fill="none" stroke="black" stroke-width="3"/>
<path d="M515,188h 7" fill="none" stroke="black" stroke-width="3"/>
<path d="M515,162h 7" fill="none" stroke="black" stroke-width="3"/>
<path d="M508,136h 14" fill="none" stroke="black" stroke-width="3"/>
<path d="M508,136h 14" fill="none" stroke="black" stroke-width="3"/>
<path d="M515,110h 7" fill="none" stroke="black" stroke-width="3"/>
<path d="M515,84h 7" fill="none" stroke="black" stroke-width="3"/>
<path d="M515,58h 7" fill="none" stroke="black" stroke-width="3"/>
<rect x="113" y="-4" width="115" height="38" fill="white"/>
<text x="118" y="20" fill="black" font-size="30" font-family="Helvetica" font-weight="bold">
v_gene
</text>
<path d="M88,360v -26" fill="none" stroke="#ff0000" stroke-width="6"/>
<path d="M88,328v -26" fill="none" stroke="#ff0000" stroke-width="6"/>
<g stroke="#ff0000" stroke-width="6" fill="#ff0000">
<circle cx="88" cy="331" r="3.5"/>
</g>
<path d="M105,360v -26" fill="none" stroke="#ff0000" stroke-width="6"/>
<path d="M105,328v -26" fill="none" stroke="#ff0000" stroke-width="6"/>
<g stroke="#ff0000" stroke-width="6" fill="#ff0000">
<circle cx="105" cy="331" r="3.5"/>
</g>
<path d="M122,396v -10" fill="none" stroke="#ff0000" stroke-width="6"/>
<path d="M122,380v -10" fill="none" stroke="#ff0000" stroke-width="6"/>
<g stroke="#ff0000" stroke-width="6" fill="#ff0000">
<circle cx="122" cy="383" r="3.5"/>
</g>
<path d="M139,360v -26" fill="none" stroke="#ff0000" stroke-width="6"/>
<path d="M139,328v -26" fill="none" stroke="#ff0000" stroke-width="6"/>
<g stroke="#ff0000" stroke-width="6" fill="#ff0000">
<circle cx="139" cy="331" r="3.5"/>
</g>
<path d="M156,388v -15" fill="none" stroke="#ff0000" stroke-width="6"/>
<path d="M156,367v -15" fill="none" stroke="#ff0000" stroke-width="6"/>
<g stroke="#ff0000" stroke-width="6" fill="#ff0000">
<circle cx="156" cy="370" r="3.5"/>
</g>
<path d="M173,274v -44" fill="none" stroke="#ff0000" stroke-width="6"/>
<path d="M173,224v -44" fill="none" stroke="#ff0000" stroke-width="6"/>
<g stroke="#ff0000" stroke-width="6" fill="#ff0000">
<circle cx="173" cy="227" r="3.5"/>
</g>
<path d="M190,370v -23" fill="none" stroke="#ff0000" stroke-width="6"/>
<path d="M190,341v -23" fill="none" stroke="#ff0000" stroke-width="6"/>
<g stroke="#ff0000" stroke-width="6" fill="#ff0000">
<circle cx="190" cy="344" r="3.5"/>
</g>
<path d="M207,388v -15" fill="none" stroke="#ff0000" stroke-width="6"/>
<path d="M207,367v -15" fill="none" stroke="#ff0000" stroke-width="6"/>
<g stroke="#ff0000" stroke-width="6" fill="#ff0000">
<circle cx="207" cy="370" r="3.5"/>
</g>
<path d="M224,329v -34" fill="none" stroke="#ff0000" stroke-width="6"/>
<path d="M224,289v -34" fill="none" stroke="#ff0000" stroke-width="6"/>
<g stroke="#ff0000" stroke-width="6" fill="#ff0000">
<circle cx="224" cy="292" r="3.5"/>
</g>
<path d="M241,318v -36" fill="none" stroke="#ff0000" stroke-width="6"/>
<path d="M241,276v -36" fill="none" stroke="#ff0000" stroke-width="6"/>
<g stroke="#ff0000" stroke-width="6" fill="#ff0000">
<circle cx="241" cy="279" r="3.5"/>
</g>
<path d="M258,360v -26" fill="none" stroke="#ff0000" stroke-width="6"/>
<path d="M258,328v -26" fill="none" stroke="#ff0000" stroke-width="6"/>
<g stroke="#ff0000" stroke-width="6" fill="#ff0000">
<circle cx="258" cy="331" r="3.5"/>
</g>
<path d="M275,360v -26" fill="none" stroke="#ff0000" stroke-width="6"/>
<path d="M275,328v -26" fill="none" stroke="#ff0000" stroke-width="6"/>
<g stroke="#ff0000" stroke-width="6" fill="#ff0000">
<circle cx="275" cy="331" r="3.5"/>
</g>
<path d="M292,396v -10" fill="none" stroke="#ff0000" stroke-width="6"/>
<path d="M292,380v -10" fill="none" stroke="#ff0000" stroke-width="6"/>
<g stroke="#ff0000" stroke-width="6" fill="#ff0000">
<circle cx="292" cy="383" r="3.5"/>
</g>
<path d="M309,274v -44" fill="none" stroke="#ff0000" stroke-width="6"/>
<path d="M309,224v -44" fill="none" stroke="#ff0000" stroke-width="6"/>
<g stroke="#ff0000" stroke-width="6" fill="#ff0000">
<circle cx="309" cy="227" r="3.5"/>
</g>
<path d="M326,307v -38" fill="none" stroke="#ff0000" stroke-width="6"/>
<path d="M326,263v -38" fill="none" stroke="#ff0000" stroke-width="6"/>
<g stroke="#ff0000" stroke-width="6" fill="#ff0000">
<circle cx="326" cy="266" r="3.5"/>
</g>
<path d="M343,340v -32" fill="none" stroke="#ff0000" stroke-width="6"/>
<path d="M343,302v -31" fill="none" stroke="#ff0000" stroke-width="6"/>
<g stroke="#ff0000" stroke-width="6" fill="#ff0000">
<circle cx="343" cy="305" r="3.5"/>
</g>
<path d="M360,396v -10" fill="none" stroke="#ff0000" stroke-width="6"/>
<path d="M360,380v -10" fill="none" stroke="#ff0000" stroke-width="6"/>
<g stroke="#ff0000" stroke-width="6" fill="#ff0000">
<circle cx="360" cy="383" r="3.5"/>
</g>
<path d="M377,380v -20" fill="none" stroke="#ff0000" stroke-width="6"/>
<path d="M377,354v -19" fill="none" stroke="#ff0000" stroke-width="6"/>
<g stroke="#ff0000" stroke-width="6" fill="#ff0000">
<circle cx="377" cy="357" r="3.5"/>
</g>
<path d="M394,159v -59" fill="none" stroke="#ff0000" stroke-width="6"/>
<path d="M394,94v -57" fill="none" stroke="#ff0000" stroke-width="6"/>
<g stroke="#ff0000" stroke-width="6" fill="#ff0000">
<circle cx="394" cy="97" r="3.5"/>
</g>
<path d="M411,396v -10" fill="none" stroke="#ff0000" stroke-width="6"/>
<path d="M411,380v -10" fill="none" stroke="#ff0000" stroke-width="6"/>
<g stroke="#ff0000" stroke-width="6" fill="#ff0000">
<circle cx="411" cy="383" r="3.5"/>
</g>
<path d="M428,388v -15" fill="none" stroke="#ff0000" stroke-width="6"/>
<path d="M428,367v -15" fill="none" stroke="#ff0000" stroke-width="6"/>
<g stroke="#ff0000" stroke-width="6" fill="#ff0000">
<circle cx="428" cy="370" r="3.5"/>
</g>
<path d="M445,396v -10" fill="none" stroke="#ff0000" stroke-width="6"/>
<path d="M445,380v -10" fill="none" stroke="#ff0000" stroke-width="6"/>
<g stroke="#ff0000" stroke-width="6" fill="#ff0000">
<circle cx="445" cy="383" r="3.5"/>
</g>
<path d="M462,388v -15" fill="none" stroke="#ff0000" stroke-width="6"/>
<path d="M462,367v -15" fill="none" stroke="#ff0000" stroke-width="6"/>
<g stroke="#ff0000" stroke-width="6" fill="#ff0000">
<circle cx="462" cy="370" r="3.5"/>
</g>
<path d="M479,396v -10" fill="none" stroke="#ff0000" stroke-width="6"/>
<path d="M479,380v -10" fill="none" stroke="#ff0000" stroke-width="6"/>
<g stroke="#ff0000" stroke-width="6" fill="#ff0000">
<circle cx="479" cy="383" r="3.5"/>
</g>
<path d="M496,396v -10" fill="none" stroke="#ff0000" stroke-width="6"/>
<path d="M496,380v -10" fill="none" stroke="#ff0000" stroke-width="6"/>
<g stroke="#ff0000" stroke-width="6" fill="#ff0000">
<circle cx="496" cy="383" r="3.5"/>
</g>
<path d="M513,380v -20" fill="none" stroke="#ff0000" stroke-width="6"/>
<path d="M513,354v -19" fill="none" stroke="#ff0000" stroke-width="6"/>
<g stroke="#ff0000" stroke-width="6" fill="#ff0000">
<circle cx="513" cy="357" r="3.5"/>
</g>
<path d="M80,395v -64h 33v 52h 17v -52h 17v 39h 17v -143h 17v 117h 17v 26h 17v -78h 17v -13h 17v 52h 34v 52h 17v -156h 17v 39h 17v 39h 17v 78h 18v -26h 17v -260h 17v 286h 17v -13h 17v 13h 17v -13h 17v 13h 34v -26h 17" fill="none" stroke="#ff0000"
 stroke-width="6"/>
<path d="M332,107h 42" fill="none" stroke="#ff0000" stroke-width="6"/>
<rect x="113" y="-4" width="115" height="38" fill="white"/>
<text x="118" y="20" fill="black" font-size="30" font-family="Helvetica" font-weight="bold">
v_gene
</text></svg>
