<?xml version="1.0" standalone="no"?>
<svg width="567" height="466" viewBox="0 0 567 466" xmlns="http://www.w3.org/2000/svg">
<title>
/bbx/output/_plots/example/sw/plots/vd_insertion_content.svg
</title>
<desc>
Creator: ROOT Version 5.34/14
CreationDate: Thu Jul 30 18:24:52 2015</desc>
<defs>
</defs>
<rect x="0" y="0" width="567" height="466" fill="white"/>
<rect x="79" y="37" width="443" height="359" fill="none" stroke="black"/>
<rect x="79" y="37" width="443" height="359" fill="none" stroke="black"/>
<path d="M79,396h 443" fill="none" stroke="black" stroke-width="3"/>
<text x="129" y="411" fill="black" font-size="14" font-family="Times" font-weight="bold">
A
</text>
<text x="239" y="411" fill="black" font-size="14" font-family="Times" font-weight="bold">
C
</text>
<text x="349" y="411" fill="black" font-size="14" font-family="Times" font-weight="bold">
G
</text>
<text x="461" y="411" fill="black" font-size="14" font-family="Times" font-weight="bold">
T
</text>
<path d="M135,385v 11" fill="none" stroke="black" stroke-width="3"/>
<path d="M245,385v 11" fill="none" stroke="black" stroke-width="3"/>
<path d="M356,385v 11" fill="none" stroke="black" stroke-width="3"/>
<path d="M466,385v 11" fill="none" stroke="black" stroke-width="3"/>
<path d="M135,385v 11" fill="none" stroke="black" stroke-width="3"/>
<path d="M466,385v 11" fill="none" stroke="black" stroke-width="3"/>
<path d="M79,37h 443" fill="none" stroke="black" stroke-width="3"/>
<path d="M135,48v -11" fill="none" stroke="black" stroke-width="3"/>
<path d="M245,48v -11" fill="none" stroke="black" stroke-width="3"/>
<path d="M356,48v -11" fill="none" stroke="black" stroke-width="3"/>
<path d="M466,48v -11" fill="none" stroke="black" stroke-width="3"/>
<path d="M135,48v -11" fill="none" stroke="black" stroke-width="3"/>
<path d="M466,48v -11" fill="none" stroke="black" stroke-width="3"/>
<path d="M79,396v -359" fill="none" stroke="black" stroke-width="3"/>
<path d="M92,396h -13" fill="none" stroke="black" stroke-width="3"/>
<path d="M86,369h -7" fill="none" stroke="black" stroke-width="3"/>
<path d="M86,341h -7" fill="none" stroke="black" stroke-width="3"/>
<path d="M86,314h -7" fill="none" stroke="black" stroke-width="3"/>
<path d="M86,286h -7" fill="none" stroke="black" stroke-width="3"/>
<path d="M92,259h -13" fill="none" stroke="black" stroke-width="3"/>
<path d="M86,232h -7" fill="none" stroke="black" stroke-width="3"/>
<path d="M86,204h -7" fill="none" stroke="black" stroke-width="3"/>
<path d="M86,177h -7" fill="none" stroke="black" stroke-width="3"/>
<path d="M86,149h -7" fill="none" stroke="black" stroke-width="3"/>
<path d="M92,122h -13" fill="none" stroke="black" stroke-width="3"/>
<path d="M92,122h -13" fill="none" stroke="black" stroke-width="3"/>
<path d="M86,94h -7" fill="none" stroke="black" stroke-width="3"/>
<path d="M86,67h -7" fill="none" stroke="black" stroke-width="3"/>
<path d="M86,40h -7" fill="none" stroke="black" stroke-width="3"/>
<text x="63" y="404" fill="black" font-size="21" font-family="Times" font-weight="bold">
0
</text>
<text x="41" y="266" fill="black" font-size="21" font-family="Times" font-weight="bold">
100
</text>
<text x="41" y="130" fill="black" font-size="21" font-family="Times" font-weight="bold">
200
</text>
<path d="M522,396v -359" fill="none" stroke="black" stroke-width="3"/>
<path d="M508,396h 14" fill="none" stroke="black" stroke-width="3"/>
<path d="M515,369h 7" fill="none" stroke="black" stroke-width="3"/>
<path d="M515,341h 7" fill="none" stroke="black" stroke-width="3"/>
<path d="M515,314h 7" fill="none" stroke="black" stroke-width="3"/>
<path d="M515,286h 7" fill="none" stroke="black" stroke-width="3"/>
<path d="M508,259h 14" fill="none" stroke="black" stroke-width="3"/>
<path d="M515,232h 7" fill="none" stroke="black" stroke-width="3"/>
<path d="M515,204h 7" fill="none" stroke="black" stroke-width="3"/>
<path d="M515,177h 7" fill="none" stroke="black" stroke-width="3"/>
<path d="M515,149h 7" fill="none" stroke="black" stroke-width="3"/>
<path d="M508,122h 14" fill="none" stroke="black" stroke-width="3"/>
<path d="M508,122h 14" fill="none" stroke="black" stroke-width="3"/>
<path d="M515,94h 7" fill="none" stroke="black" stroke-width="3"/>
<path d="M515,67h 7" fill="none" stroke="black" stroke-width="3"/>
<path d="M515,40h 7" fill="none" stroke="black" stroke-width="3"/>
<rect x="113" y="-4" width="330" height="38" fill="white"/>
<text x="124" y="23" fill="black" font-size="30" font-family="Helvetica" font-weight="bold">
vd_insertion_content
</text>
<path d="M135,331v -7" fill="none" stroke="#ff0000" stroke-width="6"/>
<path d="M135,317v -6" fill="none" stroke="#ff0000" stroke-width="6"/>
<g stroke="#ff0000" stroke-width="6" fill="#ff0000">
<circle cx="135" cy="321" r="3.5"/>
</g>
<path d="M245,127v -17" fill="none" stroke="#ff0000" stroke-width="6"/>
<path d="M245,103v -16" fill="none" stroke="#ff0000" stroke-width="6"/>
<g stroke="#ff0000" stroke-width="6" fill="#ff0000">
<circle cx="245" cy="107" r="3.5"/>
</g>
<path d="M356,117v -17" fill="none" stroke="#ff0000" stroke-width="6"/>
<path d="M356,94v -17" fill="none" stroke="#ff0000" stroke-width="6"/>
<g stroke="#ff0000" stroke-width="6" fill="#ff0000">
<circle cx="356" cy="97" r="3.5"/>
</g>
<path d="M466,296v -9" fill="none" stroke="#ff0000" stroke-width="6"/>
<path d="M466,280v -9" fill="none" stroke="#ff0000" stroke-width="6"/>
<g stroke="#ff0000" stroke-width="6" fill="#ff0000">
<circle cx="466" cy="284" r="3.5"/>
</g>
<path d="M80,395v -74h 110v -214h 110v -10h 111v 187h 111" fill="none" stroke="#ff0000" stroke-width="6"/>
<path d="M332,107h 42" fill="none" stroke="#ff0000" stroke-width="6"/>
<rect x="113" y="-4" width="330" height="38" fill="white"/>
<text x="124" y="23" fill="black" font-size="30" font-family="Helvetica" font-weight="bold">
vd_insertion_content
</text></svg>
