<?xml version="1.0" standalone="no"?>
<svg width="567" height="466" viewBox="0 0 567 466" xmlns="http://www.w3.org/2000/svg">
<title>
/bbx/output/_plots/example/sw/mute-freqs/j/plots/IGHJ6_star_02.svg
</title>
<desc>
Creator: ROOT Version 5.34/14
CreationDate: Thu Jul 30 18:24:53 2015</desc>
<defs>
</defs>
<rect x="0" y="0" width="567" height="466" fill="white"/>
<rect x="79" y="37" width="443" height="359" fill="none" stroke="black"/>
<rect x="79" y="37" width="443" height="359" fill="none" stroke="black"/>
<path d="M79,396h 443" fill="none" stroke="black" stroke-width="3"/>
<path d="M184,385v 11" fill="none" stroke="black" stroke-width="3"/>
<path d="M207,391v 5" fill="none" stroke="black" stroke-width="3"/>
<path d="M229,391v 5" fill="none" stroke="black" stroke-width="3"/>
<path d="M251,391v 5" fill="none" stroke="black" stroke-width="3"/>
<path d="M273,391v 5" fill="none" stroke="black" stroke-width="3"/>
<path d="M295,385v 11" fill="none" stroke="black" stroke-width="3"/>
<path d="M317,391v 5" fill="none" stroke="black" stroke-width="3"/>
<path d="M339,391v 5" fill="none" stroke="black" stroke-width="3"/>
<path d="M361,391v 5" fill="none" stroke="black" stroke-width="3"/>
<path d="M383,391v 5" fill="none" stroke="black" stroke-width="3"/>
<path d="M405,385v 11" fill="none" stroke="black" stroke-width="3"/>
<path d="M428,391v 5" fill="none" stroke="black" stroke-width="3"/>
<path d="M450,391v 5" fill="none" stroke="black" stroke-width="3"/>
<path d="M472,391v 5" fill="none" stroke="black" stroke-width="3"/>
<path d="M494,391v 5" fill="none" stroke="black" stroke-width="3"/>
<path d="M516,385v 11" fill="none" stroke="black" stroke-width="3"/>
<path d="M184,385v 11" fill="none" stroke="black" stroke-width="3"/>
<path d="M162,391v 5" fill="none" stroke="black" stroke-width="3"/>
<path d="M140,391v 5" fill="none" stroke="black" stroke-width="3"/>
<path d="M118,391v 5" fill="none" stroke="black" stroke-width="3"/>
<path d="M96,391v 5" fill="none" stroke="black" stroke-width="3"/>
<path d="M516,385v 11" fill="none" stroke="black" stroke-width="3"/>
<text x="173" y="416" fill="black" font-size="21" font-family="Times" font-weight="bold">
10
</text>
<text x="283" y="416" fill="black" font-size="21" font-family="Times" font-weight="bold">
20
</text>
<text x="393" y="416" fill="black" font-size="21" font-family="Times" font-weight="bold">
30
</text>
<text x="504" y="416" fill="black" font-size="21" font-family="Times" font-weight="bold">
40
</text>
<path d="M79,37h 443" fill="none" stroke="black" stroke-width="3"/>
<path d="M184,48v -11" fill="none" stroke="black" stroke-width="3"/>
<path d="M207,43v -6" fill="none" stroke="black" stroke-width="3"/>
<path d="M229,43v -6" fill="none" stroke="black" stroke-width="3"/>
<path d="M251,43v -6" fill="none" stroke="black" stroke-width="3"/>
<path d="M273,43v -6" fill="none" stroke="black" stroke-width="3"/>
<path d="M295,48v -11" fill="none" stroke="black" stroke-width="3"/>
<path d="M317,43v -6" fill="none" stroke="black" stroke-width="3"/>
<path d="M339,43v -6" fill="none" stroke="black" stroke-width="3"/>
<path d="M361,43v -6" fill="none" stroke="black" stroke-width="3"/>
<path d="M383,43v -6" fill="none" stroke="black" stroke-width="3"/>
<path d="M405,48v -11" fill="none" stroke="black" stroke-width="3"/>
<path d="M428,43v -6" fill="none" stroke="black" stroke-width="3"/>
<path d="M450,43v -6" fill="none" stroke="black" stroke-width="3"/>
<path d="M472,43v -6" fill="none" stroke="black" stroke-width="3"/>
<path d="M494,43v -6" fill="none" stroke="black" stroke-width="3"/>
<path d="M516,48v -11" fill="none" stroke="black" stroke-width="3"/>
<path d="M184,48v -11" fill="none" stroke="black" stroke-width="3"/>
<path d="M162,43v -6" fill="none" stroke="black" stroke-width="3"/>
<path d="M140,43v -6" fill="none" stroke="black" stroke-width="3"/>
<path d="M118,43v -6" fill="none" stroke="black" stroke-width="3"/>
<path d="M96,43v -6" fill="none" stroke="black" stroke-width="3"/>
<path d="M516,48v -11" fill="none" stroke="black" stroke-width="3"/>
<path d="M79,396v -359" fill="none" stroke="black" stroke-width="3"/>
<path d="M92,396h -13" fill="none" stroke="black" stroke-width="3"/>
<path d="M86,377h -7" fill="none" stroke="black" stroke-width="3"/>
<path d="M86,358h -7" fill="none" stroke="black" stroke-width="3"/>
<path d="M86,339h -7" fill="none" stroke="black" stroke-width="3"/>
<path d="M92,320h -13" fill="none" stroke="black" stroke-width="3"/>
<path d="M86,301h -7" fill="none" stroke="black" stroke-width="3"/>
<path d="M86,282h -7" fill="none" stroke="black" stroke-width="3"/>
<path d="M86,263h -7" fill="none" stroke="black" stroke-width="3"/>
<path d="M92,244h -13" fill="none" stroke="black" stroke-width="3"/>
<path d="M86,225h -7" fill="none" stroke="black" stroke-width="3"/>
<path d="M86,206h -7" fill="none" stroke="black" stroke-width="3"/>
<path d="M86,187h -7" fill="none" stroke="black" stroke-width="3"/>
<path d="M92,168h -13" fill="none" stroke="black" stroke-width="3"/>
<path d="M86,149h -7" fill="none" stroke="black" stroke-width="3"/>
<path d="M86,130h -7" fill="none" stroke="black" stroke-width="3"/>
<path d="M86,111h -7" fill="none" stroke="black" stroke-width="3"/>
<path d="M92,92h -13" fill="none" stroke="black" stroke-width="3"/>
<path d="M92,92h -13" fill="none" stroke="black" stroke-width="3"/>
<path d="M86,73h -7" fill="none" stroke="black" stroke-width="3"/>
<path d="M86,54h -7" fill="none" stroke="black" stroke-width="3"/>
<text x="46" y="404" fill="black" font-size="21" font-family="Times" font-weight="bold">
0.0
</text>
<text x="46" y="328" fill="black" font-size="21" font-family="Times" font-weight="bold">
0.2
</text>
<text x="46" y="252" fill="black" font-size="21" font-family="Times" font-weight="bold">
0.4
</text>
<text x="46" y="175" fill="black" font-size="21" font-family="Times" font-weight="bold">
0.6
</text>
<text x="46" y="99" fill="black" font-size="21" font-family="Times" font-weight="bold">
0.8
</text>
<path d="M522,396v -359" fill="none" stroke="black" stroke-width="3"/>
<path d="M508,396h 14" fill="none" stroke="black" stroke-width="3"/>
<path d="M515,377h 7" fill="none" stroke="black" stroke-width="3"/>
<path d="M515,358h 7" fill="none" stroke="black" stroke-width="3"/>
<path d="M515,339h 7" fill="none" stroke="black" stroke-width="3"/>
<path d="M508,320h 14" fill="none" stroke="black" stroke-width="3"/>
<path d="M515,301h 7" fill="none" stroke="black" stroke-width="3"/>
<path d="M515,282h 7" fill="none" stroke="black" stroke-width="3"/>
<path d="M515,263h 7" fill="none" stroke="black" stroke-width="3"/>
<path d="M508,244h 14" fill="none" stroke="black" stroke-width="3"/>
<path d="M515,225h 7" fill="none" stroke="black" stroke-width="3"/>
<path d="M515,206h 7" fill="none" stroke="black" stroke-width="3"/>
<path d="M515,187h 7" fill="none" stroke="black" stroke-width="3"/>
<path d="M508,168h 14" fill="none" stroke="black" stroke-width="3"/>
<path d="M515,149h 7" fill="none" stroke="black" stroke-width="3"/>
<path d="M515,130h 7" fill="none" stroke="black" stroke-width="3"/>
<path d="M515,111h 7" fill="none" stroke="black" stroke-width="3"/>
<path d="M508,92h 14" fill="none" stroke="black" stroke-width="3"/>
<path d="M508,92h 14" fill="none" stroke="black" stroke-width="3"/>
<path d="M515,73h 7" fill="none" stroke="black" stroke-width="3"/>
<path d="M515,54h 7" fill="none" stroke="black" stroke-width="3"/>
<rect x="113" y="-4" width="248" height="38" fill="white"/>
<text x="131" y="24" fill="black" font-size="30" font-family="Helvetica" font-weight="bold">
IGHJ6_star_02
</text>
<path d="M85,393v -43" fill="none" stroke="#ff0000" stroke-width="6"/>
<g stroke="#ff0000" stroke-width="6" fill="#ff0000">
<circle cx="85" cy="396" r="3.5"/>
</g>
<path d="M96,393v -43" fill="none" stroke="#ff0000" stroke-width="6"/>
<g stroke="#ff0000" stroke-width="6" fill="#ff0000">
<circle cx="96" cy="396" r="3.5"/>
</g>
<path d="M107,393v -43" fill="none" stroke="#ff0000" stroke-width="6"/>
<g stroke="#ff0000" stroke-width="6" fill="#ff0000">
<circle cx="107" cy="396" r="3.5"/>
</g>
<path d="M118,393v -43" fill="none" stroke="#ff0000" stroke-width="6"/>
<g stroke="#ff0000" stroke-width="6" fill="#ff0000">
<circle cx="118" cy="396" r="3.5"/>
</g>
<path d="M129,393v -29" fill="none" stroke="#ff0000" stroke-width="6"/>
<g stroke="#ff0000" stroke-width="6" fill="#ff0000">
<circle cx="129" cy="396" r="3.5"/>
</g>
<path d="M140,236v -65" fill="none" stroke="#ff0000" stroke-width="6"/>
<path d="M140,165v -66" fill="none" stroke="#ff0000" stroke-width="6"/>
<path d="M135,168h 2" fill="none" stroke="#ff0000" stroke-width="6"/>
<path d="M143,168h 3" fill="none" stroke="#ff0000" stroke-width="6"/>
<g stroke="#ff0000" stroke-width="6" fill="#ff0000">
<circle cx="140" cy="168" r="3.5"/>
</g>
<path d="M151,391v -46" fill="none" stroke="#ff0000" stroke-width="6"/>
<path d="M151,338v -45" fill="none" stroke="#ff0000" stroke-width="6"/>
<path d="M146,342h 2" fill="none" stroke="#ff0000" stroke-width="6"/>
<path d="M154,342h 3" fill="none" stroke="#ff0000" stroke-width="6"/>
<g stroke="#ff0000" stroke-width="6" fill="#ff0000">
<circle cx="151" cy="342" r="3.5"/>
</g>
<path d="M162,294v -58" fill="none" stroke="#ff0000" stroke-width="6"/>
<path d="M162,230v -58" fill="none" stroke="#ff0000" stroke-width="6"/>
<path d="M157,233h 2" fill="none" stroke="#ff0000" stroke-width="6"/>
<path d="M166,233h 2" fill="none" stroke="#ff0000" stroke-width="6"/>
<g stroke="#ff0000" stroke-width="6" fill="#ff0000">
<circle cx="162" cy="233" r="3.5"/>
</g>
<path d="M173,391v -46" fill="none" stroke="#ff0000" stroke-width="6"/>
<path d="M173,338v -45" fill="none" stroke="#ff0000" stroke-width="6"/>
<path d="M168,342h 2" fill="none" stroke="#ff0000" stroke-width="6"/>
<path d="M177,342h 2" fill="none" stroke="#ff0000" stroke-width="6"/>
<g stroke="#ff0000" stroke-width="6" fill="#ff0000">
<circle cx="173" cy="342" r="3.5"/>
</g>
<path d="M184,391v -46" fill="none" stroke="#ff0000" stroke-width="6"/>
<path d="M184,338v -45" fill="none" stroke="#ff0000" stroke-width="6"/>
<path d="M179,342h 2" fill="none" stroke="#ff0000" stroke-width="6"/>
<path d="M188,342h 2" fill="none" stroke="#ff0000" stroke-width="6"/>
<g stroke="#ff0000" stroke-width="6" fill="#ff0000">
<circle cx="184" cy="342" r="3.5"/>
</g>
<path d="M195,294v -58" fill="none" stroke="#ff0000" stroke-width="6"/>
<path d="M195,230v -58" fill="none" stroke="#ff0000" stroke-width="6"/>
<path d="M190,233h 2" fill="none" stroke="#ff0000" stroke-width="6"/>
<path d="M199,233h 2" fill="none" stroke="#ff0000" stroke-width="6"/>
<g stroke="#ff0000" stroke-width="6" fill="#ff0000">
<circle cx="195" cy="233" r="3.5"/>
</g>
<path d="M207,345v -54" fill="none" stroke="#ff0000" stroke-width="6"/>
<path d="M207,284v -54" fill="none" stroke="#ff0000" stroke-width="6"/>
<path d="M201,287h 2" fill="none" stroke="#ff0000" stroke-width="6"/>
<path d="M210,287h 2" fill="none" stroke="#ff0000" stroke-width="6"/>
<g stroke="#ff0000" stroke-width="6" fill="#ff0000">
<circle cx="207" cy="287" r="3.5"/>
</g>
<path d="M218,393v -21" fill="none" stroke="#ff0000" stroke-width="6"/>
<g stroke="#ff0000" stroke-width="6" fill="#ff0000">
<circle cx="218" cy="396" r="3.5"/>
</g>
<path d="M229,393v -21" fill="none" stroke="#ff0000" stroke-width="6"/>
<g stroke="#ff0000" stroke-width="6" fill="#ff0000">
<circle cx="229" cy="396" r="3.5"/>
</g>
<path d="M240,391v -46" fill="none" stroke="#ff0000" stroke-width="6"/>
<path d="M240,338v -45" fill="none" stroke="#ff0000" stroke-width="6"/>
<path d="M234,342h 2" fill="none" stroke="#ff0000" stroke-width="6"/>
<path d="M243,342h 2" fill="none" stroke="#ff0000" stroke-width="6"/>
<g stroke="#ff0000" stroke-width="6" fill="#ff0000">
<circle cx="240" cy="342" r="3.5"/>
</g>
<path d="M251,393v -21" fill="none" stroke="#ff0000" stroke-width="6"/>
<g stroke="#ff0000" stroke-width="6" fill="#ff0000">
<circle cx="251" cy="396" r="3.5"/>
</g>
<path d="M262,396v -28" fill="none" stroke="#ff0000" stroke-width="6"/>
<path d="M262,361v -29" fill="none" stroke="#ff0000" stroke-width="6"/>
<path d="M256,364h 3" fill="none" stroke="#ff0000" stroke-width="6"/>
<path d="M265,364h 2" fill="none" stroke="#ff0000" stroke-width="6"/>
<g stroke="#ff0000" stroke-width="6" fill="#ff0000">
<circle cx="262" cy="364" r="3.5"/>
</g>
<path d="M273,372v -36" fill="none" stroke="#ff0000" stroke-width="6"/>
<path d="M273,329v -36" fill="none" stroke="#ff0000" stroke-width="6"/>
<path d="M267,333h 3" fill="none" stroke="#ff0000" stroke-width="6"/>
<path d="M276,333h 2" fill="none" stroke="#ff0000" stroke-width="6"/>
<g stroke="#ff0000" stroke-width="6" fill="#ff0000">
<circle cx="273" cy="333" r="3.5"/>
</g>
<path d="M284,393v -12" fill="none" stroke="#ff0000" stroke-width="6"/>
<g stroke="#ff0000" stroke-width="6" fill="#ff0000">
<circle cx="284" cy="396" r="3.5"/>
</g>
<path d="M295,396v -28" fill="none" stroke="#ff0000" stroke-width="6"/>
<path d="M295,361v -29" fill="none" stroke="#ff0000" stroke-width="6"/>
<path d="M289,364h 3" fill="none" stroke="#ff0000" stroke-width="6"/>
<path d="M298,364h 2" fill="none" stroke="#ff0000" stroke-width="6"/>
<g stroke="#ff0000" stroke-width="6" fill="#ff0000">
<circle cx="295" cy="364" r="3.5"/>
</g>
<path d="M306,393v -11" fill="none" stroke="#ff0000" stroke-width="6"/>
<g stroke="#ff0000" stroke-width="6" fill="#ff0000">
<circle cx="306" cy="396" r="3.5"/>
</g>
<path d="M317,396v -26" fill="none" stroke="#ff0000" stroke-width="6"/>
<path d="M317,364v -28" fill="none" stroke="#ff0000" stroke-width="6"/>
<path d="M312,367h 2" fill="none" stroke="#ff0000" stroke-width="6"/>
<path d="M320,367h 3" fill="none" stroke="#ff0000" stroke-width="6"/>
<g stroke="#ff0000" stroke-width="6" fill="#ff0000">
<circle cx="317" cy="367" r="3.5"/>
</g>
<path d="M328,393v -11" fill="none" stroke="#ff0000" stroke-width="6"/>
<g stroke="#ff0000" stroke-width="6" fill="#ff0000">
<circle cx="328" cy="396" r="3.5"/>
</g>
<path d="M339,354v -36" fill="none" stroke="#ff0000" stroke-width="6"/>
<path d="M339,311v -36" fill="none" stroke="#ff0000" stroke-width="6"/>
<path d="M334,315h 2" fill="none" stroke="#ff0000" stroke-width="6"/>
<path d="M342,315h 3" fill="none" stroke="#ff0000" stroke-width="6"/>
<g stroke="#ff0000" stroke-width="6" fill="#ff0000">
<circle cx="339" cy="315" r="3.5"/>
</g>
<path d="M350,393v -10" fill="none" stroke="#ff0000" stroke-width="6"/>
<g stroke="#ff0000" stroke-width="6" fill="#ff0000">
<circle cx="350" cy="396" r="3.5"/>
</g>
<path d="M361,377v -32" fill="none" stroke="#ff0000" stroke-width="6"/>
<path d="M361,338v -31" fill="none" stroke="#ff0000" stroke-width="6"/>
<path d="M356,342h 2" fill="none" stroke="#ff0000" stroke-width="6"/>
<path d="M365,342h 2" fill="none" stroke="#ff0000" stroke-width="6"/>
<g stroke="#ff0000" stroke-width="6" fill="#ff0000">
<circle cx="361" cy="342" r="3.5"/>
</g>
<path d="M372,393v -10" fill="none" stroke="#ff0000" stroke-width="6"/>
<g stroke="#ff0000" stroke-width="6" fill="#ff0000">
<circle cx="372" cy="396" r="3.5"/>
</g>
<path d="M383,396v -24" fill="none" stroke="#ff0000" stroke-width="6"/>
<path d="M383,366v -26" fill="none" stroke="#ff0000" stroke-width="6"/>
<path d="M378,369h 2" fill="none" stroke="#ff0000" stroke-width="6"/>
<path d="M387,369h 2" fill="none" stroke="#ff0000" stroke-width="6"/>
<g stroke="#ff0000" stroke-width="6" fill="#ff0000">
<circle cx="383" cy="369" r="3.5"/>
</g>
<path d="M394,393v -10" fill="none" stroke="#ff0000" stroke-width="6"/>
<g stroke="#ff0000" stroke-width="6" fill="#ff0000">
<circle cx="394" cy="396" r="3.5"/>
</g>
<path d="M405,393v -10" fill="none" stroke="#ff0000" stroke-width="6"/>
<g stroke="#ff0000" stroke-width="6" fill="#ff0000">
<circle cx="405" cy="396" r="3.5"/>
</g>
<path d="M417,393v -10" fill="none" stroke="#ff0000" stroke-width="6"/>
<g stroke="#ff0000" stroke-width="6" fill="#ff0000">
<circle cx="417" cy="396" r="3.5"/>
</g>
<path d="M428,396v -24" fill="none" stroke="#ff0000" stroke-width="6"/>
<path d="M428,366v -26" fill="none" stroke="#ff0000" stroke-width="6"/>
<path d="M422,369h 2" fill="none" stroke="#ff0000" stroke-width="6"/>
<path d="M431,369h 2" fill="none" stroke="#ff0000" stroke-width="6"/>
<g stroke="#ff0000" stroke-width="6" fill="#ff0000">
<circle cx="428" cy="369" r="3.5"/>
</g>
<path d="M439,393v -10" fill="none" stroke="#ff0000" stroke-width="6"/>
<g stroke="#ff0000" stroke-width="6" fill="#ff0000">
<circle cx="439" cy="396" r="3.5"/>
</g>
<path d="M450,396v -24" fill="none" stroke="#ff0000" stroke-width="6"/>
<path d="M450,366v -26" fill="none" stroke="#ff0000" stroke-width="6"/>
<path d="M444,369h 2" fill="none" stroke="#ff0000" stroke-width="6"/>
<path d="M453,369h 2" fill="none" stroke="#ff0000" stroke-width="6"/>
<g stroke="#ff0000" stroke-width="6" fill="#ff0000">
<circle cx="450" cy="369" r="3.5"/>
</g>
<path d="M461,393v -10" fill="none" stroke="#ff0000" stroke-width="6"/>
<g stroke="#ff0000" stroke-width="6" fill="#ff0000">
<circle cx="461" cy="396" r="3.5"/>
</g>
<path d="M472,396v -24" fill="none" stroke="#ff0000" stroke-width="6"/>
<path d="M472,366v -26" fill="none" stroke="#ff0000" stroke-width="6"/>
<path d="M466,369h 3" fill="none" stroke="#ff0000" stroke-width="6"/>
<path d="M475,369h 2" fill="none" stroke="#ff0000" stroke-width="6"/>
<g stroke="#ff0000" stroke-width="6" fill="#ff0000">
<circle cx="472" cy="369" r="3.5"/>
</g>
<path d="M483,136v -36" fill="none" stroke="#ff0000" stroke-width="6"/>
<path d="M483,94v -36" fill="none" stroke="#ff0000" stroke-width="6"/>
<path d="M477,97h 3" fill="none" stroke="#ff0000" stroke-width="6"/>
<path d="M486,97h 2" fill="none" stroke="#ff0000" stroke-width="6"/>
<g stroke="#ff0000" stroke-width="6" fill="#ff0000">
<circle cx="483" cy="97" r="3.5"/>
</g>
<path d="M494,393v -10" fill="none" stroke="#ff0000" stroke-width="6"/>
<g stroke="#ff0000" stroke-width="6" fill="#ff0000">
<circle cx="494" cy="396" r="3.5"/>
</g>
<path d="M505,393v -10" fill="none" stroke="#ff0000" stroke-width="6"/>
<g stroke="#ff0000" stroke-width="6" fill="#ff0000">
<circle cx="505" cy="396" r="3.5"/>
</g>
<path d="M516,393v -21" fill="none" stroke="#ff0000" stroke-width="6"/>
<g stroke="#ff0000" stroke-width="6" fill="#ff0000">
<circle cx="516" cy="396" r="3.5"/>
</g>
<path d="M332,107h 42" fill="none" stroke="#ff0000" stroke-width="6"/>
<path d="M394,426v -179" fill="none" stroke="black" stroke-width="3" stroke-dasharray=" 3, 3"/>
<rect x="113" y="-4" width="248" height="38" fill="white"/>
<text x="131" y="24" fill="black" font-size="30" font-family="Helvetica" font-weight="bold">
IGHJ6_star_02
</text></svg>
