<?xml version="1.0" standalone="no"?>
<svg width="567" height="466" viewBox="0 0 567 466" xmlns="http://www.w3.org/2000/svg">
<title>
/bbx/output/_plots/example/sw/mute-freqs/j/plots/IGHJ5_star_02.svg
</title>
<desc>
Creator: ROOT Version 5.34/14
CreationDate: Wed Aug 19 19:38:09 2015</desc>
<defs>
</defs>
<rect x="0" y="0" width="567" height="466" fill="white"/>
<rect x="79" y="37" width="443" height="359" fill="none" stroke="black"/>
<rect x="79" y="37" width="443" height="359" fill="none" stroke="black"/>
<path d="M79,396h 443" fill="none" stroke="black" stroke-width="3"/>
<path d="M229,385v 11" fill="none" stroke="black" stroke-width="3"/>
<path d="M261,391v 5" fill="none" stroke="black" stroke-width="3"/>
<path d="M293,391v 5" fill="none" stroke="black" stroke-width="3"/>
<path d="M324,391v 5" fill="none" stroke="black" stroke-width="3"/>
<path d="M356,391v 5" fill="none" stroke="black" stroke-width="3"/>
<path d="M387,385v 11" fill="none" stroke="black" stroke-width="3"/>
<path d="M229,385v 11" fill="none" stroke="black" stroke-width="3"/>
<path d="M198,391v 5" fill="none" stroke="black" stroke-width="3"/>
<path d="M166,391v 5" fill="none" stroke="black" stroke-width="3"/>
<path d="M135,391v 5" fill="none" stroke="black" stroke-width="3"/>
<path d="M103,391v 5" fill="none" stroke="black" stroke-width="3"/>
<path d="M387,385v 11" fill="none" stroke="black" stroke-width="3"/>
<path d="M419,391v 5" fill="none" stroke="black" stroke-width="3"/>
<path d="M451,391v 5" fill="none" stroke="black" stroke-width="3"/>
<path d="M482,391v 5" fill="none" stroke="black" stroke-width="3"/>
<path d="M514,391v 5" fill="none" stroke="black" stroke-width="3"/>
<text x="217" y="416" fill="black" font-size="21" font-family="Times" font-weight="bold">
10
</text>
<text x="376" y="416" fill="black" font-size="21" font-family="Times" font-weight="bold">
20
</text>
<path d="M79,37h 443" fill="none" stroke="black" stroke-width="3"/>
<path d="M229,48v -11" fill="none" stroke="black" stroke-width="3"/>
<path d="M261,43v -6" fill="none" stroke="black" stroke-width="3"/>
<path d="M293,43v -6" fill="none" stroke="black" stroke-width="3"/>
<path d="M324,43v -6" fill="none" stroke="black" stroke-width="3"/>
<path d="M356,43v -6" fill="none" stroke="black" stroke-width="3"/>
<path d="M387,48v -11" fill="none" stroke="black" stroke-width="3"/>
<path d="M229,48v -11" fill="none" stroke="black" stroke-width="3"/>
<path d="M198,43v -6" fill="none" stroke="black" stroke-width="3"/>
<path d="M166,43v -6" fill="none" stroke="black" stroke-width="3"/>
<path d="M135,43v -6" fill="none" stroke="black" stroke-width="3"/>
<path d="M103,43v -6" fill="none" stroke="black" stroke-width="3"/>
<path d="M387,48v -11" fill="none" stroke="black" stroke-width="3"/>
<path d="M419,43v -6" fill="none" stroke="black" stroke-width="3"/>
<path d="M451,43v -6" fill="none" stroke="black" stroke-width="3"/>
<path d="M482,43v -6" fill="none" stroke="black" stroke-width="3"/>
<path d="M514,43v -6" fill="none" stroke="black" stroke-width="3"/>
<path d="M79,396v -359" fill="none" stroke="black" stroke-width="3"/>
<path d="M92,396h -13" fill="none" stroke="black" stroke-width="3"/>
<path d="M86,366h -7" fill="none" stroke="black" stroke-width="3"/>
<path d="M86,336h -7" fill="none" stroke="black" stroke-width="3"/>
<path d="M86,306h -7" fill="none" stroke="black" stroke-width="3"/>
<path d="M92,277h -13" fill="none" stroke="black" stroke-width="3"/>
<path d="M86,247h -7" fill="none" stroke="black" stroke-width="3"/>
<path d="M86,217h -7" fill="none" stroke="black" stroke-width="3"/>
<path d="M86,187h -7" fill="none" stroke="black" stroke-width="3"/>
<path d="M92,157h -13" fill="none" stroke="black" stroke-width="3"/>
<path d="M86,127h -7" fill="none" stroke="black" stroke-width="3"/>
<path d="M86,97h -7" fill="none" stroke="black" stroke-width="3"/>
<path d="M86,67h -7" fill="none" stroke="black" stroke-width="3"/>
<path d="M92,37h -13" fill="none" stroke="black" stroke-width="3"/>
<path d="M92,37h -13" fill="none" stroke="black" stroke-width="3"/>
<text x="46" y="404" fill="black" font-size="21" font-family="Times" font-weight="bold">
0.0
</text>
<text x="46" y="284" fill="black" font-size="21" font-family="Times" font-weight="bold">
0.2
</text>
<text x="46" y="165" fill="black" font-size="21" font-family="Times" font-weight="bold">
0.4
</text>
<text x="46" y="45" fill="black" font-size="21" font-family="Times" font-weight="bold">
0.6
</text>
<path d="M522,396v -359" fill="none" stroke="black" stroke-width="3"/>
<path d="M508,396h 14" fill="none" stroke="black" stroke-width="3"/>
<path d="M515,366h 7" fill="none" stroke="black" stroke-width="3"/>
<path d="M515,336h 7" fill="none" stroke="black" stroke-width="3"/>
<path d="M515,306h 7" fill="none" stroke="black" stroke-width="3"/>
<path d="M508,277h 14" fill="none" stroke="black" stroke-width="3"/>
<path d="M515,247h 7" fill="none" stroke="black" stroke-width="3"/>
<path d="M515,217h 7" fill="none" stroke="black" stroke-width="3"/>
<path d="M515,187h 7" fill="none" stroke="black" stroke-width="3"/>
<path d="M508,157h 14" fill="none" stroke="black" stroke-width="3"/>
<path d="M515,127h 7" fill="none" stroke="black" stroke-width="3"/>
<path d="M515,97h 7" fill="none" stroke="black" stroke-width="3"/>
<path d="M515,67h 7" fill="none" stroke="black" stroke-width="3"/>
<path d="M508,37h 14" fill="none" stroke="black" stroke-width="3"/>
<path d="M508,37h 14" fill="none" stroke="black" stroke-width="3"/>
<rect x="113" y="-4" width="248" height="38" fill="white"/>
<text x="131" y="24" fill="black" font-size="30" font-family="Helvetica" font-weight="bold">
IGHJ5_star_02
</text>
<path d="M87,393v -56" fill="none" stroke="#ff0000" stroke-width="6"/>
<g stroke="#ff0000" stroke-width="6" fill="#ff0000">
<circle cx="87" cy="396" r="3.5"/>
</g>
<path d="M103,373v -93" fill="none" stroke="#ff0000" stroke-width="6"/>
<path d="M103,273v -93" fill="none" stroke="#ff0000" stroke-width="6"/>
<path d="M95,277h 5" fill="none" stroke="#ff0000" stroke-width="6"/>
<path d="M106,277h 5" fill="none" stroke="#ff0000" stroke-width="6"/>
<g stroke="#ff0000" stroke-width="6" fill="#ff0000">
<circle cx="103" cy="277" r="3.5"/>
</g>
<path d="M119,373v -93" fill="none" stroke="#ff0000" stroke-width="6"/>
<path d="M119,273v -93" fill="none" stroke="#ff0000" stroke-width="6"/>
<path d="M111,277h 5" fill="none" stroke="#ff0000" stroke-width="6"/>
<path d="M122,277h 5" fill="none" stroke="#ff0000" stroke-width="6"/>
<g stroke="#ff0000" stroke-width="6" fill="#ff0000">
<circle cx="119" cy="277" r="3.5"/>
</g>
<path d="M135,393v -47" fill="none" stroke="#ff0000" stroke-width="6"/>
<g stroke="#ff0000" stroke-width="6" fill="#ff0000">
<circle cx="135" cy="396" r="3.5"/>
</g>
<path d="M150,382v -82" fill="none" stroke="#ff0000" stroke-width="6"/>
<path d="M150,293v -82" fill="none" stroke="#ff0000" stroke-width="6"/>
<path d="M143,296h 4" fill="none" stroke="#ff0000" stroke-width="6"/>
<path d="M154,296h 4" fill="none" stroke="#ff0000" stroke-width="6"/>
<g stroke="#ff0000" stroke-width="6" fill="#ff0000">
<circle cx="150" cy="296" r="3.5"/>
</g>
<path d="M166,394v -61" fill="none" stroke="#ff0000" stroke-width="6"/>
<path d="M166,326v -61" fill="none" stroke="#ff0000" stroke-width="6"/>
<path d="M158,330h 5" fill="none" stroke="#ff0000" stroke-width="6"/>
<path d="M169,330h 5" fill="none" stroke="#ff0000" stroke-width="6"/>
<g stroke="#ff0000" stroke-width="6" fill="#ff0000">
<circle cx="166" cy="330" r="3.5"/>
</g>
<path d="M182,316v -66" fill="none" stroke="#ff0000" stroke-width="6"/>
<path d="M182,243v -65" fill="none" stroke="#ff0000" stroke-width="6"/>
<path d="M174,247h 5" fill="none" stroke="#ff0000" stroke-width="6"/>
<path d="M185,247h 5" fill="none" stroke="#ff0000" stroke-width="6"/>
<g stroke="#ff0000" stroke-width="6" fill="#ff0000">
<circle cx="182" cy="247" r="3.5"/>
</g>
<path d="M198,323v -62" fill="none" stroke="#ff0000" stroke-width="6"/>
<path d="M198,255v -62" fill="none" stroke="#ff0000" stroke-width="6"/>
<path d="M190,258h 5" fill="none" stroke="#ff0000" stroke-width="6"/>
<path d="M201,258h 5" fill="none" stroke="#ff0000" stroke-width="6"/>
<g stroke="#ff0000" stroke-width="6" fill="#ff0000">
<circle cx="198" cy="258" r="3.5"/>
</g>
<path d="M214,393v -18" fill="none" stroke="#ff0000" stroke-width="6"/>
<g stroke="#ff0000" stroke-width="6" fill="#ff0000">
<circle cx="214" cy="396" r="3.5"/>
</g>
<path d="M229,169v -69" fill="none" stroke="#ff0000" stroke-width="6"/>
<path d="M229,94v -57" fill="none" stroke="#ff0000" stroke-width="6"/>
<path d="M222,97h 4" fill="none" stroke="#ff0000" stroke-width="6"/>
<path d="M233,97h 4" fill="none" stroke="#ff0000" stroke-width="6"/>
<g stroke="#ff0000" stroke-width="6" fill="#ff0000">
<circle cx="229" cy="97" r="3.5"/>
</g>
<path d="M245,393v -17" fill="none" stroke="#ff0000" stroke-width="6"/>
<g stroke="#ff0000" stroke-width="6" fill="#ff0000">
<circle cx="245" cy="396" r="3.5"/>
</g>
<path d="M261,368v -48" fill="none" stroke="#ff0000" stroke-width="6"/>
<path d="M261,313v -49" fill="none" stroke="#ff0000" stroke-width="6"/>
<path d="M253,316h 5" fill="none" stroke="#ff0000" stroke-width="6"/>
<path d="M264,316h 5" fill="none" stroke="#ff0000" stroke-width="6"/>
<g stroke="#ff0000" stroke-width="6" fill="#ff0000">
<circle cx="261" cy="316" r="3.5"/>
</g>
<path d="M277,396v -36" fill="none" stroke="#ff0000" stroke-width="6"/>
<path d="M277,353v -39" fill="none" stroke="#ff0000" stroke-width="6"/>
<path d="M269,356h 5" fill="none" stroke="#ff0000" stroke-width="6"/>
<path d="M280,356h 5" fill="none" stroke="#ff0000" stroke-width="6"/>
<g stroke="#ff0000" stroke-width="6" fill="#ff0000">
<circle cx="277" cy="356" r="3.5"/>
</g>
<path d="M293,368v -48" fill="none" stroke="#ff0000" stroke-width="6"/>
<path d="M293,313v -49" fill="none" stroke="#ff0000" stroke-width="6"/>
<path d="M285,316h 4" fill="none" stroke="#ff0000" stroke-width="6"/>
<path d="M296,316h 4" fill="none" stroke="#ff0000" stroke-width="6"/>
<g stroke="#ff0000" stroke-width="6" fill="#ff0000">
<circle cx="293" cy="316" r="3.5"/>
</g>
<path d="M308,226v -66" fill="none" stroke="#ff0000" stroke-width="6"/>
<path d="M308,154v -66" fill="none" stroke="#ff0000" stroke-width="6"/>
<path d="M300,157h 5" fill="none" stroke="#ff0000" stroke-width="6"/>
<path d="M312,157h 4" fill="none" stroke="#ff0000" stroke-width="6"/>
<g stroke="#ff0000" stroke-width="6" fill="#ff0000">
<circle cx="308" cy="157" r="3.5"/>
</g>
<path d="M324,300v -60" fill="none" stroke="#ff0000" stroke-width="6"/>
<path d="M324,233v -60" fill="none" stroke="#ff0000" stroke-width="6"/>
<path d="M316,237h 5" fill="none" stroke="#ff0000" stroke-width="6"/>
<path d="M327,237h 5" fill="none" stroke="#ff0000" stroke-width="6"/>
<g stroke="#ff0000" stroke-width="6" fill="#ff0000">
<circle cx="324" cy="237" r="3.5"/>
</g>
<path d="M340,393v -17" fill="none" stroke="#ff0000" stroke-width="6"/>
<g stroke="#ff0000" stroke-width="6" fill="#ff0000">
<circle cx="340" cy="396" r="3.5"/>
</g>
<path d="M356,393v -17" fill="none" stroke="#ff0000" stroke-width="6"/>
<g stroke="#ff0000" stroke-width="6" fill="#ff0000">
<circle cx="356" cy="396" r="3.5"/>
</g>
<path d="M372,393v -17" fill="none" stroke="#ff0000" stroke-width="6"/>
<g stroke="#ff0000" stroke-width="6" fill="#ff0000">
<circle cx="372" cy="396" r="3.5"/>
</g>
<path d="M387,393v -17" fill="none" stroke="#ff0000" stroke-width="6"/>
<g stroke="#ff0000" stroke-width="6" fill="#ff0000">
<circle cx="387" cy="396" r="3.5"/>
</g>
<path d="M403,393v -17" fill="none" stroke="#ff0000" stroke-width="6"/>
<g stroke="#ff0000" stroke-width="6" fill="#ff0000">
<circle cx="403" cy="396" r="3.5"/>
</g>
<path d="M419,396v -36" fill="none" stroke="#ff0000" stroke-width="6"/>
<path d="M419,353v -39" fill="none" stroke="#ff0000" stroke-width="6"/>
<path d="M411,356h 5" fill="none" stroke="#ff0000" stroke-width="6"/>
<path d="M422,356h 5" fill="none" stroke="#ff0000" stroke-width="6"/>
<g stroke="#ff0000" stroke-width="6" fill="#ff0000">
<circle cx="419" cy="356" r="3.5"/>
</g>
<path d="M435,393v -17" fill="none" stroke="#ff0000" stroke-width="6"/>
<g stroke="#ff0000" stroke-width="6" fill="#ff0000">
<circle cx="435" cy="396" r="3.5"/>
</g>
<path d="M451,393v -17" fill="none" stroke="#ff0000" stroke-width="6"/>
<g stroke="#ff0000" stroke-width="6" fill="#ff0000">
<circle cx="451" cy="396" r="3.5"/>
</g>
<path d="M466,393v -17" fill="none" stroke="#ff0000" stroke-width="6"/>
<g stroke="#ff0000" stroke-width="6" fill="#ff0000">
<circle cx="466" cy="396" r="3.5"/>
</g>
<path d="M482,393v -17" fill="none" stroke="#ff0000" stroke-width="6"/>
<g stroke="#ff0000" stroke-width="6" fill="#ff0000">
<circle cx="482" cy="396" r="3.5"/>
</g>
<path d="M498,393v -17" fill="none" stroke="#ff0000" stroke-width="6"/>
<g stroke="#ff0000" stroke-width="6" fill="#ff0000">
<circle cx="498" cy="396" r="3.5"/>
</g>
<path d="M514,393v -17" fill="none" stroke="#ff0000" stroke-width="6"/>
<g stroke="#ff0000" stroke-width="6" fill="#ff0000">
<circle cx="514" cy="396" r="3.5"/>
</g>
<path d="M332,107h 42" fill="none" stroke="#ff0000" stroke-width="6"/>
<path d="M340,426v -179" fill="none" stroke="black" stroke-width="3" stroke-dasharray=" 3, 3"/>
<rect x="113" y="-4" width="248" height="38" fill="white"/>
<text x="131" y="24" fill="black" font-size="30" font-family="Helvetica" font-weight="bold">
IGHJ5_star_02
</text></svg>
