<?xml version="1.0" standalone="no"?>
<svg width="567" height="466" viewBox="0 0 567 466" xmlns="http://www.w3.org/2000/svg">
<title>
/bbx/output/_plots/example/sw/mute-freqs/j/plots/IGHJ4_star_02.svg
</title>
<desc>
Creator: ROOT Version 5.34/14
CreationDate: Thu Jul 30 18:24:55 2015</desc>
<defs>
</defs>
<rect x="0" y="0" width="567" height="466" fill="white"/>
<rect x="79" y="37" width="443" height="359" fill="none" stroke="black"/>
<rect x="79" y="37" width="443" height="359" fill="none" stroke="black"/>
<path d="M79,396h 443" fill="none" stroke="black" stroke-width="3"/>
<path d="M88,385v 11" fill="none" stroke="black" stroke-width="3"/>
<path d="M122,391v 5" fill="none" stroke="black" stroke-width="3"/>
<path d="M156,391v 5" fill="none" stroke="black" stroke-width="3"/>
<path d="M190,391v 5" fill="none" stroke="black" stroke-width="3"/>
<path d="M224,391v 5" fill="none" stroke="black" stroke-width="3"/>
<path d="M258,385v 11" fill="none" stroke="black" stroke-width="3"/>
<path d="M292,391v 5" fill="none" stroke="black" stroke-width="3"/>
<path d="M326,391v 5" fill="none" stroke="black" stroke-width="3"/>
<path d="M360,391v 5" fill="none" stroke="black" stroke-width="3"/>
<path d="M394,391v 5" fill="none" stroke="black" stroke-width="3"/>
<path d="M428,385v 11" fill="none" stroke="black" stroke-width="3"/>
<path d="M88,385v 11" fill="none" stroke="black" stroke-width="3"/>
<path d="M428,385v 11" fill="none" stroke="black" stroke-width="3"/>
<path d="M462,391v 5" fill="none" stroke="black" stroke-width="3"/>
<path d="M496,391v 5" fill="none" stroke="black" stroke-width="3"/>
<text x="81" y="416" fill="black" font-size="21" font-family="Times" font-weight="bold">
0
</text>
<text x="246" y="416" fill="black" font-size="21" font-family="Times" font-weight="bold">
10
</text>
<text x="416" y="416" fill="black" font-size="21" font-family="Times" font-weight="bold">
20
</text>
<path d="M79,37h 443" fill="none" stroke="black" stroke-width="3"/>
<path d="M88,48v -11" fill="none" stroke="black" stroke-width="3"/>
<path d="M122,43v -6" fill="none" stroke="black" stroke-width="3"/>
<path d="M156,43v -6" fill="none" stroke="black" stroke-width="3"/>
<path d="M190,43v -6" fill="none" stroke="black" stroke-width="3"/>
<path d="M224,43v -6" fill="none" stroke="black" stroke-width="3"/>
<path d="M258,48v -11" fill="none" stroke="black" stroke-width="3"/>
<path d="M292,43v -6" fill="none" stroke="black" stroke-width="3"/>
<path d="M326,43v -6" fill="none" stroke="black" stroke-width="3"/>
<path d="M360,43v -6" fill="none" stroke="black" stroke-width="3"/>
<path d="M394,43v -6" fill="none" stroke="black" stroke-width="3"/>
<path d="M428,48v -11" fill="none" stroke="black" stroke-width="3"/>
<path d="M88,48v -11" fill="none" stroke="black" stroke-width="3"/>
<path d="M428,48v -11" fill="none" stroke="black" stroke-width="3"/>
<path d="M462,43v -6" fill="none" stroke="black" stroke-width="3"/>
<path d="M496,43v -6" fill="none" stroke="black" stroke-width="3"/>
<path d="M79,396v -359" fill="none" stroke="black" stroke-width="3"/>
<path d="M92,396h -13" fill="none" stroke="black" stroke-width="3"/>
<path d="M86,378h -7" fill="none" stroke="black" stroke-width="3"/>
<path d="M86,360h -7" fill="none" stroke="black" stroke-width="3"/>
<path d="M86,342h -7" fill="none" stroke="black" stroke-width="3"/>
<path d="M86,323h -7" fill="none" stroke="black" stroke-width="3"/>
<path d="M92,305h -13" fill="none" stroke="black" stroke-width="3"/>
<path d="M86,287h -7" fill="none" stroke="black" stroke-width="3"/>
<path d="M86,269h -7" fill="none" stroke="black" stroke-width="3"/>
<path d="M86,251h -7" fill="none" stroke="black" stroke-width="3"/>
<path d="M86,233h -7" fill="none" stroke="black" stroke-width="3"/>
<path d="M92,214h -13" fill="none" stroke="black" stroke-width="3"/>
<path d="M86,196h -7" fill="none" stroke="black" stroke-width="3"/>
<path d="M86,178h -7" fill="none" stroke="black" stroke-width="3"/>
<path d="M86,160h -7" fill="none" stroke="black" stroke-width="3"/>
<path d="M86,142h -7" fill="none" stroke="black" stroke-width="3"/>
<path d="M92,123h -13" fill="none" stroke="black" stroke-width="3"/>
<path d="M92,123h -13" fill="none" stroke="black" stroke-width="3"/>
<path d="M86,105h -7" fill="none" stroke="black" stroke-width="3"/>
<path d="M86,87h -7" fill="none" stroke="black" stroke-width="3"/>
<path d="M86,69h -7" fill="none" stroke="black" stroke-width="3"/>
<path d="M86,51h -7" fill="none" stroke="black" stroke-width="3"/>
<text x="46" y="404" fill="black" font-size="21" font-family="Times" font-weight="bold">
0.0
</text>
<text x="46" y="313" fill="black" font-size="21" font-family="Times" font-weight="bold">
0.1
</text>
<text x="46" y="222" fill="black" font-size="21" font-family="Times" font-weight="bold">
0.2
</text>
<text x="46" y="131" fill="black" font-size="21" font-family="Times" font-weight="bold">
0.3
</text>
<path d="M522,396v -359" fill="none" stroke="black" stroke-width="3"/>
<path d="M508,396h 14" fill="none" stroke="black" stroke-width="3"/>
<path d="M515,378h 7" fill="none" stroke="black" stroke-width="3"/>
<path d="M515,360h 7" fill="none" stroke="black" stroke-width="3"/>
<path d="M515,342h 7" fill="none" stroke="black" stroke-width="3"/>
<path d="M515,323h 7" fill="none" stroke="black" stroke-width="3"/>
<path d="M508,305h 14" fill="none" stroke="black" stroke-width="3"/>
<path d="M515,287h 7" fill="none" stroke="black" stroke-width="3"/>
<path d="M515,269h 7" fill="none" stroke="black" stroke-width="3"/>
<path d="M515,251h 7" fill="none" stroke="black" stroke-width="3"/>
<path d="M515,233h 7" fill="none" stroke="black" stroke-width="3"/>
<path d="M508,214h 14" fill="none" stroke="black" stroke-width="3"/>
<path d="M515,196h 7" fill="none" stroke="black" stroke-width="3"/>
<path d="M515,178h 7" fill="none" stroke="black" stroke-width="3"/>
<path d="M515,160h 7" fill="none" stroke="black" stroke-width="3"/>
<path d="M515,142h 7" fill="none" stroke="black" stroke-width="3"/>
<path d="M508,123h 14" fill="none" stroke="black" stroke-width="3"/>
<path d="M508,123h 14" fill="none" stroke="black" stroke-width="3"/>
<path d="M515,105h 7" fill="none" stroke="black" stroke-width="3"/>
<path d="M515,87h 7" fill="none" stroke="black" stroke-width="3"/>
<path d="M515,69h 7" fill="none" stroke="black" stroke-width="3"/>
<path d="M515,51h 7" fill="none" stroke="black" stroke-width="3"/>
<rect x="113" y="-4" width="248" height="38" fill="white"/>
<text x="131" y="24" fill="black" font-size="30" font-family="Helvetica" font-weight="bold">
IGHJ4_star_02
</text>
<path d="M88,393v -21" fill="none" stroke="#ff0000" stroke-width="6"/>
<g stroke="#ff0000" stroke-width="6" fill="#ff0000">
<circle cx="88" cy="396" r="3.5"/>
</g>
<path d="M105,396v -36" fill="none" stroke="#ff0000" stroke-width="6"/>
<path d="M105,353v -41" fill="none" stroke="#ff0000" stroke-width="6"/>
<path d="M96,357h 6" fill="none" stroke="#ff0000" stroke-width="6"/>
<path d="M108,357h 5" fill="none" stroke="#ff0000" stroke-width="6"/>
<g stroke="#ff0000" stroke-width="6" fill="#ff0000">
<circle cx="105" cy="357" r="3.5"/>
</g>
<path d="M122,201v -78" fill="none" stroke="#ff0000" stroke-width="6"/>
<path d="M122,116v -78" fill="none" stroke="#ff0000" stroke-width="6"/>
<path d="M113,120h 6" fill="none" stroke="#ff0000" stroke-width="6"/>
<path d="M125,120h 5" fill="none" stroke="#ff0000" stroke-width="6"/>
<g stroke="#ff0000" stroke-width="6" fill="#ff0000">
<circle cx="122" cy="120" r="3.5"/>
</g>
<path d="M139,273v -71" fill="none" stroke="#ff0000" stroke-width="6"/>
<path d="M139,195v -71" fill="none" stroke="#ff0000" stroke-width="6"/>
<path d="M130,199h 6" fill="none" stroke="#ff0000" stroke-width="6"/>
<path d="M142,199h 5" fill="none" stroke="#ff0000" stroke-width="6"/>
<g stroke="#ff0000" stroke-width="6" fill="#ff0000">
<circle cx="139" cy="199" r="3.5"/>
</g>
<path d="M156,374v -26" fill="none" stroke="#ff0000" stroke-width="6"/>
<path d="M156,341v -26" fill="none" stroke="#ff0000" stroke-width="6"/>
<path d="M147,345h 6" fill="none" stroke="#ff0000" stroke-width="6"/>
<path d="M159,345h 5" fill="none" stroke="#ff0000" stroke-width="6"/>
<g stroke="#ff0000" stroke-width="6" fill="#ff0000">
<circle cx="156" cy="345" r="3.5"/>
</g>
<path d="M173,214v -46" fill="none" stroke="#ff0000" stroke-width="6"/>
<path d="M173,162v -46" fill="none" stroke="#ff0000" stroke-width="6"/>
<path d="M164,165h 6" fill="none" stroke="#ff0000" stroke-width="6"/>
<path d="M176,165h 5" fill="none" stroke="#ff0000" stroke-width="6"/>
<g stroke="#ff0000" stroke-width="6" fill="#ff0000">
<circle cx="173" cy="165" r="3.5"/>
</g>
<path d="M190,310v -32" fill="none" stroke="#ff0000" stroke-width="6"/>
<path d="M190,272v -32" fill="none" stroke="#ff0000" stroke-width="6"/>
<path d="M181,275h 6" fill="none" stroke="#ff0000" stroke-width="6"/>
<path d="M193,275h 5" fill="none" stroke="#ff0000" stroke-width="6"/>
<g stroke="#ff0000" stroke-width="6" fill="#ff0000">
<circle cx="190" cy="275" r="3.5"/>
</g>
<path d="M207,311v -31" fill="none" stroke="#ff0000" stroke-width="6"/>
<path d="M207,273v -31" fill="none" stroke="#ff0000" stroke-width="6"/>
<path d="M198,277h 6" fill="none" stroke="#ff0000" stroke-width="6"/>
<path d="M210,277h 5" fill="none" stroke="#ff0000" stroke-width="6"/>
<g stroke="#ff0000" stroke-width="6" fill="#ff0000">
<circle cx="207" cy="277" r="3.5"/>
</g>
<path d="M224,393v -3" fill="none" stroke="#ff0000" stroke-width="6"/>
<g stroke="#ff0000" stroke-width="6" fill="#ff0000">
<circle cx="224" cy="396" r="3.5"/>
</g>
<path d="M241,144v -44" fill="none" stroke="#ff0000" stroke-width="6"/>
<path d="M241,94v -44" fill="none" stroke="#ff0000" stroke-width="6"/>
<path d="M232,97h 6" fill="none" stroke="#ff0000" stroke-width="6"/>
<path d="M244,97h 5" fill="none" stroke="#ff0000" stroke-width="6"/>
<g stroke="#ff0000" stroke-width="6" fill="#ff0000">
<circle cx="241" cy="97" r="3.5"/>
</g>
<path d="M258,396v -9" fill="none" stroke="#ff0000" stroke-width="6"/>
<path d="M258,381v -11" fill="none" stroke="#ff0000" stroke-width="6"/>
<path d="M249,384h 6" fill="none" stroke="#ff0000" stroke-width="6"/>
<path d="M261,384h 5" fill="none" stroke="#ff0000" stroke-width="6"/>
<g stroke="#ff0000" stroke-width="6" fill="#ff0000">
<circle cx="258" cy="384" r="3.5"/>
</g>
<path d="M275,311v -31" fill="none" stroke="#ff0000" stroke-width="6"/>
<path d="M275,273v -31" fill="none" stroke="#ff0000" stroke-width="6"/>
<path d="M266,277h 6" fill="none" stroke="#ff0000" stroke-width="6"/>
<path d="M278,277h 5" fill="none" stroke="#ff0000" stroke-width="6"/>
<g stroke="#ff0000" stroke-width="6" fill="#ff0000">
<circle cx="275" cy="277" r="3.5"/>
</g>
<path d="M292,190v -42" fill="none" stroke="#ff0000" stroke-width="6"/>
<path d="M292,142v -42" fill="none" stroke="#ff0000" stroke-width="6"/>
<path d="M283,145h 6" fill="none" stroke="#ff0000" stroke-width="6"/>
<path d="M295,145h 5" fill="none" stroke="#ff0000" stroke-width="6"/>
<g stroke="#ff0000" stroke-width="6" fill="#ff0000">
<circle cx="292" cy="145" r="3.5"/>
</g>
<path d="M309,332v -28" fill="none" stroke="#ff0000" stroke-width="6"/>
<path d="M309,297v -28" fill="none" stroke="#ff0000" stroke-width="6"/>
<path d="M300,300h 6" fill="none" stroke="#ff0000" stroke-width="6"/>
<path d="M312,300h 5" fill="none" stroke="#ff0000" stroke-width="6"/>
<g stroke="#ff0000" stroke-width="6" fill="#ff0000">
<circle cx="309" cy="300" r="3.5"/>
</g>
<path d="M326,393v -3" fill="none" stroke="#ff0000" stroke-width="6"/>
<g stroke="#ff0000" stroke-width="6" fill="#ff0000">
<circle cx="326" cy="396" r="3.5"/>
</g>
<path d="M343,393v -3" fill="none" stroke="#ff0000" stroke-width="6"/>
<g stroke="#ff0000" stroke-width="6" fill="#ff0000">
<circle cx="343" cy="396" r="3.5"/>
</g>
<path d="M360,393v -3" fill="none" stroke="#ff0000" stroke-width="6"/>
<g stroke="#ff0000" stroke-width="6" fill="#ff0000">
<circle cx="360" cy="396" r="3.5"/>
</g>
<path d="M377,393v -3" fill="none" stroke="#ff0000" stroke-width="6"/>
<g stroke="#ff0000" stroke-width="6" fill="#ff0000">
<circle cx="377" cy="396" r="3.5"/>
</g>
<path d="M394,393v -3" fill="none" stroke="#ff0000" stroke-width="6"/>
<g stroke="#ff0000" stroke-width="6" fill="#ff0000">
<circle cx="394" cy="396" r="3.5"/>
</g>
<path d="M411,381v -18" fill="none" stroke="#ff0000" stroke-width="6"/>
<path d="M411,357v -18" fill="none" stroke="#ff0000" stroke-width="6"/>
<path d="M403,360h 5" fill="none" stroke="#ff0000" stroke-width="6"/>
<path d="M414,360h 6" fill="none" stroke="#ff0000" stroke-width="6"/>
<g stroke="#ff0000" stroke-width="6" fill="#ff0000">
<circle cx="411" cy="360" r="3.5"/>
</g>
<path d="M428,393v -3" fill="none" stroke="#ff0000" stroke-width="6"/>
<g stroke="#ff0000" stroke-width="6" fill="#ff0000">
<circle cx="428" cy="396" r="3.5"/>
</g>
<path d="M445,362v -22" fill="none" stroke="#ff0000" stroke-width="6"/>
<path d="M445,333v -23" fill="none" stroke="#ff0000" stroke-width="6"/>
<path d="M437,336h 5" fill="none" stroke="#ff0000" stroke-width="6"/>
<path d="M448,336h 6" fill="none" stroke="#ff0000" stroke-width="6"/>
<g stroke="#ff0000" stroke-width="6" fill="#ff0000">
<circle cx="445" cy="336" r="3.5"/>
</g>
<path d="M462,393v -3" fill="none" stroke="#ff0000" stroke-width="6"/>
<g stroke="#ff0000" stroke-width="6" fill="#ff0000">
<circle cx="462" cy="396" r="3.5"/>
</g>
<path d="M479,393v -3" fill="none" stroke="#ff0000" stroke-width="6"/>
<g stroke="#ff0000" stroke-width="6" fill="#ff0000">
<circle cx="479" cy="396" r="3.5"/>
</g>
<path d="M496,393v -3" fill="none" stroke="#ff0000" stroke-width="6"/>
<g stroke="#ff0000" stroke-width="6" fill="#ff0000">
<circle cx="496" cy="396" r="3.5"/>
</g>
<path d="M513,393v -4" fill="none" stroke="#ff0000" stroke-width="6"/>
<g stroke="#ff0000" stroke-width="6" fill="#ff0000">
<circle cx="513" cy="396" r="3.5"/>
</g>
<path d="M332,107h 42" fill="none" stroke="#ff0000" stroke-width="6"/>
<path d="M326,426v -179" fill="none" stroke="black" stroke-width="3" stroke-dasharray=" 3, 3"/>
<rect x="113" y="-4" width="248" height="38" fill="white"/>
<text x="131" y="24" fill="black" font-size="30" font-family="Helvetica" font-weight="bold">
IGHJ4_star_02
</text></svg>
