<?xml version="1.0" standalone="no"?>
<svg width="567" height="466" viewBox="0 0 567 466" xmlns="http://www.w3.org/2000/svg">
<title>
/bbx/output/_plots/example/hmm/true/dj_insertion/plots/IGHJ4_star_02-dj_insertion.svg
</title>
<desc>
Creator: ROOT Version 5.34/14
CreationDate: Thu Jul 30 18:25:19 2015</desc>
<defs>
</defs>
<rect x="0" y="0" width="567" height="466" fill="white"/>
<rect x="79" y="37" width="443" height="359" fill="none" stroke="black"/>
<rect x="79" y="37" width="443" height="359" fill="none" stroke="black"/>
<path d="M79,396h 443" fill="none" stroke="black" stroke-width="3"/>
<path d="M91,385v 11" fill="none" stroke="black" stroke-width="3"/>
<path d="M114,391v 5" fill="none" stroke="black" stroke-width="3"/>
<path d="M138,391v 5" fill="none" stroke="black" stroke-width="3"/>
<path d="M161,391v 5" fill="none" stroke="black" stroke-width="3"/>
<path d="M184,391v 5" fill="none" stroke="black" stroke-width="3"/>
<path d="M207,385v 11" fill="none" stroke="black" stroke-width="3"/>
<path d="M231,391v 5" fill="none" stroke="black" stroke-width="3"/>
<path d="M254,391v 5" fill="none" stroke="black" stroke-width="3"/>
<path d="M277,391v 5" fill="none" stroke="black" stroke-width="3"/>
<path d="M300,391v 5" fill="none" stroke="black" stroke-width="3"/>
<path d="M324,385v 11" fill="none" stroke="black" stroke-width="3"/>
<path d="M347,391v 5" fill="none" stroke="black" stroke-width="3"/>
<path d="M370,391v 5" fill="none" stroke="black" stroke-width="3"/>
<path d="M394,391v 5" fill="none" stroke="black" stroke-width="3"/>
<path d="M417,391v 5" fill="none" stroke="black" stroke-width="3"/>
<path d="M440,385v 11" fill="none" stroke="black" stroke-width="3"/>
<path d="M91,385v 11" fill="none" stroke="black" stroke-width="3"/>
<path d="M440,385v 11" fill="none" stroke="black" stroke-width="3"/>
<path d="M463,391v 5" fill="none" stroke="black" stroke-width="3"/>
<path d="M487,391v 5" fill="none" stroke="black" stroke-width="3"/>
<path d="M510,391v 5" fill="none" stroke="black" stroke-width="3"/>
<text x="85" y="416" fill="black" font-size="21" font-family="Times" font-weight="bold">
0
</text>
<text x="201" y="416" fill="black" font-size="21" font-family="Times" font-weight="bold">
5
</text>
<text x="312" y="416" fill="black" font-size="21" font-family="Times" font-weight="bold">
10
</text>
<text x="428" y="416" fill="black" font-size="21" font-family="Times" font-weight="bold">
15
</text>
<path d="M79,37h 443" fill="none" stroke="black" stroke-width="3"/>
<path d="M91,48v -11" fill="none" stroke="black" stroke-width="3"/>
<path d="M114,43v -6" fill="none" stroke="black" stroke-width="3"/>
<path d="M138,43v -6" fill="none" stroke="black" stroke-width="3"/>
<path d="M161,43v -6" fill="none" stroke="black" stroke-width="3"/>
<path d="M184,43v -6" fill="none" stroke="black" stroke-width="3"/>
<path d="M207,48v -11" fill="none" stroke="black" stroke-width="3"/>
<path d="M231,43v -6" fill="none" stroke="black" stroke-width="3"/>
<path d="M254,43v -6" fill="none" stroke="black" stroke-width="3"/>
<path d="M277,43v -6" fill="none" stroke="black" stroke-width="3"/>
<path d="M300,43v -6" fill="none" stroke="black" stroke-width="3"/>
<path d="M324,48v -11" fill="none" stroke="black" stroke-width="3"/>
<path d="M347,43v -6" fill="none" stroke="black" stroke-width="3"/>
<path d="M370,43v -6" fill="none" stroke="black" stroke-width="3"/>
<path d="M394,43v -6" fill="none" stroke="black" stroke-width="3"/>
<path d="M417,43v -6" fill="none" stroke="black" stroke-width="3"/>
<path d="M440,48v -11" fill="none" stroke="black" stroke-width="3"/>
<path d="M91,48v -11" fill="none" stroke="black" stroke-width="3"/>
<path d="M440,48v -11" fill="none" stroke="black" stroke-width="3"/>
<path d="M463,43v -6" fill="none" stroke="black" stroke-width="3"/>
<path d="M487,43v -6" fill="none" stroke="black" stroke-width="3"/>
<path d="M510,43v -6" fill="none" stroke="black" stroke-width="3"/>
<path d="M79,396v -359" fill="none" stroke="black" stroke-width="3"/>
<path d="M92,396h -13" fill="none" stroke="black" stroke-width="3"/>
<path d="M86,380h -7" fill="none" stroke="black" stroke-width="3"/>
<path d="M86,363h -7" fill="none" stroke="black" stroke-width="3"/>
<path d="M86,346h -7" fill="none" stroke="black" stroke-width="3"/>
<path d="M86,330h -7" fill="none" stroke="black" stroke-width="3"/>
<path d="M92,313h -13" fill="none" stroke="black" stroke-width="3"/>
<path d="M86,296h -7" fill="none" stroke="black" stroke-width="3"/>
<path d="M86,280h -7" fill="none" stroke="black" stroke-width="3"/>
<path d="M86,263h -7" fill="none" stroke="black" stroke-width="3"/>
<path d="M86,247h -7" fill="none" stroke="black" stroke-width="3"/>
<path d="M92,230h -13" fill="none" stroke="black" stroke-width="3"/>
<path d="M86,213h -7" fill="none" stroke="black" stroke-width="3"/>
<path d="M86,197h -7" fill="none" stroke="black" stroke-width="3"/>
<path d="M86,180h -7" fill="none" stroke="black" stroke-width="3"/>
<path d="M86,164h -7" fill="none" stroke="black" stroke-width="3"/>
<path d="M92,147h -13" fill="none" stroke="black" stroke-width="3"/>
<path d="M86,130h -7" fill="none" stroke="black" stroke-width="3"/>
<path d="M86,114h -7" fill="none" stroke="black" stroke-width="3"/>
<path d="M86,97h -7" fill="none" stroke="black" stroke-width="3"/>
<path d="M86,81h -7" fill="none" stroke="black" stroke-width="3"/>
<path d="M92,64h -13" fill="none" stroke="black" stroke-width="3"/>
<path d="M92,64h -13" fill="none" stroke="black" stroke-width="3"/>
<path d="M86,47h -7" fill="none" stroke="black" stroke-width="3"/>
<text x="63" y="404" fill="black" font-size="21" font-family="Times" font-weight="bold">
0
</text>
<text x="51" y="321" fill="black" font-size="21" font-family="Times" font-weight="bold">
10
</text>
<text x="51" y="238" fill="black" font-size="21" font-family="Times" font-weight="bold">
20
</text>
<text x="51" y="155" fill="black" font-size="21" font-family="Times" font-weight="bold">
30
</text>
<text x="51" y="72" fill="black" font-size="21" font-family="Times" font-weight="bold">
40
</text>
<path d="M522,396v -359" fill="none" stroke="black" stroke-width="3"/>
<path d="M508,396h 14" fill="none" stroke="black" stroke-width="3"/>
<path d="M515,380h 7" fill="none" stroke="black" stroke-width="3"/>
<path d="M515,363h 7" fill="none" stroke="black" stroke-width="3"/>
<path d="M515,346h 7" fill="none" stroke="black" stroke-width="3"/>
<path d="M515,330h 7" fill="none" stroke="black" stroke-width="3"/>
<path d="M508,313h 14" fill="none" stroke="black" stroke-width="3"/>
<path d="M515,296h 7" fill="none" stroke="black" stroke-width="3"/>
<path d="M515,280h 7" fill="none" stroke="black" stroke-width="3"/>
<path d="M515,263h 7" fill="none" stroke="black" stroke-width="3"/>
<path d="M515,247h 7" fill="none" stroke="black" stroke-width="3"/>
<path d="M508,230h 14" fill="none" stroke="black" stroke-width="3"/>
<path d="M515,213h 7" fill="none" stroke="black" stroke-width="3"/>
<path d="M515,197h 7" fill="none" stroke="black" stroke-width="3"/>
<path d="M515,180h 7" fill="none" stroke="black" stroke-width="3"/>
<path d="M515,164h 7" fill="none" stroke="black" stroke-width="3"/>
<path d="M508,147h 14" fill="none" stroke="black" stroke-width="3"/>
<path d="M515,130h 7" fill="none" stroke="black" stroke-width="3"/>
<path d="M515,114h 7" fill="none" stroke="black" stroke-width="3"/>
<path d="M515,97h 7" fill="none" stroke="black" stroke-width="3"/>
<path d="M515,81h 7" fill="none" stroke="black" stroke-width="3"/>
<path d="M508,64h 14" fill="none" stroke="black" stroke-width="3"/>
<path d="M508,64h 14" fill="none" stroke="black" stroke-width="3"/>
<path d="M515,47h 7" fill="none" stroke="black" stroke-width="3"/>
<rect x="113" y="-4" width="397" height="39" fill="white"/>
<text x="130" y="23" fill="black" font-size="28" font-family="Helvetica" font-weight="bold">
IGHJ4_star_02-dj_insertion
</text>
<path d="M91,147v -47" fill="none" stroke="#ff0000" stroke-width="6"/>
<path d="M91,94v -47" fill="none" stroke="#ff0000" stroke-width="6"/>
<g stroke="#ff0000" stroke-width="6" fill="#ff0000">
<circle cx="91" cy="97" r="3.5"/>
</g>
<path d="M161,346v -21" fill="none" stroke="#ff0000" stroke-width="6"/>
<path d="M161,318v -22" fill="none" stroke="#ff0000" stroke-width="6"/>
<g stroke="#ff0000" stroke-width="6" fill="#ff0000">
<circle cx="161" cy="321" r="3.5"/>
</g>
<path d="M254,386v -12" fill="none" stroke="#ff0000" stroke-width="6"/>
<path d="M254,368v -11" fill="none" stroke="#ff0000" stroke-width="6"/>
<g stroke="#ff0000" stroke-width="6" fill="#ff0000">
<circle cx="254" cy="371" r="3.5"/>
</g>
<path d="M277,304v -29" fill="none" stroke="#ff0000" stroke-width="6"/>
<path d="M277,268v -29" fill="none" stroke="#ff0000" stroke-width="6"/>
<g stroke="#ff0000" stroke-width="6" fill="#ff0000">
<circle cx="277" cy="272" r="3.5"/>
</g>
<path d="M347,325v -25" fill="none" stroke="#ff0000" stroke-width="6"/>
<path d="M347,293v -25" fill="none" stroke="#ff0000" stroke-width="6"/>
<g stroke="#ff0000" stroke-width="6" fill="#ff0000">
<circle cx="347" cy="296" r="3.5"/>
</g>
<path d="M370,346v -21" fill="none" stroke="#ff0000" stroke-width="6"/>
<path d="M370,318v -22" fill="none" stroke="#ff0000" stroke-width="6"/>
<g stroke="#ff0000" stroke-width="6" fill="#ff0000">
<circle cx="370" cy="321" r="3.5"/>
</g>
<path d="M510,373v -15" fill="none" stroke="#ff0000" stroke-width="6"/>
<path d="M510,351v -15" fill="none" stroke="#ff0000" stroke-width="6"/>
<g stroke="#ff0000" stroke-width="6" fill="#ff0000">
<circle cx="510" cy="355" r="3.5"/>
</g>
<path d="M80,395v -298h 23v 298h 46v -74h 23v 74h 70v -24h 24v -99h 23v 123h 46v -99h 24v 25h 23v 74h 116v -40h 24" fill="none" stroke="#ff0000" stroke-width="6"/>
<path d="M332,107h 42" fill="none" stroke="#ff0000" stroke-width="6"/>
<rect x="113" y="-4" width="397" height="39" fill="white"/>
<text x="130" y="23" fill="black" font-size="28" font-family="Helvetica" font-weight="bold">
IGHJ4_star_02-dj_insertion
</text></svg>
