<?xml version="1.0" standalone="no"?>
<svg width="567" height="466" viewBox="0 0 567 466" xmlns="http://www.w3.org/2000/svg">
<title>
/bbx/output/_plots/example/hmm/mute-freqs/j/plots/IGHJ4_star_02.svg
</title>
<desc>
Creator: ROOT Version 5.34/14
CreationDate: Thu Jul 30 18:25:17 2015</desc>
<defs>
</defs>
<rect x="0" y="0" width="567" height="466" fill="white"/>
<rect x="79" y="37" width="443" height="359" fill="none" stroke="black"/>
<rect x="79" y="37" width="443" height="359" fill="none" stroke="black"/>
<path d="M79,396h 443" fill="none" stroke="black" stroke-width="3"/>
<path d="M88,385v 11" fill="none" stroke="black" stroke-width="3"/>
<path d="M122,391v 5" fill="none" stroke="black" stroke-width="3"/>
<path d="M156,391v 5" fill="none" stroke="black" stroke-width="3"/>
<path d="M190,391v 5" fill="none" stroke="black" stroke-width="3"/>
<path d="M224,391v 5" fill="none" stroke="black" stroke-width="3"/>
<path d="M258,385v 11" fill="none" stroke="black" stroke-width="3"/>
<path d="M292,391v 5" fill="none" stroke="black" stroke-width="3"/>
<path d="M326,391v 5" fill="none" stroke="black" stroke-width="3"/>
<path d="M360,391v 5" fill="none" stroke="black" stroke-width="3"/>
<path d="M394,391v 5" fill="none" stroke="black" stroke-width="3"/>
<path d="M428,385v 11" fill="none" stroke="black" stroke-width="3"/>
<path d="M88,385v 11" fill="none" stroke="black" stroke-width="3"/>
<path d="M428,385v 11" fill="none" stroke="black" stroke-width="3"/>
<path d="M462,391v 5" fill="none" stroke="black" stroke-width="3"/>
<path d="M496,391v 5" fill="none" stroke="black" stroke-width="3"/>
<text x="81" y="416" fill="black" font-size="21" font-family="Times" font-weight="bold">
0
</text>
<text x="246" y="416" fill="black" font-size="21" font-family="Times" font-weight="bold">
10
</text>
<text x="416" y="416" fill="black" font-size="21" font-family="Times" font-weight="bold">
20
</text>
<path d="M79,37h 443" fill="none" stroke="black" stroke-width="3"/>
<path d="M88,48v -11" fill="none" stroke="black" stroke-width="3"/>
<path d="M122,43v -6" fill="none" stroke="black" stroke-width="3"/>
<path d="M156,43v -6" fill="none" stroke="black" stroke-width="3"/>
<path d="M190,43v -6" fill="none" stroke="black" stroke-width="3"/>
<path d="M224,43v -6" fill="none" stroke="black" stroke-width="3"/>
<path d="M258,48v -11" fill="none" stroke="black" stroke-width="3"/>
<path d="M292,43v -6" fill="none" stroke="black" stroke-width="3"/>
<path d="M326,43v -6" fill="none" stroke="black" stroke-width="3"/>
<path d="M360,43v -6" fill="none" stroke="black" stroke-width="3"/>
<path d="M394,43v -6" fill="none" stroke="black" stroke-width="3"/>
<path d="M428,48v -11" fill="none" stroke="black" stroke-width="3"/>
<path d="M88,48v -11" fill="none" stroke="black" stroke-width="3"/>
<path d="M428,48v -11" fill="none" stroke="black" stroke-width="3"/>
<path d="M462,43v -6" fill="none" stroke="black" stroke-width="3"/>
<path d="M496,43v -6" fill="none" stroke="black" stroke-width="3"/>
<path d="M79,396v -359" fill="none" stroke="black" stroke-width="3"/>
<path d="M92,396h -13" fill="none" stroke="black" stroke-width="3"/>
<path d="M86,378h -7" fill="none" stroke="black" stroke-width="3"/>
<path d="M86,360h -7" fill="none" stroke="black" stroke-width="3"/>
<path d="M86,342h -7" fill="none" stroke="black" stroke-width="3"/>
<path d="M86,324h -7" fill="none" stroke="black" stroke-width="3"/>
<path d="M92,306h -13" fill="none" stroke="black" stroke-width="3"/>
<path d="M86,288h -7" fill="none" stroke="black" stroke-width="3"/>
<path d="M86,271h -7" fill="none" stroke="black" stroke-width="3"/>
<path d="M86,253h -7" fill="none" stroke="black" stroke-width="3"/>
<path d="M86,235h -7" fill="none" stroke="black" stroke-width="3"/>
<path d="M92,217h -13" fill="none" stroke="black" stroke-width="3"/>
<path d="M86,199h -7" fill="none" stroke="black" stroke-width="3"/>
<path d="M86,181h -7" fill="none" stroke="black" stroke-width="3"/>
<path d="M86,163h -7" fill="none" stroke="black" stroke-width="3"/>
<path d="M86,145h -7" fill="none" stroke="black" stroke-width="3"/>
<path d="M92,127h -13" fill="none" stroke="black" stroke-width="3"/>
<path d="M86,109h -7" fill="none" stroke="black" stroke-width="3"/>
<path d="M86,91h -7" fill="none" stroke="black" stroke-width="3"/>
<path d="M86,73h -7" fill="none" stroke="black" stroke-width="3"/>
<path d="M86,55h -7" fill="none" stroke="black" stroke-width="3"/>
<path d="M92,37h -13" fill="none" stroke="black" stroke-width="3"/>
<path d="M92,37h -13" fill="none" stroke="black" stroke-width="3"/>
<text x="46" y="404" fill="black" font-size="21" font-family="Times" font-weight="bold">
0.0
</text>
<text x="46" y="314" fill="black" font-size="21" font-family="Times" font-weight="bold">
0.1
</text>
<text x="46" y="224" fill="black" font-size="21" font-family="Times" font-weight="bold">
0.2
</text>
<text x="46" y="134" fill="black" font-size="21" font-family="Times" font-weight="bold">
0.3
</text>
<text x="46" y="45" fill="black" font-size="21" font-family="Times" font-weight="bold">
0.4
</text>
<path d="M522,396v -359" fill="none" stroke="black" stroke-width="3"/>
<path d="M508,396h 14" fill="none" stroke="black" stroke-width="3"/>
<path d="M515,378h 7" fill="none" stroke="black" stroke-width="3"/>
<path d="M515,360h 7" fill="none" stroke="black" stroke-width="3"/>
<path d="M515,342h 7" fill="none" stroke="black" stroke-width="3"/>
<path d="M515,324h 7" fill="none" stroke="black" stroke-width="3"/>
<path d="M508,306h 14" fill="none" stroke="black" stroke-width="3"/>
<path d="M515,288h 7" fill="none" stroke="black" stroke-width="3"/>
<path d="M515,271h 7" fill="none" stroke="black" stroke-width="3"/>
<path d="M515,253h 7" fill="none" stroke="black" stroke-width="3"/>
<path d="M515,235h 7" fill="none" stroke="black" stroke-width="3"/>
<path d="M508,217h 14" fill="none" stroke="black" stroke-width="3"/>
<path d="M515,199h 7" fill="none" stroke="black" stroke-width="3"/>
<path d="M515,181h 7" fill="none" stroke="black" stroke-width="3"/>
<path d="M515,163h 7" fill="none" stroke="black" stroke-width="3"/>
<path d="M515,145h 7" fill="none" stroke="black" stroke-width="3"/>
<path d="M508,127h 14" fill="none" stroke="black" stroke-width="3"/>
<path d="M515,109h 7" fill="none" stroke="black" stroke-width="3"/>
<path d="M515,91h 7" fill="none" stroke="black" stroke-width="3"/>
<path d="M515,73h 7" fill="none" stroke="black" stroke-width="3"/>
<path d="M515,55h 7" fill="none" stroke="black" stroke-width="3"/>
<path d="M508,37h 14" fill="none" stroke="black" stroke-width="3"/>
<path d="M508,37h 14" fill="none" stroke="black" stroke-width="3"/>
<rect x="113" y="-4" width="248" height="38" fill="white"/>
<text x="131" y="24" fill="black" font-size="30" font-family="Helvetica" font-weight="bold">
IGHJ4_star_02
</text>
<path d="M88,393v -23" fill="none" stroke="#ff0000" stroke-width="6"/>
<g stroke="#ff0000" stroke-width="6" fill="#ff0000">
<circle cx="88" cy="396" r="3.5"/>
</g>
<path d="M105,396v -39" fill="none" stroke="#ff0000" stroke-width="6"/>
<path d="M105,350v -44" fill="none" stroke="#ff0000" stroke-width="6"/>
<path d="M96,353h 6" fill="none" stroke="#ff0000" stroke-width="6"/>
<path d="M108,353h 5" fill="none" stroke="#ff0000" stroke-width="6"/>
<g stroke="#ff0000" stroke-width="6" fill="#ff0000">
<circle cx="105" cy="353" r="3.5"/>
</g>
<path d="M122,183v -83" fill="none" stroke="#ff0000" stroke-width="6"/>
<path d="M122,94v -57" fill="none" stroke="#ff0000" stroke-width="6"/>
<path d="M113,97h 6" fill="none" stroke="#ff0000" stroke-width="6"/>
<path d="M125,97h 5" fill="none" stroke="#ff0000" stroke-width="6"/>
<g stroke="#ff0000" stroke-width="6" fill="#ff0000">
<circle cx="122" cy="97" r="3.5"/>
</g>
<path d="M139,261v -75" fill="none" stroke="#ff0000" stroke-width="6"/>
<path d="M139,179v -75" fill="none" stroke="#ff0000" stroke-width="6"/>
<path d="M130,183h 6" fill="none" stroke="#ff0000" stroke-width="6"/>
<path d="M142,183h 5" fill="none" stroke="#ff0000" stroke-width="6"/>
<g stroke="#ff0000" stroke-width="6" fill="#ff0000">
<circle cx="139" cy="183" r="3.5"/>
</g>
<path d="M156,345v -34" fill="none" stroke="#ff0000" stroke-width="6"/>
<path d="M156,305v -34" fill="none" stroke="#ff0000" stroke-width="6"/>
<path d="M147,308h 6" fill="none" stroke="#ff0000" stroke-width="6"/>
<path d="M159,308h 5" fill="none" stroke="#ff0000" stroke-width="6"/>
<g stroke="#ff0000" stroke-width="6" fill="#ff0000">
<circle cx="156" cy="308" r="3.5"/>
</g>
<path d="M173,226v -44" fill="none" stroke="#ff0000" stroke-width="6"/>
<path d="M173,176v -44" fill="none" stroke="#ff0000" stroke-width="6"/>
<path d="M164,179h 6" fill="none" stroke="#ff0000" stroke-width="6"/>
<path d="M176,179h 5" fill="none" stroke="#ff0000" stroke-width="6"/>
<g stroke="#ff0000" stroke-width="6" fill="#ff0000">
<circle cx="173" cy="179" r="3.5"/>
</g>
<path d="M190,300v -30" fill="none" stroke="#ff0000" stroke-width="6"/>
<path d="M190,263v -30" fill="none" stroke="#ff0000" stroke-width="6"/>
<path d="M181,266h 6" fill="none" stroke="#ff0000" stroke-width="6"/>
<path d="M193,266h 5" fill="none" stroke="#ff0000" stroke-width="6"/>
<g stroke="#ff0000" stroke-width="6" fill="#ff0000">
<circle cx="190" cy="266" r="3.5"/>
</g>
<path d="M207,281v -33" fill="none" stroke="#ff0000" stroke-width="6"/>
<path d="M207,242v -33" fill="none" stroke="#ff0000" stroke-width="6"/>
<path d="M198,245h 6" fill="none" stroke="#ff0000" stroke-width="6"/>
<path d="M210,245h 5" fill="none" stroke="#ff0000" stroke-width="6"/>
<g stroke="#ff0000" stroke-width="6" fill="#ff0000">
<circle cx="207" cy="245" r="3.5"/>
</g>
<path d="M224,393v -3" fill="none" stroke="#ff0000" stroke-width="6"/>
<g stroke="#ff0000" stroke-width="6" fill="#ff0000">
<circle cx="224" cy="396" r="3.5"/>
</g>
<path d="M241,149v -41" fill="none" stroke="#ff0000" stroke-width="6"/>
<path d="M241,101v -41" fill="none" stroke="#ff0000" stroke-width="6"/>
<path d="M232,104h 6" fill="none" stroke="#ff0000" stroke-width="6"/>
<path d="M244,104h 5" fill="none" stroke="#ff0000" stroke-width="6"/>
<g stroke="#ff0000" stroke-width="6" fill="#ff0000">
<circle cx="241" cy="104" r="3.5"/>
</g>
<path d="M258,391v -13" fill="none" stroke="#ff0000" stroke-width="6"/>
<path d="M258,371v -13" fill="none" stroke="#ff0000" stroke-width="6"/>
<path d="M249,374h 6" fill="none" stroke="#ff0000" stroke-width="6"/>
<path d="M261,374h 5" fill="none" stroke="#ff0000" stroke-width="6"/>
<g stroke="#ff0000" stroke-width="6" fill="#ff0000">
<circle cx="258" cy="374" r="3.5"/>
</g>
<path d="M275,251v -35" fill="none" stroke="#ff0000" stroke-width="6"/>
<path d="M275,209v -35" fill="none" stroke="#ff0000" stroke-width="6"/>
<path d="M266,212h 6" fill="none" stroke="#ff0000" stroke-width="6"/>
<path d="M278,212h 5" fill="none" stroke="#ff0000" stroke-width="6"/>
<g stroke="#ff0000" stroke-width="6" fill="#ff0000">
<circle cx="275" cy="212" r="3.5"/>
</g>
<path d="M292,159v -41" fill="none" stroke="#ff0000" stroke-width="6"/>
<path d="M292,112v -41" fill="none" stroke="#ff0000" stroke-width="6"/>
<path d="M283,115h 6" fill="none" stroke="#ff0000" stroke-width="6"/>
<path d="M295,115h 5" fill="none" stroke="#ff0000" stroke-width="6"/>
<g stroke="#ff0000" stroke-width="6" fill="#ff0000">
<circle cx="292" cy="115" r="3.5"/>
</g>
<path d="M309,319v -28" fill="none" stroke="#ff0000" stroke-width="6"/>
<path d="M309,285v -28" fill="none" stroke="#ff0000" stroke-width="6"/>
<path d="M300,288h 6" fill="none" stroke="#ff0000" stroke-width="6"/>
<path d="M312,288h 5" fill="none" stroke="#ff0000" stroke-width="6"/>
<g stroke="#ff0000" stroke-width="6" fill="#ff0000">
<circle cx="309" cy="288" r="3.5"/>
</g>
<path d="M326,393v -3" fill="none" stroke="#ff0000" stroke-width="6"/>
<g stroke="#ff0000" stroke-width="6" fill="#ff0000">
<circle cx="326" cy="396" r="3.5"/>
</g>
<path d="M343,393v -3" fill="none" stroke="#ff0000" stroke-width="6"/>
<g stroke="#ff0000" stroke-width="6" fill="#ff0000">
<circle cx="343" cy="396" r="3.5"/>
</g>
<path d="M360,393v -3" fill="none" stroke="#ff0000" stroke-width="6"/>
<g stroke="#ff0000" stroke-width="6" fill="#ff0000">
<circle cx="360" cy="396" r="3.5"/>
</g>
<path d="M377,393v -3" fill="none" stroke="#ff0000" stroke-width="6"/>
<g stroke="#ff0000" stroke-width="6" fill="#ff0000">
<circle cx="377" cy="396" r="3.5"/>
</g>
<path d="M394,393v -3" fill="none" stroke="#ff0000" stroke-width="6"/>
<g stroke="#ff0000" stroke-width="6" fill="#ff0000">
<circle cx="394" cy="396" r="3.5"/>
</g>
<path d="M411,383v -16" fill="none" stroke="#ff0000" stroke-width="6"/>
<path d="M411,360v -16" fill="none" stroke="#ff0000" stroke-width="6"/>
<path d="M403,364h 5" fill="none" stroke="#ff0000" stroke-width="6"/>
<path d="M414,364h 6" fill="none" stroke="#ff0000" stroke-width="6"/>
<g stroke="#ff0000" stroke-width="6" fill="#ff0000">
<circle cx="411" cy="364" r="3.5"/>
</g>
<path d="M428,393v -3" fill="none" stroke="#ff0000" stroke-width="6"/>
<g stroke="#ff0000" stroke-width="6" fill="#ff0000">
<circle cx="428" cy="396" r="3.5"/>
</g>
<path d="M445,366v -21" fill="none" stroke="#ff0000" stroke-width="6"/>
<path d="M445,339v -20" fill="none" stroke="#ff0000" stroke-width="6"/>
<path d="M437,342h 5" fill="none" stroke="#ff0000" stroke-width="6"/>
<path d="M448,342h 6" fill="none" stroke="#ff0000" stroke-width="6"/>
<g stroke="#ff0000" stroke-width="6" fill="#ff0000">
<circle cx="445" cy="342" r="3.5"/>
</g>
<path d="M462,393v -3" fill="none" stroke="#ff0000" stroke-width="6"/>
<g stroke="#ff0000" stroke-width="6" fill="#ff0000">
<circle cx="462" cy="396" r="3.5"/>
</g>
<path d="M479,393v -3" fill="none" stroke="#ff0000" stroke-width="6"/>
<g stroke="#ff0000" stroke-width="6" fill="#ff0000">
<circle cx="479" cy="396" r="3.5"/>
</g>
<path d="M496,393v -3" fill="none" stroke="#ff0000" stroke-width="6"/>
<g stroke="#ff0000" stroke-width="6" fill="#ff0000">
<circle cx="496" cy="396" r="3.5"/>
</g>
<path d="M513,383v -16" fill="none" stroke="#ff0000" stroke-width="6"/>
<path d="M513,360v -16" fill="none" stroke="#ff0000" stroke-width="6"/>
<path d="M505,364h 5" fill="none" stroke="#ff0000" stroke-width="6"/>
<path d="M516,364h 6" fill="none" stroke="#ff0000" stroke-width="6"/>
<g stroke="#ff0000" stroke-width="6" fill="#ff0000">
<circle cx="513" cy="364" r="3.5"/>
</g>
<path d="M332,107h 42" fill="none" stroke="#ff0000" stroke-width="6"/>
<path d="M326,426v -179" fill="none" stroke="black" stroke-width="3" stroke-dasharray=" 3, 3"/>
<rect x="113" y="-4" width="248" height="38" fill="white"/>
<text x="131" y="24" fill="black" font-size="30" font-family="Helvetica" font-weight="bold">
IGHJ4_star_02
</text></svg>
