<?xml version="1.0" standalone="no"?>
<svg width="567" height="466" viewBox="0 0 567 466" xmlns="http://www.w3.org/2000/svg">
<title>
/bbx/output/_plots/example/sw/mute-freqs/plots/all-mean-freq.svg
</title>
<desc>
Creator: ROOT Version 5.34/14
CreationDate: Wed Aug 19 19:38:11 2015</desc>
<defs>
</defs>
<rect x="0" y="0" width="567" height="466" fill="white"/>
<rect x="79" y="37" width="443" height="359" fill="none" stroke="black"/>
<rect x="79" y="37" width="443" height="359" fill="none" stroke="black"/>
<path d="M79,396h 443" fill="none" stroke="black" stroke-width="3"/>
<path d="M79,385v 11" fill="none" stroke="black" stroke-width="3"/>
<path d="M101,391v 5" fill="none" stroke="black" stroke-width="3"/>
<path d="M124,391v 5" fill="none" stroke="black" stroke-width="3"/>
<path d="M146,391v 5" fill="none" stroke="black" stroke-width="3"/>
<path d="M168,391v 5" fill="none" stroke="black" stroke-width="3"/>
<path d="M190,385v 11" fill="none" stroke="black" stroke-width="3"/>
<path d="M212,391v 5" fill="none" stroke="black" stroke-width="3"/>
<path d="M234,391v 5" fill="none" stroke="black" stroke-width="3"/>
<path d="M256,391v 5" fill="none" stroke="black" stroke-width="3"/>
<path d="M278,391v 5" fill="none" stroke="black" stroke-width="3"/>
<path d="M300,385v 11" fill="none" stroke="black" stroke-width="3"/>
<path d="M323,391v 5" fill="none" stroke="black" stroke-width="3"/>
<path d="M345,391v 5" fill="none" stroke="black" stroke-width="3"/>
<path d="M367,391v 5" fill="none" stroke="black" stroke-width="3"/>
<path d="M389,391v 5" fill="none" stroke="black" stroke-width="3"/>
<path d="M411,385v 11" fill="none" stroke="black" stroke-width="3"/>
<path d="M433,391v 5" fill="none" stroke="black" stroke-width="3"/>
<path d="M455,391v 5" fill="none" stroke="black" stroke-width="3"/>
<path d="M477,391v 5" fill="none" stroke="black" stroke-width="3"/>
<path d="M499,391v 5" fill="none" stroke="black" stroke-width="3"/>
<path d="M522,385v 11" fill="none" stroke="black" stroke-width="3"/>
<text x="65" y="416" fill="black" font-size="21" font-family="Times" font-weight="bold">
0.0
</text>
<text x="176" y="416" fill="black" font-size="21" font-family="Times" font-weight="bold">
0.1
</text>
<text x="286" y="416" fill="black" font-size="21" font-family="Times" font-weight="bold">
0.2
</text>
<text x="397" y="416" fill="black" font-size="21" font-family="Times" font-weight="bold">
0.3
</text>
<text x="507" y="416" fill="black" font-size="21" font-family="Times" font-weight="bold">
0.4
</text>
<path d="M79,37h 443" fill="none" stroke="black" stroke-width="3"/>
<path d="M79,48v -11" fill="none" stroke="black" stroke-width="3"/>
<path d="M101,43v -6" fill="none" stroke="black" stroke-width="3"/>
<path d="M124,43v -6" fill="none" stroke="black" stroke-width="3"/>
<path d="M146,43v -6" fill="none" stroke="black" stroke-width="3"/>
<path d="M168,43v -6" fill="none" stroke="black" stroke-width="3"/>
<path d="M190,48v -11" fill="none" stroke="black" stroke-width="3"/>
<path d="M212,43v -6" fill="none" stroke="black" stroke-width="3"/>
<path d="M234,43v -6" fill="none" stroke="black" stroke-width="3"/>
<path d="M256,43v -6" fill="none" stroke="black" stroke-width="3"/>
<path d="M278,43v -6" fill="none" stroke="black" stroke-width="3"/>
<path d="M300,48v -11" fill="none" stroke="black" stroke-width="3"/>
<path d="M323,43v -6" fill="none" stroke="black" stroke-width="3"/>
<path d="M345,43v -6" fill="none" stroke="black" stroke-width="3"/>
<path d="M367,43v -6" fill="none" stroke="black" stroke-width="3"/>
<path d="M389,43v -6" fill="none" stroke="black" stroke-width="3"/>
<path d="M411,48v -11" fill="none" stroke="black" stroke-width="3"/>
<path d="M433,43v -6" fill="none" stroke="black" stroke-width="3"/>
<path d="M455,43v -6" fill="none" stroke="black" stroke-width="3"/>
<path d="M477,43v -6" fill="none" stroke="black" stroke-width="3"/>
<path d="M499,43v -6" fill="none" stroke="black" stroke-width="3"/>
<path d="M522,48v -11" fill="none" stroke="black" stroke-width="3"/>
<path d="M79,396v -359" fill="none" stroke="black" stroke-width="3"/>
<path d="M92,396h -13" fill="none" stroke="black" stroke-width="3"/>
<path d="M86,375h -7" fill="none" stroke="black" stroke-width="3"/>
<path d="M86,354h -7" fill="none" stroke="black" stroke-width="3"/>
<path d="M86,333h -7" fill="none" stroke="black" stroke-width="3"/>
<path d="M86,312h -7" fill="none" stroke="black" stroke-width="3"/>
<path d="M92,291h -13" fill="none" stroke="black" stroke-width="3"/>
<path d="M86,271h -7" fill="none" stroke="black" stroke-width="3"/>
<path d="M86,250h -7" fill="none" stroke="black" stroke-width="3"/>
<path d="M86,229h -7" fill="none" stroke="black" stroke-width="3"/>
<path d="M86,208h -7" fill="none" stroke="black" stroke-width="3"/>
<path d="M92,187h -13" fill="none" stroke="black" stroke-width="3"/>
<path d="M86,166h -7" fill="none" stroke="black" stroke-width="3"/>
<path d="M86,145h -7" fill="none" stroke="black" stroke-width="3"/>
<path d="M86,124h -7" fill="none" stroke="black" stroke-width="3"/>
<path d="M86,103h -7" fill="none" stroke="black" stroke-width="3"/>
<path d="M92,82h -13" fill="none" stroke="black" stroke-width="3"/>
<path d="M92,82h -13" fill="none" stroke="black" stroke-width="3"/>
<path d="M86,61h -7" fill="none" stroke="black" stroke-width="3"/>
<path d="M86,40h -7" fill="none" stroke="black" stroke-width="3"/>
<text x="35" y="404" fill="black" font-size="21" font-family="Times" font-weight="bold">
0.00
</text>
<text x="35" y="299" fill="black" font-size="21" font-family="Times" font-weight="bold">
0.05
</text>
<text x="35" y="195" fill="black" font-size="21" font-family="Times" font-weight="bold">
0.10
</text>
<text x="35" y="90" fill="black" font-size="21" font-family="Times" font-weight="bold">
0.15
</text>
<path d="M522,396v -359" fill="none" stroke="black" stroke-width="3"/>
<path d="M508,396h 14" fill="none" stroke="black" stroke-width="3"/>
<path d="M515,375h 7" fill="none" stroke="black" stroke-width="3"/>
<path d="M515,354h 7" fill="none" stroke="black" stroke-width="3"/>
<path d="M515,333h 7" fill="none" stroke="black" stroke-width="3"/>
<path d="M515,312h 7" fill="none" stroke="black" stroke-width="3"/>
<path d="M508,291h 14" fill="none" stroke="black" stroke-width="3"/>
<path d="M515,271h 7" fill="none" stroke="black" stroke-width="3"/>
<path d="M515,250h 7" fill="none" stroke="black" stroke-width="3"/>
<path d="M515,229h 7" fill="none" stroke="black" stroke-width="3"/>
<path d="M515,208h 7" fill="none" stroke="black" stroke-width="3"/>
<path d="M508,187h 14" fill="none" stroke="black" stroke-width="3"/>
<path d="M515,166h 7" fill="none" stroke="black" stroke-width="3"/>
<path d="M515,145h 7" fill="none" stroke="black" stroke-width="3"/>
<path d="M515,124h 7" fill="none" stroke="black" stroke-width="3"/>
<path d="M515,103h 7" fill="none" stroke="black" stroke-width="3"/>
<path d="M508,82h 14" fill="none" stroke="black" stroke-width="3"/>
<path d="M508,82h 14" fill="none" stroke="black" stroke-width="3"/>
<path d="M515,61h 7" fill="none" stroke="black" stroke-width="3"/>
<path d="M515,40h 7" fill="none" stroke="black" stroke-width="3"/>
<rect x="113" y="-4" width="218" height="40" fill="white"/>
<text x="121" y="25" fill="black" font-size="31" font-family="Helvetica" font-weight="bold">
all-mean-freq
</text>
<path d="M80,395h 5v -30h 5v 30h 6v -62h 5v -79h 6v 141h 6v -156h 5v -32h 6v 188h 5v -219h 6v 78h 5v 141h 6v -298h 5v 220h 6v 78h 5v -125h 6v 63h 5v 62h 6v -78h 5v 78h 6v -93h 5v 63h 6v 30h 6v -62h 5v 32h 6v 30h 5v -15h 11v 15h 6v -78h 5v 48h 6v 30h
 5v -46h 6v 46h 16v -62h 6v 62h 16v -15h 6v 15h 17v -15h 5v 15h 194" fill="none" stroke="#ff0000" stroke-width="6"/>
<text x="382" y="130" fill="black" font-size="55" font-family="Helvetica" font-weight="bold">
 (0.07)
</text>
<path d="M332,107h 42" fill="none" stroke="#ff0000" stroke-width="6"/>
<rect x="113" y="-4" width="218" height="40" fill="white"/>
<text x="121" y="25" fill="black" font-size="31" font-family="Helvetica" font-weight="bold">
all-mean-freq
</text></svg>
