<?xml version="1.0" standalone="no"?>
<svg width="567" height="466" viewBox="0 0 567 466" xmlns="http://www.w3.org/2000/svg">
<title>
/bbx/output/_plots/example/sw/mute-freqs/plots/j-mean-freq.svg
</title>
<desc>
Creator: ROOT Version 5.34/14
CreationDate: Thu Jul 30 18:24:56 2015</desc>
<defs>
</defs>
<rect x="0" y="0" width="567" height="466" fill="white"/>
<rect x="79" y="37" width="443" height="359" fill="none" stroke="black"/>
<rect x="79" y="37" width="443" height="359" fill="none" stroke="black"/>
<path d="M79,396h 443" fill="none" stroke="black" stroke-width="3"/>
<path d="M79,385v 11" fill="none" stroke="black" stroke-width="3"/>
<path d="M101,391v 5" fill="none" stroke="black" stroke-width="3"/>
<path d="M124,391v 5" fill="none" stroke="black" stroke-width="3"/>
<path d="M146,391v 5" fill="none" stroke="black" stroke-width="3"/>
<path d="M168,391v 5" fill="none" stroke="black" stroke-width="3"/>
<path d="M190,385v 11" fill="none" stroke="black" stroke-width="3"/>
<path d="M212,391v 5" fill="none" stroke="black" stroke-width="3"/>
<path d="M234,391v 5" fill="none" stroke="black" stroke-width="3"/>
<path d="M256,391v 5" fill="none" stroke="black" stroke-width="3"/>
<path d="M278,391v 5" fill="none" stroke="black" stroke-width="3"/>
<path d="M300,385v 11" fill="none" stroke="black" stroke-width="3"/>
<path d="M323,391v 5" fill="none" stroke="black" stroke-width="3"/>
<path d="M345,391v 5" fill="none" stroke="black" stroke-width="3"/>
<path d="M367,391v 5" fill="none" stroke="black" stroke-width="3"/>
<path d="M389,391v 5" fill="none" stroke="black" stroke-width="3"/>
<path d="M411,385v 11" fill="none" stroke="black" stroke-width="3"/>
<path d="M433,391v 5" fill="none" stroke="black" stroke-width="3"/>
<path d="M455,391v 5" fill="none" stroke="black" stroke-width="3"/>
<path d="M477,391v 5" fill="none" stroke="black" stroke-width="3"/>
<path d="M499,391v 5" fill="none" stroke="black" stroke-width="3"/>
<path d="M522,385v 11" fill="none" stroke="black" stroke-width="3"/>
<text x="65" y="416" fill="black" font-size="21" font-family="Times" font-weight="bold">
0.0
</text>
<text x="176" y="416" fill="black" font-size="21" font-family="Times" font-weight="bold">
0.1
</text>
<text x="286" y="416" fill="black" font-size="21" font-family="Times" font-weight="bold">
0.2
</text>
<text x="397" y="416" fill="black" font-size="21" font-family="Times" font-weight="bold">
0.3
</text>
<text x="507" y="416" fill="black" font-size="21" font-family="Times" font-weight="bold">
0.4
</text>
<path d="M79,37h 443" fill="none" stroke="black" stroke-width="3"/>
<path d="M79,48v -11" fill="none" stroke="black" stroke-width="3"/>
<path d="M101,43v -6" fill="none" stroke="black" stroke-width="3"/>
<path d="M124,43v -6" fill="none" stroke="black" stroke-width="3"/>
<path d="M146,43v -6" fill="none" stroke="black" stroke-width="3"/>
<path d="M168,43v -6" fill="none" stroke="black" stroke-width="3"/>
<path d="M190,48v -11" fill="none" stroke="black" stroke-width="3"/>
<path d="M212,43v -6" fill="none" stroke="black" stroke-width="3"/>
<path d="M234,43v -6" fill="none" stroke="black" stroke-width="3"/>
<path d="M256,43v -6" fill="none" stroke="black" stroke-width="3"/>
<path d="M278,43v -6" fill="none" stroke="black" stroke-width="3"/>
<path d="M300,48v -11" fill="none" stroke="black" stroke-width="3"/>
<path d="M323,43v -6" fill="none" stroke="black" stroke-width="3"/>
<path d="M345,43v -6" fill="none" stroke="black" stroke-width="3"/>
<path d="M367,43v -6" fill="none" stroke="black" stroke-width="3"/>
<path d="M389,43v -6" fill="none" stroke="black" stroke-width="3"/>
<path d="M411,48v -11" fill="none" stroke="black" stroke-width="3"/>
<path d="M433,43v -6" fill="none" stroke="black" stroke-width="3"/>
<path d="M455,43v -6" fill="none" stroke="black" stroke-width="3"/>
<path d="M477,43v -6" fill="none" stroke="black" stroke-width="3"/>
<path d="M499,43v -6" fill="none" stroke="black" stroke-width="3"/>
<path d="M522,48v -11" fill="none" stroke="black" stroke-width="3"/>
<path d="M79,396v -359" fill="none" stroke="black" stroke-width="3"/>
<path d="M92,396h -13" fill="none" stroke="black" stroke-width="3"/>
<path d="M86,379h -7" fill="none" stroke="black" stroke-width="3"/>
<path d="M86,362h -7" fill="none" stroke="black" stroke-width="3"/>
<path d="M86,344h -7" fill="none" stroke="black" stroke-width="3"/>
<path d="M86,327h -7" fill="none" stroke="black" stroke-width="3"/>
<path d="M92,310h -13" fill="none" stroke="black" stroke-width="3"/>
<path d="M86,292h -7" fill="none" stroke="black" stroke-width="3"/>
<path d="M86,275h -7" fill="none" stroke="black" stroke-width="3"/>
<path d="M86,258h -7" fill="none" stroke="black" stroke-width="3"/>
<path d="M86,241h -7" fill="none" stroke="black" stroke-width="3"/>
<path d="M92,223h -13" fill="none" stroke="black" stroke-width="3"/>
<path d="M86,206h -7" fill="none" stroke="black" stroke-width="3"/>
<path d="M86,189h -7" fill="none" stroke="black" stroke-width="3"/>
<path d="M86,171h -7" fill="none" stroke="black" stroke-width="3"/>
<path d="M86,154h -7" fill="none" stroke="black" stroke-width="3"/>
<path d="M92,137h -13" fill="none" stroke="black" stroke-width="3"/>
<path d="M86,120h -7" fill="none" stroke="black" stroke-width="3"/>
<path d="M86,102h -7" fill="none" stroke="black" stroke-width="3"/>
<path d="M86,85h -7" fill="none" stroke="black" stroke-width="3"/>
<path d="M86,68h -7" fill="none" stroke="black" stroke-width="3"/>
<path d="M92,50h -13" fill="none" stroke="black" stroke-width="3"/>
<path d="M92,50h -13" fill="none" stroke="black" stroke-width="3"/>
<text x="35" y="404" fill="black" font-size="21" font-family="Times" font-weight="bold">
0.00
</text>
<text x="35" y="318" fill="black" font-size="21" font-family="Times" font-weight="bold">
0.05
</text>
<text x="35" y="231" fill="black" font-size="21" font-family="Times" font-weight="bold">
0.10
</text>
<text x="35" y="144" fill="black" font-size="21" font-family="Times" font-weight="bold">
0.15
</text>
<text x="35" y="58" fill="black" font-size="21" font-family="Times" font-weight="bold">
0.20
</text>
<path d="M522,396v -359" fill="none" stroke="black" stroke-width="3"/>
<path d="M508,396h 14" fill="none" stroke="black" stroke-width="3"/>
<path d="M515,379h 7" fill="none" stroke="black" stroke-width="3"/>
<path d="M515,362h 7" fill="none" stroke="black" stroke-width="3"/>
<path d="M515,344h 7" fill="none" stroke="black" stroke-width="3"/>
<path d="M515,327h 7" fill="none" stroke="black" stroke-width="3"/>
<path d="M508,310h 14" fill="none" stroke="black" stroke-width="3"/>
<path d="M515,292h 7" fill="none" stroke="black" stroke-width="3"/>
<path d="M515,275h 7" fill="none" stroke="black" stroke-width="3"/>
<path d="M515,258h 7" fill="none" stroke="black" stroke-width="3"/>
<path d="M515,241h 7" fill="none" stroke="black" stroke-width="3"/>
<path d="M508,223h 14" fill="none" stroke="black" stroke-width="3"/>
<path d="M515,206h 7" fill="none" stroke="black" stroke-width="3"/>
<path d="M515,189h 7" fill="none" stroke="black" stroke-width="3"/>
<path d="M515,171h 7" fill="none" stroke="black" stroke-width="3"/>
<path d="M515,154h 7" fill="none" stroke="black" stroke-width="3"/>
<path d="M508,137h 14" fill="none" stroke="black" stroke-width="3"/>
<path d="M515,120h 7" fill="none" stroke="black" stroke-width="3"/>
<path d="M515,102h 7" fill="none" stroke="black" stroke-width="3"/>
<path d="M515,85h 7" fill="none" stroke="black" stroke-width="3"/>
<path d="M515,68h 7" fill="none" stroke="black" stroke-width="3"/>
<path d="M508,50h 14" fill="none" stroke="black" stroke-width="3"/>
<path d="M508,50h 14" fill="none" stroke="black" stroke-width="3"/>
<rect x="113" y="-4" width="195" height="40" fill="white"/>
<text x="123" y="25" fill="black" font-size="31" font-family="Helvetica" font-weight="bold">
j-mean-freq
</text>
<path d="M80,395v -298h 5v 298h 22v -12h 6v 12h 5v -116h 6v 26h 5v -65h 6v 13h 5v 142h 11v -12h 6v -13h 5v -39h 11v 13h 11v -26h 11v 52h 6v 13h 6v -65h 5v 52h 6v 25h 11v -64h 5v 64h 11v -64h 6v 64h 11v -25h 5v 13h 6v 12h 5v -51h 6v 51h 5v -25h 6v 25h
 5v -12h 6v 12h 6v -25h 5v 13h 6v 12h 11v -12h 11v 12h 72v -12h 5v 12h 100" fill="none" stroke="#ff0000" stroke-width="6"/>
<text x="382" y="130" fill="black" font-size="55" font-family="Helvetica" font-weight="bold">
 (0.08)
</text>
<path d="M332,107h 42" fill="none" stroke="#ff0000" stroke-width="6"/>
<rect x="113" y="-4" width="195" height="40" fill="white"/>
<text x="123" y="25" fill="black" font-size="31" font-family="Helvetica" font-weight="bold">
j-mean-freq
</text></svg>
