<?xml version="1.0" standalone="no"?>
<svg width="567" height="466" viewBox="0 0 567 466" xmlns="http://www.w3.org/2000/svg">
<title>
/bbx/output/_plots/example/sw/mute-freqs/plots/v-mean-freq.svg
</title>
<desc>
Creator: ROOT Version 5.34/14
CreationDate: Wed Aug 19 19:38:11 2015</desc>
<defs>
</defs>
<rect x="0" y="0" width="567" height="466" fill="white"/>
<rect x="79" y="37" width="443" height="359" fill="none" stroke="black"/>
<rect x="79" y="37" width="443" height="359" fill="none" stroke="black"/>
<path d="M79,396h 443" fill="none" stroke="black" stroke-width="3"/>
<path d="M79,385v 11" fill="none" stroke="black" stroke-width="3"/>
<path d="M101,391v 5" fill="none" stroke="black" stroke-width="3"/>
<path d="M124,391v 5" fill="none" stroke="black" stroke-width="3"/>
<path d="M146,391v 5" fill="none" stroke="black" stroke-width="3"/>
<path d="M168,391v 5" fill="none" stroke="black" stroke-width="3"/>
<path d="M190,385v 11" fill="none" stroke="black" stroke-width="3"/>
<path d="M212,391v 5" fill="none" stroke="black" stroke-width="3"/>
<path d="M234,391v 5" fill="none" stroke="black" stroke-width="3"/>
<path d="M256,391v 5" fill="none" stroke="black" stroke-width="3"/>
<path d="M278,391v 5" fill="none" stroke="black" stroke-width="3"/>
<path d="M300,385v 11" fill="none" stroke="black" stroke-width="3"/>
<path d="M323,391v 5" fill="none" stroke="black" stroke-width="3"/>
<path d="M345,391v 5" fill="none" stroke="black" stroke-width="3"/>
<path d="M367,391v 5" fill="none" stroke="black" stroke-width="3"/>
<path d="M389,391v 5" fill="none" stroke="black" stroke-width="3"/>
<path d="M411,385v 11" fill="none" stroke="black" stroke-width="3"/>
<path d="M433,391v 5" fill="none" stroke="black" stroke-width="3"/>
<path d="M455,391v 5" fill="none" stroke="black" stroke-width="3"/>
<path d="M477,391v 5" fill="none" stroke="black" stroke-width="3"/>
<path d="M499,391v 5" fill="none" stroke="black" stroke-width="3"/>
<path d="M522,385v 11" fill="none" stroke="black" stroke-width="3"/>
<text x="65" y="416" fill="black" font-size="21" font-family="Times" font-weight="bold">
0.0
</text>
<text x="176" y="416" fill="black" font-size="21" font-family="Times" font-weight="bold">
0.1
</text>
<text x="286" y="416" fill="black" font-size="21" font-family="Times" font-weight="bold">
0.2
</text>
<text x="397" y="416" fill="black" font-size="21" font-family="Times" font-weight="bold">
0.3
</text>
<text x="507" y="416" fill="black" font-size="21" font-family="Times" font-weight="bold">
0.4
</text>
<path d="M79,37h 443" fill="none" stroke="black" stroke-width="3"/>
<path d="M79,48v -11" fill="none" stroke="black" stroke-width="3"/>
<path d="M101,43v -6" fill="none" stroke="black" stroke-width="3"/>
<path d="M124,43v -6" fill="none" stroke="black" stroke-width="3"/>
<path d="M146,43v -6" fill="none" stroke="black" stroke-width="3"/>
<path d="M168,43v -6" fill="none" stroke="black" stroke-width="3"/>
<path d="M190,48v -11" fill="none" stroke="black" stroke-width="3"/>
<path d="M212,43v -6" fill="none" stroke="black" stroke-width="3"/>
<path d="M234,43v -6" fill="none" stroke="black" stroke-width="3"/>
<path d="M256,43v -6" fill="none" stroke="black" stroke-width="3"/>
<path d="M278,43v -6" fill="none" stroke="black" stroke-width="3"/>
<path d="M300,48v -11" fill="none" stroke="black" stroke-width="3"/>
<path d="M323,43v -6" fill="none" stroke="black" stroke-width="3"/>
<path d="M345,43v -6" fill="none" stroke="black" stroke-width="3"/>
<path d="M367,43v -6" fill="none" stroke="black" stroke-width="3"/>
<path d="M389,43v -6" fill="none" stroke="black" stroke-width="3"/>
<path d="M411,48v -11" fill="none" stroke="black" stroke-width="3"/>
<path d="M433,43v -6" fill="none" stroke="black" stroke-width="3"/>
<path d="M455,43v -6" fill="none" stroke="black" stroke-width="3"/>
<path d="M477,43v -6" fill="none" stroke="black" stroke-width="3"/>
<path d="M499,43v -6" fill="none" stroke="black" stroke-width="3"/>
<path d="M522,48v -11" fill="none" stroke="black" stroke-width="3"/>
<path d="M79,396v -359" fill="none" stroke="black" stroke-width="3"/>
<path d="M92,396h -13" fill="none" stroke="black" stroke-width="3"/>
<path d="M86,378h -7" fill="none" stroke="black" stroke-width="3"/>
<path d="M86,360h -7" fill="none" stroke="black" stroke-width="3"/>
<path d="M86,342h -7" fill="none" stroke="black" stroke-width="3"/>
<path d="M92,324h -13" fill="none" stroke="black" stroke-width="3"/>
<path d="M86,306h -7" fill="none" stroke="black" stroke-width="3"/>
<path d="M86,288h -7" fill="none" stroke="black" stroke-width="3"/>
<path d="M86,270h -7" fill="none" stroke="black" stroke-width="3"/>
<path d="M92,252h -13" fill="none" stroke="black" stroke-width="3"/>
<path d="M86,233h -7" fill="none" stroke="black" stroke-width="3"/>
<path d="M86,215h -7" fill="none" stroke="black" stroke-width="3"/>
<path d="M86,197h -7" fill="none" stroke="black" stroke-width="3"/>
<path d="M92,179h -13" fill="none" stroke="black" stroke-width="3"/>
<path d="M86,161h -7" fill="none" stroke="black" stroke-width="3"/>
<path d="M86,143h -7" fill="none" stroke="black" stroke-width="3"/>
<path d="M86,125h -7" fill="none" stroke="black" stroke-width="3"/>
<path d="M92,107h -13" fill="none" stroke="black" stroke-width="3"/>
<path d="M92,107h -13" fill="none" stroke="black" stroke-width="3"/>
<path d="M86,89h -7" fill="none" stroke="black" stroke-width="3"/>
<path d="M86,71h -7" fill="none" stroke="black" stroke-width="3"/>
<path d="M86,53h -7" fill="none" stroke="black" stroke-width="3"/>
<text x="35" y="404" fill="black" font-size="21" font-family="Times" font-weight="bold">
0.00
</text>
<text x="35" y="332" fill="black" font-size="21" font-family="Times" font-weight="bold">
0.02
</text>
<text x="35" y="259" fill="black" font-size="21" font-family="Times" font-weight="bold">
0.04
</text>
<text x="35" y="187" fill="black" font-size="21" font-family="Times" font-weight="bold">
0.06
</text>
<text x="35" y="115" fill="black" font-size="21" font-family="Times" font-weight="bold">
0.08
</text>
<path d="M522,396v -359" fill="none" stroke="black" stroke-width="3"/>
<path d="M508,396h 14" fill="none" stroke="black" stroke-width="3"/>
<path d="M515,378h 7" fill="none" stroke="black" stroke-width="3"/>
<path d="M515,360h 7" fill="none" stroke="black" stroke-width="3"/>
<path d="M515,342h 7" fill="none" stroke="black" stroke-width="3"/>
<path d="M508,324h 14" fill="none" stroke="black" stroke-width="3"/>
<path d="M515,306h 7" fill="none" stroke="black" stroke-width="3"/>
<path d="M515,288h 7" fill="none" stroke="black" stroke-width="3"/>
<path d="M515,270h 7" fill="none" stroke="black" stroke-width="3"/>
<path d="M508,252h 14" fill="none" stroke="black" stroke-width="3"/>
<path d="M515,233h 7" fill="none" stroke="black" stroke-width="3"/>
<path d="M515,215h 7" fill="none" stroke="black" stroke-width="3"/>
<path d="M515,197h 7" fill="none" stroke="black" stroke-width="3"/>
<path d="M508,179h 14" fill="none" stroke="black" stroke-width="3"/>
<path d="M515,161h 7" fill="none" stroke="black" stroke-width="3"/>
<path d="M515,143h 7" fill="none" stroke="black" stroke-width="3"/>
<path d="M515,125h 7" fill="none" stroke="black" stroke-width="3"/>
<path d="M508,107h 14" fill="none" stroke="black" stroke-width="3"/>
<path d="M508,107h 14" fill="none" stroke="black" stroke-width="3"/>
<path d="M515,89h 7" fill="none" stroke="black" stroke-width="3"/>
<path d="M515,71h 7" fill="none" stroke="black" stroke-width="3"/>
<path d="M515,53h 7" fill="none" stroke="black" stroke-width="3"/>
<rect x="113" y="-4" width="197" height="40" fill="white"/>
<text x="121" y="25" fill="black" font-size="31" font-family="Helvetica" font-weight="bold">
v-mean-freq
</text>
<path d="M80,395v -53h 5v 53h 5v -298h 6v 298h 5v -243h 6v 81h 6v 109h 5v -190h 6v -55h 5v 82h 6v 108h 5v -108h 6v 27h 5v 81h 6v -81h 5v -82h 6v 163h 5v 55h 6v -55h 11v 108h 5v -26h 6v 26h 11v -80h 6v 80h 5v -80h 6v 27h 5v 27h 11v 26h 6v -26h 5v 26h
 6v -80h 5v 80h 17v -53h 11v 53h 17v -26h 5v 26h 17v -26h 5v 26h 183" fill="none" stroke="#ff0000" stroke-width="6"/>
<text x="382" y="130" fill="black" font-size="55" font-family="Helvetica" font-weight="bold">
 (0.07)
</text>
<path d="M332,107h 42" fill="none" stroke="#ff0000" stroke-width="6"/>
<rect x="113" y="-4" width="197" height="40" fill="white"/>
<text x="121" y="25" fill="black" font-size="31" font-family="Helvetica" font-weight="bold">
v-mean-freq
</text></svg>
