<?xml version="1.0" standalone="no"?>
<svg width="567" height="466" viewBox="0 0 567 466" xmlns="http://www.w3.org/2000/svg">
<title>
/bbx/output/_plots/example/sw/v_5p_del/plots/IGHV3-23D_star_01-v_5p_del.svg
</title>
<desc>
Creator: ROOT Version 5.34/14
CreationDate: Wed Aug 19 19:38:07 2015</desc>
<defs>
</defs>
<rect x="0" y="0" width="567" height="466" fill="white"/>
<rect x="79" y="37" width="443" height="359" fill="none" stroke="black"/>
<rect x="79" y="37" width="443" height="359" fill="none" stroke="black"/>
<path d="M79,396h 443" fill="none" stroke="black" stroke-width="3"/>
<path d="M170,385v 11" fill="none" stroke="black" stroke-width="3"/>
<path d="M190,391v 5" fill="none" stroke="black" stroke-width="3"/>
<path d="M210,391v 5" fill="none" stroke="black" stroke-width="3"/>
<path d="M230,391v 5" fill="none" stroke="black" stroke-width="3"/>
<path d="M250,391v 5" fill="none" stroke="black" stroke-width="3"/>
<path d="M270,385v 11" fill="none" stroke="black" stroke-width="3"/>
<path d="M290,391v 5" fill="none" stroke="black" stroke-width="3"/>
<path d="M311,391v 5" fill="none" stroke="black" stroke-width="3"/>
<path d="M331,391v 5" fill="none" stroke="black" stroke-width="3"/>
<path d="M351,391v 5" fill="none" stroke="black" stroke-width="3"/>
<path d="M371,385v 11" fill="none" stroke="black" stroke-width="3"/>
<path d="M391,391v 5" fill="none" stroke="black" stroke-width="3"/>
<path d="M411,391v 5" fill="none" stroke="black" stroke-width="3"/>
<path d="M431,391v 5" fill="none" stroke="black" stroke-width="3"/>
<path d="M451,391v 5" fill="none" stroke="black" stroke-width="3"/>
<path d="M471,385v 11" fill="none" stroke="black" stroke-width="3"/>
<path d="M170,385v 11" fill="none" stroke="black" stroke-width="3"/>
<path d="M150,391v 5" fill="none" stroke="black" stroke-width="3"/>
<path d="M130,391v 5" fill="none" stroke="black" stroke-width="3"/>
<path d="M110,391v 5" fill="none" stroke="black" stroke-width="3"/>
<path d="M89,391v 5" fill="none" stroke="black" stroke-width="3"/>
<path d="M471,385v 11" fill="none" stroke="black" stroke-width="3"/>
<path d="M491,391v 5" fill="none" stroke="black" stroke-width="3"/>
<path d="M512,391v 5" fill="none" stroke="black" stroke-width="3"/>
<text x="153" y="416" fill="black" font-size="21" font-family="Times" font-weight="bold">
210
</text>
<text x="253" y="416" fill="black" font-size="21" font-family="Times" font-weight="bold">
215
</text>
<text x="354" y="416" fill="black" font-size="21" font-family="Times" font-weight="bold">
220
</text>
<text x="455" y="416" fill="black" font-size="21" font-family="Times" font-weight="bold">
225
</text>
<path d="M79,37h 443" fill="none" stroke="black" stroke-width="3"/>
<path d="M170,48v -11" fill="none" stroke="black" stroke-width="3"/>
<path d="M190,43v -6" fill="none" stroke="black" stroke-width="3"/>
<path d="M210,43v -6" fill="none" stroke="black" stroke-width="3"/>
<path d="M230,43v -6" fill="none" stroke="black" stroke-width="3"/>
<path d="M250,43v -6" fill="none" stroke="black" stroke-width="3"/>
<path d="M270,48v -11" fill="none" stroke="black" stroke-width="3"/>
<path d="M290,43v -6" fill="none" stroke="black" stroke-width="3"/>
<path d="M311,43v -6" fill="none" stroke="black" stroke-width="3"/>
<path d="M331,43v -6" fill="none" stroke="black" stroke-width="3"/>
<path d="M351,43v -6" fill="none" stroke="black" stroke-width="3"/>
<path d="M371,48v -11" fill="none" stroke="black" stroke-width="3"/>
<path d="M391,43v -6" fill="none" stroke="black" stroke-width="3"/>
<path d="M411,43v -6" fill="none" stroke="black" stroke-width="3"/>
<path d="M431,43v -6" fill="none" stroke="black" stroke-width="3"/>
<path d="M451,43v -6" fill="none" stroke="black" stroke-width="3"/>
<path d="M471,48v -11" fill="none" stroke="black" stroke-width="3"/>
<path d="M170,48v -11" fill="none" stroke="black" stroke-width="3"/>
<path d="M150,43v -6" fill="none" stroke="black" stroke-width="3"/>
<path d="M130,43v -6" fill="none" stroke="black" stroke-width="3"/>
<path d="M110,43v -6" fill="none" stroke="black" stroke-width="3"/>
<path d="M89,43v -6" fill="none" stroke="black" stroke-width="3"/>
<path d="M471,48v -11" fill="none" stroke="black" stroke-width="3"/>
<path d="M491,43v -6" fill="none" stroke="black" stroke-width="3"/>
<path d="M512,43v -6" fill="none" stroke="black" stroke-width="3"/>
<path d="M79,396v -359" fill="none" stroke="black" stroke-width="3"/>
<path d="M92,396h -13" fill="none" stroke="black" stroke-width="3"/>
<path d="M86,381h -7" fill="none" stroke="black" stroke-width="3"/>
<path d="M86,366h -7" fill="none" stroke="black" stroke-width="3"/>
<path d="M86,351h -7" fill="none" stroke="black" stroke-width="3"/>
<path d="M86,336h -7" fill="none" stroke="black" stroke-width="3"/>
<path d="M92,321h -13" fill="none" stroke="black" stroke-width="3"/>
<path d="M86,306h -7" fill="none" stroke="black" stroke-width="3"/>
<path d="M86,291h -7" fill="none" stroke="black" stroke-width="3"/>
<path d="M86,277h -7" fill="none" stroke="black" stroke-width="3"/>
<path d="M86,262h -7" fill="none" stroke="black" stroke-width="3"/>
<path d="M92,247h -13" fill="none" stroke="black" stroke-width="3"/>
<path d="M86,232h -7" fill="none" stroke="black" stroke-width="3"/>
<path d="M86,217h -7" fill="none" stroke="black" stroke-width="3"/>
<path d="M86,202h -7" fill="none" stroke="black" stroke-width="3"/>
<path d="M86,187h -7" fill="none" stroke="black" stroke-width="3"/>
<path d="M92,172h -13" fill="none" stroke="black" stroke-width="3"/>
<path d="M86,157h -7" fill="none" stroke="black" stroke-width="3"/>
<path d="M86,142h -7" fill="none" stroke="black" stroke-width="3"/>
<path d="M86,127h -7" fill="none" stroke="black" stroke-width="3"/>
<path d="M86,112h -7" fill="none" stroke="black" stroke-width="3"/>
<path d="M92,97h -13" fill="none" stroke="black" stroke-width="3"/>
<path d="M92,97h -13" fill="none" stroke="black" stroke-width="3"/>
<path d="M86,82h -7" fill="none" stroke="black" stroke-width="3"/>
<path d="M86,67h -7" fill="none" stroke="black" stroke-width="3"/>
<path d="M86,52h -7" fill="none" stroke="black" stroke-width="3"/>
<path d="M86,37h -7" fill="none" stroke="black" stroke-width="3"/>
<text x="63" y="404" fill="black" font-size="21" font-family="Times" font-weight="bold">
0
</text>
<text x="64" y="329" fill="black" font-size="21" font-family="Times" font-weight="bold">
1
</text>
<text x="63" y="254" fill="black" font-size="21" font-family="Times" font-weight="bold">
2
</text>
<text x="63" y="179" fill="black" font-size="21" font-family="Times" font-weight="bold">
3
</text>
<text x="63" y="105" fill="black" font-size="21" font-family="Times" font-weight="bold">
4
</text>
<path d="M522,396v -359" fill="none" stroke="black" stroke-width="3"/>
<path d="M508,396h 14" fill="none" stroke="black" stroke-width="3"/>
<path d="M515,381h 7" fill="none" stroke="black" stroke-width="3"/>
<path d="M515,366h 7" fill="none" stroke="black" stroke-width="3"/>
<path d="M515,351h 7" fill="none" stroke="black" stroke-width="3"/>
<path d="M515,336h 7" fill="none" stroke="black" stroke-width="3"/>
<path d="M508,321h 14" fill="none" stroke="black" stroke-width="3"/>
<path d="M515,306h 7" fill="none" stroke="black" stroke-width="3"/>
<path d="M515,291h 7" fill="none" stroke="black" stroke-width="3"/>
<path d="M515,277h 7" fill="none" stroke="black" stroke-width="3"/>
<path d="M515,262h 7" fill="none" stroke="black" stroke-width="3"/>
<path d="M508,247h 14" fill="none" stroke="black" stroke-width="3"/>
<path d="M515,232h 7" fill="none" stroke="black" stroke-width="3"/>
<path d="M515,217h 7" fill="none" stroke="black" stroke-width="3"/>
<path d="M515,202h 7" fill="none" stroke="black" stroke-width="3"/>
<path d="M515,187h 7" fill="none" stroke="black" stroke-width="3"/>
<path d="M508,172h 14" fill="none" stroke="black" stroke-width="3"/>
<path d="M515,157h 7" fill="none" stroke="black" stroke-width="3"/>
<path d="M515,142h 7" fill="none" stroke="black" stroke-width="3"/>
<path d="M515,127h 7" fill="none" stroke="black" stroke-width="3"/>
<path d="M515,112h 7" fill="none" stroke="black" stroke-width="3"/>
<path d="M508,97h 14" fill="none" stroke="black" stroke-width="3"/>
<path d="M508,97h 14" fill="none" stroke="black" stroke-width="3"/>
<path d="M515,82h 7" fill="none" stroke="black" stroke-width="3"/>
<path d="M515,67h 7" fill="none" stroke="black" stroke-width="3"/>
<path d="M515,52h 7" fill="none" stroke="black" stroke-width="3"/>
<path d="M515,37h 7" fill="none" stroke="black" stroke-width="3"/>
<rect x="113" y="-4" width="397" height="40" fill="white"/>
<text x="130" y="23" fill="black" font-size="26" font-family="Helvetica" font-weight="bold">
IGHV3-23D_star_01-v_5p_del
</text>
<path d="M89,352v -102" fill="none" stroke="#ff0000" stroke-width="6"/>
<path d="M89,243v -102" fill="none" stroke="#ff0000" stroke-width="6"/>
<g stroke="#ff0000" stroke-width="6" fill="#ff0000">
<circle cx="89" cy="247" r="3.5"/>
</g>
<path d="M150,247v -147" fill="none" stroke="#ff0000" stroke-width="6"/>
<path d="M150,94v -57" fill="none" stroke="#ff0000" stroke-width="6"/>
<g stroke="#ff0000" stroke-width="6" fill="#ff0000">
<circle cx="150" cy="97" r="3.5"/>
</g>
<path d="M250,247v -147" fill="none" stroke="#ff0000" stroke-width="6"/>
<path d="M250,94v -57" fill="none" stroke="#ff0000" stroke-width="6"/>
<g stroke="#ff0000" stroke-width="6" fill="#ff0000">
<circle cx="250" cy="97" r="3.5"/>
</g>
<path d="M512,301v -126" fill="none" stroke="#ff0000" stroke-width="6"/>
<path d="M512,169v -127" fill="none" stroke="#ff0000" stroke-width="6"/>
<g stroke="#ff0000" stroke-width="6" fill="#ff0000">
<circle cx="512" cy="172" r="3.5"/>
</g>
<path d="M80,395v -148h 19v 148h 41v -298h 20v 298h 80v -298h 20v 298h 241v -223h 21" fill="none" stroke="#ff0000" stroke-width="6"/>
<path d="M332,107h 42" fill="none" stroke="#ff0000" stroke-width="6"/>
<rect x="113" y="-4" width="397" height="40" fill="white"/>
<text x="130" y="23" fill="black" font-size="26" font-family="Helvetica" font-weight="bold">
IGHV3-23D_star_01-v_5p_del
</text></svg>
