<?xml version="1.0" standalone="no"?>
<svg width="567" height="466" viewBox="0 0 567 466" xmlns="http://www.w3.org/2000/svg">
<title>
/bbx/output/_plots/example/hmm/mute-freqs/d/plots/IGHD4-17_star_01.svg
</title>
<desc>
Creator: ROOT Version 5.34/14
CreationDate: Wed Aug 19 19:38:32 2015</desc>
<defs>
</defs>
<rect x="0" y="0" width="567" height="466" fill="white"/>
<rect x="79" y="37" width="443" height="359" fill="none" stroke="black"/>
<rect x="79" y="37" width="443" height="359" fill="none" stroke="black"/>
<path d="M79,396h 443" fill="none" stroke="black" stroke-width="3"/>
<path d="M93,385v 11" fill="none" stroke="black" stroke-width="3"/>
<path d="M121,391v 5" fill="none" stroke="black" stroke-width="3"/>
<path d="M148,391v 5" fill="none" stroke="black" stroke-width="3"/>
<path d="M176,391v 5" fill="none" stroke="black" stroke-width="3"/>
<path d="M204,391v 5" fill="none" stroke="black" stroke-width="3"/>
<path d="M231,385v 11" fill="none" stroke="black" stroke-width="3"/>
<path d="M259,391v 5" fill="none" stroke="black" stroke-width="3"/>
<path d="M287,391v 5" fill="none" stroke="black" stroke-width="3"/>
<path d="M314,391v 5" fill="none" stroke="black" stroke-width="3"/>
<path d="M342,391v 5" fill="none" stroke="black" stroke-width="3"/>
<path d="M370,385v 11" fill="none" stroke="black" stroke-width="3"/>
<path d="M397,391v 5" fill="none" stroke="black" stroke-width="3"/>
<path d="M425,391v 5" fill="none" stroke="black" stroke-width="3"/>
<path d="M452,391v 5" fill="none" stroke="black" stroke-width="3"/>
<path d="M480,391v 5" fill="none" stroke="black" stroke-width="3"/>
<path d="M508,385v 11" fill="none" stroke="black" stroke-width="3"/>
<path d="M93,385v 11" fill="none" stroke="black" stroke-width="3"/>
<path d="M508,385v 11" fill="none" stroke="black" stroke-width="3"/>
<text x="87" y="416" fill="black" font-size="21" font-family="Times" font-weight="bold">
0
</text>
<text x="226" y="416" fill="black" font-size="21" font-family="Times" font-weight="bold">
5
</text>
<text x="358" y="416" fill="black" font-size="21" font-family="Times" font-weight="bold">
10
</text>
<text x="496" y="416" fill="black" font-size="21" font-family="Times" font-weight="bold">
15
</text>
<path d="M79,37h 443" fill="none" stroke="black" stroke-width="3"/>
<path d="M93,48v -11" fill="none" stroke="black" stroke-width="3"/>
<path d="M121,43v -6" fill="none" stroke="black" stroke-width="3"/>
<path d="M148,43v -6" fill="none" stroke="black" stroke-width="3"/>
<path d="M176,43v -6" fill="none" stroke="black" stroke-width="3"/>
<path d="M204,43v -6" fill="none" stroke="black" stroke-width="3"/>
<path d="M231,48v -11" fill="none" stroke="black" stroke-width="3"/>
<path d="M259,43v -6" fill="none" stroke="black" stroke-width="3"/>
<path d="M287,43v -6" fill="none" stroke="black" stroke-width="3"/>
<path d="M314,43v -6" fill="none" stroke="black" stroke-width="3"/>
<path d="M342,43v -6" fill="none" stroke="black" stroke-width="3"/>
<path d="M370,48v -11" fill="none" stroke="black" stroke-width="3"/>
<path d="M397,43v -6" fill="none" stroke="black" stroke-width="3"/>
<path d="M425,43v -6" fill="none" stroke="black" stroke-width="3"/>
<path d="M452,43v -6" fill="none" stroke="black" stroke-width="3"/>
<path d="M480,43v -6" fill="none" stroke="black" stroke-width="3"/>
<path d="M508,48v -11" fill="none" stroke="black" stroke-width="3"/>
<path d="M93,48v -11" fill="none" stroke="black" stroke-width="3"/>
<path d="M508,48v -11" fill="none" stroke="black" stroke-width="3"/>
<path d="M79,396v -359" fill="none" stroke="black" stroke-width="3"/>
<path d="M92,396h -13" fill="none" stroke="black" stroke-width="3"/>
<path d="M86,374h -7" fill="none" stroke="black" stroke-width="3"/>
<path d="M86,351h -7" fill="none" stroke="black" stroke-width="3"/>
<path d="M86,329h -7" fill="none" stroke="black" stroke-width="3"/>
<path d="M92,306h -13" fill="none" stroke="black" stroke-width="3"/>
<path d="M86,284h -7" fill="none" stroke="black" stroke-width="3"/>
<path d="M86,262h -7" fill="none" stroke="black" stroke-width="3"/>
<path d="M86,239h -7" fill="none" stroke="black" stroke-width="3"/>
<path d="M92,217h -13" fill="none" stroke="black" stroke-width="3"/>
<path d="M86,194h -7" fill="none" stroke="black" stroke-width="3"/>
<path d="M86,172h -7" fill="none" stroke="black" stroke-width="3"/>
<path d="M86,149h -7" fill="none" stroke="black" stroke-width="3"/>
<path d="M92,127h -13" fill="none" stroke="black" stroke-width="3"/>
<path d="M86,105h -7" fill="none" stroke="black" stroke-width="3"/>
<path d="M86,82h -7" fill="none" stroke="black" stroke-width="3"/>
<path d="M86,60h -7" fill="none" stroke="black" stroke-width="3"/>
<path d="M92,37h -13" fill="none" stroke="black" stroke-width="3"/>
<path d="M92,37h -13" fill="none" stroke="black" stroke-width="3"/>
<text x="46" y="404" fill="black" font-size="21" font-family="Times" font-weight="bold">
0.0
</text>
<text x="46" y="314" fill="black" font-size="21" font-family="Times" font-weight="bold">
0.2
</text>
<text x="46" y="224" fill="black" font-size="21" font-family="Times" font-weight="bold">
0.4
</text>
<text x="46" y="134" fill="black" font-size="21" font-family="Times" font-weight="bold">
0.6
</text>
<text x="46" y="45" fill="black" font-size="21" font-family="Times" font-weight="bold">
0.8
</text>
<path d="M522,396v -359" fill="none" stroke="black" stroke-width="3"/>
<path d="M508,396h 14" fill="none" stroke="black" stroke-width="3"/>
<path d="M515,374h 7" fill="none" stroke="black" stroke-width="3"/>
<path d="M515,351h 7" fill="none" stroke="black" stroke-width="3"/>
<path d="M515,329h 7" fill="none" stroke="black" stroke-width="3"/>
<path d="M508,306h 14" fill="none" stroke="black" stroke-width="3"/>
<path d="M515,284h 7" fill="none" stroke="black" stroke-width="3"/>
<path d="M515,262h 7" fill="none" stroke="black" stroke-width="3"/>
<path d="M515,239h 7" fill="none" stroke="black" stroke-width="3"/>
<path d="M508,217h 14" fill="none" stroke="black" stroke-width="3"/>
<path d="M515,194h 7" fill="none" stroke="black" stroke-width="3"/>
<path d="M515,172h 7" fill="none" stroke="black" stroke-width="3"/>
<path d="M515,149h 7" fill="none" stroke="black" stroke-width="3"/>
<path d="M508,127h 14" fill="none" stroke="black" stroke-width="3"/>
<path d="M515,105h 7" fill="none" stroke="black" stroke-width="3"/>
<path d="M515,82h 7" fill="none" stroke="black" stroke-width="3"/>
<path d="M515,60h 7" fill="none" stroke="black" stroke-width="3"/>
<path d="M508,37h 14" fill="none" stroke="black" stroke-width="3"/>
<path d="M508,37h 14" fill="none" stroke="black" stroke-width="3"/>
<rect x="113" y="-4" width="303" height="38" fill="white"/>
<text x="136" y="24" fill="black" font-size="30" font-family="Helvetica" font-weight="bold">
IGHD4-17_star_01
</text>
<path d="M93,393v -51" fill="none" stroke="#ff0000" stroke-width="6"/>
<g stroke="#ff0000" stroke-width="6" fill="#ff0000">
<circle cx="93" cy="396" r="3.5"/>
</g>
<path d="M121,191v -91" fill="none" stroke="#ff0000" stroke-width="6"/>
<path d="M121,94v -57" fill="none" stroke="#ff0000" stroke-width="6"/>
<path d="M107,97h 11" fill="none" stroke="#ff0000" stroke-width="6"/>
<path d="M124,97h 11" fill="none" stroke="#ff0000" stroke-width="6"/>
<g stroke="#ff0000" stroke-width="6" fill="#ff0000">
<circle cx="121" cy="97" r="3.5"/>
</g>
<path d="M148,341v -91" fill="none" stroke="#ff0000" stroke-width="6"/>
<path d="M148,243v -91" fill="none" stroke="#ff0000" stroke-width="6"/>
<path d="M135,247h 10" fill="none" stroke="#ff0000" stroke-width="6"/>
<path d="M152,247h 10" fill="none" stroke="#ff0000" stroke-width="6"/>
<g stroke="#ff0000" stroke-width="6" fill="#ff0000">
<circle cx="148" cy="247" r="3.5"/>
</g>
<path d="M176,393v -17" fill="none" stroke="#ff0000" stroke-width="6"/>
<g stroke="#ff0000" stroke-width="6" fill="#ff0000">
<circle cx="176" cy="396" r="3.5"/>
</g>
<path d="M204,364v -46" fill="none" stroke="#ff0000" stroke-width="6"/>
<path d="M204,311v -46" fill="none" stroke="#ff0000" stroke-width="6"/>
<path d="M190,315h 10" fill="none" stroke="#ff0000" stroke-width="6"/>
<path d="M207,315h 11" fill="none" stroke="#ff0000" stroke-width="6"/>
<g stroke="#ff0000" stroke-width="6" fill="#ff0000">
<circle cx="204" cy="315" r="3.5"/>
</g>
<path d="M231,329v -52" fill="none" stroke="#ff0000" stroke-width="6"/>
<path d="M231,271v -52" fill="none" stroke="#ff0000" stroke-width="6"/>
<path d="M218,274h 10" fill="none" stroke="#ff0000" stroke-width="6"/>
<path d="M235,274h 10" fill="none" stroke="#ff0000" stroke-width="6"/>
<g stroke="#ff0000" stroke-width="6" fill="#ff0000">
<circle cx="231" cy="274" r="3.5"/>
</g>
<path d="M259,396v -37" fill="none" stroke="#ff0000" stroke-width="6"/>
<path d="M259,352v -38" fill="none" stroke="#ff0000" stroke-width="6"/>
<path d="M245,355h 11" fill="none" stroke="#ff0000" stroke-width="6"/>
<path d="M262,355h 11" fill="none" stroke="#ff0000" stroke-width="6"/>
<g stroke="#ff0000" stroke-width="6" fill="#ff0000">
<circle cx="259" cy="355" r="3.5"/>
</g>
<path d="M287,396v -34" fill="none" stroke="#ff0000" stroke-width="6"/>
<path d="M287,355v -35" fill="none" stroke="#ff0000" stroke-width="6"/>
<path d="M273,359h 10" fill="none" stroke="#ff0000" stroke-width="6"/>
<path d="M290,359h 10" fill="none" stroke="#ff0000" stroke-width="6"/>
<g stroke="#ff0000" stroke-width="6" fill="#ff0000">
<circle cx="287" cy="359" r="3.5"/>
</g>
<path d="M314,396v -34" fill="none" stroke="#ff0000" stroke-width="6"/>
<path d="M314,355v -35" fill="none" stroke="#ff0000" stroke-width="6"/>
<path d="M300,359h 11" fill="none" stroke="#ff0000" stroke-width="6"/>
<path d="M318,359h 10" fill="none" stroke="#ff0000" stroke-width="6"/>
<g stroke="#ff0000" stroke-width="6" fill="#ff0000">
<circle cx="314" cy="359" r="3.5"/>
</g>
<path d="M342,393v -15" fill="none" stroke="#ff0000" stroke-width="6"/>
<g stroke="#ff0000" stroke-width="6" fill="#ff0000">
<circle cx="342" cy="396" r="3.5"/>
</g>
<path d="M370,396v -34" fill="none" stroke="#ff0000" stroke-width="6"/>
<path d="M370,355v -35" fill="none" stroke="#ff0000" stroke-width="6"/>
<path d="M356,359h 10" fill="none" stroke="#ff0000" stroke-width="6"/>
<path d="M373,359h 10" fill="none" stroke="#ff0000" stroke-width="6"/>
<g stroke="#ff0000" stroke-width="6" fill="#ff0000">
<circle cx="370" cy="359" r="3.5"/>
</g>
<path d="M397,393v -15" fill="none" stroke="#ff0000" stroke-width="6"/>
<g stroke="#ff0000" stroke-width="6" fill="#ff0000">
<circle cx="397" cy="396" r="3.5"/>
</g>
<path d="M425,368v -43" fill="none" stroke="#ff0000" stroke-width="6"/>
<path d="M425,318v -43" fill="none" stroke="#ff0000" stroke-width="6"/>
<path d="M411,321h 11" fill="none" stroke="#ff0000" stroke-width="6"/>
<path d="M428,321h 11" fill="none" stroke="#ff0000" stroke-width="6"/>
<g stroke="#ff0000" stroke-width="6" fill="#ff0000">
<circle cx="425" cy="321" r="3.5"/>
</g>
<path d="M452,396v -34" fill="none" stroke="#ff0000" stroke-width="6"/>
<path d="M452,355v -35" fill="none" stroke="#ff0000" stroke-width="6"/>
<path d="M439,359h 10" fill="none" stroke="#ff0000" stroke-width="6"/>
<path d="M456,359h 10" fill="none" stroke="#ff0000" stroke-width="6"/>
<g stroke="#ff0000" stroke-width="6" fill="#ff0000">
<circle cx="452" cy="359" r="3.5"/>
</g>
<path d="M480,396v -34" fill="none" stroke="#ff0000" stroke-width="6"/>
<path d="M480,355v -35" fill="none" stroke="#ff0000" stroke-width="6"/>
<path d="M466,359h 11" fill="none" stroke="#ff0000" stroke-width="6"/>
<path d="M483,359h 11" fill="none" stroke="#ff0000" stroke-width="6"/>
<g stroke="#ff0000" stroke-width="6" fill="#ff0000">
<circle cx="480" cy="359" r="3.5"/>
</g>
<path d="M508,393v -15" fill="none" stroke="#ff0000" stroke-width="6"/>
<g stroke="#ff0000" stroke-width="6" fill="#ff0000">
<circle cx="508" cy="396" r="3.5"/>
</g>
<path d="M332,107h 42" fill="none" stroke="#ff0000" stroke-width="6"/>
<rect x="113" y="-4" width="303" height="38" fill="white"/>
<text x="136" y="24" fill="black" font-size="30" font-family="Helvetica" font-weight="bold">
IGHD4-17_star_01
</text></svg>
