<?xml version="1.0" standalone="no"?>
<svg width="567" height="466" viewBox="0 0 567 466" xmlns="http://www.w3.org/2000/svg">
<title>
/bbx/output/_plots/example/hmm/mute-freqs/d/plots/IGHD3-10_star_01.svg
</title>
<desc>
Creator: ROOT Version 5.34/14
CreationDate: Wed Aug 19 19:38:32 2015</desc>
<defs>
</defs>
<rect x="0" y="0" width="567" height="466" fill="white"/>
<rect x="79" y="37" width="443" height="359" fill="none" stroke="black"/>
<rect x="79" y="37" width="443" height="359" fill="none" stroke="black"/>
<path d="M79,396h 443" fill="none" stroke="black" stroke-width="3"/>
<path d="M124,385v 11" fill="none" stroke="black" stroke-width="3"/>
<path d="M153,391v 5" fill="none" stroke="black" stroke-width="3"/>
<path d="M183,391v 5" fill="none" stroke="black" stroke-width="3"/>
<path d="M212,391v 5" fill="none" stroke="black" stroke-width="3"/>
<path d="M242,391v 5" fill="none" stroke="black" stroke-width="3"/>
<path d="M271,385v 11" fill="none" stroke="black" stroke-width="3"/>
<path d="M300,391v 5" fill="none" stroke="black" stroke-width="3"/>
<path d="M330,391v 5" fill="none" stroke="black" stroke-width="3"/>
<path d="M359,391v 5" fill="none" stroke="black" stroke-width="3"/>
<path d="M389,391v 5" fill="none" stroke="black" stroke-width="3"/>
<path d="M418,385v 11" fill="none" stroke="black" stroke-width="3"/>
<path d="M124,385v 11" fill="none" stroke="black" stroke-width="3"/>
<path d="M94,391v 5" fill="none" stroke="black" stroke-width="3"/>
<path d="M418,385v 11" fill="none" stroke="black" stroke-width="3"/>
<path d="M448,391v 5" fill="none" stroke="black" stroke-width="3"/>
<path d="M477,391v 5" fill="none" stroke="black" stroke-width="3"/>
<path d="M507,391v 5" fill="none" stroke="black" stroke-width="3"/>
<text x="117" y="416" fill="black" font-size="21" font-family="Times" font-weight="bold">
5
</text>
<text x="259" y="416" fill="black" font-size="21" font-family="Times" font-weight="bold">
10
</text>
<text x="406" y="416" fill="black" font-size="21" font-family="Times" font-weight="bold">
15
</text>
<path d="M79,37h 443" fill="none" stroke="black" stroke-width="3"/>
<path d="M124,48v -11" fill="none" stroke="black" stroke-width="3"/>
<path d="M153,43v -6" fill="none" stroke="black" stroke-width="3"/>
<path d="M183,43v -6" fill="none" stroke="black" stroke-width="3"/>
<path d="M212,43v -6" fill="none" stroke="black" stroke-width="3"/>
<path d="M242,43v -6" fill="none" stroke="black" stroke-width="3"/>
<path d="M271,48v -11" fill="none" stroke="black" stroke-width="3"/>
<path d="M300,43v -6" fill="none" stroke="black" stroke-width="3"/>
<path d="M330,43v -6" fill="none" stroke="black" stroke-width="3"/>
<path d="M359,43v -6" fill="none" stroke="black" stroke-width="3"/>
<path d="M389,43v -6" fill="none" stroke="black" stroke-width="3"/>
<path d="M418,48v -11" fill="none" stroke="black" stroke-width="3"/>
<path d="M124,48v -11" fill="none" stroke="black" stroke-width="3"/>
<path d="M94,43v -6" fill="none" stroke="black" stroke-width="3"/>
<path d="M418,48v -11" fill="none" stroke="black" stroke-width="3"/>
<path d="M448,43v -6" fill="none" stroke="black" stroke-width="3"/>
<path d="M477,43v -6" fill="none" stroke="black" stroke-width="3"/>
<path d="M507,43v -6" fill="none" stroke="black" stroke-width="3"/>
<path d="M79,396v -359" fill="none" stroke="black" stroke-width="3"/>
<path d="M92,396h -13" fill="none" stroke="black" stroke-width="3"/>
<path d="M86,376h -7" fill="none" stroke="black" stroke-width="3"/>
<path d="M86,356h -7" fill="none" stroke="black" stroke-width="3"/>
<path d="M86,336h -7" fill="none" stroke="black" stroke-width="3"/>
<path d="M92,316h -13" fill="none" stroke="black" stroke-width="3"/>
<path d="M86,296h -7" fill="none" stroke="black" stroke-width="3"/>
<path d="M86,277h -7" fill="none" stroke="black" stroke-width="3"/>
<path d="M86,257h -7" fill="none" stroke="black" stroke-width="3"/>
<path d="M92,237h -13" fill="none" stroke="black" stroke-width="3"/>
<path d="M86,217h -7" fill="none" stroke="black" stroke-width="3"/>
<path d="M86,197h -7" fill="none" stroke="black" stroke-width="3"/>
<path d="M86,177h -7" fill="none" stroke="black" stroke-width="3"/>
<path d="M92,157h -13" fill="none" stroke="black" stroke-width="3"/>
<path d="M86,137h -7" fill="none" stroke="black" stroke-width="3"/>
<path d="M86,117h -7" fill="none" stroke="black" stroke-width="3"/>
<path d="M86,97h -7" fill="none" stroke="black" stroke-width="3"/>
<path d="M92,77h -13" fill="none" stroke="black" stroke-width="3"/>
<path d="M92,77h -13" fill="none" stroke="black" stroke-width="3"/>
<path d="M86,57h -7" fill="none" stroke="black" stroke-width="3"/>
<text x="46" y="404" fill="black" font-size="21" font-family="Times" font-weight="bold">
0.0
</text>
<text x="46" y="324" fill="black" font-size="21" font-family="Times" font-weight="bold">
0.2
</text>
<text x="46" y="244" fill="black" font-size="21" font-family="Times" font-weight="bold">
0.4
</text>
<text x="46" y="165" fill="black" font-size="21" font-family="Times" font-weight="bold">
0.6
</text>
<text x="46" y="85" fill="black" font-size="21" font-family="Times" font-weight="bold">
0.8
</text>
<path d="M522,396v -359" fill="none" stroke="black" stroke-width="3"/>
<path d="M508,396h 14" fill="none" stroke="black" stroke-width="3"/>
<path d="M515,376h 7" fill="none" stroke="black" stroke-width="3"/>
<path d="M515,356h 7" fill="none" stroke="black" stroke-width="3"/>
<path d="M515,336h 7" fill="none" stroke="black" stroke-width="3"/>
<path d="M508,316h 14" fill="none" stroke="black" stroke-width="3"/>
<path d="M515,296h 7" fill="none" stroke="black" stroke-width="3"/>
<path d="M515,277h 7" fill="none" stroke="black" stroke-width="3"/>
<path d="M515,257h 7" fill="none" stroke="black" stroke-width="3"/>
<path d="M508,237h 14" fill="none" stroke="black" stroke-width="3"/>
<path d="M515,217h 7" fill="none" stroke="black" stroke-width="3"/>
<path d="M515,197h 7" fill="none" stroke="black" stroke-width="3"/>
<path d="M515,177h 7" fill="none" stroke="black" stroke-width="3"/>
<path d="M508,157h 14" fill="none" stroke="black" stroke-width="3"/>
<path d="M515,137h 7" fill="none" stroke="black" stroke-width="3"/>
<path d="M515,117h 7" fill="none" stroke="black" stroke-width="3"/>
<path d="M515,97h 7" fill="none" stroke="black" stroke-width="3"/>
<path d="M508,77h 14" fill="none" stroke="black" stroke-width="3"/>
<path d="M508,77h 14" fill="none" stroke="black" stroke-width="3"/>
<path d="M515,57h 7" fill="none" stroke="black" stroke-width="3"/>
<rect x="113" y="-4" width="303" height="38" fill="white"/>
<text x="136" y="24" fill="black" font-size="30" font-family="Helvetica" font-weight="bold">
IGHD3-10_star_01
</text>
<path d="M94,393v -36" fill="none" stroke="#ff0000" stroke-width="6"/>
<g stroke="#ff0000" stroke-width="6" fill="#ff0000">
<circle cx="94" cy="396" r="3.5"/>
</g>
<path d="M124,170v -70" fill="none" stroke="#ff0000" stroke-width="6"/>
<path d="M124,94v -57" fill="none" stroke="#ff0000" stroke-width="6"/>
<path d="M109,97h 11" fill="none" stroke="#ff0000" stroke-width="6"/>
<path d="M127,97h 11" fill="none" stroke="#ff0000" stroke-width="6"/>
<g stroke="#ff0000" stroke-width="6" fill="#ff0000">
<circle cx="124" cy="97" r="3.5"/>
</g>
<path d="M153,393v -36" fill="none" stroke="#ff0000" stroke-width="6"/>
<g stroke="#ff0000" stroke-width="6" fill="#ff0000">
<circle cx="153" cy="396" r="3.5"/>
</g>
<path d="M183,275v -75" fill="none" stroke="#ff0000" stroke-width="6"/>
<path d="M183,194v -76" fill="none" stroke="#ff0000" stroke-width="6"/>
<path d="M168,197h 11" fill="none" stroke="#ff0000" stroke-width="6"/>
<path d="M186,197h 11" fill="none" stroke="#ff0000" stroke-width="6"/>
<g stroke="#ff0000" stroke-width="6" fill="#ff0000">
<circle cx="183" cy="197" r="3.5"/>
</g>
<path d="M212,275v -75" fill="none" stroke="#ff0000" stroke-width="6"/>
<path d="M212,194v -76" fill="none" stroke="#ff0000" stroke-width="6"/>
<path d="M197,197h 12" fill="none" stroke="#ff0000" stroke-width="6"/>
<path d="M215,197h 12" fill="none" stroke="#ff0000" stroke-width="6"/>
<g stroke="#ff0000" stroke-width="6" fill="#ff0000">
<circle cx="212" cy="197" r="3.5"/>
</g>
<path d="M242,393v -36" fill="none" stroke="#ff0000" stroke-width="6"/>
<g stroke="#ff0000" stroke-width="6" fill="#ff0000">
<circle cx="242" cy="396" r="3.5"/>
</g>
<path d="M271,393v -36" fill="none" stroke="#ff0000" stroke-width="6"/>
<g stroke="#ff0000" stroke-width="6" fill="#ff0000">
<circle cx="271" cy="396" r="3.5"/>
</g>
<path d="M300,393v -36" fill="none" stroke="#ff0000" stroke-width="6"/>
<g stroke="#ff0000" stroke-width="6" fill="#ff0000">
<circle cx="300" cy="396" r="3.5"/>
</g>
<path d="M330,275v -75" fill="none" stroke="#ff0000" stroke-width="6"/>
<path d="M330,194v -76" fill="none" stroke="#ff0000" stroke-width="6"/>
<path d="M315,197h 12" fill="none" stroke="#ff0000" stroke-width="6"/>
<path d="M333,197h 12" fill="none" stroke="#ff0000" stroke-width="6"/>
<g stroke="#ff0000" stroke-width="6" fill="#ff0000">
<circle cx="330" cy="197" r="3.5"/>
</g>
<path d="M359,393v -36" fill="none" stroke="#ff0000" stroke-width="6"/>
<g stroke="#ff0000" stroke-width="6" fill="#ff0000">
<circle cx="359" cy="396" r="3.5"/>
</g>
<path d="M389,393v -36" fill="none" stroke="#ff0000" stroke-width="6"/>
<g stroke="#ff0000" stroke-width="6" fill="#ff0000">
<circle cx="389" cy="396" r="3.5"/>
</g>
<path d="M418,393v -36" fill="none" stroke="#ff0000" stroke-width="6"/>
<g stroke="#ff0000" stroke-width="6" fill="#ff0000">
<circle cx="418" cy="396" r="3.5"/>
</g>
<path d="M448,369v -69" fill="none" stroke="#ff0000" stroke-width="6"/>
<path d="M448,293v -70" fill="none" stroke="#ff0000" stroke-width="6"/>
<path d="M433,296h 12" fill="none" stroke="#ff0000" stroke-width="6"/>
<path d="M451,296h 12" fill="none" stroke="#ff0000" stroke-width="6"/>
<g stroke="#ff0000" stroke-width="6" fill="#ff0000">
<circle cx="448" cy="296" r="3.5"/>
</g>
<path d="M477,393v -36" fill="none" stroke="#ff0000" stroke-width="6"/>
<g stroke="#ff0000" stroke-width="6" fill="#ff0000">
<circle cx="477" cy="396" r="3.5"/>
</g>
<path d="M507,393v -36" fill="none" stroke="#ff0000" stroke-width="6"/>
<g stroke="#ff0000" stroke-width="6" fill="#ff0000">
<circle cx="507" cy="396" r="3.5"/>
</g>
<path d="M332,107h 42" fill="none" stroke="#ff0000" stroke-width="6"/>
<rect x="113" y="-4" width="303" height="38" fill="white"/>
<text x="136" y="24" fill="black" font-size="30" font-family="Helvetica" font-weight="bold">
IGHD3-10_star_01
</text></svg>
