<?xml version="1.0" standalone="no"?>
<svg width="567" height="466" viewBox="0 0 567 466" xmlns="http://www.w3.org/2000/svg">
<title>
/bbx/output/_plots/example/sw/true/mute-freqs/v/plots/IGHV3-NL1_star_01.svg
</title>
<desc>
Creator: ROOT Version 5.34/14
CreationDate: Thu Jul 30 18:24:58 2015</desc>
<defs>
</defs>
<rect x="0" y="0" width="567" height="466" fill="white"/>
<rect x="79" y="37" width="443" height="359" fill="none" stroke="black"/>
<rect x="79" y="37" width="443" height="359" fill="none" stroke="black"/>
<path d="M79,396h 443" fill="none" stroke="black" stroke-width="3"/>
<path d="M151,385v 11" fill="none" stroke="black" stroke-width="3"/>
<path d="M175,391v 5" fill="none" stroke="black" stroke-width="3"/>
<path d="M200,391v 5" fill="none" stroke="black" stroke-width="3"/>
<path d="M224,391v 5" fill="none" stroke="black" stroke-width="3"/>
<path d="M249,385v 11" fill="none" stroke="black" stroke-width="3"/>
<path d="M273,391v 5" fill="none" stroke="black" stroke-width="3"/>
<path d="M298,391v 5" fill="none" stroke="black" stroke-width="3"/>
<path d="M323,391v 5" fill="none" stroke="black" stroke-width="3"/>
<path d="M347,385v 11" fill="none" stroke="black" stroke-width="3"/>
<path d="M372,391v 5" fill="none" stroke="black" stroke-width="3"/>
<path d="M396,391v 5" fill="none" stroke="black" stroke-width="3"/>
<path d="M421,391v 5" fill="none" stroke="black" stroke-width="3"/>
<path d="M445,385v 11" fill="none" stroke="black" stroke-width="3"/>
<path d="M151,385v 11" fill="none" stroke="black" stroke-width="3"/>
<path d="M126,391v 5" fill="none" stroke="black" stroke-width="3"/>
<path d="M101,391v 5" fill="none" stroke="black" stroke-width="3"/>
<path d="M445,385v 11" fill="none" stroke="black" stroke-width="3"/>
<path d="M470,391v 5" fill="none" stroke="black" stroke-width="3"/>
<path d="M495,391v 5" fill="none" stroke="black" stroke-width="3"/>
<path d="M519,391v 5" fill="none" stroke="black" stroke-width="3"/>
<text x="134" y="416" fill="black" font-size="21" font-family="Times" font-weight="bold">
220
</text>
<text x="232" y="416" fill="black" font-size="21" font-family="Times" font-weight="bold">
240
</text>
<text x="331" y="416" fill="black" font-size="21" font-family="Times" font-weight="bold">
260
</text>
<text x="428" y="416" fill="black" font-size="21" font-family="Times" font-weight="bold">
280
</text>
<path d="M79,37h 443" fill="none" stroke="black" stroke-width="3"/>
<path d="M151,48v -11" fill="none" stroke="black" stroke-width="3"/>
<path d="M175,43v -6" fill="none" stroke="black" stroke-width="3"/>
<path d="M200,43v -6" fill="none" stroke="black" stroke-width="3"/>
<path d="M224,43v -6" fill="none" stroke="black" stroke-width="3"/>
<path d="M249,48v -11" fill="none" stroke="black" stroke-width="3"/>
<path d="M273,43v -6" fill="none" stroke="black" stroke-width="3"/>
<path d="M298,43v -6" fill="none" stroke="black" stroke-width="3"/>
<path d="M323,43v -6" fill="none" stroke="black" stroke-width="3"/>
<path d="M347,48v -11" fill="none" stroke="black" stroke-width="3"/>
<path d="M372,43v -6" fill="none" stroke="black" stroke-width="3"/>
<path d="M396,43v -6" fill="none" stroke="black" stroke-width="3"/>
<path d="M421,43v -6" fill="none" stroke="black" stroke-width="3"/>
<path d="M445,48v -11" fill="none" stroke="black" stroke-width="3"/>
<path d="M151,48v -11" fill="none" stroke="black" stroke-width="3"/>
<path d="M126,43v -6" fill="none" stroke="black" stroke-width="3"/>
<path d="M101,43v -6" fill="none" stroke="black" stroke-width="3"/>
<path d="M445,48v -11" fill="none" stroke="black" stroke-width="3"/>
<path d="M470,43v -6" fill="none" stroke="black" stroke-width="3"/>
<path d="M495,43v -6" fill="none" stroke="black" stroke-width="3"/>
<path d="M519,43v -6" fill="none" stroke="black" stroke-width="3"/>
<path d="M79,396v -359" fill="none" stroke="black" stroke-width="3"/>
<path d="M92,396h -13" fill="none" stroke="black" stroke-width="3"/>
<path d="M86,379h -7" fill="none" stroke="black" stroke-width="3"/>
<path d="M86,362h -7" fill="none" stroke="black" stroke-width="3"/>
<path d="M86,345h -7" fill="none" stroke="black" stroke-width="3"/>
<path d="M86,327h -7" fill="none" stroke="black" stroke-width="3"/>
<path d="M92,310h -13" fill="none" stroke="black" stroke-width="3"/>
<path d="M86,293h -7" fill="none" stroke="black" stroke-width="3"/>
<path d="M86,276h -7" fill="none" stroke="black" stroke-width="3"/>
<path d="M86,259h -7" fill="none" stroke="black" stroke-width="3"/>
<path d="M86,241h -7" fill="none" stroke="black" stroke-width="3"/>
<path d="M92,224h -13" fill="none" stroke="black" stroke-width="3"/>
<path d="M86,207h -7" fill="none" stroke="black" stroke-width="3"/>
<path d="M86,190h -7" fill="none" stroke="black" stroke-width="3"/>
<path d="M86,173h -7" fill="none" stroke="black" stroke-width="3"/>
<path d="M86,155h -7" fill="none" stroke="black" stroke-width="3"/>
<path d="M92,138h -13" fill="none" stroke="black" stroke-width="3"/>
<path d="M86,121h -7" fill="none" stroke="black" stroke-width="3"/>
<path d="M86,104h -7" fill="none" stroke="black" stroke-width="3"/>
<path d="M86,87h -7" fill="none" stroke="black" stroke-width="3"/>
<path d="M86,69h -7" fill="none" stroke="black" stroke-width="3"/>
<path d="M92,52h -13" fill="none" stroke="black" stroke-width="3"/>
<path d="M92,52h -13" fill="none" stroke="black" stroke-width="3"/>
<text x="46" y="404" fill="black" font-size="21" font-family="Times" font-weight="bold">
0.0
</text>
<text x="46" y="318" fill="black" font-size="21" font-family="Times" font-weight="bold">
0.1
</text>
<text x="46" y="232" fill="black" font-size="21" font-family="Times" font-weight="bold">
0.2
</text>
<text x="46" y="146" fill="black" font-size="21" font-family="Times" font-weight="bold">
0.3
</text>
<text x="46" y="60" fill="black" font-size="21" font-family="Times" font-weight="bold">
0.4
</text>
<path d="M522,396v -359" fill="none" stroke="black" stroke-width="3"/>
<path d="M508,396h 14" fill="none" stroke="black" stroke-width="3"/>
<path d="M515,379h 7" fill="none" stroke="black" stroke-width="3"/>
<path d="M515,362h 7" fill="none" stroke="black" stroke-width="3"/>
<path d="M515,345h 7" fill="none" stroke="black" stroke-width="3"/>
<path d="M515,327h 7" fill="none" stroke="black" stroke-width="3"/>
<path d="M508,310h 14" fill="none" stroke="black" stroke-width="3"/>
<path d="M515,293h 7" fill="none" stroke="black" stroke-width="3"/>
<path d="M515,276h 7" fill="none" stroke="black" stroke-width="3"/>
<path d="M515,259h 7" fill="none" stroke="black" stroke-width="3"/>
<path d="M515,241h 7" fill="none" stroke="black" stroke-width="3"/>
<path d="M508,224h 14" fill="none" stroke="black" stroke-width="3"/>
<path d="M515,207h 7" fill="none" stroke="black" stroke-width="3"/>
<path d="M515,190h 7" fill="none" stroke="black" stroke-width="3"/>
<path d="M515,173h 7" fill="none" stroke="black" stroke-width="3"/>
<path d="M515,155h 7" fill="none" stroke="black" stroke-width="3"/>
<path d="M508,138h 14" fill="none" stroke="black" stroke-width="3"/>
<path d="M515,121h 7" fill="none" stroke="black" stroke-width="3"/>
<path d="M515,104h 7" fill="none" stroke="black" stroke-width="3"/>
<path d="M515,87h 7" fill="none" stroke="black" stroke-width="3"/>
<path d="M515,69h 7" fill="none" stroke="black" stroke-width="3"/>
<path d="M508,52h 14" fill="none" stroke="black" stroke-width="3"/>
<path d="M508,52h 14" fill="none" stroke="black" stroke-width="3"/>
<rect x="113" y="-4" width="333" height="38" fill="white"/>
<text x="140" y="24" fill="black" font-size="30" font-family="Helvetica" font-weight="bold">
IGHV3-NL1_star_01
</text>
<path d="M82,393v -69" fill="none" stroke="#ff0000" stroke-width="6"/>
<g stroke="#ff0000" stroke-width="6" fill="#ff0000">
<circle cx="82" cy="396" r="3.5"/>
</g>
<path d="M87,393v -69" fill="none" stroke="#ff0000" stroke-width="6"/>
<g stroke="#ff0000" stroke-width="6" fill="#ff0000">
<circle cx="87" cy="396" r="3.5"/>
</g>
<path d="M92,393v -69" fill="none" stroke="#ff0000" stroke-width="6"/>
<g stroke="#ff0000" stroke-width="6" fill="#ff0000">
<circle cx="92" cy="396" r="3.5"/>
</g>
<path d="M97,393v -69" fill="none" stroke="#ff0000" stroke-width="6"/>
<g stroke="#ff0000" stroke-width="6" fill="#ff0000">
<circle cx="97" cy="396" r="3.5"/>
</g>
<path d="M101,393v -69" fill="none" stroke="#ff0000" stroke-width="6"/>
<g stroke="#ff0000" stroke-width="6" fill="#ff0000">
<circle cx="101" cy="396" r="3.5"/>
</g>
<path d="M106,393v -69" fill="none" stroke="#ff0000" stroke-width="6"/>
<g stroke="#ff0000" stroke-width="6" fill="#ff0000">
<circle cx="106" cy="396" r="3.5"/>
</g>
<path d="M111,393v -69" fill="none" stroke="#ff0000" stroke-width="6"/>
<g stroke="#ff0000" stroke-width="6" fill="#ff0000">
<circle cx="111" cy="396" r="3.5"/>
</g>
<path d="M116,393v -69" fill="none" stroke="#ff0000" stroke-width="6"/>
<g stroke="#ff0000" stroke-width="6" fill="#ff0000">
<circle cx="116" cy="396" r="3.5"/>
</g>
<path d="M121,393v -69" fill="none" stroke="#ff0000" stroke-width="6"/>
<g stroke="#ff0000" stroke-width="6" fill="#ff0000">
<circle cx="121" cy="396" r="3.5"/>
</g>
<path d="M126,393v -38" fill="none" stroke="#ff0000" stroke-width="6"/>
<g stroke="#ff0000" stroke-width="6" fill="#ff0000">
<circle cx="126" cy="396" r="3.5"/>
</g>
<path d="M131,326v -99" fill="none" stroke="#ff0000" stroke-width="6"/>
<path d="M131,221v -99" fill="none" stroke="#ff0000" stroke-width="6"/>
<g stroke="#ff0000" stroke-width="6" fill="#ff0000">
<circle cx="131" cy="224" r="3.5"/>
</g>
<path d="M136,393v -38" fill="none" stroke="#ff0000" stroke-width="6"/>
<g stroke="#ff0000" stroke-width="6" fill="#ff0000">
<circle cx="136" cy="396" r="3.5"/>
</g>
<path d="M141,396v -58" fill="none" stroke="#ff0000" stroke-width="6"/>
<path d="M141,331v -61" fill="none" stroke="#ff0000" stroke-width="6"/>
<g stroke="#ff0000" stroke-width="6" fill="#ff0000">
<circle cx="141" cy="335" r="3.5"/>
</g>
<path d="M146,352v -75" fill="none" stroke="#ff0000" stroke-width="6"/>
<path d="M146,270v -76" fill="none" stroke="#ff0000" stroke-width="6"/>
<g stroke="#ff0000" stroke-width="6" fill="#ff0000">
<circle cx="146" cy="273" r="3.5"/>
</g>
<path d="M151,393v -27" fill="none" stroke="#ff0000" stroke-width="6"/>
<g stroke="#ff0000" stroke-width="6" fill="#ff0000">
<circle cx="151" cy="396" r="3.5"/>
</g>
<path d="M156,393v -16" fill="none" stroke="#ff0000" stroke-width="6"/>
<g stroke="#ff0000" stroke-width="6" fill="#ff0000">
<circle cx="156" cy="396" r="3.5"/>
</g>
<path d="M160,344v -57" fill="none" stroke="#ff0000" stroke-width="6"/>
<path d="M160,281v -57" fill="none" stroke="#ff0000" stroke-width="6"/>
<g stroke="#ff0000" stroke-width="6" fill="#ff0000">
<circle cx="160" cy="284" r="3.5"/>
</g>
<path d="M165,393v -16" fill="none" stroke="#ff0000" stroke-width="6"/>
<g stroke="#ff0000" stroke-width="6" fill="#ff0000">
<circle cx="165" cy="396" r="3.5"/>
</g>
<path d="M170,396v -34" fill="none" stroke="#ff0000" stroke-width="6"/>
<path d="M170,355v -38" fill="none" stroke="#ff0000" stroke-width="6"/>
<g stroke="#ff0000" stroke-width="6" fill="#ff0000">
<circle cx="170" cy="359" r="3.5"/>
</g>
<path d="M175,396v -34" fill="none" stroke="#ff0000" stroke-width="6"/>
<path d="M175,355v -38" fill="none" stroke="#ff0000" stroke-width="6"/>
<g stroke="#ff0000" stroke-width="6" fill="#ff0000">
<circle cx="175" cy="359" r="3.5"/>
</g>
<path d="M180,396v -34" fill="none" stroke="#ff0000" stroke-width="6"/>
<path d="M180,355v -38" fill="none" stroke="#ff0000" stroke-width="6"/>
<g stroke="#ff0000" stroke-width="6" fill="#ff0000">
<circle cx="180" cy="359" r="3.5"/>
</g>
<path d="M185,373v -48" fill="none" stroke="#ff0000" stroke-width="6"/>
<path d="M185,318v -49" fill="none" stroke="#ff0000" stroke-width="6"/>
<g stroke="#ff0000" stroke-width="6" fill="#ff0000">
<circle cx="185" cy="321" r="3.5"/>
</g>
<path d="M190,393v -16" fill="none" stroke="#ff0000" stroke-width="6"/>
<g stroke="#ff0000" stroke-width="6" fill="#ff0000">
<circle cx="190" cy="396" r="3.5"/>
</g>
<path d="M195,396v -34" fill="none" stroke="#ff0000" stroke-width="6"/>
<path d="M195,355v -38" fill="none" stroke="#ff0000" stroke-width="6"/>
<g stroke="#ff0000" stroke-width="6" fill="#ff0000">
<circle cx="195" cy="359" r="3.5"/>
</g>
<path d="M200,373v -48" fill="none" stroke="#ff0000" stroke-width="6"/>
<path d="M200,318v -49" fill="none" stroke="#ff0000" stroke-width="6"/>
<g stroke="#ff0000" stroke-width="6" fill="#ff0000">
<circle cx="200" cy="321" r="3.5"/>
</g>
<path d="M205,373v -48" fill="none" stroke="#ff0000" stroke-width="6"/>
<path d="M205,318v -49" fill="none" stroke="#ff0000" stroke-width="6"/>
<g stroke="#ff0000" stroke-width="6" fill="#ff0000">
<circle cx="205" cy="321" r="3.5"/>
</g>
<path d="M210,373v -48" fill="none" stroke="#ff0000" stroke-width="6"/>
<path d="M210,318v -49" fill="none" stroke="#ff0000" stroke-width="6"/>
<g stroke="#ff0000" stroke-width="6" fill="#ff0000">
<circle cx="210" cy="321" r="3.5"/>
</g>
<path d="M214,344v -57" fill="none" stroke="#ff0000" stroke-width="6"/>
<path d="M214,281v -57" fill="none" stroke="#ff0000" stroke-width="6"/>
<g stroke="#ff0000" stroke-width="6" fill="#ff0000">
<circle cx="214" cy="284" r="3.5"/>
</g>
<path d="M219,344v -57" fill="none" stroke="#ff0000" stroke-width="6"/>
<path d="M219,281v -57" fill="none" stroke="#ff0000" stroke-width="6"/>
<g stroke="#ff0000" stroke-width="6" fill="#ff0000">
<circle cx="219" cy="284" r="3.5"/>
</g>
<path d="M224,393v -16" fill="none" stroke="#ff0000" stroke-width="6"/>
<g stroke="#ff0000" stroke-width="6" fill="#ff0000">
<circle cx="224" cy="396" r="3.5"/>
</g>
<path d="M229,280v -67" fill="none" stroke="#ff0000" stroke-width="6"/>
<path d="M229,206v -67" fill="none" stroke="#ff0000" stroke-width="6"/>
<g stroke="#ff0000" stroke-width="6" fill="#ff0000">
<circle cx="229" cy="209" r="3.5"/>
</g>
<path d="M234,344v -57" fill="none" stroke="#ff0000" stroke-width="6"/>
<path d="M234,281v -57" fill="none" stroke="#ff0000" stroke-width="6"/>
<g stroke="#ff0000" stroke-width="6" fill="#ff0000">
<circle cx="234" cy="284" r="3.5"/>
</g>
<path d="M239,393v -16" fill="none" stroke="#ff0000" stroke-width="6"/>
<g stroke="#ff0000" stroke-width="6" fill="#ff0000">
<circle cx="239" cy="396" r="3.5"/>
</g>
<path d="M244,393v -16" fill="none" stroke="#ff0000" stroke-width="6"/>
<g stroke="#ff0000" stroke-width="6" fill="#ff0000">
<circle cx="244" cy="396" r="3.5"/>
</g>
<path d="M249,396v -34" fill="none" stroke="#ff0000" stroke-width="6"/>
<path d="M249,355v -38" fill="none" stroke="#ff0000" stroke-width="6"/>
<g stroke="#ff0000" stroke-width="6" fill="#ff0000">
<circle cx="249" cy="359" r="3.5"/>
</g>
<path d="M254,393v -16" fill="none" stroke="#ff0000" stroke-width="6"/>
<g stroke="#ff0000" stroke-width="6" fill="#ff0000">
<circle cx="254" cy="396" r="3.5"/>
</g>
<path d="M259,280v -67" fill="none" stroke="#ff0000" stroke-width="6"/>
<path d="M259,206v -67" fill="none" stroke="#ff0000" stroke-width="6"/>
<g stroke="#ff0000" stroke-width="6" fill="#ff0000">
<circle cx="259" cy="209" r="3.5"/>
</g>
<path d="M264,373v -48" fill="none" stroke="#ff0000" stroke-width="6"/>
<path d="M264,318v -49" fill="none" stroke="#ff0000" stroke-width="6"/>
<g stroke="#ff0000" stroke-width="6" fill="#ff0000">
<circle cx="264" cy="321" r="3.5"/>
</g>
<path d="M269,373v -48" fill="none" stroke="#ff0000" stroke-width="6"/>
<path d="M269,318v -49" fill="none" stroke="#ff0000" stroke-width="6"/>
<g stroke="#ff0000" stroke-width="6" fill="#ff0000">
<circle cx="269" cy="321" r="3.5"/>
</g>
<path d="M273,396v -34" fill="none" stroke="#ff0000" stroke-width="6"/>
<path d="M273,355v -38" fill="none" stroke="#ff0000" stroke-width="6"/>
<g stroke="#ff0000" stroke-width="6" fill="#ff0000">
<circle cx="273" cy="359" r="3.5"/>
</g>
<path d="M278,393v -16" fill="none" stroke="#ff0000" stroke-width="6"/>
<g stroke="#ff0000" stroke-width="6" fill="#ff0000">
<circle cx="278" cy="396" r="3.5"/>
</g>
<path d="M283,393v -16" fill="none" stroke="#ff0000" stroke-width="6"/>
<g stroke="#ff0000" stroke-width="6" fill="#ff0000">
<circle cx="283" cy="396" r="3.5"/>
</g>
<path d="M288,393v -16" fill="none" stroke="#ff0000" stroke-width="6"/>
<g stroke="#ff0000" stroke-width="6" fill="#ff0000">
<circle cx="288" cy="396" r="3.5"/>
</g>
<path d="M293,312v -62" fill="none" stroke="#ff0000" stroke-width="6"/>
<path d="M293,243v -62" fill="none" stroke="#ff0000" stroke-width="6"/>
<g stroke="#ff0000" stroke-width="6" fill="#ff0000">
<circle cx="293" cy="247" r="3.5"/>
</g>
<path d="M298,344v -57" fill="none" stroke="#ff0000" stroke-width="6"/>
<path d="M298,281v -57" fill="none" stroke="#ff0000" stroke-width="6"/>
<g stroke="#ff0000" stroke-width="6" fill="#ff0000">
<circle cx="298" cy="284" r="3.5"/>
</g>
<path d="M303,396v -34" fill="none" stroke="#ff0000" stroke-width="6"/>
<path d="M303,355v -38" fill="none" stroke="#ff0000" stroke-width="6"/>
<g stroke="#ff0000" stroke-width="6" fill="#ff0000">
<circle cx="303" cy="359" r="3.5"/>
</g>
<path d="M308,373v -48" fill="none" stroke="#ff0000" stroke-width="6"/>
<path d="M308,318v -49" fill="none" stroke="#ff0000" stroke-width="6"/>
<g stroke="#ff0000" stroke-width="6" fill="#ff0000">
<circle cx="308" cy="321" r="3.5"/>
</g>
<path d="M313,393v -16" fill="none" stroke="#ff0000" stroke-width="6"/>
<g stroke="#ff0000" stroke-width="6" fill="#ff0000">
<circle cx="313" cy="396" r="3.5"/>
</g>
<path d="M318,373v -48" fill="none" stroke="#ff0000" stroke-width="6"/>
<path d="M318,318v -49" fill="none" stroke="#ff0000" stroke-width="6"/>
<g stroke="#ff0000" stroke-width="6" fill="#ff0000">
<circle cx="318" cy="321" r="3.5"/>
</g>
<path d="M323,344v -57" fill="none" stroke="#ff0000" stroke-width="6"/>
<path d="M323,281v -57" fill="none" stroke="#ff0000" stroke-width="6"/>
<g stroke="#ff0000" stroke-width="6" fill="#ff0000">
<circle cx="323" cy="284" r="3.5"/>
</g>
<path d="M327,393v -16" fill="none" stroke="#ff0000" stroke-width="6"/>
<g stroke="#ff0000" stroke-width="6" fill="#ff0000">
<circle cx="327" cy="396" r="3.5"/>
</g>
<path d="M332,396v -34" fill="none" stroke="#ff0000" stroke-width="6"/>
<path d="M332,355v -38" fill="none" stroke="#ff0000" stroke-width="6"/>
<g stroke="#ff0000" stroke-width="6" fill="#ff0000">
<circle cx="332" cy="359" r="3.5"/>
</g>
<path d="M337,393v -16" fill="none" stroke="#ff0000" stroke-width="6"/>
<g stroke="#ff0000" stroke-width="6" fill="#ff0000">
<circle cx="337" cy="396" r="3.5"/>
</g>
<path d="M342,373v -48" fill="none" stroke="#ff0000" stroke-width="6"/>
<path d="M342,318v -49" fill="none" stroke="#ff0000" stroke-width="6"/>
<g stroke="#ff0000" stroke-width="6" fill="#ff0000">
<circle cx="342" cy="321" r="3.5"/>
</g>
<path d="M347,373v -48" fill="none" stroke="#ff0000" stroke-width="6"/>
<path d="M347,318v -49" fill="none" stroke="#ff0000" stroke-width="6"/>
<g stroke="#ff0000" stroke-width="6" fill="#ff0000">
<circle cx="347" cy="321" r="3.5"/>
</g>
<path d="M352,177v -77" fill="none" stroke="#ff0000" stroke-width="6"/>
<path d="M352,94v -57" fill="none" stroke="#ff0000" stroke-width="6"/>
<g stroke="#ff0000" stroke-width="6" fill="#ff0000">
<circle cx="352" cy="97" r="3.5"/>
</g>
<path d="M357,373v -48" fill="none" stroke="#ff0000" stroke-width="6"/>
<path d="M357,318v -49" fill="none" stroke="#ff0000" stroke-width="6"/>
<g stroke="#ff0000" stroke-width="6" fill="#ff0000">
<circle cx="357" cy="321" r="3.5"/>
</g>
<path d="M362,393v -16" fill="none" stroke="#ff0000" stroke-width="6"/>
<g stroke="#ff0000" stroke-width="6" fill="#ff0000">
<circle cx="362" cy="396" r="3.5"/>
</g>
<path d="M367,373v -48" fill="none" stroke="#ff0000" stroke-width="6"/>
<path d="M367,318v -49" fill="none" stroke="#ff0000" stroke-width="6"/>
<g stroke="#ff0000" stroke-width="6" fill="#ff0000">
<circle cx="367" cy="321" r="3.5"/>
</g>
<path d="M372,373v -48" fill="none" stroke="#ff0000" stroke-width="6"/>
<path d="M372,318v -49" fill="none" stroke="#ff0000" stroke-width="6"/>
<g stroke="#ff0000" stroke-width="6" fill="#ff0000">
<circle cx="372" cy="321" r="3.5"/>
</g>
<path d="M377,312v -62" fill="none" stroke="#ff0000" stroke-width="6"/>
<path d="M377,243v -62" fill="none" stroke="#ff0000" stroke-width="6"/>
<g stroke="#ff0000" stroke-width="6" fill="#ff0000">
<circle cx="377" cy="247" r="3.5"/>
</g>
<path d="M382,373v -48" fill="none" stroke="#ff0000" stroke-width="6"/>
<path d="M382,318v -49" fill="none" stroke="#ff0000" stroke-width="6"/>
<g stroke="#ff0000" stroke-width="6" fill="#ff0000">
<circle cx="382" cy="321" r="3.5"/>
</g>
<path d="M386,393v -16" fill="none" stroke="#ff0000" stroke-width="6"/>
<g stroke="#ff0000" stroke-width="6" fill="#ff0000">
<circle cx="386" cy="396" r="3.5"/>
</g>
<path d="M391,393v -16" fill="none" stroke="#ff0000" stroke-width="6"/>
<g stroke="#ff0000" stroke-width="6" fill="#ff0000">
<circle cx="391" cy="396" r="3.5"/>
</g>
<path d="M396,393v -16" fill="none" stroke="#ff0000" stroke-width="6"/>
<g stroke="#ff0000" stroke-width="6" fill="#ff0000">
<circle cx="396" cy="396" r="3.5"/>
</g>
<path d="M401,393v -16" fill="none" stroke="#ff0000" stroke-width="6"/>
<g stroke="#ff0000" stroke-width="6" fill="#ff0000">
<circle cx="401" cy="396" r="3.5"/>
</g>
<path d="M406,396v -34" fill="none" stroke="#ff0000" stroke-width="6"/>
<path d="M406,355v -38" fill="none" stroke="#ff0000" stroke-width="6"/>
<g stroke="#ff0000" stroke-width="6" fill="#ff0000">
<circle cx="406" cy="359" r="3.5"/>
</g>
<path d="M411,312v -62" fill="none" stroke="#ff0000" stroke-width="6"/>
<path d="M411,243v -62" fill="none" stroke="#ff0000" stroke-width="6"/>
<g stroke="#ff0000" stroke-width="6" fill="#ff0000">
<circle cx="411" cy="247" r="3.5"/>
</g>
<path d="M416,396v -34" fill="none" stroke="#ff0000" stroke-width="6"/>
<path d="M416,355v -38" fill="none" stroke="#ff0000" stroke-width="6"/>
<g stroke="#ff0000" stroke-width="6" fill="#ff0000">
<circle cx="416" cy="359" r="3.5"/>
</g>
<path d="M421,393v -16" fill="none" stroke="#ff0000" stroke-width="6"/>
<g stroke="#ff0000" stroke-width="6" fill="#ff0000">
<circle cx="421" cy="396" r="3.5"/>
</g>
<path d="M426,396v -34" fill="none" stroke="#ff0000" stroke-width="6"/>
<path d="M426,355v -38" fill="none" stroke="#ff0000" stroke-width="6"/>
<g stroke="#ff0000" stroke-width="6" fill="#ff0000">
<circle cx="426" cy="359" r="3.5"/>
</g>
<path d="M431,396v -34" fill="none" stroke="#ff0000" stroke-width="6"/>
<path d="M431,355v -38" fill="none" stroke="#ff0000" stroke-width="6"/>
<g stroke="#ff0000" stroke-width="6" fill="#ff0000">
<circle cx="431" cy="359" r="3.5"/>
</g>
<path d="M436,344v -57" fill="none" stroke="#ff0000" stroke-width="6"/>
<path d="M436,281v -57" fill="none" stroke="#ff0000" stroke-width="6"/>
<g stroke="#ff0000" stroke-width="6" fill="#ff0000">
<circle cx="436" cy="284" r="3.5"/>
</g>
<path d="M441,393v -16" fill="none" stroke="#ff0000" stroke-width="6"/>
<g stroke="#ff0000" stroke-width="6" fill="#ff0000">
<circle cx="441" cy="396" r="3.5"/>
</g>
<path d="M445,393v -16" fill="none" stroke="#ff0000" stroke-width="6"/>
<g stroke="#ff0000" stroke-width="6" fill="#ff0000">
<circle cx="445" cy="396" r="3.5"/>
</g>
<path d="M450,393v -16" fill="none" stroke="#ff0000" stroke-width="6"/>
<g stroke="#ff0000" stroke-width="6" fill="#ff0000">
<circle cx="450" cy="396" r="3.5"/>
</g>
<path d="M455,393v -16" fill="none" stroke="#ff0000" stroke-width="6"/>
<g stroke="#ff0000" stroke-width="6" fill="#ff0000">
<circle cx="455" cy="396" r="3.5"/>
</g>
<path d="M460,373v -48" fill="none" stroke="#ff0000" stroke-width="6"/>
<path d="M460,318v -49" fill="none" stroke="#ff0000" stroke-width="6"/>
<g stroke="#ff0000" stroke-width="6" fill="#ff0000">
<circle cx="460" cy="321" r="3.5"/>
</g>
<path d="M465,344v -57" fill="none" stroke="#ff0000" stroke-width="6"/>
<path d="M465,281v -57" fill="none" stroke="#ff0000" stroke-width="6"/>
<g stroke="#ff0000" stroke-width="6" fill="#ff0000">
<circle cx="465" cy="284" r="3.5"/>
</g>
<path d="M470,393v -16" fill="none" stroke="#ff0000" stroke-width="6"/>
<g stroke="#ff0000" stroke-width="6" fill="#ff0000">
<circle cx="470" cy="396" r="3.5"/>
</g>
<path d="M475,393v -16" fill="none" stroke="#ff0000" stroke-width="6"/>
<g stroke="#ff0000" stroke-width="6" fill="#ff0000">
<circle cx="475" cy="396" r="3.5"/>
</g>
<path d="M480,393v -16" fill="none" stroke="#ff0000" stroke-width="6"/>
<g stroke="#ff0000" stroke-width="6" fill="#ff0000">
<circle cx="480" cy="396" r="3.5"/>
</g>
<path d="M485,396v -34" fill="none" stroke="#ff0000" stroke-width="6"/>
<path d="M485,355v -38" fill="none" stroke="#ff0000" stroke-width="6"/>
<g stroke="#ff0000" stroke-width="6" fill="#ff0000">
<circle cx="485" cy="359" r="3.5"/>
</g>
<path d="M490,393v -27" fill="none" stroke="#ff0000" stroke-width="6"/>
<g stroke="#ff0000" stroke-width="6" fill="#ff0000">
<circle cx="490" cy="396" r="3.5"/>
</g>
<path d="M495,393v -27" fill="none" stroke="#ff0000" stroke-width="6"/>
<g stroke="#ff0000" stroke-width="6" fill="#ff0000">
<circle cx="495" cy="396" r="3.5"/>
</g>
<path d="M499,393v -27" fill="none" stroke="#ff0000" stroke-width="6"/>
<g stroke="#ff0000" stroke-width="6" fill="#ff0000">
<circle cx="499" cy="396" r="3.5"/>
</g>
<path d="M504,393v -27" fill="none" stroke="#ff0000" stroke-width="6"/>
<g stroke="#ff0000" stroke-width="6" fill="#ff0000">
<circle cx="504" cy="396" r="3.5"/>
</g>
<path d="M509,396v -58" fill="none" stroke="#ff0000" stroke-width="6"/>
<path d="M509,331v -61" fill="none" stroke="#ff0000" stroke-width="6"/>
<g stroke="#ff0000" stroke-width="6" fill="#ff0000">
<circle cx="509" cy="335" r="3.5"/>
</g>
<path d="M514,393v -27" fill="none" stroke="#ff0000" stroke-width="6"/>
<g stroke="#ff0000" stroke-width="6" fill="#ff0000">
<circle cx="514" cy="396" r="3.5"/>
</g>
<path d="M519,393v -38" fill="none" stroke="#ff0000" stroke-width="6"/>
<g stroke="#ff0000" stroke-width="6" fill="#ff0000">
<circle cx="519" cy="396" r="3.5"/>
</g>
<path d="M332,107h 42" fill="none" stroke="#ff0000" stroke-width="6"/>
<path d="M470,426v -179" fill="none" stroke="black" stroke-width="3" stroke-dasharray=" 3, 3"/>
<rect x="113" y="-4" width="333" height="38" fill="white"/>
<text x="140" y="24" fill="black" font-size="30" font-family="Helvetica" font-weight="bold">
IGHV3-NL1_star_01
</text></svg>
